G04*
G04 #@! TF.GenerationSoftware,Altium Limited,Altium Designer,22.11.1 (43)*
G04*
G04 Layer_Color=65535*
%FSLAX44Y44*%
%MOMM*%
G71*
G04*
G04 #@! TF.SameCoordinates,EED40AE4-AA45-4B6A-A555-91E3D054F81B*
G04*
G04*
G04 #@! TF.FilePolarity,Positive*
G04*
G01*
G75*
%ADD10C,0.4000*%
%ADD11C,0.2000*%
%ADD12C,0.2500*%
%ADD13C,0.2540*%
%ADD14R,0.8000X0.3000*%
G36*
X492393Y205782D02*
X493223D01*
Y205616D01*
X493554D01*
Y205450D01*
X493886D01*
Y205284D01*
X494218D01*
Y205119D01*
X494550D01*
Y204953D01*
X494716D01*
Y204787D01*
X494882D01*
Y204621D01*
X495047D01*
Y204455D01*
X495213D01*
Y204289D01*
X495379D01*
Y203957D01*
X495545D01*
Y203792D01*
X495711D01*
Y203460D01*
X495877D01*
Y202962D01*
X496043D01*
Y202465D01*
X496208D01*
Y200806D01*
X496043D01*
Y200142D01*
X495877D01*
Y199810D01*
X495711D01*
Y199479D01*
X495545D01*
Y199147D01*
X495379D01*
Y198815D01*
X495213D01*
Y198649D01*
X495047D01*
Y198483D01*
X494882D01*
Y198318D01*
X494716D01*
Y198152D01*
X494550D01*
Y197986D01*
X494218D01*
Y197820D01*
X493886D01*
Y197654D01*
X493554D01*
Y197488D01*
X493057D01*
Y197322D01*
X492228D01*
Y197156D01*
X491398D01*
Y197322D01*
X490569D01*
Y197488D01*
X490237D01*
Y197654D01*
X489739D01*
Y197820D01*
X489573D01*
Y197986D01*
X489242D01*
Y198152D01*
X489076D01*
Y198318D01*
X488910D01*
Y198483D01*
X488744D01*
Y198649D01*
X488578D01*
Y198815D01*
X488412D01*
Y198981D01*
X488246D01*
Y199313D01*
X488081D01*
Y199645D01*
X487915D01*
Y199976D01*
X487749D01*
Y200474D01*
X487583D01*
Y202796D01*
X487749D01*
Y203294D01*
X487915D01*
Y203626D01*
X488081D01*
Y203957D01*
X488246D01*
Y204123D01*
X488412D01*
Y204289D01*
X488578D01*
Y204621D01*
X488744D01*
Y204787D01*
X489076D01*
Y204953D01*
X489242D01*
Y205119D01*
X489408D01*
Y205284D01*
X489739D01*
Y205450D01*
X490071D01*
Y205616D01*
X490569D01*
Y205782D01*
X491232D01*
Y205948D01*
X492393D01*
Y205782D01*
D02*
G37*
G36*
X484929Y196327D02*
X484763D01*
Y196161D01*
X480948D01*
Y183223D01*
X480782D01*
Y183389D01*
X480616D01*
Y183554D01*
X480450D01*
Y183720D01*
X480284D01*
Y183886D01*
X479953D01*
Y184052D01*
X479787D01*
Y184218D01*
X479621D01*
Y184384D01*
X479455D01*
Y184550D01*
X479289D01*
Y184716D01*
X479123D01*
Y184881D01*
X478957D01*
Y185047D01*
X478791D01*
Y185213D01*
X478626D01*
Y185379D01*
X478460D01*
Y185545D01*
X478294D01*
Y185711D01*
X478128D01*
Y185877D01*
X477962D01*
Y186043D01*
X477630D01*
Y186374D01*
X477299D01*
Y186540D01*
X477133D01*
Y186706D01*
X476967D01*
Y186872D01*
X476801D01*
Y187038D01*
X476635D01*
Y187204D01*
X476469D01*
Y187370D01*
X476303D01*
Y196161D01*
X466351D01*
Y196327D01*
X466185D01*
Y196493D01*
X466019D01*
Y196659D01*
X465687D01*
Y196825D01*
X465521D01*
Y196991D01*
X465355D01*
Y197156D01*
X465190D01*
Y197322D01*
X465024D01*
Y197488D01*
X464692D01*
Y197654D01*
X464526D01*
Y197820D01*
X464360D01*
Y197986D01*
X464194D01*
Y198152D01*
X464028D01*
Y198318D01*
X463862D01*
Y198483D01*
X463531D01*
Y198649D01*
X463365D01*
Y198815D01*
X463199D01*
Y198981D01*
X463033D01*
Y199147D01*
X462867D01*
Y199313D01*
X462536D01*
Y199479D01*
X462370D01*
Y199645D01*
X462204D01*
Y199810D01*
X462038D01*
Y199976D01*
X461872D01*
Y200142D01*
X461706D01*
Y200308D01*
X484929D01*
Y196327D01*
D02*
G37*
G36*
X458554Y199976D02*
X458720D01*
Y199810D01*
X458886D01*
Y199645D01*
X459052D01*
Y199479D01*
X459218D01*
Y199313D01*
X459384D01*
Y199147D01*
X459550D01*
Y198981D01*
X459716D01*
Y198815D01*
X459882D01*
Y198649D01*
X460047D01*
Y198483D01*
X460213D01*
Y198318D01*
X460379D01*
Y198152D01*
X460711D01*
Y197986D01*
X460877D01*
Y197820D01*
X461043D01*
Y197654D01*
X461208D01*
Y197488D01*
X461374D01*
Y197322D01*
X461540D01*
Y197156D01*
X461706D01*
Y196991D01*
X461872D01*
Y196825D01*
X462038D01*
Y196659D01*
X462204D01*
Y196493D01*
X462370D01*
Y196327D01*
X462536D01*
Y196161D01*
X462701D01*
Y195995D01*
X462867D01*
Y195829D01*
X463199D01*
Y195664D01*
X463365D01*
Y195498D01*
X463531D01*
Y195332D01*
X463697D01*
Y195166D01*
X463862D01*
Y195000D01*
X464028D01*
Y194834D01*
X464194D01*
Y194668D01*
X464360D01*
Y194502D01*
X464526D01*
Y194336D01*
X464692D01*
Y194171D01*
X464858D01*
Y194005D01*
X465024D01*
Y193839D01*
X465190D01*
Y193673D01*
X465355D01*
Y193507D01*
X465521D01*
Y193341D01*
X465853D01*
Y193175D01*
X466019D01*
Y193009D01*
X466185D01*
Y192844D01*
X466351D01*
Y192678D01*
X466517D01*
Y192512D01*
X466683D01*
Y192346D01*
X466848D01*
Y192180D01*
X467014D01*
Y192014D01*
X467180D01*
Y191848D01*
X467346D01*
Y191682D01*
X467512D01*
Y191517D01*
X467678D01*
Y191351D01*
X467844D01*
Y191185D01*
X468009D01*
Y191019D01*
X468175D01*
Y190853D01*
X468507D01*
Y190687D01*
X468673D01*
Y190521D01*
X468839D01*
Y190355D01*
X469005D01*
Y190190D01*
X469171D01*
Y190024D01*
X469337D01*
Y189858D01*
X469502D01*
Y189692D01*
X469668D01*
Y189526D01*
X469834D01*
Y189360D01*
X470000D01*
Y189194D01*
X470166D01*
Y189028D01*
X470332D01*
Y188863D01*
X470663D01*
Y188697D01*
X470829D01*
Y188531D01*
X470995D01*
Y188365D01*
X471161D01*
Y188199D01*
X471327D01*
Y188033D01*
X471493D01*
Y187867D01*
X471659D01*
Y187701D01*
X471825D01*
Y187536D01*
X471991D01*
Y187370D01*
X472156D01*
Y187204D01*
X472322D01*
Y187038D01*
X472488D01*
Y186872D01*
X472654D01*
Y186706D01*
X472986D01*
Y186374D01*
X473317D01*
Y186208D01*
X473483D01*
Y186043D01*
X473649D01*
Y185877D01*
X473815D01*
Y185711D01*
X473981D01*
Y185545D01*
X474147D01*
Y185379D01*
X474313D01*
Y185213D01*
X474479D01*
Y185047D01*
X474645D01*
Y184881D01*
X474810D01*
Y184716D01*
X474976D01*
Y184550D01*
X475142D01*
Y184384D01*
X475308D01*
Y184218D01*
X475474D01*
Y184052D01*
X475640D01*
Y183886D01*
X475972D01*
Y183720D01*
X476137D01*
Y183554D01*
X476303D01*
Y183389D01*
X476469D01*
Y183223D01*
X476635D01*
Y183057D01*
X470829D01*
Y183223D01*
X470663D01*
Y183389D01*
X470498D01*
Y183554D01*
X470332D01*
Y183720D01*
X470166D01*
Y183886D01*
X469834D01*
Y184052D01*
X469668D01*
Y184218D01*
X469502D01*
Y184384D01*
X469337D01*
Y184550D01*
X469171D01*
Y184716D01*
X469005D01*
Y184881D01*
X468839D01*
Y185047D01*
X468673D01*
Y185213D01*
X468507D01*
Y185379D01*
X468341D01*
Y185545D01*
X468175D01*
Y185711D01*
X467844D01*
Y185877D01*
X467678D01*
Y186043D01*
X467512D01*
Y186208D01*
X467346D01*
Y186374D01*
X467180D01*
Y186540D01*
X467014D01*
Y186706D01*
X466848D01*
Y186872D01*
X466683D01*
Y187038D01*
X466517D01*
Y187204D01*
X466185D01*
Y187370D01*
X466019D01*
Y187536D01*
X465853D01*
Y187701D01*
X465687D01*
Y187867D01*
X465521D01*
Y188033D01*
X465355D01*
Y188199D01*
X465190D01*
Y188365D01*
X465024D01*
Y188531D01*
X464858D01*
Y188697D01*
X464692D01*
Y188863D01*
X464360D01*
Y189028D01*
X464194D01*
Y189194D01*
X464028D01*
Y189360D01*
X463862D01*
Y189526D01*
X463697D01*
Y189692D01*
X463531D01*
Y189858D01*
X463365D01*
Y190024D01*
X463199D01*
Y190190D01*
X463033D01*
Y190355D01*
X462701D01*
Y188531D01*
Y188365D01*
Y183057D01*
X458223D01*
Y200142D01*
X458554D01*
Y199976D01*
D02*
G37*
G36*
X436659Y203294D02*
X436493D01*
Y203128D01*
X436327D01*
Y202962D01*
X436161D01*
Y202796D01*
X435995D01*
Y202465D01*
X435663D01*
Y202133D01*
X435498D01*
Y201967D01*
X435166D01*
Y201635D01*
X435000D01*
Y201469D01*
X434834D01*
Y201303D01*
X434668D01*
Y201137D01*
X434502D01*
Y200972D01*
X434337D01*
Y200806D01*
X434171D01*
Y200640D01*
X434005D01*
Y200308D01*
X452583D01*
Y199976D01*
X452251D01*
Y199810D01*
X452085D01*
Y199645D01*
X451919D01*
Y199479D01*
X451754D01*
Y199313D01*
X451588D01*
Y199147D01*
X451422D01*
Y198981D01*
X451090D01*
Y198815D01*
X450924D01*
Y198649D01*
X450758D01*
Y198483D01*
X450592D01*
Y198318D01*
X450426D01*
Y198152D01*
X450261D01*
Y197986D01*
X450095D01*
Y197820D01*
X449763D01*
Y197654D01*
X449597D01*
Y197488D01*
X449431D01*
Y197322D01*
X449265D01*
Y197156D01*
X449100D01*
Y196991D01*
X448934D01*
Y196825D01*
X448768D01*
Y196659D01*
X448436D01*
Y196493D01*
X448270D01*
Y196327D01*
X448104D01*
Y196161D01*
X437322D01*
Y192346D01*
X437488D01*
Y192512D01*
X437820D01*
Y192678D01*
X437986D01*
Y192844D01*
X438152D01*
Y193009D01*
X438317D01*
Y193175D01*
X438649D01*
Y193341D01*
X438815D01*
Y193507D01*
X439147D01*
Y193673D01*
X439313D01*
Y193839D01*
X439479D01*
Y194005D01*
X439645D01*
Y186540D01*
X439810D01*
Y186706D01*
X440142D01*
Y186872D01*
X440308D01*
Y187038D01*
X440474D01*
Y187204D01*
X440640D01*
Y187370D01*
X440806D01*
Y187536D01*
X440972D01*
Y187701D01*
X441137D01*
Y187867D01*
X441469D01*
Y188033D01*
X441635D01*
Y188199D01*
X441801D01*
Y188365D01*
X441967D01*
Y188531D01*
X442133D01*
Y188697D01*
X442299D01*
Y188863D01*
X442464D01*
Y189028D01*
X442796D01*
Y189194D01*
X442962D01*
Y189360D01*
X443128D01*
Y189526D01*
X443294D01*
Y189692D01*
X443460D01*
Y189858D01*
X443626D01*
Y190024D01*
X443792D01*
Y190190D01*
X443957D01*
Y190355D01*
X444289D01*
Y190521D01*
X444455D01*
Y190687D01*
X444621D01*
Y190853D01*
X444787D01*
Y191019D01*
X444953D01*
Y191185D01*
X445118D01*
Y191351D01*
X445284D01*
Y191517D01*
X445450D01*
Y191682D01*
X445782D01*
Y191848D01*
X445948D01*
Y192014D01*
X446114D01*
Y192180D01*
X446280D01*
Y192346D01*
X446446D01*
Y192512D01*
X446611D01*
Y192678D01*
X446777D01*
Y192844D01*
X446943D01*
Y193009D01*
X447275D01*
Y193175D01*
X447441D01*
Y193341D01*
X447607D01*
Y193507D01*
X447772D01*
Y193673D01*
X447938D01*
Y193839D01*
X448104D01*
Y194005D01*
X448270D01*
Y194171D01*
X448602D01*
Y194336D01*
X448768D01*
Y194502D01*
X448934D01*
Y194668D01*
X449100D01*
Y194834D01*
X449265D01*
Y195000D01*
X449431D01*
Y195166D01*
X449597D01*
Y195332D01*
X449763D01*
Y195498D01*
X450095D01*
Y195664D01*
X450261D01*
Y195829D01*
X450426D01*
Y195995D01*
X450592D01*
Y196161D01*
X450758D01*
Y196327D01*
X450924D01*
Y196493D01*
X451090D01*
Y196659D01*
X451256D01*
Y196825D01*
X451588D01*
Y196991D01*
X451754D01*
Y197156D01*
X451919D01*
Y197322D01*
X452085D01*
Y197488D01*
X452251D01*
Y197654D01*
X452417D01*
Y197820D01*
X452583D01*
Y197986D01*
X452915D01*
Y198152D01*
X453081D01*
Y198318D01*
X453246D01*
Y198483D01*
X453412D01*
Y198649D01*
X453578D01*
Y198815D01*
X453744D01*
Y198981D01*
X453910D01*
Y199147D01*
X454076D01*
Y199313D01*
X454408D01*
Y199479D01*
X454574D01*
Y199645D01*
X454739D01*
Y199810D01*
X454905D01*
Y199976D01*
X455071D01*
Y200142D01*
X455237D01*
Y200308D01*
X455403D01*
Y200474D01*
X455735D01*
Y183223D01*
X455569D01*
Y183057D01*
X450924D01*
Y190521D01*
X450758D01*
Y190355D01*
X450592D01*
Y190190D01*
X450426D01*
Y190024D01*
X450095D01*
Y189858D01*
X449929D01*
Y189692D01*
X449763D01*
Y189526D01*
X449597D01*
Y189360D01*
X449431D01*
Y189194D01*
X449265D01*
Y189028D01*
X449100D01*
Y188863D01*
X448934D01*
Y188697D01*
X448768D01*
Y188531D01*
X448602D01*
Y188365D01*
X448436D01*
Y188199D01*
X448270D01*
Y188033D01*
X448104D01*
Y187867D01*
X447938D01*
Y187701D01*
X447607D01*
Y187536D01*
X447441D01*
Y187370D01*
X447275D01*
Y187204D01*
X449100D01*
Y183057D01*
X439645D01*
Y175095D01*
X439479D01*
Y174929D01*
X439313D01*
Y174763D01*
X439147D01*
Y174597D01*
X438815D01*
Y174431D01*
X438649D01*
Y174265D01*
X438483D01*
Y174100D01*
X438317D01*
Y173934D01*
X438152D01*
Y173768D01*
X437820D01*
Y173602D01*
X437654D01*
Y173436D01*
X437488D01*
Y173270D01*
X437322D01*
Y173104D01*
X437156D01*
Y172938D01*
X436825D01*
Y172773D01*
X436659D01*
Y172607D01*
X436493D01*
Y172441D01*
X436327D01*
Y172275D01*
X436161D01*
Y172109D01*
X435995D01*
Y171943D01*
X435663D01*
Y171777D01*
X435498D01*
Y171611D01*
X435332D01*
Y171446D01*
X435166D01*
Y171280D01*
X435000D01*
Y171114D01*
X434668D01*
Y170948D01*
X434502D01*
Y170782D01*
X434337D01*
Y170616D01*
X434171D01*
Y170450D01*
X434005D01*
Y170284D01*
X433673D01*
Y170119D01*
X433507D01*
Y169953D01*
X433341D01*
Y169787D01*
X433175D01*
Y169621D01*
X433009D01*
Y169455D01*
X432678D01*
Y169289D01*
X432512D01*
Y169123D01*
X432346D01*
Y168957D01*
X432180D01*
Y168792D01*
X432014D01*
Y168626D01*
X431848D01*
Y168460D01*
X431682D01*
Y168294D01*
X431351D01*
Y168128D01*
X431185D01*
Y167962D01*
X431019D01*
Y167796D01*
X430853D01*
Y167630D01*
X430521D01*
Y167465D01*
X430355D01*
Y167299D01*
X430190D01*
Y167133D01*
X430024D01*
Y166967D01*
X429858D01*
Y166801D01*
X429692D01*
Y166635D01*
X429360D01*
Y166469D01*
X429194D01*
Y166303D01*
X429028D01*
Y166138D01*
X428862D01*
Y165972D01*
X428697D01*
Y165806D01*
X428531D01*
Y165640D01*
X428199D01*
Y165474D01*
X428033D01*
Y165308D01*
X427867D01*
Y165142D01*
X427701D01*
Y164976D01*
X427370D01*
Y164810D01*
X427204D01*
Y164645D01*
X427038D01*
Y164479D01*
X426872D01*
Y164313D01*
X426706D01*
Y164147D01*
X426540D01*
Y163981D01*
X426208D01*
Y163815D01*
X426043D01*
Y163649D01*
X425877D01*
Y163483D01*
X425711D01*
Y163318D01*
X425545D01*
Y163152D01*
X425213D01*
Y162986D01*
X425047D01*
Y162820D01*
X424882D01*
Y162654D01*
X424716D01*
Y162488D01*
X424550D01*
Y162322D01*
X424384D01*
Y162156D01*
X424052D01*
Y161991D01*
X423886D01*
Y161825D01*
X423720D01*
Y161659D01*
X423554D01*
Y161493D01*
X423389D01*
Y161327D01*
X423057D01*
Y161161D01*
X422891D01*
Y160995D01*
X422725D01*
Y160829D01*
X422559D01*
Y160664D01*
X422393D01*
Y160498D01*
X422062D01*
Y160332D01*
X421896D01*
Y160166D01*
X421730D01*
Y160000D01*
X421564D01*
Y159834D01*
X421398D01*
Y159668D01*
X421232D01*
Y159502D01*
X420900D01*
Y159337D01*
X420735D01*
Y159171D01*
X420569D01*
Y159005D01*
X420403D01*
Y158839D01*
X420237D01*
Y158673D01*
X419905D01*
Y158507D01*
X419739D01*
Y158341D01*
X419574D01*
Y158175D01*
X419408D01*
Y158010D01*
X419242D01*
Y157844D01*
X419076D01*
Y157678D01*
X418744D01*
Y157512D01*
X418578D01*
Y157346D01*
X418412D01*
Y157180D01*
X418246D01*
Y157014D01*
X418081D01*
Y156848D01*
X417749D01*
Y156683D01*
X417583D01*
Y156517D01*
X417417D01*
Y156351D01*
X417251D01*
Y156185D01*
X417085D01*
Y156019D01*
X416919D01*
Y155853D01*
X416754D01*
Y155687D01*
X416588D01*
Y155521D01*
X416256D01*
Y155356D01*
X415924D01*
Y155190D01*
X415426D01*
Y155024D01*
X413436D01*
Y155190D01*
X412938D01*
Y155356D01*
X412607D01*
Y155521D01*
X412275D01*
Y155687D01*
X412109D01*
Y155853D01*
X411943D01*
Y156019D01*
X411777D01*
Y156185D01*
X411611D01*
Y156351D01*
X411446D01*
Y156517D01*
X411280D01*
Y156848D01*
X411114D01*
Y157346D01*
X410948D01*
Y196825D01*
X411114D01*
Y197654D01*
X411280D01*
Y198152D01*
X411446D01*
Y198815D01*
X411611D01*
Y199147D01*
X411777D01*
Y199479D01*
X411943D01*
Y199810D01*
X412109D01*
Y200142D01*
X412275D01*
Y200474D01*
X412441D01*
Y200806D01*
X412607D01*
Y200972D01*
X412772D01*
Y201303D01*
X412938D01*
Y201469D01*
X413104D01*
Y201801D01*
X413270D01*
Y201967D01*
X413436D01*
Y202133D01*
X413602D01*
Y202299D01*
X413768D01*
Y202630D01*
X413934D01*
Y202796D01*
X414100D01*
Y202962D01*
X414265D01*
Y203128D01*
X414431D01*
Y203294D01*
X414597D01*
Y203460D01*
X414763D01*
Y203626D01*
X414929D01*
Y203792D01*
X415095D01*
Y203957D01*
X415261D01*
Y204123D01*
X415426D01*
Y204289D01*
X415592D01*
Y204455D01*
X415758D01*
Y204621D01*
X415924D01*
Y204787D01*
X416090D01*
Y204953D01*
X416256D01*
Y205119D01*
X416422D01*
Y205284D01*
X416588D01*
Y205450D01*
X416754D01*
Y205616D01*
X417085D01*
Y205782D01*
X417251D01*
Y205948D01*
X417417D01*
Y206114D01*
X417583D01*
Y206280D01*
X417749D01*
Y206446D01*
X417915D01*
Y206611D01*
X418081D01*
Y206777D01*
X418412D01*
Y206943D01*
X418578D01*
Y207109D01*
X418744D01*
Y207275D01*
X418910D01*
Y207441D01*
X419076D01*
Y207607D01*
X419408D01*
Y207773D01*
X419574D01*
Y207938D01*
X419739D01*
Y208104D01*
X419905D01*
Y208270D01*
X420237D01*
Y208436D01*
X420403D01*
Y208602D01*
X420569D01*
Y208768D01*
X420735D01*
Y208934D01*
X420900D01*
Y209100D01*
X421232D01*
Y209265D01*
X421398D01*
Y209431D01*
X421564D01*
Y209597D01*
X421730D01*
Y209763D01*
X421896D01*
Y209929D01*
X422228D01*
Y210095D01*
X422393D01*
Y210261D01*
X422559D01*
Y210427D01*
X422725D01*
Y210592D01*
X422891D01*
Y210758D01*
X423057D01*
Y210924D01*
X423389D01*
Y211090D01*
X423554D01*
Y211256D01*
X423720D01*
Y211422D01*
X423886D01*
Y211588D01*
X424052D01*
Y211754D01*
X424384D01*
Y211919D01*
X424550D01*
Y212085D01*
X424716D01*
Y212251D01*
X424882D01*
Y212417D01*
X425047D01*
Y212583D01*
X425379D01*
Y212749D01*
X425545D01*
Y212915D01*
X425711D01*
Y213081D01*
X425877D01*
Y213246D01*
X426043D01*
Y213412D01*
X426208D01*
Y213578D01*
X426540D01*
Y213744D01*
X426706D01*
Y213910D01*
X426872D01*
Y214076D01*
X427038D01*
Y214242D01*
X427204D01*
Y214408D01*
X427370D01*
Y214573D01*
X427701D01*
Y214739D01*
X427867D01*
Y214905D01*
X428033D01*
Y215071D01*
X428199D01*
Y215237D01*
X428365D01*
Y215403D01*
X428531D01*
Y215569D01*
X428697D01*
Y215735D01*
X429028D01*
Y215900D01*
X429194D01*
Y216066D01*
X429360D01*
Y216232D01*
X429526D01*
Y216398D01*
X429692D01*
Y216564D01*
X429858D01*
Y216730D01*
X430024D01*
Y216896D01*
X430190D01*
Y217062D01*
X430521D01*
Y217227D01*
X430687D01*
Y217393D01*
X430853D01*
Y217559D01*
X431019D01*
Y217725D01*
X431185D01*
Y217891D01*
X431351D01*
Y218057D01*
X431517D01*
Y218223D01*
X431682D01*
Y218389D01*
X432014D01*
Y218554D01*
X432180D01*
Y218720D01*
X432346D01*
Y218886D01*
X432512D01*
Y219052D01*
X432678D01*
Y219218D01*
X432844D01*
Y219384D01*
X433009D01*
Y219550D01*
X433175D01*
Y219716D01*
X433341D01*
Y219881D01*
X433507D01*
Y220047D01*
X433673D01*
Y220213D01*
X434005D01*
Y220379D01*
X434171D01*
Y220545D01*
X434337D01*
Y220711D01*
X434502D01*
Y220877D01*
X434668D01*
Y221043D01*
X434834D01*
Y221208D01*
X435000D01*
Y221374D01*
X435166D01*
Y221540D01*
X435332D01*
Y221706D01*
X435498D01*
Y221872D01*
X435663D01*
Y222038D01*
X435829D01*
Y222204D01*
X435995D01*
Y222370D01*
X436161D01*
Y222535D01*
X436327D01*
Y222701D01*
X436493D01*
Y222867D01*
X436659D01*
Y203294D01*
D02*
G37*
G36*
X480948Y143246D02*
X464028D01*
Y143081D01*
X463862D01*
Y142915D01*
X463697D01*
Y142749D01*
X463531D01*
Y142583D01*
X463365D01*
Y142417D01*
X463199D01*
Y142251D01*
X462867D01*
Y142085D01*
X462701D01*
Y141919D01*
X462536D01*
Y141754D01*
X462370D01*
Y141588D01*
X462204D01*
Y141422D01*
X462038D01*
Y141256D01*
X461872D01*
Y141090D01*
X461706D01*
Y140924D01*
X461540D01*
Y140758D01*
X461208D01*
Y140592D01*
X461043D01*
Y140427D01*
X460877D01*
Y140261D01*
X460711D01*
Y140095D01*
X460545D01*
Y139929D01*
X460379D01*
Y139763D01*
X460213D01*
Y139597D01*
X460047D01*
Y139431D01*
X459882D01*
Y139265D01*
X459550D01*
Y139100D01*
X459384D01*
Y138934D01*
X459218D01*
Y138768D01*
X459052D01*
Y138602D01*
X458886D01*
Y138436D01*
X458720D01*
Y138270D01*
X458554D01*
Y138104D01*
X458389D01*
Y137938D01*
X458057D01*
Y137773D01*
X457891D01*
Y137607D01*
X457725D01*
Y137441D01*
X457559D01*
Y137275D01*
X457393D01*
Y137109D01*
X457228D01*
Y136943D01*
X457062D01*
Y136777D01*
X456896D01*
Y136611D01*
X456730D01*
Y136446D01*
X456398D01*
Y136280D01*
X456232D01*
Y136114D01*
X456066D01*
Y135948D01*
X455900D01*
Y135782D01*
X455735D01*
Y135616D01*
X455569D01*
Y135450D01*
X455403D01*
Y135284D01*
X455237D01*
Y135119D01*
X455071D01*
Y134953D01*
X454739D01*
Y134787D01*
X454574D01*
Y134621D01*
X454408D01*
Y134455D01*
X454242D01*
Y134289D01*
X454076D01*
Y134123D01*
X453910D01*
Y133957D01*
X453744D01*
Y133792D01*
X453578D01*
Y133626D01*
X453412D01*
Y133460D01*
X453081D01*
Y133294D01*
X452915D01*
Y133128D01*
X452749D01*
Y132962D01*
X452583D01*
Y132796D01*
X452417D01*
Y132630D01*
X452251D01*
Y132465D01*
X452085D01*
Y132299D01*
X451919D01*
Y136943D01*
X452085D01*
Y137109D01*
X452251D01*
Y137275D01*
X452417D01*
Y137441D01*
X452583D01*
Y137607D01*
X452749D01*
Y137773D01*
X452915D01*
Y137938D01*
X453081D01*
Y138104D01*
X453246D01*
Y138270D01*
X453578D01*
Y138436D01*
X453744D01*
Y138602D01*
X453910D01*
Y138768D01*
X454076D01*
Y138934D01*
X454242D01*
Y139100D01*
X454408D01*
Y139265D01*
X454574D01*
Y139431D01*
X454739D01*
Y139597D01*
X454905D01*
Y139763D01*
X455071D01*
Y139929D01*
X455237D01*
Y140095D01*
X455569D01*
Y140261D01*
X455735D01*
Y140427D01*
X455900D01*
Y140592D01*
X456066D01*
Y140758D01*
X456232D01*
Y140924D01*
X456398D01*
Y141090D01*
X456564D01*
Y141256D01*
X456730D01*
Y141422D01*
X456896D01*
Y141588D01*
X457062D01*
Y141754D01*
X457228D01*
Y141919D01*
X457393D01*
Y142085D01*
X457559D01*
Y142251D01*
X457891D01*
Y142417D01*
X458057D01*
Y142583D01*
X458223D01*
Y142749D01*
X458389D01*
Y142915D01*
X458554D01*
Y143081D01*
X458720D01*
Y143246D01*
X458886D01*
Y143412D01*
X459052D01*
Y143578D01*
X459218D01*
Y143744D01*
X459384D01*
Y143910D01*
X459550D01*
Y144076D01*
X459716D01*
Y144242D01*
X460047D01*
Y144408D01*
X460213D01*
Y144573D01*
X460379D01*
Y144739D01*
X460545D01*
Y144905D01*
X460711D01*
Y145071D01*
X460877D01*
Y145237D01*
X461043D01*
Y145403D01*
X461208D01*
Y145569D01*
X461374D01*
Y145735D01*
X461540D01*
Y145900D01*
X461872D01*
Y146232D01*
X462204D01*
Y146398D01*
X462370D01*
Y146564D01*
X462536D01*
Y146730D01*
X462701D01*
Y146896D01*
X462867D01*
Y147062D01*
X463033D01*
Y147227D01*
X463199D01*
Y147393D01*
X463365D01*
Y147559D01*
X463531D01*
Y147725D01*
X463697D01*
Y147891D01*
X463862D01*
Y148057D01*
X464194D01*
Y148223D01*
X464360D01*
Y148389D01*
X464526D01*
Y148554D01*
X464692D01*
Y148720D01*
X464858D01*
Y148886D01*
X465024D01*
Y149052D01*
X465190D01*
Y149218D01*
X465355D01*
Y149384D01*
X465521D01*
Y149550D01*
X465687D01*
Y149716D01*
X465853D01*
Y149881D01*
X466185D01*
Y150047D01*
X466351D01*
Y150213D01*
X466517D01*
Y150379D01*
X466683D01*
Y152038D01*
X466517D01*
Y151872D01*
X466351D01*
Y151706D01*
X466185D01*
Y151540D01*
X466019D01*
Y151374D01*
X465853D01*
Y151208D01*
X465687D01*
Y151043D01*
X465521D01*
Y150877D01*
X465190D01*
Y150711D01*
X465024D01*
Y150545D01*
X464858D01*
Y150379D01*
X464692D01*
Y150213D01*
X464526D01*
Y150047D01*
X464360D01*
Y149881D01*
X464194D01*
Y149716D01*
X464028D01*
Y149550D01*
X463862D01*
Y149384D01*
X463697D01*
Y149218D01*
X463531D01*
Y149052D01*
X463365D01*
Y148886D01*
X463033D01*
Y148720D01*
X462867D01*
Y148554D01*
X462701D01*
Y148389D01*
X462536D01*
Y148223D01*
X462370D01*
Y148057D01*
X462204D01*
Y147891D01*
X462038D01*
Y147725D01*
X461872D01*
Y147559D01*
X461706D01*
Y147393D01*
X461374D01*
Y147227D01*
X461208D01*
Y147062D01*
X461043D01*
Y146896D01*
X460877D01*
Y146730D01*
X460711D01*
Y146564D01*
X460545D01*
Y146398D01*
X460379D01*
Y146232D01*
X460213D01*
Y146066D01*
X460047D01*
Y145900D01*
X459882D01*
Y145735D01*
X459550D01*
Y145403D01*
X459218D01*
Y145237D01*
X459052D01*
Y145071D01*
X458886D01*
Y144905D01*
X458720D01*
Y144739D01*
X458554D01*
Y144573D01*
X458389D01*
Y144408D01*
X458223D01*
Y144242D01*
X458057D01*
Y144076D01*
X457891D01*
Y143910D01*
X457559D01*
Y143744D01*
X457393D01*
Y143578D01*
X457228D01*
Y143412D01*
X457062D01*
Y143246D01*
X456896D01*
Y143081D01*
X456730D01*
Y142915D01*
X456564D01*
Y142749D01*
X456398D01*
Y142583D01*
X456232D01*
Y142417D01*
X456066D01*
Y142251D01*
X455900D01*
Y142085D01*
X455569D01*
Y141919D01*
X455403D01*
Y141754D01*
X455237D01*
Y141588D01*
X455071D01*
Y141422D01*
X454905D01*
Y141256D01*
X454739D01*
Y141090D01*
X454574D01*
Y140924D01*
X454408D01*
Y140758D01*
X454242D01*
Y140592D01*
X454076D01*
Y140427D01*
X453910D01*
Y140261D01*
X453578D01*
Y140095D01*
X453412D01*
Y139929D01*
X453246D01*
Y139763D01*
X453081D01*
Y139597D01*
X452915D01*
Y139431D01*
X452749D01*
Y139265D01*
X452583D01*
Y139100D01*
X452417D01*
Y138934D01*
X452251D01*
Y138768D01*
X452085D01*
Y138602D01*
X451919D01*
Y138436D01*
X451588D01*
Y138270D01*
X451422D01*
Y138104D01*
X451256D01*
Y137938D01*
X451090D01*
Y137773D01*
X450924D01*
Y137607D01*
X450758D01*
Y137441D01*
X450592D01*
Y137275D01*
X450426D01*
Y137109D01*
X450261D01*
Y136943D01*
X450095D01*
Y136777D01*
X449929D01*
Y136611D01*
X449597D01*
Y136446D01*
X449431D01*
Y136280D01*
X449265D01*
Y136114D01*
X449100D01*
Y135948D01*
X448934D01*
Y135782D01*
X448768D01*
Y135616D01*
X448602D01*
Y135450D01*
X448436D01*
Y135284D01*
X448270D01*
Y135119D01*
X448104D01*
Y134953D01*
X447772D01*
Y134787D01*
X447607D01*
Y134621D01*
X447441D01*
Y134455D01*
X447275D01*
Y134289D01*
X447109D01*
Y134123D01*
X446943D01*
Y133957D01*
X446777D01*
Y133792D01*
X446611D01*
Y133626D01*
X446446D01*
Y133460D01*
X446280D01*
Y133294D01*
X445948D01*
Y133128D01*
X445782D01*
Y132962D01*
X445616D01*
Y132796D01*
X445450D01*
Y132630D01*
X445284D01*
Y132465D01*
X445118D01*
Y132299D01*
X444953D01*
Y132133D01*
X444787D01*
Y131967D01*
X444621D01*
Y131801D01*
X444455D01*
Y131635D01*
X444123D01*
Y131303D01*
X443792D01*
Y131138D01*
X443626D01*
Y130972D01*
X443460D01*
Y130806D01*
X443294D01*
Y130640D01*
X443128D01*
Y130474D01*
X442962D01*
Y130308D01*
X442796D01*
Y130142D01*
X442630D01*
Y129976D01*
X442464D01*
Y129810D01*
X442133D01*
Y129645D01*
X441967D01*
Y129479D01*
X441801D01*
Y129313D01*
X441635D01*
Y129147D01*
X441469D01*
Y128981D01*
X441303D01*
Y128815D01*
X441137D01*
Y128649D01*
X440972D01*
Y128483D01*
X440806D01*
Y128317D01*
X440640D01*
Y128152D01*
X440474D01*
Y127986D01*
X440308D01*
Y127820D01*
X439976D01*
Y127654D01*
X439810D01*
Y127488D01*
X439645D01*
Y131967D01*
X439810D01*
Y132133D01*
X439976D01*
Y132299D01*
X440142D01*
Y132465D01*
X440308D01*
Y132630D01*
X440474D01*
Y132796D01*
X440640D01*
Y132962D01*
X440806D01*
Y133128D01*
X441137D01*
Y133294D01*
X441303D01*
Y133460D01*
X441469D01*
Y133626D01*
X441635D01*
Y133792D01*
X441801D01*
Y133957D01*
X441967D01*
Y134123D01*
X442133D01*
Y134289D01*
X442299D01*
Y134455D01*
X442464D01*
Y134621D01*
X442630D01*
Y134787D01*
X442796D01*
Y134953D01*
X442962D01*
Y135119D01*
X443128D01*
Y135284D01*
X443294D01*
Y135450D01*
X443626D01*
Y135616D01*
X443792D01*
Y135782D01*
X443957D01*
Y135948D01*
X444123D01*
Y136114D01*
X444289D01*
Y136280D01*
X444455D01*
Y136446D01*
X444621D01*
Y136611D01*
X444787D01*
Y136777D01*
X444953D01*
Y136943D01*
X445118D01*
Y137109D01*
X445284D01*
Y137275D01*
X445450D01*
Y137441D01*
X445616D01*
Y137607D01*
X445948D01*
Y137773D01*
X446114D01*
Y137938D01*
X446280D01*
Y138104D01*
X446446D01*
Y138270D01*
X446611D01*
Y138436D01*
X446777D01*
Y138602D01*
X446943D01*
Y138768D01*
X447109D01*
Y138934D01*
X447275D01*
Y139100D01*
X447441D01*
Y139265D01*
X447607D01*
Y139431D01*
X447772D01*
Y139597D01*
X448104D01*
Y139929D01*
X448436D01*
Y140095D01*
X448602D01*
Y140261D01*
X448768D01*
Y140427D01*
X448934D01*
Y140592D01*
X449100D01*
Y140758D01*
X449265D01*
Y140924D01*
X449431D01*
Y141090D01*
X449597D01*
Y141256D01*
X449763D01*
Y141422D01*
X449929D01*
Y141588D01*
X450095D01*
Y141754D01*
X450261D01*
Y141919D01*
X450592D01*
Y142085D01*
X450758D01*
Y142251D01*
X450924D01*
Y142417D01*
X451090D01*
Y142583D01*
X451256D01*
Y142749D01*
X451422D01*
Y142915D01*
X451588D01*
Y143081D01*
X451754D01*
Y143246D01*
X451919D01*
Y143412D01*
X452085D01*
Y143578D01*
X452251D01*
Y143744D01*
X452417D01*
Y143910D01*
X452749D01*
Y144076D01*
X452915D01*
Y144242D01*
X453081D01*
Y144408D01*
X453246D01*
Y144573D01*
X453412D01*
Y144739D01*
X453578D01*
Y144905D01*
X453744D01*
Y145071D01*
X453910D01*
Y145237D01*
X454076D01*
Y145403D01*
X454242D01*
Y145569D01*
X454408D01*
Y145735D01*
X454574D01*
Y145900D01*
X454739D01*
Y146066D01*
X454905D01*
Y146232D01*
X455237D01*
Y146398D01*
X455403D01*
Y146564D01*
X455569D01*
Y146730D01*
X455735D01*
Y146896D01*
X455900D01*
Y147062D01*
X456066D01*
Y147227D01*
X456232D01*
Y147393D01*
X456398D01*
Y147559D01*
X456564D01*
Y147725D01*
X456730D01*
Y147891D01*
X456896D01*
Y148057D01*
X457062D01*
Y148223D01*
X457228D01*
Y148389D01*
X457559D01*
Y148554D01*
X457725D01*
Y148720D01*
X457891D01*
Y148886D01*
X458057D01*
Y149052D01*
X458223D01*
Y149218D01*
X458389D01*
Y149384D01*
X458554D01*
Y149550D01*
X458720D01*
Y149716D01*
X458886D01*
Y149881D01*
X459052D01*
Y150047D01*
X459218D01*
Y150213D01*
X459384D01*
Y150379D01*
X459550D01*
Y150545D01*
X459716D01*
Y150711D01*
X460047D01*
Y150877D01*
X460213D01*
Y151043D01*
X460379D01*
Y151208D01*
X460545D01*
Y151374D01*
X460711D01*
Y151540D01*
X460877D01*
Y151706D01*
X461043D01*
Y151872D01*
X461208D01*
Y152038D01*
X461374D01*
Y152204D01*
X461540D01*
Y152370D01*
X461706D01*
Y152536D01*
X461872D01*
Y152701D01*
X462204D01*
Y152867D01*
X462370D01*
Y153033D01*
X462536D01*
Y153199D01*
X462701D01*
Y153365D01*
X462867D01*
Y153531D01*
X463033D01*
Y153697D01*
X463199D01*
Y153863D01*
X463365D01*
Y154028D01*
X463531D01*
Y154194D01*
X463697D01*
Y154360D01*
X463862D01*
Y154526D01*
X464028D01*
Y154692D01*
X464194D01*
Y154858D01*
X464526D01*
Y155024D01*
X464692D01*
Y155190D01*
X464858D01*
Y155356D01*
X465024D01*
Y155521D01*
X465190D01*
Y155687D01*
X465355D01*
Y155853D01*
X465521D01*
Y156019D01*
X465687D01*
Y156185D01*
X465853D01*
Y156351D01*
X466019D01*
Y156517D01*
X466185D01*
Y156683D01*
X466351D01*
Y156848D01*
X466517D01*
Y157014D01*
X466683D01*
Y157180D01*
X467014D01*
Y157346D01*
X467180D01*
Y157512D01*
X467346D01*
Y157678D01*
X467512D01*
Y157844D01*
X467678D01*
Y158010D01*
X467844D01*
Y158175D01*
X468009D01*
Y158341D01*
X468175D01*
Y158507D01*
X468341D01*
Y158673D01*
X468507D01*
Y158839D01*
X468673D01*
Y159005D01*
X469005D01*
Y159171D01*
X469171D01*
Y159337D01*
X469337D01*
Y159502D01*
X469502D01*
Y159668D01*
X469668D01*
Y159834D01*
X469834D01*
Y160000D01*
X470000D01*
Y161825D01*
X469834D01*
Y161659D01*
X469668D01*
Y161493D01*
X469502D01*
Y161327D01*
X469337D01*
Y161161D01*
X469171D01*
Y160995D01*
X469005D01*
Y160829D01*
X468839D01*
Y160664D01*
X468673D01*
Y160498D01*
X468507D01*
Y160332D01*
X468175D01*
Y160166D01*
X468009D01*
Y160000D01*
X467844D01*
Y159834D01*
X467678D01*
Y159668D01*
X467512D01*
Y159502D01*
X467346D01*
Y159337D01*
X467180D01*
Y159171D01*
X467014D01*
Y159005D01*
X466848D01*
Y158839D01*
X466517D01*
Y158673D01*
X466351D01*
Y158507D01*
X466185D01*
Y158341D01*
X466019D01*
Y158175D01*
X465853D01*
Y158010D01*
X465687D01*
Y157844D01*
X465521D01*
Y157678D01*
X465355D01*
Y157512D01*
X465190D01*
Y157346D01*
X465024D01*
Y157180D01*
X464692D01*
Y157014D01*
X464526D01*
Y156848D01*
X464360D01*
Y156683D01*
X464194D01*
Y156517D01*
X464028D01*
Y156351D01*
X463862D01*
Y156185D01*
X463697D01*
Y156019D01*
X463531D01*
Y155853D01*
X463365D01*
Y155687D01*
X463199D01*
Y155521D01*
X462867D01*
Y155356D01*
X462701D01*
Y155190D01*
X462536D01*
Y155024D01*
X462370D01*
Y154858D01*
X462204D01*
Y154692D01*
X462038D01*
Y154526D01*
X461872D01*
Y154360D01*
X461706D01*
Y154194D01*
X461540D01*
Y154028D01*
X461208D01*
Y153863D01*
X461043D01*
Y153697D01*
X460877D01*
Y153531D01*
X460711D01*
Y153365D01*
X460545D01*
Y153199D01*
X460379D01*
Y153033D01*
X460213D01*
Y152867D01*
X460047D01*
Y152701D01*
X459882D01*
Y152536D01*
X459716D01*
Y152370D01*
X459550D01*
Y152204D01*
X459218D01*
Y152038D01*
X459052D01*
Y151872D01*
X458886D01*
Y151706D01*
X458720D01*
Y151540D01*
X458554D01*
Y151374D01*
X458389D01*
Y151208D01*
X458223D01*
Y151043D01*
X458057D01*
Y150877D01*
X457891D01*
Y150711D01*
X457725D01*
Y150545D01*
X457393D01*
Y150379D01*
X457228D01*
Y150213D01*
X457062D01*
Y150047D01*
X456896D01*
Y149881D01*
X456730D01*
Y149716D01*
X456564D01*
Y149550D01*
X456398D01*
Y149384D01*
X456232D01*
Y149218D01*
X456066D01*
Y149052D01*
X455900D01*
Y148886D01*
X455569D01*
Y148720D01*
X455403D01*
Y148554D01*
X455237D01*
Y148389D01*
X455071D01*
Y148223D01*
X454905D01*
Y148057D01*
X454739D01*
Y147891D01*
X454574D01*
Y147725D01*
X454408D01*
Y147559D01*
X454242D01*
Y147393D01*
X453910D01*
Y147227D01*
X453744D01*
Y147062D01*
X453578D01*
Y146896D01*
X453412D01*
Y146730D01*
X453246D01*
Y146564D01*
X453081D01*
Y146398D01*
X452915D01*
Y146232D01*
X452749D01*
Y146066D01*
X452583D01*
Y145900D01*
X452417D01*
Y145735D01*
X452085D01*
Y145403D01*
X451754D01*
Y145237D01*
X451588D01*
Y145071D01*
X451422D01*
Y144905D01*
X451256D01*
Y144739D01*
X451090D01*
Y144573D01*
X450924D01*
Y144408D01*
X450758D01*
Y144242D01*
X450426D01*
Y143910D01*
X450095D01*
Y143744D01*
X449929D01*
Y143578D01*
X449763D01*
Y143412D01*
X449597D01*
Y143246D01*
X449431D01*
Y143081D01*
X449265D01*
Y142915D01*
X449100D01*
Y142749D01*
X448934D01*
Y142583D01*
X448602D01*
Y142417D01*
X448436D01*
Y142251D01*
X448270D01*
Y142085D01*
X448104D01*
Y141919D01*
X447938D01*
Y141754D01*
X447772D01*
Y141588D01*
X447607D01*
Y141422D01*
X447441D01*
Y141256D01*
X447275D01*
Y141090D01*
X447109D01*
Y140924D01*
X446943D01*
Y140758D01*
X446611D01*
Y140592D01*
X446446D01*
Y140427D01*
X446280D01*
Y140261D01*
X446114D01*
Y140095D01*
X445948D01*
Y139929D01*
X445782D01*
Y139763D01*
X445616D01*
Y139597D01*
X445450D01*
Y139431D01*
X445284D01*
Y139265D01*
X444953D01*
Y139100D01*
X444787D01*
Y138934D01*
X444621D01*
Y138768D01*
X444455D01*
Y138602D01*
X444289D01*
Y138436D01*
X444123D01*
Y138270D01*
X443957D01*
Y138104D01*
X443792D01*
Y137938D01*
X443626D01*
Y137773D01*
X443460D01*
Y137607D01*
X443294D01*
Y137441D01*
X443128D01*
Y137275D01*
X442796D01*
Y137109D01*
X442630D01*
Y136943D01*
X442464D01*
Y136777D01*
X442299D01*
Y136611D01*
X442133D01*
Y136446D01*
X441967D01*
Y136280D01*
X441801D01*
Y136114D01*
X441635D01*
Y135948D01*
X441469D01*
Y135782D01*
X441137D01*
Y135616D01*
X440972D01*
Y135450D01*
X440806D01*
Y135284D01*
X440640D01*
Y135119D01*
X440474D01*
Y134953D01*
X440308D01*
Y134787D01*
X440142D01*
Y134621D01*
X439976D01*
Y134455D01*
X439810D01*
Y134289D01*
X439479D01*
Y134123D01*
X439313D01*
Y133957D01*
X439147D01*
Y133792D01*
X438981D01*
Y133626D01*
X438815D01*
Y133460D01*
X438649D01*
Y133294D01*
X438483D01*
Y133128D01*
X438317D01*
Y132962D01*
X438152D01*
Y132796D01*
X437986D01*
Y132630D01*
X437820D01*
Y132465D01*
X437488D01*
Y132299D01*
X437322D01*
Y132133D01*
X437156D01*
Y131967D01*
X436991D01*
Y131801D01*
X436825D01*
Y131635D01*
X436659D01*
Y131469D01*
X436493D01*
Y131303D01*
X436327D01*
Y131138D01*
X436161D01*
Y130972D01*
X435829D01*
Y130806D01*
X435663D01*
Y130640D01*
X435498D01*
Y130474D01*
X435332D01*
Y130308D01*
X435166D01*
Y130142D01*
X435000D01*
Y129976D01*
X434834D01*
Y129810D01*
X434668D01*
Y129645D01*
X434502D01*
Y129479D01*
X434337D01*
Y129313D01*
X434005D01*
Y129147D01*
X433839D01*
Y128981D01*
X433673D01*
Y128815D01*
X433507D01*
Y128649D01*
X433341D01*
Y128483D01*
X433175D01*
Y128317D01*
X433009D01*
Y128152D01*
X432844D01*
Y127986D01*
X432678D01*
Y127820D01*
X432346D01*
Y127654D01*
X432180D01*
Y127488D01*
X432014D01*
Y127322D01*
X431848D01*
Y127156D01*
X431682D01*
Y126991D01*
X431517D01*
Y126825D01*
X431351D01*
Y126659D01*
X431185D01*
Y126493D01*
X431019D01*
Y126327D01*
X430853D01*
Y126161D01*
X430687D01*
Y125995D01*
X430521D01*
Y125829D01*
X430190D01*
Y125663D01*
X430024D01*
Y125498D01*
X429858D01*
Y125332D01*
X429692D01*
Y125166D01*
X429526D01*
Y125000D01*
X429360D01*
Y124834D01*
X429194D01*
Y124668D01*
X429028D01*
Y124502D01*
X428862D01*
Y124337D01*
X428531D01*
Y124171D01*
X428365D01*
Y124005D01*
X428199D01*
Y123839D01*
X428033D01*
Y123673D01*
X427867D01*
Y123507D01*
X427701D01*
Y123341D01*
X427536D01*
Y123175D01*
X427370D01*
Y123010D01*
X427204D01*
Y122844D01*
X426872D01*
Y122678D01*
X426706D01*
Y122512D01*
X426540D01*
Y122346D01*
X426374D01*
Y122180D01*
X426208D01*
Y122014D01*
X426043D01*
Y121848D01*
X425877D01*
Y126327D01*
X426043D01*
Y126493D01*
X426208D01*
Y126659D01*
X426374D01*
Y126825D01*
X426540D01*
Y126991D01*
X426706D01*
Y127156D01*
X426872D01*
Y127322D01*
X427038D01*
Y127488D01*
X427370D01*
Y127654D01*
X427536D01*
Y127820D01*
X427701D01*
Y127986D01*
X427867D01*
Y128152D01*
X428033D01*
Y128317D01*
X428199D01*
Y128483D01*
X428365D01*
Y128649D01*
X428531D01*
Y128815D01*
X428862D01*
Y128981D01*
X429028D01*
Y129147D01*
X429194D01*
Y129313D01*
X429360D01*
Y129479D01*
X429526D01*
Y129645D01*
X429692D01*
Y129810D01*
X429858D01*
Y129976D01*
X430024D01*
Y130142D01*
X430355D01*
Y130308D01*
X430521D01*
Y130474D01*
X430687D01*
Y130640D01*
X430853D01*
Y130806D01*
X431019D01*
Y130972D01*
X431185D01*
Y131138D01*
X431351D01*
Y131303D01*
X431517D01*
Y131469D01*
X431682D01*
Y131635D01*
X432014D01*
Y131967D01*
X432346D01*
Y132133D01*
X432512D01*
Y132299D01*
X432678D01*
Y132465D01*
X432844D01*
Y132630D01*
X433009D01*
Y132796D01*
X433175D01*
Y132962D01*
X433341D01*
Y133128D01*
X433507D01*
Y133294D01*
X433839D01*
Y133460D01*
X434005D01*
Y133626D01*
X434171D01*
Y133792D01*
X434337D01*
Y133957D01*
X434502D01*
Y134123D01*
X434668D01*
Y134289D01*
X434834D01*
Y134455D01*
X435000D01*
Y134621D01*
X435166D01*
Y134787D01*
X435498D01*
Y134953D01*
X435663D01*
Y135119D01*
X435829D01*
Y135284D01*
X435995D01*
Y135450D01*
X436161D01*
Y135616D01*
X436327D01*
Y135782D01*
X436493D01*
Y135948D01*
X436659D01*
Y136114D01*
X436825D01*
Y136280D01*
X436991D01*
Y136446D01*
X437322D01*
Y136611D01*
X437488D01*
Y136777D01*
X437654D01*
Y136943D01*
X437820D01*
Y137109D01*
X437986D01*
Y137275D01*
X438152D01*
Y137441D01*
X438317D01*
Y137607D01*
X438483D01*
Y137773D01*
X438649D01*
Y137938D01*
X438981D01*
Y138104D01*
X439147D01*
Y138270D01*
X439313D01*
Y138436D01*
X439479D01*
Y138602D01*
X439645D01*
Y138768D01*
X439810D01*
Y138934D01*
X439976D01*
Y139100D01*
X440142D01*
Y139265D01*
X440474D01*
Y139431D01*
X440640D01*
Y139597D01*
X440806D01*
Y139763D01*
X440972D01*
Y139929D01*
X441137D01*
Y140095D01*
X441303D01*
Y140261D01*
X441469D01*
Y140427D01*
X441635D01*
Y140592D01*
X441801D01*
Y140758D01*
X442133D01*
Y140924D01*
X442299D01*
Y141090D01*
X442464D01*
Y141256D01*
X442630D01*
Y141422D01*
X442796D01*
Y141588D01*
X442962D01*
Y141754D01*
X443128D01*
Y141919D01*
X443294D01*
Y142085D01*
X443460D01*
Y142251D01*
X443792D01*
Y142417D01*
X443957D01*
Y142583D01*
X444123D01*
Y142749D01*
X444289D01*
Y142915D01*
X444455D01*
Y143081D01*
X444621D01*
Y143246D01*
X444787D01*
Y143412D01*
X444953D01*
Y143578D01*
X445118D01*
Y143744D01*
X445450D01*
Y143910D01*
X445616D01*
Y144076D01*
X445782D01*
Y144242D01*
X445948D01*
Y144408D01*
X446114D01*
Y144573D01*
X446280D01*
Y144739D01*
X446446D01*
Y144905D01*
X446611D01*
Y145071D01*
X446777D01*
Y145237D01*
X446943D01*
Y145403D01*
X447275D01*
Y145569D01*
X447441D01*
Y145735D01*
X447607D01*
Y145900D01*
X447772D01*
Y146066D01*
X447938D01*
Y146232D01*
X448104D01*
Y146398D01*
X448270D01*
Y146564D01*
X448602D01*
Y146730D01*
X448768D01*
Y146896D01*
X448934D01*
Y147062D01*
X449100D01*
Y147227D01*
X449265D01*
Y147393D01*
X449431D01*
Y147559D01*
X449597D01*
Y147725D01*
X449763D01*
Y147891D01*
X449929D01*
Y148057D01*
X450095D01*
Y148223D01*
X450261D01*
Y148389D01*
X450426D01*
Y148554D01*
X450592D01*
Y148720D01*
X450924D01*
Y149052D01*
X451256D01*
Y149218D01*
X451422D01*
Y149384D01*
X451588D01*
Y149550D01*
X451754D01*
Y149716D01*
X451919D01*
Y149881D01*
X452085D01*
Y150047D01*
X452251D01*
Y150213D01*
X452417D01*
Y150379D01*
X452583D01*
Y150545D01*
X452749D01*
Y150711D01*
X452915D01*
Y150877D01*
X453246D01*
Y151043D01*
X453412D01*
Y151208D01*
X453578D01*
Y151374D01*
X453744D01*
Y151540D01*
X453910D01*
Y151706D01*
X454076D01*
Y151872D01*
X454242D01*
Y152038D01*
X454408D01*
Y152204D01*
X454574D01*
Y152370D01*
X454739D01*
Y152536D01*
X454905D01*
Y152701D01*
X455071D01*
Y152867D01*
X455403D01*
Y153033D01*
X455569D01*
Y153199D01*
X455735D01*
Y153365D01*
X455900D01*
Y153531D01*
X456066D01*
Y153697D01*
X456232D01*
Y153863D01*
X456398D01*
Y154028D01*
X456564D01*
Y154194D01*
X456730D01*
Y154360D01*
X456896D01*
Y154526D01*
X457062D01*
Y154692D01*
X457228D01*
Y154858D01*
X457393D01*
Y155024D01*
X457559D01*
Y155190D01*
X457891D01*
Y155356D01*
X458057D01*
Y155521D01*
X458223D01*
Y155687D01*
X458389D01*
Y155853D01*
X458554D01*
Y156019D01*
X458720D01*
Y156185D01*
X458886D01*
Y156351D01*
X459052D01*
Y156517D01*
X459218D01*
Y156683D01*
X459384D01*
Y156848D01*
X459550D01*
Y157014D01*
X459716D01*
Y157180D01*
X459882D01*
Y157346D01*
X460213D01*
Y157512D01*
X460379D01*
Y157678D01*
X460545D01*
Y157844D01*
X460711D01*
Y158010D01*
X460877D01*
Y158175D01*
X461043D01*
Y158341D01*
X461208D01*
Y158507D01*
X461374D01*
Y158673D01*
X461540D01*
Y158839D01*
X461706D01*
Y159005D01*
X461872D01*
Y159171D01*
X462038D01*
Y159337D01*
X462204D01*
Y159502D01*
X462370D01*
Y159668D01*
X462701D01*
Y159834D01*
X462867D01*
Y160000D01*
X463033D01*
Y160166D01*
X463199D01*
Y160332D01*
X463365D01*
Y160498D01*
X463531D01*
Y160664D01*
X463697D01*
Y160829D01*
X463862D01*
Y160995D01*
X464028D01*
Y161161D01*
X464194D01*
Y161327D01*
X464360D01*
Y161493D01*
X464526D01*
Y161659D01*
X464858D01*
Y161825D01*
X465024D01*
Y161991D01*
X465190D01*
Y162156D01*
X465355D01*
Y162322D01*
X465521D01*
Y162488D01*
X465687D01*
Y162654D01*
X465853D01*
Y162820D01*
X466019D01*
Y162986D01*
X466185D01*
Y163152D01*
X466351D01*
Y163318D01*
X466517D01*
Y163483D01*
X466683D01*
Y163649D01*
X467014D01*
Y163981D01*
X467346D01*
Y164313D01*
X467678D01*
Y164479D01*
X467844D01*
Y164645D01*
X468009D01*
Y164810D01*
X468175D01*
Y164976D01*
X468341D01*
Y165142D01*
X468507D01*
Y165308D01*
X468673D01*
Y165474D01*
X468839D01*
Y165640D01*
X469005D01*
Y165806D01*
X469171D01*
Y165972D01*
X469337D01*
Y166138D01*
X469502D01*
Y166303D01*
X469834D01*
Y166469D01*
X470000D01*
Y166635D01*
X470166D01*
Y166801D01*
X470332D01*
Y166967D01*
X470498D01*
Y167133D01*
X470663D01*
Y167299D01*
X470829D01*
Y167465D01*
X470995D01*
Y167630D01*
X471161D01*
Y167796D01*
X471327D01*
Y167962D01*
X471493D01*
Y168128D01*
X471659D01*
Y168294D01*
X471991D01*
Y168460D01*
X472156D01*
Y168626D01*
X472322D01*
Y168792D01*
X472488D01*
Y168957D01*
X472654D01*
Y169123D01*
X472820D01*
Y169289D01*
X472986D01*
Y169455D01*
X473152D01*
Y169621D01*
X473317D01*
Y169787D01*
X473483D01*
Y169953D01*
X473649D01*
Y171777D01*
X473317D01*
Y171611D01*
X473152D01*
Y171446D01*
X472986D01*
Y171280D01*
X472820D01*
Y171114D01*
X472654D01*
Y170948D01*
X472488D01*
Y170782D01*
X472322D01*
Y170616D01*
X471991D01*
Y170450D01*
X471825D01*
Y170284D01*
X471659D01*
Y170119D01*
X471493D01*
Y169953D01*
X471327D01*
Y169787D01*
X471161D01*
Y169621D01*
X470995D01*
Y169455D01*
X470829D01*
Y169289D01*
X470663D01*
Y169123D01*
X470498D01*
Y168957D01*
X470332D01*
Y168792D01*
X470166D01*
Y168626D01*
X470000D01*
Y168460D01*
X469834D01*
Y168294D01*
X469502D01*
Y168128D01*
X469337D01*
Y167962D01*
X469171D01*
Y167796D01*
X469005D01*
Y167630D01*
X468839D01*
Y167465D01*
X468673D01*
Y167299D01*
X468507D01*
Y167133D01*
X468341D01*
Y166967D01*
X468175D01*
Y166801D01*
X468009D01*
Y166635D01*
X467844D01*
Y166469D01*
X467678D01*
Y166303D01*
X467346D01*
Y166138D01*
X467180D01*
Y165972D01*
X467014D01*
Y165806D01*
X466848D01*
Y165640D01*
X466683D01*
Y165474D01*
X466517D01*
Y165308D01*
X466351D01*
Y165142D01*
X466185D01*
Y164976D01*
X466019D01*
Y164810D01*
X465853D01*
Y164645D01*
X465687D01*
Y164479D01*
X465355D01*
Y164313D01*
X465190D01*
Y164147D01*
X465024D01*
Y163981D01*
X464858D01*
Y163815D01*
X464692D01*
Y163649D01*
X464526D01*
Y163483D01*
X464360D01*
Y163318D01*
X464194D01*
Y163152D01*
X464028D01*
Y162986D01*
X463862D01*
Y162820D01*
X463697D01*
Y162654D01*
X463531D01*
Y162488D01*
X463365D01*
Y162322D01*
X463199D01*
Y162156D01*
X463033D01*
Y161991D01*
X462701D01*
Y161825D01*
X462536D01*
Y161659D01*
X462370D01*
Y161493D01*
X462204D01*
Y161327D01*
X462038D01*
Y161161D01*
X461872D01*
Y160995D01*
X461706D01*
Y160829D01*
X461540D01*
Y160664D01*
X461374D01*
Y160498D01*
X461208D01*
Y160332D01*
X461043D01*
Y160166D01*
X460877D01*
Y160000D01*
X460545D01*
Y159834D01*
X460379D01*
Y159668D01*
X460213D01*
Y159502D01*
X460047D01*
Y159337D01*
X459882D01*
Y159171D01*
X459716D01*
Y159005D01*
X459550D01*
Y158839D01*
X459384D01*
Y158673D01*
X459218D01*
Y158507D01*
X459052D01*
Y158341D01*
X458886D01*
Y158175D01*
X458720D01*
Y158010D01*
X458554D01*
Y157844D01*
X458223D01*
Y157678D01*
X458057D01*
Y157512D01*
X457891D01*
Y157346D01*
X457725D01*
Y157180D01*
X457559D01*
Y157014D01*
X457393D01*
Y156848D01*
X457228D01*
Y156683D01*
X457062D01*
Y156517D01*
X456896D01*
Y156351D01*
X456730D01*
Y156185D01*
X456564D01*
Y156019D01*
X456398D01*
Y155853D01*
X456066D01*
Y155687D01*
X455900D01*
Y155521D01*
X455735D01*
Y155356D01*
X455569D01*
Y155190D01*
X455403D01*
Y155024D01*
X455237D01*
Y154858D01*
X455071D01*
Y154692D01*
X454905D01*
Y154526D01*
X454739D01*
Y154360D01*
X454574D01*
Y154194D01*
X454408D01*
Y154028D01*
X454076D01*
Y153697D01*
X453744D01*
Y153365D01*
X453412D01*
Y153199D01*
X453246D01*
Y153033D01*
X453081D01*
Y152867D01*
X452915D01*
Y152701D01*
X452749D01*
Y152536D01*
X452583D01*
Y152370D01*
X452417D01*
Y152204D01*
X452251D01*
Y152038D01*
X452085D01*
Y151872D01*
X451919D01*
Y151706D01*
X451754D01*
Y151540D01*
X451422D01*
Y151374D01*
X451256D01*
Y151208D01*
X451090D01*
Y151043D01*
X450924D01*
Y150877D01*
X450758D01*
Y150711D01*
X450592D01*
Y150545D01*
X450426D01*
Y150379D01*
X450261D01*
Y150213D01*
X450095D01*
Y150047D01*
X449929D01*
Y149881D01*
X449763D01*
Y149716D01*
X449597D01*
Y149550D01*
X449265D01*
Y149384D01*
X449100D01*
Y149218D01*
X448934D01*
Y149052D01*
X448768D01*
Y148886D01*
X448602D01*
Y148720D01*
X448436D01*
Y148554D01*
X448270D01*
Y148389D01*
X448104D01*
Y148223D01*
X447938D01*
Y148057D01*
X447772D01*
Y147891D01*
X447607D01*
Y147725D01*
X447441D01*
Y147559D01*
X447275D01*
Y147393D01*
X446943D01*
Y147227D01*
X446777D01*
Y147062D01*
X446611D01*
Y146896D01*
X446446D01*
Y146730D01*
X446280D01*
Y146564D01*
X446114D01*
Y146398D01*
X445948D01*
Y146232D01*
X445782D01*
Y146066D01*
X445616D01*
Y145900D01*
X445450D01*
Y145735D01*
X445284D01*
Y145569D01*
X445118D01*
Y145403D01*
X444953D01*
Y145237D01*
X444621D01*
Y145071D01*
X444455D01*
Y144905D01*
X444289D01*
Y144739D01*
X444123D01*
Y144573D01*
X443957D01*
Y144408D01*
X443792D01*
Y144242D01*
X443626D01*
Y144076D01*
X443460D01*
Y143910D01*
X443294D01*
Y143744D01*
X443128D01*
Y143578D01*
X442962D01*
Y143412D01*
X442796D01*
Y143246D01*
X442630D01*
Y143081D01*
X442299D01*
Y142915D01*
X442133D01*
Y142749D01*
X441967D01*
Y142583D01*
X441801D01*
Y142417D01*
X441635D01*
Y142251D01*
X441469D01*
Y142085D01*
X441303D01*
Y141919D01*
X441137D01*
Y141754D01*
X440972D01*
Y141588D01*
X440806D01*
Y141422D01*
X440640D01*
Y141256D01*
X440308D01*
Y141090D01*
X440142D01*
Y140924D01*
X439976D01*
Y140758D01*
X439810D01*
Y140592D01*
X439645D01*
Y140427D01*
X439479D01*
Y140261D01*
X439313D01*
Y140095D01*
X439147D01*
Y139929D01*
X438981D01*
Y139763D01*
X438815D01*
Y139597D01*
X438649D01*
Y139431D01*
X438483D01*
Y139265D01*
X438317D01*
Y139100D01*
X437986D01*
Y138768D01*
X437654D01*
Y138602D01*
X437488D01*
Y138436D01*
X437322D01*
Y138270D01*
X437156D01*
Y138104D01*
X436991D01*
Y137938D01*
X436825D01*
Y137773D01*
X436659D01*
Y137607D01*
X436493D01*
Y137441D01*
X436327D01*
Y137275D01*
X436161D01*
Y137109D01*
X435995D01*
Y136943D01*
X435829D01*
Y136777D01*
X435498D01*
Y136611D01*
X435332D01*
Y136446D01*
X435166D01*
Y136280D01*
X435000D01*
Y136114D01*
X434834D01*
Y135948D01*
X434668D01*
Y135782D01*
X434502D01*
Y135616D01*
X434337D01*
Y135450D01*
X434171D01*
Y135284D01*
X434005D01*
Y135119D01*
X433839D01*
Y134953D01*
X433507D01*
Y134787D01*
X433341D01*
Y134621D01*
X433175D01*
Y134455D01*
X433009D01*
Y134289D01*
X432844D01*
Y134123D01*
X432678D01*
Y133957D01*
X432512D01*
Y133792D01*
X432346D01*
Y133626D01*
X432180D01*
Y133460D01*
X432014D01*
Y133294D01*
X431848D01*
Y133128D01*
X431682D01*
Y132962D01*
X431517D01*
Y132796D01*
X431351D01*
Y132630D01*
X431019D01*
Y132465D01*
X430853D01*
Y132299D01*
X430687D01*
Y132133D01*
X430521D01*
Y131967D01*
X430355D01*
Y131801D01*
X430190D01*
Y131635D01*
X430024D01*
Y131469D01*
X429858D01*
Y131303D01*
X429692D01*
Y131138D01*
X429526D01*
Y130972D01*
X429360D01*
Y130806D01*
X429028D01*
Y130640D01*
X428862D01*
Y130474D01*
X428697D01*
Y130308D01*
X428531D01*
Y135284D01*
X428697D01*
Y135450D01*
X428862D01*
Y135616D01*
X429194D01*
Y135782D01*
X429360D01*
Y135948D01*
X429526D01*
Y136114D01*
X429692D01*
Y136280D01*
X429858D01*
Y136446D01*
X430024D01*
Y136611D01*
X430190D01*
Y136777D01*
X430355D01*
Y136943D01*
X430521D01*
Y137109D01*
X430687D01*
Y137275D01*
X430853D01*
Y137441D01*
X431185D01*
Y137607D01*
X431351D01*
Y137773D01*
X431517D01*
Y137938D01*
X431682D01*
Y138104D01*
X431848D01*
Y138270D01*
X432014D01*
Y138436D01*
X432180D01*
Y138602D01*
X432346D01*
Y138768D01*
X432512D01*
Y138934D01*
X432678D01*
Y139100D01*
X432844D01*
Y139265D01*
X433175D01*
Y139597D01*
X433507D01*
Y139763D01*
X433673D01*
Y139929D01*
X433839D01*
Y140095D01*
X434005D01*
Y140261D01*
X434171D01*
Y140427D01*
X434337D01*
Y140592D01*
X434502D01*
Y140758D01*
X434668D01*
Y140924D01*
X434834D01*
Y141090D01*
X435000D01*
Y141256D01*
X435166D01*
Y141422D01*
X435332D01*
Y141588D01*
X435663D01*
Y141754D01*
X435829D01*
Y141919D01*
X435995D01*
Y142085D01*
X436161D01*
Y142251D01*
X436327D01*
Y142417D01*
X436493D01*
Y142583D01*
X436659D01*
Y142749D01*
X436825D01*
Y142915D01*
X436991D01*
Y143081D01*
X437156D01*
Y143246D01*
X437488D01*
Y143412D01*
X437654D01*
Y143578D01*
X437820D01*
Y143744D01*
X437986D01*
Y143910D01*
X438152D01*
Y144076D01*
X438317D01*
Y144242D01*
X438483D01*
Y144408D01*
X438649D01*
Y144573D01*
X438815D01*
Y144739D01*
X438981D01*
Y144905D01*
X439147D01*
Y145071D01*
X439313D01*
Y145237D01*
X439645D01*
Y145403D01*
X439810D01*
Y145569D01*
X439976D01*
Y145735D01*
X440142D01*
Y145900D01*
X440308D01*
Y146066D01*
X440474D01*
Y146232D01*
X440640D01*
Y146398D01*
X440806D01*
Y146564D01*
X440972D01*
Y146730D01*
X441137D01*
Y146896D01*
X441303D01*
Y147062D01*
X441469D01*
Y147227D01*
X441801D01*
Y147393D01*
X441967D01*
Y147559D01*
X442133D01*
Y147725D01*
X442299D01*
Y147891D01*
X442464D01*
Y148057D01*
X442630D01*
Y148223D01*
X442796D01*
Y148389D01*
X442962D01*
Y148554D01*
X443128D01*
Y148720D01*
X443294D01*
Y148886D01*
X443460D01*
Y149052D01*
X443792D01*
Y149218D01*
X443957D01*
Y149384D01*
X444123D01*
Y149550D01*
X444289D01*
Y149716D01*
X444455D01*
Y149881D01*
X444621D01*
Y150047D01*
X444787D01*
Y150213D01*
X444953D01*
Y150379D01*
X445118D01*
Y150545D01*
X445284D01*
Y150711D01*
X445450D01*
Y150877D01*
X445616D01*
Y151043D01*
X445948D01*
Y151208D01*
X446114D01*
Y151374D01*
X446280D01*
Y151540D01*
X446446D01*
Y151706D01*
X446611D01*
Y151872D01*
X446777D01*
Y152038D01*
X446943D01*
Y152204D01*
X447109D01*
Y152370D01*
X447275D01*
Y152536D01*
X447441D01*
Y152701D01*
X447772D01*
Y152867D01*
X447938D01*
Y153033D01*
X448104D01*
Y153199D01*
X448270D01*
Y153365D01*
X448436D01*
Y153531D01*
X448602D01*
Y153697D01*
X448768D01*
Y153863D01*
X448934D01*
Y154028D01*
X449100D01*
Y154194D01*
X449265D01*
Y154360D01*
X449431D01*
Y154526D01*
X449597D01*
Y154692D01*
X449763D01*
Y154858D01*
X450095D01*
Y155024D01*
X450261D01*
Y155190D01*
X450426D01*
Y155356D01*
X450592D01*
Y155521D01*
X450758D01*
Y155687D01*
X450924D01*
Y155853D01*
X451090D01*
Y156019D01*
X451256D01*
Y156185D01*
X451422D01*
Y156351D01*
X451588D01*
Y156517D01*
X451754D01*
Y156683D01*
X451919D01*
Y156848D01*
X452251D01*
Y157014D01*
X452417D01*
Y157180D01*
X452583D01*
Y157346D01*
X452749D01*
Y157512D01*
X452915D01*
Y157678D01*
X453081D01*
Y157844D01*
X453246D01*
Y158010D01*
X453412D01*
Y158175D01*
X453578D01*
Y158341D01*
X453744D01*
Y158507D01*
X453910D01*
Y158673D01*
X454076D01*
Y158839D01*
X454408D01*
Y159005D01*
X454574D01*
Y159171D01*
X454739D01*
Y159337D01*
X454905D01*
Y159502D01*
X455071D01*
Y159668D01*
X455237D01*
Y159834D01*
X455403D01*
Y160000D01*
X455569D01*
Y160166D01*
X455735D01*
Y160332D01*
X455900D01*
Y160498D01*
X456232D01*
Y160664D01*
X456398D01*
Y160829D01*
X456564D01*
Y160995D01*
X456730D01*
Y161161D01*
X456896D01*
Y161327D01*
X457062D01*
Y161493D01*
X457228D01*
Y161659D01*
X457393D01*
Y161825D01*
X457559D01*
Y161991D01*
X457725D01*
Y162156D01*
X457891D01*
Y162322D01*
X458057D01*
Y162488D01*
X458389D01*
Y162820D01*
X458720D01*
Y162986D01*
X458886D01*
Y163152D01*
X459052D01*
Y163318D01*
X459218D01*
Y163483D01*
X459384D01*
Y163649D01*
X459550D01*
Y163815D01*
X459716D01*
Y163981D01*
X459882D01*
Y164147D01*
X460047D01*
Y164313D01*
X460213D01*
Y164479D01*
X460545D01*
Y164645D01*
X460711D01*
Y164810D01*
X460877D01*
Y164976D01*
X461043D01*
Y165142D01*
X461208D01*
Y165308D01*
X461374D01*
Y165474D01*
X461540D01*
Y165640D01*
X461706D01*
Y165806D01*
X461872D01*
Y165972D01*
X462038D01*
Y166138D01*
X462204D01*
Y166303D01*
X462536D01*
Y166469D01*
X462701D01*
Y166635D01*
X462867D01*
Y166801D01*
X463033D01*
Y166967D01*
X463199D01*
Y167133D01*
X463365D01*
Y167299D01*
X463531D01*
Y167465D01*
X463697D01*
Y167630D01*
X463862D01*
Y167796D01*
X464028D01*
Y167962D01*
X464194D01*
Y169621D01*
X463862D01*
Y169455D01*
X463697D01*
Y169289D01*
X463531D01*
Y169123D01*
X463365D01*
Y168957D01*
X463199D01*
Y168792D01*
X463033D01*
Y168626D01*
X462867D01*
Y168460D01*
X462536D01*
Y168294D01*
X462370D01*
Y168128D01*
X462204D01*
Y167962D01*
X462038D01*
Y167796D01*
X461872D01*
Y167630D01*
X461706D01*
Y167465D01*
X461540D01*
Y167299D01*
X461374D01*
Y167133D01*
X461208D01*
Y166967D01*
X461043D01*
Y166801D01*
X460877D01*
Y166635D01*
X460545D01*
Y166469D01*
X460379D01*
Y166303D01*
X460213D01*
Y166138D01*
X460047D01*
Y165972D01*
X459882D01*
Y165806D01*
X459716D01*
Y165640D01*
X459550D01*
Y165474D01*
X459384D01*
Y165308D01*
X459218D01*
Y165142D01*
X459052D01*
Y164976D01*
X458886D01*
Y164810D01*
X458720D01*
Y164645D01*
X458389D01*
Y164313D01*
X458057D01*
Y164147D01*
X457891D01*
Y163981D01*
X457725D01*
Y163815D01*
X457559D01*
Y163649D01*
X457393D01*
Y163483D01*
X457228D01*
Y163318D01*
X457062D01*
Y163152D01*
X456896D01*
Y162986D01*
X456730D01*
Y162820D01*
X456564D01*
Y162654D01*
X456398D01*
Y162488D01*
X456066D01*
Y162322D01*
X455900D01*
Y162156D01*
X455735D01*
Y161991D01*
X455569D01*
Y161825D01*
X455403D01*
Y161659D01*
X455237D01*
Y161493D01*
X455071D01*
Y161327D01*
X454905D01*
Y161161D01*
X454739D01*
Y160995D01*
X454574D01*
Y160829D01*
X454408D01*
Y160664D01*
X454076D01*
Y160498D01*
X453910D01*
Y160332D01*
X453744D01*
Y160166D01*
X453578D01*
Y160000D01*
X453412D01*
Y159834D01*
X453246D01*
Y159668D01*
X453081D01*
Y159502D01*
X452915D01*
Y159337D01*
X452749D01*
Y159171D01*
X452583D01*
Y159005D01*
X452417D01*
Y158839D01*
X452251D01*
Y158673D01*
X452085D01*
Y158507D01*
X451754D01*
Y158341D01*
X451588D01*
Y158175D01*
X451422D01*
Y158010D01*
X451256D01*
Y157844D01*
X451090D01*
Y157678D01*
X450924D01*
Y157512D01*
X450758D01*
Y157346D01*
X450592D01*
Y157180D01*
X450426D01*
Y157014D01*
X450261D01*
Y156848D01*
X450095D01*
Y156683D01*
X449929D01*
Y156517D01*
X449763D01*
Y156351D01*
X449431D01*
Y156185D01*
X449265D01*
Y156019D01*
X449100D01*
Y155853D01*
X448934D01*
Y155687D01*
X448768D01*
Y155521D01*
X448602D01*
Y155356D01*
X448436D01*
Y155190D01*
X448270D01*
Y155024D01*
X448104D01*
Y154858D01*
X447938D01*
Y154692D01*
X447772D01*
Y154526D01*
X447607D01*
Y154360D01*
X447275D01*
Y154194D01*
X447109D01*
Y154028D01*
X446943D01*
Y153863D01*
X446777D01*
Y153697D01*
X446611D01*
Y153531D01*
X446446D01*
Y153365D01*
X446280D01*
Y153199D01*
X446114D01*
Y153033D01*
X445948D01*
Y152867D01*
X445782D01*
Y152701D01*
X445616D01*
Y152536D01*
X445284D01*
Y152370D01*
X445118D01*
Y152204D01*
X444953D01*
Y152038D01*
X444787D01*
Y151872D01*
X444621D01*
Y151706D01*
X444455D01*
Y151540D01*
X444289D01*
Y151374D01*
X444123D01*
Y151208D01*
X443957D01*
Y151043D01*
X443792D01*
Y150877D01*
X443626D01*
Y150711D01*
X443460D01*
Y150545D01*
X443128D01*
Y150213D01*
X442796D01*
Y150047D01*
X442630D01*
Y149881D01*
X442464D01*
Y149716D01*
X442299D01*
Y149550D01*
X442133D01*
Y149384D01*
X441967D01*
Y149218D01*
X441801D01*
Y149052D01*
X441635D01*
Y148886D01*
X441469D01*
Y148720D01*
X441303D01*
Y148554D01*
X441137D01*
Y148389D01*
X440806D01*
Y148223D01*
X440640D01*
Y148057D01*
X440474D01*
Y147891D01*
X440308D01*
Y147725D01*
X440142D01*
Y147559D01*
X439976D01*
Y147393D01*
X439810D01*
Y147227D01*
X439645D01*
Y147062D01*
X439479D01*
Y146896D01*
X439313D01*
Y146730D01*
X439147D01*
Y146564D01*
X438815D01*
Y146398D01*
X438649D01*
Y146232D01*
X438483D01*
Y146066D01*
X438317D01*
Y145900D01*
X438152D01*
Y145735D01*
X437986D01*
Y145569D01*
X437820D01*
Y145403D01*
X437654D01*
Y145237D01*
X437488D01*
Y145071D01*
X437322D01*
Y144905D01*
X437156D01*
Y144739D01*
X436991D01*
Y144573D01*
X436825D01*
Y144408D01*
X436493D01*
Y144242D01*
X436327D01*
Y144076D01*
X436161D01*
Y143910D01*
X435995D01*
Y143744D01*
X435829D01*
Y143578D01*
X435663D01*
Y143412D01*
X435498D01*
Y143246D01*
X435332D01*
Y143081D01*
X435166D01*
Y142915D01*
X435000D01*
Y142749D01*
X434834D01*
Y142583D01*
X434668D01*
Y142417D01*
X434337D01*
Y142251D01*
X434171D01*
Y142085D01*
X434005D01*
Y141919D01*
X433839D01*
Y141754D01*
X433673D01*
Y141588D01*
X433507D01*
Y141422D01*
X433341D01*
Y141256D01*
X433175D01*
Y141090D01*
X433009D01*
Y140924D01*
X432844D01*
Y140758D01*
X432678D01*
Y140592D01*
X432512D01*
Y140427D01*
X432346D01*
Y140261D01*
X432014D01*
Y140095D01*
X431848D01*
Y145071D01*
X432014D01*
Y145237D01*
X432180D01*
Y145403D01*
X432346D01*
Y145569D01*
X432512D01*
Y145735D01*
X432678D01*
Y145900D01*
X432844D01*
Y146066D01*
X433009D01*
Y146232D01*
X433175D01*
Y146398D01*
X433341D01*
Y146564D01*
X433507D01*
Y146730D01*
X433673D01*
Y146896D01*
X434005D01*
Y147227D01*
X434337D01*
Y147393D01*
X434502D01*
Y147559D01*
X434668D01*
Y147725D01*
X434834D01*
Y147891D01*
X435000D01*
Y148057D01*
X435166D01*
Y148223D01*
X435332D01*
Y148389D01*
X435498D01*
Y148554D01*
X435663D01*
Y148720D01*
X435829D01*
Y148886D01*
X435995D01*
Y149052D01*
X436327D01*
Y149384D01*
X436659D01*
Y149550D01*
X436825D01*
Y149716D01*
X436991D01*
Y149881D01*
X437156D01*
Y150047D01*
X437322D01*
Y150213D01*
X437488D01*
Y150379D01*
X437654D01*
Y150545D01*
X437820D01*
Y150711D01*
X437986D01*
Y150877D01*
X438152D01*
Y151043D01*
X438317D01*
Y151208D01*
X438483D01*
Y151374D01*
X438815D01*
Y151540D01*
X438981D01*
Y151706D01*
X439147D01*
Y151872D01*
X439313D01*
Y152038D01*
X439479D01*
Y152204D01*
X439645D01*
Y152370D01*
X439810D01*
Y152536D01*
X439976D01*
Y152701D01*
X440142D01*
Y152867D01*
X440308D01*
Y153033D01*
X440474D01*
Y153199D01*
X440640D01*
Y153365D01*
X440972D01*
Y153531D01*
X441137D01*
Y153697D01*
X441303D01*
Y153863D01*
X441469D01*
Y154028D01*
X441635D01*
Y154194D01*
X441801D01*
Y154360D01*
X441967D01*
Y154526D01*
X442133D01*
Y154692D01*
X442299D01*
Y154858D01*
X442464D01*
Y155024D01*
X442630D01*
Y155190D01*
X442796D01*
Y155356D01*
X442962D01*
Y155521D01*
X443128D01*
Y155687D01*
X443460D01*
Y156019D01*
X443792D01*
Y156185D01*
X443957D01*
Y156351D01*
X444123D01*
Y156517D01*
X444289D01*
Y156683D01*
X444455D01*
Y156848D01*
X444621D01*
Y157014D01*
X444787D01*
Y157180D01*
X444953D01*
Y157346D01*
X445118D01*
Y157512D01*
X445284D01*
Y157678D01*
X445450D01*
Y157844D01*
X445616D01*
Y158010D01*
X445948D01*
Y158175D01*
X446114D01*
Y158341D01*
X446280D01*
Y158507D01*
X446446D01*
Y158673D01*
X446611D01*
Y158839D01*
X446777D01*
Y159005D01*
X446943D01*
Y159171D01*
X447109D01*
Y159337D01*
X447275D01*
Y159502D01*
X447441D01*
Y159668D01*
X447607D01*
Y159834D01*
X447772D01*
Y160000D01*
X447938D01*
Y160166D01*
X448104D01*
Y160332D01*
X448436D01*
Y160498D01*
X448602D01*
Y160664D01*
X448768D01*
Y160829D01*
X448934D01*
Y160995D01*
X449100D01*
Y161161D01*
X449265D01*
Y161327D01*
X449431D01*
Y161493D01*
X449597D01*
Y161659D01*
X449763D01*
Y161825D01*
X449929D01*
Y161991D01*
X450095D01*
Y162156D01*
X450426D01*
Y162322D01*
X450592D01*
Y162488D01*
X450758D01*
Y162654D01*
X450924D01*
Y162820D01*
X451090D01*
Y162986D01*
X451256D01*
Y163152D01*
X451422D01*
Y163318D01*
X451588D01*
Y163483D01*
X451754D01*
Y163649D01*
X451919D01*
Y163815D01*
X452085D01*
Y163981D01*
X452251D01*
Y164147D01*
X452417D01*
Y164313D01*
X452583D01*
Y164479D01*
X452749D01*
Y165972D01*
X452417D01*
Y165806D01*
X452085D01*
Y165474D01*
X451754D01*
Y165308D01*
X451588D01*
Y165142D01*
X451422D01*
Y164976D01*
X451256D01*
Y164810D01*
X451090D01*
Y164645D01*
X450924D01*
Y164479D01*
X450758D01*
Y164313D01*
X450592D01*
Y164147D01*
X450426D01*
Y163981D01*
X450095D01*
Y163815D01*
X449929D01*
Y163649D01*
X449763D01*
Y163483D01*
X449597D01*
Y163318D01*
X449431D01*
Y163152D01*
X449265D01*
Y162986D01*
X449100D01*
Y162820D01*
X448934D01*
Y162654D01*
X448768D01*
Y162488D01*
X448436D01*
Y162322D01*
X448270D01*
Y162156D01*
X448104D01*
Y161991D01*
X447938D01*
Y161825D01*
X447772D01*
Y161659D01*
X447607D01*
Y161493D01*
X447441D01*
Y161327D01*
X447275D01*
Y161161D01*
X447109D01*
Y160995D01*
X446943D01*
Y160829D01*
X446611D01*
Y160664D01*
X446446D01*
Y160498D01*
X446280D01*
Y160332D01*
X446114D01*
Y160166D01*
X445948D01*
Y160000D01*
X445782D01*
Y159834D01*
X445616D01*
Y159668D01*
X445450D01*
Y159502D01*
X445284D01*
Y159337D01*
X445118D01*
Y159171D01*
X444787D01*
Y159005D01*
X444621D01*
Y158839D01*
X444455D01*
Y158673D01*
X444289D01*
Y158507D01*
X444123D01*
Y158341D01*
X443957D01*
Y158175D01*
X443792D01*
Y158010D01*
X443626D01*
Y157844D01*
X443460D01*
Y157678D01*
X443294D01*
Y157512D01*
X442962D01*
Y157346D01*
X442796D01*
Y157180D01*
X442630D01*
Y179573D01*
X480948D01*
Y143246D01*
D02*
G37*
G36*
X269000Y352000D02*
X169000D01*
Y377000D01*
X269000D01*
Y352000D01*
D02*
G37*
G36*
X600000Y30000D02*
Y5000D01*
X310000D01*
Y30000D01*
X600000D01*
D02*
G37*
G36*
X697000Y131000D02*
X567000D01*
Y157000D01*
X697000D01*
Y131000D01*
D02*
G37*
G36*
X448000Y469000D02*
Y439000D01*
X368000D01*
Y469000D01*
X448000D01*
D02*
G37*
G36*
X526000Y447000D02*
X486000D01*
Y475000D01*
X526000D01*
Y447000D01*
D02*
G37*
G36*
X239000Y20000D02*
X165000D01*
Y48000D01*
X239000D01*
Y20000D01*
D02*
G37*
G36*
X601826Y85674D02*
X351826D01*
Y110674D01*
X601826D01*
Y85674D01*
D02*
G37*
G36*
X73000Y378000D02*
X23000D01*
Y406000D01*
X73000D01*
Y378000D01*
D02*
G37*
G36*
X273000Y480000D02*
Y450000D01*
X213000D01*
Y480000D01*
X273000D01*
D02*
G37*
G36*
X99000Y118000D02*
X3000D01*
Y144000D01*
X99000D01*
Y118000D01*
D02*
G37*
G36*
X526000Y406000D02*
X486000D01*
Y434000D01*
X526000D01*
Y406000D01*
D02*
G37*
%LPC*%
G36*
X492725Y205119D02*
X490900D01*
Y204953D01*
X490403D01*
Y204787D01*
X490071D01*
Y204621D01*
X489905D01*
Y204455D01*
X489573D01*
Y204289D01*
X489408D01*
Y204123D01*
X489242D01*
Y203957D01*
X489076D01*
Y203792D01*
X488910D01*
Y203460D01*
X488744D01*
Y203294D01*
X488578D01*
Y202796D01*
X488412D01*
Y202299D01*
X488246D01*
Y201469D01*
Y201303D01*
Y200806D01*
X488412D01*
Y200308D01*
X488578D01*
Y199976D01*
X488744D01*
Y199645D01*
X488910D01*
Y199479D01*
X489076D01*
Y199147D01*
X489242D01*
Y198981D01*
X489408D01*
Y198815D01*
X489573D01*
Y198649D01*
X489905D01*
Y198483D01*
X490237D01*
Y198318D01*
X490569D01*
Y198152D01*
X490900D01*
Y197986D01*
X492725D01*
Y198152D01*
X493223D01*
Y198318D01*
X493554D01*
Y198483D01*
X493886D01*
Y198649D01*
X494052D01*
Y198815D01*
X494218D01*
Y198981D01*
X494384D01*
Y199147D01*
X494550D01*
Y199313D01*
X494716D01*
Y199479D01*
X494882D01*
Y199810D01*
X495047D01*
Y200142D01*
X495213D01*
Y200474D01*
X495379D01*
Y202465D01*
X495213D01*
Y202962D01*
X495047D01*
Y203294D01*
X494882D01*
Y203626D01*
X494716D01*
Y203792D01*
X494550D01*
Y204123D01*
X494384D01*
Y204289D01*
X494052D01*
Y204455D01*
X493886D01*
Y204621D01*
X493554D01*
Y204787D01*
X493223D01*
Y204953D01*
X492725D01*
Y205119D01*
D02*
G37*
%LPD*%
G36*
Y203626D02*
X493057D01*
Y203460D01*
X493223D01*
Y203294D01*
X493389D01*
Y202962D01*
X493554D01*
Y202133D01*
X493389D01*
Y201801D01*
X493223D01*
Y201635D01*
X493057D01*
Y201469D01*
X492725D01*
Y201303D01*
X492393D01*
Y201137D01*
X492559D01*
Y200972D01*
X492725D01*
Y200806D01*
X492891D01*
Y200640D01*
X493057D01*
Y200308D01*
X493223D01*
Y200142D01*
X493389D01*
Y199810D01*
X493554D01*
Y199645D01*
X493720D01*
Y199313D01*
X493886D01*
Y199147D01*
X492891D01*
Y199313D01*
X492725D01*
Y199645D01*
X492559D01*
Y199976D01*
X492393D01*
Y200308D01*
X492228D01*
Y200474D01*
X492062D01*
Y200806D01*
X491896D01*
Y200972D01*
X491564D01*
Y201137D01*
X490735D01*
Y199147D01*
X489905D01*
Y201801D01*
Y201967D01*
Y203792D01*
X492725D01*
Y203626D01*
D02*
G37*
%LPC*%
G36*
X492393Y203128D02*
X490735D01*
Y201801D01*
X492228D01*
Y201967D01*
X492559D01*
Y202133D01*
X492725D01*
Y202796D01*
X492559D01*
Y202962D01*
X492393D01*
Y203128D01*
D02*
G37*
G36*
X483602Y199147D02*
X465355D01*
Y198815D01*
X465521D01*
Y198649D01*
X465853D01*
Y198483D01*
X466019D01*
Y198318D01*
X466185D01*
Y198152D01*
X466351D01*
Y197986D01*
X466517D01*
Y197820D01*
X466848D01*
Y197654D01*
X467014D01*
Y197488D01*
X477630D01*
Y187701D01*
X477796D01*
Y187536D01*
X477962D01*
Y187370D01*
X478128D01*
Y187204D01*
X478294D01*
Y187038D01*
X478460D01*
Y186872D01*
X478626D01*
Y186706D01*
X478791D01*
Y186540D01*
X478957D01*
Y186374D01*
X479123D01*
Y186208D01*
X479289D01*
Y186043D01*
X479455D01*
Y185877D01*
X479787D01*
Y187204D01*
X479621D01*
Y197488D01*
X483602D01*
Y199147D01*
D02*
G37*
G36*
X459716Y197156D02*
X459550D01*
Y187536D01*
Y187370D01*
Y184384D01*
X461374D01*
Y193507D01*
X461706D01*
Y193341D01*
X461872D01*
Y193175D01*
X462038D01*
Y193009D01*
X462204D01*
Y192844D01*
X462370D01*
Y192678D01*
X462536D01*
Y192512D01*
X462701D01*
Y192346D01*
X462867D01*
Y192180D01*
X463033D01*
Y192014D01*
X463199D01*
Y191848D01*
X463531D01*
Y191517D01*
X463862D01*
Y191351D01*
X464028D01*
Y191185D01*
X464194D01*
Y191019D01*
X464360D01*
Y190853D01*
X464526D01*
Y190687D01*
X464692D01*
Y190521D01*
X464858D01*
Y190355D01*
X465024D01*
Y190190D01*
X465190D01*
Y190024D01*
X465355D01*
Y189858D01*
X465521D01*
Y189692D01*
X465687D01*
Y189526D01*
X465853D01*
Y189360D01*
X466185D01*
Y189194D01*
X466351D01*
Y189028D01*
X466517D01*
Y188863D01*
X466683D01*
Y188697D01*
X466848D01*
Y188531D01*
X467014D01*
Y188365D01*
X467180D01*
Y188199D01*
X467346D01*
Y188033D01*
X467512D01*
Y187867D01*
X467678D01*
Y187701D01*
X467844D01*
Y187536D01*
X468175D01*
Y187370D01*
X468341D01*
Y187204D01*
X468507D01*
Y187038D01*
X468673D01*
Y186872D01*
X468839D01*
Y186706D01*
X469005D01*
Y186540D01*
X469171D01*
Y186374D01*
X469337D01*
Y186208D01*
X469502D01*
Y186043D01*
X469668D01*
Y185877D01*
X469834D01*
Y185711D01*
X470166D01*
Y185545D01*
X470332D01*
Y185379D01*
X470498D01*
Y185213D01*
X470663D01*
Y185047D01*
X470829D01*
Y184881D01*
X470995D01*
Y184716D01*
X471161D01*
Y184550D01*
X471327D01*
Y184384D01*
X473483D01*
Y184550D01*
X473317D01*
Y184716D01*
X473152D01*
Y184881D01*
X472986D01*
Y185047D01*
X472820D01*
Y185213D01*
X472488D01*
Y185379D01*
X472322D01*
Y185545D01*
X472156D01*
Y185711D01*
X471991D01*
Y185877D01*
X471825D01*
Y186043D01*
X471659D01*
Y186208D01*
X471493D01*
Y186374D01*
X471327D01*
Y186540D01*
X471161D01*
Y186706D01*
X470995D01*
Y186872D01*
X470829D01*
Y187038D01*
X470498D01*
Y187204D01*
X470332D01*
Y187370D01*
X470166D01*
Y187536D01*
X470000D01*
Y187701D01*
X469834D01*
Y187867D01*
X469668D01*
Y188033D01*
X469502D01*
Y188199D01*
X469337D01*
Y188365D01*
X469171D01*
Y188531D01*
X469005D01*
Y188697D01*
X468673D01*
Y189028D01*
X468341D01*
Y189194D01*
X468175D01*
Y189360D01*
X468009D01*
Y189526D01*
X467844D01*
Y189692D01*
X467678D01*
Y189858D01*
X467512D01*
Y190024D01*
X467346D01*
Y190190D01*
X467180D01*
Y190355D01*
X467014D01*
Y190521D01*
X466848D01*
Y190687D01*
X466683D01*
Y190853D01*
X466351D01*
Y191019D01*
X466185D01*
Y191185D01*
X466019D01*
Y191351D01*
X465853D01*
Y191517D01*
X465687D01*
Y191682D01*
X465521D01*
Y191848D01*
X465355D01*
Y192014D01*
X465190D01*
Y192180D01*
X465024D01*
Y192346D01*
X464692D01*
Y192512D01*
X464526D01*
Y192678D01*
X464360D01*
Y192844D01*
X464194D01*
Y193009D01*
X464028D01*
Y193175D01*
X463862D01*
Y193341D01*
X463697D01*
Y193507D01*
X463531D01*
Y193673D01*
X463365D01*
Y193839D01*
X463199D01*
Y194005D01*
X463033D01*
Y194171D01*
X462701D01*
Y194336D01*
X462536D01*
Y194502D01*
X462370D01*
Y194668D01*
X462204D01*
Y194834D01*
X462038D01*
Y195000D01*
X461872D01*
Y195166D01*
X461706D01*
Y195332D01*
X461540D01*
Y195498D01*
X461374D01*
Y195664D01*
X461208D01*
Y195829D01*
X461043D01*
Y195995D01*
X460877D01*
Y196161D01*
X460545D01*
Y196327D01*
X460379D01*
Y196493D01*
X460213D01*
Y196659D01*
X460047D01*
Y196825D01*
X459882D01*
Y196991D01*
X459716D01*
Y197156D01*
D02*
G37*
G36*
X449100Y198981D02*
X430190D01*
Y197488D01*
X434171D01*
Y189692D01*
Y189526D01*
Y186208D01*
X434337D01*
Y186374D01*
X434502D01*
Y186540D01*
X434668D01*
Y186706D01*
X434834D01*
Y186872D01*
X435166D01*
Y187038D01*
X435332D01*
Y187204D01*
X435498D01*
Y187370D01*
X435663D01*
Y187536D01*
X435829D01*
Y197322D01*
X435995D01*
Y197488D01*
X447441D01*
Y197654D01*
X447607D01*
Y197820D01*
X447938D01*
Y197986D01*
X448104D01*
Y198152D01*
X448270D01*
Y198318D01*
X448436D01*
Y198483D01*
X448602D01*
Y198649D01*
X448934D01*
Y198815D01*
X449100D01*
Y198981D01*
D02*
G37*
G36*
X454242Y197322D02*
X454076D01*
Y197156D01*
X453910D01*
Y196991D01*
X453744D01*
Y196825D01*
X453578D01*
Y196659D01*
X453246D01*
Y196493D01*
X453081D01*
Y196327D01*
X452915D01*
Y196161D01*
X452749D01*
Y195995D01*
X452583D01*
Y195829D01*
X452417D01*
Y195664D01*
X452085D01*
Y195498D01*
X451919D01*
Y195332D01*
X451754D01*
Y195166D01*
X451588D01*
Y195000D01*
X451422D01*
Y194834D01*
X451256D01*
Y194668D01*
X451090D01*
Y194502D01*
X450924D01*
Y194336D01*
X450592D01*
Y194171D01*
X450426D01*
Y194005D01*
X450261D01*
Y193839D01*
X450095D01*
Y193673D01*
X449929D01*
Y193507D01*
X449763D01*
Y193341D01*
X449431D01*
Y193175D01*
X449265D01*
Y193009D01*
X449100D01*
Y192844D01*
X448934D01*
Y192678D01*
X448768D01*
Y192512D01*
X448602D01*
Y192346D01*
X448270D01*
Y192180D01*
X448104D01*
Y192014D01*
X447938D01*
Y191848D01*
X447772D01*
Y191682D01*
X447607D01*
Y191517D01*
X447441D01*
Y191351D01*
X447109D01*
Y191185D01*
X446943D01*
Y191019D01*
X446777D01*
Y190853D01*
X446611D01*
Y190687D01*
X446446D01*
Y190521D01*
X446280D01*
Y190355D01*
X446114D01*
Y190190D01*
X445782D01*
Y190024D01*
X445616D01*
Y189858D01*
X445450D01*
Y189692D01*
X445284D01*
Y189526D01*
X445118D01*
Y189360D01*
X444953D01*
Y189194D01*
X444787D01*
Y189028D01*
X444455D01*
Y188863D01*
X444289D01*
Y188697D01*
X444123D01*
Y188531D01*
X443957D01*
Y188365D01*
X443792D01*
Y188199D01*
X443626D01*
Y188033D01*
X443294D01*
Y187867D01*
X443128D01*
Y187701D01*
X442962D01*
Y187536D01*
X442796D01*
Y187370D01*
X442630D01*
Y187204D01*
X442464D01*
Y187038D01*
X442133D01*
Y186872D01*
X441967D01*
Y186706D01*
X441801D01*
Y186540D01*
X441635D01*
Y186374D01*
X441469D01*
Y186208D01*
X441303D01*
Y186043D01*
X441137D01*
Y185877D01*
X440806D01*
Y185711D01*
X440640D01*
Y185545D01*
X440474D01*
Y185379D01*
X440308D01*
Y185213D01*
X440142D01*
Y185047D01*
X439976D01*
Y184881D01*
X439810D01*
Y184716D01*
X439479D01*
Y184550D01*
X439313D01*
Y184384D01*
X447938D01*
Y185877D01*
X443957D01*
Y186043D01*
X444123D01*
Y186208D01*
X444289D01*
Y186374D01*
X444455D01*
Y186540D01*
X444621D01*
Y186706D01*
X444787D01*
Y186872D01*
X444953D01*
Y187038D01*
X445118D01*
Y187204D01*
X445284D01*
Y187370D01*
X445616D01*
Y187536D01*
X445782D01*
Y187701D01*
X445948D01*
Y187867D01*
X446114D01*
Y188033D01*
X446280D01*
Y188199D01*
X446446D01*
Y188365D01*
X446611D01*
Y188531D01*
X446777D01*
Y188697D01*
X446943D01*
Y188863D01*
X447109D01*
Y189028D01*
X447441D01*
Y189194D01*
X447607D01*
Y189360D01*
X447772D01*
Y189526D01*
X447938D01*
Y189692D01*
X448104D01*
Y189858D01*
X448270D01*
Y190024D01*
X448436D01*
Y190190D01*
X448602D01*
Y190355D01*
X448768D01*
Y190521D01*
X448934D01*
Y190687D01*
X449100D01*
Y190853D01*
X449265D01*
Y191019D01*
X449597D01*
Y191185D01*
X449763D01*
Y191351D01*
X449929D01*
Y191517D01*
X450095D01*
Y191682D01*
X450261D01*
Y191848D01*
X450426D01*
Y192014D01*
X450592D01*
Y192180D01*
X450758D01*
Y192346D01*
X450924D01*
Y192512D01*
X451256D01*
Y192678D01*
X451422D01*
Y192844D01*
X451588D01*
Y193009D01*
X451754D01*
Y193175D01*
X451919D01*
Y193341D01*
X452085D01*
Y193507D01*
X452251D01*
Y193673D01*
X452417D01*
Y184384D01*
X454242D01*
Y197322D01*
D02*
G37*
G36*
X432678Y196161D02*
X429028D01*
Y195995D01*
X428862D01*
Y195829D01*
X428531D01*
Y195664D01*
X428365D01*
Y195498D01*
X428199D01*
Y195332D01*
X428033D01*
Y195166D01*
X427867D01*
Y195000D01*
X427701D01*
Y194834D01*
X427536D01*
Y194668D01*
X427370D01*
Y194502D01*
X427204D01*
Y194171D01*
X427038D01*
Y194005D01*
X426872D01*
Y193673D01*
X426706D01*
Y193341D01*
X426540D01*
Y193009D01*
X426374D01*
Y192678D01*
X426208D01*
Y192180D01*
X426043D01*
Y191517D01*
X425877D01*
Y190687D01*
X425711D01*
Y189526D01*
X425545D01*
Y186540D01*
X425711D01*
Y185047D01*
X425877D01*
Y184384D01*
X426043D01*
Y184052D01*
X426208D01*
Y183886D01*
X426374D01*
Y183720D01*
X427370D01*
Y183886D01*
X427701D01*
Y184052D01*
X427867D01*
Y184218D01*
X428033D01*
Y184384D01*
X428199D01*
Y184550D01*
X428531D01*
Y184716D01*
X428697D01*
Y184881D01*
X428862D01*
Y185047D01*
X429028D01*
Y185213D01*
X429194D01*
Y185379D01*
X429526D01*
Y185545D01*
X429692D01*
Y185711D01*
X429858D01*
Y185877D01*
X430024D01*
Y186043D01*
X430355D01*
Y186208D01*
X430521D01*
Y186374D01*
X430687D01*
Y186540D01*
X430853D01*
Y186706D01*
X431185D01*
Y186872D01*
X431351D01*
Y187038D01*
X431517D01*
Y187204D01*
X431682D01*
Y187370D01*
X431848D01*
Y187536D01*
X432180D01*
Y187701D01*
X432346D01*
Y187867D01*
X432512D01*
Y188033D01*
X432678D01*
Y196161D01*
D02*
G37*
G36*
X435498Y219881D02*
X435166D01*
Y219716D01*
X435000D01*
Y219550D01*
X434834D01*
Y219384D01*
X434668D01*
Y219218D01*
X434502D01*
Y219052D01*
X434337D01*
Y218886D01*
X434171D01*
Y218720D01*
X434005D01*
Y218554D01*
X433839D01*
Y218389D01*
X433673D01*
Y218223D01*
X433507D01*
Y218057D01*
X433341D01*
Y217891D01*
X433175D01*
Y217725D01*
X432844D01*
Y217559D01*
X432678D01*
Y217393D01*
X432512D01*
Y217227D01*
X432346D01*
Y217062D01*
X432180D01*
Y216896D01*
X432014D01*
Y216730D01*
X431848D01*
Y216564D01*
X431517D01*
Y216398D01*
X431351D01*
Y216232D01*
X431185D01*
Y216066D01*
X431019D01*
Y215900D01*
X430853D01*
Y215735D01*
X430687D01*
Y215569D01*
X430521D01*
Y215403D01*
X430190D01*
Y215237D01*
X430024D01*
Y215071D01*
X429858D01*
Y214905D01*
X429692D01*
Y214739D01*
X429526D01*
Y214573D01*
X429360D01*
Y214408D01*
X429194D01*
Y214242D01*
X428862D01*
Y214076D01*
X428697D01*
Y213910D01*
X428531D01*
Y213744D01*
X428365D01*
Y213578D01*
X428199D01*
Y213412D01*
X428033D01*
Y213246D01*
X427867D01*
Y213081D01*
X427536D01*
Y212915D01*
X427370D01*
Y212749D01*
X427204D01*
Y212583D01*
X427038D01*
Y212417D01*
X426872D01*
Y212251D01*
X426706D01*
Y212085D01*
X426374D01*
Y211919D01*
X426208D01*
Y211754D01*
X426043D01*
Y211588D01*
X425877D01*
Y211422D01*
X425711D01*
Y211256D01*
X425545D01*
Y211090D01*
X425213D01*
Y210924D01*
X425047D01*
Y210758D01*
X424882D01*
Y210592D01*
X424716D01*
Y210427D01*
X424550D01*
Y210261D01*
X424218D01*
Y209929D01*
X423886D01*
Y209763D01*
X423720D01*
Y209597D01*
X423554D01*
Y209431D01*
X423389D01*
Y209265D01*
X423223D01*
Y209100D01*
X422891D01*
Y208934D01*
X422725D01*
Y208768D01*
X422559D01*
Y208602D01*
X422393D01*
Y208436D01*
X422228D01*
Y208270D01*
X421896D01*
Y208104D01*
X421730D01*
Y207938D01*
X421564D01*
Y207773D01*
X421398D01*
Y207607D01*
X421232D01*
Y207441D01*
X420900D01*
Y207275D01*
X420735D01*
Y207109D01*
X420569D01*
Y206943D01*
X420403D01*
Y206777D01*
X420071D01*
Y206611D01*
X419905D01*
Y206446D01*
X419739D01*
Y206280D01*
X419574D01*
Y206114D01*
X419408D01*
Y205948D01*
X419242D01*
Y205782D01*
X418910D01*
Y205616D01*
X418744D01*
Y205450D01*
X418578D01*
Y205284D01*
X418412D01*
Y205119D01*
X418246D01*
Y204953D01*
X418081D01*
Y204787D01*
X417749D01*
Y204621D01*
X417583D01*
Y204455D01*
X417417D01*
Y204289D01*
X417251D01*
Y204123D01*
X417085D01*
Y203957D01*
X416919D01*
Y203792D01*
X416754D01*
Y203626D01*
X416588D01*
Y203460D01*
X416422D01*
Y203294D01*
X416256D01*
Y203128D01*
X416090D01*
Y202962D01*
X415924D01*
Y202796D01*
X415758D01*
Y202630D01*
X415592D01*
Y202465D01*
X415426D01*
Y202299D01*
X415261D01*
Y202133D01*
X415095D01*
Y201967D01*
X414929D01*
Y201635D01*
X414763D01*
Y201469D01*
X414597D01*
Y201303D01*
X414431D01*
Y200972D01*
X414265D01*
Y200806D01*
X414100D01*
Y200640D01*
X413934D01*
Y200308D01*
X413768D01*
Y199976D01*
X413602D01*
Y199810D01*
X413436D01*
Y199313D01*
X413270D01*
Y198981D01*
X413104D01*
Y198649D01*
X412938D01*
Y198152D01*
X412772D01*
Y197322D01*
X412607D01*
Y157512D01*
X412772D01*
Y157180D01*
X412938D01*
Y156848D01*
X413270D01*
Y156683D01*
X413602D01*
Y156517D01*
X415095D01*
Y156683D01*
X415924D01*
Y156848D01*
X416090D01*
Y157014D01*
X416256D01*
Y157180D01*
X416422D01*
Y157346D01*
X416588D01*
Y157512D01*
X416754D01*
Y157678D01*
X417085D01*
Y157844D01*
X417251D01*
Y158010D01*
X417417D01*
Y158175D01*
X417583D01*
Y158341D01*
X417749D01*
Y158507D01*
X418081D01*
Y158673D01*
X418246D01*
Y158839D01*
X418412D01*
Y159005D01*
X418578D01*
Y159171D01*
X418744D01*
Y159337D01*
X418910D01*
Y159502D01*
X419076D01*
Y159668D01*
X419408D01*
Y159834D01*
X419574D01*
Y160000D01*
X419739D01*
Y160166D01*
X419905D01*
Y160332D01*
X420071D01*
Y160498D01*
X420237D01*
Y160664D01*
X420569D01*
Y160829D01*
X420735D01*
Y160995D01*
X420900D01*
Y161161D01*
X421066D01*
Y161327D01*
X421232D01*
Y161493D01*
X421564D01*
Y161659D01*
X421730D01*
Y161825D01*
X421896D01*
Y161991D01*
X422062D01*
Y162156D01*
X422228D01*
Y162322D01*
X422393D01*
Y162488D01*
X422559D01*
Y162654D01*
X422891D01*
Y162820D01*
X423057D01*
Y162986D01*
X423223D01*
Y163152D01*
X423389D01*
Y163318D01*
X423554D01*
Y163483D01*
X423720D01*
Y163649D01*
X424052D01*
Y163815D01*
X424218D01*
Y163981D01*
X424384D01*
Y164147D01*
X424550D01*
Y164313D01*
X424716D01*
Y164479D01*
X424882D01*
Y164645D01*
X425213D01*
Y164810D01*
X425379D01*
Y164976D01*
X425545D01*
Y165142D01*
X425711D01*
Y165308D01*
X425877D01*
Y165474D01*
X426208D01*
Y165640D01*
X426374D01*
Y165806D01*
X426540D01*
Y165972D01*
X426706D01*
Y166138D01*
X426872D01*
Y166303D01*
X427038D01*
Y166469D01*
X427204D01*
Y166635D01*
X427536D01*
Y166801D01*
X427701D01*
Y166967D01*
X427867D01*
Y167133D01*
X428033D01*
Y167299D01*
X428199D01*
Y167465D01*
X428531D01*
Y167630D01*
X428697D01*
Y167796D01*
X428862D01*
Y167962D01*
X429028D01*
Y168128D01*
X429194D01*
Y168294D01*
X429360D01*
Y168460D01*
X429692D01*
Y168626D01*
X429858D01*
Y168792D01*
X430024D01*
Y168957D01*
X430190D01*
Y169123D01*
X430355D01*
Y169289D01*
X430521D01*
Y169455D01*
X430687D01*
Y169621D01*
X431019D01*
Y169787D01*
X431185D01*
Y169953D01*
X431351D01*
Y170119D01*
X431517D01*
Y170284D01*
X431682D01*
Y170450D01*
X431848D01*
Y170616D01*
X432180D01*
Y170782D01*
X432346D01*
Y170948D01*
X432512D01*
Y171114D01*
X432678D01*
Y171280D01*
X432844D01*
Y171446D01*
X433009D01*
Y171611D01*
X433341D01*
Y171777D01*
X433507D01*
Y171943D01*
X433673D01*
Y172109D01*
X433839D01*
Y172275D01*
X434005D01*
Y172441D01*
X434337D01*
Y172607D01*
X434502D01*
Y172773D01*
X434668D01*
Y172938D01*
X434834D01*
Y173104D01*
X435000D01*
Y173270D01*
X435166D01*
Y173436D01*
X435498D01*
Y173768D01*
X435829D01*
Y173934D01*
X435995D01*
Y174100D01*
X436161D01*
Y174265D01*
X436327D01*
Y174431D01*
X436493D01*
Y174597D01*
X436825D01*
Y174763D01*
X436991D01*
Y174929D01*
X437156D01*
Y175095D01*
X437322D01*
Y175261D01*
X437488D01*
Y175427D01*
X437820D01*
Y175592D01*
X437986D01*
Y175758D01*
X438152D01*
Y183057D01*
X435829D01*
Y183223D01*
X435995D01*
Y183389D01*
X436161D01*
Y183554D01*
X436327D01*
Y183720D01*
X436493D01*
Y183886D01*
X436825D01*
Y184052D01*
X436991D01*
Y184218D01*
X437156D01*
Y184384D01*
X437322D01*
Y184550D01*
X437488D01*
Y184716D01*
X437654D01*
Y184881D01*
X437820D01*
Y185047D01*
X437986D01*
Y186043D01*
X438152D01*
Y189858D01*
Y190024D01*
Y191019D01*
X437820D01*
Y190853D01*
X437654D01*
Y190687D01*
X437488D01*
Y190521D01*
X437322D01*
Y186706D01*
X436991D01*
Y186540D01*
X436825D01*
Y186374D01*
X436659D01*
Y186208D01*
X436493D01*
Y186043D01*
X436327D01*
Y185877D01*
X435995D01*
Y185711D01*
X435829D01*
Y185545D01*
X435663D01*
Y185379D01*
X435498D01*
Y185213D01*
X435166D01*
Y185047D01*
X435000D01*
Y184881D01*
X434834D01*
Y184716D01*
X434668D01*
Y184550D01*
X434337D01*
Y184384D01*
X434171D01*
Y184218D01*
X434005D01*
Y184052D01*
X433839D01*
Y183886D01*
X433673D01*
Y183720D01*
X433341D01*
Y183554D01*
X433175D01*
Y183389D01*
X433009D01*
Y183223D01*
X432678D01*
Y186374D01*
X432512D01*
Y186208D01*
X432346D01*
Y186043D01*
X432180D01*
Y185877D01*
X432014D01*
Y185711D01*
X431682D01*
Y185545D01*
X431517D01*
Y185379D01*
X431351D01*
Y185213D01*
X431185D01*
Y185047D01*
X431019D01*
Y184881D01*
X430853D01*
Y184716D01*
X430521D01*
Y184550D01*
X430355D01*
Y184384D01*
X430190D01*
Y184218D01*
X430024D01*
Y184052D01*
X429692D01*
Y183886D01*
X429526D01*
Y183720D01*
X429194D01*
Y183554D01*
X429028D01*
Y183389D01*
X428862D01*
Y183223D01*
X428531D01*
Y183057D01*
X428365D01*
Y182891D01*
X428033D01*
Y182725D01*
X427867D01*
Y182559D01*
X427204D01*
Y182393D01*
X426043D01*
Y182559D01*
X425545D01*
Y182725D01*
X425379D01*
Y182891D01*
X425213D01*
Y183057D01*
X425047D01*
Y183223D01*
X424882D01*
Y183554D01*
X424716D01*
Y184052D01*
X424550D01*
Y184550D01*
X424384D01*
Y185545D01*
X424218D01*
Y190687D01*
X424384D01*
Y191517D01*
X424550D01*
Y192180D01*
X424716D01*
Y192678D01*
X424882D01*
Y193175D01*
X425047D01*
Y193507D01*
X425213D01*
Y193839D01*
X425379D01*
Y194336D01*
X425545D01*
Y194668D01*
X425711D01*
Y194834D01*
X425877D01*
Y195166D01*
X426043D01*
Y195332D01*
X426208D01*
Y195664D01*
X426374D01*
Y195829D01*
X426540D01*
Y195995D01*
X426706D01*
Y196161D01*
X426872D01*
Y196327D01*
X427038D01*
Y196493D01*
X427204D01*
Y196659D01*
X427370D01*
Y196825D01*
X427536D01*
Y196991D01*
X427701D01*
Y197156D01*
X428033D01*
Y197322D01*
X428199D01*
Y197488D01*
X428531D01*
Y197654D01*
X428862D01*
Y200308D01*
X431848D01*
Y200474D01*
X432014D01*
Y200640D01*
X432180D01*
Y200806D01*
X432346D01*
Y200972D01*
X432512D01*
Y201137D01*
X432678D01*
Y201303D01*
X432844D01*
Y201469D01*
X433009D01*
Y201635D01*
X433175D01*
Y201801D01*
X433341D01*
Y201967D01*
X433507D01*
Y202133D01*
X433673D01*
Y202299D01*
X433839D01*
Y202465D01*
X434005D01*
Y202796D01*
X434337D01*
Y203128D01*
X434502D01*
Y203294D01*
X434668D01*
Y203460D01*
X434834D01*
Y203626D01*
X435000D01*
Y203792D01*
X435166D01*
Y203957D01*
X435332D01*
Y204123D01*
X435498D01*
Y219881D01*
D02*
G37*
G36*
X253316Y372275D02*
X234503Y372275D01*
Y357026D01*
X257967Y357026D01*
X246628D01*
Y371974D01*
X243204D01*
Y363598D01*
X238992Y371974D01*
X234503D01*
Y372275D01*
X253084Y372275D01*
X252668Y372252D01*
X252274Y372229D01*
X251904Y372159D01*
X251557Y372067D01*
X251233Y371974D01*
X250932Y371858D01*
X250678Y371743D01*
X250423Y371627D01*
X250215Y371511D01*
X250030Y371396D01*
X249868Y371280D01*
X249729Y371187D01*
X249637Y371095D01*
X249567Y371025D01*
X249521Y371002D01*
X249498Y370979D01*
X249266Y370724D01*
X249081Y370470D01*
X248919Y370192D01*
X248757Y369892D01*
X248526Y369313D01*
X248387Y368758D01*
X248341Y368503D01*
X248295Y368249D01*
X248271Y368040D01*
X248248Y367855D01*
X248225Y367693D01*
Y367578D01*
Y367508D01*
Y367485D01*
X248248Y367092D01*
X248271Y366698D01*
X248341Y366328D01*
X248433Y366004D01*
X248526Y365680D01*
X248618Y365402D01*
X248734Y365125D01*
X248873Y364893D01*
X248989Y364685D01*
X249104Y364500D01*
X249197Y364338D01*
X249289Y364199D01*
X249382Y364107D01*
X249451Y364037D01*
X249475Y363991D01*
X249498Y363968D01*
X249752Y363736D01*
X250007Y363551D01*
X250308Y363389D01*
X250585Y363227D01*
X251187Y362996D01*
X251765Y362857D01*
X252043Y362811D01*
X252274Y362765D01*
X252506Y362741D01*
X252714Y362718D01*
X252853Y362695D01*
X253084D01*
X253501Y362718D01*
X253894Y362741D01*
X254264Y362811D01*
X254611Y362903D01*
X254935Y362996D01*
X255236Y363088D01*
X255514Y363204D01*
X255745Y363343D01*
X255954Y363459D01*
X256139Y363574D01*
X256301Y363667D01*
X256439Y363760D01*
X256532Y363852D01*
X256602Y363922D01*
X256648Y363945D01*
X256671Y363968D01*
X256902Y364222D01*
X257111Y364500D01*
X257273Y364778D01*
X257411Y365055D01*
X257643Y365657D01*
X257805Y366212D01*
X257851Y366467D01*
X257897Y366721D01*
X257920Y366930D01*
X257944Y367115D01*
X257967Y367277D01*
Y367485D01*
X257944Y367878D01*
X257920Y368272D01*
X257851Y368619D01*
X257759Y368966D01*
X257666Y369267D01*
X257573Y369568D01*
X257458Y369822D01*
X257342Y370053D01*
X257203Y370262D01*
X257087Y370447D01*
X256995Y370609D01*
X256902Y370748D01*
X256810Y370840D01*
X256740Y370910D01*
X256717Y370956D01*
X256694Y370979D01*
X256439Y371211D01*
X256185Y371419D01*
X255884Y371581D01*
X255583Y371720D01*
X255005Y371951D01*
X254403Y372113D01*
X254149Y372159D01*
X253894Y372206D01*
X253663Y372229D01*
X253478Y372252D01*
X253316Y372275D01*
D02*
G37*
G36*
X179154Y372275D02*
X178853D01*
X178275Y372252D01*
X177696Y372229D01*
X177187Y372182D01*
X176724Y372113D01*
X176331Y372043D01*
X176169Y372020D01*
X176030Y371997D01*
X175914Y371974D01*
X175845D01*
X175799Y371951D01*
X175776D01*
X175243Y371835D01*
X174757Y371720D01*
X174341Y371604D01*
X173971Y371511D01*
X173670Y371419D01*
X173462Y371349D01*
X173323Y371303D01*
X173300Y371280D01*
X173277D01*
Y368156D01*
X173647D01*
X173948Y368295D01*
X174202Y368411D01*
X174318Y368457D01*
X174387Y368503D01*
X174433Y368526D01*
X174457D01*
X174619Y368596D01*
X174781Y368688D01*
X175128Y368804D01*
X175290Y368873D01*
X175405Y368896D01*
X175498Y368943D01*
X175521D01*
X175961Y369082D01*
X176192Y369151D01*
X176377Y369197D01*
X176539Y369244D01*
X176655Y369267D01*
X176747Y369290D01*
X176771D01*
X177280Y369382D01*
X177534Y369406D01*
X177742Y369429D01*
X177951Y369452D01*
X178228D01*
X178691Y369429D01*
X179084Y369406D01*
X179432Y369336D01*
X179732Y369290D01*
X179964Y369220D01*
X180126Y369151D01*
X180242Y369128D01*
X180265Y369105D01*
X180519Y368966D01*
X180704Y368781D01*
X180843Y368619D01*
X180936Y368434D01*
X180982Y368272D01*
X181028Y368133D01*
Y368040D01*
Y368017D01*
X181005Y367716D01*
X180959Y367485D01*
X180936Y367392D01*
X180912Y367323D01*
X180889Y367300D01*
Y367277D01*
X180774Y367068D01*
X180635Y366907D01*
X180519Y366791D01*
X180496Y366768D01*
X180473Y366744D01*
X180357Y366675D01*
X180218Y366606D01*
X179964Y366513D01*
X179825Y366467D01*
X179732Y366444D01*
X179663Y366421D01*
X179640D01*
X179223Y366374D01*
X178992Y366351D01*
X178784D01*
X178622Y366328D01*
X175683D01*
Y363667D01*
X178714D01*
X178969Y363644D01*
X179200D01*
X179385Y363621D01*
X179547Y363598D01*
X179663D01*
X179732Y363574D01*
X179756D01*
X180126Y363505D01*
X180288Y363459D01*
X180427Y363389D01*
X180542Y363343D01*
X180612Y363320D01*
X180658Y363274D01*
X180681D01*
X180936Y363088D01*
X181098Y362880D01*
X181213Y362741D01*
X181236Y362695D01*
Y362672D01*
X181352Y362371D01*
X181399Y362070D01*
X181422Y361955D01*
Y361839D01*
Y361770D01*
Y361746D01*
Y361538D01*
X181375Y361330D01*
X181352Y361168D01*
X181306Y361029D01*
X181260Y360913D01*
X181213Y360821D01*
X181190Y360775D01*
X181167Y360751D01*
X181075Y360613D01*
X180959Y360474D01*
X180704Y360266D01*
X180612Y360196D01*
X180519Y360127D01*
X180450Y360103D01*
X180427Y360080D01*
X180079Y359895D01*
X179709Y359780D01*
X179571Y359733D01*
X179455Y359687D01*
X179362Y359664D01*
X179339D01*
X178830Y359594D01*
X178599Y359571D01*
X178367D01*
X178182Y359548D01*
X177581D01*
X177326Y359571D01*
X177071Y359594D01*
X176863Y359618D01*
X176678Y359641D01*
X176562Y359664D01*
X176470Y359687D01*
X176447D01*
X175984Y359826D01*
X175753Y359895D01*
X175544Y359965D01*
X175382Y360011D01*
X175220Y360057D01*
X175128Y360103D01*
X175105D01*
X174688Y360266D01*
X174480Y360358D01*
X174318Y360428D01*
X174156Y360497D01*
X174040Y360566D01*
X173971Y360589D01*
X173948Y360613D01*
X173762Y360728D01*
X173577Y360821D01*
X173438Y360890D01*
X173323Y360960D01*
X173230Y361006D01*
X173161Y361052D01*
X173138Y361075D01*
X172768D01*
Y372275D01*
X178111D01*
X172768D01*
Y356725D01*
Y357697D01*
X173647Y357396D01*
X174086Y357281D01*
X174480Y357188D01*
X174804Y357118D01*
X175081Y357049D01*
X175174Y357026D01*
X175243D01*
X175290Y357003D01*
X175313D01*
X175845Y356910D01*
X176377Y356841D01*
X176886Y356795D01*
X177349Y356771D01*
X177742Y356748D01*
X177904Y356725D01*
X178321D01*
X178969Y356748D01*
X179571Y356771D01*
X180103Y356818D01*
X180565Y356887D01*
X180751Y356910D01*
X180912Y356957D01*
X181075Y356980D01*
X181190Y357003D01*
X181283Y357026D01*
X181375D01*
X181399Y357049D01*
X181422D01*
X181884Y357188D01*
X182324Y357327D01*
X182694Y357489D01*
X183018Y357651D01*
X183273Y357790D01*
X183481Y357905D01*
X183597Y357975D01*
X183643Y357998D01*
X183944Y358229D01*
X184221Y358484D01*
X184453Y358738D01*
X184638Y358970D01*
X184777Y359178D01*
X184869Y359363D01*
X184939Y359456D01*
X184962Y359502D01*
X185124Y359849D01*
X185240Y360196D01*
X185309Y360520D01*
X185378Y360821D01*
X185402Y361075D01*
X185425Y361284D01*
Y361469D01*
X185402Y361816D01*
X185378Y362117D01*
X185332Y362394D01*
X185263Y362626D01*
X185193Y362811D01*
X185147Y362926D01*
X185124Y363019D01*
X185101Y363042D01*
X184962Y363274D01*
X184846Y363482D01*
X184684Y363644D01*
X184569Y363806D01*
X184453Y363945D01*
X184360Y364037D01*
X184291Y364084D01*
X184268Y364107D01*
X183897Y364384D01*
X183550Y364569D01*
X183389Y364639D01*
X183273Y364685D01*
X183203Y364731D01*
X183180D01*
X182741Y364870D01*
X182555Y364940D01*
X182393Y364986D01*
X182255Y365009D01*
X182139Y365032D01*
X182069Y365055D01*
X182046D01*
Y365217D01*
X182509Y365356D01*
X182949Y365541D01*
X183319Y365750D01*
X183620Y365935D01*
X183874Y366143D01*
X184060Y366305D01*
X184152Y366397D01*
X184198Y366444D01*
X184476Y366814D01*
X184684Y367184D01*
X184823Y367554D01*
X184939Y367901D01*
X184985Y368202D01*
X185008Y368434D01*
X185031Y368526D01*
Y368596D01*
Y368619D01*
Y368642D01*
X185008Y368966D01*
X184962Y369244D01*
X184893Y369521D01*
X184800Y369776D01*
X184545Y370239D01*
X184268Y370609D01*
X183967Y370910D01*
X183736Y371118D01*
X183620Y371210D01*
X183550Y371257D01*
X183504Y371303D01*
X183481D01*
X183180Y371465D01*
X182833Y371627D01*
X182116Y371858D01*
X181329Y372043D01*
X180589Y372159D01*
X180242Y372205D01*
X179918Y372229D01*
X179617Y372252D01*
X179362D01*
X179154Y372275D01*
D02*
G37*
G36*
X256625Y360913D02*
X249567D01*
Y358785D01*
X256625D01*
Y360913D01*
D02*
G37*
G36*
X265233Y368295D02*
X261484D01*
Y357026D01*
X265233D01*
Y360983D01*
X261484D01*
Y364338D01*
X265233D01*
Y368295D01*
D02*
G37*
G36*
X223720Y360983D02*
X219972D01*
Y357026D01*
X223720D01*
Y360983D01*
D02*
G37*
G36*
X210786Y371974D02*
X204376D01*
Y357026D01*
X217172D01*
X210901D01*
X211480Y357049D01*
X212012Y357072D01*
X212451Y357118D01*
X212845Y357165D01*
X213169Y357211D01*
X213400Y357257D01*
X213470Y357281D01*
X213539Y357304D01*
X213585D01*
X213979Y357419D01*
X214349Y357558D01*
X214673Y357720D01*
X214951Y357882D01*
X215205Y358021D01*
X215367Y358114D01*
X215483Y358206D01*
X215529Y358229D01*
X215807Y358461D01*
X216038Y358692D01*
X216246Y358923D01*
X216408Y359155D01*
X216547Y359340D01*
X216663Y359502D01*
X216709Y359594D01*
X216732Y359641D01*
X216871Y359965D01*
X216987Y360312D01*
X217056Y360636D01*
X217126Y360937D01*
X217149Y361191D01*
X217172Y361399D01*
Y361584D01*
X217126Y362117D01*
X217033Y362603D01*
X216894Y363019D01*
X216732Y363343D01*
X216570Y363621D01*
X216432Y363829D01*
X216339Y363945D01*
X216293Y363991D01*
X215946Y364315D01*
X215575Y364569D01*
X215182Y364778D01*
X214812Y364940D01*
X214488Y365055D01*
X214210Y365148D01*
X214118Y365171D01*
X214048D01*
X214002Y365194D01*
X213979D01*
Y365287D01*
X214349Y365472D01*
X214673Y365680D01*
X214951Y365911D01*
X215182Y366120D01*
X215367Y366305D01*
X215483Y366444D01*
X215575Y366536D01*
X215599Y366583D01*
X215784Y366907D01*
X215923Y367230D01*
X216038Y367554D01*
X216108Y367855D01*
X216154Y368110D01*
X216177Y368295D01*
Y368434D01*
Y368480D01*
X216154Y368827D01*
X216108Y369151D01*
X216038Y369429D01*
X215969Y369660D01*
X215876Y369868D01*
X215807Y370030D01*
X215760Y370123D01*
X215737Y370146D01*
X215575Y370401D01*
X215367Y370632D01*
X215159Y370840D01*
X214951Y371002D01*
X214765Y371141D01*
X214627Y371234D01*
X214534Y371280D01*
X214488Y371303D01*
X214187Y371442D01*
X213886Y371558D01*
X213585Y371650D01*
X213354Y371720D01*
X213123Y371789D01*
X212961Y371812D01*
X212868Y371835D01*
X212822D01*
X212660Y371858D01*
X212475Y371881D01*
X212058Y371928D01*
X211618Y371951D01*
X211179D01*
X210786Y371974D01*
D02*
G37*
G36*
X196717D02*
X192251D01*
X186744Y357026D01*
X190631D01*
X191672Y360034D01*
X197180D01*
X198221Y357026D01*
X202247D01*
D01*
X196717Y371974D01*
D02*
G37*
G36*
X198221Y357026D02*
X197436D01*
X198221D01*
D01*
D02*
G37*
G36*
X186744Y371974D02*
Y357026D01*
D01*
Y371974D01*
D02*
G37*
%LPD*%
G36*
X253431Y370239D02*
X253709Y370146D01*
X253964Y370053D01*
X254172Y369915D01*
X254311Y369799D01*
X254426Y369683D01*
X254496Y369591D01*
X254519Y369568D01*
X254681Y369267D01*
X254797Y368943D01*
X254889Y368596D01*
X254935Y368249D01*
X254982Y367925D01*
X255005Y367670D01*
Y367578D01*
Y367508D01*
Y367462D01*
Y367439D01*
X254982Y366953D01*
X254935Y366513D01*
X254843Y366166D01*
X254774Y365865D01*
X254681Y365634D01*
X254588Y365495D01*
X254542Y365379D01*
X254519Y365356D01*
X254311Y365148D01*
X254102Y364986D01*
X253871Y364870D01*
X253640Y364801D01*
X253431Y364755D01*
X253269Y364708D01*
X253107D01*
X252760Y364731D01*
X252460Y364801D01*
X252228Y364916D01*
X252020Y365032D01*
X251858Y365148D01*
X251742Y365264D01*
X251673Y365333D01*
X251650Y365356D01*
X251488Y365634D01*
X251372Y365958D01*
X251303Y366305D01*
X251256Y366652D01*
X251210Y366953D01*
X251187Y367207D01*
Y367300D01*
Y367369D01*
Y367416D01*
Y367439D01*
X251210Y367948D01*
X251256Y368387D01*
X251326Y368735D01*
X251418Y369035D01*
X251511Y369267D01*
X251580Y369429D01*
X251626Y369544D01*
X251650Y369568D01*
X251835Y369799D01*
X252066Y369961D01*
X252298Y370100D01*
X252552Y370169D01*
X252760Y370215D01*
X252922Y370262D01*
X253084D01*
X253431Y370239D01*
D02*
G37*
G36*
X243111Y357026D02*
X237928Y357026D01*
Y367230D01*
X243111Y357026D01*
D02*
G37*
G36*
X210068Y369197D02*
X210323D01*
X210554Y369174D01*
X210739Y369151D01*
X210924Y369128D01*
X211086Y369105D01*
X211202Y369058D01*
X211295Y369035D01*
X211341Y369012D01*
X211364D01*
X211526Y368943D01*
X211665Y368850D01*
X211780Y368781D01*
X211873Y368688D01*
X211989Y368549D01*
X212035Y368503D01*
Y368480D01*
X212151Y368202D01*
X212197Y367971D01*
X212220Y367878D01*
Y367809D01*
Y367763D01*
Y367739D01*
X212197Y367392D01*
X212151Y367138D01*
X212104Y367022D01*
X212081Y366953D01*
X212058Y366907D01*
Y366883D01*
X211989Y366744D01*
X211873Y366629D01*
X211642Y366444D01*
X211549Y366374D01*
X211457Y366328D01*
X211387Y366282D01*
X211364D01*
X211225Y366236D01*
X211040Y366189D01*
X210716Y366120D01*
X210577D01*
X210462Y366097D01*
X210091D01*
X209837Y366073D01*
X208240D01*
Y369220D01*
X209883D01*
X210068Y369197D01*
D02*
G37*
G36*
X210415Y363459D02*
X210994D01*
X211248Y363436D01*
X211457Y363413D01*
X211618Y363389D01*
X211757Y363366D01*
X211873Y363343D01*
X211919Y363320D01*
X211943D01*
X212174Y363251D01*
X212382Y363158D01*
X212544Y363065D01*
X212660Y362973D01*
X212775Y362880D01*
X212845Y362811D01*
X212868Y362765D01*
X212891Y362741D01*
X212984Y362579D01*
X213053Y362417D01*
X213146Y362070D01*
Y361908D01*
X213169Y361770D01*
Y361677D01*
Y361654D01*
X213123Y361284D01*
X213099Y361122D01*
X213053Y360983D01*
X213007Y360867D01*
X212984Y360775D01*
X212938Y360728D01*
Y360705D01*
X212845Y360566D01*
X212706Y360428D01*
X212428Y360219D01*
X212313Y360127D01*
X212197Y360080D01*
X212128Y360057D01*
X212104Y360034D01*
X211873Y359941D01*
X211665Y359895D01*
X211433Y359849D01*
X211248Y359803D01*
X211063D01*
X210924Y359780D01*
X208240D01*
Y363482D01*
X210207D01*
X210415Y363459D01*
D02*
G37*
G36*
X196254Y362788D02*
X192598D01*
X194426Y368064D01*
X196254Y362788D01*
D02*
G37*
%LPC*%
G36*
X517303Y25124D02*
X513438D01*
Y19664D01*
X507746D01*
Y25124D01*
X503882D01*
Y10176D01*
X517303D01*
Y25124D01*
D02*
G37*
G36*
X564854Y25124D02*
X561314D01*
Y16540D01*
X555830Y25124D01*
X551225D01*
Y10176D01*
X564854D01*
Y25124D01*
D02*
G37*
G36*
X472806Y18275D02*
X465147D01*
Y15383D01*
X472806D01*
Y18275D01*
D02*
G37*
G36*
X346372Y25124D02*
X334640D01*
X334617Y24546D01*
Y24014D01*
X334594Y23528D01*
X334571Y23111D01*
Y22764D01*
Y22625D01*
X334548Y22510D01*
Y22417D01*
Y22348D01*
Y22325D01*
Y22301D01*
Y21862D01*
X334525Y21422D01*
Y21052D01*
X334502Y20705D01*
Y20427D01*
X334478Y20219D01*
Y20080D01*
Y20057D01*
Y20034D01*
X334455Y19548D01*
X334409Y19108D01*
X334386Y18669D01*
X334340Y18275D01*
X334316Y17905D01*
X334270Y17581D01*
X334224Y17280D01*
X334201Y17003D01*
X334155Y16748D01*
X334131Y16540D01*
X334108Y16355D01*
X334085Y16216D01*
X334062Y16100D01*
Y16007D01*
X334039Y15961D01*
Y15938D01*
X333923Y15429D01*
X333761Y14989D01*
X333599Y14619D01*
X333414Y14318D01*
X333252Y14110D01*
X333113Y13948D01*
X333021Y13832D01*
X332998Y13809D01*
X332836Y13717D01*
X332674Y13624D01*
X332558Y13601D01*
X332535Y13578D01*
X332512D01*
X332396Y13555D01*
X332257Y13532D01*
X332002Y13508D01*
X331401D01*
X331262Y13532D01*
X331077D01*
Y10176D01*
X331239D01*
X331470Y10153D01*
X331563D01*
X331655Y10130D01*
X331748D01*
X332141Y10107D01*
X332303D01*
X332465Y10084D01*
X331077D01*
D01*
X346372D01*
Y25124D01*
D02*
G37*
G36*
X416276Y25124D02*
X412412D01*
Y15799D01*
X412389Y15244D01*
X412296Y14758D01*
X412204Y14341D01*
X412065Y14017D01*
X411949Y13763D01*
X411833Y13578D01*
X411741Y13485D01*
X411718Y13439D01*
X411440Y13208D01*
X411093Y13023D01*
X410746Y12907D01*
X410399Y12814D01*
X410075Y12768D01*
X409820Y12745D01*
X409728Y12722D01*
X409589D01*
X409080Y12745D01*
X408640Y12837D01*
X408270Y12953D01*
X407969Y13092D01*
X407738Y13231D01*
X407576Y13347D01*
X407483Y13439D01*
X407460Y13462D01*
X407252Y13786D01*
X407090Y14156D01*
X406974Y14527D01*
X406905Y14920D01*
X406858Y15267D01*
X406812Y15545D01*
Y15660D01*
Y15730D01*
Y15776D01*
Y15799D01*
Y25124D01*
X402948D01*
Y15568D01*
X402971Y15059D01*
X403017Y14596D01*
X403110Y14156D01*
X403202Y13740D01*
X403341Y13370D01*
X403480Y13023D01*
X403619Y12699D01*
X403781Y12421D01*
X403943Y12166D01*
X404082Y11958D01*
X404221Y11773D01*
X404359Y11611D01*
X404452Y11495D01*
X404544Y11403D01*
X404591Y11357D01*
X404614Y11333D01*
X404938Y11079D01*
X405308Y10848D01*
X405701Y10662D01*
X406095Y10500D01*
X406511Y10361D01*
X406928Y10223D01*
X407738Y10061D01*
X408108Y9991D01*
X408455Y9945D01*
X408779Y9922D01*
X409057Y9899D01*
X409265Y9876D01*
X402948D01*
D01*
X416276D01*
Y25124D01*
D02*
G37*
G36*
X594426Y25124D02*
X581214D01*
Y22232D01*
X585888D01*
Y10176D01*
X581214D01*
X594426D01*
Y25124D01*
D02*
G37*
G36*
X579478D02*
X568649D01*
Y10176D01*
X579478D01*
Y25124D01*
D02*
G37*
G36*
X549559D02*
Y10176D01*
X544561Y16563D01*
X545070Y16841D01*
X545487Y17118D01*
X545880Y17419D01*
X546181Y17697D01*
X546412Y17928D01*
X546597Y18136D01*
X546690Y18252D01*
X546736Y18298D01*
X546991Y18715D01*
X547199Y19178D01*
X547338Y19617D01*
X547430Y20057D01*
X547477Y20427D01*
X547500Y20589D01*
X547523Y20728D01*
Y20844D01*
Y20936D01*
Y20982D01*
Y21006D01*
X547500Y21445D01*
X547453Y21816D01*
X547361Y22163D01*
X547268Y22464D01*
X547176Y22695D01*
X547083Y22857D01*
X547037Y22949D01*
X547014Y22996D01*
X546829Y23296D01*
X546597Y23551D01*
X546366Y23759D01*
X546158Y23967D01*
X545973Y24106D01*
X545811Y24222D01*
X545718Y24292D01*
X545672Y24315D01*
X545348Y24477D01*
X545047Y24615D01*
X544746Y24731D01*
X544468Y24824D01*
X544214Y24893D01*
X544029Y24939D01*
X543913Y24962D01*
X543867D01*
X543497Y25009D01*
X543103Y25055D01*
X542733Y25078D01*
X542386Y25101D01*
X542062Y25124D01*
X535143D01*
Y10176D01*
X549559D01*
Y25124D01*
D02*
G37*
G36*
X531927D02*
X521098Y25124D01*
Y10176D01*
X531927Y10176D01*
Y25124D01*
D02*
G37*
G36*
X501591Y25124D02*
X488379D01*
Y22232D01*
X493053D01*
Y10176D01*
X488379D01*
X501591D01*
Y25124D01*
D02*
G37*
G36*
X486643D02*
X475814D01*
Y10176D01*
X486643D01*
Y25124D01*
D02*
G37*
G36*
X463643D02*
X450430D01*
Y22232D01*
X455104D01*
Y10176D01*
X450430D01*
X463643D01*
Y25124D01*
D02*
G37*
G36*
X450245D02*
Y10176D01*
X445247Y16563D01*
X445756Y16841D01*
X446172Y17118D01*
X446566Y17419D01*
X446866Y17697D01*
X447098Y17928D01*
X447283Y18136D01*
X447376Y18252D01*
X447422Y18298D01*
X447676Y18715D01*
X447885Y19178D01*
X448023Y19617D01*
X448116Y20057D01*
X448162Y20427D01*
X448185Y20589D01*
X448209Y20728D01*
Y20844D01*
Y20936D01*
Y20982D01*
Y21006D01*
X448185Y21445D01*
X448139Y21816D01*
X448047Y22163D01*
X447954Y22463D01*
X447862Y22695D01*
X447769Y22857D01*
X447723Y22949D01*
X447700Y22996D01*
X447514Y23296D01*
X447283Y23551D01*
X447052Y23759D01*
X446843Y23967D01*
X446658Y24106D01*
X446496Y24222D01*
X446404Y24291D01*
X446357Y24315D01*
X446034Y24477D01*
X445733Y24615D01*
X445432Y24731D01*
X445154Y24824D01*
X444900Y24893D01*
X444715Y24939D01*
X444599Y24962D01*
X444553D01*
X444182Y25009D01*
X443789Y25055D01*
X443419Y25078D01*
X443072Y25101D01*
X442748Y25124D01*
X450245D01*
X435829D01*
Y10176D01*
X439693D01*
Y15660D01*
X441429D01*
X445501Y10176D01*
X450245D01*
Y25124D01*
D02*
G37*
G36*
X433700D02*
Y10176D01*
X428170Y25124D01*
X423704D01*
X418197Y10176D01*
D01*
X422084D01*
X423125Y13184D01*
X428633D01*
X429674Y10176D01*
X433700D01*
Y25124D01*
D02*
G37*
G36*
X429674Y10176D02*
X428889D01*
X429674D01*
D01*
D02*
G37*
G36*
X393993Y25124D02*
Y10176D01*
X388463Y25124D01*
X383997D01*
X378490Y10176D01*
D01*
X393993Y10176D01*
Y25124D01*
D02*
G37*
G36*
X377865Y25124D02*
X364652D01*
Y22232D01*
X369326D01*
Y10176D01*
X364652D01*
D01*
X377865D01*
Y25124D01*
D02*
G37*
G36*
X364004D02*
Y10176D01*
X358474Y25124D01*
X354008D01*
X348501Y10176D01*
D01*
X364004D01*
Y25124D01*
D02*
G37*
G36*
X328994D02*
X315574D01*
Y10176D01*
X322284D01*
X319438D01*
Y22232D01*
X325130D01*
Y10176D01*
X328994D01*
Y25124D01*
D02*
G37*
%LPD*%
G36*
X513438Y10176D02*
X507746D01*
Y16771D01*
X513438D01*
Y10176D01*
D02*
G37*
G36*
X561129Y10176D02*
X554766D01*
Y20427D01*
X561129Y10176D01*
D02*
G37*
G36*
X342508Y10176D02*
X346372D01*
Y10084D01*
X332789D01*
X333090Y10107D01*
X333391Y10130D01*
X333645Y10176D01*
X333877Y10223D01*
X334062Y10269D01*
X334224Y10315D01*
X334316Y10361D01*
X334340D01*
X334594Y10477D01*
X334849Y10593D01*
X335057Y10709D01*
X335242Y10847D01*
X335381Y10940D01*
X335473Y11033D01*
X335543Y11079D01*
X335566Y11102D01*
X335844Y11403D01*
X336098Y11704D01*
X336191Y11842D01*
X336260Y11935D01*
X336306Y12004D01*
X336330Y12027D01*
X336468Y12259D01*
X336607Y12514D01*
X336723Y12745D01*
X336839Y12976D01*
X336931Y13184D01*
X337001Y13370D01*
X337024Y13462D01*
X337047Y13508D01*
X337163Y13856D01*
X337278Y14249D01*
X337394Y14619D01*
X337486Y14989D01*
X337556Y15290D01*
X337602Y15545D01*
X337625Y15637D01*
X337649Y15707D01*
Y15753D01*
Y15776D01*
X337741Y16331D01*
X337834Y16887D01*
X337903Y17465D01*
X337949Y18021D01*
X337972Y18252D01*
X337996Y18483D01*
X338019Y18692D01*
Y18854D01*
Y19016D01*
X338042Y19108D01*
Y19178D01*
Y19201D01*
X338065Y19525D01*
X338088Y19802D01*
X338111Y20057D01*
Y20265D01*
X338134Y20427D01*
Y20566D01*
Y20635D01*
Y20659D01*
Y20890D01*
X338158Y21144D01*
X338181Y21422D01*
Y21653D01*
X338204Y21885D01*
X338227Y22070D01*
Y22186D01*
Y22232D01*
X342508D01*
Y10176D01*
D02*
G37*
G36*
X416276Y9876D02*
X409589D01*
X410191Y9899D01*
X410746Y9945D01*
X411278Y10014D01*
X411764Y10107D01*
X412204Y10223D01*
X412597Y10338D01*
X412967Y10477D01*
X413314Y10616D01*
X413592Y10732D01*
X413847Y10871D01*
X414078Y10986D01*
X414240Y11102D01*
X414379Y11194D01*
X414495Y11264D01*
X414541Y11310D01*
X414564Y11333D01*
X414865Y11634D01*
X415119Y11935D01*
X415351Y12282D01*
X415559Y12629D01*
X415721Y12976D01*
X415860Y13323D01*
X415975Y13671D01*
X416068Y14017D01*
X416137Y14341D01*
X416184Y14642D01*
X416230Y14897D01*
X416253Y15128D01*
X416276Y15337D01*
Y9876D01*
D02*
G37*
G36*
X594426Y10176D02*
X589752D01*
Y22232D01*
X594426D01*
Y10176D01*
D02*
G37*
G36*
X579478Y13069D02*
X572513D01*
Y16771D01*
X578969D01*
Y19664D01*
X572513D01*
Y22232D01*
X579478D01*
Y13069D01*
D02*
G37*
G36*
X541067Y22348D02*
X541368D01*
X541483Y22325D01*
X541576D01*
X541946Y22278D01*
X542108Y22255D01*
X542247Y22209D01*
X542340Y22186D01*
X542432Y22163D01*
X542478Y22139D01*
X542502D01*
X542687Y22047D01*
X542849Y21931D01*
X542988Y21839D01*
X543103Y21723D01*
X543196Y21630D01*
X543242Y21561D01*
X543288Y21515D01*
Y21492D01*
X543427Y21168D01*
X543497Y20867D01*
X543520Y20751D01*
Y20635D01*
Y20566D01*
Y20543D01*
Y20312D01*
X543497Y20126D01*
X543474Y19941D01*
X543427Y19802D01*
X543404Y19687D01*
X543358Y19594D01*
X543335Y19548D01*
Y19525D01*
X543173Y19270D01*
X542964Y19062D01*
X542872Y18969D01*
X542802Y18900D01*
X542756Y18877D01*
X542733Y18854D01*
X542386Y18645D01*
X542062Y18530D01*
X541923Y18484D01*
X541808Y18460D01*
X541715Y18437D01*
X541692D01*
X541460Y18414D01*
X541206Y18391D01*
X540951D01*
X540697Y18368D01*
X539008D01*
Y22371D01*
X540859D01*
X541067Y22348D01*
D02*
G37*
G36*
X544816Y10176D02*
X539008D01*
Y15661D01*
X540743D01*
X544816Y10176D01*
D02*
G37*
G36*
X531927Y13069D02*
X524962Y13069D01*
Y16771D01*
X531418Y16771D01*
Y19664D01*
X524962Y19664D01*
Y22232D01*
X531927Y22232D01*
Y13069D01*
D02*
G37*
G36*
X501591Y10176D02*
X496917D01*
Y22232D01*
X501591D01*
Y10176D01*
D02*
G37*
G36*
X486643Y13069D02*
X479678D01*
Y16771D01*
X486134D01*
Y19664D01*
X479678D01*
Y22232D01*
X486643D01*
Y13069D01*
D02*
G37*
G36*
X463643Y10176D02*
X458968D01*
Y22232D01*
X463643D01*
Y10176D01*
D02*
G37*
G36*
X441753Y22348D02*
X442053D01*
X442169Y22325D01*
X442262D01*
X442632Y22278D01*
X442794Y22255D01*
X442933Y22209D01*
X443025Y22186D01*
X443118Y22163D01*
X443164Y22139D01*
X443187D01*
X443372Y22047D01*
X443534Y21931D01*
X443673Y21839D01*
X443789Y21723D01*
X443881Y21630D01*
X443928Y21561D01*
X443974Y21515D01*
Y21492D01*
X444113Y21168D01*
X444182Y20867D01*
X444206Y20751D01*
Y20635D01*
Y20566D01*
Y20543D01*
Y20312D01*
X444182Y20126D01*
X444159Y19941D01*
X444113Y19802D01*
X444090Y19687D01*
X444044Y19594D01*
X444020Y19548D01*
Y19525D01*
X443858Y19270D01*
X443650Y19062D01*
X443558Y18969D01*
X443488Y18900D01*
X443442Y18877D01*
X443419Y18854D01*
X443072Y18645D01*
X442748Y18530D01*
X442609Y18484D01*
X442493Y18460D01*
X442401Y18437D01*
X442377D01*
X442146Y18414D01*
X441892Y18391D01*
X441637D01*
X441382Y18368D01*
X439693D01*
Y22371D01*
X441544D01*
X441753Y22348D01*
D02*
G37*
G36*
X427707Y15938D02*
X424051D01*
X425879Y21214D01*
X427707Y15938D01*
D02*
G37*
G36*
X388000D02*
X384344D01*
X386172Y21214D01*
X388000Y15938D01*
D02*
G37*
G36*
X389967Y10176D02*
X382377Y10176D01*
X383418Y13184D01*
X388925D01*
X389967Y10176D01*
D02*
G37*
G36*
X377865Y10176D02*
X373191D01*
Y22232D01*
X377865D01*
Y10176D01*
D02*
G37*
G36*
X358011Y15938D02*
X354355D01*
X356183Y21214D01*
X358011Y15938D01*
D02*
G37*
G36*
X359978Y10176D02*
X352388D01*
X353430Y13184D01*
X358937D01*
X359978Y10176D01*
D02*
G37*
%LPC*%
G36*
X614183Y151474D02*
X607472D01*
X610318D01*
Y146013D01*
X604626D01*
Y151474D01*
X600762D01*
Y136526D01*
X607472D01*
X604626D01*
Y143121D01*
X610318D01*
Y136526D01*
X614183D01*
Y151474D01*
D02*
G37*
G36*
X691306Y151474D02*
X678094D01*
Y148582D01*
X682768D01*
Y136526D01*
X686945D01*
X686632D01*
Y148582D01*
X691306D01*
Y143121D01*
Y148582D01*
Y151474D01*
D02*
G37*
G36*
X676358D02*
X665529D01*
Y136526D01*
X676358D01*
Y151474D01*
D02*
G37*
G36*
X661734D02*
X648105D01*
Y136526D01*
X656608D01*
X651645D01*
Y146777D01*
X658009Y136526D01*
X661734D01*
Y151474D01*
D02*
G37*
G36*
X646439D02*
D01*
Y136526D01*
X641441Y142913D01*
X641950Y143190D01*
X642366Y143468D01*
X642760Y143769D01*
X643061Y144046D01*
X643292Y144278D01*
X643477Y144486D01*
X643570Y144602D01*
X643616Y144648D01*
X643870Y145064D01*
X644079Y145527D01*
X644218Y145967D01*
X644310Y146406D01*
X644356Y146777D01*
X644380Y146939D01*
X644403Y147078D01*
Y147193D01*
Y147286D01*
Y147332D01*
Y147355D01*
X644380Y147795D01*
X644333Y148165D01*
X644241Y148512D01*
X644148Y148813D01*
X644056Y149044D01*
X643963Y149206D01*
X643917Y149299D01*
X643894Y149345D01*
X643708Y149646D01*
X643477Y149901D01*
X643246Y150109D01*
X643037Y150317D01*
X642852Y150456D01*
X642690Y150572D01*
X642598Y150641D01*
X642552Y150664D01*
X642228Y150826D01*
X641927Y150965D01*
X641626Y151081D01*
X641348Y151173D01*
X641094Y151243D01*
X640909Y151289D01*
X640793Y151312D01*
X640747D01*
X640377Y151358D01*
X639983Y151405D01*
X639613Y151428D01*
X639266Y151451D01*
X638942Y151474D01*
X646439Y151474D01*
X632023Y151474D01*
Y136526D01*
X635887D01*
Y142010D01*
X637623D01*
X641695Y136526D01*
X646439D01*
Y151474D01*
D02*
G37*
G36*
X628807Y151474D02*
X617977D01*
Y136526D01*
X628807D01*
Y151474D01*
D02*
G37*
G36*
X598471D02*
X585258D01*
Y148582D01*
X589933D01*
Y136526D01*
X585258D01*
X598471D01*
Y151474D01*
D02*
G37*
G36*
X583523D02*
X572694D01*
Y136526D01*
X583523D01*
Y151474D01*
D02*
G37*
%LPD*%
G36*
X676358Y139418D02*
X669393D01*
Y143121D01*
X675849D01*
Y146013D01*
X669393D01*
Y148582D01*
X676358D01*
Y139418D01*
D02*
G37*
G36*
X658194Y142889D02*
X652710Y151474D01*
X658194D01*
Y142889D01*
D02*
G37*
G36*
X637947Y148697D02*
X638248D01*
X638363Y148674D01*
X638456D01*
X638826Y148628D01*
X638988Y148605D01*
X639127Y148559D01*
X639220Y148535D01*
X639312Y148512D01*
X639358Y148489D01*
X639381D01*
X639567Y148397D01*
X639729Y148281D01*
X639867Y148188D01*
X639983Y148073D01*
X640076Y147980D01*
X640122Y147911D01*
X640168Y147864D01*
Y147841D01*
X640307Y147517D01*
X640377Y147216D01*
X640400Y147101D01*
Y146985D01*
Y146916D01*
Y146892D01*
Y146661D01*
X640377Y146476D01*
X640353Y146291D01*
X640307Y146152D01*
X640284Y146036D01*
X640238Y145944D01*
X640214Y145897D01*
Y145874D01*
X640052Y145620D01*
X639844Y145412D01*
X639752Y145319D01*
X639682Y145250D01*
X639636Y145226D01*
X639613Y145203D01*
X639266Y144995D01*
X638942Y144879D01*
X638803Y144833D01*
X638687Y144810D01*
X638595Y144787D01*
X638572D01*
X638340Y144764D01*
X638086Y144740D01*
X637831D01*
X637577Y144717D01*
X635887D01*
Y148720D01*
X637739D01*
X637947Y148697D01*
D02*
G37*
G36*
X628807Y139418D02*
X621842D01*
Y143121D01*
X628298D01*
Y146013D01*
X621842D01*
Y148582D01*
X628807D01*
Y139418D01*
D02*
G37*
G36*
X598471Y136526D02*
X593797D01*
Y148582D01*
X598471D01*
Y136526D01*
D02*
G37*
G36*
X583523Y139418D02*
X576558D01*
Y143121D01*
X583014D01*
Y146013D01*
X576558D01*
Y148582D01*
X583523D01*
Y139418D01*
D02*
G37*
%LPC*%
G36*
X414849Y461763D02*
X402053D01*
X408833D01*
X408301Y461740D01*
X407769Y461717D01*
X407283Y461648D01*
X406820Y461555D01*
X406403Y461463D01*
X406010Y461347D01*
X405640Y461208D01*
X405316Y461092D01*
X405015Y460976D01*
X404737Y460838D01*
X404529Y460722D01*
X404344Y460630D01*
X404182Y460537D01*
X404089Y460491D01*
X404020Y460444D01*
X403997Y460421D01*
X403673Y460167D01*
X403395Y459889D01*
X403141Y459611D01*
X402933Y459334D01*
X402747Y459056D01*
X402608Y458755D01*
X402470Y458501D01*
X402377Y458223D01*
X402308Y457968D01*
X402238Y457760D01*
X402192Y457552D01*
X402169Y457367D01*
Y457228D01*
X402146Y457112D01*
Y457043D01*
Y457020D01*
X402192Y456464D01*
X402285Y455955D01*
X402400Y455493D01*
X402562Y455122D01*
X402701Y454798D01*
X402840Y454567D01*
X402886Y454497D01*
X402933Y454428D01*
X402956Y454405D01*
Y454382D01*
X403118Y454197D01*
X403303Y454012D01*
X403742Y453688D01*
X404182Y453410D01*
X404645Y453179D01*
X405038Y452994D01*
X405223Y452901D01*
X405385Y452855D01*
X405501Y452808D01*
X405593Y452762D01*
X405663Y452739D01*
X405686D01*
X406311Y452554D01*
X406612Y452461D01*
X406889Y452415D01*
X407098Y452346D01*
X407283Y452299D01*
X407398Y452276D01*
X407445D01*
X407792Y452207D01*
X408139Y452160D01*
X408440Y452091D01*
X408694Y452022D01*
X408926Y451975D01*
X409111Y451952D01*
X409203Y451906D01*
X409249D01*
X409527Y451837D01*
X409782Y451744D01*
X409967Y451651D01*
X410152Y451559D01*
X410291Y451489D01*
X410383Y451420D01*
X410430Y451374D01*
X410453Y451351D01*
X410592Y451212D01*
X410707Y451073D01*
X410777Y450934D01*
X410846Y450795D01*
X410869Y450680D01*
X410892Y450610D01*
Y450541D01*
Y450518D01*
X410869Y450332D01*
X410846Y450170D01*
X410800Y450032D01*
X410754Y449916D01*
X410684Y449823D01*
X410638Y449754D01*
X410615Y449731D01*
X410592Y449708D01*
X410360Y449523D01*
X410129Y449384D01*
X410036Y449314D01*
X409944Y449268D01*
X409897Y449245D01*
X409874D01*
X409574Y449152D01*
X409273Y449083D01*
X409134Y449060D01*
X409018D01*
X408949Y449037D01*
X408926D01*
X408717Y449013D01*
X408370D01*
X408255Y448990D01*
X408000D01*
X407491Y449013D01*
X406982Y449060D01*
X406496Y449152D01*
X406056Y449245D01*
X405686Y449337D01*
X405547Y449384D01*
X405408Y449430D01*
X405293Y449453D01*
X405223Y449476D01*
X405177Y449499D01*
X405154D01*
X404622Y449708D01*
X404113Y449939D01*
X403650Y450194D01*
X403256Y450425D01*
X402933Y450656D01*
X402678Y450818D01*
X402585Y450888D01*
X402516Y450934D01*
X402493Y450980D01*
X402053D01*
Y446237D01*
Y447371D01*
X402956Y447047D01*
X403395Y446908D01*
X403789Y446792D01*
X404136Y446699D01*
X404390Y446630D01*
X404483Y446584D01*
X404552D01*
X404599Y446561D01*
X404622D01*
X405154Y446445D01*
X405709Y446376D01*
X406264Y446306D01*
X406774Y446283D01*
X407213Y446260D01*
X407398Y446237D01*
X407861D01*
X408440Y446260D01*
X408995Y446306D01*
X409527Y446352D01*
X410013Y446445D01*
X410476Y446561D01*
X410892Y446676D01*
X411263Y446792D01*
X411610Y446931D01*
X411911Y447047D01*
X412188Y447162D01*
X412420Y447278D01*
X412605Y447394D01*
X412767Y447486D01*
X412859Y447533D01*
X412929Y447579D01*
X412952Y447602D01*
X413276Y447880D01*
X413577Y448157D01*
X413831Y448458D01*
X414039Y448759D01*
X414225Y449060D01*
X414386Y449361D01*
X414502Y449638D01*
X414618Y449939D01*
X414687Y450194D01*
X414757Y450425D01*
X414803Y450656D01*
X414826Y450841D01*
Y451003D01*
X414849Y451119D01*
Y446514D01*
Y451351D01*
Y451212D01*
X414803Y451767D01*
X414710Y452253D01*
X414595Y452693D01*
X414433Y453063D01*
X414271Y453340D01*
X414155Y453549D01*
X414062Y453688D01*
X414016Y453734D01*
X413669Y454081D01*
X413276Y454382D01*
X412859Y454636D01*
X412443Y454868D01*
X412072Y455030D01*
X411887Y455099D01*
X411749Y455169D01*
X411633Y455215D01*
X411540Y455238D01*
X411494Y455261D01*
X411471D01*
X411147Y455354D01*
X410846Y455446D01*
X410569Y455516D01*
X410314Y455585D01*
X410106Y455631D01*
X409967Y455678D01*
X409874Y455701D01*
X409828D01*
X409273Y455816D01*
X408995Y455886D01*
X408764Y455932D01*
X408555Y455978D01*
X408393Y456025D01*
X408301Y456048D01*
X408255D01*
X407815Y456140D01*
X407468Y456233D01*
X407167Y456325D01*
X406936Y456418D01*
X406750Y456488D01*
X406635Y456557D01*
X406565Y456580D01*
X406542Y456603D01*
X406403Y456742D01*
X406288Y456881D01*
X406218Y457043D01*
X406149Y457182D01*
X406126Y457321D01*
X406103Y457436D01*
Y457506D01*
Y457529D01*
X406126Y457668D01*
X406149Y457807D01*
X406241Y458015D01*
X406288Y458107D01*
X406334Y458177D01*
X406380Y458200D01*
Y458223D01*
X406612Y458431D01*
X406820Y458570D01*
X406912Y458616D01*
X406982Y458663D01*
X407028Y458686D01*
X407051D01*
X407375Y458801D01*
X407676Y458894D01*
X407792Y458917D01*
X407884D01*
X407931Y458940D01*
X407954D01*
X408301Y458987D01*
X408625Y459010D01*
X408926D01*
X409435Y458987D01*
X409921Y458940D01*
X410383Y458848D01*
X410777Y458778D01*
X411124Y458686D01*
X411263Y458639D01*
X411378Y458593D01*
X411471Y458570D01*
X411540Y458547D01*
X411587Y458524D01*
X411610D01*
X412096Y458339D01*
X412512Y458130D01*
X412882Y457922D01*
X413206Y457737D01*
X413484Y457575D01*
X413669Y457436D01*
X413785Y457344D01*
X413831Y457321D01*
X414248D01*
Y460745D01*
X413831Y460907D01*
X413415Y461046D01*
X412975Y461162D01*
X412582Y461277D01*
X412234Y461347D01*
X412096Y461393D01*
X411980Y461416D01*
X411864Y461439D01*
X411795D01*
X411749Y461463D01*
X411725D01*
X411193Y461555D01*
X410661Y461648D01*
X410175Y461694D01*
X409735Y461717D01*
X409365Y461740D01*
X409226Y461763D01*
X414849D01*
D02*
G37*
G36*
D02*
D01*
Y451975D01*
Y461763D01*
D02*
G37*
G36*
X443264Y461463D02*
X430052Y461463D01*
Y458570D01*
X434726D01*
Y446514D01*
X430052D01*
D01*
X443264Y446514D01*
Y461463D01*
D02*
G37*
G36*
X428316Y461463D02*
X417487D01*
Y446514D01*
X428316D01*
Y461463D01*
D02*
G37*
G36*
X399647D02*
X388817D01*
Y446514D01*
X399647D01*
Y461463D01*
D02*
G37*
G36*
X387151D02*
D01*
Y446514D01*
X382153Y452901D01*
X382662Y453179D01*
X383079Y453456D01*
X383472Y453757D01*
X383773Y454035D01*
X384004Y454266D01*
X384190Y454474D01*
X384282Y454590D01*
X384328Y454636D01*
X384583Y455053D01*
X384791Y455516D01*
X384930Y455955D01*
X385023Y456395D01*
X385069Y456765D01*
X385092Y456927D01*
X385115Y457066D01*
Y457182D01*
Y457274D01*
Y457321D01*
Y457344D01*
X385092Y457783D01*
X385046Y458153D01*
X384953Y458501D01*
X384861Y458801D01*
X384768Y459033D01*
X384675Y459195D01*
X384629Y459287D01*
X384606Y459334D01*
X384421Y459635D01*
X384190Y459889D01*
X383958Y460097D01*
X383750Y460305D01*
X383565Y460444D01*
X383403Y460560D01*
X383310Y460630D01*
X383264Y460653D01*
X382940Y460815D01*
X382639Y460953D01*
X382338Y461069D01*
X382061Y461162D01*
X381806Y461231D01*
X381621Y461277D01*
X381505Y461301D01*
X381459D01*
X381089Y461347D01*
X380695Y461393D01*
X380325Y461416D01*
X379978Y461439D01*
X379654Y461463D01*
X372736D01*
Y446514D01*
X376600D01*
Y451998D01*
X378335D01*
X382408Y446514D01*
X387151D01*
Y461463D01*
D02*
G37*
%LPD*%
G36*
X443264Y446514D02*
X438590Y446514D01*
Y458570D01*
X443264Y458570D01*
Y446514D01*
D02*
G37*
G36*
X428316Y449407D02*
X421351D01*
Y453109D01*
X427807D01*
Y456002D01*
X421351D01*
Y458570D01*
X428316D01*
Y449407D01*
D02*
G37*
G36*
X399647D02*
X392682D01*
Y453109D01*
X399138D01*
Y456002D01*
X392682D01*
Y458570D01*
X399647D01*
Y449407D01*
D02*
G37*
G36*
X378659Y458686D02*
X378960D01*
X379076Y458663D01*
X379168D01*
X379538Y458616D01*
X379701Y458593D01*
X379839Y458547D01*
X379932Y458524D01*
X380024Y458501D01*
X380071Y458478D01*
X380094D01*
X380279Y458385D01*
X380441Y458269D01*
X380580Y458177D01*
X380695Y458061D01*
X380788Y457968D01*
X380834Y457899D01*
X380881Y457853D01*
Y457830D01*
X381020Y457506D01*
X381089Y457205D01*
X381112Y457089D01*
Y456973D01*
Y456904D01*
Y456881D01*
Y456650D01*
X381089Y456464D01*
X381066Y456279D01*
X381020Y456140D01*
X380996Y456025D01*
X380950Y455932D01*
X380927Y455886D01*
Y455863D01*
X380765Y455608D01*
X380557Y455400D01*
X380464Y455307D01*
X380395Y455238D01*
X380348Y455215D01*
X380325Y455192D01*
X379978Y454983D01*
X379654Y454868D01*
X379515Y454822D01*
X379400Y454798D01*
X379307Y454775D01*
X379284D01*
X379053Y454752D01*
X378798Y454729D01*
X378544D01*
X378289Y454706D01*
X376600D01*
Y458709D01*
X378451D01*
X378659Y458686D01*
D02*
G37*
%LPC*%
G36*
X520543Y468474D02*
X516193D01*
X512976Y463800D01*
X509853Y468474D01*
X512822D01*
X505410D01*
X510593Y461046D01*
X505294Y453526D01*
X509529D01*
X512838Y458432D01*
X516054Y453526D01*
X520543D01*
X515221Y461208D01*
X520474Y468474D01*
X520543D01*
D02*
G37*
G36*
X504669D02*
X491457D01*
Y453526D01*
Y465582D01*
X496131D01*
Y453526D01*
X500308D01*
X499995D01*
Y465582D01*
X504669D01*
Y468474D01*
D02*
G37*
G36*
X190916Y41775D02*
X190685D01*
X190153Y41752D01*
X189620Y41729D01*
X189135Y41682D01*
X188695Y41613D01*
X188348Y41543D01*
X188186Y41520D01*
X188070Y41497D01*
X187954Y41474D01*
X187885D01*
X187839Y41451D01*
X187815D01*
X187306Y41335D01*
X186867Y41220D01*
X186497Y41127D01*
X186173Y41034D01*
X185918Y40942D01*
X185733Y40872D01*
X185640Y40849D01*
X185594Y40826D01*
Y37587D01*
X185964D01*
X186358Y37795D01*
X186728Y37980D01*
X187075Y38142D01*
X187422Y38281D01*
X187700Y38373D01*
X187908Y38443D01*
X188047Y38489D01*
X188070Y38512D01*
X188093D01*
X188510Y38628D01*
X188880Y38697D01*
X189227Y38767D01*
X189551Y38790D01*
X189806Y38813D01*
X189991Y38836D01*
X190453D01*
X190754Y38813D01*
X190870Y38790D01*
X190963D01*
X191032Y38767D01*
X191055D01*
X191425Y38697D01*
X191587Y38674D01*
X191726Y38628D01*
X191819Y38582D01*
X191911Y38558D01*
X191957Y38535D01*
X191981D01*
X192235Y38396D01*
X192420Y38258D01*
X192536Y38142D01*
X192582Y38119D01*
Y38096D01*
X192721Y37864D01*
X192791Y37633D01*
X192814Y37540D01*
Y37448D01*
Y37401D01*
Y37378D01*
Y37170D01*
X192767Y36985D01*
X192744Y36823D01*
X192698Y36684D01*
X192652Y36592D01*
X192628Y36522D01*
X192582Y36476D01*
Y36453D01*
X192374Y36244D01*
X192166Y36106D01*
X192073Y36036D01*
X191981Y35990D01*
X191934Y35967D01*
X191911D01*
X191587Y35851D01*
X191240Y35782D01*
X191101Y35759D01*
X190986Y35735D01*
X190893D01*
X190430Y35712D01*
X190199D01*
X189967Y35689D01*
X188648D01*
Y33028D01*
X190338D01*
X190500Y33005D01*
X190754D01*
X191009Y32982D01*
X191240Y32959D01*
X191425Y32936D01*
X191610Y32912D01*
X191749Y32866D01*
X191842Y32843D01*
X191911Y32820D01*
X191934D01*
X192258Y32681D01*
X192513Y32519D01*
X192605Y32427D01*
X192675Y32380D01*
X192698Y32334D01*
X192721Y32311D01*
X192837Y32172D01*
X192906Y32010D01*
X192999Y31686D01*
X193022Y31547D01*
X193045Y31432D01*
Y31339D01*
Y31316D01*
Y31061D01*
X192999Y30853D01*
X192976Y30691D01*
X192929Y30529D01*
X192883Y30413D01*
X192860Y30344D01*
X192814Y30298D01*
Y30275D01*
X192628Y30043D01*
X192420Y29835D01*
X192281Y29719D01*
X192235Y29696D01*
X192212Y29673D01*
X191842Y29465D01*
X191472Y29349D01*
X191310Y29303D01*
X191171Y29279D01*
X191078Y29256D01*
X191055D01*
X190569Y29210D01*
X190361Y29187D01*
X190176D01*
X190014Y29164D01*
X189806D01*
X189435Y29187D01*
X189042Y29233D01*
X188672Y29279D01*
X188325Y29349D01*
X188047Y29418D01*
X187815Y29488D01*
X187723Y29511D01*
X187654D01*
X187630Y29534D01*
X187607D01*
X187168Y29696D01*
X186774Y29835D01*
X186427Y29997D01*
X186126Y30136D01*
X185872Y30275D01*
X185687Y30367D01*
X185571Y30436D01*
X185525Y30460D01*
X185154D01*
Y41775D01*
D01*
D01*
Y26225D01*
Y27151D01*
X185478Y27035D01*
X185849Y26896D01*
X186196Y26804D01*
X186543Y26711D01*
X186844Y26642D01*
X187098Y26572D01*
X187191Y26549D01*
X187260D01*
X187283Y26526D01*
X187306D01*
X187839Y26433D01*
X188371Y26364D01*
X188903Y26295D01*
X189412Y26271D01*
X189852Y26248D01*
X190037Y26225D01*
X185154D01*
X196956D01*
X190500D01*
X191078Y26248D01*
X191610Y26271D01*
X192073Y26318D01*
X192490Y26387D01*
X192814Y26456D01*
X193045Y26503D01*
X193138Y26526D01*
X193207D01*
X193230Y26549D01*
X193253D01*
X193670Y26688D01*
X194063Y26850D01*
X194387Y27012D01*
X194688Y27174D01*
X194919Y27313D01*
X195104Y27428D01*
X195197Y27498D01*
X195243Y27521D01*
X195544Y27775D01*
X195799Y28030D01*
X196030Y28308D01*
X196192Y28539D01*
X196331Y28747D01*
X196446Y28932D01*
X196493Y29025D01*
X196516Y29071D01*
X196655Y29418D01*
X196770Y29766D01*
X196840Y30113D01*
X196909Y30413D01*
X196932Y30668D01*
X196956Y30876D01*
Y31061D01*
X196932Y31385D01*
X196909Y31686D01*
X196863Y31941D01*
X196817Y32149D01*
X196747Y32311D01*
X196701Y32450D01*
X196678Y32519D01*
X196655Y32542D01*
X196400Y32936D01*
X196285Y33121D01*
X196146Y33259D01*
X196030Y33375D01*
X195961Y33468D01*
X195891Y33514D01*
X195868Y33537D01*
X195521Y33792D01*
X195174Y33977D01*
X195035Y34046D01*
X194919Y34093D01*
X194850Y34139D01*
X194827D01*
X194410Y34278D01*
X194225Y34324D01*
X194063Y34347D01*
X193924Y34393D01*
X193832D01*
X193762Y34416D01*
X193739D01*
Y34578D01*
X194202Y34694D01*
X194595Y34879D01*
X194942Y35087D01*
X195243Y35296D01*
X195475Y35481D01*
X195637Y35643D01*
X195752Y35759D01*
X195776Y35805D01*
X196030Y36198D01*
X196238Y36569D01*
X196377Y36939D01*
X196470Y37286D01*
X196516Y37587D01*
X196562Y37818D01*
Y37910D01*
Y37980D01*
Y38003D01*
Y38026D01*
X196539Y38373D01*
X196493Y38674D01*
X196423Y38975D01*
X196354Y39206D01*
X196285Y39392D01*
X196215Y39553D01*
X196169Y39646D01*
X196146Y39669D01*
X195984Y39924D01*
X195799Y40155D01*
X195590Y40363D01*
X195382Y40525D01*
X195197Y40664D01*
X195058Y40780D01*
X194966Y40849D01*
X194919Y40872D01*
X194642Y41011D01*
X194364Y41150D01*
X194063Y41243D01*
X193785Y41335D01*
X193531Y41428D01*
X193346Y41474D01*
X193207Y41520D01*
X193161D01*
X192744Y41613D01*
X192328Y41659D01*
X191911Y41705D01*
X191518Y41752D01*
X191194D01*
X190916Y41775D01*
D02*
G37*
G36*
X235899Y41474D02*
X220650D01*
X226111Y26526D01*
X235899D01*
X230415D01*
X235899Y41474D01*
D02*
G37*
G36*
X203944Y30483D02*
X200195D01*
Y26526D01*
X203944D01*
Y30483D01*
D02*
G37*
G36*
X176199Y39854D02*
X168101D01*
X173446D01*
Y34532D01*
X168101D01*
Y26503D01*
Y31825D01*
X173446D01*
Y26503D01*
X181545D01*
X176199D01*
Y31825D01*
X181545D01*
Y34578D01*
Y34532D01*
X176199D01*
Y39854D01*
D02*
G37*
G36*
X219007Y41775D02*
X207206D01*
Y26225D01*
Y27151D01*
X207530Y27035D01*
X207901Y26896D01*
X208248Y26804D01*
X208595Y26711D01*
X208895Y26642D01*
X209150Y26572D01*
X209243Y26549D01*
X209312D01*
X209335Y26526D01*
X209358D01*
X209890Y26433D01*
X210423Y26364D01*
X210955Y26295D01*
X211464Y26271D01*
X211904Y26248D01*
X212089Y26225D01*
X212551D01*
X213130Y26248D01*
X213662Y26271D01*
X214125Y26318D01*
X214541Y26387D01*
X214865Y26456D01*
X215097Y26503D01*
X215189Y26526D01*
X215259D01*
X215282Y26549D01*
X215305D01*
X215722Y26688D01*
X216115Y26850D01*
X216439Y27012D01*
X216740Y27174D01*
X216971Y27313D01*
X217156Y27428D01*
X217249Y27498D01*
X217295Y27521D01*
X217596Y27775D01*
X217850Y28030D01*
X218082Y28308D01*
X218244Y28539D01*
X218383Y28747D01*
X218498Y28932D01*
X218545Y29025D01*
X218568Y29071D01*
X218707Y29418D01*
X218822Y29766D01*
X218892Y30113D01*
X218961Y30413D01*
X218984Y30668D01*
X219007Y30876D01*
Y31061D01*
X218984Y31385D01*
X218961Y31686D01*
X218915Y31941D01*
X218869Y32149D01*
X218799Y32311D01*
X218753Y32450D01*
X218730Y32519D01*
X218707Y32542D01*
X218452Y32936D01*
X218336Y33121D01*
X218198Y33259D01*
X218082Y33375D01*
X218012Y33468D01*
X217943Y33514D01*
X217920Y33537D01*
X217573Y33792D01*
X217226Y33977D01*
X217087Y34046D01*
X216971Y34093D01*
X216902Y34139D01*
X216879D01*
X216462Y34278D01*
X216277Y34324D01*
X216115Y34347D01*
X215976Y34393D01*
X215884D01*
X215814Y34416D01*
X215791D01*
Y34578D01*
X216254Y34694D01*
X216647Y34879D01*
X216994Y35087D01*
X217295Y35296D01*
X217526Y35481D01*
X217689Y35643D01*
X217804Y35759D01*
X217827Y35805D01*
X218082Y36198D01*
X218290Y36569D01*
X218429Y36939D01*
X218521Y37286D01*
X218568Y37587D01*
X218614Y37818D01*
Y37910D01*
Y37980D01*
Y38003D01*
Y38026D01*
X218591Y38373D01*
X218545Y38674D01*
X218475Y38975D01*
X218406Y39206D01*
X218336Y39392D01*
X218267Y39553D01*
X218221Y39646D01*
X218198Y39669D01*
X218036Y39924D01*
X217850Y40155D01*
X217642Y40363D01*
X217434Y40525D01*
X217249Y40664D01*
X217110Y40780D01*
X217017Y40849D01*
X216971Y40872D01*
X216693Y41011D01*
X216416Y41150D01*
X216115Y41243D01*
X215837Y41335D01*
X215583Y41428D01*
X215398Y41474D01*
X215259Y41520D01*
X215213D01*
X214796Y41613D01*
X214380Y41659D01*
X213963Y41705D01*
X213570Y41752D01*
X213246D01*
X212968Y41775D01*
X219007D01*
D01*
D02*
G37*
%LPD*%
G36*
X228309Y30922D02*
X224677Y41474D01*
X231942D01*
X228309Y30922D01*
D02*
G37*
G36*
X212204Y41752D02*
X211672Y41729D01*
X211186Y41682D01*
X210747Y41613D01*
X210400Y41543D01*
X210238Y41520D01*
X210122Y41497D01*
X210006Y41474D01*
X209937D01*
X209890Y41451D01*
X209867D01*
X209358Y41335D01*
X208919Y41220D01*
X208548Y41127D01*
X208225Y41034D01*
X207970Y40942D01*
X207785Y40872D01*
X207692Y40849D01*
X207646Y40826D01*
Y37587D01*
X208016D01*
X208410Y37795D01*
X208780Y37980D01*
X209127Y38142D01*
X209474Y38281D01*
X209752Y38373D01*
X209960Y38443D01*
X210099Y38489D01*
X210122Y38512D01*
X210145D01*
X210562Y38628D01*
X210932Y38697D01*
X211279Y38767D01*
X211603Y38790D01*
X211857Y38813D01*
X212043Y38836D01*
X212505D01*
X212806Y38813D01*
X212922Y38790D01*
X213014D01*
X213084Y38767D01*
X213107D01*
X213477Y38697D01*
X213639Y38674D01*
X213778Y38628D01*
X213871Y38582D01*
X213963Y38558D01*
X214009Y38535D01*
X214032D01*
X214287Y38396D01*
X214472Y38258D01*
X214588Y38142D01*
X214634Y38119D01*
Y38096D01*
X214773Y37864D01*
X214842Y37633D01*
X214865Y37540D01*
Y37448D01*
Y37401D01*
Y37378D01*
Y37170D01*
X214819Y36985D01*
X214796Y36823D01*
X214750Y36684D01*
X214704Y36592D01*
X214680Y36522D01*
X214634Y36476D01*
Y36453D01*
X214426Y36244D01*
X214218Y36106D01*
X214125Y36036D01*
X214032Y35990D01*
X213986Y35967D01*
X213963D01*
X213639Y35851D01*
X213292Y35782D01*
X213153Y35759D01*
X213037Y35735D01*
X212945D01*
X212482Y35712D01*
X212251D01*
X212019Y35689D01*
X210700D01*
Y33028D01*
X212390D01*
X212551Y33005D01*
X212806D01*
X213061Y32982D01*
X213292Y32959D01*
X213477Y32936D01*
X213662Y32912D01*
X213801Y32866D01*
X213894Y32843D01*
X213963Y32820D01*
X213986D01*
X214310Y32681D01*
X214565Y32519D01*
X214657Y32427D01*
X214727Y32380D01*
X214750Y32334D01*
X214773Y32311D01*
X214889Y32172D01*
X214958Y32010D01*
X215051Y31686D01*
X215074Y31547D01*
X215097Y31432D01*
Y31339D01*
Y31316D01*
Y31061D01*
X215051Y30853D01*
X215028Y30691D01*
X214981Y30529D01*
X214935Y30413D01*
X214912Y30344D01*
X214865Y30298D01*
Y30275D01*
X214680Y30043D01*
X214472Y29835D01*
X214333Y29719D01*
X214287Y29696D01*
X214264Y29673D01*
X213894Y29465D01*
X213523Y29349D01*
X213361Y29303D01*
X213223Y29279D01*
X213130Y29256D01*
X213107D01*
X212621Y29210D01*
X212413Y29187D01*
X212228D01*
X212066Y29164D01*
X211857D01*
X211487Y29187D01*
X211094Y29233D01*
X210723Y29279D01*
X210376Y29349D01*
X210099Y29418D01*
X209867Y29488D01*
X209775Y29511D01*
X209705D01*
X209682Y29534D01*
X209659D01*
X209219Y29696D01*
X208826Y29835D01*
X208479Y29997D01*
X208178Y30136D01*
X207924Y30275D01*
X207738Y30367D01*
X207623Y30436D01*
X207577Y30460D01*
X207206D01*
Y41775D01*
X212737D01*
X212204Y41752D01*
D02*
G37*
%LPC*%
G36*
X384800Y105949D02*
D01*
Y104700D01*
X384476Y104838D01*
X384152Y104977D01*
X384037Y105023D01*
X383921Y105070D01*
X383852Y105116D01*
X383829D01*
X383412Y105301D01*
X383204Y105371D01*
X383019Y105440D01*
X382834Y105486D01*
X382718Y105533D01*
X382625Y105556D01*
X382602D01*
X382116Y105671D01*
X381885Y105718D01*
X381676Y105764D01*
X381491Y105787D01*
X381353Y105810D01*
X381260Y105833D01*
X381214D01*
X380635Y105903D01*
X380334Y105926D01*
X380080D01*
X379849Y105949D01*
X379501D01*
X378877Y105926D01*
X378298Y105857D01*
X377766Y105764D01*
X377303Y105671D01*
X377095Y105625D01*
X376910Y105579D01*
X376748Y105533D01*
X376609Y105486D01*
X376493Y105440D01*
X376424Y105417D01*
X376378Y105394D01*
X376354D01*
X375845Y105185D01*
X375383Y104931D01*
X374966Y104676D01*
X374619Y104422D01*
X374341Y104214D01*
X374133Y104029D01*
X373994Y103913D01*
X373971Y103890D01*
X373948Y103867D01*
X373601Y103450D01*
X373277Y103034D01*
X372999Y102617D01*
X372791Y102224D01*
X372629Y101877D01*
X372560Y101738D01*
X372490Y101622D01*
X372444Y101506D01*
X372421Y101437D01*
X372398Y101391D01*
Y101368D01*
X372236Y100812D01*
X372097Y100257D01*
X372004Y99725D01*
X371958Y99215D01*
X371912Y98799D01*
Y98614D01*
X371889Y98452D01*
Y98151D01*
X371912Y97457D01*
X371981Y96809D01*
X372074Y96230D01*
X372166Y95745D01*
X372212Y95536D01*
X372259Y95328D01*
X372305Y95166D01*
X372351Y95027D01*
X372398Y94912D01*
X372421Y94842D01*
X372444Y94796D01*
Y94773D01*
X372675Y94241D01*
X372930Y93778D01*
X373184Y93361D01*
X373439Y93014D01*
X373647Y92737D01*
X373832Y92528D01*
X373948Y92389D01*
X373994Y92366D01*
Y92343D01*
X374388Y91996D01*
X374804Y91695D01*
X375221Y91464D01*
X375591Y91256D01*
X375915Y91094D01*
X376193Y90978D01*
X376285Y90932D01*
X376354Y90908D01*
X376401Y90885D01*
X376424D01*
X376956Y90723D01*
X377511Y90608D01*
X378021Y90515D01*
X378483Y90469D01*
X378900Y90423D01*
X379062D01*
X379224Y90399D01*
X371889D01*
D01*
X384800D01*
Y105949D01*
D02*
G37*
G36*
X509475Y105949D02*
D01*
Y98845D01*
Y105949D01*
D02*
G37*
G36*
X546151D02*
X540992D01*
X546151D01*
Y98498D01*
Y105949D01*
D02*
G37*
G36*
X531805D02*
D01*
Y98174D01*
X531782Y98845D01*
X531759Y99493D01*
X531689Y100049D01*
X531643Y100534D01*
X531597Y100743D01*
X531574Y100928D01*
X531550Y101090D01*
X531504Y101229D01*
X531481Y101344D01*
Y101414D01*
X531458Y101460D01*
Y101483D01*
X531319Y102015D01*
X531157Y102478D01*
X530972Y102895D01*
X530810Y103242D01*
X530648Y103519D01*
X530509Y103728D01*
X530417Y103867D01*
X530393Y103913D01*
X530093Y104283D01*
X529792Y104584D01*
X529468Y104838D01*
X529167Y105070D01*
X528913Y105232D01*
X528681Y105347D01*
X528542Y105417D01*
X528519Y105440D01*
X528496D01*
X528033Y105602D01*
X527570Y105741D01*
X527085Y105833D01*
X526622Y105880D01*
X526228Y105926D01*
X526066D01*
X525904Y105949D01*
X525627D01*
X525025Y105926D01*
X524470Y105880D01*
X523984Y105787D01*
X523591Y105695D01*
X523243Y105602D01*
X523105Y105556D01*
X522989Y105510D01*
X522896Y105486D01*
X522827Y105463D01*
X522804Y105440D01*
X522781D01*
X522364Y105232D01*
X521994Y105000D01*
X521647Y104769D01*
X521369Y104538D01*
X521161Y104306D01*
X520999Y104144D01*
X520906Y104029D01*
X520860Y103982D01*
X520606Y103589D01*
X520374Y103172D01*
X520189Y102779D01*
X520050Y102386D01*
X519911Y102062D01*
X519842Y101784D01*
X519819Y101692D01*
X519796Y101622D01*
X519772Y101576D01*
Y101553D01*
X519657Y100997D01*
X519587Y100419D01*
X519518Y99864D01*
X519495Y99331D01*
X519472Y99077D01*
Y98869D01*
X519449Y98660D01*
Y98174D01*
X519472Y97480D01*
X519495Y96855D01*
X519541Y96277D01*
X519610Y95791D01*
X519634Y95583D01*
X519680Y95374D01*
X519703Y95212D01*
X519726Y95074D01*
X519749Y94958D01*
Y94888D01*
X519772Y94842D01*
Y94819D01*
X519911Y94287D01*
X520073Y93824D01*
X520258Y93408D01*
X520420Y93037D01*
X520582Y92760D01*
X520721Y92551D01*
X520814Y92413D01*
X520837Y92389D01*
Y92366D01*
X521138Y92019D01*
X521462Y91718D01*
X521763Y91464D01*
X522086Y91256D01*
X522341Y91094D01*
X522572Y90978D01*
X522711Y90908D01*
X522734Y90885D01*
X522757D01*
X523220Y90723D01*
X523706Y90608D01*
X524192Y90515D01*
X524632Y90469D01*
X525025Y90423D01*
X525210D01*
X525349Y90399D01*
X519449D01*
D01*
X531805D01*
Y105949D01*
D02*
G37*
G36*
X451049Y105648D02*
D01*
Y95745D01*
X451025Y96254D01*
X450956Y96693D01*
X450886Y97087D01*
X450794Y97411D01*
X450678Y97688D01*
X450609Y97873D01*
X450539Y97989D01*
X450516Y98035D01*
X450308Y98359D01*
X450077Y98637D01*
X449845Y98892D01*
X449614Y99100D01*
X449429Y99262D01*
X449244Y99401D01*
X449151Y99470D01*
X449105Y99493D01*
X448827Y99632D01*
X448549Y99771D01*
X448249Y99887D01*
X447994Y99979D01*
X447763Y100049D01*
X447578Y100095D01*
X447462Y100141D01*
X447416D01*
X447045Y100234D01*
X446652Y100280D01*
X446305Y100326D01*
X445958Y100372D01*
X445657D01*
X445426Y100396D01*
X444662D01*
X444546Y100372D01*
X444361D01*
X444037Y100349D01*
X443806D01*
X443713Y100326D01*
X443598D01*
Y102779D01*
X450609D01*
Y105648D01*
X439965D01*
Y97202D01*
X440404D01*
X440890Y97318D01*
X441145Y97364D01*
X441376Y97411D01*
X441561Y97457D01*
X441723Y97480D01*
X441816Y97503D01*
X441862D01*
X442487Y97596D01*
X442788Y97619D01*
X443042Y97642D01*
X443274Y97665D01*
X443598D01*
X444084Y97642D01*
X444315Y97619D01*
X444523D01*
X444708Y97596D01*
X444847Y97573D01*
X444963Y97549D01*
X444986D01*
X445264Y97503D01*
X445518Y97434D01*
X445750Y97364D01*
X445935Y97295D01*
X446097Y97226D01*
X446212Y97156D01*
X446282Y97133D01*
X446305Y97110D01*
X446559Y96925D01*
X446744Y96716D01*
X446860Y96578D01*
X446907Y96531D01*
Y96508D01*
X446999Y96369D01*
X447045Y96207D01*
X447138Y95930D01*
Y95791D01*
X447161Y95698D01*
Y95629D01*
Y95606D01*
Y95374D01*
X447138Y95166D01*
X447115Y95004D01*
X447068Y94865D01*
X447045Y94750D01*
X446999Y94680D01*
X446976Y94634D01*
Y94611D01*
X446814Y94379D01*
X446652Y94194D01*
X446513Y94032D01*
X446467Y94009D01*
X446444Y93986D01*
X446282Y93847D01*
X446097Y93755D01*
X445703Y93593D01*
X445541Y93546D01*
X445402Y93500D01*
X445310Y93477D01*
X445287D01*
X444754Y93408D01*
X444523Y93361D01*
X444315D01*
X444153Y93338D01*
X443898D01*
X443505Y93361D01*
X443135Y93384D01*
X442765Y93454D01*
X442464Y93523D01*
X442186Y93569D01*
X441978Y93639D01*
X441839Y93662D01*
X441816Y93685D01*
X441793D01*
X441399Y93824D01*
X441029Y93986D01*
X440705Y94148D01*
X440404Y94287D01*
X440173Y94426D01*
X439988Y94518D01*
X439872Y94588D01*
X439826Y94611D01*
X439409D01*
Y90399D01*
Y91302D01*
X439710Y91186D01*
X440057Y91070D01*
X440381Y90955D01*
X440705Y90862D01*
X440983Y90793D01*
X441214Y90746D01*
X441307Y90723D01*
X441376D01*
X441399Y90700D01*
X441423D01*
X441908Y90608D01*
X442417Y90538D01*
X442926Y90492D01*
X443412Y90446D01*
X443829Y90423D01*
X444014D01*
X444153Y90399D01*
X439409D01*
X444454D01*
X445009Y90423D01*
X445541Y90446D01*
X446004Y90515D01*
X446421Y90585D01*
X446744Y90631D01*
X446883Y90677D01*
X446999Y90700D01*
X447092Y90723D01*
X447161D01*
X447184Y90746D01*
X447207D01*
X447647Y90908D01*
X448040Y91070D01*
X448411Y91279D01*
X448735Y91464D01*
X448989Y91626D01*
X449174Y91765D01*
X449290Y91857D01*
X449336Y91880D01*
X449637Y92158D01*
X449892Y92459D01*
X450100Y92737D01*
X450285Y93014D01*
X450424Y93246D01*
X450539Y93431D01*
X450586Y93546D01*
X450609Y93593D01*
X450748Y93963D01*
X450863Y94356D01*
X450933Y94703D01*
X451002Y95050D01*
X451025Y95328D01*
X451049Y95560D01*
Y105648D01*
D02*
G37*
G36*
X561192Y105995D02*
D01*
Y94865D01*
X561169Y95351D01*
X561076Y95814D01*
X560961Y96207D01*
X560822Y96554D01*
X560660Y96832D01*
X560544Y97040D01*
X560452Y97179D01*
X560428Y97226D01*
X560104Y97596D01*
X559734Y97897D01*
X559364Y98174D01*
X558994Y98406D01*
X558647Y98591D01*
X558369Y98707D01*
X558253Y98753D01*
X558184Y98799D01*
X558138Y98822D01*
X558115D01*
Y98892D01*
X558600Y99123D01*
X559017Y99354D01*
X559364Y99586D01*
X559642Y99817D01*
X559873Y100002D01*
X560035Y100164D01*
X560128Y100257D01*
X560151Y100303D01*
X560382Y100627D01*
X560544Y100951D01*
X560660Y101275D01*
X560729Y101576D01*
X560799Y101830D01*
X560822Y102015D01*
Y102154D01*
Y102200D01*
X560799Y102524D01*
X560752Y102825D01*
X560683Y103103D01*
X560567Y103357D01*
X560313Y103843D01*
X560035Y104237D01*
X559734Y104538D01*
X559480Y104769D01*
X559364Y104838D01*
X559295Y104908D01*
X559248Y104954D01*
X559225D01*
X558924Y105139D01*
X558577Y105301D01*
X557883Y105556D01*
X557166Y105741D01*
X556472Y105857D01*
X556148Y105903D01*
X555847Y105949D01*
X555569Y105972D01*
X555338D01*
X555153Y105995D01*
X554875D01*
X554389Y105972D01*
X553926Y105949D01*
X553510Y105880D01*
X553093Y105810D01*
X552723Y105718D01*
X552353Y105625D01*
X552029Y105533D01*
X551751Y105417D01*
X551473Y105301D01*
X551265Y105209D01*
X551057Y105116D01*
X550895Y105023D01*
X550756Y104954D01*
X550664Y104885D01*
X550617Y104862D01*
X550594Y104838D01*
X550317Y104630D01*
X550062Y104399D01*
X549831Y104144D01*
X549645Y103913D01*
X549483Y103658D01*
X549345Y103427D01*
X549252Y103195D01*
X549160Y102964D01*
X549044Y102571D01*
X548997Y102386D01*
X548974Y102247D01*
X548951Y102108D01*
Y102015D01*
Y101969D01*
Y101946D01*
X548974Y101506D01*
X549044Y101090D01*
X549136Y100720D01*
X549252Y100419D01*
X549368Y100141D01*
X549460Y99956D01*
X549530Y99840D01*
X549553Y99794D01*
X549807Y99470D01*
X550108Y99169D01*
X550432Y98915D01*
X550733Y98707D01*
X551034Y98521D01*
X551265Y98406D01*
X551358Y98359D01*
X551427Y98313D01*
X551450Y98290D01*
X551473D01*
Y98244D01*
X550918Y97989D01*
X550432Y97735D01*
X550039Y97480D01*
X549738Y97249D01*
X549507Y97040D01*
X549345Y96855D01*
X549229Y96763D01*
X549206Y96716D01*
X548997Y96369D01*
X548836Y96046D01*
X548720Y95698D01*
X548650Y95398D01*
X548604Y95120D01*
X548558Y94912D01*
Y94726D01*
X548581Y94379D01*
X548604Y94079D01*
X548674Y93778D01*
X548743Y93523D01*
X548789Y93315D01*
X548859Y93153D01*
X548882Y93061D01*
X548905Y93014D01*
X549067Y92737D01*
X549229Y92459D01*
X549437Y92227D01*
X549622Y92019D01*
X549784Y91857D01*
X549923Y91742D01*
X550016Y91649D01*
X550039Y91626D01*
X550340Y91418D01*
X550687Y91233D01*
X551011Y91070D01*
X551311Y90932D01*
X551589Y90839D01*
X551820Y90770D01*
X551959Y90723D01*
X551982Y90700D01*
X552006D01*
X552468Y90585D01*
X552954Y90492D01*
X553417Y90446D01*
X553880Y90399D01*
X554273Y90376D01*
X554435Y90353D01*
X548558D01*
X561192D01*
Y105995D01*
D02*
G37*
G36*
X466020D02*
D01*
Y94865D01*
X465997Y95351D01*
X465904Y95814D01*
X465788Y96207D01*
X465649Y96554D01*
X465487Y96832D01*
X465372Y97040D01*
X465279Y97179D01*
X465256Y97226D01*
X464932Y97596D01*
X464562Y97897D01*
X464192Y98174D01*
X463821Y98406D01*
X463474Y98591D01*
X463197Y98707D01*
X463081Y98753D01*
X463012Y98799D01*
X462965Y98822D01*
X462942D01*
Y98892D01*
X463428Y99123D01*
X463844Y99354D01*
X464192Y99586D01*
X464469Y99817D01*
X464701Y100002D01*
X464863Y100164D01*
X464955Y100257D01*
X464978Y100303D01*
X465210Y100627D01*
X465372Y100951D01*
X465487Y101275D01*
X465557Y101576D01*
X465626Y101830D01*
X465649Y102015D01*
Y102154D01*
Y102200D01*
X465626Y102524D01*
X465580Y102825D01*
X465511Y103103D01*
X465395Y103357D01*
X465140Y103843D01*
X464863Y104237D01*
X464562Y104538D01*
X464307Y104769D01*
X464192Y104838D01*
X464122Y104908D01*
X464076Y104954D01*
X464053D01*
X463752Y105139D01*
X463405Y105301D01*
X462711Y105556D01*
X461993Y105741D01*
X461299Y105857D01*
X460975Y105903D01*
X460674Y105949D01*
X460397Y105972D01*
X460165D01*
X459980Y105995D01*
X459703D01*
X459217Y105972D01*
X458754Y105949D01*
X458337Y105880D01*
X457921Y105810D01*
X457551Y105718D01*
X457180Y105625D01*
X456856Y105533D01*
X456579Y105417D01*
X456301Y105301D01*
X456093Y105209D01*
X455885Y105116D01*
X455723Y105023D01*
X455584Y104954D01*
X455491Y104885D01*
X455445Y104862D01*
X455422Y104838D01*
X455144Y104630D01*
X454890Y104399D01*
X454658Y104144D01*
X454473Y103913D01*
X454311Y103658D01*
X454172Y103427D01*
X454080Y103195D01*
X453987Y102964D01*
X453871Y102571D01*
X453825Y102386D01*
X453802Y102247D01*
X453779Y102108D01*
Y102015D01*
Y101969D01*
Y101946D01*
X453802Y101506D01*
X453871Y101090D01*
X453964Y100720D01*
X454080Y100419D01*
X454195Y100141D01*
X454288Y99956D01*
X454357Y99840D01*
X454380Y99794D01*
X454635Y99470D01*
X454936Y99169D01*
X455260Y98915D01*
X455561Y98707D01*
X455861Y98521D01*
X456093Y98406D01*
X456185Y98359D01*
X456255Y98313D01*
X456278Y98290D01*
X456301D01*
Y98244D01*
X455746Y97989D01*
X455260Y97735D01*
X454866Y97480D01*
X454566Y97249D01*
X454334Y97040D01*
X454172Y96855D01*
X454057Y96763D01*
X454033Y96716D01*
X453825Y96369D01*
X453663Y96046D01*
X453548Y95698D01*
X453478Y95398D01*
X453432Y95120D01*
X453386Y94912D01*
Y94726D01*
X453409Y94379D01*
X453432Y94079D01*
X453501Y93778D01*
X453571Y93523D01*
X453617Y93315D01*
X453686Y93153D01*
X453709Y93061D01*
X453733Y93014D01*
X453895Y92737D01*
X454057Y92459D01*
X454265Y92227D01*
X454450Y92019D01*
X454612Y91857D01*
X454751Y91742D01*
X454843Y91649D01*
X454866Y91626D01*
X455167Y91418D01*
X455514Y91233D01*
X455838Y91070D01*
X456139Y90932D01*
X456417Y90839D01*
X456648Y90770D01*
X456787Y90723D01*
X456810Y90700D01*
X456833D01*
X457296Y90585D01*
X457782Y90492D01*
X458245Y90446D01*
X458708Y90399D01*
X459101Y90376D01*
X459263Y90353D01*
X453386D01*
X466020D01*
Y105995D01*
D02*
G37*
G36*
X598539Y105949D02*
Y93570D01*
X591805D01*
X591967Y93685D01*
X592176Y93847D01*
X592615Y94171D01*
X592800Y94310D01*
X592985Y94426D01*
X593078Y94518D01*
X593124Y94541D01*
X593795Y95097D01*
X594119Y95351D01*
X594397Y95583D01*
X594628Y95791D01*
X594790Y95953D01*
X594906Y96046D01*
X594952Y96092D01*
X595461Y96601D01*
X595901Y97087D01*
X596271Y97526D01*
X596595Y97920D01*
X596827Y98267D01*
X596989Y98521D01*
X597058Y98614D01*
X597104Y98683D01*
X597127Y98707D01*
Y98730D01*
X597359Y99216D01*
X597544Y99678D01*
X597660Y100141D01*
X597752Y100558D01*
X597799Y100905D01*
X597822Y101044D01*
X597845Y101182D01*
Y101275D01*
Y101344D01*
Y101391D01*
Y101414D01*
X597822Y101807D01*
X597775Y102177D01*
X597706Y102524D01*
X597613Y102849D01*
X597498Y103149D01*
X597382Y103427D01*
X597243Y103681D01*
X597104Y103913D01*
X596965Y104098D01*
X596827Y104283D01*
X596711Y104422D01*
X596595Y104561D01*
X596503Y104653D01*
X596433Y104723D01*
X596387Y104746D01*
X596364Y104769D01*
X596063Y104977D01*
X595762Y105162D01*
X595415Y105324D01*
X595068Y105463D01*
X594351Y105672D01*
X593657Y105810D01*
X593333Y105857D01*
X593032Y105880D01*
X592754Y105903D01*
X592523Y105926D01*
X592338Y105949D01*
X592060D01*
X591551Y105926D01*
X591042Y105903D01*
X590556Y105857D01*
X590139Y105787D01*
X589769Y105718D01*
X589630Y105695D01*
X589515Y105672D01*
X589399Y105648D01*
X589329D01*
X589283Y105625D01*
X589260D01*
X588774Y105510D01*
X588358Y105394D01*
X587987Y105301D01*
X587710Y105209D01*
X587478Y105116D01*
X587316Y105047D01*
X587201Y105024D01*
X587178Y105000D01*
Y101692D01*
X587478D01*
X588149Y102085D01*
X588473Y102247D01*
X588751Y102386D01*
X589006Y102501D01*
X589214Y102594D01*
X589329Y102640D01*
X589376Y102663D01*
X589746Y102802D01*
X590116Y102895D01*
X590440Y102964D01*
X590741Y103010D01*
X590972Y103034D01*
X591157Y103057D01*
X591320D01*
X591759Y103034D01*
X592152Y102964D01*
X592477Y102872D01*
X592731Y102779D01*
X592939Y102663D01*
X593101Y102571D01*
X593194Y102501D01*
X593217Y102478D01*
X593448Y102247D01*
X593610Y101992D01*
X593726Y101738D01*
X593795Y101483D01*
X593865Y101252D01*
X593888Y101067D01*
Y100951D01*
Y100928D01*
Y100905D01*
X593865Y100581D01*
X593795Y100280D01*
X593726Y99979D01*
X593633Y99725D01*
X593518Y99493D01*
X593448Y99331D01*
X593379Y99216D01*
X593356Y99169D01*
X593148Y98845D01*
X592870Y98498D01*
X592592Y98151D01*
X592314Y97827D01*
X592060Y97549D01*
X591852Y97341D01*
X591759Y97249D01*
X591690Y97179D01*
X591667Y97156D01*
X591643Y97133D01*
X591320Y96809D01*
X590972Y96485D01*
X590602Y96184D01*
X590255Y95884D01*
X589954Y95629D01*
X589700Y95421D01*
X589607Y95351D01*
X589538Y95282D01*
X589492Y95259D01*
X589468Y95236D01*
X588959Y94842D01*
X588473Y94449D01*
X588034Y94102D01*
X587617Y93801D01*
X587270Y93546D01*
X587131Y93431D01*
X587016Y93338D01*
X586923Y93269D01*
X586854Y93223D01*
X586807Y93199D01*
X586784Y93176D01*
Y90700D01*
X598539D01*
Y105949D01*
D02*
G37*
G36*
X495245Y105949D02*
D01*
Y93569D01*
X488511D01*
X488673Y93685D01*
X488881Y93847D01*
X489321Y94171D01*
X489506Y94310D01*
X489691Y94426D01*
X489784Y94518D01*
X489830Y94541D01*
X490501Y95097D01*
X490825Y95351D01*
X491103Y95583D01*
X491334Y95791D01*
X491496Y95953D01*
X491612Y96046D01*
X491658Y96092D01*
X492167Y96601D01*
X492607Y97087D01*
X492977Y97526D01*
X493301Y97920D01*
X493532Y98267D01*
X493694Y98521D01*
X493764Y98614D01*
X493810Y98683D01*
X493833Y98707D01*
Y98730D01*
X494065Y99215D01*
X494250Y99678D01*
X494365Y100141D01*
X494458Y100558D01*
X494504Y100905D01*
X494527Y101044D01*
X494551Y101182D01*
Y101275D01*
Y101344D01*
Y101391D01*
Y101414D01*
X494527Y101807D01*
X494481Y102177D01*
X494412Y102524D01*
X494319Y102848D01*
X494203Y103149D01*
X494088Y103427D01*
X493949Y103681D01*
X493810Y103913D01*
X493671Y104098D01*
X493532Y104283D01*
X493417Y104422D01*
X493301Y104561D01*
X493208Y104653D01*
X493139Y104723D01*
X493093Y104746D01*
X493070Y104769D01*
X492769Y104977D01*
X492468Y105162D01*
X492121Y105324D01*
X491774Y105463D01*
X491057Y105671D01*
X490362Y105810D01*
X490038Y105857D01*
X489738Y105880D01*
X489460Y105903D01*
X489229Y105926D01*
X489043Y105949D01*
X483490D01*
X488766D01*
X488257Y105926D01*
X487747Y105903D01*
X487262Y105857D01*
X486845Y105787D01*
X486475Y105718D01*
X486336Y105695D01*
X486220Y105671D01*
X486105Y105648D01*
X486035D01*
X485989Y105625D01*
X485966D01*
X485480Y105510D01*
X485063Y105394D01*
X484693Y105301D01*
X484416Y105209D01*
X484184Y105116D01*
X484022Y105047D01*
X483906Y105023D01*
X483883Y105000D01*
Y101692D01*
X484184D01*
X484855Y102085D01*
X485179Y102247D01*
X485457Y102386D01*
X485711Y102501D01*
X485919Y102594D01*
X486035Y102640D01*
X486082Y102663D01*
X486452Y102802D01*
X486822Y102895D01*
X487146Y102964D01*
X487447Y103010D01*
X487678Y103034D01*
X487863Y103057D01*
X488025D01*
X488465Y103034D01*
X488858Y102964D01*
X489182Y102872D01*
X489437Y102779D01*
X489645Y102663D01*
X489807Y102571D01*
X489899Y102501D01*
X489923Y102478D01*
X490154Y102247D01*
X490316Y101992D01*
X490432Y101738D01*
X490501Y101483D01*
X490570Y101252D01*
X490594Y101067D01*
Y100951D01*
Y100928D01*
Y100905D01*
X490570Y100581D01*
X490501Y100280D01*
X490432Y99979D01*
X490339Y99725D01*
X490224Y99493D01*
X490154Y99331D01*
X490085Y99215D01*
X490061Y99169D01*
X489853Y98845D01*
X489576Y98498D01*
X489298Y98151D01*
X489020Y97827D01*
X488766Y97549D01*
X488557Y97341D01*
X488465Y97249D01*
X488395Y97179D01*
X488372Y97156D01*
X488349Y97133D01*
X488025Y96809D01*
X487678Y96485D01*
X487308Y96184D01*
X486961Y95884D01*
X486660Y95629D01*
X486405Y95421D01*
X486313Y95351D01*
X486244Y95282D01*
X486197Y95259D01*
X486174Y95236D01*
X485665Y94842D01*
X485179Y94449D01*
X484739Y94102D01*
X484323Y93801D01*
X483976Y93546D01*
X483837Y93431D01*
X483721Y93338D01*
X483629Y93269D01*
X483559Y93222D01*
X483513Y93199D01*
X483490Y93176D01*
Y90700D01*
X495245D01*
Y105949D01*
D02*
G37*
G36*
X503436D02*
X503205D01*
X502673Y105926D01*
X502140Y105903D01*
X501654Y105857D01*
X501215Y105787D01*
X500868Y105718D01*
X500706Y105695D01*
X500590Y105671D01*
X500474Y105648D01*
X500405D01*
X500359Y105625D01*
X500335D01*
X499826Y105510D01*
X499387Y105394D01*
X499016Y105301D01*
X498693Y105209D01*
X498438Y105116D01*
X498253Y105047D01*
X498160Y105023D01*
X498114Y105000D01*
Y101761D01*
X498484D01*
X498878Y101969D01*
X499248Y102154D01*
X499595Y102316D01*
X499942Y102455D01*
X500220Y102548D01*
X500428Y102617D01*
X500567Y102663D01*
X500590Y102687D01*
X500613D01*
X501030Y102802D01*
X501400Y102872D01*
X501747Y102941D01*
X502071Y102964D01*
X502325Y102987D01*
X502510Y103010D01*
X502973D01*
X503274Y102987D01*
X503390Y102964D01*
X503482D01*
X503552Y102941D01*
X503575D01*
X503945Y102872D01*
X504107Y102848D01*
X504246Y102802D01*
X504338Y102756D01*
X504431Y102733D01*
X504477Y102710D01*
X504501D01*
X504755Y102571D01*
X504940Y102432D01*
X505056Y102316D01*
X505102Y102293D01*
Y102270D01*
X505241Y102039D01*
X505310Y101807D01*
X505334Y101715D01*
Y101622D01*
Y101576D01*
Y101553D01*
Y101344D01*
X505287Y101159D01*
X505264Y100997D01*
X505218Y100858D01*
X505172Y100766D01*
X505148Y100696D01*
X505102Y100650D01*
Y100627D01*
X504894Y100419D01*
X504686Y100280D01*
X504593Y100211D01*
X504501Y100164D01*
X504454Y100141D01*
X504431D01*
X504107Y100025D01*
X503760Y99956D01*
X503621Y99933D01*
X503506Y99910D01*
X503413D01*
X502950Y99887D01*
X502719D01*
X502487Y99864D01*
X501168D01*
Y97202D01*
X502858D01*
X503019Y97179D01*
X503274D01*
X503529Y97156D01*
X503760Y97133D01*
X503945Y97110D01*
X504130Y97087D01*
X504269Y97040D01*
X504362Y97017D01*
X504431Y96994D01*
X504454D01*
X504778Y96855D01*
X505033Y96693D01*
X505125Y96601D01*
X505195Y96554D01*
X505218Y96508D01*
X505241Y96485D01*
X505357Y96346D01*
X505426Y96184D01*
X505519Y95860D01*
X505542Y95722D01*
X505565Y95606D01*
Y95513D01*
Y95490D01*
Y95236D01*
X505519Y95027D01*
X505495Y94865D01*
X505449Y94703D01*
X505403Y94588D01*
X505380Y94518D01*
X505334Y94472D01*
Y94449D01*
X505148Y94217D01*
X504940Y94009D01*
X504801Y93893D01*
X504755Y93870D01*
X504732Y93847D01*
X504362Y93639D01*
X503991Y93523D01*
X503829Y93477D01*
X503691Y93454D01*
X503598Y93431D01*
X503575D01*
X503089Y93384D01*
X502881Y93361D01*
X502696D01*
X502534Y93338D01*
X502325D01*
X501955Y93361D01*
X501562Y93408D01*
X501191Y93454D01*
X500844Y93523D01*
X500567Y93593D01*
X500335Y93662D01*
X500243Y93685D01*
X500173D01*
X500150Y93708D01*
X500127D01*
X499688Y93870D01*
X499294Y94009D01*
X498947Y94171D01*
X498646Y94310D01*
X498392Y94449D01*
X498206Y94541D01*
X498091Y94611D01*
X498045Y94634D01*
X497674D01*
Y90399D01*
Y91325D01*
X497998Y91209D01*
X498368Y91070D01*
X498716Y90978D01*
X499063Y90885D01*
X499364Y90816D01*
X499618Y90746D01*
X499711Y90723D01*
X499780D01*
X499803Y90700D01*
X499826D01*
X500359Y90608D01*
X500891Y90538D01*
X501423Y90469D01*
X501932Y90446D01*
X502372Y90423D01*
X502557Y90399D01*
X497674D01*
X509475D01*
Y95259D01*
Y95236D01*
X509452Y95560D01*
X509429Y95860D01*
X509383Y96115D01*
X509337Y96323D01*
X509267Y96485D01*
X509221Y96624D01*
X509198Y96693D01*
X509175Y96716D01*
X508920Y97110D01*
X508804Y97295D01*
X508666Y97434D01*
X508550Y97549D01*
X508480Y97642D01*
X508411Y97688D01*
X508388Y97711D01*
X508041Y97966D01*
X507694Y98151D01*
X507555Y98221D01*
X507439Y98267D01*
X507370Y98313D01*
X507347D01*
X506930Y98452D01*
X506745Y98498D01*
X506583Y98521D01*
X506444Y98568D01*
X506352D01*
X506282Y98591D01*
X506259D01*
Y98753D01*
X506722Y98869D01*
X507115Y99054D01*
X507462Y99262D01*
X507763Y99470D01*
X507994Y99655D01*
X508157Y99817D01*
X508272Y99933D01*
X508295Y99979D01*
X508550Y100372D01*
X508758Y100743D01*
X508897Y101113D01*
X508989Y101460D01*
X509036Y101761D01*
X509082Y101992D01*
Y102085D01*
Y102154D01*
Y102177D01*
Y102200D01*
X509059Y102548D01*
X509013Y102848D01*
X508943Y103149D01*
X508874Y103381D01*
X508804Y103566D01*
X508735Y103728D01*
X508689Y103820D01*
X508666Y103843D01*
X508504Y104098D01*
X508318Y104329D01*
X508110Y104538D01*
X507902Y104700D01*
X507717Y104838D01*
X507578Y104954D01*
X507485Y105023D01*
X507439Y105047D01*
X507161Y105185D01*
X506884Y105324D01*
X506583Y105417D01*
X506305Y105510D01*
X506051Y105602D01*
X505866Y105648D01*
X505727Y105695D01*
X505681D01*
X505264Y105787D01*
X504848Y105833D01*
X504431Y105880D01*
X504038Y105926D01*
X503714D01*
X503436Y105949D01*
D02*
G37*
G36*
X540112D02*
X534350D01*
X539881D01*
X539348Y105926D01*
X538816Y105903D01*
X538330Y105857D01*
X537891Y105787D01*
X537543Y105718D01*
X537382Y105695D01*
X537266Y105671D01*
X537150Y105648D01*
X537081D01*
X537034Y105625D01*
X537011D01*
X536502Y105510D01*
X536063Y105394D01*
X535692Y105301D01*
X535368Y105209D01*
X535114Y105116D01*
X534929Y105047D01*
X534836Y105023D01*
X534790Y105000D01*
Y101761D01*
X535160D01*
X535554Y101969D01*
X535924Y102154D01*
X536271Y102316D01*
X536618Y102455D01*
X536896Y102548D01*
X537104Y102617D01*
X537243Y102663D01*
X537266Y102687D01*
X537289D01*
X537705Y102802D01*
X538076Y102872D01*
X538423Y102941D01*
X538747Y102964D01*
X539001Y102987D01*
X539186Y103010D01*
X539649D01*
X539950Y102987D01*
X540066Y102964D01*
X540158D01*
X540228Y102941D01*
X540251D01*
X540621Y102872D01*
X540783Y102848D01*
X540922Y102802D01*
X541014Y102756D01*
X541107Y102733D01*
X541153Y102710D01*
X541176D01*
X541431Y102571D01*
X541616Y102432D01*
X541732Y102316D01*
X541778Y102293D01*
Y102270D01*
X541917Y102039D01*
X541986Y101807D01*
X542009Y101715D01*
Y101622D01*
Y101576D01*
Y101553D01*
Y101344D01*
X541963Y101159D01*
X541940Y100997D01*
X541894Y100858D01*
X541847Y100766D01*
X541824Y100696D01*
X541778Y100650D01*
Y100627D01*
X541570Y100419D01*
X541362Y100280D01*
X541269Y100211D01*
X541176Y100164D01*
X541130Y100141D01*
X541107D01*
X540783Y100025D01*
X540436Y99956D01*
X540297Y99933D01*
X540181Y99910D01*
X540089D01*
X539626Y99887D01*
X539395D01*
X539163Y99864D01*
X537844D01*
Y97202D01*
X539534D01*
X539696Y97179D01*
X539950D01*
X540205Y97156D01*
X540436Y97133D01*
X540621Y97110D01*
X540806Y97087D01*
X540945Y97040D01*
X541038Y97017D01*
X541107Y96994D01*
X541130D01*
X541454Y96855D01*
X541709Y96693D01*
X541801Y96601D01*
X541871Y96554D01*
X541894Y96508D01*
X541917Y96485D01*
X542033Y96346D01*
X542102Y96184D01*
X542195Y95860D01*
X542218Y95722D01*
X542241Y95606D01*
Y95513D01*
Y95490D01*
Y95236D01*
X542195Y95027D01*
X542171Y94865D01*
X542125Y94703D01*
X542079Y94588D01*
X542056Y94518D01*
X542009Y94472D01*
Y94449D01*
X541824Y94217D01*
X541616Y94009D01*
X541477Y93893D01*
X541431Y93870D01*
X541408Y93847D01*
X541038Y93639D01*
X540667Y93523D01*
X540505Y93477D01*
X540367Y93454D01*
X540274Y93431D01*
X540251D01*
X539765Y93384D01*
X539557Y93361D01*
X539371D01*
X539210Y93338D01*
X539001D01*
X538631Y93361D01*
X538238Y93408D01*
X537868Y93454D01*
X537520Y93523D01*
X537243Y93593D01*
X537011Y93662D01*
X536919Y93685D01*
X536849D01*
X536826Y93708D01*
X536803D01*
X536363Y93870D01*
X535970Y94009D01*
X535623Y94171D01*
X535322Y94310D01*
X535068Y94449D01*
X534883Y94541D01*
X534767Y94611D01*
X534720Y94634D01*
X534350D01*
Y90399D01*
Y91325D01*
X534674Y91209D01*
X535045Y91070D01*
X535392Y90978D01*
X535739Y90885D01*
X536040Y90816D01*
X536294Y90746D01*
X536387Y90723D01*
X536456D01*
X536479Y90700D01*
X536502D01*
X537034Y90608D01*
X537567Y90538D01*
X538099Y90469D01*
X538608Y90446D01*
X539048Y90423D01*
X539233Y90399D01*
X540691D01*
X539696D01*
X540274Y90423D01*
X540806Y90446D01*
X541269Y90492D01*
X541685Y90561D01*
X542009Y90631D01*
X542241Y90677D01*
X542333Y90700D01*
X542403D01*
X542426Y90723D01*
X542449D01*
X542866Y90862D01*
X543259Y91024D01*
X543583Y91186D01*
X543884Y91348D01*
X544115Y91487D01*
X544300Y91603D01*
X544393Y91672D01*
X544439Y91695D01*
X544740Y91950D01*
X544994Y92204D01*
X545226Y92482D01*
X545388Y92713D01*
X545527Y92922D01*
X545642Y93107D01*
X545689Y93199D01*
X545712Y93246D01*
X545851Y93593D01*
X545966Y93940D01*
X546036Y94287D01*
X546105Y94588D01*
X546128Y94842D01*
X546151Y95050D01*
Y91695D01*
Y95236D01*
Y95236D01*
X546128Y95560D01*
X546105Y95860D01*
X546059Y96115D01*
X546012Y96323D01*
X545943Y96485D01*
X545897Y96624D01*
X545874Y96693D01*
X545851Y96716D01*
X545596Y97110D01*
X545480Y97295D01*
X545341Y97434D01*
X545226Y97549D01*
X545156Y97642D01*
X545087Y97688D01*
X545064Y97711D01*
X544717Y97966D01*
X544370Y98151D01*
X544231Y98221D01*
X544115Y98267D01*
X544046Y98313D01*
X544023D01*
X543606Y98452D01*
X543421Y98498D01*
X543259Y98521D01*
X543120Y98568D01*
X543028D01*
X542958Y98591D01*
X542935D01*
Y98753D01*
X543398Y98869D01*
X543791Y99054D01*
X544138Y99262D01*
X544439Y99470D01*
X544670Y99655D01*
X544832Y99817D01*
X544948Y99933D01*
X544971Y99979D01*
X545226Y100372D01*
X545434Y100743D01*
X545573Y101113D01*
X545666Y101460D01*
X545712Y101761D01*
X545758Y101992D01*
Y102085D01*
Y102154D01*
Y102177D01*
Y102200D01*
X545735Y102548D01*
X545689Y102848D01*
X545619Y103149D01*
X545550Y103381D01*
X545480Y103566D01*
X545411Y103728D01*
X545365Y103820D01*
X545341Y103843D01*
X545179Y104098D01*
X544994Y104329D01*
X544786Y104538D01*
X544578Y104700D01*
X544393Y104838D01*
X544254Y104954D01*
X544161Y105023D01*
X544115Y105047D01*
X543837Y105185D01*
X543560Y105324D01*
X543259Y105417D01*
X542981Y105510D01*
X542727Y105602D01*
X542542Y105648D01*
X542403Y105695D01*
X542356D01*
X541940Y105787D01*
X541524Y105833D01*
X541107Y105880D01*
X540714Y105926D01*
X540390D01*
X540112Y105949D01*
D02*
G37*
G36*
X584702Y105648D02*
D01*
Y90700D01*
X579218D01*
X584702Y105648D01*
X569453Y105648D01*
D01*
X574914Y90700D01*
X584702D01*
Y105648D01*
D02*
G37*
G36*
X516464Y94657D02*
X512715D01*
Y90700D01*
X516464D01*
Y94657D01*
D02*
G37*
G36*
X480297Y105648D02*
X468588D01*
Y102779D01*
X476224D01*
X469236Y90700D01*
X468588D01*
D01*
X480297D01*
Y105648D01*
D02*
G37*
G36*
X436424D02*
X424716D01*
Y102779D01*
X432352D01*
X425364Y90700D01*
X424716D01*
D01*
X436424D01*
Y105648D01*
D02*
G37*
G36*
X421291Y94657D02*
X417543D01*
Y90700D01*
X421291D01*
Y94657D01*
D02*
G37*
G36*
X415483Y105648D02*
D01*
Y90700D01*
X409953Y105648D01*
X405487D01*
X399980Y90700D01*
D01*
X415483D01*
Y105648D01*
D02*
G37*
G36*
X399355D02*
X386142D01*
Y102756D01*
X390817D01*
Y90700D01*
X386142D01*
X399355D01*
Y105648D01*
D02*
G37*
G36*
X370616D02*
D01*
Y90700D01*
X365086Y105648D01*
X360620D01*
X355112Y90700D01*
D01*
X370616D01*
Y105648D01*
D02*
G37*
G36*
X451049Y90399D02*
X444620D01*
X451049D01*
D01*
D02*
G37*
%LPD*%
G36*
X380635Y103010D02*
X380867Y102987D01*
X381075Y102941D01*
X381237Y102895D01*
X381353Y102872D01*
X381445Y102825D01*
X381468D01*
X381931Y102640D01*
X382139Y102548D01*
X382324Y102455D01*
X382463Y102386D01*
X382579Y102316D01*
X382648Y102293D01*
X382672Y102270D01*
X383042Y102038D01*
X383204Y101923D01*
X383343Y101830D01*
X383458Y101738D01*
X383551Y101691D01*
X383597Y101645D01*
X383620Y101622D01*
X383921Y101391D01*
X384152Y101229D01*
X384222Y101159D01*
X384291Y101113D01*
X384314Y101067D01*
X384800D01*
Y95259D01*
X384384D01*
X384152Y95050D01*
X383944Y94865D01*
X383829Y94796D01*
X383759Y94726D01*
X383713Y94703D01*
X383690Y94680D01*
X383366Y94449D01*
X383088Y94241D01*
X382972Y94171D01*
X382880Y94102D01*
X382810Y94079D01*
X382787Y94055D01*
X382348Y93824D01*
X382139Y93731D01*
X381931Y93639D01*
X381769Y93593D01*
X381630Y93546D01*
X381538Y93500D01*
X381515D01*
X381006Y93384D01*
X380774Y93338D01*
X380566Y93315D01*
X380381D01*
X380242Y93292D01*
X380126D01*
X379571Y93338D01*
X379316Y93361D01*
X379108Y93407D01*
X378900Y93454D01*
X378761Y93477D01*
X378668Y93523D01*
X378622D01*
X378344Y93616D01*
X378090Y93755D01*
X377882Y93870D01*
X377673Y94009D01*
X377511Y94125D01*
X377396Y94217D01*
X377303Y94287D01*
X377280Y94310D01*
X377072Y94518D01*
X376864Y94773D01*
X376702Y95004D01*
X376563Y95259D01*
X376447Y95467D01*
X376354Y95629D01*
X376308Y95745D01*
X376285Y95791D01*
X376146Y96161D01*
X376054Y96554D01*
X375984Y96948D01*
X375938Y97318D01*
X375915Y97642D01*
X375892Y97897D01*
Y97989D01*
Y98059D01*
Y98105D01*
Y98128D01*
X375915Y98614D01*
X375938Y99053D01*
X376007Y99447D01*
X376077Y99794D01*
X376123Y100049D01*
X376193Y100257D01*
X376216Y100372D01*
X376239Y100419D01*
X376378Y100766D01*
X376540Y101067D01*
X376702Y101321D01*
X376864Y101530D01*
X377002Y101715D01*
X377118Y101830D01*
X377188Y101923D01*
X377211Y101946D01*
X377442Y102154D01*
X377673Y102316D01*
X377905Y102455D01*
X378113Y102571D01*
X378298Y102663D01*
X378437Y102733D01*
X378530Y102779D01*
X378553D01*
X378830Y102872D01*
X379108Y102941D01*
X379363Y102987D01*
X379617Y103034D01*
X379802D01*
X379964Y103057D01*
X380103D01*
X380635Y103010D01*
D02*
G37*
G36*
X384800Y90399D02*
X379895D01*
X380265Y90423D01*
X380566Y90446D01*
X380797Y90469D01*
X381006D01*
X381144Y90492D01*
X381237Y90515D01*
X381260D01*
X381746Y90608D01*
X381977Y90654D01*
X382209Y90700D01*
X382371Y90746D01*
X382533Y90793D01*
X382625Y90816D01*
X382648D01*
X383042Y90932D01*
X383227Y91001D01*
X383389Y91070D01*
X383528Y91117D01*
X383620Y91163D01*
X383690Y91186D01*
X383713D01*
X384106Y91371D01*
X384291Y91441D01*
X384453Y91510D01*
X384592Y91580D01*
X384708Y91626D01*
X384777Y91672D01*
X384800D01*
Y90399D01*
D02*
G37*
G36*
X525858Y103172D02*
X526066Y103149D01*
X526413Y103010D01*
X526714Y102825D01*
X526969Y102617D01*
X527154Y102409D01*
X527293Y102224D01*
X527362Y102085D01*
X527385Y102062D01*
Y102039D01*
X527478Y101807D01*
X527570Y101553D01*
X527640Y101252D01*
X527686Y100951D01*
X527779Y100303D01*
X527848Y99678D01*
X527871Y99377D01*
X527894Y99100D01*
Y98845D01*
X527918Y98614D01*
Y98429D01*
Y98290D01*
Y98197D01*
Y98174D01*
Y97688D01*
X527894Y97249D01*
X527871Y96832D01*
X527825Y96439D01*
X527779Y96092D01*
X527732Y95768D01*
X527686Y95490D01*
X527640Y95236D01*
X527594Y95004D01*
X527547Y94819D01*
X527501Y94657D01*
X527455Y94541D01*
X527408Y94449D01*
X527385Y94356D01*
X527362Y94333D01*
Y94310D01*
X527247Y94102D01*
X527131Y93940D01*
X527015Y93778D01*
X526876Y93639D01*
X526576Y93431D01*
X526298Y93292D01*
X526043Y93222D01*
X525835Y93176D01*
X525673Y93153D01*
X525627D01*
X525395Y93176D01*
X525210Y93199D01*
X524840Y93338D01*
X524539Y93523D01*
X524285Y93731D01*
X524100Y93940D01*
X523961Y94125D01*
X523891Y94264D01*
X523868Y94287D01*
Y94310D01*
X523776Y94541D01*
X523683Y94819D01*
X523567Y95398D01*
X523475Y96046D01*
X523405Y96670D01*
X523382Y96971D01*
X523359Y97249D01*
Y97503D01*
X523336Y97711D01*
Y97897D01*
Y98035D01*
Y98128D01*
Y98151D01*
Y98637D01*
X523359Y99100D01*
X523382Y99516D01*
X523405Y99910D01*
X523452Y100257D01*
X523498Y100581D01*
X523544Y100858D01*
X523591Y101113D01*
X523637Y101344D01*
X523683Y101530D01*
X523729Y101692D01*
X523776Y101807D01*
X523799Y101923D01*
X523822Y101992D01*
X523845Y102015D01*
Y102039D01*
X523961Y102247D01*
X524076Y102432D01*
X524215Y102571D01*
X524354Y102710D01*
X524655Y102918D01*
X524933Y103057D01*
X525210Y103126D01*
X525419Y103172D01*
X525511Y103195D01*
X525627D01*
X525858Y103172D01*
D02*
G37*
G36*
X531805Y90399D02*
X525627D01*
X526228Y90423D01*
X526784Y90469D01*
X527270Y90561D01*
X527686Y90654D01*
X528010Y90723D01*
X528149Y90770D01*
X528265Y90816D01*
X528357Y90839D01*
X528427Y90862D01*
X528450Y90885D01*
X528473D01*
X528889Y91094D01*
X529283Y91325D01*
X529607Y91556D01*
X529884Y91788D01*
X530093Y92019D01*
X530255Y92181D01*
X530370Y92297D01*
X530393Y92343D01*
X530648Y92737D01*
X530856Y93130D01*
X531041Y93546D01*
X531203Y93940D01*
X531319Y94287D01*
X531388Y94541D01*
X531412Y94657D01*
X531435Y94726D01*
X531458Y94773D01*
Y94796D01*
X531574Y95374D01*
X531666Y95953D01*
X531712Y96508D01*
X531759Y97040D01*
X531782Y97272D01*
Y97503D01*
X531805Y97688D01*
Y90399D01*
D02*
G37*
G36*
X555245Y103427D02*
X555546Y103381D01*
X555824Y103311D01*
X556055Y103219D01*
X556240Y103126D01*
X556356Y103057D01*
X556448Y103010D01*
X556472Y102987D01*
X556680Y102802D01*
X556819Y102594D01*
X556934Y102409D01*
X557004Y102224D01*
X557050Y102039D01*
X557073Y101900D01*
Y101807D01*
Y101784D01*
Y101553D01*
X557050Y101344D01*
X557004Y101159D01*
X556981Y100997D01*
X556934Y100882D01*
X556888Y100766D01*
X556865Y100720D01*
Y100696D01*
X556772Y100534D01*
X556680Y100372D01*
X556448Y100049D01*
X556333Y99933D01*
X556240Y99817D01*
X556194Y99748D01*
X556171Y99725D01*
X555916Y99817D01*
X555685Y99887D01*
X555500Y99956D01*
X555315Y100002D01*
X555176Y100049D01*
X555083Y100095D01*
X555014Y100118D01*
X554991D01*
X554667Y100234D01*
X554435Y100349D01*
X554343Y100372D01*
X554273Y100396D01*
X554250Y100419D01*
X554227D01*
X553949Y100558D01*
X553741Y100673D01*
X553533Y100789D01*
X553394Y100882D01*
X553278Y100974D01*
X553186Y101044D01*
X553139Y101067D01*
X553116Y101090D01*
X553001Y101229D01*
X552931Y101368D01*
X552839Y101668D01*
X552816Y101807D01*
X552792Y101923D01*
Y101992D01*
Y102015D01*
X552816Y102270D01*
X552885Y102455D01*
X552954Y102594D01*
X552977Y102617D01*
Y102640D01*
X553139Y102825D01*
X553302Y102964D01*
X553417Y103057D01*
X553440Y103080D01*
X553463D01*
X553695Y103195D01*
X553903Y103288D01*
X553996Y103311D01*
X554065Y103334D01*
X554111Y103357D01*
X554134D01*
X554412Y103404D01*
X554667Y103450D01*
X554898D01*
X555245Y103427D01*
D02*
G37*
G36*
X553811Y97249D02*
X554158Y97133D01*
X554296Y97087D01*
X554435Y97040D01*
X554505Y96994D01*
X554528D01*
X554759Y96925D01*
X554944Y96855D01*
X555106Y96786D01*
X555245Y96740D01*
X555361Y96693D01*
X555430Y96670D01*
X555477Y96647D01*
X555500D01*
X555893Y96462D01*
X556194Y96300D01*
X556448Y96161D01*
X556657Y96046D01*
X556796Y95930D01*
X556911Y95860D01*
X556958Y95814D01*
X556981Y95791D01*
X557096Y95629D01*
X557189Y95467D01*
X557258Y95282D01*
X557305Y95097D01*
X557328Y94935D01*
X557351Y94796D01*
Y94703D01*
Y94680D01*
X557305Y94333D01*
X557281Y94171D01*
X557235Y94056D01*
X557189Y93963D01*
X557166Y93893D01*
X557119Y93847D01*
Y93824D01*
X556934Y93616D01*
X556749Y93454D01*
X556610Y93338D01*
X556564Y93292D01*
X556541D01*
X556286Y93176D01*
X556032Y93084D01*
X555939Y93061D01*
X555847Y93037D01*
X555801Y93014D01*
X555777D01*
X555477Y92968D01*
X555245Y92945D01*
X555153Y92922D01*
X555037D01*
X554597Y92945D01*
X554227Y93014D01*
X553903Y93107D01*
X553625Y93222D01*
X553394Y93338D01*
X553232Y93431D01*
X553139Y93500D01*
X553093Y93523D01*
X552839Y93778D01*
X552677Y94056D01*
X552538Y94333D01*
X552445Y94588D01*
X552399Y94819D01*
X552376Y95027D01*
X552353Y95143D01*
Y95189D01*
X552376Y95444D01*
X552399Y95675D01*
X552445Y95884D01*
X552515Y96069D01*
X552584Y96231D01*
X552630Y96346D01*
X552654Y96416D01*
X552677Y96439D01*
X552954Y96832D01*
X553070Y96994D01*
X553209Y97133D01*
X553302Y97226D01*
X553394Y97318D01*
X553440Y97364D01*
X553463Y97388D01*
X553811Y97249D01*
D02*
G37*
G36*
X561192Y90353D02*
X554852D01*
X555384Y90376D01*
X555893Y90399D01*
X556379Y90469D01*
X556819Y90538D01*
X557235Y90654D01*
X557605Y90746D01*
X557952Y90862D01*
X558276Y90978D01*
X558554Y91094D01*
X558786Y91209D01*
X558994Y91325D01*
X559179Y91418D01*
X559295Y91487D01*
X559410Y91556D01*
X559456Y91580D01*
X559480Y91603D01*
X559781Y91857D01*
X560035Y92112D01*
X560266Y92366D01*
X560475Y92644D01*
X560637Y92922D01*
X560775Y93199D01*
X560891Y93454D01*
X560984Y93708D01*
X561099Y94171D01*
X561146Y94356D01*
X561169Y94541D01*
X561192Y94680D01*
Y90353D01*
D02*
G37*
G36*
X460073Y103427D02*
X460374Y103381D01*
X460651Y103311D01*
X460883Y103219D01*
X461068Y103126D01*
X461184Y103057D01*
X461276Y103010D01*
X461299Y102987D01*
X461507Y102802D01*
X461646Y102594D01*
X461762Y102409D01*
X461831Y102224D01*
X461878Y102039D01*
X461901Y101900D01*
Y101807D01*
Y101784D01*
Y101553D01*
X461878Y101344D01*
X461831Y101159D01*
X461808Y100997D01*
X461762Y100882D01*
X461716Y100766D01*
X461693Y100720D01*
Y100696D01*
X461600Y100534D01*
X461507Y100372D01*
X461276Y100049D01*
X461160Y99933D01*
X461068Y99817D01*
X461021Y99748D01*
X460998Y99725D01*
X460744Y99817D01*
X460513Y99887D01*
X460327Y99956D01*
X460142Y100002D01*
X460003Y100049D01*
X459911Y100095D01*
X459841Y100118D01*
X459818D01*
X459494Y100234D01*
X459263Y100349D01*
X459170Y100372D01*
X459101Y100396D01*
X459078Y100419D01*
X459055D01*
X458777Y100558D01*
X458569Y100673D01*
X458360Y100789D01*
X458222Y100882D01*
X458106Y100974D01*
X458013Y101044D01*
X457967Y101067D01*
X457944Y101090D01*
X457828Y101229D01*
X457759Y101368D01*
X457666Y101668D01*
X457643Y101807D01*
X457620Y101923D01*
Y101992D01*
Y102015D01*
X457643Y102270D01*
X457713Y102455D01*
X457782Y102594D01*
X457805Y102617D01*
Y102640D01*
X457967Y102825D01*
X458129Y102964D01*
X458245Y103057D01*
X458268Y103080D01*
X458291D01*
X458522Y103195D01*
X458731Y103288D01*
X458823Y103311D01*
X458893Y103334D01*
X458939Y103357D01*
X458962D01*
X459240Y103404D01*
X459494Y103450D01*
X459726D01*
X460073Y103427D01*
D02*
G37*
G36*
X458638Y97249D02*
X458985Y97133D01*
X459124Y97087D01*
X459263Y97040D01*
X459332Y96994D01*
X459356D01*
X459587Y96925D01*
X459772Y96855D01*
X459934Y96786D01*
X460073Y96740D01*
X460188Y96693D01*
X460258Y96670D01*
X460304Y96647D01*
X460327D01*
X460721Y96462D01*
X461021Y96300D01*
X461276Y96161D01*
X461484Y96046D01*
X461623Y95930D01*
X461739Y95860D01*
X461785Y95814D01*
X461808Y95791D01*
X461924Y95629D01*
X462016Y95467D01*
X462086Y95282D01*
X462132Y95097D01*
X462155Y94935D01*
X462178Y94796D01*
Y94703D01*
Y94680D01*
X462132Y94333D01*
X462109Y94171D01*
X462063Y94056D01*
X462016Y93963D01*
X461993Y93893D01*
X461947Y93847D01*
Y93824D01*
X461762Y93616D01*
X461577Y93454D01*
X461438Y93338D01*
X461392Y93292D01*
X461369D01*
X461114Y93176D01*
X460860Y93084D01*
X460767Y93061D01*
X460674Y93037D01*
X460628Y93014D01*
X460605D01*
X460304Y92968D01*
X460073Y92945D01*
X459980Y92922D01*
X459865D01*
X459425Y92945D01*
X459055Y93014D01*
X458731Y93107D01*
X458453Y93222D01*
X458222Y93338D01*
X458060Y93431D01*
X457967Y93500D01*
X457921Y93523D01*
X457666Y93778D01*
X457504Y94056D01*
X457365Y94333D01*
X457273Y94588D01*
X457227Y94819D01*
X457203Y95027D01*
X457180Y95143D01*
Y95189D01*
X457203Y95444D01*
X457227Y95675D01*
X457273Y95884D01*
X457342Y96069D01*
X457412Y96231D01*
X457458Y96346D01*
X457481Y96416D01*
X457504Y96439D01*
X457782Y96832D01*
X457898Y96994D01*
X458036Y97133D01*
X458129Y97226D01*
X458222Y97318D01*
X458268Y97364D01*
X458291Y97388D01*
X458638Y97249D01*
D02*
G37*
G36*
X466020Y90353D02*
X459679D01*
X460212Y90376D01*
X460721Y90399D01*
X461207Y90469D01*
X461646Y90538D01*
X462063Y90654D01*
X462433Y90746D01*
X462780Y90862D01*
X463104Y90978D01*
X463382Y91094D01*
X463613Y91209D01*
X463821Y91325D01*
X464007Y91418D01*
X464122Y91487D01*
X464238Y91556D01*
X464284Y91580D01*
X464307Y91603D01*
X464608Y91857D01*
X464863Y92112D01*
X465094Y92366D01*
X465302Y92644D01*
X465464Y92922D01*
X465603Y93199D01*
X465719Y93454D01*
X465811Y93708D01*
X465927Y94171D01*
X465973Y94356D01*
X465997Y94541D01*
X466020Y94680D01*
Y90353D01*
D02*
G37*
G36*
X509475Y90399D02*
X503019D01*
X503598Y90423D01*
X504130Y90446D01*
X504593Y90492D01*
X505009Y90561D01*
X505334Y90631D01*
X505565Y90677D01*
X505657Y90700D01*
X505727D01*
X505750Y90723D01*
X505773D01*
X506190Y90862D01*
X506583Y91024D01*
X506907Y91186D01*
X507208Y91348D01*
X507439Y91487D01*
X507624Y91603D01*
X507717Y91672D01*
X507763Y91695D01*
X508064Y91950D01*
X508318Y92204D01*
X508550Y92482D01*
X508712Y92713D01*
X508851Y92922D01*
X508966Y93107D01*
X509013Y93199D01*
X509036Y93246D01*
X509175Y93593D01*
X509290Y93940D01*
X509360Y94287D01*
X509429Y94588D01*
X509452Y94842D01*
X509475Y95050D01*
Y90399D01*
D02*
G37*
G36*
X577112Y95097D02*
X573479Y105648D01*
X580745D01*
X577112Y95097D01*
D02*
G37*
G36*
X480297Y90700D02*
X473540D01*
X480297Y102663D01*
Y90700D01*
D02*
G37*
G36*
X436424D02*
X429668D01*
X436424Y102663D01*
Y90700D01*
D02*
G37*
G36*
X409490Y96462D02*
X405834D01*
X407662Y101738D01*
X409490Y96462D01*
D02*
G37*
G36*
X411457Y90700D02*
X403867D01*
X404908Y93708D01*
X410416D01*
X411457Y90700D01*
D02*
G37*
G36*
X399355D02*
X394681D01*
Y102756D01*
X399355D01*
Y90700D01*
D02*
G37*
G36*
X364623Y96462D02*
X360967D01*
X362795Y101738D01*
X364623Y96462D01*
D02*
G37*
G36*
X366590Y90700D02*
X359000D01*
X360041Y93708D01*
X365548D01*
X366590Y90700D01*
D02*
G37*
%LPC*%
G36*
X42412Y394210D02*
Y394117D01*
D01*
Y394210D01*
D02*
G37*
G36*
Y392683D02*
D01*
D01*
D01*
D02*
G37*
G36*
Y391479D02*
Y391456D01*
D01*
Y391479D01*
D02*
G37*
G36*
X54051Y399624D02*
Y389721D01*
X54028Y390230D01*
X53958Y390670D01*
X53889Y391063D01*
X53796Y391387D01*
X53681Y391665D01*
X53611Y391850D01*
X53542Y391965D01*
X53519Y392012D01*
X53310Y392336D01*
X53079Y392613D01*
X52848Y392868D01*
X52616Y393076D01*
X52431Y393238D01*
X52246Y393377D01*
X52154Y393446D01*
X52107Y393469D01*
X51830Y393608D01*
X51552Y393747D01*
X51251Y393863D01*
X50997Y393955D01*
X50765Y394025D01*
X50580Y394071D01*
X50464Y394117D01*
X50418D01*
X50048Y394210D01*
X49654Y394256D01*
X49307Y394302D01*
X48960Y394349D01*
X48660D01*
X48428Y394372D01*
X47664D01*
X47549Y394349D01*
X47364D01*
X47040Y394325D01*
X46808D01*
X46716Y394302D01*
X46600D01*
Y396755D01*
X53611D01*
Y399624D01*
X54051D01*
X42967D01*
Y391179D01*
X43407D01*
X43893Y391294D01*
X44147Y391340D01*
X44379Y391387D01*
X44564Y391433D01*
X44726Y391456D01*
X44818Y391479D01*
X44865D01*
X45489Y391572D01*
X45790Y391595D01*
X46045Y391618D01*
X46276Y391641D01*
X46600D01*
X47086Y391618D01*
X47317Y391595D01*
X47526D01*
X47711Y391572D01*
X47850Y391549D01*
X47965Y391526D01*
X47988D01*
X48266Y391479D01*
X48521Y391410D01*
X48752Y391340D01*
X48937Y391271D01*
X49099Y391202D01*
X49215Y391132D01*
X49284Y391109D01*
X49307Y391086D01*
X49562Y390901D01*
X49747Y390693D01*
X49863Y390554D01*
X49909Y390508D01*
Y390484D01*
X50002Y390345D01*
X50048Y390184D01*
X50140Y389906D01*
Y389767D01*
X50164Y389674D01*
Y389605D01*
Y389582D01*
Y389351D01*
X50140Y389142D01*
X50117Y388980D01*
X50071Y388842D01*
X50048Y388726D01*
X50002Y388656D01*
X49978Y388610D01*
Y388587D01*
X49816Y388356D01*
X49654Y388170D01*
X49516Y388008D01*
X49469Y387985D01*
X49446Y387962D01*
X49284Y387823D01*
X49099Y387731D01*
X48706Y387569D01*
X48544Y387523D01*
X48405Y387476D01*
X48312Y387453D01*
X48289D01*
X47757Y387384D01*
X47526Y387337D01*
X47317D01*
X47155Y387314D01*
X46901D01*
X46508Y387337D01*
X46137Y387361D01*
X45767Y387430D01*
X45466Y387499D01*
X45189Y387546D01*
X44980Y387615D01*
X44841Y387638D01*
X44818Y387661D01*
X44795D01*
X44402Y387800D01*
X44032Y387962D01*
X43708Y388124D01*
X43407Y388263D01*
X43176Y388402D01*
X42990Y388494D01*
X42875Y388564D01*
X42828Y388587D01*
X42412D01*
Y385278D01*
X42713Y385162D01*
X43060Y385047D01*
X43384Y384931D01*
X43708Y384838D01*
X43985Y384769D01*
X44217Y384723D01*
X44309Y384700D01*
X44379D01*
X44402Y384676D01*
X44425D01*
X44911Y384584D01*
X45420Y384514D01*
X45929Y384468D01*
X46415Y384422D01*
X46831Y384399D01*
X47017D01*
X47155Y384376D01*
X47456D01*
X48012Y384399D01*
X48544Y384422D01*
X49007Y384491D01*
X49423Y384561D01*
X49747Y384607D01*
X49886Y384653D01*
X50002Y384676D01*
X50094Y384700D01*
X50164D01*
X50187Y384723D01*
X50210D01*
X50649Y384885D01*
X51043Y385047D01*
X51413Y385255D01*
X51737Y385440D01*
X51992Y385602D01*
X52177Y385741D01*
X52292Y385833D01*
X52339Y385857D01*
X52639Y386134D01*
X52894Y386435D01*
X53102Y386713D01*
X53287Y386990D01*
X53426Y387222D01*
X53542Y387407D01*
X53588Y387523D01*
X53611Y387569D01*
X53750Y387939D01*
X53866Y388332D01*
X53935Y388680D01*
X54005Y389027D01*
X54028Y389304D01*
X54051Y389536D01*
Y384700D01*
Y399624D01*
D02*
G37*
G36*
X42412Y389767D02*
Y389721D01*
D01*
Y389767D01*
D02*
G37*
G36*
X70873Y399624D02*
X66916D01*
X63284Y389073D01*
X59651Y399624D01*
X55624D01*
X61085Y384676D01*
X55624D01*
D01*
X70873D01*
D01*
X65389D01*
X70873Y399624D01*
D02*
G37*
G36*
X42412Y388587D02*
D01*
D01*
D01*
D02*
G37*
G36*
X33226Y398005D02*
X25127D01*
X30472D01*
Y392683D01*
X25127D01*
Y389975D01*
X30472D01*
Y384653D01*
X38571D01*
X33226D01*
Y389975D01*
X38571D01*
Y392683D01*
X33226D01*
Y398005D01*
D02*
G37*
G36*
X229406Y472763D02*
Y462212D01*
X229359Y462767D01*
X229267Y463253D01*
X229151Y463693D01*
X228989Y464063D01*
X228827Y464341D01*
X228711Y464549D01*
X228619Y464688D01*
X228573Y464734D01*
X228225Y465081D01*
X227832Y465382D01*
X227416Y465636D01*
X226999Y465868D01*
X226629Y466030D01*
X226444Y466099D01*
X226305Y466169D01*
X226189Y466215D01*
X226097Y466238D01*
X226050Y466261D01*
X226027D01*
X225703Y466354D01*
X225403Y466446D01*
X225125Y466516D01*
X224870Y466585D01*
X224662Y466631D01*
X224523Y466678D01*
X224431Y466701D01*
X224384D01*
X223829Y466816D01*
X223551Y466886D01*
X223320Y466932D01*
X223112Y466978D01*
X222950Y467025D01*
X222857Y467048D01*
X222811D01*
X222371Y467140D01*
X222024Y467233D01*
X221723Y467326D01*
X221492Y467418D01*
X221307Y467487D01*
X221191Y467557D01*
X221122Y467580D01*
X221099Y467603D01*
X220960Y467742D01*
X220844Y467881D01*
X220775Y468043D01*
X220705Y468182D01*
X220682Y468321D01*
X220659Y468436D01*
Y468506D01*
Y468529D01*
X220682Y468668D01*
X220705Y468806D01*
X220798Y469015D01*
X220844Y469107D01*
X220890Y469177D01*
X220937Y469200D01*
Y469223D01*
X221168Y469431D01*
X221376Y469570D01*
X221469Y469616D01*
X221538Y469663D01*
X221584Y469686D01*
X221608D01*
X221932Y469801D01*
X222232Y469894D01*
X222348Y469917D01*
X222441D01*
X222487Y469940D01*
X222510D01*
X222857Y469986D01*
X223181Y470010D01*
X223482D01*
X223991Y469986D01*
X224477Y469940D01*
X224940Y469848D01*
X225333Y469778D01*
X225680Y469686D01*
X225819Y469639D01*
X225935Y469593D01*
X226027Y469570D01*
X226097Y469547D01*
X226143Y469524D01*
X226166D01*
X226652Y469339D01*
X227069Y469130D01*
X227439Y468922D01*
X227763Y468737D01*
X228040Y468575D01*
X228225Y468436D01*
X228341Y468344D01*
X228388Y468321D01*
X228804D01*
Y471745D01*
X228388Y471907D01*
X227971Y472046D01*
X227531Y472162D01*
X227138Y472277D01*
X226791Y472347D01*
X226652Y472393D01*
X226536Y472416D01*
X226421Y472439D01*
X226351D01*
X226305Y472463D01*
X226282D01*
X225750Y472555D01*
X225217Y472648D01*
X224732Y472694D01*
X224292Y472717D01*
X223922Y472740D01*
X223783Y472763D01*
X223389D01*
X222857Y472740D01*
X222325Y472717D01*
X221839Y472648D01*
X221376Y472555D01*
X220960Y472463D01*
X220566Y472347D01*
X220196Y472208D01*
X219872Y472092D01*
X219571Y471977D01*
X219294Y471838D01*
X219085Y471722D01*
X218900Y471629D01*
X218738Y471537D01*
X218646Y471491D01*
X218576Y471444D01*
X218553Y471421D01*
X218229Y471167D01*
X217952Y470889D01*
X217697Y470611D01*
X217489Y470334D01*
X217304Y470056D01*
X217165Y469755D01*
X217026Y469501D01*
X216933Y469223D01*
X216864Y468968D01*
X216795Y468760D01*
X216748Y468552D01*
X216725Y468367D01*
Y468228D01*
X216702Y468112D01*
Y468043D01*
Y468020D01*
X216748Y467464D01*
X216841Y466955D01*
X216957Y466493D01*
X217119Y466122D01*
X217257Y465798D01*
X217396Y465567D01*
X217442Y465498D01*
X217489Y465428D01*
X217512Y465405D01*
Y465382D01*
X217674Y465197D01*
X217859Y465012D01*
X218299Y464688D01*
X218738Y464410D01*
X219201Y464179D01*
X219594Y463993D01*
X219780Y463901D01*
X219942Y463855D01*
X220057Y463808D01*
X220150Y463762D01*
X220219Y463739D01*
X220242D01*
X220867Y463554D01*
X221168Y463461D01*
X221446Y463415D01*
X221654Y463345D01*
X221839Y463299D01*
X221955Y463276D01*
X222001D01*
X222348Y463207D01*
X222695Y463160D01*
X222996Y463091D01*
X223251Y463022D01*
X223482Y462975D01*
X223667Y462952D01*
X223760Y462906D01*
X223806D01*
X224083Y462836D01*
X224338Y462744D01*
X224523Y462651D01*
X224708Y462559D01*
X224847Y462489D01*
X224940Y462420D01*
X224986Y462374D01*
X225009Y462351D01*
X225148Y462212D01*
X225264Y462073D01*
X225333Y461934D01*
X225403Y461795D01*
X225426Y461679D01*
X225449Y461610D01*
Y461541D01*
Y461517D01*
X225426Y461332D01*
X225403Y461170D01*
X225356Y461032D01*
X225310Y460916D01*
X225240Y460823D01*
X225194Y460754D01*
X225171Y460731D01*
X225148Y460708D01*
X224917Y460522D01*
X224685Y460384D01*
X224593Y460314D01*
X224500Y460268D01*
X224454Y460245D01*
X224431D01*
X224130Y460152D01*
X223829Y460083D01*
X223690Y460060D01*
X223575D01*
X223505Y460037D01*
X223482D01*
X223274Y460014D01*
X222927D01*
X222811Y459990D01*
X222556D01*
X222047Y460014D01*
X221538Y460060D01*
X221052Y460152D01*
X220613Y460245D01*
X220242Y460337D01*
X220104Y460384D01*
X219965Y460430D01*
X219849Y460453D01*
X219780Y460476D01*
X219733Y460499D01*
X219710D01*
X219178Y460708D01*
X218669Y460939D01*
X218206Y461194D01*
X217813Y461425D01*
X217489Y461656D01*
X217234Y461818D01*
X217142Y461888D01*
X217072Y461934D01*
X217049Y461980D01*
X216609D01*
Y458371D01*
X217512Y458047D01*
X217952Y457908D01*
X218345Y457792D01*
X218692Y457700D01*
X218947Y457630D01*
X219039Y457584D01*
X219109D01*
X219155Y457561D01*
X219178D01*
X219710Y457445D01*
X220266Y457376D01*
X220821Y457306D01*
X221330Y457283D01*
X221770Y457260D01*
X221955Y457237D01*
X216609D01*
D01*
X229406D01*
Y472763D01*
D02*
G37*
G36*
X252684Y472463D02*
X248773D01*
X246367Y462165D01*
X243729Y472463D01*
X239888D01*
X237134Y462165D01*
X234820Y472463D01*
X230817D01*
X234820Y457514D01*
X230817D01*
D01*
X252684D01*
D01*
X248658D01*
X252684Y472463D01*
D02*
G37*
G36*
X261130D02*
X255252D01*
Y457514D01*
X269391D01*
X260505D01*
X261153Y457537D01*
X261754Y457561D01*
X262287Y457607D01*
X262726Y457653D01*
X262935Y457676D01*
X263097Y457700D01*
X263259D01*
X263374Y457723D01*
X263467Y457746D01*
X263536Y457769D01*
X263606D01*
X264092Y457885D01*
X264531Y458023D01*
X264948Y458185D01*
X265295Y458324D01*
X265596Y458463D01*
X265827Y458579D01*
X265966Y458671D01*
X265989Y458694D01*
X266012D01*
X266544Y459065D01*
X267007Y459458D01*
X267424Y459875D01*
X267771Y460291D01*
X268048Y460661D01*
X268164Y460800D01*
X268257Y460939D01*
X268326Y461055D01*
X268372Y461147D01*
X268419Y461194D01*
Y461217D01*
X268743Y461865D01*
X268974Y462513D01*
X269159Y463137D01*
X269275Y463716D01*
X269321Y463970D01*
X269344Y464225D01*
X269367Y464433D01*
Y464618D01*
X269391Y464757D01*
Y465058D01*
Y464965D01*
X269344Y465752D01*
X269252Y466469D01*
X269113Y467117D01*
X269020Y467395D01*
X268951Y467673D01*
X268858Y467904D01*
X268766Y468112D01*
X268696Y468297D01*
X268627Y468459D01*
X268581Y468575D01*
X268534Y468668D01*
X268488Y468714D01*
Y468737D01*
X268141Y469315D01*
X267748Y469801D01*
X267331Y470241D01*
X266938Y470611D01*
X266591Y470889D01*
X266452Y471005D01*
X266313Y471120D01*
X266197Y471190D01*
X266128Y471236D01*
X266082Y471282D01*
X266058D01*
X265711Y471491D01*
X265318Y471653D01*
X264948Y471791D01*
X264601Y471930D01*
X264277Y472023D01*
X264045Y472092D01*
X263953Y472115D01*
X263883D01*
X263837Y472138D01*
X263814D01*
X263305Y472254D01*
X262773Y472324D01*
X262240Y472393D01*
X261754Y472416D01*
X261315Y472439D01*
X261130Y472463D01*
D02*
G37*
%LPD*%
G36*
X229406Y457237D02*
X222418D01*
X222996Y457260D01*
X223551Y457306D01*
X224083Y457352D01*
X224569Y457445D01*
X225032Y457561D01*
X225449Y457676D01*
X225819Y457792D01*
X226166Y457931D01*
X226467Y458047D01*
X226745Y458162D01*
X226976Y458278D01*
X227161Y458394D01*
X227323Y458486D01*
X227416Y458532D01*
X227485Y458579D01*
X227508Y458602D01*
X227832Y458880D01*
X228133Y459157D01*
X228388Y459458D01*
X228596Y459759D01*
X228781Y460060D01*
X228943Y460360D01*
X229058Y460638D01*
X229174Y460939D01*
X229244Y461194D01*
X229313Y461425D01*
X229359Y461656D01*
X229382Y461842D01*
Y462003D01*
X229406Y462119D01*
Y457237D01*
D02*
G37*
G36*
X244400Y457514D02*
X239101D01*
X241693Y467233D01*
X244400Y457514D01*
D02*
G37*
G36*
X260875Y469639D02*
X261199Y469616D01*
X261454D01*
X261662Y469593D01*
X261801Y469570D01*
X261893Y469547D01*
X261917D01*
X262379Y469431D01*
X262588Y469362D01*
X262773Y469315D01*
X262911Y469246D01*
X263050Y469200D01*
X263120Y469177D01*
X263143Y469154D01*
X263559Y468922D01*
X263906Y468644D01*
X264184Y468367D01*
X264415Y468112D01*
X264601Y467881D01*
X264739Y467673D01*
X264809Y467557D01*
X264832Y467534D01*
Y467511D01*
X265017Y467094D01*
X265156Y466678D01*
X265249Y466261D01*
X265318Y465868D01*
X265364Y465521D01*
Y465359D01*
X265387Y465243D01*
Y465127D01*
Y465058D01*
Y465012D01*
Y464988D01*
X265364Y464456D01*
X265318Y463970D01*
X265225Y463554D01*
X265133Y463207D01*
X265040Y462906D01*
X264948Y462698D01*
X264902Y462559D01*
X264878Y462536D01*
Y462513D01*
X264670Y462165D01*
X264439Y461842D01*
X264184Y461564D01*
X263930Y461332D01*
X263698Y461170D01*
X263513Y461032D01*
X263397Y460939D01*
X263374Y460916D01*
X263351D01*
X262888Y460708D01*
X262680Y460615D01*
X262472Y460546D01*
X262310Y460499D01*
X262194Y460476D01*
X262102Y460453D01*
X262078D01*
X261824Y460407D01*
X261500Y460384D01*
X261176Y460360D01*
X260829D01*
X260528Y460337D01*
X259117D01*
Y469663D01*
X260505D01*
X260875Y469639D01*
D02*
G37*
%LPC*%
G36*
X81347Y138624D02*
X68135Y138624D01*
Y135732D01*
X72809D01*
Y123676D01*
X76986Y123676D01*
X76673D01*
Y135732D01*
X81347D01*
Y124000D01*
Y138624D01*
D02*
G37*
G36*
X67950Y138624D02*
X53534D01*
Y123676D01*
X57398D01*
Y129160D01*
X59134D01*
X63206Y123676D01*
X67950D01*
X62951Y130063D01*
X63461Y130340D01*
X63877Y130618D01*
X64271Y130919D01*
X64571Y131197D01*
X64803Y131428D01*
X64988Y131636D01*
X65080Y131752D01*
X65127Y131798D01*
X65381Y132215D01*
X65589Y132678D01*
X65728Y133117D01*
X65821Y133557D01*
X65867Y133927D01*
X65890Y134089D01*
X65913Y134228D01*
Y134344D01*
Y134436D01*
Y134482D01*
Y134506D01*
X65890Y134945D01*
X65844Y135316D01*
X65751Y135663D01*
X65659Y135963D01*
X65566Y136195D01*
X65474Y136357D01*
X65427Y136449D01*
X65404Y136496D01*
X65219Y136796D01*
X64988Y137051D01*
X64756Y137259D01*
X64548Y137467D01*
X64363Y137606D01*
X64201Y137722D01*
X64109Y137791D01*
X64062Y137815D01*
X63738Y137977D01*
X63437Y138115D01*
X63137Y138231D01*
X62859Y138324D01*
X62604Y138393D01*
X62419Y138439D01*
X62304Y138462D01*
X62257D01*
X61887Y138509D01*
X61494Y138555D01*
X61123Y138578D01*
X60776Y138601D01*
X60452Y138624D01*
X67950D01*
D02*
G37*
G36*
X51405D02*
X35902D01*
X41409D01*
X35902Y123676D01*
X39789D01*
X40830Y126685D01*
X46337D01*
X47379Y123676D01*
X51405D01*
X45875Y138624D01*
X51405D01*
D01*
D02*
G37*
G36*
X33981D02*
X20653D01*
Y129068D01*
X20676Y128559D01*
X20722Y128096D01*
X20815Y127656D01*
X20907Y127240D01*
X21046Y126870D01*
X21185Y126523D01*
X21324Y126199D01*
X21486Y125921D01*
X21648Y125666D01*
X21786Y125458D01*
X21925Y125273D01*
X22064Y125111D01*
X22157Y124995D01*
X22249Y124903D01*
X22296Y124857D01*
X22319Y124833D01*
X22643Y124579D01*
X23013Y124347D01*
X23406Y124162D01*
X23800Y124000D01*
X24216Y123862D01*
X24633Y123723D01*
X25443Y123561D01*
X25813Y123491D01*
X26160Y123445D01*
X26484Y123422D01*
X26762Y123399D01*
X26970Y123376D01*
X20653D01*
X33981D01*
Y138624D01*
D02*
G37*
%LPD*%
G36*
X59458Y135848D02*
X59758D01*
X59874Y135825D01*
X59967D01*
X60337Y135778D01*
X60499Y135755D01*
X60638Y135709D01*
X60730Y135686D01*
X60823Y135663D01*
X60869Y135639D01*
X60892D01*
X61077Y135547D01*
X61239Y135431D01*
X61378Y135339D01*
X61494Y135223D01*
X61586Y135130D01*
X61633Y135061D01*
X61679Y135015D01*
Y134992D01*
X61818Y134668D01*
X61887Y134367D01*
X61910Y134251D01*
Y134135D01*
Y134066D01*
Y134043D01*
Y133811D01*
X61887Y133626D01*
X61864Y133441D01*
X61818Y133302D01*
X61795Y133187D01*
X61748Y133094D01*
X61725Y133048D01*
Y133025D01*
X61563Y132770D01*
X61355Y132562D01*
X61262Y132469D01*
X61193Y132400D01*
X61147Y132377D01*
X61123Y132354D01*
X60776Y132145D01*
X60452Y132030D01*
X60314Y131983D01*
X60198Y131960D01*
X60105Y131937D01*
X60082D01*
X59851Y131914D01*
X59596Y131891D01*
X59342D01*
X59087Y131868D01*
X57398D01*
Y135871D01*
X59249D01*
X59458Y135848D01*
D02*
G37*
G36*
X45412Y129438D02*
X41756D01*
X43584Y134714D01*
X45412Y129438D01*
D02*
G37*
G36*
X30117Y129299D02*
X30094Y128744D01*
X30001Y128258D01*
X29908Y127842D01*
X29770Y127517D01*
X29654Y127263D01*
X29538Y127078D01*
X29446Y126985D01*
X29423Y126939D01*
X29145Y126708D01*
X28798Y126523D01*
X28451Y126407D01*
X28104Y126314D01*
X27780Y126268D01*
X27525Y126245D01*
X27432Y126222D01*
X27294D01*
X26785Y126245D01*
X26345Y126337D01*
X25975Y126453D01*
X25674Y126592D01*
X25443Y126731D01*
X25281Y126847D01*
X25188Y126939D01*
X25165Y126962D01*
X24957Y127286D01*
X24795Y127656D01*
X24679Y128027D01*
X24609Y128420D01*
X24563Y128767D01*
X24517Y129045D01*
Y129160D01*
Y129230D01*
Y129276D01*
Y129299D01*
Y138624D01*
X30117D01*
Y129299D01*
D02*
G37*
G36*
X33981Y123376D02*
X27294D01*
X27895Y123399D01*
X28451Y123445D01*
X28983Y123514D01*
X29469Y123607D01*
X29908Y123723D01*
X30302Y123838D01*
X30672Y123977D01*
X31019Y124116D01*
X31297Y124232D01*
X31551Y124371D01*
X31783Y124486D01*
X31945Y124602D01*
X32084Y124694D01*
X32199Y124764D01*
X32246Y124810D01*
X32269Y124833D01*
X32569Y125134D01*
X32824Y125435D01*
X33055Y125782D01*
X33264Y126129D01*
X33426Y126476D01*
X33565Y126823D01*
X33680Y127170D01*
X33773Y127517D01*
X33842Y127842D01*
X33888Y128142D01*
X33935Y128397D01*
X33958Y128628D01*
X33981Y128836D01*
Y123376D01*
D02*
G37*
%LPC*%
G36*
X505599Y427474D02*
X505583D01*
X503431D01*
X505599D01*
D02*
G37*
G36*
X520832D02*
X516482D01*
X513266Y422800D01*
X510142Y427474D01*
X513508D01*
X505699D01*
X510882Y420046D01*
X505583Y412526D01*
X509818D01*
X513127Y417431D01*
X516343Y412526D01*
X520832D01*
X515510Y420208D01*
X520763Y427474D01*
X520832D01*
D02*
G37*
G36*
X503431D02*
X491168D01*
Y412526D01*
X495032D01*
Y418010D01*
X496767D01*
X500840Y412526D01*
X505583D01*
X500585Y418912D01*
X501094Y419190D01*
X501511Y419468D01*
X501904Y419769D01*
X502205Y420046D01*
X502436Y420278D01*
X502622Y420486D01*
X502714Y420602D01*
X502761Y420648D01*
X503015Y421064D01*
X503223Y421527D01*
X503362Y421967D01*
X503455Y422407D01*
X503501Y422777D01*
X503524Y422939D01*
X503547Y423078D01*
Y423193D01*
Y423286D01*
Y423332D01*
Y423355D01*
X503524Y423795D01*
X503478Y424165D01*
X503385Y424512D01*
X503293Y424813D01*
X503200Y425044D01*
X503108Y425206D01*
X503061Y425299D01*
X503038Y425345D01*
X502853Y425646D01*
X502622Y425900D01*
X502390Y426109D01*
X502182Y426317D01*
X501997Y426456D01*
X501835Y426572D01*
X501742Y426641D01*
X501696Y426664D01*
X501372Y426826D01*
X501071Y426965D01*
X500770Y427081D01*
X500493Y427173D01*
X500238Y427243D01*
X500053Y427289D01*
X499938Y427312D01*
X499891D01*
X499521Y427358D01*
X499128Y427405D01*
X498757Y427428D01*
X498410Y427451D01*
X498086Y427474D01*
X503431D01*
D02*
G37*
%LPD*%
G36*
X497091Y424697D02*
X497392D01*
X497508Y424674D01*
X497600D01*
X497971Y424628D01*
X498133Y424605D01*
X498271Y424558D01*
X498364Y424535D01*
X498456Y424512D01*
X498503Y424489D01*
X498526D01*
X498711Y424397D01*
X498873Y424281D01*
X499012Y424188D01*
X499128Y424072D01*
X499220Y423980D01*
X499266Y423911D01*
X499313Y423864D01*
Y423841D01*
X499451Y423517D01*
X499521Y423216D01*
X499544Y423101D01*
Y422985D01*
Y422916D01*
Y422892D01*
Y422661D01*
X499521Y422476D01*
X499498Y422291D01*
X499451Y422152D01*
X499428Y422036D01*
X499382Y421944D01*
X499359Y421897D01*
Y421874D01*
X499197Y421620D01*
X498989Y421412D01*
X498896Y421319D01*
X498827Y421250D01*
X498781Y421226D01*
X498757Y421203D01*
X498410Y420995D01*
X498086Y420879D01*
X497948Y420833D01*
X497832Y420810D01*
X497739Y420787D01*
X497716D01*
X497485Y420764D01*
X497230Y420741D01*
X496976D01*
X496721Y420717D01*
X495032D01*
Y424720D01*
X496883D01*
X497091Y424697D01*
D02*
G37*
D10*
X363160Y428600D02*
G03*
X363160Y428600I-2000J0D01*
G01*
X122000Y487860D02*
G03*
X122000Y487860I-2000J0D01*
G01*
X108910Y200000D02*
G03*
X108910Y200000I-2000J0D01*
G01*
D11*
X375000Y343000D02*
G03*
X425000Y343000I25000J0D01*
G01*
Y407000D02*
G03*
X375000Y407000I-25000J0D01*
G01*
X185000Y118000D02*
G03*
X235000Y118000I25000J0D01*
G01*
Y182000D02*
G03*
X185000Y182000I-25000J0D01*
G01*
X312000Y440000D02*
X365000D01*
X312000D02*
Y468000D01*
X365000D01*
Y440000D02*
Y468000D01*
X106030Y451030D02*
Y478970D01*
Y451030D02*
X210170D01*
Y478970D01*
X106030D02*
X210170D01*
X606000Y330000D02*
X696000D01*
X606000Y170000D02*
X696000Y170000D01*
X512000Y330000D02*
X570000D01*
X512000Y170000D02*
Y330000D01*
Y170000D02*
X570000D01*
X157000Y52000D02*
X165000D01*
X160982Y56000D02*
X161000Y48000D01*
X104000Y47000D02*
X156000D01*
Y21000D02*
Y47000D01*
X104000Y21000D02*
X156000D01*
X104000D02*
Y47000D01*
X129000Y410000D02*
X137000D01*
X132982Y414000D02*
X133000Y406000D01*
X76000Y405000D02*
X128000D01*
Y379000D02*
Y405000D01*
X76000Y379000D02*
X128000D01*
X76000D02*
Y405000D01*
X582000Y438000D02*
X590000D01*
X585982Y442000D02*
X586000Y434000D01*
X529000Y433000D02*
X581000D01*
Y407000D02*
Y433000D01*
X529000Y407000D02*
X581000D01*
X529000D02*
Y433000D01*
X582000Y479000D02*
X590000D01*
X585982Y483000D02*
X586000Y475000D01*
X529000Y474000D02*
X581000D01*
Y448000D02*
Y474000D01*
X529000Y448000D02*
X581000D01*
X529000D02*
Y474000D01*
X369000Y288000D02*
X373000Y284000D01*
X369000Y288000D02*
Y296000D01*
X373000Y300000D01*
X381000D01*
X385000Y296000D01*
X373000Y284000D02*
X381000D01*
X385000Y288000D01*
Y296000D01*
X415000Y38000D02*
X419000Y34000D01*
X415000Y38000D02*
Y46000D01*
X419000Y50000D01*
X427000D01*
X431000Y46000D01*
X419000Y34000D02*
X427000D01*
X431000Y38000D01*
Y46000D01*
X404681Y248564D02*
X408681Y244564D01*
X404681Y248564D02*
Y256564D01*
X408681Y260564D01*
X416681D01*
X420681Y256564D01*
X408681Y244564D02*
X416681D01*
X420681Y248564D01*
Y256564D01*
X447000Y350000D02*
X451000Y346000D01*
X447000Y350000D02*
Y358000D01*
X451000Y362000D01*
X459000D01*
X463000Y358000D01*
X451000Y346000D02*
X459000D01*
X463000Y350000D01*
Y358000D01*
X35000Y371000D02*
X39000Y375000D01*
X47000D01*
X51000Y371000D01*
Y363000D02*
Y371000D01*
X47000Y359000D02*
X51000Y363000D01*
X35000D02*
Y371000D01*
Y363000D02*
X39000Y359000D01*
X47000D01*
X4040Y146660D02*
X98020D01*
Y354940D01*
X4040D02*
X98020D01*
X4040Y146660D02*
Y354940D01*
X85320Y174600D02*
X98020Y161900D01*
X85320Y174600D02*
X98020Y187300D01*
X85320Y230480D02*
X98020D01*
X85320D02*
Y271120D01*
X98020D01*
X170000Y349000D02*
X365000D01*
X170000Y246000D02*
Y349000D01*
X375000Y343000D02*
Y407000D01*
X425000Y343000D02*
Y407000D01*
X185000Y118000D02*
Y182000D01*
X235000Y118000D02*
Y182000D01*
X365000Y246000D02*
Y349000D01*
X170000Y246000D02*
X365000D01*
D12*
X325504Y489498D02*
X335501Y474502D01*
Y489498D02*
X325504Y474502D01*
X350496D02*
X340499D01*
X350496Y484499D01*
Y486998D01*
X347997Y489498D01*
X342998D01*
X340499Y486998D01*
X435006Y57498D02*
X445003D01*
X440005D01*
Y42502D01*
X450002D02*
Y57498D01*
X457499D01*
X459998Y54998D01*
Y50000D01*
X457499Y47501D01*
X450002D01*
X474994Y57498D02*
X464997D01*
Y50000D01*
X469995Y52499D01*
X472494D01*
X474994Y50000D01*
Y45002D01*
X472494Y42502D01*
X467496D01*
X464997Y45002D01*
X425006Y260498D02*
X435003D01*
X430005D01*
Y245502D01*
X440002D02*
Y260498D01*
X447499D01*
X449998Y257998D01*
Y253000D01*
X447499Y250501D01*
X440002D01*
X462494Y245502D02*
Y260498D01*
X454997Y253000D01*
X464994D01*
X467006Y361498D02*
X477003D01*
X472005D01*
Y346502D01*
X482002D02*
Y361498D01*
X489499D01*
X491998Y358998D01*
Y354000D01*
X489499Y351501D01*
X482002D01*
X496997Y358998D02*
X499496Y361498D01*
X504494D01*
X506994Y358998D01*
Y356499D01*
X504494Y354000D01*
X501995D01*
X504494D01*
X506994Y351501D01*
Y349002D01*
X504494Y346502D01*
X499496D01*
X496997Y349002D01*
X389007Y299498D02*
X399003D01*
X394005D01*
Y284502D01*
X404002D02*
Y299498D01*
X411499D01*
X413998Y296998D01*
Y292000D01*
X411499Y289501D01*
X404002D01*
X428993Y284502D02*
X418997D01*
X428993Y294499D01*
Y296998D01*
X426494Y299498D01*
X421496D01*
X418997Y296998D01*
X53506Y374497D02*
X63502D01*
X58504D01*
Y359502D01*
X68501D02*
Y374497D01*
X75998D01*
X78498Y371998D01*
Y367000D01*
X75998Y364501D01*
X68501D01*
X83496Y359502D02*
X88494D01*
X85995D01*
Y374497D01*
X83496Y371998D01*
X592502Y395006D02*
X607497D01*
X600000D01*
Y405003D01*
X592502D01*
X607497D01*
X592502Y410002D02*
X607497D01*
Y419998D01*
Y432494D02*
X592502D01*
X600000Y424997D01*
Y434994D01*
X592502Y450006D02*
X607498D01*
X600000D01*
Y460003D01*
X592502D01*
X607498D01*
X592502Y465002D02*
X607498D01*
Y474998D01*
X595002Y479997D02*
X592502Y482496D01*
Y487494D01*
X595002Y489994D01*
X597501D01*
X600000Y487494D01*
Y484995D01*
Y487494D01*
X602499Y489994D01*
X604998D01*
X607498Y487494D01*
Y482496D01*
X604998Y479997D01*
X110007Y76498D02*
Y61502D01*
Y69000D01*
X120003D01*
Y76498D01*
Y61502D01*
X125002Y76498D02*
Y61502D01*
X134998D01*
X149993D02*
X139997D01*
X149993Y71499D01*
Y73998D01*
X147494Y76498D01*
X142496D01*
X139997Y73998D01*
X102506Y432498D02*
Y417502D01*
Y425000D01*
X112502D01*
Y432498D01*
Y417502D01*
X117501Y432498D02*
Y417502D01*
X127498D01*
X132496D02*
X137494D01*
X134995D01*
Y432498D01*
X132496Y429998D01*
X162003Y441498D02*
X172000Y426502D01*
Y441498D02*
X162003Y426502D01*
X176998D02*
X181997D01*
X179498D01*
Y441498D01*
X176998Y438998D01*
X190007Y232498D02*
Y217502D01*
X197504D01*
X200003Y220002D01*
Y222501D01*
X197504Y225000D01*
X190007D01*
X197504D01*
X200003Y227499D01*
Y229998D01*
X197504Y232498D01*
X190007D01*
X214998Y220002D02*
Y229998D01*
X212499Y232498D01*
X207501D01*
X205002Y229998D01*
Y220002D01*
X207501Y217502D01*
X212499D01*
X210000Y222501D02*
X214998Y217502D01*
X212499D02*
X214998Y220002D01*
X229993Y217502D02*
X219997D01*
X229993Y227499D01*
Y229998D01*
X227494Y232498D01*
X222496D01*
X219997Y229998D01*
X427506Y333498D02*
Y318502D01*
X435003D01*
X437502Y321002D01*
Y323501D01*
X435003Y326000D01*
X427506D01*
X435003D01*
X437502Y328499D01*
Y330998D01*
X435003Y333498D01*
X427506D01*
X452498Y321002D02*
Y330998D01*
X449998Y333498D01*
X445000D01*
X442501Y330998D01*
Y321002D01*
X445000Y318502D01*
X449998D01*
X447499Y323501D02*
X452498Y318502D01*
X449998D02*
X452498Y321002D01*
X457496Y318502D02*
X462494D01*
X459995D01*
Y333498D01*
X457496Y330998D01*
X112506Y318498D02*
X122502Y303502D01*
Y318498D02*
X112506Y303502D01*
X127501D02*
Y318498D01*
X134998D01*
X137498Y315998D01*
Y311000D01*
X134998Y308501D01*
X127501D01*
X142496Y303502D02*
X147494D01*
X144995D01*
Y318498D01*
X142496Y315998D01*
D13*
X479843Y292383D02*
Y302539D01*
X484922Y307617D01*
X490000Y302539D01*
Y292383D01*
Y300000D01*
X479843D01*
X495078Y292383D02*
X500157D01*
X497618D01*
Y307617D01*
X495078Y305078D01*
D14*
X107000Y53500D02*
D03*
X79000Y411500D02*
D03*
X532000Y439500D02*
D03*
Y480500D02*
D03*
M02*
