G04*
G04 #@! TF.GenerationSoftware,Altium Limited,Altium Designer,22.11.1 (43)*
G04*
G04 Layer_Physical_Order=2*
G04 Layer_Color=16711680*
%FSLAX44Y44*%
%MOMM*%
G71*
G04*
G04 #@! TF.SameCoordinates,EED40AE4-AA45-4B6A-A555-91E3D054F81B*
G04*
G04*
G04 #@! TF.FilePolarity,Positive*
G04*
G01*
G75*
%ADD10C,0.4000*%
%ADD27C,1.4000*%
%ADD29C,0.5000*%
%ADD30C,0.3000*%
%ADD32C,0.8000*%
G04:AMPARAMS|DCode=33|XSize=2mm|YSize=2mm|CornerRadius=0.5mm|HoleSize=0mm|Usage=FLASHONLY|Rotation=180.000|XOffset=0mm|YOffset=0mm|HoleType=Round|Shape=RoundedRectangle|*
%AMROUNDEDRECTD33*
21,1,2.0000,1.0000,0,0,180.0*
21,1,1.0000,2.0000,0,0,180.0*
1,1,1.0000,-0.5000,0.5000*
1,1,1.0000,0.5000,0.5000*
1,1,1.0000,0.5000,-0.5000*
1,1,1.0000,-0.5000,-0.5000*
%
%ADD33ROUNDEDRECTD33*%
%ADD34C,2.0000*%
%ADD35C,1.8000*%
%ADD36C,3.3000*%
%ADD37C,2.6000*%
%ADD38C,7.0000*%
G04:AMPARAMS|DCode=39|XSize=1mm|YSize=1mm|CornerRadius=0mm|HoleSize=0mm|Usage=FLASHONLY|Rotation=90.000|XOffset=0mm|YOffset=0mm|HoleType=Round|Shape=Octagon|*
%AMOCTAGOND39*
4,1,8,0.2500,0.5000,-0.2500,0.5000,-0.5000,0.2500,-0.5000,-0.2500,-0.2500,-0.5000,0.2500,-0.5000,0.5000,-0.2500,0.5000,0.2500,0.2500,0.5000,0.0*
%
%ADD39OCTAGOND39*%

G04:AMPARAMS|DCode=40|XSize=1mm|YSize=1mm|CornerRadius=0mm|HoleSize=0mm|Usage=FLASHONLY|Rotation=0.000|XOffset=0mm|YOffset=0mm|HoleType=Round|Shape=Octagon|*
%AMOCTAGOND40*
4,1,8,0.5000,-0.2500,0.5000,0.2500,0.2500,0.5000,-0.2500,0.5000,-0.5000,0.2500,-0.5000,-0.2500,-0.2500,-0.5000,0.2500,-0.5000,0.5000,-0.2500,0.0*
%
%ADD40OCTAGOND40*%

%ADD41O,2.0000X1.6000*%
G04:AMPARAMS|DCode=42|XSize=1.6mm|YSize=2mm|CornerRadius=0.4mm|HoleSize=0mm|Usage=FLASHONLY|Rotation=90.000|XOffset=0mm|YOffset=0mm|HoleType=Round|Shape=RoundedRectangle|*
%AMROUNDEDRECTD42*
21,1,1.6000,1.2000,0,0,90.0*
21,1,0.8000,2.0000,0,0,90.0*
1,1,0.8000,0.6000,0.4000*
1,1,0.8000,0.6000,-0.4000*
1,1,0.8000,-0.6000,-0.4000*
1,1,0.8000,-0.6000,0.4000*
%
%ADD42ROUNDEDRECTD42*%
%ADD43C,1.2000*%
G04:AMPARAMS|DCode=44|XSize=7mm|YSize=7mm|CornerRadius=1.75mm|HoleSize=0mm|Usage=FLASHONLY|Rotation=0.000|XOffset=0mm|YOffset=0mm|HoleType=Round|Shape=RoundedRectangle|*
%AMROUNDEDRECTD44*
21,1,7.0000,3.5000,0,0,0.0*
21,1,3.5000,7.0000,0,0,0.0*
1,1,3.5000,1.7500,-1.7500*
1,1,3.5000,-1.7500,-1.7500*
1,1,3.5000,-1.7500,1.7500*
1,1,3.5000,1.7500,1.7500*
%
%ADD44ROUNDEDRECTD44*%
%ADD45C,0.8000*%
%ADD46C,1.4000*%
%ADD47C,1.0000*%
G04:AMPARAMS|DCode=48|XSize=1.8mm|YSize=1mm|CornerRadius=0.25mm|HoleSize=0mm|Usage=FLASHONLY|Rotation=270.000|XOffset=0mm|YOffset=0mm|HoleType=Round|Shape=RoundedRectangle|*
%AMROUNDEDRECTD48*
21,1,1.8000,0.5000,0,0,270.0*
21,1,1.3000,1.0000,0,0,270.0*
1,1,0.5000,-0.2500,-0.6500*
1,1,0.5000,-0.2500,0.6500*
1,1,0.5000,0.2500,0.6500*
1,1,0.5000,0.2500,-0.6500*
%
%ADD48ROUNDEDRECTD48*%
%ADD49C,1.0000*%
G04:AMPARAMS|DCode=50|XSize=3.6mm|YSize=2mm|CornerRadius=0.5mm|HoleSize=0mm|Usage=FLASHONLY|Rotation=270.000|XOffset=0mm|YOffset=0mm|HoleType=Round|Shape=RoundedRectangle|*
%AMROUNDEDRECTD50*
21,1,3.6000,1.0000,0,0,270.0*
21,1,2.6000,2.0000,0,0,270.0*
1,1,1.0000,-0.5000,-1.3000*
1,1,1.0000,-0.5000,1.3000*
1,1,1.0000,0.5000,1.3000*
1,1,1.0000,0.5000,-1.3000*
%
%ADD50ROUNDEDRECTD50*%
G04:AMPARAMS|DCode=51|XSize=2.2mm|YSize=2.4mm|CornerRadius=0.55mm|HoleSize=0mm|Usage=FLASHONLY|Rotation=0.000|XOffset=0mm|YOffset=0mm|HoleType=Round|Shape=RoundedRectangle|*
%AMROUNDEDRECTD51*
21,1,2.2000,1.3000,0,0,0.0*
21,1,1.1000,2.4000,0,0,0.0*
1,1,1.1000,0.5500,-0.6500*
1,1,1.1000,-0.5500,-0.6500*
1,1,1.1000,-0.5500,0.6500*
1,1,1.1000,0.5500,0.6500*
%
%ADD51ROUNDEDRECTD51*%
G04:AMPARAMS|DCode=52|XSize=2.2mm|YSize=2.4mm|CornerRadius=0.55mm|HoleSize=0mm|Usage=FLASHONLY|Rotation=90.000|XOffset=0mm|YOffset=0mm|HoleType=Round|Shape=RoundedRectangle|*
%AMROUNDEDRECTD52*
21,1,2.2000,1.3000,0,0,90.0*
21,1,1.1000,2.4000,0,0,90.0*
1,1,1.1000,0.6500,0.5500*
1,1,1.1000,0.6500,-0.5500*
1,1,1.1000,-0.6500,-0.5500*
1,1,1.1000,-0.6500,0.5500*
%
%ADD52ROUNDEDRECTD52*%
G04:AMPARAMS|DCode=53|XSize=2mm|YSize=1.4mm|CornerRadius=0.35mm|HoleSize=0mm|Usage=FLASHONLY|Rotation=180.000|XOffset=0mm|YOffset=0mm|HoleType=Round|Shape=RoundedRectangle|*
%AMROUNDEDRECTD53*
21,1,2.0000,0.7000,0,0,180.0*
21,1,1.3000,1.4000,0,0,180.0*
1,1,0.7000,-0.6500,0.3500*
1,1,0.7000,0.6500,0.3500*
1,1,0.7000,0.6500,-0.3500*
1,1,0.7000,-0.6500,-0.3500*
%
%ADD53ROUNDEDRECTD53*%
G04:AMPARAMS|DCode=54|XSize=1.8mm|YSize=1mm|CornerRadius=0.25mm|HoleSize=0mm|Usage=FLASHONLY|Rotation=0.000|XOffset=0mm|YOffset=0mm|HoleType=Round|Shape=RoundedRectangle|*
%AMROUNDEDRECTD54*
21,1,1.8000,0.5000,0,0,0.0*
21,1,1.3000,1.0000,0,0,0.0*
1,1,0.5000,0.6500,-0.2500*
1,1,0.5000,-0.6500,-0.2500*
1,1,0.5000,-0.6500,0.2500*
1,1,0.5000,0.6500,0.2500*
%
%ADD54ROUNDEDRECTD54*%
G04:AMPARAMS|DCode=55|XSize=0.3mm|YSize=1.6mm|CornerRadius=0.075mm|HoleSize=0mm|Usage=FLASHONLY|Rotation=180.000|XOffset=0mm|YOffset=0mm|HoleType=Round|Shape=RoundedRectangle|*
%AMROUNDEDRECTD55*
21,1,0.3000,1.4500,0,0,180.0*
21,1,0.1500,1.6000,0,0,180.0*
1,1,0.1500,-0.0750,0.7250*
1,1,0.1500,0.0750,0.7250*
1,1,0.1500,0.0750,-0.7250*
1,1,0.1500,-0.0750,-0.7250*
%
%ADD55ROUNDEDRECTD55*%
G04:AMPARAMS|DCode=56|XSize=0.3mm|YSize=1.6mm|CornerRadius=0.075mm|HoleSize=0mm|Usage=FLASHONLY|Rotation=90.000|XOffset=0mm|YOffset=0mm|HoleType=Round|Shape=RoundedRectangle|*
%AMROUNDEDRECTD56*
21,1,0.3000,1.4500,0,0,90.0*
21,1,0.1500,1.6000,0,0,90.0*
1,1,0.1500,0.7250,0.0750*
1,1,0.1500,0.7250,-0.0750*
1,1,0.1500,-0.7250,-0.0750*
1,1,0.1500,-0.7250,0.0750*
%
%ADD56ROUNDEDRECTD56*%
%ADD57O,1.6000X0.3000*%
%ADD58O,0.3000X1.6000*%
G04:AMPARAMS|DCode=59|XSize=0.6mm|YSize=1.1mm|CornerRadius=0.15mm|HoleSize=0mm|Usage=FLASHONLY|Rotation=90.000|XOffset=0mm|YOffset=0mm|HoleType=Round|Shape=RoundedRectangle|*
%AMROUNDEDRECTD59*
21,1,0.6000,0.8000,0,0,90.0*
21,1,0.3000,1.1000,0,0,90.0*
1,1,0.3000,0.4000,0.1500*
1,1,0.3000,0.4000,-0.1500*
1,1,0.3000,-0.4000,-0.1500*
1,1,0.3000,-0.4000,0.1500*
%
%ADD59ROUNDEDRECTD59*%
G04:AMPARAMS|DCode=60|XSize=1.2mm|YSize=2.4mm|CornerRadius=0.3mm|HoleSize=0mm|Usage=FLASHONLY|Rotation=270.000|XOffset=0mm|YOffset=0mm|HoleType=Round|Shape=RoundedRectangle|*
%AMROUNDEDRECTD60*
21,1,1.2000,1.8000,0,0,270.0*
21,1,0.6000,2.4000,0,0,270.0*
1,1,0.6000,-0.9000,-0.3000*
1,1,0.6000,-0.9000,0.3000*
1,1,0.6000,0.9000,0.3000*
1,1,0.6000,0.9000,-0.3000*
%
%ADD60ROUNDEDRECTD60*%
G04:AMPARAMS|DCode=61|XSize=3.6mm|YSize=2.4mm|CornerRadius=0.6mm|HoleSize=0mm|Usage=FLASHONLY|Rotation=270.000|XOffset=0mm|YOffset=0mm|HoleType=Round|Shape=RoundedRectangle|*
%AMROUNDEDRECTD61*
21,1,3.6000,1.2000,0,0,270.0*
21,1,2.4000,2.4000,0,0,270.0*
1,1,1.2000,-0.6000,-1.2000*
1,1,1.2000,-0.6000,1.2000*
1,1,1.2000,0.6000,1.2000*
1,1,1.2000,0.6000,-1.2000*
%
%ADD61ROUNDEDRECTD61*%
G04:AMPARAMS|DCode=62|XSize=2.1mm|YSize=2.9mm|CornerRadius=0.525mm|HoleSize=0mm|Usage=FLASHONLY|Rotation=180.000|XOffset=0mm|YOffset=0mm|HoleType=Round|Shape=RoundedRectangle|*
%AMROUNDEDRECTD62*
21,1,2.1000,1.8500,0,0,180.0*
21,1,1.0500,2.9000,0,0,180.0*
1,1,1.0500,-0.5250,0.9250*
1,1,1.0500,0.5250,0.9250*
1,1,1.0500,0.5250,-0.9250*
1,1,1.0500,-0.5250,-0.9250*
%
%ADD62ROUNDEDRECTD62*%
G36*
X368013Y449000D02*
X367962Y449475D01*
X367811Y449900D01*
X367560Y450275D01*
X367208Y450600D01*
X366755Y450875D01*
X366202Y451100D01*
X365548Y451275D01*
X364793Y451400D01*
X364497Y451426D01*
X364202Y451400D01*
X363447Y451275D01*
X362793Y451100D01*
X362240Y450875D01*
X361787Y450600D01*
X361435Y450275D01*
X361183Y449900D01*
X361032Y449475D01*
X360982Y449000D01*
X360982Y458996D01*
X361032Y458522D01*
X361183Y458097D01*
X361435Y457723D01*
X361787Y457399D01*
X362240Y457124D01*
X362793Y456899D01*
X363447Y456725D01*
X364202Y456600D01*
X364497Y456574D01*
X364793Y456600D01*
X365548Y456725D01*
X366202Y456900D01*
X366755Y457125D01*
X367208Y457400D01*
X367560Y457725D01*
X367811Y458100D01*
X367962Y458525D01*
X368013Y459000D01*
Y449000D01*
D02*
G37*
G36*
X124996Y455018D02*
X124522Y454967D01*
X124097Y454817D01*
X123723Y454565D01*
X123399Y454213D01*
X123124Y453760D01*
X122899Y453207D01*
X122725Y452553D01*
X122600Y451799D01*
X122525Y450943D01*
X122500Y449988D01*
X117500D01*
X117475Y450943D01*
X117400Y451799D01*
X117275Y452553D01*
X117100Y453207D01*
X116875Y453760D01*
X116600Y454213D01*
X116275Y454565D01*
X115900Y454817D01*
X115475Y454968D01*
X115000Y455018D01*
X124996Y455018D01*
D02*
G37*
G36*
X180500Y451020D02*
X175506Y451000D01*
X180500D01*
X180525Y450048D01*
X180599Y449196D01*
X180723Y448444D01*
X180897Y447792D01*
X181120Y447241D01*
X181394Y446789D01*
X181716Y446439D01*
X182089Y446188D01*
X182511Y446037D01*
X182982Y445987D01*
X173018D01*
X173489Y446037D01*
X173911Y446188D01*
X174284Y446439D01*
X174606Y446789D01*
X174879Y447241D01*
X175103Y447792D01*
X175277Y448444D01*
X175401Y449196D01*
X175475Y450048D01*
X175500Y451000D01*
X175441Y451643D01*
X175263Y452233D01*
X174967Y452771D01*
X174552Y453257D01*
X174018Y453691D01*
X173367Y454072D01*
X172596Y454401D01*
X171707Y454678D01*
X170700Y454903D01*
X169574Y455075D01*
X179911Y460878D01*
X180500Y451020D01*
D02*
G37*
G36*
X154167Y460008D02*
X153817Y458961D01*
X153508Y457840D01*
X153014Y455381D01*
X152829Y454042D01*
X152582Y451146D01*
X152548Y449804D01*
X152600Y449207D01*
X152725Y448452D01*
X152900Y447798D01*
X153125Y447245D01*
X153400Y446792D01*
X153725Y446440D01*
X154100Y446189D01*
X154525Y446038D01*
X155000Y445987D01*
X148897D01*
X147500Y445223D01*
X147440Y445987D01*
X145000D01*
X145475Y446038D01*
X145900Y446189D01*
X146275Y446440D01*
X146600Y446792D01*
X146875Y447245D01*
X147051Y447679D01*
X146746Y448498D01*
X146159Y449651D01*
X145404Y450836D01*
X144482Y452051D01*
X143392Y453297D01*
X142135Y454574D01*
X139117Y457221D01*
X154558Y460983D01*
X154167Y460008D01*
D02*
G37*
G36*
X260037Y441529D02*
X259820Y441300D01*
X259627Y441033D01*
X259461Y440727D01*
X259320Y440382D01*
X259205Y439999D01*
X259115Y439578D01*
X259051Y439118D01*
X259013Y438619D01*
X259000Y438082D01*
X256000Y437982D01*
X255985Y438591D01*
X255940Y439132D01*
X255865Y439605D01*
X255760Y440010D01*
X255625Y440347D01*
X255460Y440616D01*
X255265Y440817D01*
X255040Y440950D01*
X254785Y441015D01*
X254500Y441013D01*
X260280Y441720D01*
X260037Y441529D01*
D02*
G37*
G36*
X572753Y476569D02*
X573754Y473271D01*
X575379Y470230D01*
X577566Y467566D01*
X580089Y465494D01*
X580156Y465389D01*
X580239Y465212D01*
X580401Y461886D01*
X579913Y461399D01*
X579000Y459193D01*
Y456806D01*
X579913Y454601D01*
X581601Y452913D01*
X583806Y452000D01*
X584511D01*
X589362Y447150D01*
X589364Y447148D01*
X589366Y447133D01*
X589476Y446869D01*
X589535Y446872D01*
X589598Y446553D01*
X589786Y443215D01*
X590343Y439937D01*
X590333Y439887D01*
X590333Y439886D01*
X590376Y439067D01*
X590761Y437260D01*
X590765Y437253D01*
X590924Y436516D01*
X591031Y436143D01*
X592805Y429987D01*
X593509Y428288D01*
X591213Y425992D01*
X591194Y426000D01*
X588806D01*
X586601Y425087D01*
X584913Y423399D01*
X584000Y421194D01*
Y418806D01*
X584913Y416601D01*
X585169Y416346D01*
X585202Y416240D01*
X585258Y415996D01*
X585305Y415715D01*
X585412Y414157D01*
Y389857D01*
X585375Y389431D01*
X585278Y388836D01*
X585160Y388385D01*
X585041Y388086D01*
X584981Y387985D01*
X583744Y387739D01*
X582256Y386744D01*
X581261Y385256D01*
X580912Y383500D01*
Y378500D01*
X581261Y376744D01*
X581558Y374442D01*
X581116Y373780D01*
X580961Y373000D01*
Y367000D01*
X581116Y366220D01*
X581558Y365558D01*
X581517Y365236D01*
X580609Y362610D01*
X579628Y362313D01*
X579406Y362194D01*
X579273Y362168D01*
X578939Y361944D01*
X576749Y360774D01*
X574287Y358754D01*
X574220Y358709D01*
X574170Y358633D01*
X572992Y357847D01*
X571604Y357570D01*
X571515Y357588D01*
X463383D01*
X462730Y357631D01*
X461862Y357739D01*
X461735Y357765D01*
X458500Y361000D01*
X451500D01*
X448000Y357500D01*
Y350500D01*
X448506Y349994D01*
X388000Y289489D01*
X385000Y290731D01*
Y296000D01*
X381000Y300000D01*
X379500D01*
Y292000D01*
X377000D01*
Y289500D01*
X369000D01*
Y288000D01*
X373000Y284000D01*
X378269D01*
X379511Y281000D01*
X349195Y250684D01*
X349078Y250508D01*
X346076Y248044D01*
X342467Y246115D01*
X338551Y244928D01*
X334686Y244547D01*
X334479Y244588D01*
X326000D01*
X325881Y244564D01*
X322986Y244849D01*
X320089Y245728D01*
X317418Y247156D01*
X315077Y249077D01*
X314791Y249425D01*
X314564Y249772D01*
X314168Y250418D01*
X313526Y251605D01*
X313320Y252061D01*
X313168Y252463D01*
X313075Y252781D01*
X313034Y253000D01*
X313027Y253106D01*
X313046Y253289D01*
X313088Y253500D01*
Y266500D01*
X312739Y268256D01*
X311744Y269744D01*
X310727Y270424D01*
X310719Y270433D01*
X310696Y270445D01*
X310494Y270580D01*
X310473Y270598D01*
X310460Y270602D01*
X310256Y270739D01*
X310019Y270786D01*
X310008Y270791D01*
X309664Y270887D01*
X309436Y270986D01*
X309170Y271145D01*
X308869Y271374D01*
X308536Y271682D01*
X308179Y272074D01*
X307820Y272528D01*
X307053Y273703D01*
X306970Y273839D01*
X306587Y274527D01*
X306561Y274558D01*
X306548Y274595D01*
X306422Y274732D01*
X305102Y276887D01*
X302477Y279961D01*
X302740Y281254D01*
X303770Y282961D01*
X307000D01*
X307780Y283116D01*
X308442Y283558D01*
X310354Y282319D01*
X312500Y281892D01*
Y294000D01*
Y306108D01*
X310354Y305681D01*
X309219Y304946D01*
X307157Y305580D01*
X306192Y308703D01*
X314866Y317377D01*
X314925Y317466D01*
X316862Y319826D01*
X318351Y322612D01*
X319268Y325635D01*
X319567Y328673D01*
X319588Y328778D01*
Y329134D01*
X319952Y330961D01*
X321188Y332812D01*
X323039Y334048D01*
X324528Y334345D01*
X325256Y333256D01*
X326744Y332261D01*
X328500Y331912D01*
X341500D01*
X343256Y332261D01*
X344744Y333256D01*
X345739Y334744D01*
X346088Y336500D01*
Y341500D01*
X345739Y343256D01*
X345442Y345558D01*
X345884Y346220D01*
X346039Y347000D01*
Y353000D01*
X345884Y353780D01*
X345442Y354442D01*
X345739Y356744D01*
X346088Y358500D01*
Y363500D01*
X345739Y365256D01*
X345288Y365931D01*
X346328Y368595D01*
X346616Y368931D01*
X348964D01*
X349059Y368950D01*
X349987Y368766D01*
X352437Y367437D01*
X352437D01*
X356349Y364227D01*
X360813Y361841D01*
X362247Y361406D01*
X362288Y361378D01*
X362386Y361357D01*
X362474Y361309D01*
X362989Y361146D01*
X363380Y360999D01*
X363687Y360858D01*
X363908Y360733D01*
X363974Y360686D01*
X364261Y359244D01*
X364558Y356942D01*
X364116Y356280D01*
X363961Y355500D01*
Y349500D01*
X364116Y348720D01*
X364558Y348058D01*
X363319Y346146D01*
X362892Y344000D01*
X387108D01*
X386681Y346146D01*
X385442Y348058D01*
X385884Y348720D01*
X386039Y349500D01*
Y354330D01*
X388200Y355932D01*
X388981Y356088D01*
X391927Y353671D01*
X392016Y353537D01*
X392402Y353152D01*
X392000Y351653D01*
Y349547D01*
X392545Y347512D01*
X393598Y345688D01*
X395088Y344198D01*
X396912Y343145D01*
X398947Y342600D01*
X401053D01*
X403088Y343145D01*
X404912Y344198D01*
X406402Y345688D01*
X407455Y347512D01*
X408000Y349547D01*
Y351653D01*
X407796Y352414D01*
X407788Y352594D01*
X407504Y353744D01*
X407253Y354987D01*
X408045Y356575D01*
X411131Y357671D01*
X411744Y357261D01*
X413500Y356912D01*
X426500D01*
X428256Y357261D01*
X429744Y358256D01*
X430739Y359744D01*
X431088Y361500D01*
Y366500D01*
X430739Y368256D01*
X430442Y370558D01*
X430884Y371220D01*
X431039Y372000D01*
Y378000D01*
X430884Y378780D01*
X430442Y379442D01*
X430739Y381744D01*
X431088Y383500D01*
Y388500D01*
X430739Y390256D01*
X429744Y391744D01*
X428256Y392739D01*
X426500Y393088D01*
X413500D01*
X411744Y392739D01*
X410256Y391744D01*
X408531Y391908D01*
X407900Y392459D01*
X407613Y392821D01*
X406882Y394357D01*
X406713Y394902D01*
X407006Y395460D01*
X407052Y395615D01*
X407455Y396312D01*
X408000Y398347D01*
Y400453D01*
X407455Y402488D01*
X406402Y404312D01*
X404912Y405802D01*
X403088Y406855D01*
X401053Y407400D01*
X398947D01*
X396912Y406855D01*
X395088Y405802D01*
X393598Y404312D01*
X392545Y402488D01*
X392000Y400453D01*
Y398347D01*
X392402Y396848D01*
X392016Y396463D01*
X391927Y396329D01*
X388981Y393912D01*
X388200Y394068D01*
X386039Y395670D01*
Y400500D01*
X385884Y401280D01*
X385442Y401942D01*
X386681Y403854D01*
X387108Y406000D01*
X375000D01*
X362892D01*
X363319Y403854D01*
X364558Y401942D01*
X364116Y401280D01*
X363961Y400500D01*
Y394500D01*
X364116Y393720D01*
X364558Y393058D01*
X364261Y390756D01*
X363974Y389314D01*
X363908Y389267D01*
X363687Y389142D01*
X363380Y389001D01*
X362989Y388854D01*
X362474Y388691D01*
X362386Y388643D01*
X362288Y388622D01*
X362247Y388594D01*
X360813Y388159D01*
X356349Y385773D01*
X352437Y382563D01*
X352437D01*
X349987Y381234D01*
X349059Y381050D01*
X348964Y381069D01*
X342868D01*
X342022Y384068D01*
X342640Y384447D01*
X346099Y387401D01*
X349053Y390860D01*
X351430Y394739D01*
X353171Y398942D01*
X354232Y403365D01*
X354589Y407900D01*
X354569D01*
Y419966D01*
X354594Y420261D01*
X354659Y420710D01*
X354749Y421137D01*
X354862Y421542D01*
X354999Y421927D01*
X355159Y422296D01*
X355343Y422649D01*
X355552Y422988D01*
X355751Y423265D01*
X356087Y423601D01*
X357000Y425807D01*
Y428194D01*
X356901Y428431D01*
X358906Y431431D01*
X540000Y431431D01*
X541366Y431703D01*
X541810Y432000D01*
X544193D01*
X546399Y432913D01*
X548087Y434601D01*
X549000Y436806D01*
Y439193D01*
X548087Y441399D01*
X546399Y443087D01*
X544193Y444000D01*
X541806D01*
X539601Y443087D01*
X537914Y441399D01*
X537000Y439193D01*
Y438569D01*
X532906D01*
X530901Y441569D01*
X531000Y441806D01*
Y444193D01*
X530087Y446399D01*
X528399Y448087D01*
X526194Y449000D01*
X523806D01*
X521601Y448087D01*
X519913Y446399D01*
X519000Y444193D01*
Y443569D01*
X404821D01*
X402923Y446569D01*
X403108Y447500D01*
Y451500D01*
X395000D01*
Y454000D01*
X392500D01*
Y466108D01*
X390354Y465681D01*
X388442Y464442D01*
X387780Y464884D01*
X387000Y465039D01*
X381000D01*
X380220Y464884D01*
X379558Y464442D01*
X377256Y464739D01*
X375500Y465088D01*
X370500D01*
X368744Y464739D01*
X367256Y463744D01*
X366261Y462256D01*
X363311Y460949D01*
X362707Y461099D01*
X362114Y462530D01*
X360993Y463993D01*
X359530Y465115D01*
X357827Y465820D01*
X356000Y466060D01*
X346000D01*
X344173Y465820D01*
X342470Y465115D01*
X341007Y463993D01*
X339885Y462530D01*
X339578Y461789D01*
X336754Y461335D01*
X336325Y461424D01*
X336003Y461982D01*
X333582Y464403D01*
X330618Y466114D01*
X328100Y466789D01*
Y454000D01*
X325600D01*
Y451500D01*
X312811D01*
X313486Y448982D01*
X314879Y446569D01*
X314227Y444693D01*
X313404Y443569D01*
X282980D01*
X280000Y443569D01*
X279988Y443679D01*
X279985Y443678D01*
X279876Y443569D01*
X275000D01*
Y443577D01*
X271863Y443269D01*
X268848Y442354D01*
X266068Y440868D01*
X265258Y440204D01*
X263493Y441283D01*
X262804Y442070D01*
X263088Y443500D01*
Y456500D01*
X262739Y458256D01*
X261744Y459744D01*
X260256Y460739D01*
X258500Y461088D01*
X253500D01*
X251744Y460739D01*
X249442Y460442D01*
X248780Y460884D01*
X248000Y461039D01*
X242000D01*
X241220Y460884D01*
X240558Y460442D01*
X238646Y461681D01*
X236500Y462108D01*
Y450000D01*
Y437892D01*
X238646Y438319D01*
X240558Y439558D01*
X241220Y439116D01*
X242000Y438961D01*
X248000D01*
X248780Y439116D01*
X249442Y439558D01*
X251744Y439261D01*
X253500Y438912D01*
X253910D01*
X253914Y438887D01*
X253931Y438679D01*
Y430843D01*
X252563Y428191D01*
X251621Y427894D01*
X251134Y427797D01*
X250973Y427689D01*
X249652Y427272D01*
X248866Y427797D01*
X247500Y428069D01*
X246134Y427797D01*
X245000Y427039D01*
X243866Y427797D01*
X242500Y428069D01*
X241134Y427797D01*
X240000Y427039D01*
X238866Y427797D01*
X237500Y428069D01*
X236134Y427797D01*
X235000Y427039D01*
X233866Y427797D01*
X232500Y428069D01*
X231134Y427797D01*
X230000Y427039D01*
X228866Y427797D01*
X227500Y428069D01*
X226134Y427797D01*
X225000Y427039D01*
X223866Y427797D01*
X222500Y428069D01*
X221134Y427797D01*
X220000Y427039D01*
X218866Y427797D01*
X217500Y428069D01*
X216134Y427797D01*
X215000Y427039D01*
X213866Y427797D01*
X212500Y428069D01*
X211134Y427797D01*
X210000Y427039D01*
X208866Y427797D01*
X207500Y428069D01*
X206134Y427797D01*
X205000Y427039D01*
X203866Y427797D01*
X202500Y428069D01*
X201134Y427797D01*
X199977Y427023D01*
X199203Y425866D01*
X198931Y424500D01*
Y422600D01*
X198838Y422585D01*
X198653Y422569D01*
X189337D01*
X189138Y422585D01*
X188684Y423680D01*
X188442Y425558D01*
X188884Y426220D01*
X189039Y427000D01*
Y433000D01*
X188884Y433780D01*
X188442Y434442D01*
X188739Y436744D01*
X189088Y438500D01*
Y443500D01*
X188739Y445256D01*
X187744Y446744D01*
X186256Y447739D01*
X184500Y448088D01*
X182991D01*
X182949Y448157D01*
X182601Y451000D01*
X182601D01*
X182571Y451225D01*
X182370Y453910D01*
X182167Y457305D01*
X185120Y458192D01*
X185797Y457018D01*
X188218Y454597D01*
X191182Y452886D01*
X193700Y452211D01*
Y465000D01*
X196200D01*
Y467500D01*
X208989D01*
X208314Y470018D01*
X206603Y472982D01*
X204182Y475403D01*
X201415Y477000D01*
X201333Y477280D01*
X202762Y480000D01*
X572415D01*
X572753Y476569D01*
D02*
G37*
G36*
X353852Y424117D02*
X353569Y423655D01*
X353318Y423175D01*
X353101Y422676D01*
X352917Y422159D01*
X352767Y421622D01*
X352650Y421068D01*
X352567Y420494D01*
X352517Y419902D01*
X352500Y419292D01*
X349500D01*
X349483Y419902D01*
X349433Y420494D01*
X349350Y421068D01*
X349233Y421622D01*
X349083Y422159D01*
X348899Y422676D01*
X348682Y423175D01*
X348432Y423655D01*
X348148Y424117D01*
X347830Y424560D01*
X354170D01*
X353852Y424117D01*
D02*
G37*
G36*
X186920Y421710D02*
X187014Y421456D01*
X187170Y421232D01*
X187389Y421038D01*
X187671Y420873D01*
X188015Y420739D01*
X188422Y420634D01*
X188891Y420560D01*
X189423Y420515D01*
X190018Y420500D01*
Y417500D01*
X189423Y417485D01*
X188891Y417440D01*
X188422Y417365D01*
X188015Y417261D01*
X187671Y417127D01*
X187389Y416962D01*
X187170Y416768D01*
X187014Y416544D01*
X186920Y416290D01*
X186889Y416006D01*
Y421994D01*
X186920Y421710D01*
D02*
G37*
G36*
X311013Y416000D02*
X310982Y416285D01*
X310891Y416540D01*
X310740Y416765D01*
X310528Y416960D01*
X310255Y417125D01*
X309922Y417260D01*
X309528Y417365D01*
X309073Y417440D01*
X308558Y417485D01*
X307982Y417500D01*
Y420500D01*
X308558Y420515D01*
X309073Y420560D01*
X309528Y420635D01*
X309922Y420740D01*
X310255Y420875D01*
X310528Y421040D01*
X310740Y421235D01*
X310891Y421460D01*
X310982Y421715D01*
X311013Y422000D01*
Y416000D01*
D02*
G37*
G36*
X278998Y421715D02*
X279089Y421460D01*
X279241Y421235D01*
X279453Y421040D01*
X279725Y420875D01*
X280059Y420740D01*
X280453Y420635D01*
X280907Y420560D01*
X281423Y420515D01*
X281998Y420500D01*
Y417500D01*
X281423Y417485D01*
X280907Y417440D01*
X280453Y417365D01*
X280059Y417260D01*
X279725Y417125D01*
X279453Y416960D01*
X279241Y416765D01*
X279089Y416540D01*
X278998Y416285D01*
X278968Y416000D01*
Y422000D01*
X278998Y421715D01*
D02*
G37*
G36*
X201032Y416000D02*
X201002Y416285D01*
X200911Y416540D01*
X200759Y416765D01*
X200547Y416960D01*
X200275Y417125D01*
X199941Y417260D01*
X199547Y417365D01*
X199093Y417440D01*
X198577Y417485D01*
X198002Y417500D01*
Y420500D01*
X198577Y420515D01*
X199093Y420560D01*
X199547Y420635D01*
X199941Y420740D01*
X200275Y420875D01*
X200547Y421040D01*
X200759Y421235D01*
X200911Y421460D01*
X201002Y421715D01*
X201032Y422000D01*
Y416000D01*
D02*
G37*
G36*
X304500Y417500D02*
X303930Y417470D01*
X303420Y417380D01*
X302970Y417230D01*
X302580Y417020D01*
X302250Y416750D01*
X301980Y416420D01*
X301770Y416030D01*
X301620Y415580D01*
X301530Y415070D01*
X301500Y414500D01*
X298500D01*
X298470Y415070D01*
X298380Y415580D01*
X298230Y416030D01*
X298020Y416420D01*
X297750Y416750D01*
X297420Y417020D01*
X297030Y417230D01*
X296580Y417380D01*
X296070Y417470D01*
X295500Y417500D01*
X300000Y420500D01*
X304500Y417500D01*
D02*
G37*
G36*
X593042Y417357D02*
X592929Y417094D01*
X592828Y416773D01*
X592741Y416393D01*
X592667Y415954D01*
X592560Y414900D01*
X592507Y413611D01*
X592500Y412878D01*
X587500D01*
X587493Y413611D01*
X587333Y415954D01*
X587259Y416393D01*
X587172Y416773D01*
X587071Y417094D01*
X586958Y417357D01*
X586830Y417560D01*
X593170D01*
X593042Y417357D01*
D02*
G37*
G36*
X273931Y411500D02*
X274203Y410134D01*
X274976Y408976D01*
X275000Y408960D01*
Y407758D01*
X275744Y408256D01*
X275840Y408400D01*
X276134Y408203D01*
X277500Y407931D01*
X278866Y408203D01*
X280023Y408977D01*
X280797Y410134D01*
X281069Y411500D01*
Y415400D01*
X281162Y415415D01*
X281347Y415431D01*
X295888D01*
X296078Y415398D01*
X296218Y415351D01*
X296281Y415317D01*
X296301Y415301D01*
X296318Y415281D01*
X296351Y415218D01*
X296398Y415078D01*
X296431Y414888D01*
Y401069D01*
X291500D01*
X290134Y400797D01*
X288977Y400023D01*
X288203Y398866D01*
X287931Y397500D01*
X288203Y396134D01*
X288961Y395000D01*
X288203Y393866D01*
X287931Y392500D01*
X288203Y391134D01*
X288961Y390000D01*
X288203Y388866D01*
X287931Y387500D01*
X288203Y386134D01*
X288961Y385000D01*
X288203Y383866D01*
X287931Y382500D01*
X288203Y381134D01*
X288961Y380000D01*
X288203Y378866D01*
X287931Y377500D01*
X288203Y376134D01*
X288961Y375000D01*
X288203Y373866D01*
X287931Y372500D01*
X288203Y371134D01*
X288961Y370000D01*
X288203Y368866D01*
X287931Y367500D01*
X288203Y366134D01*
X288961Y365000D01*
X288203Y363866D01*
X287931Y362500D01*
X288203Y361134D01*
X288961Y360000D01*
X288203Y358866D01*
X287931Y357500D01*
X288203Y356134D01*
X288961Y355000D01*
X288203Y353866D01*
X287931Y352500D01*
X288203Y351134D01*
X288961Y350000D01*
X288203Y348866D01*
X287931Y347500D01*
X288203Y346134D01*
X288400Y345840D01*
X288256Y345744D01*
X287758Y345000D01*
X288960D01*
X288976Y344976D01*
X290134Y344203D01*
X291500Y343931D01*
X298000D01*
Y341069D01*
X291500D01*
X290134Y340797D01*
X288976Y340024D01*
X288960Y340000D01*
X287758D01*
X288256Y339256D01*
X288400Y339160D01*
X288203Y338866D01*
X287931Y337500D01*
X288203Y336134D01*
X288961Y335000D01*
X288203Y333866D01*
X287931Y332500D01*
X288203Y331134D01*
X288961Y330000D01*
X288203Y328866D01*
X287931Y327500D01*
X288069Y326807D01*
X285436Y325288D01*
X283566Y327566D01*
X280444Y330128D01*
X276883Y332031D01*
X273019Y333203D01*
X269000Y333599D01*
Y333588D01*
X213000D01*
Y333609D01*
X208589Y333174D01*
X204347Y331888D01*
X200437Y329798D01*
X197011Y326986D01*
X196246Y326054D01*
X195169Y325690D01*
X192458Y326168D01*
X191972Y327016D01*
X192069Y327500D01*
X191797Y328866D01*
X191039Y330000D01*
X191797Y331134D01*
X192069Y332500D01*
X191797Y333866D01*
X191039Y335000D01*
X191797Y336134D01*
X192069Y337500D01*
X191797Y338866D01*
X191039Y340000D01*
X191797Y341134D01*
X192069Y342500D01*
X191797Y343866D01*
X191039Y345000D01*
X191797Y346134D01*
X192069Y347500D01*
X191797Y348866D01*
X191039Y350000D01*
X191797Y351134D01*
X192069Y352500D01*
X191797Y353866D01*
X191039Y355000D01*
X191797Y356134D01*
X192069Y357500D01*
X191797Y358866D01*
X191039Y360000D01*
X191797Y361134D01*
X192069Y362500D01*
X191797Y363866D01*
X191039Y365000D01*
X191797Y366134D01*
X192069Y367500D01*
X191797Y368866D01*
X191039Y370000D01*
X191797Y371134D01*
X192069Y372500D01*
X191797Y373866D01*
X191039Y375000D01*
X191797Y376134D01*
X192069Y377500D01*
X191797Y378866D01*
X191039Y380000D01*
X191797Y381134D01*
X192069Y382500D01*
X191797Y383866D01*
X191039Y385000D01*
X191797Y386134D01*
X192069Y387500D01*
X191797Y388866D01*
X191600Y389160D01*
X191744Y389256D01*
X192242Y390000D01*
X191040D01*
X191024Y390024D01*
X189866Y390797D01*
X188500Y391069D01*
X182000D01*
Y393931D01*
X188500D01*
X189866Y394203D01*
X191024Y394976D01*
X191040Y395000D01*
X192242D01*
X191744Y395744D01*
X191600Y395840D01*
X191797Y396134D01*
X192069Y397500D01*
X191797Y398866D01*
X191023Y400023D01*
X189866Y400797D01*
X188500Y401069D01*
X172474D01*
X170694Y404069D01*
X171000Y404807D01*
Y407193D01*
X170206Y409110D01*
X171065Y410984D01*
X171816Y411912D01*
X184500D01*
X186256Y412261D01*
X187744Y413256D01*
X188739Y414744D01*
X188864Y415371D01*
X189138Y415415D01*
X189337Y415431D01*
X198653D01*
X198838Y415415D01*
X198931Y415400D01*
Y411500D01*
X199203Y410134D01*
X199977Y408977D01*
X201134Y408203D01*
X202500Y407931D01*
X203866Y408203D01*
X205000Y408961D01*
X206134Y408203D01*
X207500Y407931D01*
X208866Y408203D01*
X210000Y408961D01*
X211134Y408203D01*
X212500Y407931D01*
X213866Y408203D01*
X215000Y408961D01*
X216134Y408203D01*
X217500Y407931D01*
X218866Y408203D01*
X220000Y408961D01*
X221134Y408203D01*
X222500Y407931D01*
X223866Y408203D01*
X225000Y408961D01*
X226134Y408203D01*
X227500Y407931D01*
X228866Y408203D01*
X230000Y408961D01*
X231134Y408203D01*
X232500Y407931D01*
X233866Y408203D01*
X235000Y408961D01*
X236134Y408203D01*
X237500Y407931D01*
X238866Y408203D01*
X240000Y408961D01*
X241134Y408203D01*
X242500Y407931D01*
X243866Y408203D01*
X245000Y408961D01*
X246134Y408203D01*
X247500Y407931D01*
X248866Y408203D01*
X250000Y408961D01*
X251134Y408203D01*
X252500Y407931D01*
X253866Y408203D01*
X255000Y408961D01*
X256134Y408203D01*
X257500Y407931D01*
X258866Y408203D01*
X260000Y408961D01*
X261134Y408203D01*
X262500Y407931D01*
X263866Y408203D01*
X265000Y408961D01*
X266134Y408203D01*
X267500Y407931D01*
X268866Y408203D01*
X269160Y408400D01*
X269256Y408256D01*
X270000Y407758D01*
Y408960D01*
X270024Y408976D01*
X270797Y410134D01*
X271069Y411500D01*
Y418000D01*
X273931D01*
Y411500D01*
D02*
G37*
G36*
X158937Y422062D02*
X159117Y421625D01*
X159366Y421153D01*
X159684Y420647D01*
X160070Y420107D01*
X161050Y418921D01*
X161644Y418276D01*
X163037Y416883D01*
X161806Y412557D01*
X165759Y413137D01*
X167286Y409282D01*
X161237Y407356D01*
X161397Y407875D01*
X161502Y408389D01*
X161553Y408899D01*
X161548Y409404D01*
X161488Y409906D01*
X161374Y410402D01*
X161204Y410895D01*
X161163Y410984D01*
X160272Y411810D01*
X158452Y413314D01*
X157677Y413849D01*
X156993Y414239D01*
X156398Y414483D01*
X155894Y414583D01*
X155480Y414538D01*
X155157Y414348D01*
X154923Y414013D01*
X158826Y422463D01*
X158937Y422062D01*
D02*
G37*
G36*
X340500Y406892D02*
X342646Y407319D01*
X344465Y408535D01*
X346968Y407999D01*
X347463Y407742D01*
X347058Y403632D01*
X345813Y399528D01*
X343791Y395745D01*
X341070Y392430D01*
X337755Y389709D01*
X333973Y387687D01*
X329868Y386442D01*
X325758Y386037D01*
X325600Y386069D01*
X321796D01*
X321010Y387233D01*
X320280Y389069D01*
X321000Y390807D01*
Y393194D01*
X320588Y394188D01*
Y406263D01*
X320602Y406478D01*
X320604Y406493D01*
X322654Y407765D01*
X323521Y408056D01*
X324000Y407961D01*
X330000D01*
X330780Y408116D01*
X331442Y408558D01*
X333354Y407319D01*
X335500Y406892D01*
X335500D01*
Y419000D01*
X340500D01*
Y406892D01*
D02*
G37*
G36*
X319942Y410448D02*
X319639Y410109D01*
X319372Y409704D01*
X319141Y409231D01*
X318945Y408690D01*
X318785Y408083D01*
X318660Y407409D01*
X318571Y406667D01*
X318518Y405858D01*
X318500Y404982D01*
X313500D01*
X313482Y405858D01*
X313340Y407409D01*
X313215Y408083D01*
X313055Y408690D01*
X312859Y409231D01*
X312628Y409704D01*
X312360Y410109D01*
X312058Y410448D01*
X311720Y410720D01*
X320280D01*
X319942Y410448D01*
D02*
G37*
G36*
X149884Y407141D02*
X152490Y404712D01*
X152995Y404341D01*
X153442Y404064D01*
X153830Y403882D01*
X154160Y403795D01*
X154432Y403801D01*
X146101Y401943D01*
X146341Y402027D01*
X146507Y402154D01*
X146598Y402325D01*
X146616Y402540D01*
X146559Y402799D01*
X146429Y403101D01*
X146225Y403448D01*
X145946Y403838D01*
X145594Y404272D01*
X145167Y404749D01*
X149087Y407984D01*
X149884Y407141D01*
D02*
G37*
G36*
X156018Y400215D02*
X156109Y399960D01*
X156260Y399735D01*
X156472Y399540D01*
X156745Y399375D01*
X157078Y399240D01*
X157472Y399135D01*
X157927Y399060D01*
X158133Y399042D01*
X160500Y399000D01*
Y396000D01*
X157377Y395840D01*
X157078Y395760D01*
X156745Y395625D01*
X156472Y395460D01*
X156260Y395265D01*
X156109Y395040D01*
X156018Y394785D01*
X155987Y394500D01*
Y395768D01*
X155267Y395731D01*
Y399269D01*
X155367Y399218D01*
X155562Y399172D01*
X155851Y399132D01*
X155987Y399122D01*
Y400500D01*
X156018Y400215D01*
D02*
G37*
G36*
X114541Y477000D02*
X113173Y476820D01*
X111470Y476115D01*
X110007Y474992D01*
X108885Y473530D01*
X108180Y471827D01*
X107940Y470000D01*
Y460000D01*
X108180Y458173D01*
X108885Y456470D01*
X110007Y455008D01*
X111470Y453885D01*
X113173Y453180D01*
X114987Y452941D01*
X115047Y452841D01*
X115163Y452557D01*
X115279Y452122D01*
X115375Y451542D01*
X115412Y451128D01*
Y429000D01*
X115381D01*
X115855Y424197D01*
X117255Y419579D01*
X119530Y415323D01*
X122592Y411592D01*
X124753Y409819D01*
X124454Y407471D01*
X124075Y406494D01*
X122535Y405465D01*
X121319Y403646D01*
X120892Y401500D01*
Y397500D01*
X129000D01*
Y395000D01*
X131500D01*
Y382892D01*
X133646Y383319D01*
X135558Y384558D01*
X136220Y384116D01*
X137000Y383961D01*
X143000D01*
X143479Y384056D01*
X144294Y383790D01*
X145164Y383238D01*
X145913Y380399D01*
X145000Y378194D01*
Y375807D01*
X145913Y373601D01*
X147601Y371913D01*
X148657Y371476D01*
X149733Y368601D01*
X149716Y368038D01*
X149543Y367828D01*
X147825Y364614D01*
X146768Y361127D01*
X146411Y357500D01*
X146431D01*
Y338529D01*
X145000Y335750D01*
X145000Y335750D01*
X142000Y334989D01*
X141874Y335014D01*
X141724Y335111D01*
X141514Y335292D01*
X141220Y335768D01*
X140288Y338088D01*
X141000Y339807D01*
Y342193D01*
X140087Y344399D01*
X138399Y346087D01*
X136194Y347000D01*
X133806D01*
X131601Y346087D01*
X129914Y344399D01*
X129000Y342193D01*
Y339807D01*
X129712Y338088D01*
X128780Y335768D01*
X128486Y335292D01*
X128276Y335111D01*
X128126Y335014D01*
X126744Y334739D01*
X125256Y333744D01*
X124261Y332256D01*
X123912Y330500D01*
Y328304D01*
X123612Y328144D01*
X123553Y328096D01*
X120506Y325595D01*
X118406Y323452D01*
X116490Y321537D01*
X115971Y321054D01*
X115549Y320715D01*
X115340Y320569D01*
X109000D01*
X107634Y320297D01*
X106477Y319523D01*
X105703Y318366D01*
X105431Y317000D01*
Y316782D01*
X104000Y314039D01*
X96000D01*
X95220Y313884D01*
X94558Y313442D01*
X94326Y313095D01*
X93988Y312699D01*
X91861Y311339D01*
X91000Y311069D01*
X83000D01*
X81634Y310797D01*
X81584Y310763D01*
X78567Y310588D01*
X75623D01*
X75623Y310595D01*
X74900Y310571D01*
X74682Y310527D01*
X74682Y310527D01*
X74429Y310477D01*
X72151Y310252D01*
X72043Y310335D01*
X70816Y310843D01*
X70771Y310873D01*
X70719Y310883D01*
X70012Y311176D01*
X69985Y311226D01*
X69854Y311585D01*
X69728Y312108D01*
X69627Y312784D01*
X69588Y313276D01*
Y317263D01*
X69602Y317478D01*
X69677Y318102D01*
X69776Y318637D01*
X69893Y319082D01*
X70021Y319433D01*
X70147Y319691D01*
X70260Y319863D01*
X70350Y319963D01*
X70557Y320129D01*
X70559Y320132D01*
X70744Y320256D01*
X71063Y320732D01*
X71068Y320739D01*
X71069Y320742D01*
X71739Y321744D01*
X72088Y323500D01*
Y336500D01*
X71739Y338256D01*
X70744Y339744D01*
X69256Y340739D01*
X67500Y341088D01*
X62500D01*
X60744Y340739D01*
X58442Y340442D01*
X57780Y340884D01*
X57000Y341039D01*
X51000D01*
X50521Y340944D01*
X49706Y341210D01*
X47621Y342533D01*
X47588Y342896D01*
Y353544D01*
X47688Y353691D01*
X48176Y354313D01*
X50588Y355342D01*
X50843Y355206D01*
X51111Y355125D01*
X51588Y354841D01*
X52059Y354510D01*
X52417Y354202D01*
X52669Y353931D01*
X52828Y353706D01*
X52912Y353534D01*
Y351500D01*
X53261Y349744D01*
X54256Y348256D01*
X55744Y347261D01*
X57500Y346912D01*
X62500D01*
X64256Y347261D01*
X66558Y347558D01*
X67220Y347116D01*
X68000Y346961D01*
X74000D01*
X74780Y347116D01*
X75442Y347558D01*
X77744Y347261D01*
X79500Y346912D01*
X84500D01*
X86256Y347261D01*
X87744Y348256D01*
X88739Y349744D01*
X89088Y351500D01*
Y353415D01*
X89129Y353490D01*
X89259Y353652D01*
X89487Y353862D01*
X89832Y354106D01*
X90298Y354369D01*
X90886Y354638D01*
X91113Y354723D01*
X91747Y354875D01*
X92639Y355245D01*
X92661Y355250D01*
X92677Y355261D01*
X96095Y356676D01*
X100108Y359136D01*
X103687Y362192D01*
X103687Y362192D01*
X105938Y364000D01*
X106194D01*
X108399Y364913D01*
X110086Y366601D01*
X111000Y368806D01*
Y371194D01*
X110086Y373399D01*
X108399Y375087D01*
X106194Y376000D01*
X103806D01*
X101601Y375087D01*
X99913Y373399D01*
X99000Y371194D01*
Y370489D01*
X97195Y368684D01*
X97078Y368508D01*
X94076Y366044D01*
X92001Y364935D01*
X89009Y366020D01*
X88739Y366256D01*
X87744Y367744D01*
X86256Y368739D01*
X84500Y369088D01*
X79500D01*
X77744Y368739D01*
X75442Y368442D01*
X74780Y368884D01*
X74000Y369039D01*
X68000D01*
X67220Y368884D01*
X66558Y368442D01*
X64256Y368739D01*
X62500Y369088D01*
X57500D01*
X55744Y368739D01*
X54256Y367744D01*
X51286Y368003D01*
X50000Y368936D01*
Y370500D01*
X46500Y374000D01*
X39500D01*
X36000Y370500D01*
Y364642D01*
X35994Y364618D01*
X36000Y364577D01*
Y364559D01*
X35991Y364515D01*
X36000Y364472D01*
Y363500D01*
X37242Y362258D01*
X37491Y361841D01*
X37734Y361334D01*
X37945Y360771D01*
X38125Y360148D01*
X38268Y359465D01*
X38373Y358720D01*
X38412Y358242D01*
Y342737D01*
X38398Y342522D01*
X38323Y341898D01*
X38224Y341363D01*
X38107Y340918D01*
X37979Y340567D01*
X37853Y340309D01*
X37740Y340137D01*
X37650Y340037D01*
X37443Y339871D01*
X37441Y339868D01*
X37256Y339744D01*
X36937Y339268D01*
X36932Y339261D01*
X36931Y339258D01*
X36261Y338256D01*
X35912Y336500D01*
Y333607D01*
X35901Y333543D01*
X35737Y333019D01*
X35463Y332395D01*
X35070Y331682D01*
X34553Y330890D01*
X33925Y330044D01*
X32464Y328353D01*
X26695Y322584D01*
X26692Y322587D01*
X23636Y319008D01*
X23000Y317971D01*
X20000Y318817D01*
Y372415D01*
X23431Y372753D01*
X26729Y373754D01*
X29769Y375379D01*
X32434Y377566D01*
X34621Y380230D01*
X36246Y383271D01*
X37247Y386569D01*
X37585Y390000D01*
X37247Y393431D01*
X36763Y395026D01*
X39101Y397620D01*
X43002Y396844D01*
X50000Y396385D01*
X56998Y396844D01*
X63877Y398212D01*
X70518Y400466D01*
X76807Y403568D01*
X82639Y407464D01*
X87911Y412089D01*
X92535Y417361D01*
X96432Y423193D01*
X99534Y429482D01*
X101788Y436124D01*
X103156Y443002D01*
X103615Y450000D01*
X103156Y456998D01*
X101788Y463876D01*
X99534Y470518D01*
X96432Y476807D01*
X96066Y477354D01*
X97481Y480000D01*
X114345D01*
X114541Y477000D01*
D02*
G37*
G36*
X318500Y397937D02*
X318454Y394017D01*
X312160Y394817D01*
X312415Y395109D01*
X312642Y395445D01*
X312843Y395825D01*
X313018Y396248D01*
X313165Y396715D01*
X313286Y397226D01*
X313379Y397781D01*
X313446Y398380D01*
X313500Y399708D01*
X318500Y397937D01*
D02*
G37*
G36*
X397007Y394265D02*
X405202Y396409D01*
X404820Y395684D01*
X404528Y394991D01*
X404325Y394329D01*
X404211Y393699D01*
X404187Y393101D01*
X404252Y392534D01*
X404406Y392000D01*
X404649Y391497D01*
X404982Y391026D01*
X405404Y390587D01*
X402094Y389695D01*
X401577Y390283D01*
X400025Y391871D01*
X399508Y392341D01*
X397960Y393572D01*
X397445Y393923D01*
X397127Y394122D01*
X397102Y394126D01*
X397026Y394104D01*
X396928Y394053D01*
X396807Y393973D01*
X396663Y393863D01*
X396307Y393557D01*
X395600Y392879D01*
X393479Y395000D01*
X393734Y395259D01*
X394573Y396207D01*
X394653Y396328D01*
X394704Y396426D01*
X394725Y396502D01*
X394718Y396554D01*
X397007Y394265D01*
D02*
G37*
G36*
X411098Y383073D02*
X411071Y383365D01*
X410984Y383646D01*
X410835Y383915D01*
X410625Y384173D01*
X410355Y384420D01*
X410024Y384655D01*
X409632Y384878D01*
X409179Y385089D01*
X408665Y385289D01*
X408091Y385478D01*
X408152Y388720D01*
X408723Y388562D01*
X409233Y388452D01*
X409684Y388391D01*
X410076Y388376D01*
X410408Y388410D01*
X410680Y388491D01*
X410892Y388620D01*
X411045Y388797D01*
X411138Y389021D01*
X411171Y389293D01*
X411098Y383073D01*
D02*
G37*
G36*
X622524Y389962D02*
X622595Y389128D01*
X622714Y388392D01*
X622880Y387754D01*
X623094Y387214D01*
X623356Y386773D01*
X623665Y386429D01*
X624021Y386184D01*
X624425Y386036D01*
X624877Y385987D01*
X615123D01*
X615575Y386036D01*
X615979Y386184D01*
X616335Y386429D01*
X616644Y386773D01*
X616906Y387214D01*
X617120Y387754D01*
X617286Y388392D01*
X617405Y389128D01*
X617476Y389962D01*
X617500Y390895D01*
X622500D01*
X622524Y389962D01*
D02*
G37*
G36*
X592525Y390058D02*
X592600Y389199D01*
X592725Y388442D01*
X592900Y387786D01*
X593125Y387233D01*
X593400Y386780D01*
X593725Y386430D01*
X594100Y386181D01*
X594525Y386033D01*
X595000Y385987D01*
X585006Y385888D01*
X585480Y385944D01*
X585904Y386102D01*
X586278Y386361D01*
X586602Y386721D01*
X586876Y387183D01*
X587101Y387747D01*
X587276Y388412D01*
X587400Y389179D01*
X587475Y390048D01*
X587500Y391018D01*
X592500D01*
X592525Y390058D01*
D02*
G37*
G36*
X383445Y390298D02*
X383567Y390080D01*
X383751Y389916D01*
X383996Y389807D01*
X384304Y389751D01*
X384673Y389749D01*
X385105Y389801D01*
X385598Y389907D01*
X386153Y390067D01*
X386770Y390281D01*
X386849Y387038D01*
X386278Y386810D01*
X385771Y386574D01*
X385328Y386331D01*
X384947Y386080D01*
X384629Y385822D01*
X384375Y385556D01*
X384183Y385282D01*
X384055Y385001D01*
X383989Y384711D01*
X383987Y384415D01*
X383385Y390570D01*
X383445Y390298D01*
D02*
G37*
G36*
X167883Y390352D02*
X168345Y390069D01*
X168825Y389818D01*
X169324Y389601D01*
X169841Y389417D01*
X170378Y389267D01*
X170932Y389150D01*
X171506Y389067D01*
X172098Y389017D01*
X172708Y389000D01*
Y386000D01*
X172098Y385983D01*
X171506Y385933D01*
X170932Y385850D01*
X170378Y385733D01*
X169841Y385583D01*
X169324Y385399D01*
X168825Y385182D01*
X168345Y384931D01*
X167883Y384648D01*
X167440Y384330D01*
Y390670D01*
X167883Y390352D01*
D02*
G37*
G36*
X366259Y382964D02*
X366218Y383238D01*
X366116Y383465D01*
X365954Y383645D01*
X365731Y383777D01*
X365447Y383861D01*
X365103Y383897D01*
X364698Y383885D01*
X364233Y383826D01*
X363707Y383719D01*
X363120Y383565D01*
X363088Y386746D01*
X363658Y386926D01*
X364166Y387119D01*
X364614Y387324D01*
X365001Y387542D01*
X365326Y387773D01*
X365591Y388016D01*
X365794Y388272D01*
X365936Y388541D01*
X366017Y388822D01*
X366036Y389116D01*
X366259Y382964D01*
D02*
G37*
G36*
X154942Y386448D02*
X154640Y386109D01*
X154372Y385704D01*
X154141Y385231D01*
X153945Y384690D01*
X153785Y384083D01*
X153660Y383409D01*
X153571Y382667D01*
X153564Y382556D01*
X153667Y381046D01*
X153741Y380607D01*
X153828Y380227D01*
X153928Y379906D01*
X154042Y379643D01*
X154170Y379440D01*
X147830D01*
X147958Y379643D01*
X148071Y379906D01*
X148172Y380227D01*
X148259Y380607D01*
X148333Y381046D01*
X148440Y382100D01*
X148446Y382252D01*
X148340Y383409D01*
X148215Y384083D01*
X148055Y384690D01*
X147859Y385231D01*
X147628Y385704D01*
X147360Y386109D01*
X147058Y386448D01*
X146720Y386720D01*
X155280D01*
X154942Y386448D01*
D02*
G37*
G36*
X397588Y391007D02*
X399396Y389597D01*
X400081Y388896D01*
X400564Y388348D01*
X400683Y388256D01*
X401392Y387392D01*
X403965Y385280D01*
X406901Y383711D01*
X407445Y383546D01*
X407455Y383540D01*
X407977Y383369D01*
X408377Y383214D01*
X408694Y383065D01*
X408927Y382933D01*
X409041Y382852D01*
X409261Y381744D01*
X409558Y379442D01*
X409116Y378780D01*
X408961Y378000D01*
Y372000D01*
X409116Y371220D01*
X409558Y370558D01*
X409261Y368256D01*
X409041Y367148D01*
X408927Y367067D01*
X408694Y366935D01*
X408377Y366786D01*
X407977Y366631D01*
X407455Y366460D01*
X407445Y366454D01*
X406901Y366289D01*
X403965Y364720D01*
X401392Y362608D01*
X400691Y361754D01*
X400581Y361672D01*
X399572Y360554D01*
X399410Y360389D01*
X397543Y358953D01*
X397077Y358599D01*
X393618Y361553D01*
X389740Y363930D01*
X387819Y364725D01*
X387675Y364827D01*
X387637Y364835D01*
X387605Y364856D01*
X387087Y365063D01*
X386692Y365247D01*
X386380Y365417D01*
X386154Y365566D01*
X386088Y365620D01*
Y366000D01*
X385739Y367756D01*
X384744Y369244D01*
X383256Y370239D01*
X381500Y370588D01*
X368500D01*
X366744Y370239D01*
X365256Y369244D01*
X364551Y368190D01*
X364197Y368262D01*
X363553Y368457D01*
X360328Y370181D01*
X359761Y370647D01*
X357548Y372548D01*
X356863Y375000D01*
X357548Y377452D01*
X359761Y379353D01*
X360328Y379819D01*
X363553Y381543D01*
X364197Y381738D01*
X364551Y381810D01*
X365256Y380756D01*
X366744Y379761D01*
X368500Y379412D01*
X381500D01*
X383256Y379761D01*
X384744Y380756D01*
X385739Y382244D01*
X386088Y384000D01*
Y384380D01*
X386154Y384434D01*
X386380Y384583D01*
X386691Y384753D01*
X387087Y384937D01*
X387605Y385144D01*
X387637Y385165D01*
X387675Y385173D01*
X387819Y385275D01*
X389740Y386070D01*
X393619Y388447D01*
X397077Y391401D01*
X397588Y391007D01*
D02*
G37*
G36*
X366036Y360884D02*
X366017Y361178D01*
X365936Y361459D01*
X365794Y361728D01*
X365591Y361984D01*
X365326Y362227D01*
X365001Y362458D01*
X364614Y362676D01*
X364166Y362881D01*
X363658Y363074D01*
X363088Y363254D01*
X363120Y366435D01*
X363707Y366281D01*
X364233Y366174D01*
X364698Y366115D01*
X365103Y366103D01*
X365447Y366140D01*
X365731Y366223D01*
X365954Y366355D01*
X366116Y366535D01*
X366218Y366762D01*
X366259Y367037D01*
X366036Y360884D01*
D02*
G37*
G36*
X326111Y358009D02*
X326082Y358297D01*
X325991Y358571D01*
X325839Y358829D01*
X325625Y359073D01*
X325350Y359301D01*
X325013Y359514D01*
X324615Y359712D01*
X324156Y359895D01*
X323635Y360063D01*
X323053Y360216D01*
X323092Y363390D01*
X323670Y363268D01*
X324187Y363189D01*
X324644Y363155D01*
X325040Y363164D01*
X325375Y363218D01*
X325650Y363315D01*
X325864Y363456D01*
X326017Y363641D01*
X326109Y363870D01*
X326141Y364143D01*
X326111Y358009D01*
D02*
G37*
G36*
X611720Y354720D02*
X611448Y355058D01*
X611109Y355360D01*
X610704Y355628D01*
X610231Y355859D01*
X609690Y356055D01*
X609083Y356215D01*
X608409Y356340D01*
X607667Y356429D01*
X606858Y356482D01*
X606000Y356500D01*
X605142Y356482D01*
X603591Y356340D01*
X602917Y356215D01*
X602310Y356055D01*
X601769Y355859D01*
X601296Y355628D01*
X600891Y355360D01*
X600552Y355058D01*
X600280Y354720D01*
Y363280D01*
X600552Y362942D01*
X600891Y362640D01*
X601296Y362372D01*
X601769Y362141D01*
X602310Y361945D01*
X602917Y361785D01*
X603591Y361660D01*
X604333Y361571D01*
X605142Y361518D01*
X606000Y361500D01*
X606858Y361518D01*
X608409Y361660D01*
X609083Y361785D01*
X609690Y361945D01*
X610231Y362141D01*
X610704Y362372D01*
X611109Y362640D01*
X611448Y362942D01*
X611720Y363280D01*
Y354720D01*
D02*
G37*
G36*
X411171Y360707D02*
X411138Y360979D01*
X411045Y361203D01*
X410892Y361380D01*
X410680Y361509D01*
X410408Y361590D01*
X410076Y361624D01*
X409684Y361610D01*
X409233Y361548D01*
X408723Y361438D01*
X408152Y361280D01*
X408091Y364522D01*
X408665Y364711D01*
X409179Y364911D01*
X409632Y365122D01*
X410024Y365345D01*
X410355Y365580D01*
X410625Y365827D01*
X410835Y366085D01*
X410984Y366354D01*
X411071Y366635D01*
X411098Y366927D01*
X411171Y360707D01*
D02*
G37*
G36*
X383989Y365289D02*
X384055Y365000D01*
X384183Y364718D01*
X384375Y364444D01*
X384629Y364178D01*
X384947Y363920D01*
X385328Y363669D01*
X385771Y363426D01*
X386278Y363190D01*
X386849Y362962D01*
X386770Y359719D01*
X386153Y359933D01*
X385598Y360093D01*
X385105Y360199D01*
X384673Y360251D01*
X384304Y360249D01*
X383996Y360193D01*
X383751Y360084D01*
X383567Y359920D01*
X383445Y359702D01*
X383385Y359430D01*
X383987Y365585D01*
X383989Y365289D01*
D02*
G37*
G36*
X405404Y359413D02*
X405191Y359143D01*
X405034Y358771D01*
X404934Y358296D01*
X404889Y357719D01*
X404902Y357039D01*
X404970Y356257D01*
X405095Y355373D01*
X405514Y353297D01*
X405808Y352106D01*
X396998Y355727D01*
X394718Y353446D01*
X394725Y353498D01*
X394704Y353574D01*
X394653Y353672D01*
X394573Y353793D01*
X394463Y353937D01*
X394157Y354293D01*
X393479Y355000D01*
X395600Y357121D01*
X395858Y356866D01*
X396807Y356027D01*
X396928Y355947D01*
X397026Y355896D01*
X397102Y355874D01*
X397127Y355878D01*
X397445Y356077D01*
X398476Y356809D01*
X398992Y357219D01*
X400542Y358629D01*
X401059Y359158D01*
X402094Y360305D01*
X405404Y359413D01*
D02*
G37*
G36*
X47634Y368178D02*
X47486Y367763D01*
X47495Y367295D01*
X47662Y366774D01*
X47986Y366201D01*
X48467Y365575D01*
X49105Y364897D01*
X49900Y364165D01*
X50853Y363382D01*
X51060Y363225D01*
X51358Y363111D01*
X52125Y362868D01*
X52801Y362713D01*
X53388Y362644D01*
X53885Y362662D01*
X54291Y362767D01*
X54606Y362960D01*
X54832Y363239D01*
X54967Y363606D01*
X55013Y364059D01*
Y353267D01*
X54965Y353773D01*
X54824Y354267D01*
X54587Y354748D01*
X54257Y355218D01*
X53832Y355675D01*
X53312Y356120D01*
X52698Y356554D01*
X51990Y356975D01*
X51187Y357383D01*
X50290Y357780D01*
X50357Y359595D01*
X49573Y358154D01*
X48521Y358890D01*
X46514Y360131D01*
X45861Y360476D01*
X45722Y359818D01*
X45599Y358945D01*
X45525Y358020D01*
X45500Y357046D01*
X40500D01*
X40475Y358020D01*
X40401Y358945D01*
X40278Y359818D01*
X40105Y360641D01*
X39883Y361413D01*
X39611Y362135D01*
X39290Y362806D01*
X38919Y363426D01*
X38500Y363996D01*
X38031Y364515D01*
X43348D01*
X47939Y368541D01*
X47634Y368178D01*
D02*
G37*
G36*
X87035Y363140D02*
X87179Y362756D01*
X87418Y362450D01*
X87753Y362221D01*
X88184Y362070D01*
X88710Y361996D01*
X89332Y361998D01*
X90050Y362079D01*
X90863Y362236D01*
X91772Y362470D01*
X91852Y357122D01*
X90928Y356833D01*
X90101Y356521D01*
X89371Y356187D01*
X88739Y355830D01*
X88204Y355451D01*
X87766Y355050D01*
X87425Y354625D01*
X87182Y354179D01*
X87036Y353709D01*
X86987Y353218D01*
Y363600D01*
X87035Y363140D01*
D02*
G37*
G36*
X628960Y361981D02*
X629169Y361502D01*
X629453Y361027D01*
X629811Y360555D01*
X630245Y360087D01*
X630753Y359623D01*
X631337Y359163D01*
X631995Y358707D01*
X632729Y358254D01*
X633537Y357805D01*
X632700Y352382D01*
X631937Y352768D01*
X630507Y353391D01*
X629839Y353626D01*
X629203Y353811D01*
X628599Y353946D01*
X628027Y354031D01*
X627486Y354065D01*
X626977Y354049D01*
X626500Y353982D01*
X628826Y362463D01*
X628960Y361981D01*
D02*
G37*
G36*
X458471Y357525D02*
X458628Y357100D01*
X458927Y356725D01*
X459367Y356400D01*
X459948Y356125D01*
X460670Y355900D01*
X461533Y355725D01*
X462538Y355600D01*
X463683Y355525D01*
X464969Y355500D01*
X463954Y350500D01*
X462990Y350485D01*
X461272Y350368D01*
X460519Y350265D01*
X459837Y350133D01*
X459225Y349971D01*
X458684Y349780D01*
X458214Y349560D01*
X457814Y349310D01*
X457485Y349030D01*
X458454Y358000D01*
X458471Y357525D01*
D02*
G37*
G36*
X318170Y353560D02*
X318042Y353357D01*
X317929Y353094D01*
X317828Y352773D01*
X317741Y352393D01*
X317667Y351954D01*
X317560Y350900D01*
X317507Y349611D01*
X317500Y348877D01*
X312500D01*
X312493Y349611D01*
X312333Y351954D01*
X312259Y352393D01*
X312172Y352773D01*
X312071Y353094D01*
X311958Y353357D01*
X311830Y353560D01*
X318170Y353560D01*
D02*
G37*
G36*
X638993Y353546D02*
X639361Y353222D01*
X639452Y353157D01*
X639528Y353114D01*
X639588Y353092D01*
X639632Y353092D01*
X639661Y353114D01*
X639674Y353157D01*
X639013Y346196D01*
X638981Y346276D01*
X638877Y346424D01*
X638701Y346638D01*
X637739Y347684D01*
X635447Y350018D01*
X638839Y353697D01*
X638993Y353546D01*
D02*
G37*
G36*
X456616Y349061D02*
X456617Y349019D01*
X456558Y348905D01*
X456440Y348719D01*
X455727Y347729D01*
X453939Y345404D01*
X450404Y348939D01*
X450583Y349167D01*
X451391Y350072D01*
X451443Y350104D01*
X451479Y350110D01*
X456616Y349061D01*
D02*
G37*
G36*
X45518Y343142D02*
X45660Y341591D01*
X45785Y340917D01*
X45945Y340310D01*
X46141Y339769D01*
X46372Y339296D01*
X46639Y338891D01*
X46942Y338552D01*
X47280Y338280D01*
X38720D01*
X39058Y338552D01*
X39360Y338891D01*
X39628Y339296D01*
X39859Y339769D01*
X40055Y340310D01*
X40215Y340917D01*
X40340Y341591D01*
X40429Y342333D01*
X40482Y343142D01*
X40500Y344018D01*
X45500D01*
X45518Y343142D01*
D02*
G37*
G36*
X137852Y338117D02*
X137569Y337655D01*
X137318Y337175D01*
X137101Y336676D01*
X136917Y336158D01*
X136767Y335622D01*
X136650Y335068D01*
X136597Y334702D01*
X136635Y334472D01*
X136740Y334078D01*
X136875Y333745D01*
X137040Y333472D01*
X137235Y333260D01*
X137460Y333109D01*
X137715Y333018D01*
X138000Y332987D01*
X132000D01*
X132285Y333018D01*
X132540Y333109D01*
X132765Y333260D01*
X132960Y333472D01*
X133125Y333745D01*
X133260Y334078D01*
X133365Y334472D01*
X133403Y334702D01*
X133350Y335068D01*
X133233Y335622D01*
X133083Y336158D01*
X132899Y336676D01*
X132682Y337175D01*
X132431Y337655D01*
X132148Y338117D01*
X131830Y338560D01*
X138170D01*
X137852Y338117D01*
D02*
G37*
G36*
X648574Y337116D02*
X648349Y336648D01*
X648150Y336132D01*
X647977Y335570D01*
X647832Y334959D01*
X647712Y334302D01*
X647553Y332845D01*
X647513Y332045D01*
X647500Y331198D01*
X642500Y330982D01*
X642475Y332091D01*
X642401Y333078D01*
X642277Y333941D01*
X642103Y334683D01*
X641879Y335302D01*
X641606Y335798D01*
X641283Y336172D01*
X640911Y336423D01*
X640489Y336552D01*
X640017Y336558D01*
X648826Y337537D01*
X648574Y337116D01*
D02*
G37*
G36*
X316337Y330891D02*
X312651Y329634D01*
X312770Y330022D01*
X312844Y330408D01*
X312873Y330791D01*
X312856Y331173D01*
X312794Y331553D01*
X312687Y331931D01*
X312535Y332307D01*
X312338Y332681D01*
X312095Y333054D01*
X311807Y333424D01*
X315111Y333923D01*
X316337Y330891D01*
D02*
G37*
G36*
X39139Y321476D02*
X39041Y322049D01*
X38861Y322468D01*
X38598Y322734D01*
X38253Y322848D01*
X37825Y322808D01*
X37314Y322615D01*
X36721Y322268D01*
X36046Y321769D01*
X35287Y321117D01*
X34447Y320311D01*
X32679Y325614D01*
X33743Y326713D01*
X35517Y328768D01*
X36227Y329723D01*
X36819Y330631D01*
X37294Y331491D01*
X37650Y332303D01*
X37889Y333068D01*
X38010Y333784D01*
X38013Y334453D01*
X39139Y321476D01*
D02*
G37*
G36*
X669942Y336448D02*
X669640Y336109D01*
X669372Y335704D01*
X669141Y335231D01*
X668945Y334690D01*
X668785Y334083D01*
X668660Y333409D01*
X668593Y332852D01*
X668726Y331950D01*
X669008Y330788D01*
X669404Y329615D01*
X669913Y328433D01*
X670534Y327239D01*
X671269Y326036D01*
X672116Y324822D01*
X673077Y323598D01*
X674150Y322364D01*
X659932Y321171D01*
X660610Y322291D01*
X661216Y323433D01*
X661752Y324596D01*
X662215Y325783D01*
X662608Y326991D01*
X662929Y328221D01*
X663179Y329473D01*
X663357Y330747D01*
X663464Y332044D01*
X663465Y332051D01*
X663340Y333409D01*
X663215Y334083D01*
X663055Y334690D01*
X662859Y335231D01*
X662628Y335704D01*
X662361Y336109D01*
X662058Y336448D01*
X661720Y336720D01*
X670280D01*
X669942Y336448D01*
D02*
G37*
G36*
X120620Y318498D02*
X120023Y317880D01*
X119083Y316774D01*
X118741Y316285D01*
X118483Y315839D01*
X118310Y315436D01*
X118222Y315077D01*
X118219Y314760D01*
X118301Y314486D01*
X118468Y314256D01*
X114256Y318468D01*
X114486Y318301D01*
X114760Y318219D01*
X115077Y318222D01*
X115436Y318310D01*
X115839Y318483D01*
X116285Y318741D01*
X116774Y319083D01*
X117305Y319510D01*
X118498Y320620D01*
X120620Y318498D01*
D02*
G37*
G36*
X68942Y321448D02*
X68639Y321109D01*
X68372Y320704D01*
X68141Y320231D01*
X67945Y319690D01*
X67785Y319083D01*
X67660Y318409D01*
X67571Y317667D01*
X67518Y316858D01*
X67500Y315982D01*
X62500D01*
X62482Y316858D01*
X62340Y318409D01*
X62215Y319083D01*
X62055Y319690D01*
X61859Y320231D01*
X61628Y320704D01*
X61361Y321109D01*
X61058Y321448D01*
X60720Y321720D01*
X69280D01*
X68942Y321448D01*
D02*
G37*
G36*
X213000Y324412D02*
X269000D01*
X269179Y324448D01*
X271969Y324080D01*
X274736Y322934D01*
X277111Y321111D01*
X278934Y318736D01*
X280080Y315969D01*
X280153Y315416D01*
X280254Y314266D01*
X280063Y313925D01*
X278490Y312486D01*
X275744Y311744D01*
X275000Y312242D01*
Y311040D01*
X274976Y311024D01*
X274203Y309866D01*
X273931Y308500D01*
Y302000D01*
X271069D01*
Y308500D01*
X270797Y309866D01*
X270024Y311024D01*
X270000Y311040D01*
Y312242D01*
X269256Y311744D01*
X269160Y311600D01*
X268866Y311797D01*
X267500Y312069D01*
X266134Y311797D01*
X265000Y311039D01*
X263866Y311797D01*
X262500Y312069D01*
X261134Y311797D01*
X260000Y311039D01*
X258866Y311797D01*
X257500Y312069D01*
X256134Y311797D01*
X255000Y311039D01*
X253866Y311797D01*
X252500Y312069D01*
X251134Y311797D01*
X250000Y311039D01*
X248866Y311797D01*
X247500Y312069D01*
X246134Y311797D01*
X245000Y311039D01*
X243866Y311797D01*
X242500Y312069D01*
X241134Y311797D01*
X240000Y311039D01*
X238866Y311797D01*
X237500Y312069D01*
X236134Y311797D01*
X235000Y311039D01*
X233866Y311797D01*
X232500Y312069D01*
X231134Y311797D01*
X230000Y311039D01*
X228866Y311797D01*
X227500Y312069D01*
X226134Y311797D01*
X225000Y311039D01*
X223866Y311797D01*
X222500Y312069D01*
X221134Y311797D01*
X220000Y311039D01*
X218866Y311797D01*
X217500Y312069D01*
X216134Y311797D01*
X215000Y311039D01*
X213866Y311797D01*
X212500Y312069D01*
X211134Y311797D01*
X210840Y311600D01*
X210744Y311744D01*
X210000Y312242D01*
Y311040D01*
X209976Y311024D01*
X209203Y309866D01*
X208931Y308500D01*
Y302000D01*
Y295500D01*
X209203Y294134D01*
X209976Y292976D01*
X210000Y292960D01*
Y291758D01*
X210744Y292256D01*
X210840Y292400D01*
X211134Y292203D01*
X212500Y291931D01*
X213866Y292203D01*
X214652Y292728D01*
X215973Y292311D01*
X216134Y292203D01*
X216621Y292106D01*
X217563Y291809D01*
X218931Y289157D01*
Y283366D01*
X218915Y283182D01*
X218900Y283088D01*
X216000D01*
X214244Y282739D01*
X212756Y281744D01*
X211761Y280256D01*
X211412Y278500D01*
Y273500D01*
X211761Y271744D01*
X212058Y269442D01*
X211616Y268780D01*
X211461Y268000D01*
Y262000D01*
X211616Y261220D01*
X212058Y260558D01*
X210819Y258646D01*
X210392Y256500D01*
X222500D01*
Y251500D01*
X210392D01*
X209161Y250000D01*
X180000D01*
Y260892D01*
X186500D01*
X188646Y261319D01*
X190465Y262535D01*
X191681Y264354D01*
X192108Y266500D01*
X180000D01*
Y271500D01*
X192108D01*
Y271500D01*
X191681Y273646D01*
X190442Y275558D01*
X190884Y276220D01*
X191039Y277000D01*
Y283000D01*
X190884Y283780D01*
X190442Y284442D01*
X190739Y286744D01*
X190791Y287007D01*
X190801Y287028D01*
X190904Y287428D01*
X191031Y287774D01*
X191205Y288148D01*
X191807Y289155D01*
X192153Y289639D01*
X193769Y291538D01*
X193815Y291586D01*
X194142Y291854D01*
X196119Y294263D01*
X198107Y294200D01*
X199406Y293830D01*
X199977Y292977D01*
X201134Y292203D01*
X202500Y291931D01*
X203866Y292203D01*
X204160Y292400D01*
X204256Y292256D01*
X205000Y291758D01*
Y292960D01*
X205024Y292976D01*
X205797Y294134D01*
X206069Y295500D01*
Y302000D01*
Y308500D01*
X205797Y309866D01*
X205024Y311024D01*
X205000Y311040D01*
Y312242D01*
X204256Y311744D01*
X201588Y312879D01*
X199998Y314293D01*
X199954Y314388D01*
X199968Y314488D01*
X201316Y317742D01*
X203460Y320537D01*
X206254Y322681D01*
X209508Y324029D01*
X212768Y324458D01*
X213000Y324412D01*
D02*
G37*
G36*
X67525Y313500D02*
X67600Y312554D01*
X67724Y311718D01*
X67899Y310994D01*
X68123Y310381D01*
X68397Y309880D01*
X68721Y309490D01*
X69094Y309212D01*
X69518Y309045D01*
X69991Y308989D01*
X60009D01*
X60482Y309045D01*
X60906Y309212D01*
X61279Y309490D01*
X61603Y309880D01*
X61877Y310381D01*
X62101Y310994D01*
X62276Y311718D01*
X62400Y312554D01*
X62475Y313500D01*
X62500Y314559D01*
X67500D01*
X67525Y313500D01*
D02*
G37*
G36*
X38744Y319261D02*
X40500Y318912D01*
X45500D01*
X47256Y319261D01*
X49558Y319558D01*
X50220Y319116D01*
X51000Y318961D01*
X57000D01*
X57479Y319056D01*
X58294Y318790D01*
X60378Y317467D01*
X60412Y317104D01*
Y313276D01*
X60373Y312785D01*
X60272Y312108D01*
X60146Y311585D01*
X60015Y311225D01*
X59988Y311176D01*
X59281Y310883D01*
X59229Y310873D01*
X59184Y310843D01*
X57957Y310335D01*
X55868Y308732D01*
X54524Y306981D01*
X53046Y306836D01*
X51218Y307125D01*
X51209Y307147D01*
X49445Y309445D01*
X47147Y311208D01*
X44472Y312317D01*
X42100Y312629D01*
Y301600D01*
Y290571D01*
X44472Y290883D01*
X47147Y291992D01*
X49445Y293755D01*
X51209Y296053D01*
X51218Y296075D01*
X53046Y296364D01*
X54524Y296219D01*
X55868Y294468D01*
X57957Y292865D01*
X60389Y291857D01*
X63000Y291514D01*
X67000D01*
X69611Y291857D01*
X72043Y292865D01*
X74132Y294468D01*
X75735Y296557D01*
X76743Y298990D01*
X77062Y301412D01*
X79667D01*
X81087Y301329D01*
X81394Y301293D01*
X81537Y301269D01*
X81634Y301203D01*
X83000Y300931D01*
X91000D01*
X91861Y300660D01*
X93988Y299301D01*
X94326Y298905D01*
X94558Y298558D01*
X95220Y298116D01*
X96000Y297961D01*
X104000D01*
X105431Y295218D01*
Y295000D01*
X105703Y293634D01*
X106477Y292477D01*
X107634Y291703D01*
X109000Y291431D01*
X117000D01*
X118366Y291703D01*
X119523Y292477D01*
X120297Y293634D01*
X120491Y294611D01*
X122342Y294854D01*
X125690Y296241D01*
X127025Y297266D01*
X129489Y295375D01*
X129000Y294193D01*
Y291807D01*
X129712Y290088D01*
X128780Y287768D01*
X128486Y287292D01*
X128276Y287111D01*
X128126Y287014D01*
X126744Y286739D01*
X125256Y285744D01*
X124261Y284256D01*
X124086Y283373D01*
X123850Y283335D01*
X123655Y283319D01*
X120657D01*
X120157Y283353D01*
X119881Y283391D01*
X119656Y283436D01*
X119565Y283462D01*
X119523Y283523D01*
X118366Y284297D01*
X117000Y284569D01*
X109000D01*
X107634Y284297D01*
X106477Y283523D01*
X105703Y282366D01*
X105431Y281000D01*
Y280782D01*
X104000Y278039D01*
X96000D01*
X95220Y277884D01*
X94558Y277442D01*
X94326Y277095D01*
X93988Y276699D01*
X91861Y275340D01*
X91000Y275069D01*
X83000D01*
X81634Y274797D01*
X80477Y274023D01*
X79703Y272866D01*
X79431Y271500D01*
Y268500D01*
X79703Y267134D01*
X80477Y265977D01*
X81634Y265203D01*
X82058Y265119D01*
X82151Y264870D01*
X82275Y264370D01*
X82285Y264300D01*
X82402Y261349D01*
X82402D01*
X82792Y258392D01*
X83933Y255636D01*
X85749Y253270D01*
Y253270D01*
X86470Y250568D01*
X86256Y248744D01*
X85420Y247494D01*
X85402Y247473D01*
X85398Y247460D01*
X85261Y247256D01*
X85225Y247075D01*
X85219Y247064D01*
X85087Y246883D01*
X84888Y246647D01*
X82213Y244123D01*
X81456Y243482D01*
X81415Y243430D01*
X80951Y243049D01*
X79029Y240708D01*
X77602Y238037D01*
X76722Y235139D01*
X76630Y234204D01*
X75708Y233587D01*
X73499Y233018D01*
X72043Y234135D01*
X69611Y235143D01*
X67000Y235486D01*
X63000D01*
X60389Y235143D01*
X57957Y234135D01*
X55868Y232532D01*
X54265Y230443D01*
X53924Y229619D01*
X50676D01*
X50335Y230443D01*
X48732Y232532D01*
X46643Y234135D01*
X44211Y235143D01*
X41600Y235486D01*
X37600D01*
X34990Y235143D01*
X32557Y234135D01*
X30468Y232532D01*
X30088Y232037D01*
X27088Y233055D01*
Y241502D01*
X28729Y242396D01*
X30088Y242699D01*
X32053Y241192D01*
X34728Y240083D01*
X37100Y239771D01*
Y250800D01*
Y261829D01*
X34728Y261517D01*
X32053Y260408D01*
X30088Y258901D01*
X28729Y259204D01*
X27088Y260098D01*
Y266902D01*
X28729Y267796D01*
X30088Y268099D01*
X32053Y266591D01*
X34728Y265483D01*
X37100Y265171D01*
Y276200D01*
Y287229D01*
X34728Y286917D01*
X32053Y285809D01*
X30088Y284301D01*
X28729Y284604D01*
X27088Y285498D01*
Y292302D01*
X28729Y293196D01*
X30088Y293499D01*
X32053Y291992D01*
X34728Y290883D01*
X37100Y290571D01*
Y301600D01*
Y312629D01*
X35442Y312411D01*
X33669Y313759D01*
X32899Y314806D01*
X33184Y316095D01*
X36919Y319830D01*
X37318Y320174D01*
X37347Y320195D01*
X38744Y319261D01*
D02*
G37*
G36*
X82427Y303116D02*
X82268Y303189D01*
X82022Y303254D01*
X81688Y303312D01*
X81266Y303362D01*
X79478Y303465D01*
X76901Y303500D01*
Y308500D01*
X77847Y308504D01*
X82022Y308746D01*
X82268Y308811D01*
X82427Y308884D01*
Y303116D01*
D02*
G37*
G36*
X143829Y309200D02*
X143914Y309004D01*
X144053Y308861D01*
X144247Y308772D01*
X144496Y308737D01*
X144799Y308755D01*
X145157Y308828D01*
X145570Y308953D01*
X146037Y309133D01*
X146558Y309366D01*
X146801Y305802D01*
X146241Y305522D01*
X145299Y304955D01*
X144917Y304669D01*
X144594Y304380D01*
X144330Y304090D01*
X144126Y303797D01*
X143981Y303503D01*
X143896Y303207D01*
X143869Y302908D01*
X143799Y309450D01*
X143829Y309200D01*
D02*
G37*
G36*
X201032Y299000D02*
X201002Y299285D01*
X200911Y299540D01*
X200759Y299765D01*
X200547Y299960D01*
X200275Y300125D01*
X199941Y300260D01*
X199547Y300365D01*
X199093Y300440D01*
X198577Y300485D01*
X198002Y300500D01*
Y303500D01*
X198577Y303515D01*
X199093Y303560D01*
X199547Y303635D01*
X199941Y303740D01*
X200275Y303875D01*
X200547Y304040D01*
X200759Y304235D01*
X200911Y304460D01*
X201002Y304715D01*
X201032Y305000D01*
Y299000D01*
D02*
G37*
G36*
X288687Y306070D02*
X289837Y303760D01*
X290283Y303047D01*
X290621Y303177D01*
X291166Y303454D01*
X291712Y303799D01*
X292260Y304212D01*
X292809Y304693D01*
X293360Y305242D01*
X293911Y305858D01*
X295020Y307295D01*
X300425Y305889D01*
X299581Y304654D01*
X298293Y302502D01*
X297849Y301585D01*
X297539Y300775D01*
X297362Y300071D01*
X297318Y299473D01*
X297408Y298981D01*
X297631Y298596D01*
X297987Y298317D01*
X291967Y301529D01*
X288098Y287821D01*
X288111Y287006D01*
X288076Y287290D01*
X287978Y287544D01*
X287819Y287768D01*
X287599Y287962D01*
X287317Y288127D01*
X286973Y288261D01*
X286568Y288365D01*
X286101Y288440D01*
X285572Y288485D01*
X284982Y288500D01*
Y291500D01*
X285562Y291515D01*
X286081Y291560D01*
X286538Y291635D01*
X286933Y291740D01*
X287267Y291875D01*
X287540Y292040D01*
X287750Y292235D01*
X287898Y292459D01*
X287882Y292551D01*
X287571Y293869D01*
X286666Y296814D01*
X285381Y300174D01*
X288041Y307573D01*
X288687Y306070D01*
D02*
G37*
G36*
X192955Y293630D02*
X192258Y292909D01*
X190544Y290895D01*
X190100Y290273D01*
X189401Y289104D01*
X189146Y288556D01*
X188954Y288034D01*
X188826Y287537D01*
X184483Y295987D01*
X184743Y295641D01*
X185091Y295447D01*
X185527Y295404D01*
X186049Y295513D01*
X186659Y295774D01*
X187356Y296187D01*
X188141Y296752D01*
X189013Y297469D01*
X191019Y299358D01*
X192955Y293630D01*
D02*
G37*
G36*
X466513Y295000D02*
X466462Y295475D01*
X466311Y295900D01*
X466060Y296275D01*
X465708Y296600D01*
X465255Y296875D01*
X464702Y297100D01*
X464048Y297275D01*
X463293Y297400D01*
X462438Y297475D01*
X461482Y297500D01*
Y302500D01*
X462438Y302525D01*
X463293Y302600D01*
X464048Y302725D01*
X464702Y302900D01*
X465255Y303125D01*
X465708Y303400D01*
X466060Y303725D01*
X466311Y304100D01*
X466462Y304525D01*
X466513Y305000D01*
Y295000D01*
D02*
G37*
G36*
X268797Y297354D02*
X268688Y297021D01*
X268642Y296637D01*
X268657Y296200D01*
X268735Y295712D01*
X268874Y295173D01*
X269076Y294581D01*
X269340Y293938D01*
X270054Y292496D01*
X267958Y290350D01*
X267471Y291260D01*
X266155Y294139D01*
X266115Y294381D01*
X266149Y294512D01*
X266258Y294532D01*
X266441Y294441D01*
X268968Y297635D01*
X268797Y297354D01*
D02*
G37*
G36*
X433537Y294520D02*
X433192Y293413D01*
X432746Y291535D01*
X432645Y290766D01*
X432626Y290110D01*
X432689Y289566D01*
X432832Y289135D01*
X433058Y288817D01*
X433364Y288611D01*
X433753Y288519D01*
X424720Y289280D01*
X425043Y289531D01*
X425363Y289849D01*
X425681Y290235D01*
X425995Y290688D01*
X426306Y291208D01*
X426615Y291796D01*
X427223Y293174D01*
X427523Y293964D01*
X427820Y294821D01*
X433537Y294520D01*
D02*
G37*
G36*
X497247Y291595D02*
X496939Y291455D01*
X496688Y291225D01*
X496496Y290904D01*
X496361Y290493D01*
X496284Y289991D01*
X496264Y289399D01*
X496303Y288717D01*
X496399Y287943D01*
X496553Y287080D01*
X492401Y287053D01*
X492208Y287913D01*
X491758Y289361D01*
X491501Y289948D01*
X491223Y290444D01*
X490923Y290849D01*
X490602Y291164D01*
X490260Y291387D01*
X489897Y291520D01*
X489512Y291561D01*
X497613Y291645D01*
X497247Y291595D01*
D02*
G37*
G36*
X137852Y290117D02*
X137569Y289655D01*
X137318Y289175D01*
X137101Y288676D01*
X136917Y288158D01*
X136767Y287622D01*
X136650Y287068D01*
X136597Y286702D01*
X136635Y286472D01*
X136740Y286078D01*
X136875Y285745D01*
X137040Y285472D01*
X137235Y285260D01*
X137460Y285109D01*
X137715Y285018D01*
X138000Y284987D01*
X132000D01*
X132285Y285018D01*
X132540Y285109D01*
X132765Y285260D01*
X132960Y285472D01*
X133125Y285745D01*
X133260Y286078D01*
X133365Y286472D01*
X133403Y286702D01*
X133350Y287068D01*
X133233Y287622D01*
X133083Y288158D01*
X132899Y288676D01*
X132682Y289175D01*
X132431Y289655D01*
X132148Y290117D01*
X131830Y290560D01*
X138170D01*
X137852Y290117D01*
D02*
G37*
G36*
X224015Y283442D02*
X224060Y282927D01*
X224135Y282472D01*
X224240Y282078D01*
X224375Y281745D01*
X224540Y281472D01*
X224735Y281260D01*
X224960Y281109D01*
X225215Y281018D01*
X225500Y280987D01*
X219500D01*
X219785Y281018D01*
X220040Y281109D01*
X220265Y281260D01*
X220460Y281472D01*
X220625Y281745D01*
X220760Y282078D01*
X220865Y282472D01*
X220940Y282927D01*
X220985Y283442D01*
X221000Y284018D01*
X224000D01*
X224015Y283442D01*
D02*
G37*
G36*
X297651Y286202D02*
X297537Y285816D01*
X297483Y285376D01*
X297490Y284884D01*
X297558Y284339D01*
X297687Y283742D01*
X297876Y283091D01*
X298127Y282388D01*
X298810Y280824D01*
X293073Y280372D01*
X292717Y281073D01*
X291952Y282364D01*
X291544Y282955D01*
X290673Y284024D01*
X290211Y284503D01*
X289732Y284946D01*
X289235Y285351D01*
X288720Y285720D01*
X297826Y286537D01*
X297651Y286202D01*
D02*
G37*
G36*
X263695Y284461D02*
X264107Y284034D01*
X264534Y283642D01*
X264975Y283286D01*
X265430Y282965D01*
X265899Y282680D01*
X266382Y282430D01*
X266880Y282215D01*
X267391Y282037D01*
X267917Y281893D01*
X263001Y277891D01*
X262968Y278435D01*
X262896Y278972D01*
X262787Y279503D01*
X262641Y280026D01*
X262456Y280544D01*
X262234Y281054D01*
X261975Y281558D01*
X261677Y282056D01*
X261343Y282546D01*
X260970Y283030D01*
X263296Y284924D01*
X263695Y284461D01*
D02*
G37*
G36*
X118191Y281906D02*
X118368Y281768D01*
X118592Y281647D01*
X118861Y281541D01*
X119177Y281452D01*
X119539Y281380D01*
X119947Y281323D01*
X120902Y281258D01*
X121449Y281250D01*
X121498Y278250D01*
X121002Y278237D01*
X120540Y278198D01*
X120112Y278132D01*
X119717Y278041D01*
X119357Y277923D01*
X119030Y277779D01*
X118736Y277608D01*
X118477Y277412D01*
X118251Y277189D01*
X118060Y276940D01*
Y282059D01*
X118191Y281906D01*
D02*
G37*
G36*
X126161Y276756D02*
X126125Y277040D01*
X126026Y277294D01*
X125865Y277518D01*
X125641Y277712D01*
X125354Y277876D01*
X125005Y278011D01*
X124593Y278116D01*
X124119Y278190D01*
X123582Y278235D01*
X122982Y278250D01*
Y281250D01*
X123572Y281265D01*
X124099Y281310D01*
X124563Y281385D01*
X124965Y281489D01*
X125304Y281623D01*
X125581Y281788D01*
X125795Y281982D01*
X125947Y282206D01*
X126035Y282460D01*
X126062Y282744D01*
X126161Y276756D01*
D02*
G37*
G36*
X463037Y295375D02*
X463616Y295279D01*
X464052Y295163D01*
X464336Y295047D01*
X464412Y295001D01*
Y293500D01*
X464761Y291744D01*
X465756Y290256D01*
X467244Y289261D01*
X469000Y288912D01*
X474000D01*
X475756Y289261D01*
X475756Y289261D01*
X478058Y289558D01*
X478720Y289116D01*
X479500Y288961D01*
X485500D01*
X486280Y289116D01*
X489884Y286927D01*
X490498Y286378D01*
X490522Y286261D01*
X490531Y286248D01*
X490853Y284908D01*
X491911Y282352D01*
X489732Y277258D01*
X486280Y275884D01*
X485500Y276039D01*
X479500D01*
X478720Y275884D01*
X478058Y275442D01*
X476146Y276681D01*
X474000Y277108D01*
X474000D01*
Y265000D01*
X471500D01*
Y262500D01*
X463392D01*
Y258500D01*
X463819Y256354D01*
X465035Y254535D01*
X464550Y250644D01*
X462621Y248752D01*
X461108Y248729D01*
X458783Y249563D01*
X458088Y249933D01*
Y259500D01*
X457739Y261256D01*
X456744Y262744D01*
X455256Y263739D01*
X454629Y263864D01*
X454585Y264137D01*
X454569Y264337D01*
Y269663D01*
X454585Y269862D01*
X454629Y270136D01*
X455256Y270261D01*
X456744Y271256D01*
X457739Y272744D01*
X458088Y274500D01*
Y287500D01*
X457739Y289256D01*
X456966Y290412D01*
X457352Y292152D01*
X458759Y295412D01*
X462622D01*
X463037Y295375D01*
D02*
G37*
G36*
X424056Y274286D02*
X424015Y274715D01*
X423894Y275048D01*
X423695Y275286D01*
X423417Y275428D01*
X423060Y275474D01*
X422624Y275425D01*
X422109Y275280D01*
X421515Y275040D01*
X420842Y274703D01*
X420090Y274271D01*
X419520Y280505D01*
X420376Y281050D01*
X421815Y282136D01*
X422400Y282677D01*
X422894Y283216D01*
X423298Y283753D01*
X423612Y284289D01*
X423836Y284823D01*
X423969Y285355D01*
X424013Y285886D01*
X424056Y274286D01*
D02*
G37*
G36*
X573121Y312377D02*
X573374D01*
X574613Y311138D01*
X578053Y308840D01*
X581875Y307257D01*
X585932Y306450D01*
X590068D01*
X594126Y307257D01*
X595000Y307619D01*
X597950Y306267D01*
X600161Y304521D01*
X600711Y301754D01*
X602105Y298387D01*
X604130Y295357D01*
X606707Y292780D01*
X609737Y290756D01*
X613104Y289361D01*
X616678Y288650D01*
X620322D01*
X623896Y289361D01*
X627263Y290756D01*
X630293Y292780D01*
X632870Y295357D01*
X634894Y298387D01*
X635412Y299636D01*
X640412Y298641D01*
Y259878D01*
X640376Y259463D01*
X640279Y258883D01*
X640163Y258449D01*
X640047Y258164D01*
X640001Y258088D01*
X638500D01*
X636744Y257739D01*
X635256Y256744D01*
X634261Y255256D01*
X633912Y253500D01*
Y248500D01*
X634261Y246744D01*
X634261Y246744D01*
X634558Y244442D01*
X634116Y243780D01*
X633961Y243000D01*
Y237000D01*
X634116Y236220D01*
X634558Y235558D01*
X634261Y233256D01*
X634261Y233256D01*
X633912Y231500D01*
Y226500D01*
X634261Y224744D01*
X635256Y223256D01*
X636744Y222261D01*
X638500Y221912D01*
X640001D01*
X640048Y221836D01*
X640163Y221551D01*
X640407Y216721D01*
X640777Y212029D01*
X640811Y211886D01*
X641876Y207453D01*
X643677Y203105D01*
X646059Y199217D01*
X646136Y199092D01*
X649192Y195513D01*
X652709Y191970D01*
X653214Y191335D01*
X653830Y190431D01*
X654390Y189466D01*
X654894Y188436D01*
X655342Y187341D01*
X655732Y186178D01*
X656065Y184947D01*
X656339Y183646D01*
X656500Y182612D01*
Y182252D01*
X657250Y179454D01*
X658698Y176946D01*
X660746Y174898D01*
X663254Y173450D01*
X666052Y172700D01*
X668948D01*
X671746Y173450D01*
X674254Y174898D01*
X675000Y175644D01*
X680000Y173802D01*
Y117585D01*
X676569Y117247D01*
X673271Y116246D01*
X670230Y114621D01*
X667566Y112434D01*
X665379Y109769D01*
X663754Y106729D01*
X662753Y103431D01*
X662415Y100000D01*
X621316D01*
X617961Y103355D01*
X612373Y109315D01*
X610373Y111741D01*
X608817Y113870D01*
X608112Y115009D01*
Y133000D01*
X607665Y136394D01*
X607056Y137865D01*
X607054Y137876D01*
X607026Y137938D01*
X606356Y139556D01*
X606183Y139782D01*
X606178Y139792D01*
X606055Y139987D01*
X605934Y140370D01*
X605756Y141134D01*
X605606Y142008D01*
X605090Y149372D01*
X605078Y150641D01*
X605140Y154438D01*
X605341Y157825D01*
X605651Y160336D01*
X605787Y161026D01*
X605901Y161450D01*
X605903Y161454D01*
X606007Y161649D01*
X606051Y161766D01*
X606610Y162603D01*
X608193Y166425D01*
X609000Y170482D01*
Y171349D01*
X611497Y173608D01*
X613881Y174906D01*
X616678Y174350D01*
X620322D01*
X623896Y175061D01*
X627263Y176455D01*
X630293Y178480D01*
X632870Y181057D01*
X634894Y184087D01*
X636289Y187454D01*
X637000Y191028D01*
Y194672D01*
X636289Y198246D01*
X634894Y201613D01*
X632870Y204643D01*
X630293Y207220D01*
X627263Y209244D01*
X623896Y210639D01*
X620322Y211350D01*
X616678D01*
X613104Y210639D01*
X609737Y209244D01*
X606707Y207220D01*
X604130Y204643D01*
X602105Y201613D01*
X600711Y198246D01*
X600161Y195479D01*
X597950Y193733D01*
X595000Y192381D01*
X594126Y192743D01*
X590068Y193550D01*
X585932D01*
X581875Y192743D01*
X578053Y191160D01*
X574613Y188862D01*
X573349Y187597D01*
X569395Y190714D01*
X570877Y193132D01*
X572648Y197408D01*
X573675Y201688D01*
X573728Y201908D01*
X574091Y206521D01*
X574078D01*
Y230829D01*
X574091D01*
X573728Y235442D01*
X573675Y235662D01*
X572648Y239942D01*
X570877Y244218D01*
X568577Y247971D01*
X568459Y248163D01*
X565453Y251682D01*
X564000Y256080D01*
Y257535D01*
X563387Y259824D01*
X562202Y261876D01*
X560526Y263552D01*
X558474Y264737D01*
X556185Y265350D01*
X553815D01*
X551526Y264737D01*
X549474Y263552D01*
X547798Y261876D01*
X546613Y259824D01*
X546000Y257535D01*
Y255165D01*
X546613Y252876D01*
X547798Y250824D01*
X549474Y249148D01*
X551526Y247963D01*
X553815Y247350D01*
X556185D01*
X556403Y247408D01*
X559215Y244779D01*
X559903Y243963D01*
X556677Y240481D01*
X555640Y239950D01*
X553815D01*
X551526Y239337D01*
X549474Y238152D01*
X549319Y237997D01*
X547548Y236748D01*
X546653Y236206D01*
X545768Y235734D01*
X544916Y235341D01*
X544098Y235027D01*
X543315Y234788D01*
X542565Y234621D01*
X541849Y234523D01*
X541748Y234519D01*
X540267D01*
X539250Y235577D01*
X537607Y239519D01*
X537987Y240176D01*
X538600Y242465D01*
Y244835D01*
X537987Y247124D01*
X536802Y249176D01*
X535126Y250852D01*
X533074Y252037D01*
X530785Y252650D01*
X528415D01*
X526126Y252037D01*
X524074Y250852D01*
X522398Y249176D01*
X521213Y247124D01*
X520600Y244835D01*
Y242465D01*
X521213Y240176D01*
X521633Y239449D01*
X520250Y234176D01*
X518415Y233312D01*
X513568Y236129D01*
Y240893D01*
X513548Y240995D01*
X513893Y244492D01*
X514942Y247953D01*
X516647Y251142D01*
X518876Y253858D01*
X518963Y253916D01*
X522486Y257440D01*
X522793Y257728D01*
X522827Y257758D01*
X523311Y258088D01*
X523887Y258409D01*
X524559Y258717D01*
X525325Y259005D01*
X526188Y259272D01*
X527123Y259508D01*
X529353Y259912D01*
X530467Y260050D01*
X530785D01*
X533074Y260663D01*
X535126Y261848D01*
X536802Y263524D01*
X537987Y265576D01*
X538600Y267865D01*
Y270235D01*
X537987Y272524D01*
X536802Y274576D01*
X535947Y275431D01*
X535777Y276076D01*
X535651Y277445D01*
X535731Y278189D01*
X536661Y281139D01*
X536705Y281157D01*
X537321Y281569D01*
X537974Y281918D01*
X538546Y282387D01*
X539162Y282799D01*
X539686Y283322D01*
X540258Y283792D01*
X541344Y284879D01*
X544850Y283415D01*
X546000Y282463D01*
Y280565D01*
X546613Y278276D01*
X547798Y276224D01*
X549474Y274548D01*
X551526Y273363D01*
X553815Y272750D01*
X556185D01*
X558474Y273363D01*
X560526Y274548D01*
X562202Y276224D01*
X563387Y278276D01*
X564000Y280565D01*
Y282935D01*
X563387Y285224D01*
X562202Y287276D01*
X560526Y288952D01*
X558474Y290137D01*
X556185Y290750D01*
X554287D01*
X553335Y291900D01*
X551871Y295406D01*
X565818Y309353D01*
X565913Y309468D01*
X567940Y311024D01*
X570439Y312059D01*
X572972Y312392D01*
X573121Y312377D01*
D02*
G37*
G36*
X503626Y276219D02*
X504571Y275406D01*
X505027Y275067D01*
X505470Y274772D01*
X505902Y274521D01*
X506323Y274316D01*
X506732Y274155D01*
X507130Y274038D01*
X507516Y273967D01*
X504397Y270848D01*
X505093Y266484D01*
X504556Y266749D01*
X504020Y266964D01*
X503485Y267127D01*
X502951Y267239D01*
X502417Y267300D01*
X501884Y267309D01*
X501353Y267268D01*
X501205Y267242D01*
X500879Y267106D01*
X500307Y266816D01*
X499813Y266509D01*
X499397Y266183D01*
X499058Y265839D01*
X498798Y265478D01*
X498617Y265098D01*
X498513Y264701D01*
X498487Y264286D01*
X498224Y272561D01*
X498278Y272169D01*
X498411Y271846D01*
X498625Y271591D01*
X498919Y271405D01*
X499292Y271287D01*
X499746Y271238D01*
X500155Y271253D01*
X501957Y271938D01*
X501934Y271973D01*
X501594Y272429D01*
X500781Y273374D01*
X500308Y273864D01*
X503136Y276692D01*
X503626Y276219D01*
D02*
G37*
G36*
X453710Y272080D02*
X453456Y271986D01*
X453232Y271830D01*
X453038Y271611D01*
X452873Y271329D01*
X452739Y270985D01*
X452635Y270578D01*
X452560Y270109D01*
X452515Y269577D01*
X452500Y268982D01*
X449500D01*
X449485Y269577D01*
X449440Y270109D01*
X449366Y270578D01*
X449261Y270985D01*
X449127Y271329D01*
X448962Y271611D01*
X448768Y271830D01*
X448544Y271986D01*
X448290Y272080D01*
X448006Y272111D01*
X453994D01*
X453710Y272080D01*
D02*
G37*
G36*
X285515Y271423D02*
X285560Y270891D01*
X285634Y270422D01*
X285739Y270015D01*
X285874Y269671D01*
X286038Y269389D01*
X286232Y269170D01*
X286456Y269014D01*
X286710Y268920D01*
X286994Y268888D01*
X281006D01*
X281290Y268920D01*
X281544Y269014D01*
X281768Y269170D01*
X281962Y269389D01*
X282127Y269671D01*
X282261Y270015D01*
X282365Y270422D01*
X282440Y270891D01*
X282485Y271423D01*
X282500Y272018D01*
X285500D01*
X285515Y271423D01*
D02*
G37*
G36*
X305254Y272729D02*
X306163Y271337D01*
X306623Y270753D01*
X307087Y270245D01*
X307555Y269811D01*
X308027Y269453D01*
X308502Y269169D01*
X308981Y268960D01*
X309464Y268826D01*
X300982Y266500D01*
X301049Y266977D01*
X301065Y267486D01*
X301031Y268027D01*
X300946Y268599D01*
X300811Y269203D01*
X300626Y269839D01*
X300390Y270507D01*
X299768Y271937D01*
X299382Y272700D01*
X304805Y273537D01*
X305254Y272729D01*
D02*
G37*
G36*
X559170Y340000D02*
X554723Y338158D01*
X549301Y334835D01*
X544466Y330705D01*
X544503Y330668D01*
X518942Y305108D01*
X518472Y304536D01*
X517949Y304012D01*
X517537Y303396D01*
X517068Y302824D01*
X516718Y302171D01*
X516307Y301555D01*
X516024Y300871D01*
X515675Y300218D01*
X515460Y299509D01*
X515177Y298825D01*
X515032Y298099D01*
X514817Y297390D01*
X514744Y296654D01*
X514600Y295927D01*
Y295187D01*
X514527Y294450D01*
X514600Y293713D01*
Y292973D01*
X514744Y292246D01*
X514817Y291509D01*
X515032Y290801D01*
X515177Y290075D01*
X515460Y289391D01*
X515675Y288682D01*
X516024Y288029D01*
X516307Y287345D01*
X516718Y286729D01*
X517068Y286076D01*
X517537Y285504D01*
X517949Y284888D01*
X518472Y284364D01*
X518942Y283792D01*
X519515Y283322D01*
X520038Y282799D01*
X520654Y282387D01*
X521226Y281918D01*
X521879Y281569D01*
X522495Y281157D01*
X522539Y281139D01*
X523469Y278189D01*
X523549Y277445D01*
X523423Y276076D01*
X523253Y275431D01*
X522398Y274576D01*
X521213Y272524D01*
X520692Y270578D01*
X520690Y270574D01*
X520689Y270568D01*
X520600Y270235D01*
Y270084D01*
X520463Y269342D01*
X519928Y267139D01*
X519638Y266220D01*
X519321Y265375D01*
X518987Y264626D01*
X518641Y263974D01*
X518286Y263418D01*
X517928Y262955D01*
X517897Y262922D01*
X517552Y262597D01*
X517521Y262553D01*
X517477Y262523D01*
X513955Y259002D01*
X513877Y259002D01*
X513877Y259002D01*
X510693Y255121D01*
X508326Y250693D01*
X506869Y245889D01*
X506377Y240893D01*
X506431D01*
Y180000D01*
X506431Y167606D01*
X503456Y165085D01*
X500853Y164966D01*
X500088Y165657D01*
Y175500D01*
X499739Y177256D01*
X498744Y178744D01*
X497256Y179739D01*
X495500Y180088D01*
X490500D01*
X488744Y179739D01*
X488744Y179739D01*
X486442Y179442D01*
X485780Y179884D01*
X485000Y180039D01*
X483988D01*
X479000Y185027D01*
Y185931D01*
X479030Y185961D01*
X485000D01*
X485780Y186116D01*
X486442Y186558D01*
X488744Y186261D01*
X488744Y186261D01*
X490500Y185912D01*
X495500D01*
X497256Y186261D01*
X498744Y187256D01*
X499739Y188744D01*
X500088Y190500D01*
Y203500D01*
X499739Y205256D01*
X498744Y206744D01*
X498087Y210601D01*
X499000Y212806D01*
Y215194D01*
X498087Y217399D01*
X496399Y219087D01*
X494193Y220000D01*
X491806D01*
X489601Y219087D01*
X487914Y217399D01*
X487000Y215194D01*
Y212806D01*
X487104Y212555D01*
X486357Y210953D01*
X484002Y208111D01*
X483913Y208073D01*
X483819Y208039D01*
X479000D01*
X478220Y207884D01*
X477558Y207442D01*
X475256Y207739D01*
X475256Y207739D01*
X473500Y208088D01*
X468500D01*
X466744Y207739D01*
X465256Y206744D01*
X464261Y205256D01*
X463912Y203500D01*
Y190500D01*
X464261Y188744D01*
X465256Y187256D01*
X466744Y186261D01*
X467371Y186136D01*
X467415Y185862D01*
X467431Y185663D01*
Y180337D01*
X467415Y180138D01*
X467371Y179863D01*
X466744Y179739D01*
X465256Y178744D01*
X464261Y177256D01*
X463912Y175500D01*
Y162500D01*
X463725Y162272D01*
X462994D01*
X458088Y167195D01*
Y175500D01*
X457739Y177256D01*
X456744Y178744D01*
X455256Y179739D01*
X453500Y180088D01*
X448500D01*
X446744Y179739D01*
X446744Y179739D01*
X444442Y179442D01*
X443780Y179884D01*
X443000Y180039D01*
X437000D01*
X436220Y179884D01*
X435558Y179442D01*
X433256Y179739D01*
X433256Y179739D01*
X431500Y180088D01*
X426500D01*
X425595Y179908D01*
X421486Y182091D01*
X420780Y183283D01*
X420860Y183575D01*
X424744Y186261D01*
X426500Y185912D01*
X431500D01*
X433256Y186261D01*
X433256Y186261D01*
X435558Y186558D01*
X436220Y186116D01*
X437000Y185961D01*
X443000D01*
X443780Y186116D01*
X444442Y186558D01*
X446744Y186261D01*
X446744Y186261D01*
X448500Y185912D01*
X453500D01*
X455256Y186261D01*
X456744Y187256D01*
X457739Y188744D01*
X458088Y190500D01*
Y203500D01*
X457739Y205256D01*
X456744Y206744D01*
X455256Y207739D01*
X454629Y207864D01*
X454585Y208138D01*
X454569Y208337D01*
Y213662D01*
X454585Y213862D01*
X454629Y214136D01*
X455256Y214261D01*
X456744Y215256D01*
X457739Y216744D01*
X458088Y218500D01*
Y228188D01*
X458237Y229317D01*
X458882Y230073D01*
X462616Y230303D01*
X463908Y230357D01*
X465351Y228913D01*
X467556Y228000D01*
X469944D01*
X472149Y228913D01*
X473837Y230601D01*
X474750Y232806D01*
Y235194D01*
X473837Y237399D01*
X472235Y239000D01*
X473837Y240601D01*
X474750Y242806D01*
Y245194D01*
X473837Y247399D01*
X474892Y252251D01*
X478720Y254116D01*
X479500Y253961D01*
X485500D01*
X486280Y254116D01*
X486942Y254558D01*
X489244Y254261D01*
X489244Y254261D01*
X491000Y253912D01*
X496000D01*
X497756Y254261D01*
X499244Y255256D01*
X500239Y256744D01*
X500588Y258500D01*
Y260822D01*
X500783Y261332D01*
X500850Y261473D01*
X500878Y261523D01*
X501393Y262164D01*
X505588Y264090D01*
X505807Y264000D01*
X508194D01*
X510399Y264913D01*
X512087Y266601D01*
X513000Y268806D01*
Y271194D01*
X512087Y273399D01*
X510399Y275086D01*
X508194Y276000D01*
X507735D01*
X507604Y276024D01*
X507393Y276086D01*
X507146Y276184D01*
X506862Y276322D01*
X506546Y276505D01*
X506201Y276734D01*
X505847Y276998D01*
X505291Y277476D01*
X503823Y278944D01*
X503669Y279048D01*
X501127Y282145D01*
X499151Y285841D01*
X498413Y288275D01*
X498335Y288900D01*
X498306Y289424D01*
X498312Y289633D01*
X499244Y290256D01*
X500239Y291744D01*
X500588Y293500D01*
Y306500D01*
X500239Y308256D01*
X499244Y309744D01*
X497756Y310739D01*
X496000Y311088D01*
X491000D01*
X489244Y310739D01*
X489244Y310739D01*
X486942Y310442D01*
X486280Y310884D01*
X485500Y311039D01*
X479500D01*
X478720Y310884D01*
X478058Y310442D01*
X475756Y310739D01*
X475756Y310739D01*
X474000Y311088D01*
X469000D01*
X467244Y310739D01*
X465756Y309744D01*
X464761Y308256D01*
X464412Y306500D01*
Y304999D01*
X464336Y304953D01*
X464052Y304837D01*
X463616Y304721D01*
X463037Y304625D01*
X462622Y304588D01*
X440000D01*
X439869Y304562D01*
X436962Y304276D01*
X434040Y303389D01*
X431347Y301950D01*
X428987Y300013D01*
X427050Y297653D01*
X426073Y295825D01*
X425979Y295700D01*
X425955Y295605D01*
X425895Y295493D01*
X425893Y295488D01*
X425892Y295487D01*
X425611Y294960D01*
X425232Y293713D01*
X424777Y292683D01*
X424527Y292206D01*
X424281Y291794D01*
X424053Y291466D01*
X423854Y291224D01*
X423694Y291066D01*
X423470Y290892D01*
X423461Y290881D01*
X423256Y290744D01*
X422967Y290313D01*
X422948Y290291D01*
X422944Y290278D01*
X422261Y289256D01*
X421912Y287500D01*
Y285533D01*
X421895Y285468D01*
X421784Y285202D01*
X421598Y284885D01*
X421324Y284521D01*
X420954Y284117D01*
X420506Y283703D01*
X419295Y282790D01*
X418672Y282457D01*
X415855Y280145D01*
X413543Y277328D01*
X411825Y274114D01*
X411098Y271716D01*
X410768Y270627D01*
X410410Y267000D01*
X410412D01*
Y261164D01*
X410373Y260642D01*
X410272Y259948D01*
X410180Y259564D01*
X409181D01*
X405681Y256064D01*
Y249064D01*
X406669Y248075D01*
X406678Y248055D01*
X405614Y242059D01*
X405114Y241792D01*
X402145Y239355D01*
X399708Y236386D01*
X397897Y232998D01*
X397060Y230240D01*
X396782Y229323D01*
X396406Y225500D01*
X396431D01*
Y185000D01*
X394673Y182827D01*
X392500Y181069D01*
X383000D01*
X382926Y181054D01*
X375750D01*
X375618Y181028D01*
X373188Y183093D01*
X371925Y185003D01*
X372074Y185750D01*
Y190500D01*
X370000D01*
Y181412D01*
X370907Y180812D01*
X372972Y178382D01*
X372946Y178250D01*
Y176750D01*
X373160Y175677D01*
X373123Y174137D01*
X372946Y173250D01*
Y171750D01*
X373053Y171215D01*
X373046Y170954D01*
X372409Y170000D01*
X373611D01*
X373767Y169767D01*
X374677Y169159D01*
X375750Y168946D01*
X382926D01*
X383000Y168931D01*
Y166069D01*
X382926Y166054D01*
X375750D01*
X374677Y165841D01*
X373767Y165233D01*
X373611Y165000D01*
X372409D01*
X373046Y164046D01*
X373098Y164012D01*
X372946Y163250D01*
Y161750D01*
X373160Y160677D01*
X373612Y160000D01*
X373160Y159323D01*
X372946Y158250D01*
Y156750D01*
X373160Y155677D01*
X373612Y155000D01*
X373160Y154323D01*
X372946Y153250D01*
Y151750D01*
X373160Y150677D01*
X373612Y150000D01*
X373160Y149323D01*
X372946Y148250D01*
Y146750D01*
X373160Y145677D01*
X373612Y145000D01*
X373160Y144323D01*
X372946Y143250D01*
Y141750D01*
X373098Y140988D01*
X373046Y140954D01*
X372409Y140000D01*
X373611D01*
X373767Y139767D01*
X374677Y139159D01*
X375750Y138946D01*
X382926D01*
X383000Y138931D01*
Y136069D01*
X382926Y136054D01*
X375750D01*
X374677Y135841D01*
X373767Y135233D01*
X373611Y135000D01*
X372409D01*
X373046Y134046D01*
X373098Y134012D01*
X372946Y133250D01*
Y131750D01*
X373160Y130677D01*
X373612Y130000D01*
X373160Y129323D01*
X372946Y128250D01*
Y126750D01*
X373160Y125677D01*
X373612Y125000D01*
X373322Y124566D01*
X373159Y124323D01*
X373160Y124323D01*
X372946Y123250D01*
X372946Y123250D01*
Y121750D01*
X373160Y120677D01*
X373767Y119768D01*
Y119767D01*
X374677Y119160D01*
X374677Y119159D01*
X375750Y118946D01*
X381934D01*
X382798Y118436D01*
X385557Y113946D01*
X385061Y112429D01*
X384516Y112208D01*
X383347Y111854D01*
X382839Y111582D01*
X382798Y111572D01*
X382740Y111529D01*
X380568Y110368D01*
X378132Y108369D01*
X376132Y105932D01*
X376054Y105786D01*
X371054Y107038D01*
Y114250D01*
X370840Y115323D01*
X370233Y116233D01*
X369323Y116840D01*
X368250Y117054D01*
X366750D01*
X365988Y116902D01*
X365954Y116954D01*
X365000Y117591D01*
Y116389D01*
X364767Y116233D01*
X364159Y115323D01*
X363946Y114250D01*
Y107000D01*
X361069D01*
X361054Y107074D01*
Y114250D01*
X360841Y115323D01*
X360233Y116233D01*
X360000Y116389D01*
Y117728D01*
X355954Y116954D01*
X355000Y117591D01*
Y116389D01*
X354767Y116233D01*
X354159Y115323D01*
X353946Y114250D01*
Y107074D01*
X353931Y107000D01*
X351069D01*
X351054Y107074D01*
Y114250D01*
X350841Y115323D01*
X350233Y116233D01*
X350000Y116389D01*
Y117591D01*
X349046Y116954D01*
X349012Y116902D01*
X348250Y117054D01*
X346750D01*
X345677Y116840D01*
X345000Y116388D01*
X344323Y116840D01*
X343250Y117054D01*
X341750D01*
X340988Y116902D01*
X340954Y116954D01*
X340000Y117591D01*
Y116389D01*
X339767Y116233D01*
X339159Y115323D01*
X338946Y114250D01*
Y107000D01*
X336069D01*
X336054Y107074D01*
Y114250D01*
X335841Y115323D01*
X335233Y116233D01*
X335000Y116389D01*
Y117591D01*
X334046Y116954D01*
X334012Y116902D01*
X333250Y117054D01*
X331750D01*
X330677Y116840D01*
X330000Y116388D01*
X329323Y116840D01*
X328250Y117054D01*
X326750D01*
X325677Y116840D01*
X325000Y116388D01*
X324323Y116840D01*
X323250Y117054D01*
X321750D01*
X320677Y116840D01*
X320000Y116388D01*
X319323Y116840D01*
X318250Y117054D01*
X316750D01*
X315677Y116840D01*
X315203Y116523D01*
X314615Y116645D01*
X314323Y116840D01*
X314323D01*
X313250Y117054D01*
X312641D01*
X310518Y117494D01*
X308890Y121890D01*
X355000Y168000D01*
Y178196D01*
X356089Y181151D01*
X360677Y183160D01*
X361750Y182946D01*
X363250D01*
X364012Y183098D01*
X364046Y183046D01*
X365000Y182409D01*
Y183611D01*
X365233Y183767D01*
X365841Y184677D01*
X366054Y185750D01*
Y193000D01*
Y200250D01*
X365841Y201323D01*
X365233Y202233D01*
X365000Y202389D01*
Y203591D01*
X364046Y202954D01*
X364012Y202902D01*
X363250Y203054D01*
X361750D01*
X360677Y202840D01*
X360000Y202388D01*
X359323Y202840D01*
X358250Y203054D01*
X355339Y206882D01*
X355000Y207804D01*
Y238000D01*
X462000Y345000D01*
X558176D01*
X559170Y340000D01*
D02*
G37*
G36*
X91511Y267372D02*
X91089Y267209D01*
X90717Y266938D01*
X90394Y266558D01*
X90121Y266070D01*
X89897Y265473D01*
X89724Y264768D01*
X89599Y263955D01*
X89525Y263032D01*
X89500Y262002D01*
X84500D01*
X84475Y263032D01*
X84401Y263955D01*
X84277Y264768D01*
X84103Y265473D01*
X83879Y266070D01*
X83606Y266558D01*
X83283Y266938D01*
X82911Y267209D01*
X82489Y267372D01*
X82017Y267426D01*
X91983D01*
X91511Y267372D01*
D02*
G37*
G36*
X452515Y264423D02*
X452560Y263891D01*
X452635Y263422D01*
X452739Y263015D01*
X452873Y262671D01*
X453038Y262389D01*
X453232Y262170D01*
X453456Y262014D01*
X453710Y261920D01*
X453994Y261889D01*
X448006D01*
X448290Y261920D01*
X448544Y262014D01*
X448768Y262170D01*
X448962Y262389D01*
X449127Y262671D01*
X449261Y263015D01*
X449366Y263422D01*
X449440Y263891D01*
X449485Y264423D01*
X449500Y265018D01*
X452500D01*
X452515Y264423D01*
D02*
G37*
G36*
X530346Y262090D02*
X529046Y261929D01*
X526692Y261502D01*
X525637Y261236D01*
X524664Y260935D01*
X523774Y260600D01*
X522965Y260229D01*
X522238Y259824D01*
X521592Y259384D01*
X521029Y258909D01*
X518971Y261091D01*
X519479Y261626D01*
X519956Y262244D01*
X520404Y262946D01*
X520821Y263732D01*
X521209Y264601D01*
X521566Y265554D01*
X521894Y266591D01*
X522458Y268916D01*
X522696Y270205D01*
X530346Y262090D01*
D02*
G37*
G36*
X118232Y262840D02*
X118443Y262645D01*
X118692Y262472D01*
X118979Y262322D01*
X119304Y262195D01*
X119667Y262091D01*
X120068Y262011D01*
X120507Y261953D01*
X120983Y261918D01*
X121498Y261907D01*
X121480Y258907D01*
X120946Y258897D01*
X120007Y258820D01*
X119601Y258752D01*
X119237Y258665D01*
X118917Y258559D01*
X118638Y258433D01*
X118403Y258288D01*
X118210Y258124D01*
X118060Y257941D01*
Y263060D01*
X118232Y262840D01*
D02*
G37*
G36*
X126013Y257407D02*
X126058Y257692D01*
X126026Y257947D01*
X125917Y258172D01*
X125730Y258367D01*
X125466Y258532D01*
X125124Y258667D01*
X124705Y258772D01*
X124208Y258847D01*
X123634Y258892D01*
X122982Y258907D01*
X123470Y261907D01*
X123995Y261916D01*
X124966Y261990D01*
X125412Y262054D01*
X126226Y262238D01*
X126593Y262357D01*
X126934Y262495D01*
X127248Y262652D01*
X127536Y262826D01*
X126013Y257407D01*
D02*
G37*
G36*
X417500Y260199D02*
X417650Y255049D01*
X410022Y257316D01*
X410493Y257235D01*
X410914Y257289D01*
X411286Y257476D01*
X411608Y257797D01*
X411880Y258252D01*
X412104Y258841D01*
X412277Y259563D01*
X412401Y260419D01*
X412475Y261409D01*
X412500Y262533D01*
X417500Y260199D01*
D02*
G37*
G36*
X647525Y260062D02*
X647600Y259207D01*
X647725Y258452D01*
X647900Y257798D01*
X648125Y257245D01*
X648400Y256792D01*
X648725Y256440D01*
X649100Y256189D01*
X649525Y256038D01*
X650000Y255987D01*
X640000D01*
X640475Y256038D01*
X640900Y256189D01*
X641275Y256440D01*
X641600Y256792D01*
X641875Y257245D01*
X642100Y257798D01*
X642275Y258452D01*
X642400Y259207D01*
X642475Y260062D01*
X642500Y261018D01*
X647500D01*
X647525Y260062D01*
D02*
G37*
G36*
X143918Y260728D02*
X144010Y260494D01*
X144164Y260297D01*
X144380Y260139D01*
X144657Y260017D01*
X144996Y259934D01*
X145396Y259888D01*
X145858Y259879D01*
X146382Y259909D01*
X146967Y259975D01*
X146989Y256863D01*
X146399Y256766D01*
X145871Y256649D01*
X145405Y256511D01*
X145001Y256353D01*
X144659Y256174D01*
X144380Y255975D01*
X144162Y255755D01*
X144007Y255514D01*
X143913Y255253D01*
X143882Y254972D01*
X143888Y261000D01*
X143918Y260728D01*
D02*
G37*
G36*
X96267Y251706D02*
X97247Y250237D01*
X97743Y249640D01*
X98242Y249135D01*
X98746Y248722D01*
X99254Y248400D01*
X99766Y248171D01*
X100282Y248033D01*
X100802Y247987D01*
X89556D01*
X89999Y248029D01*
X90348Y248155D01*
X90605Y248365D01*
X90768Y248659D01*
X90839Y249036D01*
X90817Y249498D01*
X90702Y250043D01*
X90494Y250672D01*
X90193Y251385D01*
X89799Y252182D01*
X95783Y252578D01*
X96267Y251706D01*
D02*
G37*
G36*
X286710Y251080D02*
X286456Y250986D01*
X286232Y250830D01*
X286038Y250611D01*
X285874Y250329D01*
X285739Y249985D01*
X285634Y249578D01*
X285560Y249109D01*
X285515Y248577D01*
X285500Y247982D01*
X282500D01*
X282485Y248577D01*
X282440Y249109D01*
X282365Y249578D01*
X282261Y249985D01*
X282127Y250329D01*
X281962Y250611D01*
X281768Y250830D01*
X281544Y250986D01*
X281290Y251080D01*
X281006Y251112D01*
X286994D01*
X286710Y251080D01*
D02*
G37*
G36*
X561756Y254361D02*
X561757Y253953D01*
X561820Y253531D01*
X561944Y253096D01*
X562129Y252648D01*
X562375Y252186D01*
X562683Y251711D01*
X563052Y251222D01*
X563483Y250720D01*
X563975Y250204D01*
X561146Y247375D01*
X560631Y247867D01*
X560128Y248298D01*
X559639Y248667D01*
X559164Y248975D01*
X558702Y249221D01*
X558254Y249406D01*
X557819Y249530D01*
X557397Y249593D01*
X556989Y249594D01*
X556595Y249534D01*
X561816Y254755D01*
X561756Y254361D01*
D02*
G37*
G36*
X270879Y252951D02*
X270866Y252699D01*
X270868Y252394D01*
X270921Y251620D01*
X271120Y250053D01*
X271332Y248738D01*
X268498Y246933D01*
X268461Y247373D01*
X268368Y247788D01*
X268219Y248180D01*
X268013Y248548D01*
X267752Y248892D01*
X267435Y249211D01*
X267061Y249507D01*
X266632Y249779D01*
X266146Y250027D01*
X265604Y250251D01*
X270908Y253148D01*
X270879Y252951D01*
D02*
G37*
G36*
X310982Y253148D02*
X311006Y252750D01*
X311089Y252306D01*
X311233Y251816D01*
X311435Y251280D01*
X311698Y250699D01*
X312401Y249399D01*
X312842Y248680D01*
X313342Y247915D01*
X307881Y246661D01*
X307344Y247423D01*
X306273Y248740D01*
X305737Y249295D01*
X305203Y249781D01*
X304669Y250198D01*
X304135Y250545D01*
X303602Y250824D01*
X303069Y251033D01*
X302537Y251174D01*
X311018Y253500D01*
X310982Y253148D01*
D02*
G37*
G36*
X456001Y246337D02*
X456008Y246145D01*
X456040Y245924D01*
X456097Y245675D01*
X456179Y245397D01*
X456417Y244755D01*
X456754Y243998D01*
X456959Y243576D01*
X454838Y241455D01*
X454545Y242024D01*
X453773Y243314D01*
X453552Y243604D01*
X453348Y243825D01*
X453163Y243977D01*
X452995Y244058D01*
X452845Y244070D01*
X452713Y244013D01*
X456018Y246500D01*
X456001Y246337D01*
D02*
G37*
G36*
X428960Y244013D02*
X428895Y243992D01*
X428805Y243919D01*
X428689Y243794D01*
X428548Y243617D01*
X428188Y243105D01*
X427162Y241455D01*
X425041Y243576D01*
X425129Y243729D01*
X425259Y243988D01*
X425302Y244094D01*
X425330Y244184D01*
X425342Y244260D01*
X425340Y244320D01*
X425323Y244364D01*
X425290Y244393D01*
X425243Y244407D01*
X428960Y244013D01*
D02*
G37*
G36*
X467523Y240193D02*
X464740Y240000D01*
X460877Y243000D01*
X461357Y243032D01*
X461832Y243128D01*
X462301Y243288D01*
X462763Y243513D01*
X463220Y243801D01*
X463670Y244154D01*
X464115Y244571D01*
X464554Y245051D01*
X464986Y245596D01*
X465413Y246205D01*
X467523Y240193D01*
D02*
G37*
G36*
X89500Y237982D02*
X89114Y238023D01*
X88695Y237999D01*
X88245Y237910D01*
X87762Y237756D01*
X87247Y237536D01*
X86701Y237251D01*
X86122Y236901D01*
X85511Y236486D01*
X84193Y235460D01*
X82774Y241926D01*
X83573Y242603D01*
X86372Y245244D01*
X86692Y245623D01*
X86932Y245953D01*
X87093Y246233D01*
X87174Y246464D01*
X89500Y237982D01*
D02*
G37*
G36*
X467412Y237490D02*
X467523Y237807D01*
X467643Y237844D01*
X467764Y237877D01*
X468129Y237952D01*
X468252Y237969D01*
X468625Y237998D01*
X468750Y238000D01*
X467412Y237490D01*
D02*
G37*
G36*
X332393Y240009D02*
X331893Y236684D01*
X331492Y237004D01*
X331091Y237275D01*
X330690Y237496D01*
X330288Y237667D01*
X329886Y237789D01*
X329484Y237862D01*
X329081Y237885D01*
X328679Y237858D01*
X328275Y237782D01*
X327872Y237657D01*
X329135Y241300D01*
X332393Y240009D01*
D02*
G37*
G36*
X456959Y234424D02*
X456754Y234002D01*
X456179Y232603D01*
X456097Y232325D01*
X456040Y232076D01*
X456008Y231855D01*
X456001Y231663D01*
X456018Y231500D01*
X452713Y233987D01*
X452845Y233930D01*
X452995Y233942D01*
X453162Y234023D01*
X453348Y234175D01*
X453552Y234396D01*
X453773Y234686D01*
X454012Y235046D01*
X454545Y235976D01*
X454838Y236545D01*
X456959Y234424D01*
D02*
G37*
G36*
X427457Y236054D02*
X428805Y234081D01*
X428895Y234008D01*
X428960Y233987D01*
X425243Y233593D01*
X425290Y233607D01*
X425323Y233636D01*
X425340Y233680D01*
X425342Y233740D01*
X425330Y233815D01*
X425302Y233906D01*
X425259Y234012D01*
X425201Y234134D01*
X425041Y234424D01*
X427162Y236545D01*
X427457Y236054D01*
D02*
G37*
G36*
X165000Y363931D02*
X170177D01*
X171931Y362500D01*
X172203Y361134D01*
X172961Y360000D01*
X172203Y358866D01*
X171931Y357500D01*
X172203Y356134D01*
X172961Y355000D01*
X172203Y353866D01*
X171931Y352500D01*
X172203Y351134D01*
X172961Y350000D01*
X172203Y348866D01*
X171931Y347500D01*
X172203Y346134D01*
X172961Y345000D01*
X172203Y343866D01*
X171931Y342500D01*
X172203Y341134D01*
X172961Y340000D01*
X172203Y338866D01*
X171931Y337500D01*
X172203Y336134D01*
X172961Y335000D01*
X172203Y333866D01*
X171931Y332500D01*
X172203Y331134D01*
X172961Y330000D01*
X172203Y328866D01*
X171931Y327500D01*
X172203Y326134D01*
X172961Y325000D01*
X172203Y323866D01*
X171931Y322500D01*
X172203Y321134D01*
X172977Y319977D01*
X174134Y319203D01*
X175000Y319031D01*
Y299108D01*
X173500D01*
X171354Y298681D01*
X169535Y297465D01*
X168319Y295646D01*
X167892Y293500D01*
D01*
X180000D01*
Y288500D01*
X167892D01*
X168319Y286354D01*
X168474Y286123D01*
X169558Y284442D01*
X169116Y283780D01*
X168961Y283000D01*
Y277000D01*
X169116Y276220D01*
X169558Y275558D01*
X169360Y273403D01*
X169261Y273256D01*
X168912Y271500D01*
Y266500D01*
X169261Y264744D01*
X170256Y263256D01*
X171744Y262261D01*
X173500Y261912D01*
X175000D01*
Y244000D01*
X226000D01*
X230000Y240000D01*
Y234039D01*
X224000D01*
X223220Y233884D01*
X222558Y233442D01*
X220877Y234526D01*
X220646Y234681D01*
X218500Y235108D01*
Y223000D01*
Y210892D01*
X220646Y211319D01*
X220877Y211474D01*
X222558Y212558D01*
X223220Y212116D01*
X224000Y211961D01*
X230000D01*
Y205500D01*
X176208D01*
X174856Y207188D01*
X174799Y207417D01*
X175073Y209500D01*
Y213500D01*
X163500D01*
Y200927D01*
X166500D01*
X168719Y201219D01*
X170787Y202075D01*
X172562Y203438D01*
X173000Y204008D01*
X175000Y203329D01*
Y153340D01*
X173000Y152662D01*
X172419Y153419D01*
X170539Y154861D01*
X168349Y155768D01*
X166000Y156078D01*
X162500D01*
Y135000D01*
Y113922D01*
X166000D01*
X168349Y114232D01*
X170539Y115139D01*
X172419Y116581D01*
X173000Y117338D01*
X175000Y116660D01*
Y100000D01*
X230002D01*
X231191Y98000D01*
X230892Y96500D01*
Y92500D01*
X239000D01*
Y90000D01*
X241500D01*
Y77892D01*
X241500D01*
X243000Y78191D01*
X245000Y77002D01*
Y64479D01*
X243604Y63487D01*
X243000Y63290D01*
X241500Y63588D01*
X236500D01*
X234744Y63239D01*
X233256Y62244D01*
X232261Y60756D01*
X231912Y59000D01*
Y57906D01*
X230072Y57113D01*
X229317Y57189D01*
X229004Y57242D01*
X228760Y57298D01*
X228654Y57331D01*
X228399Y57586D01*
X226194Y58500D01*
X223806D01*
X221601Y57586D01*
X219914Y55899D01*
X219000Y53693D01*
Y51307D01*
X219914Y49101D01*
X221601Y47413D01*
X223806Y46500D01*
X226194D01*
X228399Y47413D01*
X228654Y47669D01*
X228760Y47702D01*
X229004Y47758D01*
X229285Y47805D01*
X230060Y47858D01*
X231912Y46553D01*
Y46000D01*
X232261Y44244D01*
X233256Y42756D01*
X234744Y41761D01*
X236500Y41412D01*
X241500D01*
X243000Y41710D01*
X243604Y41513D01*
X245000Y40521D01*
Y20000D01*
X127585D01*
X127247Y23431D01*
X126246Y26729D01*
X124621Y29769D01*
X122434Y32434D01*
X119769Y34621D01*
X116729Y36246D01*
X113431Y37247D01*
X110000Y37585D01*
X106569Y37247D01*
X103889Y36434D01*
X102489Y37401D01*
X102144Y37912D01*
X103156Y43002D01*
X103615Y50000D01*
X103156Y56998D01*
X101788Y63877D01*
X99534Y70518D01*
X96432Y76807D01*
X92535Y82639D01*
X92062Y83178D01*
X92888Y85000D01*
X125000D01*
Y125000D01*
X112923D01*
X112317Y127000D01*
X113326Y127674D01*
X114652Y129659D01*
X115118Y132000D01*
Y132500D01*
X100000D01*
Y137500D01*
X115118D01*
Y138000D01*
X114652Y140341D01*
X113326Y142326D01*
X112317Y143000D01*
X112923Y145000D01*
X117000D01*
Y175000D01*
X128638D01*
X129744Y174261D01*
X131500Y173912D01*
X136500D01*
X138256Y174261D01*
X138494Y174420D01*
X140558Y174558D01*
X141220Y174116D01*
X142000Y173961D01*
X148000D01*
X148780Y174116D01*
X149442Y174558D01*
X151123Y173474D01*
X151354Y173319D01*
X153500Y172892D01*
D01*
Y185000D01*
Y197108D01*
X152000Y196809D01*
X150000Y197998D01*
Y200675D01*
X152000Y201749D01*
X153281Y201219D01*
X155500Y200927D01*
X158500D01*
Y216000D01*
Y231073D01*
X155500D01*
X153281Y230781D01*
X152000Y230251D01*
X150000Y231325D01*
Y255791D01*
X151313Y256334D01*
X154341Y258659D01*
X156666Y261687D01*
X158127Y265215D01*
X158625Y269000D01*
X158569D01*
Y357500D01*
X158535Y357667D01*
X158997Y359987D01*
X160405Y362095D01*
X162513Y363503D01*
X164833Y363965D01*
X165000Y363931D01*
D02*
G37*
G36*
X254563Y237007D02*
X255260Y235212D01*
X255499Y234710D01*
X255984Y233850D01*
X256230Y233493D01*
X256480Y233183D01*
X256733Y232921D01*
X250475Y231890D01*
X250779Y232500D01*
X251034Y233097D01*
X251238Y233683D01*
X251392Y234258D01*
X251495Y234821D01*
X251548Y235372D01*
X251550Y235912D01*
X251503Y236439D01*
X251405Y236956D01*
X251256Y237461D01*
X254336Y237702D01*
X254563Y237007D01*
D02*
G37*
G36*
X465413Y231795D02*
X464986Y232404D01*
X464554Y232949D01*
X464115Y233430D01*
X463670Y233846D01*
X463220Y234199D01*
X462763Y234487D01*
X462301Y234711D01*
X461832Y234872D01*
X461357Y234968D01*
X460877Y235000D01*
X467412Y237490D01*
X465413Y231795D01*
D02*
G37*
G36*
X239015Y234433D02*
X239060Y233910D01*
X239135Y233451D01*
X239239Y233053D01*
X239373Y232719D01*
X239538Y232447D01*
X239732Y232239D01*
X239956Y232092D01*
X240210Y232009D01*
X240494Y231988D01*
X234517Y231777D01*
X234799Y231818D01*
X235051Y231923D01*
X235273Y232090D01*
X235466Y232320D01*
X235629Y232613D01*
X235763Y232969D01*
X235867Y233387D01*
X235941Y233868D01*
X235985Y234412D01*
X236000Y235018D01*
X239000D01*
X239015Y234433D01*
D02*
G37*
G36*
X337184Y233388D02*
X337317Y232862D01*
X337468Y232397D01*
X337638Y231995D01*
X337826Y231654D01*
X338032Y231376D01*
X338257Y231159D01*
X338500Y231003D01*
X338762Y230910D01*
X339042Y230879D01*
X332994Y230886D01*
X333260Y230916D01*
X333487Y231008D01*
X333675Y231160D01*
X333824Y231374D01*
X333934Y231648D01*
X334005Y231984D01*
X334038Y232380D01*
X334031Y232838D01*
X333985Y233357D01*
X333901Y233937D01*
X337069Y233976D01*
X337184Y233388D01*
D02*
G37*
G36*
X104000Y261961D02*
X105431Y259218D01*
Y259000D01*
X105703Y257634D01*
X106477Y256477D01*
X107634Y255703D01*
X109000Y255431D01*
X117000D01*
X118366Y255703D01*
X119523Y256477D01*
X119637Y256647D01*
X119659Y256657D01*
X119797Y256702D01*
X120006Y256753D01*
X120258Y256795D01*
X120790Y256838D01*
X123737D01*
X123912Y256825D01*
Y255500D01*
X124261Y253744D01*
X125256Y252256D01*
X126744Y251261D01*
X128500Y250912D01*
X141500D01*
X142000Y251011D01*
X144639Y249324D01*
X145000Y248818D01*
Y230039D01*
X142998D01*
X142218Y229884D01*
X141556Y229442D01*
X138787Y229925D01*
X136719Y230781D01*
X134500Y231073D01*
X131500D01*
Y216000D01*
Y200927D01*
X134500D01*
X136719Y201219D01*
X138787Y202075D01*
X141556Y202558D01*
X142218Y202116D01*
X142998Y201961D01*
X145000D01*
Y196039D01*
X142000D01*
X141220Y195884D01*
X140558Y195442D01*
X138646Y196681D01*
X136500Y197108D01*
D01*
Y185000D01*
X134000D01*
Y182500D01*
X125892D01*
Y180000D01*
X117000D01*
Y189000D01*
X107039D01*
Y193000D01*
X106884Y193780D01*
X106442Y194442D01*
X107681Y196354D01*
X108108Y198500D01*
X96000D01*
Y203500D01*
X108108D01*
X107681Y205646D01*
X106465Y207465D01*
X104646Y208681D01*
X102500Y209108D01*
X94516D01*
X93621Y211270D01*
X93617Y212108D01*
X93905Y212359D01*
X94580Y212881D01*
X95204Y213300D01*
X95770Y213618D01*
X96272Y213841D01*
X96496Y213912D01*
X102500D01*
X104256Y214261D01*
X105744Y215256D01*
X106739Y216744D01*
X107088Y218500D01*
Y223500D01*
X106739Y225256D01*
X106442Y227558D01*
X106884Y228220D01*
X107039Y229000D01*
Y235000D01*
X106884Y235780D01*
X106442Y236442D01*
X106739Y238744D01*
X107088Y240500D01*
Y245500D01*
X106739Y247256D01*
X105744Y248744D01*
X104256Y249739D01*
X102500Y250088D01*
X100491D01*
X100450Y250099D01*
X100221Y250202D01*
X99942Y250378D01*
X99617Y250645D01*
X99254Y251011D01*
X98884Y251457D01*
X98010Y252768D01*
X97567Y253567D01*
X97554Y253582D01*
X97170Y254300D01*
X94641Y257383D01*
X93114Y259750D01*
X93136Y259900D01*
X93672Y260471D01*
X96000Y261961D01*
X104000D01*
D02*
G37*
G36*
X550730Y225403D02*
X549688Y226172D01*
X547661Y227467D01*
X546676Y227993D01*
X545710Y228438D01*
X544762Y228803D01*
X543834Y229086D01*
X542925Y229288D01*
X542034Y229410D01*
X541163Y229450D01*
Y232450D01*
X542034Y232491D01*
X542925Y232612D01*
X543834Y232814D01*
X544762Y233097D01*
X545710Y233462D01*
X546676Y233907D01*
X547661Y234433D01*
X548665Y235040D01*
X550730Y236497D01*
Y225403D01*
D02*
G37*
G36*
X309013Y219323D02*
X308983Y219618D01*
X308895Y219897D01*
X308747Y220160D01*
X308540Y220407D01*
X308274Y220638D01*
X307950Y220853D01*
X307566Y221053D01*
X307123Y221236D01*
X306621Y221404D01*
X306059Y221556D01*
X306080Y224688D01*
X306637Y224567D01*
X307136Y224492D01*
X307576Y224461D01*
X307957Y224474D01*
X308279Y224533D01*
X308543Y224636D01*
X308749Y224783D01*
X308895Y224976D01*
X308983Y225213D01*
X309013Y225495D01*
Y219323D01*
D02*
G37*
G36*
X299058Y230374D02*
X299278Y229769D01*
X299526Y229205D01*
X299804Y228683D01*
X300112Y228202D01*
X300448Y227762D01*
X300814Y227363D01*
X301209Y227005D01*
X301634Y226688D01*
X302087Y226412D01*
X300021Y224133D01*
X299392Y224487D01*
X297675Y225326D01*
X297158Y225532D01*
X296208Y225830D01*
X295775Y225924D01*
X295370Y225981D01*
X294992Y226000D01*
X298868Y231019D01*
X299058Y230374D01*
D02*
G37*
G36*
X264017Y227097D02*
X264067Y226506D01*
X264150Y225932D01*
X264267Y225378D01*
X264417Y224841D01*
X264601Y224324D01*
X264818Y223825D01*
X265068Y223345D01*
X265352Y222883D01*
X265670Y222440D01*
X259330D01*
X259648Y222883D01*
X259931Y223345D01*
X260182Y223825D01*
X260399Y224324D01*
X260583Y224841D01*
X260733Y225378D01*
X260850Y225932D01*
X260933Y226506D01*
X260983Y227097D01*
X261000Y227708D01*
X264000D01*
X264017Y227097D01*
D02*
G37*
G36*
X243012Y224319D02*
X243087Y224101D01*
X243212Y223862D01*
X243387Y223603D01*
X243612Y223323D01*
X243887Y223022D01*
X244586Y222360D01*
X245010Y221999D01*
X245485Y221617D01*
X243766Y219113D01*
X243618Y219218D01*
X243486Y219291D01*
X243369Y219330D01*
X243268Y219335D01*
X243182Y219308D01*
X243112Y219247D01*
X243057Y219153D01*
X243019Y219025D01*
X242995Y218864D01*
X242987Y218670D01*
Y224518D01*
X243012Y224319D01*
D02*
G37*
G36*
X649525Y223962D02*
X649100Y223811D01*
X648725Y223560D01*
X648400Y223208D01*
X648125Y222755D01*
X647900Y222202D01*
X647725Y221548D01*
X647600Y220793D01*
X647525Y219938D01*
X647500Y218982D01*
X642500D01*
X642475Y219938D01*
X642400Y220793D01*
X642275Y221548D01*
X642100Y222202D01*
X641875Y222755D01*
X641600Y223208D01*
X641275Y223560D01*
X640900Y223811D01*
X640475Y223962D01*
X640000Y224013D01*
X650000D01*
X649525Y223962D01*
D02*
G37*
G36*
X418042Y223357D02*
X417929Y223094D01*
X417828Y222773D01*
X417741Y222393D01*
X417667Y221954D01*
X417560Y220900D01*
X417507Y219611D01*
X417500Y218878D01*
X412500D01*
X412493Y219611D01*
X412333Y221954D01*
X412259Y222393D01*
X412172Y222773D01*
X412071Y223094D01*
X411958Y223357D01*
X411830Y223560D01*
X418170D01*
X418042Y223357D01*
D02*
G37*
G36*
X98053Y216013D02*
X97467Y216093D01*
X96854Y216076D01*
X96215Y215962D01*
X95548Y215751D01*
X94854Y215443D01*
X94134Y215037D01*
X93386Y214535D01*
X92612Y213936D01*
X91811Y213240D01*
X90982Y212447D01*
X84462Y212998D01*
X85030Y213596D01*
X85528Y214183D01*
X85955Y214759D01*
X86313Y215325D01*
X86600Y215881D01*
X86817Y216426D01*
X86963Y216960D01*
X87040Y217484D01*
X87046Y217997D01*
X86982Y218500D01*
X98053Y216013D01*
D02*
G37*
G36*
X315500Y213013D02*
X315215Y213015D01*
X314960Y212950D01*
X314735Y212817D01*
X314540Y212616D01*
X314375Y212347D01*
X314240Y212010D01*
X314135Y211605D01*
X314060Y211132D01*
X314015Y210591D01*
X314000Y209982D01*
X311000Y210082D01*
X310987Y210619D01*
X310949Y211117D01*
X310885Y211578D01*
X310795Y211999D01*
X310680Y212382D01*
X310539Y212727D01*
X310373Y213033D01*
X310181Y213300D01*
X309963Y213529D01*
X309720Y213720D01*
X315500Y213013D01*
D02*
G37*
G36*
X453710Y216080D02*
X453456Y215986D01*
X453232Y215830D01*
X453038Y215611D01*
X452873Y215329D01*
X452739Y214985D01*
X452635Y214578D01*
X452560Y214109D01*
X452515Y213577D01*
X452500Y212982D01*
X449500D01*
X449485Y213577D01*
X449440Y214109D01*
X449366Y214578D01*
X449261Y214985D01*
X449127Y215329D01*
X448962Y215611D01*
X448768Y215830D01*
X448544Y215986D01*
X448290Y216080D01*
X448006Y216112D01*
X453994D01*
X453710Y216080D01*
D02*
G37*
G36*
X284919Y216490D02*
X284269Y216112D01*
X283688Y215724D01*
X283175Y215327D01*
X282731Y214921D01*
X282355Y214506D01*
X282047Y214082D01*
X281808Y213648D01*
X281637Y213205D01*
X281534Y212753D01*
X281500Y212292D01*
X278500Y213354D01*
X279099Y219117D01*
X284919Y216490D01*
D02*
G37*
G36*
X339787Y213549D02*
X339580Y213432D01*
X339432Y213257D01*
X339344Y213023D01*
X339316Y212731D01*
X339347Y212379D01*
X339439Y211968D01*
X339591Y211499D01*
X339802Y210970D01*
X340073Y210383D01*
X336643Y210239D01*
X336357Y210792D01*
X336069Y211283D01*
X335780Y211713D01*
X335488Y212082D01*
X335194Y212390D01*
X334899Y212637D01*
X334601Y212823D01*
X334302Y212947D01*
X334000Y213010D01*
X333697Y213013D01*
X340055Y213606D01*
X339787Y213549D01*
D02*
G37*
G36*
X452515Y208423D02*
X452560Y207891D01*
X452635Y207422D01*
X452739Y207015D01*
X452873Y206671D01*
X453038Y206389D01*
X453232Y206170D01*
X453456Y206014D01*
X453710Y205920D01*
X453994Y205889D01*
X448006D01*
X448290Y205920D01*
X448544Y206014D01*
X448768Y206170D01*
X448962Y206389D01*
X449127Y206671D01*
X449261Y207015D01*
X449366Y207422D01*
X449440Y207891D01*
X449485Y208423D01*
X449500Y209018D01*
X452500D01*
X452515Y208423D01*
D02*
G37*
G36*
X495947Y211236D02*
X495749Y210873D01*
X495573Y210470D01*
X495421Y210027D01*
X495292Y209544D01*
X495187Y209022D01*
X495105Y208460D01*
X495092Y208283D01*
X495178Y207684D01*
X495317Y207090D01*
X495496Y206586D01*
X495714Y206175D01*
X495972Y205854D01*
X496269Y205625D01*
X496606Y205488D01*
X496983Y205442D01*
X489017D01*
X489394Y205488D01*
X489731Y205625D01*
X490028Y205854D01*
X490286Y206175D01*
X490504Y206586D01*
X490683Y207090D01*
X490821Y207684D01*
X490908Y208283D01*
X490895Y208460D01*
X490813Y209022D01*
X490708Y209544D01*
X490579Y210027D01*
X490427Y210470D01*
X490251Y210873D01*
X490053Y211236D01*
X489830Y211560D01*
X496170D01*
X495947Y211236D01*
D02*
G37*
G36*
X32748Y210414D02*
X34241Y209131D01*
X34907Y208649D01*
X35520Y208272D01*
X36080Y208001D01*
X36586Y207837D01*
X37039Y207778D01*
X37439Y207825D01*
X37785Y207978D01*
X30278Y203142D01*
X30546Y203376D01*
X30708Y203664D01*
X30764Y204005D01*
X30713Y204400D01*
X30555Y204848D01*
X30292Y205350D01*
X29921Y205905D01*
X29445Y206514D01*
X28861Y207177D01*
X28172Y207893D01*
X31922Y211214D01*
X32748Y210414D01*
D02*
G37*
G36*
X351047Y194547D02*
X351408Y194515D01*
X351984Y194500D01*
Y191500D01*
X351408Y191485D01*
X351047Y191453D01*
Y190000D01*
X351017Y190285D01*
X350926Y190540D01*
X350774Y190765D01*
X350562Y190960D01*
X350289Y191125D01*
X350000Y191242D01*
X349711Y191125D01*
X349438Y190960D01*
X349226Y190765D01*
X349074Y190540D01*
X348983Y190285D01*
X348953Y190000D01*
Y191453D01*
X348592Y191485D01*
X348016Y191500D01*
Y194500D01*
X348592Y194515D01*
X348953Y194547D01*
Y196000D01*
X348983Y195715D01*
X349074Y195460D01*
X349226Y195235D01*
X349438Y195040D01*
X349711Y194875D01*
X350000Y194758D01*
X350289Y194875D01*
X350562Y195040D01*
X350774Y195235D01*
X350926Y195460D01*
X351017Y195715D01*
X351047Y196000D01*
Y194547D01*
D02*
G37*
G36*
X346047D02*
X346408Y194515D01*
X346984Y194500D01*
Y191500D01*
X346408Y191485D01*
X346047Y191453D01*
Y190000D01*
X346017Y190285D01*
X345926Y190540D01*
X345774Y190765D01*
X345562Y190960D01*
X345289Y191125D01*
X345000Y191242D01*
X344711Y191125D01*
X344438Y190960D01*
X344226Y190765D01*
X344074Y190540D01*
X343983Y190285D01*
X343953Y190000D01*
Y191453D01*
X343592Y191485D01*
X343016Y191500D01*
Y194500D01*
X343592Y194515D01*
X343953Y194547D01*
Y196000D01*
X343983Y195715D01*
X344074Y195460D01*
X344226Y195235D01*
X344438Y195040D01*
X344711Y194875D01*
X345000Y194758D01*
X345289Y194875D01*
X345562Y195040D01*
X345774Y195235D01*
X345926Y195460D01*
X346017Y195715D01*
X346047Y196000D01*
Y194547D01*
D02*
G37*
G36*
X424013Y191864D02*
X423967Y192250D01*
X423831Y192568D01*
X423603Y192817D01*
X423285Y192999D01*
X422876Y193112D01*
X422376Y193158D01*
X421785Y193135D01*
X421103Y193044D01*
X420330Y192885D01*
X419466Y192658D01*
X419140Y198423D01*
X420066Y198712D01*
X420894Y199019D01*
X421625Y199345D01*
X422258Y199689D01*
X422794Y200051D01*
X423233Y200431D01*
X423574Y200830D01*
X423818Y201247D01*
X423964Y201682D01*
X424013Y202136D01*
Y191864D01*
D02*
G37*
G36*
X238613Y202237D02*
X241368Y200764D01*
X243683Y198864D01*
X243756Y198756D01*
X243864Y198683D01*
X245764Y196368D01*
X247237Y193613D01*
X247807Y191734D01*
X246322Y190612D01*
X245143Y190181D01*
X243646Y191181D01*
X241500Y191608D01*
X237500D01*
Y183500D01*
X235000D01*
Y181000D01*
X222892D01*
X223319Y178854D01*
X224558Y176942D01*
X224116Y176280D01*
X223961Y175500D01*
Y170670D01*
X221800Y169068D01*
X221019Y168911D01*
X218073Y171329D01*
X217984Y171463D01*
X217598Y171848D01*
X218000Y173347D01*
Y175453D01*
X217455Y177488D01*
X216402Y179312D01*
X214912Y180802D01*
X213088Y181855D01*
X211053Y182400D01*
X208947D01*
X206912Y181855D01*
X205088Y180802D01*
X203598Y179312D01*
X202545Y177488D01*
X202000Y175453D01*
Y173347D01*
X202545Y171312D01*
X202948Y170614D01*
X202994Y170460D01*
X203287Y169902D01*
X203118Y169357D01*
X202387Y167821D01*
X202100Y167459D01*
X201469Y166908D01*
X199744Y166744D01*
X198256Y167739D01*
X196500Y168088D01*
X183500D01*
X183000Y167989D01*
X180361Y169676D01*
X180000Y170182D01*
Y200000D01*
X235000D01*
Y200198D01*
X238000Y202423D01*
X238613Y202237D01*
D02*
G37*
G36*
X562924Y186095D02*
X561969Y185112D01*
X560433Y183353D01*
X559852Y182576D01*
X559396Y181868D01*
X559065Y181229D01*
X558858Y180659D01*
X558777Y180158D01*
X558820Y179725D01*
X558987Y179361D01*
X554361Y185987D01*
X554626Y185720D01*
X554958Y185578D01*
X555360Y185560D01*
X555831Y185666D01*
X556370Y185898D01*
X556978Y186254D01*
X557654Y186734D01*
X558399Y187339D01*
X560095Y188924D01*
X562924Y186095D01*
D02*
G37*
G36*
X473710Y188080D02*
X473456Y187986D01*
X473232Y187830D01*
X473038Y187611D01*
X472873Y187329D01*
X472739Y186985D01*
X472635Y186578D01*
X472560Y186109D01*
X472515Y185577D01*
X472500Y184982D01*
X469500D01*
X469485Y185577D01*
X469440Y186109D01*
X469366Y186578D01*
X469261Y186985D01*
X469127Y187329D01*
X468962Y187611D01*
X468768Y187830D01*
X468544Y187986D01*
X468290Y188080D01*
X468006Y188111D01*
X473994D01*
X473710Y188080D01*
D02*
G37*
G36*
X541558Y177017D02*
X541512Y177394D01*
X541375Y177731D01*
X541146Y178028D01*
X540826Y178286D01*
X540414Y178504D01*
X539910Y178683D01*
X539316Y178822D01*
X538629Y178921D01*
X537851Y178980D01*
X537189Y178995D01*
X536783Y178988D01*
X535540Y178895D01*
X534978Y178813D01*
X534456Y178708D01*
X533973Y178579D01*
X533530Y178427D01*
X533127Y178251D01*
X532882Y178118D01*
X532749Y177873D01*
X532573Y177470D01*
X532421Y177027D01*
X532292Y176544D01*
X532187Y176022D01*
X532105Y175460D01*
X532012Y174217D01*
X532000Y173536D01*
X528000D01*
X527988Y174217D01*
X527895Y175460D01*
X527813Y176022D01*
X527708Y176544D01*
X527579Y177027D01*
X527427Y177470D01*
X527251Y177873D01*
X527053Y178236D01*
X526830Y178560D01*
X532440D01*
Y184170D01*
X532764Y183947D01*
X533127Y183749D01*
X533530Y183573D01*
X533973Y183421D01*
X534456Y183292D01*
X534978Y183187D01*
X535540Y183105D01*
X536783Y183012D01*
X537189Y183005D01*
X537851Y183020D01*
X538629Y183079D01*
X539316Y183179D01*
X539910Y183317D01*
X540414Y183496D01*
X540826Y183714D01*
X541146Y183972D01*
X541375Y184269D01*
X541512Y184606D01*
X541558Y184983D01*
Y177017D01*
D02*
G37*
G36*
X657690Y197111D02*
X658654Y196343D01*
X659682Y195643D01*
X660773Y195010D01*
X661928Y194445D01*
X663147Y193946D01*
X664430Y193515D01*
X665777Y193151D01*
X667187Y192854D01*
X668661Y192625D01*
X658575Y182539D01*
X658346Y184013D01*
X658049Y185424D01*
X657685Y186770D01*
X657254Y188053D01*
X656755Y189272D01*
X656190Y190427D01*
X655557Y191518D01*
X654857Y192546D01*
X654089Y193510D01*
X653255Y194410D01*
X656790Y197945D01*
X657690Y197111D01*
D02*
G37*
G36*
X298515Y181408D02*
X298560Y180893D01*
X298635Y180438D01*
X298740Y180044D01*
X298875Y179711D01*
X299040Y179438D01*
X299235Y179226D01*
X299460Y179074D01*
X299715Y178983D01*
X300000Y178953D01*
X294000D01*
X294285Y178983D01*
X294540Y179074D01*
X294765Y179226D01*
X294960Y179438D01*
X295125Y179711D01*
X295260Y180044D01*
X295365Y180438D01*
X295440Y180893D01*
X295485Y181408D01*
X295500Y181984D01*
X298500D01*
X298515Y181408D01*
D02*
G37*
G36*
X472515Y180423D02*
X472560Y179891D01*
X472635Y179422D01*
X472739Y179015D01*
X472873Y178671D01*
X473038Y178389D01*
X473232Y178170D01*
X473456Y178014D01*
X473710Y177920D01*
X473994Y177889D01*
X468006D01*
X468290Y177920D01*
X468544Y178014D01*
X468768Y178170D01*
X468962Y178389D01*
X469127Y178671D01*
X469261Y179015D01*
X469366Y179422D01*
X469440Y179891D01*
X469485Y180423D01*
X469500Y181018D01*
X472500D01*
X472515Y180423D01*
D02*
G37*
G36*
X255507Y173389D02*
X255667Y171046D01*
X255741Y170607D01*
X255828Y170227D01*
X255928Y169906D01*
X256042Y169643D01*
X256170Y169440D01*
X249830D01*
X249958Y169643D01*
X250072Y169906D01*
X250172Y170227D01*
X250259Y170607D01*
X250333Y171046D01*
X250440Y172100D01*
X250493Y173389D01*
X250500Y174123D01*
X255500D01*
X255507Y173389D01*
D02*
G37*
G36*
X215275Y171502D02*
X215296Y171426D01*
X215347Y171328D01*
X215427Y171207D01*
X215537Y171063D01*
X215843Y170707D01*
X216521Y170000D01*
X214400Y167879D01*
X214142Y168134D01*
X213193Y168973D01*
X213072Y169053D01*
X212974Y169104D01*
X212899Y169125D01*
X212873Y169122D01*
X212555Y168923D01*
X211524Y168191D01*
X211008Y167781D01*
X209458Y166371D01*
X208941Y165842D01*
X207906Y164694D01*
X204596Y165587D01*
X205018Y166026D01*
X205351Y166497D01*
X205594Y167000D01*
X205748Y167535D01*
X205813Y168101D01*
X205789Y168699D01*
X205675Y169329D01*
X205472Y169991D01*
X205180Y170684D01*
X204798Y171409D01*
X212993Y169265D01*
X215282Y171554D01*
X215275Y171502D01*
D02*
G37*
G36*
X27076Y203337D02*
X26883Y202872D01*
X26834Y202500D01*
X39600D01*
Y200000D01*
X42100D01*
Y188971D01*
X44472Y189283D01*
X47147Y190392D01*
X49445Y192155D01*
X51163Y194393D01*
X51427Y194421D01*
X53250Y194154D01*
X53348Y193659D01*
X54674Y191674D01*
X55000Y191457D01*
Y190000D01*
X58409D01*
X59000Y189883D01*
X71000D01*
X71591Y190000D01*
X84961D01*
Y187000D01*
X85116Y186220D01*
X85558Y185558D01*
X84474Y183877D01*
X84319Y183646D01*
X83892Y181500D01*
X108108D01*
X108008Y182000D01*
X109650Y184000D01*
X112000D01*
Y168434D01*
X110000Y166919D01*
X109000Y167118D01*
X102500D01*
Y158000D01*
X100000D01*
Y155500D01*
X84882D01*
Y155000D01*
X85348Y152659D01*
X85788Y152000D01*
X84719Y150000D01*
X80325D01*
X79251Y152000D01*
X79781Y153281D01*
X80073Y155500D01*
Y158500D01*
X65000D01*
X49927D01*
Y155500D01*
X50219Y153281D01*
X50749Y152000D01*
X49675Y150000D01*
X45627D01*
X44370Y152000D01*
X44571Y153530D01*
Y160280D01*
X31000D01*
Y162780D01*
X28500D01*
Y180351D01*
X25750D01*
X23596Y180068D01*
X22000Y179406D01*
X20000Y180260D01*
Y205000D01*
X25965D01*
X27076Y203337D01*
D02*
G37*
G36*
X226013Y159415D02*
X226010Y159711D01*
X225945Y160001D01*
X225817Y160282D01*
X225625Y160556D01*
X225371Y160822D01*
X225053Y161080D01*
X224672Y161331D01*
X224228Y161574D01*
X223722Y161810D01*
X223151Y162038D01*
X223230Y165282D01*
X223847Y165067D01*
X224402Y164907D01*
X224895Y164801D01*
X225327Y164749D01*
X225696Y164751D01*
X226004Y164807D01*
X226249Y164916D01*
X226433Y165080D01*
X226555Y165298D01*
X226616Y165570D01*
X226013Y159415D01*
D02*
G37*
G36*
X403834Y163506D02*
X400571Y161972D01*
X399451Y164755D01*
X399780Y164900D01*
X400084Y165058D01*
X400364Y165230D01*
X400620Y165416D01*
X400851Y165616D01*
X401058Y165830D01*
X401240Y166058D01*
X401398Y166299D01*
X401531Y166555D01*
X401640Y166825D01*
X403834Y163506D01*
D02*
G37*
G36*
X243983Y163822D02*
X244064Y163541D01*
X244206Y163272D01*
X244409Y163016D01*
X244674Y162773D01*
X244999Y162542D01*
X245386Y162324D01*
X245833Y162119D01*
X246342Y161926D01*
X246912Y161746D01*
X246880Y158565D01*
X246293Y158719D01*
X245767Y158826D01*
X245301Y158885D01*
X244897Y158897D01*
X244553Y158861D01*
X244269Y158777D01*
X244046Y158645D01*
X243884Y158465D01*
X243782Y158238D01*
X243741Y157964D01*
X243964Y164116D01*
X243983Y163822D01*
D02*
G37*
G36*
X198862Y164021D02*
X198955Y163797D01*
X199108Y163620D01*
X199320Y163491D01*
X199592Y163410D01*
X199924Y163376D01*
X200315Y163391D01*
X200767Y163452D01*
X201277Y163562D01*
X201848Y163720D01*
X201909Y160478D01*
X201335Y160289D01*
X200821Y160089D01*
X200368Y159878D01*
X199976Y159655D01*
X199645Y159420D01*
X199375Y159173D01*
X199165Y158916D01*
X199016Y158646D01*
X198929Y158365D01*
X198902Y158073D01*
X198829Y164293D01*
X198862Y164021D01*
D02*
G37*
G36*
X497432Y161052D02*
X497399Y160992D01*
X497389Y160906D01*
X497401Y160794D01*
X497437Y160657D01*
X497496Y160493D01*
X497577Y160303D01*
X497809Y159845D01*
X497959Y159576D01*
X495838Y157455D01*
X495544Y157959D01*
X494431Y159653D01*
X494281Y159825D01*
X494154Y159943D01*
X494051Y160005D01*
X493972Y160013D01*
X497488Y161085D01*
X497432Y161052D01*
D02*
G37*
G36*
X470028Y160013D02*
X469949Y160005D01*
X469846Y159943D01*
X469719Y159825D01*
X469568Y159653D01*
X469394Y159424D01*
X468973Y158802D01*
X468162Y157455D01*
X466041Y159576D01*
X466191Y159845D01*
X466504Y160493D01*
X466563Y160657D01*
X466599Y160794D01*
X466611Y160906D01*
X466601Y160992D01*
X466568Y161052D01*
X466512Y161085D01*
X470028Y160013D01*
D02*
G37*
G36*
X428028D02*
X427949Y160005D01*
X427846Y159943D01*
X427719Y159825D01*
X427568Y159653D01*
X427394Y159424D01*
X426973Y158802D01*
X426162Y157455D01*
X424041Y159576D01*
X424191Y159845D01*
X424504Y160493D01*
X424563Y160657D01*
X424599Y160794D01*
X424611Y160906D01*
X424601Y160992D01*
X424568Y161052D01*
X424512Y161085D01*
X428028Y160013D01*
D02*
G37*
G36*
X455432Y161052D02*
X455399Y160992D01*
X455389Y160906D01*
X455401Y160795D01*
X455437Y160657D01*
X455496Y160493D01*
X455577Y160303D01*
X455809Y159845D01*
X455959Y159576D01*
X453838Y157455D01*
X453544Y157959D01*
X452431Y159653D01*
X452281Y159825D01*
X452154Y159943D01*
X452051Y160005D01*
X451972Y160013D01*
X455488Y161085D01*
X455432Y161052D01*
D02*
G37*
G36*
X569639Y182870D02*
X569390Y182497D01*
X567807Y178675D01*
X567000Y174618D01*
Y170482D01*
X567807Y166425D01*
X569390Y162603D01*
X571688Y159163D01*
X572049Y158802D01*
X572064Y158779D01*
X572691Y158003D01*
X573049Y157455D01*
X573406Y156775D01*
X573751Y155947D01*
X574073Y154960D01*
X574360Y153807D01*
X574579Y152593D01*
X574893Y149251D01*
X574898Y148997D01*
X574738Y145238D01*
X574416Y142141D01*
X574244Y141135D01*
X574066Y140370D01*
X573945Y139987D01*
X573822Y139792D01*
X573818Y139782D01*
X573644Y139556D01*
X572974Y137938D01*
X572946Y137876D01*
X572944Y137865D01*
X572335Y136394D01*
X571888Y133000D01*
Y107000D01*
X572335Y103606D01*
X573644Y100444D01*
X575728Y97728D01*
X578444Y95645D01*
X579930Y95029D01*
X579949Y95016D01*
X580069Y94972D01*
X581606Y94335D01*
X581869Y94300D01*
X582234Y94211D01*
X582488Y94104D01*
X583264Y93676D01*
X584420Y92919D01*
X585724Y91957D01*
X594169Y84481D01*
X596343Y82341D01*
X600000Y78684D01*
Y20000D01*
X250000D01*
Y40507D01*
X254816Y41816D01*
X256354Y40819D01*
X258500Y40392D01*
D01*
Y52500D01*
Y64608D01*
X256354Y64181D01*
X254816Y63184D01*
X250000Y64493D01*
Y78288D01*
X252614Y78961D01*
X253000D01*
X253780Y79116D01*
X254133Y79352D01*
X254770Y79516D01*
X256744Y79261D01*
X256744Y79261D01*
X258500Y78912D01*
X263500D01*
X265256Y79261D01*
X266744Y80256D01*
X267586Y81516D01*
X269450Y81837D01*
X269637Y81777D01*
X273961Y77438D01*
Y77000D01*
X274116Y76220D01*
X274558Y75558D01*
X273319Y73646D01*
X272892Y71500D01*
Y71500D01*
X285000D01*
Y69000D01*
X287500D01*
Y60892D01*
X291500D01*
X293646Y61319D01*
X294391Y61817D01*
X298672Y61091D01*
X300088Y60454D01*
X300819Y58646D01*
X300392Y56500D01*
X312500D01*
Y54000D01*
X315000D01*
Y45892D01*
X319000D01*
X321146Y46319D01*
X322965Y47535D01*
X323430Y48230D01*
X328024Y46105D01*
X327944Y45500D01*
Y44500D01*
X341000D01*
X354056D01*
Y45500D01*
X353833Y47197D01*
X353178Y48778D01*
X352442Y50558D01*
X352884Y51220D01*
X353039Y52000D01*
Y62269D01*
X358039Y62761D01*
X358319Y61354D01*
X359535Y59535D01*
X361354Y58319D01*
X363500Y57892D01*
X367500D01*
Y66000D01*
X370000D01*
Y68500D01*
X382108D01*
X381681Y70646D01*
X380442Y72558D01*
X380884Y73220D01*
X381039Y74000D01*
Y78585D01*
X381626Y79257D01*
X387035Y80035D01*
X388854Y78819D01*
X391000Y78392D01*
X395000D01*
Y86500D01*
X400000D01*
Y78392D01*
X404000D01*
X406146Y78819D01*
X407965Y80035D01*
X409181Y81854D01*
X409608Y84000D01*
Y86909D01*
X414535Y88535D01*
X416354Y87319D01*
X418500Y86892D01*
X422500D01*
Y95000D01*
X425000D01*
Y97500D01*
X437108D01*
X436681Y99646D01*
X435442Y101558D01*
X435884Y102220D01*
X436039Y103000D01*
Y109000D01*
X435884Y109780D01*
X435442Y110442D01*
X435739Y112744D01*
X435739Y112744D01*
X436088Y114500D01*
Y119500D01*
X435739Y121256D01*
X434744Y122744D01*
X433256Y123739D01*
X431500Y124088D01*
X423513D01*
X423392Y124129D01*
X423147Y124239D01*
X423098Y124267D01*
X419478Y127599D01*
X416018Y130553D01*
X415759Y130712D01*
X412140Y132930D01*
X407937Y134670D01*
X407768Y134711D01*
X406952Y136046D01*
X405612Y140371D01*
X406000Y141306D01*
Y143694D01*
X405901Y143931D01*
X408399Y148582D01*
X408830Y148932D01*
X420737D01*
X421912Y147500D01*
Y134500D01*
X422261Y132744D01*
X423256Y131256D01*
X424744Y130261D01*
X426500Y129912D01*
X431500D01*
X433256Y130261D01*
X433256Y130261D01*
X435558Y130558D01*
X436220Y130116D01*
X437000Y129961D01*
X443000D01*
X443780Y130116D01*
X444442Y130558D01*
X446744Y130261D01*
X446744Y130261D01*
X448500Y129912D01*
X453500D01*
X455256Y130261D01*
X456744Y131256D01*
X457739Y132744D01*
X458088Y134500D01*
Y147500D01*
X458275Y147728D01*
X459006D01*
X463912Y142805D01*
Y134500D01*
X464261Y132744D01*
X465256Y131256D01*
X466744Y130261D01*
X467371Y130136D01*
X467415Y129862D01*
X467431Y129663D01*
Y124337D01*
X467415Y124138D01*
X467371Y123864D01*
X466744Y123739D01*
X465256Y122744D01*
X464261Y121256D01*
X463912Y119500D01*
Y106500D01*
X464261Y104744D01*
X465256Y103256D01*
X466744Y102261D01*
X468500Y101912D01*
X473500D01*
X475256Y102261D01*
X475256Y102261D01*
X477558Y102558D01*
X478220Y102116D01*
X479000Y101961D01*
X485000D01*
X485780Y102116D01*
X486442Y102558D01*
X488744Y102261D01*
X488744Y102261D01*
X490500Y101912D01*
X495500D01*
X497256Y102261D01*
X498744Y103256D01*
X499739Y104744D01*
X500088Y106500D01*
Y113457D01*
X500163Y113687D01*
X500331Y114063D01*
X500570Y114487D01*
X500866Y114930D01*
X501623Y115856D01*
X521909Y136141D01*
X525453Y139668D01*
X528459Y143187D01*
X528577Y143379D01*
X530877Y147132D01*
X532648Y151408D01*
X533282Y154050D01*
X537511Y154305D01*
X538450Y154158D01*
X539535Y152535D01*
X541354Y151319D01*
X543500Y150892D01*
X547500D01*
Y159000D01*
X550000D01*
Y161500D01*
X562108D01*
Y161500D01*
X561681Y163646D01*
X560442Y165558D01*
X560884Y166220D01*
X561039Y167000D01*
Y173000D01*
X560884Y173780D01*
X560442Y174442D01*
X560739Y176744D01*
X560739Y176744D01*
X561088Y178500D01*
Y180701D01*
X561163Y180845D01*
X561528Y181412D01*
X562020Y182070D01*
X562033Y182085D01*
X565453Y185668D01*
X565646Y185893D01*
X569639Y182870D01*
D02*
G37*
G36*
X497959Y150424D02*
X497809Y150155D01*
X497496Y149507D01*
X497437Y149343D01*
X497401Y149206D01*
X497389Y149094D01*
X497399Y149008D01*
X497432Y148948D01*
X497488Y148915D01*
X493972Y149987D01*
X494051Y149994D01*
X494154Y150057D01*
X494281Y150175D01*
X494431Y150347D01*
X494606Y150576D01*
X495027Y151198D01*
X495838Y152545D01*
X497959Y150424D01*
D02*
G37*
G36*
X468456Y152041D02*
X469568Y150347D01*
X469719Y150175D01*
X469846Y150057D01*
X469949Y149994D01*
X470028Y149987D01*
X466512Y148915D01*
X466568Y148948D01*
X466601Y149008D01*
X466611Y149094D01*
X466599Y149206D01*
X466563Y149343D01*
X466504Y149507D01*
X466423Y149697D01*
X466191Y150155D01*
X466041Y150424D01*
X468162Y152545D01*
X468456Y152041D01*
D02*
G37*
G36*
X426456D02*
X427568Y150347D01*
X427719Y150175D01*
X427846Y150057D01*
X427949Y149994D01*
X428028Y149987D01*
X424512Y148915D01*
X424568Y148948D01*
X424601Y149008D01*
X424611Y149094D01*
X424599Y149206D01*
X424563Y149343D01*
X424504Y149507D01*
X424423Y149697D01*
X424191Y150155D01*
X424041Y150424D01*
X426162Y152545D01*
X426456Y152041D01*
D02*
G37*
G36*
X455959Y150424D02*
X455809Y150155D01*
X455496Y149507D01*
X455437Y149343D01*
X455401Y149206D01*
X455389Y149094D01*
X455399Y149008D01*
X455432Y148948D01*
X455488Y148915D01*
X451972Y149987D01*
X452051Y149994D01*
X452154Y150057D01*
X452281Y150175D01*
X452431Y150347D01*
X452606Y150576D01*
X453027Y151198D01*
X453838Y152545D01*
X455959Y150424D01*
D02*
G37*
G36*
X216381Y163447D02*
X220260Y161070D01*
X222181Y160275D01*
X222325Y160173D01*
X222363Y160165D01*
X222395Y160144D01*
X222913Y159937D01*
X223308Y159753D01*
X223620Y159583D01*
X223846Y159434D01*
X223912Y159380D01*
Y159000D01*
X224261Y157244D01*
X225256Y155756D01*
X226744Y154761D01*
X228500Y154412D01*
X241500D01*
X243256Y154761D01*
X244744Y155756D01*
X245449Y156810D01*
X245803Y156738D01*
X246447Y156543D01*
X249672Y154819D01*
X250239Y154353D01*
X252452Y152452D01*
X253137Y150000D01*
X252452Y147548D01*
X250239Y145647D01*
X249672Y145181D01*
X246447Y143457D01*
X245803Y143262D01*
X245449Y143190D01*
X244744Y144244D01*
X243256Y145239D01*
X241500Y145588D01*
X228500D01*
X226744Y145239D01*
X225256Y144244D01*
X224261Y142756D01*
X223912Y141000D01*
Y140620D01*
X223846Y140566D01*
X223620Y140417D01*
X223309Y140247D01*
X222913Y140063D01*
X222395Y139856D01*
X222363Y139835D01*
X222325Y139827D01*
X222181Y139725D01*
X220260Y138930D01*
X216382Y136553D01*
X212922Y133599D01*
X212412Y133994D01*
X210604Y135403D01*
X209919Y136104D01*
X209436Y136652D01*
X209317Y136744D01*
X208608Y137608D01*
X206035Y139720D01*
X203099Y141289D01*
X202555Y141454D01*
X202545Y141460D01*
X202023Y141631D01*
X201623Y141786D01*
X201306Y141935D01*
X201073Y142067D01*
X200959Y142148D01*
X200739Y143256D01*
X200442Y145558D01*
X200884Y146220D01*
X201039Y147000D01*
Y153000D01*
X200884Y153780D01*
X200442Y154442D01*
X200739Y156744D01*
X200959Y157852D01*
X201073Y157933D01*
X201306Y158065D01*
X201623Y158214D01*
X202023Y158369D01*
X202545Y158540D01*
X202555Y158546D01*
X203099Y158711D01*
X206035Y160280D01*
X208608Y162392D01*
X209309Y163246D01*
X209419Y163328D01*
X210427Y164446D01*
X210590Y164611D01*
X212457Y166047D01*
X212922Y166401D01*
X216381Y163447D01*
D02*
G37*
G36*
X397560Y139330D02*
X397117Y139648D01*
X396655Y139931D01*
X396175Y140182D01*
X395676Y140399D01*
X395159Y140583D01*
X394622Y140733D01*
X394068Y140850D01*
X393494Y140933D01*
X392902Y140983D01*
X392292Y141000D01*
Y144000D01*
X392902Y144017D01*
X393494Y144067D01*
X394068Y144150D01*
X394622Y144267D01*
X395159Y144417D01*
X395676Y144601D01*
X396175Y144818D01*
X396655Y145069D01*
X397117Y145352D01*
X397560Y145670D01*
Y139330D01*
D02*
G37*
G36*
X261272Y134444D02*
X261232Y134716D01*
X261131Y134938D01*
X260972Y135109D01*
X260752Y135230D01*
X260473Y135300D01*
X260134Y135320D01*
X259735Y135289D01*
X259277Y135207D01*
X259260Y135203D01*
X259121Y135110D01*
X258717Y134769D01*
X258334Y134374D01*
X257972Y133923D01*
X257632Y133418D01*
X257312Y132858D01*
X257014Y132242D01*
X256737Y131572D01*
X253416Y136978D01*
X253691Y136968D01*
X254018Y136989D01*
X254397Y137043D01*
X254828Y137127D01*
X255846Y137392D01*
X257072Y137783D01*
X258505Y138301D01*
X258510Y138294D01*
X258687Y138360D01*
X259193Y138578D01*
X259637Y138806D01*
X260021Y139045D01*
X260344Y139292D01*
X260606Y139550D01*
X260808Y139817D01*
X260949Y140093D01*
X261029Y140380D01*
X261048Y140676D01*
X261272Y134444D01*
D02*
G37*
G36*
X198929Y141635D02*
X199016Y141354D01*
X199165Y141084D01*
X199375Y140827D01*
X199645Y140580D01*
X199976Y140345D01*
X200368Y140122D01*
X200821Y139911D01*
X201335Y139711D01*
X201909Y139522D01*
X201848Y136280D01*
X201277Y136438D01*
X200767Y136548D01*
X200315Y136610D01*
X199924Y136624D01*
X199592Y136590D01*
X199320Y136509D01*
X199108Y136380D01*
X198955Y136203D01*
X198862Y135979D01*
X198829Y135707D01*
X198902Y141927D01*
X198929Y141635D01*
D02*
G37*
G36*
X243782Y141762D02*
X243884Y141535D01*
X244046Y141355D01*
X244269Y141223D01*
X244553Y141139D01*
X244897Y141103D01*
X245301Y141115D01*
X245767Y141174D01*
X246293Y141281D01*
X246880Y141435D01*
X246912Y138254D01*
X246342Y138074D01*
X245833Y137881D01*
X245386Y137676D01*
X244999Y137458D01*
X244674Y137227D01*
X244409Y136984D01*
X244206Y136728D01*
X244064Y136459D01*
X243983Y136178D01*
X243964Y135884D01*
X243741Y142036D01*
X243782Y141762D01*
D02*
G37*
G36*
X598527Y164770D02*
X598207Y163908D01*
X597924Y162855D01*
X597679Y161613D01*
X597302Y158558D01*
X597075Y154744D01*
X597008Y150669D01*
X597023Y149051D01*
X597585Y141043D01*
X597843Y139538D01*
X598147Y138231D01*
X598498Y137124D01*
X598896Y136216D01*
X599341Y135506D01*
X580659D01*
X581104Y136216D01*
X581502Y137124D01*
X581853Y138231D01*
X582157Y139538D01*
X582415Y141043D01*
X582789Y144649D01*
X582971Y148912D01*
X582953Y149715D01*
X582580Y153689D01*
X582254Y155498D01*
X581834Y157187D01*
X581322Y158758D01*
X580715Y160210D01*
X580016Y161543D01*
X579224Y162757D01*
X578338Y163853D01*
X598885Y165443D01*
X598527Y164770D01*
D02*
G37*
G36*
X279008Y140215D02*
X279092Y139960D01*
X279238Y139735D01*
X279447Y139540D01*
X279719Y139375D01*
X280053Y139240D01*
X280450Y139135D01*
X280910Y139060D01*
X281433Y139015D01*
X282018Y139000D01*
Y136000D01*
X281411Y135985D01*
X280868Y135941D01*
X280387Y135866D01*
X279968Y135763D01*
X279613Y135629D01*
X279320Y135466D01*
X279090Y135273D01*
X278923Y135051D01*
X278818Y134799D01*
X278776Y134517D01*
X278987Y140500D01*
X279008Y140215D01*
D02*
G37*
G36*
X226615Y134430D02*
X226555Y134702D01*
X226433Y134920D01*
X226249Y135084D01*
X226004Y135193D01*
X225696Y135249D01*
X225327Y135251D01*
X224895Y135199D01*
X224402Y135093D01*
X223847Y134933D01*
X223230Y134719D01*
X223151Y137963D01*
X223722Y138190D01*
X224228Y138426D01*
X224672Y138669D01*
X225053Y138920D01*
X225371Y139178D01*
X225625Y139444D01*
X225817Y139718D01*
X225945Y140000D01*
X226010Y140289D01*
X226013Y140585D01*
X226615Y134430D01*
D02*
G37*
G36*
X201846Y131413D02*
X202724Y129989D01*
X202491Y128726D01*
X202212Y127594D01*
X202204Y127414D01*
X202000Y126653D01*
Y124547D01*
X202545Y122512D01*
X203598Y120688D01*
X205088Y119198D01*
X206912Y118145D01*
X208947Y117600D01*
X211053D01*
X213088Y118145D01*
X214912Y119198D01*
X216402Y120688D01*
X217455Y122512D01*
X218000Y124547D01*
Y126653D01*
X217598Y128152D01*
X217984Y128537D01*
X218073Y128671D01*
X221019Y131088D01*
X221800Y130932D01*
X223961Y129330D01*
Y124500D01*
X224116Y123720D01*
X224558Y123058D01*
X223319Y121146D01*
X222892Y119000D01*
X247108D01*
X246681Y121146D01*
X245442Y123058D01*
X245884Y123720D01*
X246039Y124500D01*
Y127233D01*
X249039Y128476D01*
X249601Y127913D01*
X251807Y127000D01*
X254193D01*
X255961Y127732D01*
X257737Y127036D01*
X258961Y126233D01*
Y124000D01*
X259116Y123220D01*
X259558Y122558D01*
X258319Y120646D01*
X257892Y118500D01*
D01*
X270000D01*
Y113500D01*
X257892D01*
X258319Y111354D01*
X259535Y109535D01*
X261354Y108319D01*
X262959Y108000D01*
X262663Y105000D01*
X180000D01*
Y129818D01*
X180361Y130324D01*
X183000Y132011D01*
X183500Y131912D01*
X196500D01*
X198256Y132261D01*
X201846Y131413D01*
D02*
G37*
G36*
X300360Y221570D02*
X304563Y219830D01*
X305485Y219608D01*
X305527Y219587D01*
X306031Y219451D01*
X306409Y219325D01*
X306704Y219202D01*
X306912Y219095D01*
Y215500D01*
X307261Y213744D01*
X307941Y212727D01*
X307944Y212717D01*
X307960Y212698D01*
X308102Y212486D01*
X308113Y212463D01*
X308122Y212456D01*
X308256Y212256D01*
X308456Y212122D01*
X308463Y212114D01*
X308588Y212015D01*
X308606Y211997D01*
X308642Y211947D01*
X308694Y211851D01*
X308755Y211701D01*
X308818Y211493D01*
X308875Y211225D01*
X308920Y210898D01*
X308931Y210756D01*
Y193000D01*
X308946Y192926D01*
Y185750D01*
X309160Y184677D01*
X309767Y183767D01*
X310677Y183160D01*
X311750Y182946D01*
X313250D01*
X314323Y183160D01*
X315000Y183612D01*
X315677Y183160D01*
X316750Y182946D01*
X318250D01*
X319323Y183160D01*
X320000Y183612D01*
X320677Y183160D01*
X321750Y182946D01*
X323250D01*
X324323Y183160D01*
X325000Y183612D01*
X325677Y183160D01*
X326750Y182946D01*
X328250D01*
X329323Y183160D01*
X330000Y183612D01*
X330677Y183160D01*
X331750Y182946D01*
X333250D01*
X334323Y183160D01*
X335000Y183612D01*
X335677Y183160D01*
X336750Y182946D01*
X338250D01*
X339323Y183160D01*
X340000Y183612D01*
X340677Y183160D01*
X341750Y182946D01*
X343250D01*
X344323Y183160D01*
X345000Y183612D01*
X345677Y183160D01*
X346750Y182946D01*
X348250D01*
X350000Y180278D01*
Y170000D01*
X309804Y129804D01*
X309298Y129721D01*
X307360Y131430D01*
X307054Y131750D01*
Y133250D01*
X306840Y134323D01*
X306388Y135000D01*
X306840Y135677D01*
X307054Y136750D01*
Y138250D01*
X306902Y139012D01*
X306954Y139046D01*
X307591Y140000D01*
X306389D01*
X306233Y140233D01*
X305323Y140841D01*
X304250Y141054D01*
X297074D01*
X297000Y141069D01*
Y143931D01*
X297074Y143946D01*
X304250D01*
X305323Y144159D01*
X306233Y144767D01*
X306389Y145000D01*
X307591D01*
X306954Y145954D01*
X306902Y145988D01*
X307054Y146750D01*
Y148250D01*
X306840Y149323D01*
X306388Y150000D01*
X306840Y150677D01*
X307054Y151750D01*
Y153250D01*
X306840Y154323D01*
X306388Y155000D01*
X306840Y155677D01*
X307054Y156750D01*
Y158250D01*
X306840Y159323D01*
X306388Y160000D01*
X306840Y160677D01*
X307054Y161750D01*
Y163250D01*
X306840Y164323D01*
X306388Y165000D01*
X306840Y165677D01*
X307054Y166750D01*
Y168250D01*
X306840Y169323D01*
X306388Y170000D01*
X306840Y170677D01*
X307054Y171750D01*
Y173250D01*
X306840Y174323D01*
X306388Y175000D01*
X306840Y175677D01*
X307054Y176750D01*
Y178250D01*
X306840Y179323D01*
X306233Y180233D01*
X305323Y180840D01*
X304250Y181054D01*
X300600D01*
X300585Y181148D01*
X300569Y181332D01*
Y206479D01*
X300589D01*
X300233Y211014D01*
X299170Y215437D01*
X297430Y219640D01*
X297271Y219898D01*
X298800Y222048D01*
X299143Y222316D01*
X300360Y221570D01*
D02*
G37*
G36*
X473710Y132080D02*
X473456Y131986D01*
X473232Y131830D01*
X473038Y131611D01*
X472873Y131329D01*
X472739Y130985D01*
X472635Y130578D01*
X472560Y130109D01*
X472515Y129577D01*
X472500Y128982D01*
X469500D01*
X469485Y129577D01*
X469440Y130109D01*
X469366Y130578D01*
X469261Y130985D01*
X469127Y131329D01*
X468962Y131611D01*
X468768Y131830D01*
X468544Y131986D01*
X468290Y132080D01*
X468006Y132112D01*
X473994D01*
X473710Y132080D01*
D02*
G37*
G36*
X208423Y134717D02*
X209975Y133129D01*
X210492Y132659D01*
X212040Y131428D01*
X212555Y131076D01*
X212873Y130878D01*
X212899Y130875D01*
X212974Y130896D01*
X213072Y130947D01*
X213193Y131027D01*
X213337Y131137D01*
X213693Y131443D01*
X214400Y132121D01*
X216521Y130000D01*
X216266Y129741D01*
X215427Y128793D01*
X215347Y128672D01*
X215296Y128574D01*
X215275Y128498D01*
X215282Y128446D01*
X213002Y130727D01*
X204192Y127106D01*
X204486Y128297D01*
X205030Y131257D01*
X205098Y132039D01*
X205111Y132718D01*
X205067Y133296D01*
X204966Y133771D01*
X204809Y134143D01*
X204596Y134413D01*
X207906Y135306D01*
X208423Y134717D01*
D02*
G37*
G36*
X399059Y127545D02*
X399086Y127556D01*
X399104Y127512D01*
X400560Y126461D01*
X399861Y125761D01*
X400192Y124993D01*
X397500Y122471D01*
X397471Y123105D01*
X397442Y123342D01*
X396039Y121939D01*
X395926Y122711D01*
X395389Y125350D01*
X395289Y125635D01*
X395190Y125838D01*
X395094Y125959D01*
X395000Y126000D01*
X398251Y128129D01*
X399059Y127545D01*
D02*
G37*
G36*
X472515Y124423D02*
X472560Y123891D01*
X472635Y123422D01*
X472739Y123015D01*
X472873Y122671D01*
X473038Y122389D01*
X473232Y122170D01*
X473456Y122014D01*
X473710Y121920D01*
X473994Y121889D01*
X468006D01*
X468290Y121920D01*
X468544Y122014D01*
X468768Y122170D01*
X468962Y122389D01*
X469127Y122671D01*
X469261Y123015D01*
X469366Y123422D01*
X469440Y123891D01*
X469485Y124423D01*
X469500Y125018D01*
X472500D01*
X472515Y124423D01*
D02*
G37*
G36*
X500846Y118018D02*
X500233Y117377D01*
X499225Y116145D01*
X498830Y115554D01*
X498508Y114980D01*
X498259Y114423D01*
X498082Y113882D01*
X497978Y113358D01*
X497946Y112851D01*
X497987Y112361D01*
X496464Y121826D01*
X496778Y121659D01*
X497114Y121565D01*
X497472Y121542D01*
X497851Y121592D01*
X498252Y121714D01*
X498674Y121908D01*
X499118Y122174D01*
X499583Y122513D01*
X500070Y122924D01*
X500578Y123406D01*
X500846Y118018D01*
D02*
G37*
G36*
X420451Y123692D02*
X421358Y122951D01*
X421797Y122659D01*
X422226Y122418D01*
X422646Y122228D01*
X423055Y122091D01*
X423455Y122005D01*
X423845Y121970D01*
X424225Y121987D01*
X416648Y121118D01*
X416981Y121186D01*
X417224Y121303D01*
X417375Y121469D01*
X417435Y121684D01*
X417403Y121947D01*
X417281Y122260D01*
X417067Y122621D01*
X416762Y123032D01*
X416366Y123491D01*
X415879Y124000D01*
X419982Y124139D01*
X420451Y123692D01*
D02*
G37*
G36*
X403044Y119858D02*
X402929Y119595D01*
X402829Y119274D01*
X402742Y118893D01*
X402668Y118454D01*
X402560Y117400D01*
X402507Y116110D01*
X402500Y115378D01*
X397500D01*
X397493Y116110D01*
X397332Y118454D01*
X397258Y118893D01*
X397171Y119274D01*
X397071Y119595D01*
X396956Y119858D01*
X396829Y120062D01*
X403171D01*
X403044Y119858D01*
D02*
G37*
G36*
X299715Y121017D02*
X299460Y120926D01*
X299235Y120774D01*
X299040Y120562D01*
X298875Y120289D01*
X298740Y119956D01*
X298635Y119562D01*
X298560Y119107D01*
X298516Y118599D01*
X298523Y118414D01*
X298594Y117869D01*
X298711Y117332D01*
X298874Y116804D01*
X299085Y116284D01*
X299342Y115773D01*
X299647Y115271D01*
X299998Y114778D01*
X300395Y114293D01*
X300840Y113817D01*
X294546Y113018D01*
X294727Y113363D01*
X294890Y113744D01*
X295033Y114163D01*
X295157Y114618D01*
X295261Y115110D01*
X295414Y116205D01*
X295462Y116807D01*
X295499Y118072D01*
X295485Y118592D01*
X295440Y119107D01*
X295365Y119562D01*
X295260Y119956D01*
X295125Y120289D01*
X294960Y120562D01*
X294765Y120774D01*
X294540Y120926D01*
X294285Y121017D01*
X294000Y121047D01*
X300000D01*
X299715Y121017D01*
D02*
G37*
G36*
X50960Y142998D02*
X51115Y142218D01*
X51557Y141556D01*
X51522Y139376D01*
X51516Y139362D01*
X51075Y138787D01*
X50219Y136719D01*
X49927Y134500D01*
Y131500D01*
X65000D01*
Y129000D01*
X67500D01*
Y114927D01*
X71500D01*
X73719Y115219D01*
X75787Y116075D01*
X77562Y117438D01*
X78536Y118706D01*
X80000Y120000D01*
X84719D01*
X85788Y118000D01*
X85348Y117341D01*
X84882Y115000D01*
Y114500D01*
X100000D01*
X115118D01*
Y115000D01*
X114652Y117341D01*
X114212Y118000D01*
X115281Y120000D01*
X120000D01*
Y90000D01*
X85530D01*
X82639Y92535D01*
X76807Y96432D01*
X70518Y99534D01*
X63877Y101788D01*
X56998Y103156D01*
X50000Y103615D01*
X43002Y103156D01*
X36123Y101788D01*
X29483Y99534D01*
X23193Y96432D01*
X21764Y95477D01*
X20000Y96420D01*
Y109740D01*
X22000Y110594D01*
X23596Y109932D01*
X25750Y109649D01*
X28500D01*
Y127220D01*
X31000D01*
Y129720D01*
X44571D01*
Y136470D01*
X44288Y138624D01*
X43456Y140631D01*
X42134Y142354D01*
X41292Y143000D01*
X41971Y145000D01*
X50960D01*
Y142998D01*
D02*
G37*
G36*
X286542Y111720D02*
X286649Y111371D01*
X286822Y111021D01*
X287062Y110669D01*
X287369Y110315D01*
X287742Y109959D01*
X288182Y109602D01*
X288688Y109243D01*
X289261Y108882D01*
X289900Y108520D01*
X284092Y105851D01*
X284121Y106049D01*
X284134Y106300D01*
X284132Y106606D01*
X284079Y107380D01*
X283880Y108947D01*
X283668Y110262D01*
X286502Y112067D01*
X286542Y111720D01*
D02*
G37*
G36*
X389982Y103747D02*
X389889Y104141D01*
X389682Y104456D01*
X389360Y104689D01*
X388926Y104842D01*
X388377Y104915D01*
X387715Y104907D01*
X386939Y104818D01*
X386049Y104648D01*
X385045Y104398D01*
X383928Y104068D01*
X383665Y109726D01*
X384522Y110010D01*
X386692Y110890D01*
X387281Y111193D01*
X387803Y111501D01*
X388257Y111814D01*
X388645Y112131D01*
X388966Y112453D01*
X389220Y112780D01*
X389982Y103747D01*
D02*
G37*
G36*
X380465Y96185D02*
X380166Y95228D01*
X379008Y90680D01*
X379018Y90500D01*
X372310Y92987D01*
X372651Y92913D01*
X372987Y92944D01*
X373319Y93081D01*
X373645Y93323D01*
X373967Y93672D01*
X374283Y94126D01*
X374595Y94686D01*
X374902Y95351D01*
X375203Y96123D01*
X375500Y97000D01*
X380465Y96185D01*
D02*
G37*
G36*
X349017Y97098D02*
X349067Y96506D01*
X349150Y95932D01*
X349267Y95378D01*
X349417Y94841D01*
X349601Y94324D01*
X349818Y93825D01*
X350069Y93345D01*
X350352Y92883D01*
X350670Y92440D01*
X349234D01*
X349269Y91767D01*
X345731D01*
X345782Y91868D01*
X345828Y92062D01*
X345868Y92351D01*
X345875Y92440D01*
X344330D01*
X344648Y92883D01*
X344931Y93345D01*
X345182Y93825D01*
X345399Y94324D01*
X345583Y94841D01*
X345733Y95378D01*
X345850Y95932D01*
X345933Y96506D01*
X345983Y97098D01*
X346000Y97708D01*
X349000D01*
X349017Y97098D01*
D02*
G37*
G36*
X599252Y118642D02*
X598956Y117260D01*
X599095Y115640D01*
X599669Y113784D01*
X600677Y111690D01*
X602120Y109359D01*
X603998Y106790D01*
X606310Y103984D01*
X612239Y97661D01*
X602339Y87761D01*
X599677Y90381D01*
X590803Y98238D01*
X589028Y99546D01*
X587430Y100593D01*
X586010Y101377D01*
X584768Y101899D01*
X583703Y102158D01*
X599982Y119787D01*
X599252Y118642D01*
D02*
G37*
G36*
X265762Y97657D02*
X266331Y97100D01*
X266987Y96607D01*
X267731Y96181D01*
X268561Y95820D01*
X269478Y95525D01*
X270482Y95295D01*
X271574Y95131D01*
X271732Y95118D01*
X276207Y95405D01*
X276781Y95529D01*
X277224Y95669D01*
X277537Y95826D01*
Y86174D01*
X277224Y86331D01*
X276781Y86471D01*
X276207Y86595D01*
X275502Y86702D01*
X273701Y86868D01*
X272025Y86924D01*
X271040Y86840D01*
X269805Y86641D01*
X268739Y86361D01*
X267841Y86002D01*
X267113Y85562D01*
X266553Y85043D01*
X266163Y84444D01*
X265941Y83765D01*
X265889Y83006D01*
X265280Y98280D01*
X265762Y97657D01*
D02*
G37*
G36*
X293050Y95479D02*
X293716Y95169D01*
X294462Y94895D01*
X295288Y94657D01*
X296194Y94457D01*
X297179Y94292D01*
X299389Y94073D01*
X300614Y94018D01*
X301918Y94000D01*
X299590Y86000D01*
X292463Y86174D01*
Y95826D01*
X293050Y95479D01*
D02*
G37*
G36*
X357152Y92500D02*
X358003Y92503D01*
X362394Y92764D01*
X362537Y92826D01*
X361111Y85006D01*
X361142Y85480D01*
X361052Y85904D01*
X360841Y86278D01*
X360509Y86602D01*
X360056Y86876D01*
X359483Y87101D01*
X358789Y87275D01*
X357974Y87400D01*
X357038Y87475D01*
X355982Y87500D01*
X356601Y90402D01*
X355494Y89821D01*
X352821Y92494D01*
X353425Y92555D01*
X353965Y92647D01*
X354442Y92770D01*
X354855Y92924D01*
X355205Y93109D01*
X355491Y93326D01*
X355714Y93573D01*
X355873Y93851D01*
X355968Y94160D01*
X356000Y94500D01*
X357152Y92500D01*
D02*
G37*
G36*
X321490Y83082D02*
X321391Y82497D01*
X321178Y80652D01*
X321170Y80315D01*
X321182Y80028D01*
X321211Y79790D01*
X321260Y79602D01*
X321326Y79464D01*
X316887Y80987D01*
X317101Y80945D01*
X317303Y80967D01*
X317493Y81055D01*
X317672Y81208D01*
X317839Y81427D01*
X317995Y81711D01*
X318139Y82060D01*
X318271Y82475D01*
X318391Y82955D01*
X318500Y83500D01*
X321490Y83082D01*
D02*
G37*
G36*
X336515Y83376D02*
X336560Y82824D01*
X336635Y82344D01*
X336740Y81934D01*
X336875Y81595D01*
X337040Y81328D01*
X337235Y81131D01*
X337460Y81006D01*
X337715Y80952D01*
X338000Y80969D01*
X332024Y79923D01*
X332305Y80008D01*
X332555Y80162D01*
X332777Y80384D01*
X332969Y80674D01*
X333131Y81032D01*
X333264Y81457D01*
X333367Y81951D01*
X333441Y82513D01*
X333485Y83143D01*
X333500Y83841D01*
X336500Y84000D01*
X336515Y83376D01*
D02*
G37*
G36*
X618859Y91139D02*
X623618Y87170D01*
X625737Y85742D01*
X627681Y84685D01*
X629452Y84001D01*
X631048Y83687D01*
X632470Y83746D01*
X633718Y84175D01*
X634792Y84977D01*
X615023Y65208D01*
X615825Y66282D01*
X616254Y67530D01*
X616312Y68952D01*
X615999Y70548D01*
X615314Y72319D01*
X614258Y74263D01*
X612831Y76382D01*
X611031Y78674D01*
X608861Y81141D01*
X606319Y83782D01*
X616218Y93681D01*
X618859Y91139D01*
D02*
G37*
G36*
X234013Y47500D02*
X233962Y47975D01*
X233811Y48400D01*
X233560Y48775D01*
X233208Y49100D01*
X232755Y49375D01*
X232202Y49600D01*
X231548Y49775D01*
X230793Y49900D01*
X230458Y49929D01*
X229046Y49833D01*
X228607Y49759D01*
X228227Y49672D01*
X227906Y49571D01*
X227643Y49458D01*
X227440Y49330D01*
Y55670D01*
X227643Y55542D01*
X227906Y55429D01*
X228227Y55328D01*
X228607Y55241D01*
X229046Y55167D01*
X230100Y55060D01*
X230263Y55054D01*
X230793Y55100D01*
X231548Y55225D01*
X232202Y55400D01*
X232755Y55625D01*
X233208Y55900D01*
X233560Y56225D01*
X233811Y56600D01*
X233962Y57025D01*
X234013Y57500D01*
Y47500D01*
D02*
G37*
%LPC*%
G36*
X323100Y466789D02*
X320582Y466114D01*
X317618Y464403D01*
X315197Y461982D01*
X313486Y459018D01*
X312811Y456500D01*
X323100D01*
Y466789D01*
D02*
G37*
G36*
X397500Y466108D02*
X397500D01*
Y456500D01*
X403108D01*
Y460500D01*
X402681Y462646D01*
X401465Y464465D01*
X399646Y465681D01*
X397500Y466108D01*
D02*
G37*
G36*
X231500Y462108D02*
X231500D01*
X229354Y461681D01*
X227535Y460465D01*
X226319Y458646D01*
X225892Y456500D01*
Y452500D01*
X231500D01*
Y462108D01*
D02*
G37*
G36*
X208989Y462500D02*
X198700D01*
Y452211D01*
X201218Y452886D01*
X204182Y454597D01*
X206603Y457018D01*
X208314Y459982D01*
X208989Y462500D01*
D02*
G37*
G36*
X231500Y447500D02*
X225892D01*
Y443500D01*
X226319Y441354D01*
X227535Y439535D01*
X229354Y438319D01*
X231500Y437892D01*
X231500D01*
Y447500D01*
D02*
G37*
G36*
X381500Y416608D02*
X377500D01*
Y411000D01*
X387108D01*
Y411000D01*
X386681Y413146D01*
X385465Y414965D01*
X383646Y416181D01*
X381500Y416608D01*
D02*
G37*
G36*
X372500D02*
X368500D01*
X366354Y416181D01*
X364535Y414965D01*
X363319Y413146D01*
X362892Y411000D01*
Y411000D01*
X372500D01*
Y416608D01*
D02*
G37*
G36*
X387108Y339000D02*
X377500D01*
Y333392D01*
X381500D01*
X383646Y333819D01*
X385465Y335035D01*
X386681Y336854D01*
X387108Y339000D01*
D02*
G37*
G36*
X372500D02*
X362892D01*
X363319Y336854D01*
X364535Y335035D01*
X366354Y333819D01*
X368500Y333392D01*
X372500D01*
Y339000D01*
D02*
G37*
G36*
X317500Y306108D02*
X317500D01*
Y296500D01*
X323108D01*
Y300500D01*
X322681Y302646D01*
X321465Y304465D01*
X319646Y305681D01*
X317500Y306108D01*
D02*
G37*
G36*
X374500Y300000D02*
X373000D01*
X369000Y296000D01*
Y294500D01*
X374500D01*
Y300000D01*
D02*
G37*
G36*
X323108Y291500D02*
X317500D01*
Y281892D01*
X317500D01*
X319646Y282319D01*
X321465Y283535D01*
X322681Y285354D01*
X323108Y287500D01*
Y291500D01*
D02*
G37*
G36*
X126500Y392500D02*
X120892D01*
Y388500D01*
X121319Y386354D01*
X122535Y384535D01*
X124354Y383319D01*
X126500Y382892D01*
D01*
Y392500D01*
D02*
G37*
G36*
X42100Y287229D02*
Y276200D01*
Y265171D01*
X44472Y265483D01*
X47147Y266591D01*
X49445Y268355D01*
X51209Y270653D01*
X51218Y270675D01*
X53046Y270964D01*
X54524Y270819D01*
X55868Y269068D01*
X57957Y267465D01*
X60389Y266457D01*
X63000Y266114D01*
X67000D01*
X69611Y266457D01*
X72043Y267465D01*
X74132Y269068D01*
X75735Y271157D01*
X76743Y273589D01*
X77086Y276200D01*
X76743Y278811D01*
X75735Y281243D01*
X74132Y283332D01*
X72043Y284935D01*
X69611Y285943D01*
X67000Y286286D01*
X63000D01*
X60389Y285943D01*
X57957Y284935D01*
X55868Y283332D01*
X54524Y281581D01*
X53046Y281436D01*
X51218Y281725D01*
X51209Y281747D01*
X49445Y284045D01*
X47147Y285809D01*
X44472Y286917D01*
X42100Y287229D01*
D02*
G37*
G36*
Y261829D02*
Y250800D01*
Y239771D01*
X44472Y240083D01*
X47147Y241192D01*
X49445Y242955D01*
X51209Y245253D01*
X51218Y245275D01*
X53046Y245564D01*
X54524Y245419D01*
X55868Y243668D01*
X57957Y242065D01*
X60389Y241057D01*
X63000Y240714D01*
X67000D01*
X69611Y241057D01*
X72043Y242065D01*
X74132Y243668D01*
X75735Y245757D01*
X76743Y248190D01*
X77086Y250800D01*
X76743Y253410D01*
X75735Y255843D01*
X74132Y257932D01*
X72043Y259535D01*
X69611Y260543D01*
X67000Y260886D01*
X63000D01*
X60389Y260543D01*
X57957Y259535D01*
X55868Y257932D01*
X54524Y256181D01*
X53046Y256036D01*
X51218Y256325D01*
X51209Y256347D01*
X49445Y258645D01*
X47147Y260408D01*
X44472Y261517D01*
X42100Y261829D01*
D02*
G37*
G36*
X288034Y291695D02*
X288096Y287928D01*
X288176Y288318D01*
X288245Y289221D01*
X288219Y290227D01*
X288098Y291338D01*
X288034Y291695D01*
D02*
G37*
G36*
X469000Y277108D02*
X466854Y276681D01*
X465035Y275465D01*
X463819Y273646D01*
X463392Y271500D01*
Y267500D01*
X469000D01*
Y277108D01*
D02*
G37*
G36*
X370000Y203591D02*
Y195500D01*
X372074D01*
Y200250D01*
X371782Y201713D01*
X370954Y202954D01*
X370000Y203591D01*
D02*
G37*
G36*
X213500Y235108D02*
X213500D01*
X211354Y234681D01*
X209535Y233465D01*
X208319Y231646D01*
X207892Y229500D01*
Y225500D01*
X213500D01*
Y235108D01*
D02*
G37*
G36*
X166500Y231073D02*
X163500D01*
Y218500D01*
X175073D01*
Y222500D01*
X174781Y224719D01*
X173925Y226787D01*
X172562Y228562D01*
X170787Y229925D01*
X168719Y230781D01*
X166500Y231073D01*
D02*
G37*
G36*
X213500Y220500D02*
X207892D01*
Y216500D01*
X208319Y214354D01*
X209535Y212535D01*
X211354Y211319D01*
X213500Y210892D01*
X213500D01*
Y220500D01*
D02*
G37*
G36*
X158500Y197108D02*
D01*
Y187500D01*
X164108D01*
Y191500D01*
X163681Y193646D01*
X162465Y195465D01*
X160646Y196681D01*
X158500Y197108D01*
D02*
G37*
G36*
X164108Y182500D02*
X158500D01*
Y172892D01*
X160646Y173319D01*
X162465Y174535D01*
X163681Y176354D01*
X164108Y178500D01*
Y182500D01*
D02*
G37*
G36*
X157500Y156078D02*
X154000D01*
X151650Y155768D01*
X149461Y154861D01*
X147581Y153419D01*
X146138Y151539D01*
X145232Y149349D01*
X144922Y147000D01*
Y137500D01*
X157500D01*
Y156078D01*
D02*
G37*
G36*
Y132500D02*
X144922D01*
Y123000D01*
X145232Y120651D01*
X146138Y118461D01*
X147581Y116581D01*
X149461Y115139D01*
X151650Y114232D01*
X154000Y113922D01*
X157500D01*
Y132500D01*
D02*
G37*
G36*
X236500Y87500D02*
X230892D01*
Y83500D01*
X231319Y81354D01*
X232535Y79535D01*
X234354Y78319D01*
X236500Y77892D01*
Y87500D01*
D02*
G37*
G36*
X180500Y65108D02*
X180500D01*
X178354Y64681D01*
X178123Y64526D01*
X176442Y63442D01*
X175780Y63884D01*
X175000Y64039D01*
X169000D01*
X168220Y63884D01*
X167558Y63442D01*
X165403Y63640D01*
X165256Y63739D01*
X163500Y64088D01*
X158500D01*
X156744Y63739D01*
X155256Y62744D01*
X154261Y61256D01*
X153912Y59500D01*
Y46500D01*
X154261Y44744D01*
X154931Y43742D01*
X154932Y43739D01*
X154937Y43732D01*
X155256Y43256D01*
X155441Y43132D01*
X155443Y43129D01*
X155650Y42963D01*
X155740Y42863D01*
X155853Y42691D01*
X155979Y42433D01*
X156107Y42081D01*
X156224Y41637D01*
X156318Y41129D01*
X156412Y40104D01*
Y39414D01*
X156405Y39245D01*
X156311Y38317D01*
X156258Y38004D01*
X156202Y37760D01*
X156169Y37654D01*
X155913Y37399D01*
X155000Y35194D01*
Y32806D01*
X155913Y30601D01*
X157601Y28914D01*
X159806Y28000D01*
X162194D01*
X164399Y28914D01*
X166087Y30601D01*
X167000Y32806D01*
Y35194D01*
X166087Y37399D01*
X165831Y37654D01*
X165798Y37760D01*
X165742Y38004D01*
X165695Y38285D01*
X165588Y39843D01*
Y40263D01*
X165602Y40478D01*
X165677Y41102D01*
X165774Y41628D01*
X165827Y41663D01*
X166726Y42128D01*
X167046Y42236D01*
X167599Y42310D01*
X167835Y42292D01*
X168024Y42247D01*
X168220Y42116D01*
X169000Y41961D01*
X175000D01*
X175780Y42116D01*
X176442Y42558D01*
X178123Y41474D01*
X178354Y41319D01*
X180500Y40892D01*
X180500D01*
Y53000D01*
Y65108D01*
D02*
G37*
G36*
X185500D02*
Y55500D01*
X191108D01*
Y59500D01*
X190681Y61646D01*
X189465Y63465D01*
X187646Y64681D01*
X185500Y65108D01*
D02*
G37*
G36*
X191108Y50500D02*
X185500D01*
Y40892D01*
X187646Y41319D01*
X189465Y42535D01*
X190681Y44354D01*
X191108Y46500D01*
Y50500D01*
D02*
G37*
%LPD*%
G36*
X164942Y44448D02*
X164639Y44109D01*
X164372Y43704D01*
X164141Y43231D01*
X163945Y42690D01*
X163785Y42083D01*
X163660Y41409D01*
X163571Y40667D01*
X163530Y40046D01*
X163667Y38046D01*
X163741Y37607D01*
X163828Y37227D01*
X163929Y36906D01*
X164042Y36643D01*
X164170Y36440D01*
X157830D01*
X157958Y36643D01*
X158071Y36906D01*
X158172Y37227D01*
X158259Y37607D01*
X158333Y38046D01*
X158440Y39100D01*
X158475Y39940D01*
X158340Y41409D01*
X158215Y42083D01*
X158055Y42690D01*
X157859Y43231D01*
X157628Y43704D01*
X157360Y44109D01*
X157058Y44448D01*
X156720Y44720D01*
X165280D01*
X164942Y44448D01*
D02*
G37*
%LPC*%
G36*
X126500Y231073D02*
X123500D01*
X121281Y230781D01*
X119213Y229925D01*
X117438Y228562D01*
X116075Y226787D01*
X115219Y224719D01*
X114927Y222500D01*
Y218500D01*
X126500D01*
Y231073D01*
D02*
G37*
G36*
Y213500D02*
X114927D01*
Y209500D01*
X115219Y207281D01*
X116075Y205213D01*
X117438Y203438D01*
X119213Y202075D01*
X121281Y201219D01*
X123500Y200927D01*
X126500D01*
Y213500D01*
D02*
G37*
G36*
X131500Y197108D02*
X129354Y196681D01*
X127535Y195465D01*
X126319Y193646D01*
X125892Y191500D01*
Y187500D01*
X131500D01*
Y197108D01*
D02*
G37*
G36*
X232500Y191608D02*
X228500D01*
X226354Y191181D01*
X224535Y189965D01*
X223319Y188146D01*
X222892Y186000D01*
Y186000D01*
X232500D01*
Y191608D01*
D02*
G37*
G36*
X37100Y197500D02*
X26834D01*
X26883Y197128D01*
X27991Y194453D01*
X29755Y192155D01*
X32053Y190392D01*
X34728Y189283D01*
X37100Y188971D01*
Y197500D01*
D02*
G37*
G36*
X108108Y176500D02*
X98500D01*
Y170892D01*
X102500D01*
X104646Y171319D01*
X106465Y172535D01*
X107681Y174354D01*
X108108Y176500D01*
D02*
G37*
G36*
X93500D02*
X83892D01*
X84319Y174354D01*
X85535Y172535D01*
X87354Y171319D01*
X89500Y170892D01*
X93500D01*
Y176500D01*
D02*
G37*
G36*
X36250Y180351D02*
X33500D01*
Y165280D01*
X44571D01*
Y172030D01*
X44288Y174184D01*
X43456Y176191D01*
X42134Y177914D01*
X40411Y179236D01*
X38404Y180068D01*
X36250Y180351D01*
D02*
G37*
G36*
X71500Y175073D02*
X67500D01*
Y163500D01*
X80073D01*
Y166500D01*
X79781Y168719D01*
X78925Y170787D01*
X77562Y172562D01*
X75787Y173925D01*
X73719Y174781D01*
X71500Y175073D01*
D02*
G37*
G36*
X62500D02*
X58500D01*
X56281Y174781D01*
X54213Y173925D01*
X52438Y172562D01*
X51075Y170787D01*
X50219Y168719D01*
X49927Y166500D01*
Y163500D01*
X62500D01*
Y175073D01*
D02*
G37*
G36*
X97500Y167118D02*
X91000D01*
X88659Y166652D01*
X86674Y165326D01*
X85348Y163341D01*
X84882Y161000D01*
Y160500D01*
X97500D01*
Y167118D01*
D02*
G37*
G36*
X562108Y156500D02*
X552500D01*
Y150892D01*
X556500D01*
X558646Y151319D01*
X560465Y152535D01*
X561681Y154354D01*
X562108Y156500D01*
D02*
G37*
G36*
X555000Y141069D02*
X552500D01*
Y122500D01*
X563069D01*
Y133000D01*
X562794Y135088D01*
X561988Y137035D01*
X560706Y138706D01*
X559035Y139988D01*
X557088Y140794D01*
X555000Y141069D01*
D02*
G37*
G36*
X547500D02*
X545000D01*
X542912Y140794D01*
X540965Y139988D01*
X539294Y138706D01*
X538012Y137035D01*
X537206Y135088D01*
X536931Y133000D01*
Y122500D01*
X547500D01*
Y141069D01*
D02*
G37*
G36*
X563069Y117500D02*
X552500D01*
Y98931D01*
X555000D01*
X557088Y99206D01*
X559035Y100012D01*
X560706Y101294D01*
X561988Y102965D01*
X562794Y104912D01*
X563069Y107000D01*
Y117500D01*
D02*
G37*
G36*
X547500D02*
X536931D01*
Y107000D01*
X537206Y104912D01*
X538012Y102965D01*
X539294Y101294D01*
X540965Y100012D01*
X542912Y99206D01*
X545000Y98931D01*
X547500D01*
Y117500D01*
D02*
G37*
G36*
X437108Y92500D02*
X427500D01*
Y86892D01*
X431500D01*
X433646Y87319D01*
X435465Y88535D01*
X436681Y90354D01*
X437108Y92500D01*
D02*
G37*
G36*
X282500Y66500D02*
X272892D01*
X273319Y64354D01*
X274535Y62535D01*
X276354Y61319D01*
X278500Y60892D01*
X282500D01*
Y66500D01*
D02*
G37*
G36*
X382108Y63500D02*
X372500D01*
Y57892D01*
X376500D01*
X378646Y58319D01*
X380465Y59535D01*
X381681Y61354D01*
X382108Y63500D01*
D01*
D02*
G37*
G36*
X263500Y64608D02*
D01*
Y55000D01*
X269108D01*
Y59000D01*
X268681Y61146D01*
X267465Y62965D01*
X265646Y64181D01*
X263500Y64608D01*
D02*
G37*
G36*
X310000Y51500D02*
X300392D01*
Y51500D01*
X300819Y49354D01*
X302035Y47535D01*
X303854Y46319D01*
X306000Y45892D01*
X310000D01*
Y51500D01*
D02*
G37*
G36*
X427000Y50000D02*
X425500D01*
Y44500D01*
X431000D01*
Y46000D01*
X427000Y50000D01*
D02*
G37*
G36*
X420500D02*
X419000D01*
X415000Y46000D01*
Y44500D01*
X420500D01*
Y50000D01*
D02*
G37*
G36*
X269108Y50000D02*
X263500D01*
Y40392D01*
X265646Y40819D01*
X267465Y42035D01*
X268681Y43854D01*
X269108Y46000D01*
Y50000D01*
D02*
G37*
G36*
X431000Y39500D02*
X425500D01*
Y34000D01*
X427000D01*
X431000Y38000D01*
Y39500D01*
D02*
G37*
G36*
X420500D02*
X415000D01*
Y38000D01*
X419000Y34000D01*
X420500D01*
Y39500D01*
D02*
G37*
G36*
X354056Y39500D02*
X343500D01*
Y31944D01*
X347500D01*
X349197Y32167D01*
X350778Y32822D01*
X352136Y33864D01*
X353178Y35222D01*
X353833Y36803D01*
X354056Y38500D01*
Y39500D01*
D02*
G37*
G36*
X338500D02*
X327944D01*
Y38500D01*
X328167Y36803D01*
X328822Y35222D01*
X329864Y33864D01*
X331222Y32822D01*
X332803Y32167D01*
X334500Y31944D01*
X338500D01*
Y39500D01*
D02*
G37*
G36*
X247108Y114000D02*
X237500D01*
Y108392D01*
X241500D01*
X243646Y108819D01*
X245465Y110035D01*
X246681Y111854D01*
X247108Y114000D01*
D02*
G37*
G36*
X232500D02*
X222892D01*
X223319Y111854D01*
X224535Y110035D01*
X226354Y108819D01*
X228500Y108392D01*
X232500D01*
Y114000D01*
D02*
G37*
G36*
X62500Y126500D02*
X49927D01*
Y123500D01*
X50219Y121281D01*
X51075Y119213D01*
X52438Y117438D01*
X54213Y116075D01*
X56281Y115219D01*
X58500Y114927D01*
X62500D01*
Y126500D01*
D02*
G37*
G36*
X44571Y124720D02*
X33500D01*
Y109649D01*
X36250D01*
X38404Y109932D01*
X40411Y110764D01*
X42134Y112086D01*
X43456Y113809D01*
X44288Y115816D01*
X44571Y117970D01*
Y124720D01*
D02*
G37*
G36*
X115118Y109500D02*
X102500D01*
Y102882D01*
X109000D01*
X111341Y103348D01*
X113326Y104674D01*
X114652Y106659D01*
X115118Y109000D01*
Y109500D01*
D02*
G37*
G36*
X97500D02*
X84882D01*
Y109000D01*
X85348Y106659D01*
X86674Y104674D01*
X88659Y103348D01*
X91000Y102882D01*
X97500D01*
Y109500D01*
D02*
G37*
%LPD*%
D10*
X562561Y188561D02*
G03*
X570000Y206521I-17960J17960D01*
G01*
X550000Y181000D02*
G03*
X558535Y184536I0J12071D01*
G01*
X505571Y270000D02*
G03*
X493500Y265000I0J-17071D01*
G01*
Y294021D02*
G03*
X500939Y276061I25400J0D01*
G01*
X570000Y230829D02*
G03*
X562561Y248790I-25400J0D01*
G01*
X522561Y142561D02*
G03*
X530000Y160521I-17960J17960D01*
G01*
X558536Y184536D02*
X562561Y188561D01*
X530000Y181000D02*
X550000D01*
X530000Y160521D02*
Y181000D01*
X500939Y276061D02*
X507000Y270000D01*
X505571D02*
X507000D01*
X493500Y294021D02*
Y300000D01*
X493000Y197000D02*
Y214000D01*
X570000Y206521D02*
Y230829D01*
X555000Y256350D02*
X562561Y248790D01*
X493000Y113000D02*
X522561Y142561D01*
X555000Y256350D02*
Y256729D01*
D27*
X529600Y294450D02*
D03*
X555000Y281750D02*
D03*
X529600Y269050D02*
D03*
X555000Y256350D02*
D03*
X529600Y243650D02*
D03*
X555000Y230950D02*
D03*
X529600Y218250D02*
D03*
X555000Y205550D02*
D03*
D29*
X571515Y353000D02*
G03*
X577464Y355465I0J8414D01*
G01*
X581029Y357929D02*
G03*
X577464Y355465I4971J-11000D01*
G01*
X586000Y359000D02*
G03*
X581029Y357929I0J-12071D01*
G01*
X455000Y354000D02*
G03*
X456000Y353000I1000J0D01*
G01*
X452172Y347172D02*
G03*
X455000Y354000I-6828J6828D01*
G01*
X637071Y351929D02*
G03*
X620000Y359000I-17071J-17071D01*
G01*
X645000Y342586D02*
G03*
X644000Y345000I-3414J0D01*
G01*
X325222Y339000D02*
G03*
X315000Y328778I0J-10222D01*
G01*
X311621Y320621D02*
G03*
X315000Y328778I-8157J8157D01*
G01*
X285000Y313000D02*
G03*
X269000Y329000I-16000J0D01*
G01*
X334479Y240000D02*
G03*
X352439Y247439I0J25400D01*
G01*
X298657Y307657D02*
G03*
X293000Y294000I13657J-13657D01*
G01*
Y290071D02*
G03*
X298000Y278000I17071J0D01*
G01*
X285000Y312521D02*
G03*
X292439Y294561I25400J0D01*
G01*
X306000Y260000D02*
G03*
X326000Y240000I20000J0D01*
G01*
X306000Y260000D02*
G03*
X298929Y277071I-24142J0D01*
G01*
X150414Y401541D02*
G03*
X150429Y401500I4251J1476D01*
G01*
X120000Y429000D02*
G03*
X140000Y409000I20000J0D01*
G01*
X142977Y408589D02*
G03*
X140000Y409000I-2977J-10589D01*
G01*
X247000Y202000D02*
G03*
X232515Y208000I-14485J-14485D01*
G01*
X253000Y187515D02*
G03*
X247000Y202000I-20485J0D01*
G01*
X213000Y329000D02*
G03*
X194996Y310996I0J-18004D01*
G01*
X181000Y291000D02*
G03*
X194996Y304996I0J13996D01*
G01*
X595000Y439016D02*
G03*
X594921Y439887I-5000J-16D01*
G01*
D02*
G03*
X605796Y415619I55079J10114D01*
G01*
X594074Y447117D02*
G03*
X594921Y439887I55926J2883D01*
G01*
X594074Y447121D02*
G03*
X592606Y450394I-4992J-274D01*
G01*
X594074Y447117D02*
G03*
X594074Y447121I-4993J-270D01*
G01*
X590000Y385829D02*
G03*
X592000Y381000I6829J0D01*
G01*
X605796Y415619D02*
G03*
X614058Y407057I44204J34381D01*
G01*
X614059Y407055D02*
G03*
X614058Y407056I-3196J-3845D01*
G01*
X614083Y407035D02*
G03*
X614059Y407055I-3220J-3825D01*
G01*
X614841Y406239D02*
G03*
X614083Y407035I-3978J-3029D01*
G01*
X620000Y390895D02*
G03*
X614841Y406239I-25400J0D01*
G01*
X82479Y358000D02*
G03*
X100440Y365439I0J25400D01*
G01*
X74900Y305983D02*
G03*
X65000Y301600I722J-15005D01*
G01*
X75623Y306000D02*
G03*
X74900Y305983I0J-15022D01*
G01*
X46343Y363657D02*
G03*
X60000Y358000I13657J13657D01*
G01*
X85242Y210242D02*
G03*
X81000Y199990I10269J-10252D01*
G01*
X29939Y319340D02*
G03*
X22500Y301379I17960J-17960D01*
G01*
Y227621D02*
G03*
X29939Y209660I25400J0D01*
G01*
X96000Y243000D02*
G03*
X91389Y254131I-15742J0D01*
G01*
X91875Y243000D02*
G03*
X81000Y232125I0J-10875D01*
G01*
X87000Y261349D02*
G03*
X88996Y256524I6828J0D01*
G01*
D02*
G03*
X89000Y256521I4832J4825D01*
G01*
X76294Y213295D02*
G03*
X81000Y224665I-11386J11371D01*
G01*
X76287Y213287D02*
G03*
X76294Y213295I-11378J11378D01*
G01*
X85250Y210250D02*
G03*
X85242Y210242I10260J-10260D01*
G01*
X178000Y451000D02*
G03*
X173731Y457577I-7200J0D01*
G01*
X171184Y460207D02*
G03*
X173731Y457577I4616J1921D01*
G01*
X440000Y300000D02*
G03*
X429000Y289000I0J-11000D01*
G01*
Y281000D02*
G03*
X415000Y267000I0J-14000D01*
G01*
X424000Y197000D02*
G03*
X415000Y188000I0J-9000D01*
G01*
X407561Y169561D02*
G03*
X415000Y187521I-17960J17960D01*
G01*
X397500Y108500D02*
G03*
X400000Y114536I-6036J6036D01*
G01*
X389500Y108500D02*
G03*
X378000Y97000I0J-11500D01*
G01*
X371000Y90000D02*
G03*
X378000Y97000I0J7000D01*
G01*
X666000Y317800D02*
G03*
X667500Y316300I1500J0D01*
G01*
X150000Y460400D02*
G03*
X145400Y465000I-4600J0D01*
G01*
X165000Y406000D02*
G03*
X152000Y419000I-13000J0D01*
G01*
X146204Y407159D02*
G03*
X146686Y406734I3540J3531D01*
G01*
X146204Y407159D02*
G03*
X143604Y408459I-3204J-3159D01*
G01*
X142977Y408589D02*
G03*
X143604Y408459I1328J4820D01*
G01*
X150414Y401541D02*
G03*
X146686Y406734I-10414J-3541D01*
G01*
X645000Y216721D02*
G03*
X652439Y198761I25400J0D01*
G01*
X456000Y353000D02*
X571515D01*
X586000Y359000D02*
X592000D01*
X613000D01*
X637071Y351929D02*
X644000Y345000D01*
X325222Y339000D02*
X335000D01*
X316000Y393812D02*
Y418000D01*
X315000Y328778D02*
Y346260D01*
X298657Y307657D02*
X311621Y320621D01*
X285000Y312521D02*
Y313000D01*
X352439Y247439D02*
X452172Y347172D01*
X645000Y251000D02*
Y342586D01*
X327000Y240000D02*
X334479D01*
X292439Y294561D02*
X293000Y294000D01*
Y290071D02*
Y294000D01*
X298000Y278000D02*
X298929Y277071D01*
X326000Y240000D02*
X327000D01*
X150429Y401500D02*
X153500D01*
X213000Y329000D02*
X269000D01*
X150429Y401500D02*
X150429D01*
X120000Y429000D02*
Y465000D01*
X253000Y167000D02*
Y187515D01*
X216000Y208000D02*
X232515D01*
X194996Y304996D02*
Y310996D01*
X180000Y291000D02*
X181000D01*
X161000Y34000D02*
Y53000D01*
X351000Y454000D02*
X373000D01*
X315000Y392812D02*
X316000Y393812D01*
X315000Y392000D02*
Y392812D01*
X588647Y454353D02*
X592606Y450394D01*
X585000Y458000D02*
X588647Y454353D01*
X590000Y385829D02*
Y420000D01*
X620000Y381000D02*
Y390895D01*
X100440Y365439D02*
X105000Y370000D01*
X82000Y358000D02*
X82479D01*
X65000Y301600D02*
Y330000D01*
X75623Y306000D02*
X87000D01*
X43000Y367000D02*
X46343Y363657D01*
X43000Y330000D02*
Y367000D01*
X81000Y189000D02*
Y199990D01*
X29939Y319340D02*
X39600Y329000D01*
X29939Y209660D02*
X39600Y200000D01*
X22500Y227621D02*
Y301379D01*
X81000Y224665D02*
Y232125D01*
X91875Y243000D02*
X96000D01*
X87000Y261349D02*
Y270000D01*
X89000Y256521D02*
X91389Y254131D01*
X71574Y208574D02*
X76287Y213287D01*
X85250Y210250D02*
X96000Y221000D01*
X71574Y205386D02*
Y208574D01*
X65000Y200000D02*
X66188D01*
X71574Y205386D01*
X170800Y461129D02*
X171184Y460207D01*
X170800Y462128D02*
Y465000D01*
X178000Y441000D02*
Y451000D01*
X170800Y462128D02*
X170800Y461129D01*
X440000Y300000D02*
X471500D01*
X429000Y281000D02*
Y289000D01*
X424000Y197000D02*
X429000D01*
X415000Y252282D02*
Y267000D01*
Y187521D02*
Y188000D01*
Y226000D01*
X404000Y166000D02*
X407561Y169561D01*
X400000Y114536D02*
Y122500D01*
X389500Y108500D02*
X397500D01*
X353000Y90000D02*
X371000D01*
X347500D02*
X353000D01*
X225000Y52500D02*
X239000D01*
X666000Y317800D02*
Y345000D01*
X315000Y346260D02*
X315000Y356000D01*
X150000Y441000D02*
Y460400D01*
Y419000D02*
X152000D01*
X151000Y398000D02*
X153500Y401500D01*
X151000Y395000D02*
Y398000D01*
Y377000D02*
Y395000D01*
X153500Y397500D02*
X153500Y397500D01*
X151000Y395000D02*
X153500Y397500D01*
X645000Y216721D02*
Y229000D01*
X652439Y198761D02*
X667500Y183700D01*
D30*
X316000Y418000D02*
G03*
X315000Y419000I-1000J0D01*
G01*
X278500D02*
G03*
X277500Y418000I0J-1000D01*
G01*
X315000Y328778D02*
G03*
X306278Y337500I-8722J0D01*
G01*
X336000Y218635D02*
G03*
X338883Y209467I16017J0D01*
G01*
X336000Y231000D02*
G03*
X327000Y240000I-9000J0D01*
G01*
X342500Y202942D02*
G03*
X340691Y207309I-6175J0D01*
G01*
X338883Y209467D02*
G03*
X340691Y207309I13135J9167D01*
G01*
X270000Y138000D02*
G03*
X271207Y137500I1207J1207D01*
G01*
X135000Y328000D02*
G03*
X125560Y325117I0J-16899D01*
G01*
X267500Y295000D02*
G03*
X272500Y290000I5000J0D01*
G01*
X265071Y138000D02*
G03*
X253008Y133008I0J-17071D01*
G01*
X325600Y382500D02*
G03*
X351000Y407900I0J25400D01*
G01*
X262500Y295000D02*
G03*
X272500Y285000I10000J0D01*
G01*
X284000Y273500D02*
G03*
X272500Y285000I-11500J0D01*
G01*
X284000Y237071D02*
G03*
X289000Y225000I17071J0D01*
G01*
X297000Y206479D02*
G03*
X289561Y224440I-25400J0D01*
G01*
X262500Y301988D02*
G03*
X262500Y302000I-3000J0D01*
G01*
X252500Y291021D02*
G03*
X259939Y273060I25400J0D01*
G01*
X312540Y222019D02*
G03*
X313521Y222000I981J25381D01*
G01*
X295560Y229440D02*
G03*
X312540Y222019I17960J17960D01*
G01*
Y222019D02*
G03*
X312500Y221379I5081J-640D01*
G01*
X123058Y323058D02*
G03*
X123050Y323050I11942J-11957D01*
G01*
X125560Y325117D02*
G03*
X123058Y323058I9441J-14017D01*
G01*
X126002Y301002D02*
G03*
X126005Y301005I-7252J7258D01*
G01*
X118750Y298000D02*
G03*
X126002Y301002I0J10260D01*
G01*
X165000Y372500D02*
G03*
X150000Y357500I0J-15000D01*
G01*
X142000Y306000D02*
G03*
X150000Y314000I0J8000D01*
G01*
X165000Y367500D02*
G03*
X155000Y357500I0J-10000D01*
G01*
X144000Y258000D02*
G03*
X155000Y269000I0J11000D01*
G01*
X335000Y90000D02*
G03*
X332803Y95303I-7500J0D01*
G01*
X413400Y364000D02*
G03*
X400000Y350600I0J-13400D01*
G01*
Y399400D02*
G03*
X413400Y386000I13400J0D01*
G01*
X262500Y429132D02*
G03*
X262715Y429807I-2731J1241D01*
G01*
X275000Y440000D02*
G03*
X262715Y429807I0J-12500D01*
G01*
X279988Y440000D02*
G03*
X280000Y440000I0J3000D01*
G01*
X275000Y435000D02*
G03*
X267500Y427500I0J-7500D01*
G01*
X400011Y163364D02*
G03*
X404000Y166000I-4460J11086D01*
G01*
X395550Y162500D02*
G03*
X400011Y163364I0J11950D01*
G01*
X400000Y122500D02*
G03*
X395000Y127500I-5000J0D01*
G01*
X353000Y90000D02*
G03*
X357500Y94500I0J4500D01*
G01*
X416940Y125061D02*
G03*
X398979Y132500I-17960J-17960D01*
G01*
X288500D02*
G03*
X285000Y129000I0J-3500D01*
G01*
Y112243D02*
G03*
X288000Y105000I10243J0D01*
G01*
X297000Y113414D02*
G03*
X298000Y111000I3414J0D01*
G01*
X392500Y172500D02*
G03*
X405000Y185000I0J12500D01*
G01*
X392500Y177500D02*
G03*
X400000Y185000I0J7500D01*
G01*
X298000Y397500D02*
G03*
X300000Y399500I0J2000D01*
G01*
X202500Y418000D02*
G03*
X201500Y419000I-1000J0D01*
G01*
X265000Y192929D02*
G03*
X260000Y205000I-17071J0D01*
G01*
X265000Y178500D02*
G03*
X286000Y157500I21000J0D01*
G01*
X244826Y220174D02*
G03*
X238000Y223000I-6826J-6830D01*
G01*
X244828Y220172D02*
G03*
X244826Y220174I-6828J-6828D01*
G01*
X262500Y232979D02*
G03*
X256402Y249489I-25400J0D01*
G01*
X247500Y268912D02*
G03*
X254939Y250952I25400J0D01*
G01*
X242500Y257864D02*
G03*
X247000Y247000I15364J0D01*
G01*
X254000Y230100D02*
G03*
X247000Y247000I-23900J0D01*
G01*
X280000Y180000D02*
G03*
X287500Y172500I7500J0D01*
G01*
X270000Y246757D02*
G03*
X267000Y254000I-10243J0D01*
G01*
X275000Y180000D02*
G03*
X287500Y167500I12500J0D01*
G01*
X275000Y253757D02*
G03*
X272000Y261000I-10243J0D01*
G01*
X270000Y180000D02*
G03*
X287500Y162500I17500J0D01*
G01*
X257500Y294999D02*
G03*
X260988Y285384I15000J1D01*
G01*
X253008Y133008D02*
G03*
X253000Y133000I12063J-12079D01*
G01*
X239308Y138500D02*
G03*
X255000Y145000I0J22192D01*
G01*
X261036Y147500D02*
G03*
X255000Y145000I0J-8536D01*
G01*
Y155000D02*
G03*
X239308Y161500I-15692J-15692D01*
G01*
X255000Y155000D02*
G03*
X261036Y152500I6036J6036D01*
G01*
X210000Y125600D02*
G03*
X196600Y139000I-13400J0D01*
G01*
Y161000D02*
G03*
X210000Y174400I0J13400D01*
G01*
X215460Y168939D02*
G03*
X233421Y161500I17960J17960D01*
G01*
X233421Y138500D02*
G03*
X215461Y131060I0J-25400D01*
G01*
X318000Y365000D02*
G03*
X327657Y361000I9657J9657D01*
G01*
X318000Y365000D02*
G03*
X311964Y367500I-6036J-6036D01*
G01*
X394539Y356061D02*
G03*
X376579Y363500I-17960J-17960D01*
G01*
X355000Y370000D02*
G03*
X370692Y363500I15692J15692D01*
G01*
X355000Y370000D02*
G03*
X348964Y372500I-6036J-6036D01*
G01*
X376579Y386500D02*
G03*
X394539Y393940I0J25400D01*
G01*
X370692Y386500D02*
G03*
X355000Y380000I0J-22192D01*
G01*
X348964Y377500D02*
G03*
X355000Y380000I0J8536D01*
G01*
X312500Y76000D02*
G03*
X320000Y83500I0J7500D01*
G01*
X322197Y95303D02*
G03*
X322500Y96606I-2697J1315D01*
G01*
X322197Y95303D02*
G03*
X320000Y90000I5303J-5303D01*
G01*
X332500Y96618D02*
G03*
X332803Y95303I3000J0D01*
G01*
X426117Y149032D02*
G03*
X425102Y151484I-3468J0D01*
G01*
X426117Y147176D02*
G03*
X428446Y141554I7950J0D01*
G01*
X425102Y151484D02*
G03*
X422649Y152500I-2452J-2452D01*
G01*
X428446Y168446D02*
G03*
X426117Y162824I5621J-5621D01*
G01*
X427117Y233032D02*
G03*
X426102Y235484I-3468J0D01*
G01*
D02*
G03*
X423649Y236500I-2452J-2452D01*
G01*
X427117Y231176D02*
G03*
X429446Y225554I7950J0D01*
G01*
X416000Y236500D02*
G03*
X405000Y225500I0J-11000D01*
G01*
X429446Y252446D02*
G03*
X427117Y246824I5621J-5621D01*
G01*
X416000Y241500D02*
G03*
X400000Y225500I0J-16000D01*
G01*
X454883Y246824D02*
G03*
X452554Y252446I-7950J0D01*
G01*
Y225554D02*
G03*
X454883Y231176I-5621J5621D01*
G01*
X468117Y147176D02*
G03*
X470446Y141554I7950J0D01*
G01*
Y168446D02*
G03*
X468117Y162824I5621J-5621D01*
G01*
X453883Y160968D02*
G03*
X454898Y158516I3468J0D01*
G01*
D02*
G03*
X457351Y157500I2452J2452D01*
G01*
X464649D02*
G03*
X467102Y158516I0J3468D01*
G01*
X457351Y152500D02*
G03*
X454898Y151484I0J-3468D01*
G01*
D02*
G03*
X453883Y149032I2452J-2452D01*
G01*
X467102Y151484D02*
G03*
X464649Y152500I-2452J-2452D01*
G01*
X468117Y149032D02*
G03*
X467102Y151484I-3468J0D01*
G01*
X451554Y141554D02*
G03*
X453883Y147176I-5621J5621D01*
G01*
Y162824D02*
G03*
X451554Y168446I-7950J0D01*
G01*
X467102Y158516D02*
G03*
X468117Y160968I-2452J2452D01*
G01*
X458351Y236500D02*
G03*
X455899Y235484I0J-3468D01*
G01*
D02*
G03*
X454883Y233032I2452J-2452D01*
G01*
X455899Y242516D02*
G03*
X458351Y241500I2452J2452D01*
G01*
X454883Y244968D02*
G03*
X455899Y242516I3468J0D01*
G01*
X426102D02*
G03*
X427117Y244968I-2452J2452D01*
G01*
X423649Y241500D02*
G03*
X426102Y242516I0J3468D01*
G01*
X528450Y230950D02*
G03*
X515000Y217500I0J-13450D01*
G01*
X505000Y152500D02*
G03*
X515000Y162500I0J10000D01*
G01*
X499351Y152500D02*
G03*
X496898Y151484I0J-3468D01*
G01*
D02*
G03*
X495883Y149032I2452J-2452D01*
G01*
X493554Y141554D02*
G03*
X495883Y147176I-5621J5621D01*
G01*
X516440Y256439D02*
G03*
X510000Y240893I15546J-15546D01*
G01*
X495883Y162824D02*
G03*
X493554Y168446I-7950J0D01*
G01*
X496898Y158516D02*
G03*
X499351Y157500I2452J2452D01*
G01*
X495883Y160968D02*
G03*
X496898Y158516I3468J0D01*
G01*
X505000Y157500D02*
G03*
X510000Y162500I0J5000D01*
G01*
X425102Y158516D02*
G03*
X426117Y160968I-2452J2452D01*
G01*
X422649Y157500D02*
G03*
X425102Y158516I0J3468D01*
G01*
X300000Y419000D02*
X315000D01*
X278500D02*
X300000D01*
X298000Y337500D02*
X306278D01*
X336000Y218635D02*
Y222000D01*
Y231000D01*
X342500Y193000D02*
Y202942D01*
X272500Y290000D02*
X290000D01*
X271207Y137500D02*
X297000D01*
X135000Y328000D02*
Y341000D01*
X267500Y295000D02*
Y302000D01*
X265071Y138000D02*
X270000D01*
X298000Y382500D02*
X325600D01*
X351000Y407900D02*
Y427000D01*
X194996Y302000D02*
X202500D01*
X284000Y237071D02*
Y260000D01*
Y273500D01*
X289000Y225000D02*
X289561Y224440D01*
X297000Y177500D02*
Y206479D01*
X262500Y295000D02*
Y301988D01*
X262500Y302000D02*
Y302000D01*
X259939Y273060D02*
X272000Y261000D01*
X260988Y285383D02*
X267000Y278000D01*
X295000Y230000D02*
X295560Y229440D01*
X312500Y193000D02*
Y221379D01*
X313521Y222000D02*
X314000D01*
X115500Y315500D02*
X123050Y323050D01*
X114500Y298000D02*
X118750D01*
X126005Y301005D02*
X131000Y306000D01*
X113000Y315500D02*
X115500D01*
X135000Y306000D02*
X142000D01*
X131000D02*
X135000D01*
X113000Y296500D02*
X114500Y298000D01*
X134750Y279750D02*
X135000Y280000D01*
X113000Y279500D02*
X113250Y279750D01*
X134750D01*
X135000Y258000D02*
X144000D01*
X132593Y260407D02*
X135000Y258000D01*
X113093Y260407D02*
X132593D01*
X113000Y260500D02*
X113093Y260407D01*
X165000Y372500D02*
X182000D01*
X150000Y314000D02*
Y357500D01*
X165000Y367500D02*
X182000D01*
X155000Y269000D02*
Y357500D01*
X335000Y79348D02*
Y90000D01*
Y79348D02*
X340348Y74000D01*
X341000D01*
X413400Y386000D02*
X420000D01*
X413400Y364000D02*
X420000D01*
X257500Y444000D02*
X257500Y444000D01*
Y418000D02*
Y444000D01*
X262500Y418000D02*
Y429132D01*
X280000Y440000D02*
X522000D01*
X275000Y440000D02*
X279988D01*
X275000Y435000D02*
X295000D01*
Y435000D02*
Y435000D01*
X267500Y418000D02*
Y427500D01*
X295000Y435000D02*
X540000Y435000D01*
X543000Y438000D01*
X383000Y162500D02*
X395550D01*
X383000Y127500D02*
X395000D01*
X416940Y125061D02*
X425000Y117000D01*
X383000Y132500D02*
X398979D01*
X347500Y90000D02*
Y107000D01*
X222500Y276000D02*
Y302000D01*
X135000Y280000D02*
Y293000D01*
X288500Y132500D02*
X297000D01*
X285000Y112243D02*
Y129000D01*
X297000Y113414D02*
Y122500D01*
X357500Y94500D02*
Y107000D01*
X429446Y225554D02*
X430000Y225000D01*
X429446Y252446D02*
X430000Y253000D01*
X400000Y185000D02*
Y225500D01*
X522000Y440000D02*
X525000Y443000D01*
X300000Y399500D02*
Y419000D01*
X178000D02*
X201500D01*
X153500Y397500D02*
X182000D01*
X347500Y193000D02*
X352500D01*
X342500D02*
X347500D01*
X265000Y178500D02*
Y192929D01*
X244828Y220172D02*
X260000Y205000D01*
X244826Y220174D02*
X244828Y220172D01*
X286000Y157500D02*
X297000D01*
X237500Y227000D02*
Y302000D01*
X280000Y180000D02*
Y219757D01*
X262500Y220000D02*
Y232979D01*
X256402Y249489D02*
X256402Y249489D01*
X254939Y250952D02*
X256402Y249489D01*
X247500Y268912D02*
Y302000D01*
X242500Y257864D02*
Y302000D01*
X254000Y230000D02*
Y230100D01*
X287500Y172500D02*
X297000D01*
X270000Y243000D02*
Y246757D01*
X252500Y291021D02*
Y302000D01*
X275000Y180000D02*
Y253757D01*
X287500Y167500D02*
X297000D01*
X270000Y243000D02*
X270000Y180000D01*
Y180000D02*
Y180000D01*
X287500Y162500D02*
X297000Y162500D01*
X287500Y162500D02*
X287500D01*
X257500Y295500D02*
X257500Y294999D01*
X260988Y285384D02*
X260988Y285383D01*
X257500Y295500D02*
Y302000D01*
X261036Y147500D02*
X297000D01*
X190000Y139000D02*
X196600D01*
X210000Y125600D02*
X215461Y131060D01*
X210000Y174400D02*
X215460Y168939D01*
X190000Y161000D02*
X196600D01*
X235000Y138500D02*
X239308D01*
X235000Y161500D02*
X239308D01*
X261036Y152500D02*
X297000D01*
X327657Y361000D02*
X335000D01*
X298000Y367500D02*
X311964D01*
X375000Y363500D02*
X376579D01*
X370692Y363500D02*
X375000D01*
X394539Y356061D02*
X400000Y350600D01*
X375000Y386500D02*
X376579D01*
X370692D02*
X375000D01*
X298000Y372500D02*
X348964D01*
X394539Y393940D02*
X400000Y399400D01*
X347500Y107000D02*
X347500D01*
X320000Y83500D02*
Y90000D01*
X322500Y96606D02*
Y107000D01*
Y96606D02*
Y96606D01*
X332500Y96618D02*
Y97500D01*
X332500Y107000D01*
Y107000D01*
X327500Y90000D02*
Y107000D01*
X383000Y142500D02*
Y142500D01*
Y142500D02*
X400000D01*
X426117Y147176D02*
Y149032D01*
X428446Y141554D02*
X429000Y141000D01*
X383000Y152500D02*
X422649D01*
X428446Y168446D02*
X429000Y169000D01*
X426117Y160968D02*
Y162824D01*
X427117Y231176D02*
Y233032D01*
X416000Y236500D02*
X423649D01*
X405000Y185000D02*
Y225500D01*
X383000Y172500D02*
X392500D01*
X427117Y244968D02*
Y246824D01*
X416000Y241500D02*
X423649D01*
X383000Y177500D02*
X392500D01*
X451000Y253000D02*
Y281000D01*
Y197000D02*
Y225000D01*
X470446Y141554D02*
X471000Y141000D01*
Y113000D02*
Y141000D01*
X470446Y168446D02*
X471000Y169000D01*
Y197000D01*
X453883Y160968D02*
Y162824D01*
X468117Y160968D02*
Y162824D01*
X457351Y157500D02*
X464649D01*
X453883Y147176D02*
Y149032D01*
X468117Y147176D02*
Y149032D01*
X457351Y152500D02*
X464649D01*
X451000Y141000D02*
X451554Y141554D01*
X451000Y169000D02*
X451554Y168446D01*
X458351Y236500D02*
X468750D01*
X454883Y231176D02*
Y233032D01*
Y244968D02*
Y246824D01*
X458351Y241500D02*
X468750D01*
X528450Y230950D02*
X555000D01*
X515000Y217500D02*
X515000Y182071D01*
X499351Y152500D02*
X505000D01*
X495883Y147176D02*
Y149032D01*
X493000Y141000D02*
X493554Y141554D01*
X510000Y180000D02*
Y240893D01*
X495883Y160968D02*
Y162824D01*
X493000Y169000D02*
X493554Y168446D01*
X499351Y157500D02*
X505000D01*
X520000Y260000D02*
X529600Y269050D01*
X516440Y256439D02*
X520000Y260000D01*
X510000Y180000D02*
X510000Y165000D01*
X515000Y182071D02*
X515000D01*
X510000Y162500D02*
Y165000D01*
X515000Y162500D02*
Y182071D01*
X383000Y157500D02*
X422649D01*
X298000Y377500D02*
X348964D01*
X165000Y387500D02*
X182000D01*
D32*
X262000Y91000D02*
G03*
X261000Y90000I0J-1000D01*
G01*
X285000Y91000D02*
G03*
X286000Y90000I1000J0D01*
G01*
X262000Y91000D02*
X285000D01*
X286000Y90000D02*
X312500D01*
D33*
X351000Y454000D02*
D03*
X120000Y465000D02*
D03*
D34*
X325600Y454000D02*
D03*
X145400Y465000D02*
D03*
X196200D02*
D03*
X170800D02*
D03*
D35*
X667500Y290900D02*
D03*
Y316300D02*
D03*
Y209100D02*
D03*
Y183700D02*
D03*
D36*
X618500Y307150D02*
D03*
Y192850D02*
D03*
D37*
X588000Y327450D02*
D03*
Y172550D02*
D03*
D38*
X650000Y450000D02*
D03*
X50000Y50000D02*
D03*
Y450000D02*
D03*
D39*
X377000Y292000D02*
D03*
X423000Y42000D02*
D03*
X412681Y252564D02*
D03*
X455000Y354000D02*
D03*
D40*
X43000Y367000D02*
D03*
D41*
X39600Y301600D02*
D03*
X65000D02*
D03*
X39600Y276200D02*
D03*
X65000D02*
D03*
X39600Y250800D02*
D03*
X65000D02*
D03*
X39600Y225400D02*
D03*
X65000D02*
D03*
X39600Y200000D02*
D03*
D42*
X65000D02*
D03*
D43*
X400000Y350600D02*
D03*
Y399400D02*
D03*
X210000Y125600D02*
D03*
Y174400D02*
D03*
D44*
X650000Y50000D02*
D03*
D45*
X581000Y406000D02*
D03*
X574000Y370000D02*
D03*
X543000Y363000D02*
D03*
X479000Y368000D02*
D03*
X161000Y34000D02*
D03*
X353000Y389000D02*
D03*
X338000Y402000D02*
D03*
X351000Y427000D02*
D03*
X315000Y392000D02*
D03*
X585000Y458000D02*
D03*
X612000Y119000D02*
D03*
X326000Y392000D02*
D03*
X317000Y312000D02*
D03*
X195000Y430000D02*
D03*
X270000Y320000D02*
D03*
X211000D02*
D03*
X531000Y115000D02*
D03*
X540000Y82000D02*
D03*
X505000Y317000D02*
D03*
X549000Y341000D02*
D03*
X397000Y366000D02*
D03*
Y385000D02*
D03*
X267000Y278000D02*
D03*
X295000Y230000D02*
D03*
X439000Y399000D02*
D03*
X481000D02*
D03*
X435000Y345000D02*
D03*
X575000Y440000D02*
D03*
X590000Y420000D02*
D03*
X113890Y411437D02*
D03*
X120000Y370000D02*
D03*
X105000D02*
D03*
X96000Y413000D02*
D03*
X25000Y361000D02*
D03*
X114000Y329000D02*
D03*
X80000Y317000D02*
D03*
X86000Y288000D02*
D03*
X116000Y250000D02*
D03*
X141000Y236000D02*
D03*
X129000D02*
D03*
X218000Y112000D02*
D03*
X121000Y185000D02*
D03*
X117000Y236000D02*
D03*
X114000Y196000D02*
D03*
X163000Y341000D02*
D03*
Y293000D02*
D03*
X49000Y109000D02*
D03*
X361000Y40000D02*
D03*
X321000D02*
D03*
X278000Y449000D02*
D03*
X291000Y410000D02*
D03*
X220000Y446000D02*
D03*
X555000Y440000D02*
D03*
X393000Y412000D02*
D03*
Y337000D02*
D03*
X458000Y311000D02*
D03*
X191000Y180000D02*
D03*
X192000Y111000D02*
D03*
X355000Y355000D02*
D03*
X336000Y325000D02*
D03*
X319000Y276000D02*
D03*
X395000Y305000D02*
D03*
X360000Y270000D02*
D03*
X324865Y251756D02*
D03*
X481000Y426000D02*
D03*
X431000D02*
D03*
X481000Y450000D02*
D03*
X404000Y475000D02*
D03*
X360000D02*
D03*
X475000D02*
D03*
X453000Y450000D02*
D03*
X176000Y405000D02*
D03*
X115000Y350000D02*
D03*
X140000Y365000D02*
D03*
X110000Y445000D02*
D03*
X25000Y328000D02*
D03*
X572000Y307000D02*
D03*
X597000Y204000D02*
D03*
X580000Y220000D02*
D03*
X570000Y255000D02*
D03*
X545000Y245000D02*
D03*
X507023Y283864D02*
D03*
X490000Y225000D02*
D03*
X465000Y215000D02*
D03*
X517770Y339972D02*
D03*
X275000Y53000D02*
D03*
X265000Y35000D02*
D03*
Y70000D02*
D03*
X393000Y40000D02*
D03*
X482000D02*
D03*
X630000Y215000D02*
D03*
X632000Y165000D02*
D03*
X570000Y75000D02*
D03*
X530000Y40000D02*
D03*
X509000Y115000D02*
D03*
X457000Y121000D02*
D03*
X443000D02*
D03*
X537000Y145000D02*
D03*
X562000D02*
D03*
X635000Y288000D02*
D03*
X464000Y340000D02*
D03*
X434000Y310000D02*
D03*
X400000Y276000D02*
D03*
X371000Y247000D02*
D03*
X398000D02*
D03*
X392000Y219000D02*
D03*
X315000Y175000D02*
D03*
X304517Y204614D02*
D03*
X360000Y209000D02*
D03*
X389600Y187521D02*
D03*
X378000Y192000D02*
D03*
X351000Y157000D02*
D03*
X335000Y141000D02*
D03*
X365000Y165000D02*
D03*
Y138000D02*
D03*
Y125000D02*
D03*
X352000D02*
D03*
X337000D02*
D03*
X319000D02*
D03*
X225000Y52500D02*
D03*
X487500Y282500D02*
D03*
X198000Y269000D02*
D03*
X205000Y287000D02*
D03*
X204000Y255000D02*
D03*
X185000D02*
D03*
X277000Y474000D02*
D03*
X269000Y400000D02*
D03*
X200000Y392000D02*
D03*
X280000Y342000D02*
D03*
X212000Y141000D02*
D03*
Y160000D02*
D03*
X330000Y157000D02*
D03*
X345000Y172000D02*
D03*
X315000Y142000D02*
D03*
X135000Y293000D02*
D03*
Y341000D02*
D03*
X404000Y166000D02*
D03*
X530000Y181000D02*
D03*
X543000Y399000D02*
D03*
X329000Y294000D02*
D03*
X374000Y423000D02*
D03*
X372000Y328000D02*
D03*
X543000Y438000D02*
D03*
X525000Y443000D02*
D03*
X165000Y406000D02*
D03*
X237000Y197000D02*
D03*
X262500Y220000D02*
D03*
X254000Y230000D02*
D03*
X283000Y220000D02*
D03*
X267000Y254000D02*
D03*
X151000Y377000D02*
D03*
X163254Y359001D02*
D03*
X288000Y105000D02*
D03*
X253000Y167000D02*
D03*
Y116000D02*
D03*
Y133000D02*
D03*
X298000Y111000D02*
D03*
X315000Y356000D02*
D03*
X507000Y270000D02*
D03*
X470000Y282500D02*
D03*
X369000Y52000D02*
D03*
X312500Y90000D02*
D03*
X327500D02*
D03*
X347500D02*
D03*
X425000Y81000D02*
D03*
X397500Y72500D02*
D03*
X400000Y122500D02*
D03*
Y142500D02*
D03*
X415000Y226000D02*
D03*
X468750Y244000D02*
D03*
Y234000D02*
D03*
X493000Y214000D02*
D03*
X165000Y387500D02*
D03*
X61000Y109000D02*
D03*
X25000Y105000D02*
D03*
X82000Y103000D02*
D03*
X92000Y98000D02*
D03*
X115000Y95000D02*
D03*
X73000Y109000D02*
D03*
D46*
X590000Y120000D02*
G03*
X597071Y102929I24142J0D01*
G01*
X573121Y327450D02*
G03*
X555160Y320010I0J-25400D01*
G01*
X597071Y102929D02*
X650000Y50000D01*
X590000Y120000D02*
Y167722D01*
X573121Y327450D02*
X588000D01*
X529600Y294450D02*
X555160Y320010D01*
D47*
X590000Y167722D02*
G03*
X588000Y172550I-6828J0D01*
G01*
D48*
X395000Y454000D02*
D03*
X373000D02*
D03*
X471500Y265000D02*
D03*
X493500D02*
D03*
X471500Y300000D02*
D03*
X493500D02*
D03*
X429000Y281000D02*
D03*
X451000D02*
D03*
Y253000D02*
D03*
X429000D02*
D03*
X451000Y225000D02*
D03*
X429000D02*
D03*
Y197000D02*
D03*
X451000D02*
D03*
X451000Y169000D02*
D03*
X429000D02*
D03*
X493000Y197000D02*
D03*
X471000D02*
D03*
X493000Y169000D02*
D03*
X471000D02*
D03*
X493000Y141000D02*
D03*
X471000D02*
D03*
X644000Y345000D02*
D03*
X666000D02*
D03*
X183000Y53000D02*
D03*
X161000D02*
D03*
X216000Y223000D02*
D03*
X238000D02*
D03*
X336000Y222000D02*
D03*
X314000D02*
D03*
X306000Y260000D02*
D03*
X284000D02*
D03*
X293000Y294000D02*
D03*
X315000D02*
D03*
X338000Y419000D02*
D03*
X316000D02*
D03*
X256000Y450000D02*
D03*
X234000D02*
D03*
X129000Y395000D02*
D03*
X151000D02*
D03*
X60000Y358000D02*
D03*
X82000D02*
D03*
X134000Y185000D02*
D03*
X156000D02*
D03*
X239000Y90000D02*
D03*
X261000D02*
D03*
X239000Y52500D02*
D03*
X261000D02*
D03*
X471000Y113000D02*
D03*
X493000D02*
D03*
X429000Y141000D02*
D03*
X451000D02*
D03*
X65000Y330000D02*
D03*
X43000D02*
D03*
D49*
X590000Y480000D02*
D03*
X680000Y100000D02*
D03*
X110000Y20000D02*
D03*
X20000Y390000D02*
D03*
D50*
X550000Y120000D02*
D03*
X590000D02*
D03*
D51*
X161000Y216000D02*
D03*
X129000D02*
D03*
D52*
X65000Y161000D02*
D03*
Y129000D02*
D03*
D53*
X341000Y74000D02*
D03*
Y42000D02*
D03*
D54*
X420000Y364000D02*
D03*
Y386000D02*
D03*
X550000Y159000D02*
D03*
Y181000D02*
D03*
X620000Y381000D02*
D03*
Y359000D02*
D03*
X592000Y381000D02*
D03*
Y359000D02*
D03*
X180000Y269000D02*
D03*
Y291000D02*
D03*
X222500Y276000D02*
D03*
Y254000D02*
D03*
X335000Y361000D02*
D03*
Y339000D02*
D03*
X375000Y363500D02*
D03*
Y341500D02*
D03*
Y386500D02*
D03*
Y408500D02*
D03*
X178000Y419000D02*
D03*
Y441000D02*
D03*
X150000Y419000D02*
D03*
Y441000D02*
D03*
X135000Y328000D02*
D03*
Y306000D02*
D03*
Y280000D02*
D03*
Y258000D02*
D03*
X270000Y116000D02*
D03*
Y138000D02*
D03*
X312500Y54000D02*
D03*
Y76000D02*
D03*
X370000Y66000D02*
D03*
Y88000D02*
D03*
X425000Y117000D02*
D03*
Y95000D02*
D03*
X397500Y86500D02*
D03*
Y108500D02*
D03*
X285000Y69000D02*
D03*
Y91000D02*
D03*
X235000Y138500D02*
D03*
Y116500D02*
D03*
X190000Y139000D02*
D03*
Y161000D02*
D03*
X235000Y161500D02*
D03*
Y183500D02*
D03*
X645000Y251000D02*
D03*
Y229000D02*
D03*
X96000Y221000D02*
D03*
Y243000D02*
D03*
Y201000D02*
D03*
Y179000D02*
D03*
D55*
X367500Y193000D02*
D03*
X362500D02*
D03*
X357500D02*
D03*
X352500D02*
D03*
X347500D02*
D03*
X342500D02*
D03*
X337500D02*
D03*
X332500D02*
D03*
X327500D02*
D03*
X322500D02*
D03*
X317500D02*
D03*
X312500D02*
D03*
Y107000D02*
D03*
X317500D02*
D03*
X322500D02*
D03*
X327500D02*
D03*
X332500D02*
D03*
X337500D02*
D03*
X342500D02*
D03*
X347500D02*
D03*
X352500D02*
D03*
X357500D02*
D03*
X362500D02*
D03*
X367500D02*
D03*
D56*
X383000Y122500D02*
D03*
Y127500D02*
D03*
Y132500D02*
D03*
Y137500D02*
D03*
Y142500D02*
D03*
Y147500D02*
D03*
Y152500D02*
D03*
Y157500D02*
D03*
Y162500D02*
D03*
Y167500D02*
D03*
Y172500D02*
D03*
Y177500D02*
D03*
X297000D02*
D03*
Y172500D02*
D03*
Y167500D02*
D03*
Y162500D02*
D03*
Y157500D02*
D03*
Y152500D02*
D03*
Y147500D02*
D03*
Y142500D02*
D03*
Y137500D02*
D03*
Y132500D02*
D03*
Y127500D02*
D03*
Y122500D02*
D03*
D57*
X298000Y332500D02*
D03*
Y337500D02*
D03*
Y322500D02*
D03*
Y327500D02*
D03*
Y352500D02*
D03*
Y342500D02*
D03*
Y347500D02*
D03*
Y357500D02*
D03*
Y372500D02*
D03*
Y362500D02*
D03*
Y367500D02*
D03*
Y377500D02*
D03*
Y392500D02*
D03*
Y397500D02*
D03*
Y382500D02*
D03*
Y387500D02*
D03*
X182000Y322500D02*
D03*
Y327500D02*
D03*
Y332500D02*
D03*
Y337500D02*
D03*
Y342500D02*
D03*
Y347500D02*
D03*
Y357500D02*
D03*
Y352500D02*
D03*
Y372500D02*
D03*
Y362500D02*
D03*
Y367500D02*
D03*
Y387500D02*
D03*
Y392500D02*
D03*
Y377500D02*
D03*
Y382500D02*
D03*
Y397500D02*
D03*
D58*
X272500Y302000D02*
D03*
X277500D02*
D03*
X267500D02*
D03*
X252500D02*
D03*
X257500D02*
D03*
X242500D02*
D03*
X247500D02*
D03*
X262500D02*
D03*
X277500Y418000D02*
D03*
X267500D02*
D03*
X272500D02*
D03*
X252500D02*
D03*
X257500D02*
D03*
X242500D02*
D03*
X247500D02*
D03*
X262500D02*
D03*
X237500Y302000D02*
D03*
X232500D02*
D03*
X217500D02*
D03*
X222500D02*
D03*
X207500D02*
D03*
X212500D02*
D03*
X227500D02*
D03*
X202500D02*
D03*
X237500Y418000D02*
D03*
X227500D02*
D03*
X232500D02*
D03*
X217500D02*
D03*
X222500D02*
D03*
X207500D02*
D03*
X212500D02*
D03*
X202500D02*
D03*
D59*
X113000Y296500D02*
D03*
Y315500D02*
D03*
X87000Y306000D02*
D03*
X113000Y260500D02*
D03*
Y279500D02*
D03*
X87000Y270000D02*
D03*
D60*
X100000Y158000D02*
D03*
Y135000D02*
D03*
Y112000D02*
D03*
D61*
X160000Y135000D02*
D03*
D62*
X31000Y162780D02*
D03*
Y127220D02*
D03*
M02*
