M48
;Layer_Color=9474304
;FILE_FORMAT=4:4
METRIC,LZ
;TYPE=PLATED
T1F00S00C0.4000
T2F00S00C0.5000
T3F00S00C0.7000
T4F00S00C0.9000
T5F00S00C1.1000
T6F00S00C1.6000
T7F00S00C3.3000
T8F00S00C3.4000
%
T01
X00265Y00035
X00275Y00053
X00265Y0007
X00288Y00105
X00298Y00111
X00319Y00125
X00337
X00352
X00365
Y00138
Y00165
X00351Y00157
X0033
X00335Y00141
X00315Y00142
Y00175
X00345Y00172
X0036Y00209
X00378Y00192
X003896Y00187521
X00392Y00219
X00415Y00226
X00398Y00247
X00371
X0036Y0027
X004Y00276
X00395Y00305
X00393Y00337
X00372Y00328
X00336Y00325
X00317Y00312
X00329Y00294
X00319Y00276
X00324865Y00251756
X00295Y0023
X00283Y0022
X002625Y0022
X00254Y0023
X00267Y00254
Y00278
X0027Y0032
X0028Y00342
X00315Y00356
Y00392
X00326
X00338Y00402
X00353Y00389
X00355Y00355
X00397Y00366
Y00385
X00393Y00412
X00439Y00399
X00481
X00479Y00368
X00464Y0034
X00435Y00345
X00434Y0031
X00458Y00311
X0047Y002825
X004875
X00507023Y00283864
X00507Y0027
X00505Y00317
X0051777Y00339972
X00549Y00341
X00543Y00363
Y00399
X00581Y00406
X00574Y0037
X00572Y00307
X0057Y00255
X00545Y00245
X0058Y0022
X00597Y00204
X0063Y00215
X00632Y00165
X00612Y00119
X00562Y00145
X00537
X00531Y00115
X00509
X00457Y00121
X00443
X004Y001225
Y001425
X00404Y00166
X003975Y000725
X00425Y00081
X00393Y0004
X00361
X00369Y00052
X003475Y0009
X003275
X003125
X00321Y0004
X00253Y00116
Y00133
Y00167
X00304517Y00204614
X00465Y00215
X0046875Y00234
Y00244
X0049Y00225
X00493Y00214
X0053Y00181
X0054Y00082
X0057Y00075
X0053Y0004
X00482
X00635Y00288
X00291Y0041
X00269Y004
X002Y00392
X00176Y00405
X00165Y00406
Y003875
X00151Y00377
X0014Y00365
X0012Y0037
X00105
X00115Y0035
X00114Y00329
X00135Y00341
X00163
X00163254Y00359001
X00163Y00293
X00135
X00086Y00288
X0008Y00317
X00025Y00328
Y00361
X0011389Y00411437
X00116Y0025
X00117Y00236
X00129
X00141
X00185Y00255
X00204
X00198Y00269
X00205Y00287
X00211Y0032
X00237Y00197
X00212Y0016
Y00141
X00218Y00112
X00192Y00111
X00191Y0018
X00121Y00185
X00114Y00196
X00115Y00095
X00092Y00098
X00082Y00103
X00073Y00109
X00061
X00049
X00025Y00105
X00161Y00034
X00225Y000525
X0022Y00446
X00195Y0043
X0011Y00445
X00096Y00413
X00278Y00449
X00277Y00474
X0036Y00475
X00404
X00475
X00481Y0045
Y00426
X00431
X00453Y0045
X00525Y00443
X00543Y00438
X00555Y0044
X00575
X00585Y00458
X0059Y0042
X00374Y00423
X00351Y00427
T02
X00423Y00042
X00412681Y00252564
X00377Y00292
X00455Y00354
X00043Y00367
T03
X004Y003506
Y003994
X0021Y001744
Y001256
T04
X005296Y0021825
Y0024365
Y0026905
Y0029445
X00555Y0028175
Y0025635
Y0023095
Y0020555
T05
X006675Y001837
Y002091
Y002909
Y003163
X00065Y003016
X000396
Y002762
X00065
Y002508
X000396
Y002254
X00065
Y002
X000396
X0012Y00465
X001454
X001708
X001962
X003256Y00454
X00351
T06
X00588Y0017255
Y0032745
T07
X006185Y0019285
Y0030715
T08
X0065Y0005
X0005
Y0045
X0065
M30
