G04*
G04 #@! TF.GenerationSoftware,Altium Limited,Altium Designer,22.11.1 (43)*
G04*
G04 Layer_Color=16711935*
%FSLAX44Y44*%
%MOMM*%
G71*
G04*
G04 #@! TF.SameCoordinates,DE08DE9B-F6C2-4E1B-A14B-2B9FB2CCB798*
G04*
G04*
G04 #@! TF.FilePolarity,Negative*
G04*
G01*
G75*
G04:AMPARAMS|DCode=16|XSize=2.2mm|YSize=2.2mm|CornerRadius=0.6mm|HoleSize=0mm|Usage=FLASHONLY|Rotation=270.000|XOffset=0mm|YOffset=0mm|HoleType=Round|Shape=RoundedRectangle|*
%AMROUNDEDRECTD16*
21,1,2.2000,1.0000,0,0,270.0*
21,1,1.0000,2.2000,0,0,270.0*
1,1,1.2000,-0.5000,-0.5000*
1,1,1.2000,-0.5000,0.5000*
1,1,1.2000,0.5000,0.5000*
1,1,1.2000,0.5000,-0.5000*
%
%ADD16ROUNDEDRECTD16*%
%ADD17C,2.2000*%
%ADD18C,2.0000*%
%ADD19C,1.6000*%
%ADD20C,3.5000*%
%ADD21C,2.8000*%
%ADD22C,1.4000*%
G04:AMPARAMS|DCode=23|XSize=2.2mm|YSize=2.2mm|CornerRadius=0.6mm|HoleSize=0mm|Usage=FLASHONLY|Rotation=0.000|XOffset=0mm|YOffset=0mm|HoleType=Round|Shape=RoundedRectangle|*
%AMROUNDEDRECTD23*
21,1,2.2000,1.0000,0,0,0.0*
21,1,1.0000,2.2000,0,0,0.0*
1,1,1.2000,0.5000,-0.5000*
1,1,1.2000,-0.5000,-0.5000*
1,1,1.2000,-0.5000,0.5000*
1,1,1.2000,0.5000,0.5000*
%
%ADD23ROUNDEDRECTD23*%
G04:AMPARAMS|DCode=24|XSize=1.2mm|YSize=1.2mm|CornerRadius=0mm|HoleSize=0mm|Usage=FLASHONLY|Rotation=90.000|XOffset=0mm|YOffset=0mm|HoleType=Round|Shape=Octagon|*
%AMOCTAGOND24*
4,1,8,0.3000,0.6000,-0.3000,0.6000,-0.6000,0.3000,-0.6000,-0.3000,-0.3000,-0.6000,0.3000,-0.6000,0.6000,-0.3000,0.6000,0.3000,0.3000,0.6000,0.0*
%
%ADD24OCTAGOND24*%

%ADD25C,7.2000*%
G04:AMPARAMS|DCode=26|XSize=7.2mm|YSize=7.2mm|CornerRadius=1.85mm|HoleSize=0mm|Usage=FLASHONLY|Rotation=0.000|XOffset=0mm|YOffset=0mm|HoleType=Round|Shape=RoundedRectangle|*
%AMROUNDEDRECTD26*
21,1,7.2000,3.5000,0,0,0.0*
21,1,3.5000,7.2000,0,0,0.0*
1,1,3.7000,1.7500,-1.7500*
1,1,3.7000,-1.7500,-1.7500*
1,1,3.7000,-1.7500,1.7500*
1,1,3.7000,1.7500,1.7500*
%
%ADD26ROUNDEDRECTD26*%
G04:AMPARAMS|DCode=27|XSize=1.2mm|YSize=1.2mm|CornerRadius=0mm|HoleSize=0mm|Usage=FLASHONLY|Rotation=0.000|XOffset=0mm|YOffset=0mm|HoleType=Round|Shape=Octagon|*
%AMOCTAGOND27*
4,1,8,0.6000,-0.3000,0.6000,0.3000,0.3000,0.6000,-0.3000,0.6000,-0.6000,0.3000,-0.6000,-0.3000,-0.3000,-0.6000,0.3000,-0.6000,0.6000,-0.3000,0.0*
%
%ADD27OCTAGOND27*%

G04:AMPARAMS|DCode=60|XSize=2mm|YSize=1.2mm|CornerRadius=0.35mm|HoleSize=0mm|Usage=FLASHONLY|Rotation=90.000|XOffset=0mm|YOffset=0mm|HoleType=Round|Shape=RoundedRectangle|*
%AMROUNDEDRECTD60*
21,1,2.0000,0.5000,0,0,90.0*
21,1,1.3000,1.2000,0,0,90.0*
1,1,0.7000,0.2500,0.6500*
1,1,0.7000,0.2500,-0.6500*
1,1,0.7000,-0.2500,-0.6500*
1,1,0.7000,-0.2500,0.6500*
%
%ADD60ROUNDEDRECTD60*%
G04:AMPARAMS|DCode=61|XSize=2mm|YSize=1.2mm|CornerRadius=0.35mm|HoleSize=0mm|Usage=FLASHONLY|Rotation=180.000|XOffset=0mm|YOffset=0mm|HoleType=Round|Shape=RoundedRectangle|*
%AMROUNDEDRECTD61*
21,1,2.0000,0.5000,0,0,180.0*
21,1,1.3000,1.2000,0,0,180.0*
1,1,0.7000,-0.6500,0.2500*
1,1,0.7000,0.6500,0.2500*
1,1,0.7000,0.6500,-0.2500*
1,1,0.7000,-0.6500,-0.2500*
%
%ADD61ROUNDEDRECTD61*%
%ADD62O,1.8000X0.5000*%
%ADD63O,0.5000X1.8000*%
G04:AMPARAMS|DCode=64|XSize=3.8mm|YSize=2.2mm|CornerRadius=0.6mm|HoleSize=0mm|Usage=FLASHONLY|Rotation=270.000|XOffset=0mm|YOffset=0mm|HoleType=Round|Shape=RoundedRectangle|*
%AMROUNDEDRECTD64*
21,1,3.8000,1.0000,0,0,270.0*
21,1,2.6000,2.2000,0,0,270.0*
1,1,1.2000,-0.5000,-1.3000*
1,1,1.2000,-0.5000,1.3000*
1,1,1.2000,0.5000,1.3000*
1,1,1.2000,0.5000,-1.3000*
%
%ADD64ROUNDEDRECTD64*%
G04:AMPARAMS|DCode=65|XSize=2.2mm|YSize=1.6mm|CornerRadius=0.45mm|HoleSize=0mm|Usage=FLASHONLY|Rotation=180.000|XOffset=0mm|YOffset=0mm|HoleType=Round|Shape=RoundedRectangle|*
%AMROUNDEDRECTD65*
21,1,2.2000,0.7000,0,0,180.0*
21,1,1.3000,1.6000,0,0,180.0*
1,1,0.9000,-0.6500,0.3500*
1,1,0.9000,0.6500,0.3500*
1,1,0.9000,0.6500,-0.3500*
1,1,0.9000,-0.6500,-0.3500*
%
%ADD65ROUNDEDRECTD65*%
G04:AMPARAMS|DCode=66|XSize=0.8mm|YSize=1.3mm|CornerRadius=0.25mm|HoleSize=0mm|Usage=FLASHONLY|Rotation=90.000|XOffset=0mm|YOffset=0mm|HoleType=Round|Shape=RoundedRectangle|*
%AMROUNDEDRECTD66*
21,1,0.8000,0.8000,0,0,90.0*
21,1,0.3000,1.3000,0,0,90.0*
1,1,0.5000,0.4000,0.1500*
1,1,0.5000,0.4000,-0.1500*
1,1,0.5000,-0.4000,-0.1500*
1,1,0.5000,-0.4000,0.1500*
%
%ADD66ROUNDEDRECTD66*%
G04:AMPARAMS|DCode=67|XSize=2.4mm|YSize=2.6mm|CornerRadius=0.65mm|HoleSize=0mm|Usage=FLASHONLY|Rotation=270.000|XOffset=0mm|YOffset=0mm|HoleType=Round|Shape=RoundedRectangle|*
%AMROUNDEDRECTD67*
21,1,2.4000,1.3000,0,0,270.0*
21,1,1.1000,2.6000,0,0,270.0*
1,1,1.3000,-0.6500,-0.5500*
1,1,1.3000,-0.6500,0.5500*
1,1,1.3000,0.6500,0.5500*
1,1,1.3000,0.6500,-0.5500*
%
%ADD67ROUNDEDRECTD67*%
G04:AMPARAMS|DCode=68|XSize=0.5mm|YSize=1.8mm|CornerRadius=0.175mm|HoleSize=0mm|Usage=FLASHONLY|Rotation=90.000|XOffset=0mm|YOffset=0mm|HoleType=Round|Shape=RoundedRectangle|*
%AMROUNDEDRECTD68*
21,1,0.5000,1.4500,0,0,90.0*
21,1,0.1500,1.8000,0,0,90.0*
1,1,0.3500,0.7250,0.0750*
1,1,0.3500,0.7250,-0.0750*
1,1,0.3500,-0.7250,-0.0750*
1,1,0.3500,-0.7250,0.0750*
%
%ADD68ROUNDEDRECTD68*%
G04:AMPARAMS|DCode=69|XSize=0.5mm|YSize=1.8mm|CornerRadius=0.175mm|HoleSize=0mm|Usage=FLASHONLY|Rotation=180.000|XOffset=0mm|YOffset=0mm|HoleType=Round|Shape=RoundedRectangle|*
%AMROUNDEDRECTD69*
21,1,0.5000,1.4500,0,0,180.0*
21,1,0.1500,1.8000,0,0,180.0*
1,1,0.3500,-0.0750,0.7250*
1,1,0.3500,0.0750,0.7250*
1,1,0.3500,0.0750,-0.7250*
1,1,0.3500,-0.0750,-0.7250*
%
%ADD69ROUNDEDRECTD69*%
G04:AMPARAMS|DCode=70|XSize=2.3mm|YSize=3.1mm|CornerRadius=0.625mm|HoleSize=0mm|Usage=FLASHONLY|Rotation=90.000|XOffset=0mm|YOffset=0mm|HoleType=Round|Shape=RoundedRectangle|*
%AMROUNDEDRECTD70*
21,1,2.3000,1.8500,0,0,90.0*
21,1,1.0500,3.1000,0,0,90.0*
1,1,1.2500,0.9250,0.5250*
1,1,1.2500,0.9250,-0.5250*
1,1,1.2500,-0.9250,-0.5250*
1,1,1.2500,-0.9250,0.5250*
%
%ADD70ROUNDEDRECTD70*%
G04:AMPARAMS|DCode=71|XSize=3.8mm|YSize=2.6mm|CornerRadius=0.7mm|HoleSize=0mm|Usage=FLASHONLY|Rotation=270.000|XOffset=0mm|YOffset=0mm|HoleType=Round|Shape=RoundedRectangle|*
%AMROUNDEDRECTD71*
21,1,3.8000,1.2000,0,0,270.0*
21,1,2.4000,2.6000,0,0,270.0*
1,1,1.4000,-0.6000,-1.2000*
1,1,1.4000,-0.6000,1.2000*
1,1,1.4000,0.6000,1.2000*
1,1,1.4000,0.6000,-1.2000*
%
%ADD71ROUNDEDRECTD71*%
G04:AMPARAMS|DCode=72|XSize=1.4mm|YSize=2.6mm|CornerRadius=0.4mm|HoleSize=0mm|Usage=FLASHONLY|Rotation=270.000|XOffset=0mm|YOffset=0mm|HoleType=Round|Shape=RoundedRectangle|*
%AMROUNDEDRECTD72*
21,1,1.4000,1.8000,0,0,270.0*
21,1,0.6000,2.6000,0,0,270.0*
1,1,0.8000,-0.9000,-0.3000*
1,1,0.8000,-0.9000,0.3000*
1,1,0.8000,0.9000,0.3000*
1,1,0.8000,0.9000,-0.3000*
%
%ADD72ROUNDEDRECTD72*%
%ADD73C,3.0000*%
D16*
X580000Y330000D02*
D03*
X130000D02*
D03*
D17*
X580000Y304600D02*
D03*
X130000D02*
D03*
Y253800D02*
D03*
Y228400D02*
D03*
Y279200D02*
D03*
Y177600D02*
D03*
Y152200D02*
D03*
Y203000D02*
D03*
Y126800D02*
D03*
Y101400D02*
D03*
X255400Y345000D02*
D03*
X306200D02*
D03*
X280800D02*
D03*
D18*
X967500Y230900D02*
D03*
Y256300D02*
D03*
Y149100D02*
D03*
Y123700D02*
D03*
D19*
X829600Y234450D02*
D03*
X855000Y221750D02*
D03*
X829600Y209050D02*
D03*
X855000Y196350D02*
D03*
X829600Y183650D02*
D03*
X855000Y170950D02*
D03*
X829600Y158250D02*
D03*
X855000Y145550D02*
D03*
D20*
X918500Y247150D02*
D03*
Y132850D02*
D03*
D21*
X888000Y267450D02*
D03*
Y112550D02*
D03*
D22*
X530000Y240600D02*
D03*
Y289400D02*
D03*
X440000Y50600D02*
D03*
Y99400D02*
D03*
D23*
X230000Y345000D02*
D03*
D24*
X573720Y198720D02*
D03*
X743000Y56000D02*
D03*
X692681Y257564D02*
D03*
X255000Y210000D02*
D03*
D25*
X50000Y50000D02*
D03*
Y330000D02*
D03*
D26*
X950000D02*
D03*
Y50000D02*
D03*
D27*
X165000Y175000D02*
D03*
D60*
X751000Y199000D02*
D03*
X773000D02*
D03*
X403000Y174000D02*
D03*
X425000D02*
D03*
X239000Y275000D02*
D03*
X261000D02*
D03*
X448000Y299000D02*
D03*
X426000D02*
D03*
X366000Y330000D02*
D03*
X344000D02*
D03*
X269000Y176000D02*
D03*
X291000D02*
D03*
X751000Y143000D02*
D03*
X773000D02*
D03*
Y87000D02*
D03*
X751000D02*
D03*
Y115000D02*
D03*
X773000D02*
D03*
X709000Y204000D02*
D03*
X731000D02*
D03*
Y176000D02*
D03*
X709000D02*
D03*
X757000Y171000D02*
D03*
X779000D02*
D03*
X709000Y143000D02*
D03*
X731000D02*
D03*
X541000Y52500D02*
D03*
X519000D02*
D03*
X541000Y90000D02*
D03*
X519000D02*
D03*
X709000Y232000D02*
D03*
X731000D02*
D03*
Y260000D02*
D03*
X709000D02*
D03*
X509000Y192000D02*
D03*
X487000D02*
D03*
X831000Y300000D02*
D03*
X809000D02*
D03*
X448000Y327000D02*
D03*
X426000D02*
D03*
X731000Y115000D02*
D03*
X709000D02*
D03*
X831000Y328000D02*
D03*
X809000D02*
D03*
D61*
X361000Y129000D02*
D03*
Y107000D02*
D03*
X260000Y299000D02*
D03*
Y321000D02*
D03*
X489000Y276000D02*
D03*
Y298000D02*
D03*
Y254000D02*
D03*
Y232000D02*
D03*
X445000Y241000D02*
D03*
Y219000D02*
D03*
X288000Y299000D02*
D03*
Y321000D02*
D03*
X571000Y254000D02*
D03*
Y276000D02*
D03*
X332500Y156000D02*
D03*
Y134000D02*
D03*
X452000Y168000D02*
D03*
Y190000D02*
D03*
X592500Y76000D02*
D03*
Y54000D02*
D03*
X677500Y108500D02*
D03*
Y86500D02*
D03*
X705000Y68000D02*
D03*
Y90000D02*
D03*
X650000Y88000D02*
D03*
Y66000D02*
D03*
X565000Y91000D02*
D03*
Y69000D02*
D03*
X481000Y108500D02*
D03*
Y86500D02*
D03*
X550000Y138000D02*
D03*
Y116000D02*
D03*
X399000Y86000D02*
D03*
Y64000D02*
D03*
X481000Y41500D02*
D03*
Y63500D02*
D03*
X161000Y233000D02*
D03*
Y211000D02*
D03*
X257000Y130000D02*
D03*
Y152000D02*
D03*
X197000Y130000D02*
D03*
Y152000D02*
D03*
X201000Y249000D02*
D03*
Y271000D02*
D03*
X201000Y328000D02*
D03*
Y350000D02*
D03*
X880000Y196000D02*
D03*
Y218000D02*
D03*
Y176000D02*
D03*
Y154000D02*
D03*
X666000Y300000D02*
D03*
Y322000D02*
D03*
X640000Y249000D02*
D03*
Y271000D02*
D03*
X97000Y153000D02*
D03*
Y175000D02*
D03*
X161000Y311000D02*
D03*
Y289000D02*
D03*
D62*
X408000Y212500D02*
D03*
Y217500D02*
D03*
Y202500D02*
D03*
Y207500D02*
D03*
Y232500D02*
D03*
Y222500D02*
D03*
Y227500D02*
D03*
Y237500D02*
D03*
Y252500D02*
D03*
Y242500D02*
D03*
Y247500D02*
D03*
Y257500D02*
D03*
Y272500D02*
D03*
Y277500D02*
D03*
Y262500D02*
D03*
Y267500D02*
D03*
X292000Y202500D02*
D03*
Y207500D02*
D03*
Y212500D02*
D03*
Y217500D02*
D03*
Y222500D02*
D03*
Y227500D02*
D03*
Y237500D02*
D03*
Y232500D02*
D03*
Y252500D02*
D03*
Y242500D02*
D03*
Y247500D02*
D03*
Y267500D02*
D03*
Y272500D02*
D03*
Y257500D02*
D03*
Y262500D02*
D03*
Y277500D02*
D03*
D63*
X382500Y182000D02*
D03*
X387500D02*
D03*
X377500D02*
D03*
X362500D02*
D03*
X367500D02*
D03*
X352500D02*
D03*
X357500D02*
D03*
X372500D02*
D03*
X387500Y298000D02*
D03*
X377500D02*
D03*
X382500D02*
D03*
X362500D02*
D03*
X367500D02*
D03*
X352500D02*
D03*
X357500D02*
D03*
X372500D02*
D03*
X347500Y182000D02*
D03*
X342500D02*
D03*
X327500D02*
D03*
X332500D02*
D03*
X317500D02*
D03*
X322500D02*
D03*
X337500D02*
D03*
X312500D02*
D03*
X347500Y298000D02*
D03*
X337500D02*
D03*
X342500D02*
D03*
X327500D02*
D03*
X332500D02*
D03*
X317500D02*
D03*
X322500D02*
D03*
X312500D02*
D03*
D64*
X890000Y70000D02*
D03*
X850000D02*
D03*
D65*
X621000Y42000D02*
D03*
Y74000D02*
D03*
D66*
X153000Y261000D02*
D03*
X179000Y270500D02*
D03*
Y251500D02*
D03*
X179000Y329500D02*
D03*
Y348500D02*
D03*
X153000Y339000D02*
D03*
D67*
X290000Y64000D02*
D03*
Y96000D02*
D03*
X165000Y64000D02*
D03*
Y96000D02*
D03*
D68*
X577000Y122500D02*
D03*
Y127500D02*
D03*
Y132500D02*
D03*
Y137500D02*
D03*
Y142500D02*
D03*
Y147500D02*
D03*
Y152500D02*
D03*
Y157500D02*
D03*
Y162500D02*
D03*
Y167500D02*
D03*
Y172500D02*
D03*
Y177500D02*
D03*
X663000D02*
D03*
Y172500D02*
D03*
Y167500D02*
D03*
Y162500D02*
D03*
Y157500D02*
D03*
Y152500D02*
D03*
Y147500D02*
D03*
Y142500D02*
D03*
Y137500D02*
D03*
Y132500D02*
D03*
Y127500D02*
D03*
Y122500D02*
D03*
D69*
X647500Y107000D02*
D03*
X642500D02*
D03*
X637500D02*
D03*
X632500D02*
D03*
X627500D02*
D03*
X622500D02*
D03*
X617500D02*
D03*
X612500D02*
D03*
X607500D02*
D03*
X602500D02*
D03*
X597500D02*
D03*
X592500D02*
D03*
Y193000D02*
D03*
X597500D02*
D03*
X602500D02*
D03*
X607500D02*
D03*
X612500D02*
D03*
X617500D02*
D03*
X622500D02*
D03*
X627500D02*
D03*
X632500D02*
D03*
X637500D02*
D03*
X642500D02*
D03*
X647500D02*
D03*
D70*
X61220Y127000D02*
D03*
X96780D02*
D03*
D71*
X257000Y85000D02*
D03*
D72*
X197000Y62000D02*
D03*
Y85000D02*
D03*
Y108000D02*
D03*
D73*
X110000Y20000D02*
D03*
X20000Y270000D02*
D03*
X980000Y100000D02*
D03*
X900000Y360000D02*
D03*
M02*
