G04*
G04 #@! TF.GenerationSoftware,Altium Limited,Altium Designer,22.11.1 (43)*
G04*
G04 Layer_Color=65535*
%FSLAX44Y44*%
%MOMM*%
G71*
G04*
G04 #@! TF.SameCoordinates,8D8AEDD0-DFFB-4D3A-BB57-83E995E82AED*
G04*
G04*
G04 #@! TF.FilePolarity,Positive*
G04*
G01*
G75*
%ADD10C,0.4000*%
%ADD11C,0.2000*%
%ADD12C,0.2500*%
%ADD13C,0.2540*%
%ADD14R,0.8000X0.3000*%
G36*
X878057Y358446D02*
X878886D01*
Y358280D01*
X879218D01*
Y358114D01*
X879550D01*
Y357948D01*
X879882D01*
Y357782D01*
X880213D01*
Y357616D01*
X880379D01*
Y357450D01*
X880545D01*
Y357284D01*
X880711D01*
Y357118D01*
X880877D01*
Y356953D01*
X881043D01*
Y356621D01*
X881208D01*
Y356455D01*
X881374D01*
Y356123D01*
X881540D01*
Y355626D01*
X881706D01*
Y355128D01*
X881872D01*
Y353469D01*
X881706D01*
Y352806D01*
X881540D01*
Y352474D01*
X881374D01*
Y352142D01*
X881208D01*
Y351810D01*
X881043D01*
Y351479D01*
X880877D01*
Y351313D01*
X880711D01*
Y351147D01*
X880545D01*
Y350981D01*
X880379D01*
Y350815D01*
X880213D01*
Y350649D01*
X879882D01*
Y350483D01*
X879550D01*
Y350317D01*
X879218D01*
Y350152D01*
X878720D01*
Y349986D01*
X877891D01*
Y349820D01*
X877062D01*
Y349986D01*
X876232D01*
Y350152D01*
X875900D01*
Y350317D01*
X875403D01*
Y350483D01*
X875237D01*
Y350649D01*
X874905D01*
Y350815D01*
X874739D01*
Y350981D01*
X874574D01*
Y351147D01*
X874408D01*
Y351313D01*
X874242D01*
Y351479D01*
X874076D01*
Y351645D01*
X873910D01*
Y351976D01*
X873744D01*
Y352308D01*
X873578D01*
Y352640D01*
X873412D01*
Y353137D01*
X873246D01*
Y355460D01*
X873412D01*
Y355957D01*
X873578D01*
Y356289D01*
X873744D01*
Y356621D01*
X873910D01*
Y356787D01*
X874076D01*
Y356953D01*
X874242D01*
Y357284D01*
X874408D01*
Y357450D01*
X874739D01*
Y357616D01*
X874905D01*
Y357782D01*
X875071D01*
Y357948D01*
X875403D01*
Y358114D01*
X875735D01*
Y358280D01*
X876232D01*
Y358446D01*
X876896D01*
Y358611D01*
X878057D01*
Y358446D01*
D02*
G37*
G36*
X870592Y348991D02*
X870426D01*
Y348825D01*
X866611D01*
Y335886D01*
X866445D01*
Y336052D01*
X866280D01*
Y336218D01*
X866114D01*
Y336384D01*
X865948D01*
Y336550D01*
X865616D01*
Y336716D01*
X865450D01*
Y336881D01*
X865284D01*
Y337047D01*
X865118D01*
Y337213D01*
X864953D01*
Y337379D01*
X864787D01*
Y337545D01*
X864621D01*
Y337711D01*
X864455D01*
Y337877D01*
X864289D01*
Y338043D01*
X864123D01*
Y338209D01*
X863957D01*
Y338374D01*
X863792D01*
Y338540D01*
X863626D01*
Y338706D01*
X863294D01*
Y339038D01*
X862962D01*
Y339204D01*
X862796D01*
Y339370D01*
X862630D01*
Y339535D01*
X862464D01*
Y339701D01*
X862299D01*
Y339867D01*
X862133D01*
Y340033D01*
X861967D01*
Y348825D01*
X852014D01*
Y348991D01*
X851848D01*
Y349156D01*
X851683D01*
Y349322D01*
X851351D01*
Y349488D01*
X851185D01*
Y349654D01*
X851019D01*
Y349820D01*
X850853D01*
Y349986D01*
X850687D01*
Y350152D01*
X850355D01*
Y350317D01*
X850190D01*
Y350483D01*
X850024D01*
Y350649D01*
X849858D01*
Y350815D01*
X849692D01*
Y350981D01*
X849526D01*
Y351147D01*
X849194D01*
Y351313D01*
X849028D01*
Y351479D01*
X848863D01*
Y351645D01*
X848697D01*
Y351810D01*
X848531D01*
Y351976D01*
X848199D01*
Y352142D01*
X848033D01*
Y352308D01*
X847867D01*
Y352474D01*
X847701D01*
Y352640D01*
X847535D01*
Y352806D01*
X847370D01*
Y352972D01*
X870592D01*
Y348991D01*
D02*
G37*
G36*
X844218Y352640D02*
X844384D01*
Y352474D01*
X844550D01*
Y352308D01*
X844716D01*
Y352142D01*
X844882D01*
Y351976D01*
X845047D01*
Y351810D01*
X845213D01*
Y351645D01*
X845379D01*
Y351479D01*
X845545D01*
Y351313D01*
X845711D01*
Y351147D01*
X845877D01*
Y350981D01*
X846043D01*
Y350815D01*
X846374D01*
Y350649D01*
X846540D01*
Y350483D01*
X846706D01*
Y350317D01*
X846872D01*
Y350152D01*
X847038D01*
Y349986D01*
X847204D01*
Y349820D01*
X847370D01*
Y349654D01*
X847535D01*
Y349488D01*
X847701D01*
Y349322D01*
X847867D01*
Y349156D01*
X848033D01*
Y348991D01*
X848199D01*
Y348825D01*
X848365D01*
Y348659D01*
X848531D01*
Y348493D01*
X848863D01*
Y348327D01*
X849028D01*
Y348161D01*
X849194D01*
Y347995D01*
X849360D01*
Y347829D01*
X849526D01*
Y347663D01*
X849692D01*
Y347498D01*
X849858D01*
Y347332D01*
X850024D01*
Y347166D01*
X850190D01*
Y347000D01*
X850355D01*
Y346834D01*
X850521D01*
Y346668D01*
X850687D01*
Y346502D01*
X850853D01*
Y346337D01*
X851019D01*
Y346171D01*
X851185D01*
Y346005D01*
X851517D01*
Y345839D01*
X851683D01*
Y345673D01*
X851848D01*
Y345507D01*
X852014D01*
Y345341D01*
X852180D01*
Y345175D01*
X852346D01*
Y345009D01*
X852512D01*
Y344844D01*
X852678D01*
Y344678D01*
X852844D01*
Y344512D01*
X853009D01*
Y344346D01*
X853175D01*
Y344180D01*
X853341D01*
Y344014D01*
X853507D01*
Y343848D01*
X853673D01*
Y343683D01*
X853839D01*
Y343517D01*
X854171D01*
Y343351D01*
X854336D01*
Y343185D01*
X854502D01*
Y343019D01*
X854668D01*
Y342853D01*
X854834D01*
Y342687D01*
X855000D01*
Y342521D01*
X855166D01*
Y342355D01*
X855332D01*
Y342190D01*
X855498D01*
Y342024D01*
X855664D01*
Y341858D01*
X855829D01*
Y341692D01*
X855995D01*
Y341526D01*
X856327D01*
Y341360D01*
X856493D01*
Y341194D01*
X856659D01*
Y341029D01*
X856825D01*
Y340863D01*
X856991D01*
Y340697D01*
X857156D01*
Y340531D01*
X857322D01*
Y340365D01*
X857488D01*
Y340199D01*
X857654D01*
Y340033D01*
X857820D01*
Y339867D01*
X857986D01*
Y339701D01*
X858152D01*
Y339535D01*
X858317D01*
Y339370D01*
X858649D01*
Y339038D01*
X858981D01*
Y338872D01*
X859147D01*
Y338706D01*
X859313D01*
Y338540D01*
X859479D01*
Y338374D01*
X859645D01*
Y338209D01*
X859810D01*
Y338043D01*
X859976D01*
Y337877D01*
X860142D01*
Y337711D01*
X860308D01*
Y337545D01*
X860474D01*
Y337379D01*
X860640D01*
Y337213D01*
X860806D01*
Y337047D01*
X860972D01*
Y336881D01*
X861137D01*
Y336716D01*
X861303D01*
Y336550D01*
X861635D01*
Y336384D01*
X861801D01*
Y336218D01*
X861967D01*
Y336052D01*
X862133D01*
Y335886D01*
X862299D01*
Y335720D01*
X856493D01*
Y335886D01*
X856327D01*
Y336052D01*
X856161D01*
Y336218D01*
X855995D01*
Y336384D01*
X855829D01*
Y336550D01*
X855498D01*
Y336716D01*
X855332D01*
Y336881D01*
X855166D01*
Y337047D01*
X855000D01*
Y337213D01*
X854834D01*
Y337379D01*
X854668D01*
Y337545D01*
X854502D01*
Y337711D01*
X854336D01*
Y337877D01*
X854171D01*
Y338043D01*
X854005D01*
Y338209D01*
X853839D01*
Y338374D01*
X853507D01*
Y338540D01*
X853341D01*
Y338706D01*
X853175D01*
Y338872D01*
X853009D01*
Y339038D01*
X852844D01*
Y339204D01*
X852678D01*
Y339370D01*
X852512D01*
Y339535D01*
X852346D01*
Y339701D01*
X852180D01*
Y339867D01*
X851848D01*
Y340033D01*
X851683D01*
Y340199D01*
X851517D01*
Y340365D01*
X851351D01*
Y340531D01*
X851185D01*
Y340697D01*
X851019D01*
Y340863D01*
X850853D01*
Y341029D01*
X850687D01*
Y341194D01*
X850521D01*
Y341360D01*
X850355D01*
Y341526D01*
X850024D01*
Y341692D01*
X849858D01*
Y341858D01*
X849692D01*
Y342024D01*
X849526D01*
Y342190D01*
X849360D01*
Y342355D01*
X849194D01*
Y342521D01*
X849028D01*
Y342687D01*
X848863D01*
Y342853D01*
X848697D01*
Y343019D01*
X848365D01*
Y341194D01*
Y341029D01*
Y335720D01*
X843886D01*
Y352806D01*
X844218D01*
Y352640D01*
D02*
G37*
G36*
X822322Y355957D02*
X822156D01*
Y355792D01*
X821991D01*
Y355626D01*
X821825D01*
Y355460D01*
X821659D01*
Y355128D01*
X821327D01*
Y354796D01*
X821161D01*
Y354630D01*
X820829D01*
Y354299D01*
X820664D01*
Y354133D01*
X820498D01*
Y353967D01*
X820332D01*
Y353801D01*
X820166D01*
Y353635D01*
X820000D01*
Y353469D01*
X819834D01*
Y353303D01*
X819668D01*
Y352972D01*
X838247D01*
Y352640D01*
X837915D01*
Y352474D01*
X837749D01*
Y352308D01*
X837583D01*
Y352142D01*
X837417D01*
Y351976D01*
X837251D01*
Y351810D01*
X837085D01*
Y351645D01*
X836753D01*
Y351479D01*
X836588D01*
Y351313D01*
X836422D01*
Y351147D01*
X836256D01*
Y350981D01*
X836090D01*
Y350815D01*
X835924D01*
Y350649D01*
X835758D01*
Y350483D01*
X835426D01*
Y350317D01*
X835261D01*
Y350152D01*
X835095D01*
Y349986D01*
X834929D01*
Y349820D01*
X834763D01*
Y349654D01*
X834597D01*
Y349488D01*
X834431D01*
Y349322D01*
X834100D01*
Y349156D01*
X833934D01*
Y348991D01*
X833768D01*
Y348825D01*
X822986D01*
Y345009D01*
X823152D01*
Y345175D01*
X823483D01*
Y345341D01*
X823649D01*
Y345507D01*
X823815D01*
Y345673D01*
X823981D01*
Y345839D01*
X824313D01*
Y346005D01*
X824479D01*
Y346171D01*
X824810D01*
Y346337D01*
X824976D01*
Y346502D01*
X825142D01*
Y346668D01*
X825308D01*
Y339204D01*
X825474D01*
Y339370D01*
X825806D01*
Y339535D01*
X825972D01*
Y339701D01*
X826137D01*
Y339867D01*
X826303D01*
Y340033D01*
X826469D01*
Y340199D01*
X826635D01*
Y340365D01*
X826801D01*
Y340531D01*
X827133D01*
Y340697D01*
X827299D01*
Y340863D01*
X827465D01*
Y341029D01*
X827630D01*
Y341194D01*
X827796D01*
Y341360D01*
X827962D01*
Y341526D01*
X828128D01*
Y341692D01*
X828460D01*
Y341858D01*
X828626D01*
Y342024D01*
X828792D01*
Y342190D01*
X828957D01*
Y342355D01*
X829123D01*
Y342521D01*
X829289D01*
Y342687D01*
X829455D01*
Y342853D01*
X829621D01*
Y343019D01*
X829953D01*
Y343185D01*
X830118D01*
Y343351D01*
X830284D01*
Y343517D01*
X830450D01*
Y343683D01*
X830616D01*
Y343848D01*
X830782D01*
Y344014D01*
X830948D01*
Y344180D01*
X831114D01*
Y344346D01*
X831445D01*
Y344512D01*
X831611D01*
Y344678D01*
X831777D01*
Y344844D01*
X831943D01*
Y345009D01*
X832109D01*
Y345175D01*
X832275D01*
Y345341D01*
X832441D01*
Y345507D01*
X832607D01*
Y345673D01*
X832938D01*
Y345839D01*
X833104D01*
Y346005D01*
X833270D01*
Y346171D01*
X833436D01*
Y346337D01*
X833602D01*
Y346502D01*
X833768D01*
Y346668D01*
X833934D01*
Y346834D01*
X834265D01*
Y347000D01*
X834431D01*
Y347166D01*
X834597D01*
Y347332D01*
X834763D01*
Y347498D01*
X834929D01*
Y347663D01*
X835095D01*
Y347829D01*
X835261D01*
Y347995D01*
X835426D01*
Y348161D01*
X835758D01*
Y348327D01*
X835924D01*
Y348493D01*
X836090D01*
Y348659D01*
X836256D01*
Y348825D01*
X836422D01*
Y348991D01*
X836588D01*
Y349156D01*
X836753D01*
Y349322D01*
X836919D01*
Y349488D01*
X837251D01*
Y349654D01*
X837417D01*
Y349820D01*
X837583D01*
Y349986D01*
X837749D01*
Y350152D01*
X837915D01*
Y350317D01*
X838081D01*
Y350483D01*
X838247D01*
Y350649D01*
X838578D01*
Y350815D01*
X838744D01*
Y350981D01*
X838910D01*
Y351147D01*
X839076D01*
Y351313D01*
X839242D01*
Y351479D01*
X839408D01*
Y351645D01*
X839574D01*
Y351810D01*
X839739D01*
Y351976D01*
X840071D01*
Y352142D01*
X840237D01*
Y352308D01*
X840403D01*
Y352474D01*
X840569D01*
Y352640D01*
X840735D01*
Y352806D01*
X840900D01*
Y352972D01*
X841066D01*
Y353137D01*
X841398D01*
Y335886D01*
X841232D01*
Y335720D01*
X836588D01*
Y343185D01*
X836422D01*
Y343019D01*
X836256D01*
Y342853D01*
X836090D01*
Y342687D01*
X835758D01*
Y342521D01*
X835592D01*
Y342355D01*
X835426D01*
Y342190D01*
X835261D01*
Y342024D01*
X835095D01*
Y341858D01*
X834929D01*
Y341692D01*
X834763D01*
Y341526D01*
X834597D01*
Y341360D01*
X834431D01*
Y341194D01*
X834265D01*
Y341029D01*
X834100D01*
Y340863D01*
X833934D01*
Y340697D01*
X833768D01*
Y340531D01*
X833602D01*
Y340365D01*
X833270D01*
Y340199D01*
X833104D01*
Y340033D01*
X832938D01*
Y339867D01*
X834763D01*
Y335720D01*
X825308D01*
Y327758D01*
X825142D01*
Y327592D01*
X824976D01*
Y327426D01*
X824810D01*
Y327261D01*
X824479D01*
Y327095D01*
X824313D01*
Y326929D01*
X824147D01*
Y326763D01*
X823981D01*
Y326597D01*
X823815D01*
Y326431D01*
X823483D01*
Y326265D01*
X823317D01*
Y326100D01*
X823152D01*
Y325934D01*
X822986D01*
Y325768D01*
X822820D01*
Y325602D01*
X822488D01*
Y325436D01*
X822322D01*
Y325270D01*
X822156D01*
Y325104D01*
X821991D01*
Y324938D01*
X821825D01*
Y324772D01*
X821659D01*
Y324607D01*
X821327D01*
Y324441D01*
X821161D01*
Y324275D01*
X820995D01*
Y324109D01*
X820829D01*
Y323943D01*
X820664D01*
Y323777D01*
X820332D01*
Y323611D01*
X820166D01*
Y323446D01*
X820000D01*
Y323280D01*
X819834D01*
Y323114D01*
X819668D01*
Y322948D01*
X819336D01*
Y322782D01*
X819171D01*
Y322616D01*
X819005D01*
Y322450D01*
X818839D01*
Y322284D01*
X818673D01*
Y322118D01*
X818341D01*
Y321953D01*
X818175D01*
Y321787D01*
X818009D01*
Y321621D01*
X817844D01*
Y321455D01*
X817678D01*
Y321289D01*
X817512D01*
Y321123D01*
X817346D01*
Y320957D01*
X817014D01*
Y320792D01*
X816848D01*
Y320626D01*
X816683D01*
Y320460D01*
X816517D01*
Y320294D01*
X816185D01*
Y320128D01*
X816019D01*
Y319962D01*
X815853D01*
Y319796D01*
X815687D01*
Y319630D01*
X815521D01*
Y319464D01*
X815355D01*
Y319299D01*
X815024D01*
Y319133D01*
X814858D01*
Y318967D01*
X814692D01*
Y318801D01*
X814526D01*
Y318635D01*
X814360D01*
Y318469D01*
X814194D01*
Y318303D01*
X813863D01*
Y318137D01*
X813697D01*
Y317972D01*
X813531D01*
Y317806D01*
X813365D01*
Y317640D01*
X813033D01*
Y317474D01*
X812867D01*
Y317308D01*
X812701D01*
Y317142D01*
X812536D01*
Y316976D01*
X812370D01*
Y316810D01*
X812204D01*
Y316645D01*
X811872D01*
Y316479D01*
X811706D01*
Y316313D01*
X811540D01*
Y316147D01*
X811374D01*
Y315981D01*
X811208D01*
Y315815D01*
X810877D01*
Y315649D01*
X810711D01*
Y315483D01*
X810545D01*
Y315318D01*
X810379D01*
Y315152D01*
X810213D01*
Y314986D01*
X810047D01*
Y314820D01*
X809716D01*
Y314654D01*
X809550D01*
Y314488D01*
X809384D01*
Y314322D01*
X809218D01*
Y314156D01*
X809052D01*
Y313990D01*
X808720D01*
Y313825D01*
X808555D01*
Y313659D01*
X808389D01*
Y313493D01*
X808223D01*
Y313327D01*
X808057D01*
Y313161D01*
X807725D01*
Y312995D01*
X807559D01*
Y312829D01*
X807393D01*
Y312663D01*
X807227D01*
Y312498D01*
X807062D01*
Y312332D01*
X806896D01*
Y312166D01*
X806564D01*
Y312000D01*
X806398D01*
Y311834D01*
X806232D01*
Y311668D01*
X806066D01*
Y311502D01*
X805900D01*
Y311336D01*
X805569D01*
Y311171D01*
X805403D01*
Y311005D01*
X805237D01*
Y310839D01*
X805071D01*
Y310673D01*
X804905D01*
Y310507D01*
X804739D01*
Y310341D01*
X804408D01*
Y310175D01*
X804242D01*
Y310009D01*
X804076D01*
Y309844D01*
X803910D01*
Y309678D01*
X803744D01*
Y309512D01*
X803412D01*
Y309346D01*
X803247D01*
Y309180D01*
X803081D01*
Y309014D01*
X802915D01*
Y308848D01*
X802749D01*
Y308682D01*
X802583D01*
Y308517D01*
X802417D01*
Y308351D01*
X802251D01*
Y308185D01*
X801919D01*
Y308019D01*
X801588D01*
Y307853D01*
X801090D01*
Y307687D01*
X799100D01*
Y307853D01*
X798602D01*
Y308019D01*
X798270D01*
Y308185D01*
X797938D01*
Y308351D01*
X797773D01*
Y308517D01*
X797607D01*
Y308682D01*
X797441D01*
Y308848D01*
X797275D01*
Y309014D01*
X797109D01*
Y309180D01*
X796943D01*
Y309512D01*
X796777D01*
Y310009D01*
X796611D01*
Y349488D01*
X796777D01*
Y350317D01*
X796943D01*
Y350815D01*
X797109D01*
Y351479D01*
X797275D01*
Y351810D01*
X797441D01*
Y352142D01*
X797607D01*
Y352474D01*
X797773D01*
Y352806D01*
X797938D01*
Y353137D01*
X798104D01*
Y353469D01*
X798270D01*
Y353635D01*
X798436D01*
Y353967D01*
X798602D01*
Y354133D01*
X798768D01*
Y354464D01*
X798934D01*
Y354630D01*
X799100D01*
Y354796D01*
X799265D01*
Y354962D01*
X799431D01*
Y355294D01*
X799597D01*
Y355460D01*
X799763D01*
Y355626D01*
X799929D01*
Y355792D01*
X800095D01*
Y355957D01*
X800261D01*
Y356123D01*
X800426D01*
Y356289D01*
X800592D01*
Y356455D01*
X800758D01*
Y356621D01*
X800924D01*
Y356787D01*
X801090D01*
Y356953D01*
X801256D01*
Y357118D01*
X801422D01*
Y357284D01*
X801588D01*
Y357450D01*
X801754D01*
Y357616D01*
X801919D01*
Y357782D01*
X802085D01*
Y357948D01*
X802251D01*
Y358114D01*
X802417D01*
Y358280D01*
X802749D01*
Y358446D01*
X802915D01*
Y358611D01*
X803081D01*
Y358777D01*
X803247D01*
Y358943D01*
X803412D01*
Y359109D01*
X803578D01*
Y359275D01*
X803744D01*
Y359441D01*
X804076D01*
Y359607D01*
X804242D01*
Y359772D01*
X804408D01*
Y359938D01*
X804574D01*
Y360104D01*
X804739D01*
Y360270D01*
X805071D01*
Y360436D01*
X805237D01*
Y360602D01*
X805403D01*
Y360768D01*
X805569D01*
Y360934D01*
X805900D01*
Y361100D01*
X806066D01*
Y361265D01*
X806232D01*
Y361431D01*
X806398D01*
Y361597D01*
X806564D01*
Y361763D01*
X806896D01*
Y361929D01*
X807062D01*
Y362095D01*
X807227D01*
Y362261D01*
X807393D01*
Y362427D01*
X807559D01*
Y362592D01*
X807891D01*
Y362758D01*
X808057D01*
Y362924D01*
X808223D01*
Y363090D01*
X808389D01*
Y363256D01*
X808555D01*
Y363422D01*
X808720D01*
Y363588D01*
X809052D01*
Y363754D01*
X809218D01*
Y363919D01*
X809384D01*
Y364085D01*
X809550D01*
Y364251D01*
X809716D01*
Y364417D01*
X810047D01*
Y364583D01*
X810213D01*
Y364749D01*
X810379D01*
Y364915D01*
X810545D01*
Y365081D01*
X810711D01*
Y365247D01*
X811043D01*
Y365412D01*
X811208D01*
Y365578D01*
X811374D01*
Y365744D01*
X811540D01*
Y365910D01*
X811706D01*
Y366076D01*
X811872D01*
Y366242D01*
X812204D01*
Y366408D01*
X812370D01*
Y366573D01*
X812536D01*
Y366739D01*
X812701D01*
Y366905D01*
X812867D01*
Y367071D01*
X813033D01*
Y367237D01*
X813365D01*
Y367403D01*
X813531D01*
Y367569D01*
X813697D01*
Y367735D01*
X813863D01*
Y367901D01*
X814028D01*
Y368066D01*
X814194D01*
Y368232D01*
X814360D01*
Y368398D01*
X814692D01*
Y368564D01*
X814858D01*
Y368730D01*
X815024D01*
Y368896D01*
X815190D01*
Y369062D01*
X815355D01*
Y369227D01*
X815521D01*
Y369393D01*
X815687D01*
Y369559D01*
X815853D01*
Y369725D01*
X816185D01*
Y369891D01*
X816351D01*
Y370057D01*
X816517D01*
Y370223D01*
X816683D01*
Y370389D01*
X816848D01*
Y370555D01*
X817014D01*
Y370720D01*
X817180D01*
Y370886D01*
X817346D01*
Y371052D01*
X817678D01*
Y371218D01*
X817844D01*
Y371384D01*
X818009D01*
Y371550D01*
X818175D01*
Y371716D01*
X818341D01*
Y371881D01*
X818507D01*
Y372047D01*
X818673D01*
Y372213D01*
X818839D01*
Y372379D01*
X819005D01*
Y372545D01*
X819171D01*
Y372711D01*
X819336D01*
Y372877D01*
X819668D01*
Y373043D01*
X819834D01*
Y373209D01*
X820000D01*
Y373374D01*
X820166D01*
Y373540D01*
X820332D01*
Y373706D01*
X820498D01*
Y373872D01*
X820664D01*
Y374038D01*
X820829D01*
Y374204D01*
X820995D01*
Y374370D01*
X821161D01*
Y374535D01*
X821327D01*
Y374701D01*
X821493D01*
Y374867D01*
X821659D01*
Y375033D01*
X821825D01*
Y375199D01*
X821991D01*
Y375365D01*
X822156D01*
Y375531D01*
X822322D01*
Y355957D01*
D02*
G37*
G36*
X866611Y295910D02*
X849692D01*
Y295744D01*
X849526D01*
Y295578D01*
X849360D01*
Y295412D01*
X849194D01*
Y295247D01*
X849028D01*
Y295081D01*
X848863D01*
Y294915D01*
X848531D01*
Y294749D01*
X848365D01*
Y294583D01*
X848199D01*
Y294417D01*
X848033D01*
Y294251D01*
X847867D01*
Y294085D01*
X847701D01*
Y293920D01*
X847535D01*
Y293754D01*
X847370D01*
Y293588D01*
X847204D01*
Y293422D01*
X846872D01*
Y293256D01*
X846706D01*
Y293090D01*
X846540D01*
Y292924D01*
X846374D01*
Y292758D01*
X846208D01*
Y292592D01*
X846043D01*
Y292426D01*
X845877D01*
Y292261D01*
X845711D01*
Y292095D01*
X845545D01*
Y291929D01*
X845213D01*
Y291763D01*
X845047D01*
Y291597D01*
X844882D01*
Y291431D01*
X844716D01*
Y291265D01*
X844550D01*
Y291099D01*
X844384D01*
Y290934D01*
X844218D01*
Y290768D01*
X844052D01*
Y290602D01*
X843720D01*
Y290436D01*
X843555D01*
Y290270D01*
X843389D01*
Y290104D01*
X843223D01*
Y289938D01*
X843057D01*
Y289772D01*
X842891D01*
Y289607D01*
X842725D01*
Y289441D01*
X842559D01*
Y289275D01*
X842393D01*
Y289109D01*
X842062D01*
Y288943D01*
X841896D01*
Y288777D01*
X841730D01*
Y288611D01*
X841564D01*
Y288445D01*
X841398D01*
Y288280D01*
X841232D01*
Y288114D01*
X841066D01*
Y287948D01*
X840900D01*
Y287782D01*
X840735D01*
Y287616D01*
X840403D01*
Y287450D01*
X840237D01*
Y287284D01*
X840071D01*
Y287118D01*
X839905D01*
Y286953D01*
X839739D01*
Y286787D01*
X839574D01*
Y286621D01*
X839408D01*
Y286455D01*
X839242D01*
Y286289D01*
X839076D01*
Y286123D01*
X838744D01*
Y285957D01*
X838578D01*
Y285791D01*
X838412D01*
Y285626D01*
X838247D01*
Y285460D01*
X838081D01*
Y285294D01*
X837915D01*
Y285128D01*
X837749D01*
Y284962D01*
X837583D01*
Y289607D01*
X837749D01*
Y289772D01*
X837915D01*
Y289938D01*
X838081D01*
Y290104D01*
X838247D01*
Y290270D01*
X838412D01*
Y290436D01*
X838578D01*
Y290602D01*
X838744D01*
Y290768D01*
X838910D01*
Y290934D01*
X839242D01*
Y291099D01*
X839408D01*
Y291265D01*
X839574D01*
Y291431D01*
X839739D01*
Y291597D01*
X839905D01*
Y291763D01*
X840071D01*
Y291929D01*
X840237D01*
Y292095D01*
X840403D01*
Y292261D01*
X840569D01*
Y292426D01*
X840735D01*
Y292592D01*
X840900D01*
Y292758D01*
X841232D01*
Y292924D01*
X841398D01*
Y293090D01*
X841564D01*
Y293256D01*
X841730D01*
Y293422D01*
X841896D01*
Y293588D01*
X842062D01*
Y293754D01*
X842227D01*
Y293920D01*
X842393D01*
Y294085D01*
X842559D01*
Y294251D01*
X842725D01*
Y294417D01*
X842891D01*
Y294583D01*
X843057D01*
Y294749D01*
X843223D01*
Y294915D01*
X843555D01*
Y295081D01*
X843720D01*
Y295247D01*
X843886D01*
Y295412D01*
X844052D01*
Y295578D01*
X844218D01*
Y295744D01*
X844384D01*
Y295910D01*
X844550D01*
Y296076D01*
X844716D01*
Y296242D01*
X844882D01*
Y296408D01*
X845047D01*
Y296574D01*
X845213D01*
Y296739D01*
X845379D01*
Y296905D01*
X845711D01*
Y297071D01*
X845877D01*
Y297237D01*
X846043D01*
Y297403D01*
X846208D01*
Y297569D01*
X846374D01*
Y297735D01*
X846540D01*
Y297901D01*
X846706D01*
Y298066D01*
X846872D01*
Y298232D01*
X847038D01*
Y298398D01*
X847204D01*
Y298564D01*
X847535D01*
Y298896D01*
X847867D01*
Y299062D01*
X848033D01*
Y299228D01*
X848199D01*
Y299393D01*
X848365D01*
Y299559D01*
X848531D01*
Y299725D01*
X848697D01*
Y299891D01*
X848863D01*
Y300057D01*
X849028D01*
Y300223D01*
X849194D01*
Y300389D01*
X849360D01*
Y300555D01*
X849526D01*
Y300720D01*
X849858D01*
Y300886D01*
X850024D01*
Y301052D01*
X850190D01*
Y301218D01*
X850355D01*
Y301384D01*
X850521D01*
Y301550D01*
X850687D01*
Y301716D01*
X850853D01*
Y301882D01*
X851019D01*
Y302047D01*
X851185D01*
Y302213D01*
X851351D01*
Y302379D01*
X851517D01*
Y302545D01*
X851848D01*
Y302711D01*
X852014D01*
Y302877D01*
X852180D01*
Y303043D01*
X852346D01*
Y304701D01*
X852180D01*
Y304536D01*
X852014D01*
Y304370D01*
X851848D01*
Y304204D01*
X851683D01*
Y304038D01*
X851517D01*
Y303872D01*
X851351D01*
Y303706D01*
X851185D01*
Y303540D01*
X850853D01*
Y303374D01*
X850687D01*
Y303209D01*
X850521D01*
Y303043D01*
X850355D01*
Y302877D01*
X850190D01*
Y302711D01*
X850024D01*
Y302545D01*
X849858D01*
Y302379D01*
X849692D01*
Y302213D01*
X849526D01*
Y302047D01*
X849360D01*
Y301882D01*
X849194D01*
Y301716D01*
X849028D01*
Y301550D01*
X848697D01*
Y301384D01*
X848531D01*
Y301218D01*
X848365D01*
Y301052D01*
X848199D01*
Y300886D01*
X848033D01*
Y300720D01*
X847867D01*
Y300555D01*
X847701D01*
Y300389D01*
X847535D01*
Y300223D01*
X847370D01*
Y300057D01*
X847038D01*
Y299891D01*
X846872D01*
Y299725D01*
X846706D01*
Y299559D01*
X846540D01*
Y299393D01*
X846374D01*
Y299228D01*
X846208D01*
Y299062D01*
X846043D01*
Y298896D01*
X845877D01*
Y298730D01*
X845711D01*
Y298564D01*
X845545D01*
Y298398D01*
X845213D01*
Y298066D01*
X844882D01*
Y297901D01*
X844716D01*
Y297735D01*
X844550D01*
Y297569D01*
X844384D01*
Y297403D01*
X844218D01*
Y297237D01*
X844052D01*
Y297071D01*
X843886D01*
Y296905D01*
X843720D01*
Y296739D01*
X843555D01*
Y296574D01*
X843223D01*
Y296408D01*
X843057D01*
Y296242D01*
X842891D01*
Y296076D01*
X842725D01*
Y295910D01*
X842559D01*
Y295744D01*
X842393D01*
Y295578D01*
X842227D01*
Y295412D01*
X842062D01*
Y295247D01*
X841896D01*
Y295081D01*
X841730D01*
Y294915D01*
X841564D01*
Y294749D01*
X841232D01*
Y294583D01*
X841066D01*
Y294417D01*
X840900D01*
Y294251D01*
X840735D01*
Y294085D01*
X840569D01*
Y293920D01*
X840403D01*
Y293754D01*
X840237D01*
Y293588D01*
X840071D01*
Y293422D01*
X839905D01*
Y293256D01*
X839739D01*
Y293090D01*
X839574D01*
Y292924D01*
X839242D01*
Y292758D01*
X839076D01*
Y292592D01*
X838910D01*
Y292426D01*
X838744D01*
Y292261D01*
X838578D01*
Y292095D01*
X838412D01*
Y291929D01*
X838247D01*
Y291763D01*
X838081D01*
Y291597D01*
X837915D01*
Y291431D01*
X837749D01*
Y291265D01*
X837583D01*
Y291099D01*
X837251D01*
Y290934D01*
X837085D01*
Y290768D01*
X836919D01*
Y290602D01*
X836753D01*
Y290436D01*
X836588D01*
Y290270D01*
X836422D01*
Y290104D01*
X836256D01*
Y289938D01*
X836090D01*
Y289772D01*
X835924D01*
Y289607D01*
X835758D01*
Y289441D01*
X835592D01*
Y289275D01*
X835261D01*
Y289109D01*
X835095D01*
Y288943D01*
X834929D01*
Y288777D01*
X834763D01*
Y288611D01*
X834597D01*
Y288445D01*
X834431D01*
Y288280D01*
X834265D01*
Y288114D01*
X834100D01*
Y287948D01*
X833934D01*
Y287782D01*
X833768D01*
Y287616D01*
X833436D01*
Y287450D01*
X833270D01*
Y287284D01*
X833104D01*
Y287118D01*
X832938D01*
Y286953D01*
X832773D01*
Y286787D01*
X832607D01*
Y286621D01*
X832441D01*
Y286455D01*
X832275D01*
Y286289D01*
X832109D01*
Y286123D01*
X831943D01*
Y285957D01*
X831611D01*
Y285791D01*
X831445D01*
Y285626D01*
X831280D01*
Y285460D01*
X831114D01*
Y285294D01*
X830948D01*
Y285128D01*
X830782D01*
Y284962D01*
X830616D01*
Y284796D01*
X830450D01*
Y284630D01*
X830284D01*
Y284464D01*
X830118D01*
Y284299D01*
X829787D01*
Y283967D01*
X829455D01*
Y283801D01*
X829289D01*
Y283635D01*
X829123D01*
Y283469D01*
X828957D01*
Y283303D01*
X828792D01*
Y283137D01*
X828626D01*
Y282972D01*
X828460D01*
Y282806D01*
X828294D01*
Y282640D01*
X828128D01*
Y282474D01*
X827796D01*
Y282308D01*
X827630D01*
Y282142D01*
X827465D01*
Y281976D01*
X827299D01*
Y281810D01*
X827133D01*
Y281645D01*
X826967D01*
Y281479D01*
X826801D01*
Y281313D01*
X826635D01*
Y281147D01*
X826469D01*
Y280981D01*
X826303D01*
Y280815D01*
X826137D01*
Y280649D01*
X825972D01*
Y280483D01*
X825640D01*
Y280317D01*
X825474D01*
Y280152D01*
X825308D01*
Y284630D01*
X825474D01*
Y284796D01*
X825640D01*
Y284962D01*
X825806D01*
Y285128D01*
X825972D01*
Y285294D01*
X826137D01*
Y285460D01*
X826303D01*
Y285626D01*
X826469D01*
Y285791D01*
X826801D01*
Y285957D01*
X826967D01*
Y286123D01*
X827133D01*
Y286289D01*
X827299D01*
Y286455D01*
X827465D01*
Y286621D01*
X827630D01*
Y286787D01*
X827796D01*
Y286953D01*
X827962D01*
Y287118D01*
X828128D01*
Y287284D01*
X828294D01*
Y287450D01*
X828460D01*
Y287616D01*
X828626D01*
Y287782D01*
X828792D01*
Y287948D01*
X828957D01*
Y288114D01*
X829289D01*
Y288280D01*
X829455D01*
Y288445D01*
X829621D01*
Y288611D01*
X829787D01*
Y288777D01*
X829953D01*
Y288943D01*
X830118D01*
Y289109D01*
X830284D01*
Y289275D01*
X830450D01*
Y289441D01*
X830616D01*
Y289607D01*
X830782D01*
Y289772D01*
X830948D01*
Y289938D01*
X831114D01*
Y290104D01*
X831280D01*
Y290270D01*
X831611D01*
Y290436D01*
X831777D01*
Y290602D01*
X831943D01*
Y290768D01*
X832109D01*
Y290934D01*
X832275D01*
Y291099D01*
X832441D01*
Y291265D01*
X832607D01*
Y291431D01*
X832773D01*
Y291597D01*
X832938D01*
Y291763D01*
X833104D01*
Y291929D01*
X833270D01*
Y292095D01*
X833436D01*
Y292261D01*
X833768D01*
Y292592D01*
X834100D01*
Y292758D01*
X834265D01*
Y292924D01*
X834431D01*
Y293090D01*
X834597D01*
Y293256D01*
X834763D01*
Y293422D01*
X834929D01*
Y293588D01*
X835095D01*
Y293754D01*
X835261D01*
Y293920D01*
X835426D01*
Y294085D01*
X835592D01*
Y294251D01*
X835758D01*
Y294417D01*
X835924D01*
Y294583D01*
X836256D01*
Y294749D01*
X836422D01*
Y294915D01*
X836588D01*
Y295081D01*
X836753D01*
Y295247D01*
X836919D01*
Y295412D01*
X837085D01*
Y295578D01*
X837251D01*
Y295744D01*
X837417D01*
Y295910D01*
X837583D01*
Y296076D01*
X837749D01*
Y296242D01*
X837915D01*
Y296408D01*
X838081D01*
Y296574D01*
X838412D01*
Y296739D01*
X838578D01*
Y296905D01*
X838744D01*
Y297071D01*
X838910D01*
Y297237D01*
X839076D01*
Y297403D01*
X839242D01*
Y297569D01*
X839408D01*
Y297735D01*
X839574D01*
Y297901D01*
X839739D01*
Y298066D01*
X839905D01*
Y298232D01*
X840071D01*
Y298398D01*
X840237D01*
Y298564D01*
X840403D01*
Y298730D01*
X840569D01*
Y298896D01*
X840900D01*
Y299062D01*
X841066D01*
Y299228D01*
X841232D01*
Y299393D01*
X841398D01*
Y299559D01*
X841564D01*
Y299725D01*
X841730D01*
Y299891D01*
X841896D01*
Y300057D01*
X842062D01*
Y300223D01*
X842227D01*
Y300389D01*
X842393D01*
Y300555D01*
X842559D01*
Y300720D01*
X842725D01*
Y300886D01*
X842891D01*
Y301052D01*
X843223D01*
Y301218D01*
X843389D01*
Y301384D01*
X843555D01*
Y301550D01*
X843720D01*
Y301716D01*
X843886D01*
Y301882D01*
X844052D01*
Y302047D01*
X844218D01*
Y302213D01*
X844384D01*
Y302379D01*
X844550D01*
Y302545D01*
X844716D01*
Y302711D01*
X844882D01*
Y302877D01*
X845047D01*
Y303043D01*
X845213D01*
Y303209D01*
X845379D01*
Y303374D01*
X845711D01*
Y303540D01*
X845877D01*
Y303706D01*
X846043D01*
Y303872D01*
X846208D01*
Y304038D01*
X846374D01*
Y304204D01*
X846540D01*
Y304370D01*
X846706D01*
Y304536D01*
X846872D01*
Y304701D01*
X847038D01*
Y304867D01*
X847204D01*
Y305033D01*
X847370D01*
Y305199D01*
X847535D01*
Y305365D01*
X847867D01*
Y305531D01*
X848033D01*
Y305697D01*
X848199D01*
Y305863D01*
X848365D01*
Y306028D01*
X848531D01*
Y306194D01*
X848697D01*
Y306360D01*
X848863D01*
Y306526D01*
X849028D01*
Y306692D01*
X849194D01*
Y306858D01*
X849360D01*
Y307024D01*
X849526D01*
Y307190D01*
X849692D01*
Y307355D01*
X849858D01*
Y307521D01*
X850190D01*
Y307687D01*
X850355D01*
Y307853D01*
X850521D01*
Y308019D01*
X850687D01*
Y308185D01*
X850853D01*
Y308351D01*
X851019D01*
Y308517D01*
X851185D01*
Y308682D01*
X851351D01*
Y308848D01*
X851517D01*
Y309014D01*
X851683D01*
Y309180D01*
X851848D01*
Y309346D01*
X852014D01*
Y309512D01*
X852180D01*
Y309678D01*
X852346D01*
Y309844D01*
X852678D01*
Y310009D01*
X852844D01*
Y310175D01*
X853009D01*
Y310341D01*
X853175D01*
Y310507D01*
X853341D01*
Y310673D01*
X853507D01*
Y310839D01*
X853673D01*
Y311005D01*
X853839D01*
Y311171D01*
X854005D01*
Y311336D01*
X854171D01*
Y311502D01*
X854336D01*
Y311668D01*
X854668D01*
Y311834D01*
X854834D01*
Y312000D01*
X855000D01*
Y312166D01*
X855166D01*
Y312332D01*
X855332D01*
Y312498D01*
X855498D01*
Y312663D01*
X855664D01*
Y314488D01*
X855498D01*
Y314322D01*
X855332D01*
Y314156D01*
X855166D01*
Y313990D01*
X855000D01*
Y313825D01*
X854834D01*
Y313659D01*
X854668D01*
Y313493D01*
X854502D01*
Y313327D01*
X854336D01*
Y313161D01*
X854171D01*
Y312995D01*
X853839D01*
Y312829D01*
X853673D01*
Y312663D01*
X853507D01*
Y312498D01*
X853341D01*
Y312332D01*
X853175D01*
Y312166D01*
X853009D01*
Y312000D01*
X852844D01*
Y311834D01*
X852678D01*
Y311668D01*
X852512D01*
Y311502D01*
X852180D01*
Y311336D01*
X852014D01*
Y311171D01*
X851848D01*
Y311005D01*
X851683D01*
Y310839D01*
X851517D01*
Y310673D01*
X851351D01*
Y310507D01*
X851185D01*
Y310341D01*
X851019D01*
Y310175D01*
X850853D01*
Y310009D01*
X850687D01*
Y309844D01*
X850355D01*
Y309678D01*
X850190D01*
Y309512D01*
X850024D01*
Y309346D01*
X849858D01*
Y309180D01*
X849692D01*
Y309014D01*
X849526D01*
Y308848D01*
X849360D01*
Y308682D01*
X849194D01*
Y308517D01*
X849028D01*
Y308351D01*
X848863D01*
Y308185D01*
X848531D01*
Y308019D01*
X848365D01*
Y307853D01*
X848199D01*
Y307687D01*
X848033D01*
Y307521D01*
X847867D01*
Y307355D01*
X847701D01*
Y307190D01*
X847535D01*
Y307024D01*
X847370D01*
Y306858D01*
X847204D01*
Y306692D01*
X846872D01*
Y306526D01*
X846706D01*
Y306360D01*
X846540D01*
Y306194D01*
X846374D01*
Y306028D01*
X846208D01*
Y305863D01*
X846043D01*
Y305697D01*
X845877D01*
Y305531D01*
X845711D01*
Y305365D01*
X845545D01*
Y305199D01*
X845379D01*
Y305033D01*
X845213D01*
Y304867D01*
X844882D01*
Y304701D01*
X844716D01*
Y304536D01*
X844550D01*
Y304370D01*
X844384D01*
Y304204D01*
X844218D01*
Y304038D01*
X844052D01*
Y303872D01*
X843886D01*
Y303706D01*
X843720D01*
Y303540D01*
X843555D01*
Y303374D01*
X843389D01*
Y303209D01*
X843057D01*
Y303043D01*
X842891D01*
Y302877D01*
X842725D01*
Y302711D01*
X842559D01*
Y302545D01*
X842393D01*
Y302379D01*
X842227D01*
Y302213D01*
X842062D01*
Y302047D01*
X841896D01*
Y301882D01*
X841730D01*
Y301716D01*
X841564D01*
Y301550D01*
X841232D01*
Y301384D01*
X841066D01*
Y301218D01*
X840900D01*
Y301052D01*
X840735D01*
Y300886D01*
X840569D01*
Y300720D01*
X840403D01*
Y300555D01*
X840237D01*
Y300389D01*
X840071D01*
Y300223D01*
X839905D01*
Y300057D01*
X839574D01*
Y299891D01*
X839408D01*
Y299725D01*
X839242D01*
Y299559D01*
X839076D01*
Y299393D01*
X838910D01*
Y299228D01*
X838744D01*
Y299062D01*
X838578D01*
Y298896D01*
X838412D01*
Y298730D01*
X838247D01*
Y298564D01*
X838081D01*
Y298398D01*
X837749D01*
Y298066D01*
X837417D01*
Y297901D01*
X837251D01*
Y297735D01*
X837085D01*
Y297569D01*
X836919D01*
Y297403D01*
X836753D01*
Y297237D01*
X836588D01*
Y297071D01*
X836422D01*
Y296905D01*
X836090D01*
Y296574D01*
X835758D01*
Y296408D01*
X835592D01*
Y296242D01*
X835426D01*
Y296076D01*
X835261D01*
Y295910D01*
X835095D01*
Y295744D01*
X834929D01*
Y295578D01*
X834763D01*
Y295412D01*
X834597D01*
Y295247D01*
X834265D01*
Y295081D01*
X834100D01*
Y294915D01*
X833934D01*
Y294749D01*
X833768D01*
Y294583D01*
X833602D01*
Y294417D01*
X833436D01*
Y294251D01*
X833270D01*
Y294085D01*
X833104D01*
Y293920D01*
X832938D01*
Y293754D01*
X832773D01*
Y293588D01*
X832607D01*
Y293422D01*
X832275D01*
Y293256D01*
X832109D01*
Y293090D01*
X831943D01*
Y292924D01*
X831777D01*
Y292758D01*
X831611D01*
Y292592D01*
X831445D01*
Y292426D01*
X831280D01*
Y292261D01*
X831114D01*
Y292095D01*
X830948D01*
Y291929D01*
X830616D01*
Y291763D01*
X830450D01*
Y291597D01*
X830284D01*
Y291431D01*
X830118D01*
Y291265D01*
X829953D01*
Y291099D01*
X829787D01*
Y290934D01*
X829621D01*
Y290768D01*
X829455D01*
Y290602D01*
X829289D01*
Y290436D01*
X829123D01*
Y290270D01*
X828957D01*
Y290104D01*
X828792D01*
Y289938D01*
X828460D01*
Y289772D01*
X828294D01*
Y289607D01*
X828128D01*
Y289441D01*
X827962D01*
Y289275D01*
X827796D01*
Y289109D01*
X827630D01*
Y288943D01*
X827465D01*
Y288777D01*
X827299D01*
Y288611D01*
X827133D01*
Y288445D01*
X826801D01*
Y288280D01*
X826635D01*
Y288114D01*
X826469D01*
Y287948D01*
X826303D01*
Y287782D01*
X826137D01*
Y287616D01*
X825972D01*
Y287450D01*
X825806D01*
Y287284D01*
X825640D01*
Y287118D01*
X825474D01*
Y286953D01*
X825142D01*
Y286787D01*
X824976D01*
Y286621D01*
X824810D01*
Y286455D01*
X824645D01*
Y286289D01*
X824479D01*
Y286123D01*
X824313D01*
Y285957D01*
X824147D01*
Y285791D01*
X823981D01*
Y285626D01*
X823815D01*
Y285460D01*
X823649D01*
Y285294D01*
X823483D01*
Y285128D01*
X823152D01*
Y284962D01*
X822986D01*
Y284796D01*
X822820D01*
Y284630D01*
X822654D01*
Y284464D01*
X822488D01*
Y284299D01*
X822322D01*
Y284133D01*
X822156D01*
Y283967D01*
X821991D01*
Y283801D01*
X821825D01*
Y283635D01*
X821493D01*
Y283469D01*
X821327D01*
Y283303D01*
X821161D01*
Y283137D01*
X820995D01*
Y282972D01*
X820829D01*
Y282806D01*
X820664D01*
Y282640D01*
X820498D01*
Y282474D01*
X820332D01*
Y282308D01*
X820166D01*
Y282142D01*
X820000D01*
Y281976D01*
X819668D01*
Y281810D01*
X819502D01*
Y281645D01*
X819336D01*
Y281479D01*
X819171D01*
Y281313D01*
X819005D01*
Y281147D01*
X818839D01*
Y280981D01*
X818673D01*
Y280815D01*
X818507D01*
Y280649D01*
X818341D01*
Y280483D01*
X818009D01*
Y280317D01*
X817844D01*
Y280152D01*
X817678D01*
Y279986D01*
X817512D01*
Y279820D01*
X817346D01*
Y279654D01*
X817180D01*
Y279488D01*
X817014D01*
Y279322D01*
X816848D01*
Y279156D01*
X816683D01*
Y278990D01*
X816517D01*
Y278825D01*
X816351D01*
Y278659D01*
X816185D01*
Y278493D01*
X815853D01*
Y278327D01*
X815687D01*
Y278161D01*
X815521D01*
Y277995D01*
X815355D01*
Y277829D01*
X815190D01*
Y277663D01*
X815024D01*
Y277498D01*
X814858D01*
Y277332D01*
X814692D01*
Y277166D01*
X814526D01*
Y277000D01*
X814194D01*
Y276834D01*
X814028D01*
Y276668D01*
X813863D01*
Y276502D01*
X813697D01*
Y276336D01*
X813531D01*
Y276171D01*
X813365D01*
Y276005D01*
X813199D01*
Y275839D01*
X813033D01*
Y275673D01*
X812867D01*
Y275507D01*
X812536D01*
Y275341D01*
X812370D01*
Y275175D01*
X812204D01*
Y275009D01*
X812038D01*
Y274844D01*
X811872D01*
Y274678D01*
X811706D01*
Y274512D01*
X811540D01*
Y278990D01*
X811706D01*
Y279156D01*
X811872D01*
Y279322D01*
X812038D01*
Y279488D01*
X812204D01*
Y279654D01*
X812370D01*
Y279820D01*
X812536D01*
Y279986D01*
X812701D01*
Y280152D01*
X813033D01*
Y280317D01*
X813199D01*
Y280483D01*
X813365D01*
Y280649D01*
X813531D01*
Y280815D01*
X813697D01*
Y280981D01*
X813863D01*
Y281147D01*
X814028D01*
Y281313D01*
X814194D01*
Y281479D01*
X814526D01*
Y281645D01*
X814692D01*
Y281810D01*
X814858D01*
Y281976D01*
X815024D01*
Y282142D01*
X815190D01*
Y282308D01*
X815355D01*
Y282474D01*
X815521D01*
Y282640D01*
X815687D01*
Y282806D01*
X816019D01*
Y282972D01*
X816185D01*
Y283137D01*
X816351D01*
Y283303D01*
X816517D01*
Y283469D01*
X816683D01*
Y283635D01*
X816848D01*
Y283801D01*
X817014D01*
Y283967D01*
X817180D01*
Y284133D01*
X817346D01*
Y284299D01*
X817678D01*
Y284630D01*
X818009D01*
Y284796D01*
X818175D01*
Y284962D01*
X818341D01*
Y285128D01*
X818507D01*
Y285294D01*
X818673D01*
Y285460D01*
X818839D01*
Y285626D01*
X819005D01*
Y285791D01*
X819171D01*
Y285957D01*
X819502D01*
Y286123D01*
X819668D01*
Y286289D01*
X819834D01*
Y286455D01*
X820000D01*
Y286621D01*
X820166D01*
Y286787D01*
X820332D01*
Y286953D01*
X820498D01*
Y287118D01*
X820664D01*
Y287284D01*
X820829D01*
Y287450D01*
X821161D01*
Y287616D01*
X821327D01*
Y287782D01*
X821493D01*
Y287948D01*
X821659D01*
Y288114D01*
X821825D01*
Y288280D01*
X821991D01*
Y288445D01*
X822156D01*
Y288611D01*
X822322D01*
Y288777D01*
X822488D01*
Y288943D01*
X822654D01*
Y289109D01*
X822986D01*
Y289275D01*
X823152D01*
Y289441D01*
X823317D01*
Y289607D01*
X823483D01*
Y289772D01*
X823649D01*
Y289938D01*
X823815D01*
Y290104D01*
X823981D01*
Y290270D01*
X824147D01*
Y290436D01*
X824313D01*
Y290602D01*
X824645D01*
Y290768D01*
X824810D01*
Y290934D01*
X824976D01*
Y291099D01*
X825142D01*
Y291265D01*
X825308D01*
Y291431D01*
X825474D01*
Y291597D01*
X825640D01*
Y291763D01*
X825806D01*
Y291929D01*
X826137D01*
Y292095D01*
X826303D01*
Y292261D01*
X826469D01*
Y292426D01*
X826635D01*
Y292592D01*
X826801D01*
Y292758D01*
X826967D01*
Y292924D01*
X827133D01*
Y293090D01*
X827299D01*
Y293256D01*
X827465D01*
Y293422D01*
X827796D01*
Y293588D01*
X827962D01*
Y293754D01*
X828128D01*
Y293920D01*
X828294D01*
Y294085D01*
X828460D01*
Y294251D01*
X828626D01*
Y294417D01*
X828792D01*
Y294583D01*
X828957D01*
Y294749D01*
X829123D01*
Y294915D01*
X829455D01*
Y295081D01*
X829621D01*
Y295247D01*
X829787D01*
Y295412D01*
X829953D01*
Y295578D01*
X830118D01*
Y295744D01*
X830284D01*
Y295910D01*
X830450D01*
Y296076D01*
X830616D01*
Y296242D01*
X830782D01*
Y296408D01*
X831114D01*
Y296574D01*
X831280D01*
Y296739D01*
X831445D01*
Y296905D01*
X831611D01*
Y297071D01*
X831777D01*
Y297237D01*
X831943D01*
Y297403D01*
X832109D01*
Y297569D01*
X832275D01*
Y297735D01*
X832441D01*
Y297901D01*
X832607D01*
Y298066D01*
X832938D01*
Y298232D01*
X833104D01*
Y298398D01*
X833270D01*
Y298564D01*
X833436D01*
Y298730D01*
X833602D01*
Y298896D01*
X833768D01*
Y299062D01*
X833934D01*
Y299228D01*
X834265D01*
Y299393D01*
X834431D01*
Y299559D01*
X834597D01*
Y299725D01*
X834763D01*
Y299891D01*
X834929D01*
Y300057D01*
X835095D01*
Y300223D01*
X835261D01*
Y300389D01*
X835426D01*
Y300555D01*
X835592D01*
Y300720D01*
X835758D01*
Y300886D01*
X835924D01*
Y301052D01*
X836090D01*
Y301218D01*
X836256D01*
Y301384D01*
X836588D01*
Y301716D01*
X836919D01*
Y301882D01*
X837085D01*
Y302047D01*
X837251D01*
Y302213D01*
X837417D01*
Y302379D01*
X837583D01*
Y302545D01*
X837749D01*
Y302711D01*
X837915D01*
Y302877D01*
X838081D01*
Y303043D01*
X838247D01*
Y303209D01*
X838412D01*
Y303374D01*
X838578D01*
Y303540D01*
X838910D01*
Y303706D01*
X839076D01*
Y303872D01*
X839242D01*
Y304038D01*
X839408D01*
Y304204D01*
X839574D01*
Y304370D01*
X839739D01*
Y304536D01*
X839905D01*
Y304701D01*
X840071D01*
Y304867D01*
X840237D01*
Y305033D01*
X840403D01*
Y305199D01*
X840569D01*
Y305365D01*
X840735D01*
Y305531D01*
X841066D01*
Y305697D01*
X841232D01*
Y305863D01*
X841398D01*
Y306028D01*
X841564D01*
Y306194D01*
X841730D01*
Y306360D01*
X841896D01*
Y306526D01*
X842062D01*
Y306692D01*
X842227D01*
Y306858D01*
X842393D01*
Y307024D01*
X842559D01*
Y307190D01*
X842725D01*
Y307355D01*
X842891D01*
Y307521D01*
X843057D01*
Y307687D01*
X843223D01*
Y307853D01*
X843555D01*
Y308019D01*
X843720D01*
Y308185D01*
X843886D01*
Y308351D01*
X844052D01*
Y308517D01*
X844218D01*
Y308682D01*
X844384D01*
Y308848D01*
X844550D01*
Y309014D01*
X844716D01*
Y309180D01*
X844882D01*
Y309346D01*
X845047D01*
Y309512D01*
X845213D01*
Y309678D01*
X845379D01*
Y309844D01*
X845545D01*
Y310009D01*
X845877D01*
Y310175D01*
X846043D01*
Y310341D01*
X846208D01*
Y310507D01*
X846374D01*
Y310673D01*
X846540D01*
Y310839D01*
X846706D01*
Y311005D01*
X846872D01*
Y311171D01*
X847038D01*
Y311336D01*
X847204D01*
Y311502D01*
X847370D01*
Y311668D01*
X847535D01*
Y311834D01*
X847701D01*
Y312000D01*
X847867D01*
Y312166D01*
X848033D01*
Y312332D01*
X848365D01*
Y312498D01*
X848531D01*
Y312663D01*
X848697D01*
Y312829D01*
X848863D01*
Y312995D01*
X849028D01*
Y313161D01*
X849194D01*
Y313327D01*
X849360D01*
Y313493D01*
X849526D01*
Y313659D01*
X849692D01*
Y313825D01*
X849858D01*
Y313990D01*
X850024D01*
Y314156D01*
X850190D01*
Y314322D01*
X850521D01*
Y314488D01*
X850687D01*
Y314654D01*
X850853D01*
Y314820D01*
X851019D01*
Y314986D01*
X851185D01*
Y315152D01*
X851351D01*
Y315318D01*
X851517D01*
Y315483D01*
X851683D01*
Y315649D01*
X851848D01*
Y315815D01*
X852014D01*
Y315981D01*
X852180D01*
Y316147D01*
X852346D01*
Y316313D01*
X852678D01*
Y316645D01*
X853009D01*
Y316976D01*
X853341D01*
Y317142D01*
X853507D01*
Y317308D01*
X853673D01*
Y317474D01*
X853839D01*
Y317640D01*
X854005D01*
Y317806D01*
X854171D01*
Y317972D01*
X854336D01*
Y318137D01*
X854502D01*
Y318303D01*
X854668D01*
Y318469D01*
X854834D01*
Y318635D01*
X855000D01*
Y318801D01*
X855166D01*
Y318967D01*
X855498D01*
Y319133D01*
X855664D01*
Y319299D01*
X855829D01*
Y319464D01*
X855995D01*
Y319630D01*
X856161D01*
Y319796D01*
X856327D01*
Y319962D01*
X856493D01*
Y320128D01*
X856659D01*
Y320294D01*
X856825D01*
Y320460D01*
X856991D01*
Y320626D01*
X857156D01*
Y320792D01*
X857322D01*
Y320957D01*
X857654D01*
Y321123D01*
X857820D01*
Y321289D01*
X857986D01*
Y321455D01*
X858152D01*
Y321621D01*
X858317D01*
Y321787D01*
X858483D01*
Y321953D01*
X858649D01*
Y322118D01*
X858815D01*
Y322284D01*
X858981D01*
Y322450D01*
X859147D01*
Y322616D01*
X859313D01*
Y324441D01*
X858981D01*
Y324275D01*
X858815D01*
Y324109D01*
X858649D01*
Y323943D01*
X858483D01*
Y323777D01*
X858317D01*
Y323611D01*
X858152D01*
Y323446D01*
X857986D01*
Y323280D01*
X857654D01*
Y323114D01*
X857488D01*
Y322948D01*
X857322D01*
Y322782D01*
X857156D01*
Y322616D01*
X856991D01*
Y322450D01*
X856825D01*
Y322284D01*
X856659D01*
Y322118D01*
X856493D01*
Y321953D01*
X856327D01*
Y321787D01*
X856161D01*
Y321621D01*
X855995D01*
Y321455D01*
X855829D01*
Y321289D01*
X855664D01*
Y321123D01*
X855498D01*
Y320957D01*
X855166D01*
Y320792D01*
X855000D01*
Y320626D01*
X854834D01*
Y320460D01*
X854668D01*
Y320294D01*
X854502D01*
Y320128D01*
X854336D01*
Y319962D01*
X854171D01*
Y319796D01*
X854005D01*
Y319630D01*
X853839D01*
Y319464D01*
X853673D01*
Y319299D01*
X853507D01*
Y319133D01*
X853341D01*
Y318967D01*
X853009D01*
Y318801D01*
X852844D01*
Y318635D01*
X852678D01*
Y318469D01*
X852512D01*
Y318303D01*
X852346D01*
Y318137D01*
X852180D01*
Y317972D01*
X852014D01*
Y317806D01*
X851848D01*
Y317640D01*
X851683D01*
Y317474D01*
X851517D01*
Y317308D01*
X851351D01*
Y317142D01*
X851019D01*
Y316976D01*
X850853D01*
Y316810D01*
X850687D01*
Y316645D01*
X850521D01*
Y316479D01*
X850355D01*
Y316313D01*
X850190D01*
Y316147D01*
X850024D01*
Y315981D01*
X849858D01*
Y315815D01*
X849692D01*
Y315649D01*
X849526D01*
Y315483D01*
X849360D01*
Y315318D01*
X849194D01*
Y315152D01*
X849028D01*
Y314986D01*
X848863D01*
Y314820D01*
X848697D01*
Y314654D01*
X848365D01*
Y314488D01*
X848199D01*
Y314322D01*
X848033D01*
Y314156D01*
X847867D01*
Y313990D01*
X847701D01*
Y313825D01*
X847535D01*
Y313659D01*
X847370D01*
Y313493D01*
X847204D01*
Y313327D01*
X847038D01*
Y313161D01*
X846872D01*
Y312995D01*
X846706D01*
Y312829D01*
X846540D01*
Y312663D01*
X846208D01*
Y312498D01*
X846043D01*
Y312332D01*
X845877D01*
Y312166D01*
X845711D01*
Y312000D01*
X845545D01*
Y311834D01*
X845379D01*
Y311668D01*
X845213D01*
Y311502D01*
X845047D01*
Y311336D01*
X844882D01*
Y311171D01*
X844716D01*
Y311005D01*
X844550D01*
Y310839D01*
X844384D01*
Y310673D01*
X844218D01*
Y310507D01*
X843886D01*
Y310341D01*
X843720D01*
Y310175D01*
X843555D01*
Y310009D01*
X843389D01*
Y309844D01*
X843223D01*
Y309678D01*
X843057D01*
Y309512D01*
X842891D01*
Y309346D01*
X842725D01*
Y309180D01*
X842559D01*
Y309014D01*
X842393D01*
Y308848D01*
X842227D01*
Y308682D01*
X842062D01*
Y308517D01*
X841730D01*
Y308351D01*
X841564D01*
Y308185D01*
X841398D01*
Y308019D01*
X841232D01*
Y307853D01*
X841066D01*
Y307687D01*
X840900D01*
Y307521D01*
X840735D01*
Y307355D01*
X840569D01*
Y307190D01*
X840403D01*
Y307024D01*
X840237D01*
Y306858D01*
X840071D01*
Y306692D01*
X839739D01*
Y306360D01*
X839408D01*
Y306028D01*
X839076D01*
Y305863D01*
X838910D01*
Y305697D01*
X838744D01*
Y305531D01*
X838578D01*
Y305365D01*
X838412D01*
Y305199D01*
X838247D01*
Y305033D01*
X838081D01*
Y304867D01*
X837915D01*
Y304701D01*
X837749D01*
Y304536D01*
X837583D01*
Y304370D01*
X837417D01*
Y304204D01*
X837085D01*
Y304038D01*
X836919D01*
Y303872D01*
X836753D01*
Y303706D01*
X836588D01*
Y303540D01*
X836422D01*
Y303374D01*
X836256D01*
Y303209D01*
X836090D01*
Y303043D01*
X835924D01*
Y302877D01*
X835758D01*
Y302711D01*
X835592D01*
Y302545D01*
X835426D01*
Y302379D01*
X835261D01*
Y302213D01*
X834929D01*
Y302047D01*
X834763D01*
Y301882D01*
X834597D01*
Y301716D01*
X834431D01*
Y301550D01*
X834265D01*
Y301384D01*
X834100D01*
Y301218D01*
X833934D01*
Y301052D01*
X833768D01*
Y300886D01*
X833602D01*
Y300720D01*
X833436D01*
Y300555D01*
X833270D01*
Y300389D01*
X833104D01*
Y300223D01*
X832938D01*
Y300057D01*
X832607D01*
Y299891D01*
X832441D01*
Y299725D01*
X832275D01*
Y299559D01*
X832109D01*
Y299393D01*
X831943D01*
Y299228D01*
X831777D01*
Y299062D01*
X831611D01*
Y298896D01*
X831445D01*
Y298730D01*
X831280D01*
Y298564D01*
X831114D01*
Y298398D01*
X830948D01*
Y298232D01*
X830782D01*
Y298066D01*
X830616D01*
Y297901D01*
X830284D01*
Y297735D01*
X830118D01*
Y297569D01*
X829953D01*
Y297403D01*
X829787D01*
Y297237D01*
X829621D01*
Y297071D01*
X829455D01*
Y296905D01*
X829289D01*
Y296739D01*
X829123D01*
Y296574D01*
X828957D01*
Y296408D01*
X828792D01*
Y296242D01*
X828626D01*
Y296076D01*
X828460D01*
Y295910D01*
X828294D01*
Y295744D01*
X827962D01*
Y295578D01*
X827796D01*
Y295412D01*
X827630D01*
Y295247D01*
X827465D01*
Y295081D01*
X827299D01*
Y294915D01*
X827133D01*
Y294749D01*
X826967D01*
Y294583D01*
X826801D01*
Y294417D01*
X826635D01*
Y294251D01*
X826469D01*
Y294085D01*
X826303D01*
Y293920D01*
X825972D01*
Y293754D01*
X825806D01*
Y293588D01*
X825640D01*
Y293422D01*
X825474D01*
Y293256D01*
X825308D01*
Y293090D01*
X825142D01*
Y292924D01*
X824976D01*
Y292758D01*
X824810D01*
Y292592D01*
X824645D01*
Y292426D01*
X824479D01*
Y292261D01*
X824313D01*
Y292095D01*
X824147D01*
Y291929D01*
X823981D01*
Y291763D01*
X823649D01*
Y291431D01*
X823317D01*
Y291265D01*
X823152D01*
Y291099D01*
X822986D01*
Y290934D01*
X822820D01*
Y290768D01*
X822654D01*
Y290602D01*
X822488D01*
Y290436D01*
X822322D01*
Y290270D01*
X822156D01*
Y290104D01*
X821991D01*
Y289938D01*
X821825D01*
Y289772D01*
X821659D01*
Y289607D01*
X821493D01*
Y289441D01*
X821161D01*
Y289275D01*
X820995D01*
Y289109D01*
X820829D01*
Y288943D01*
X820664D01*
Y288777D01*
X820498D01*
Y288611D01*
X820332D01*
Y288445D01*
X820166D01*
Y288280D01*
X820000D01*
Y288114D01*
X819834D01*
Y287948D01*
X819668D01*
Y287782D01*
X819502D01*
Y287616D01*
X819171D01*
Y287450D01*
X819005D01*
Y287284D01*
X818839D01*
Y287118D01*
X818673D01*
Y286953D01*
X818507D01*
Y286787D01*
X818341D01*
Y286621D01*
X818175D01*
Y286455D01*
X818009D01*
Y286289D01*
X817844D01*
Y286123D01*
X817678D01*
Y285957D01*
X817512D01*
Y285791D01*
X817346D01*
Y285626D01*
X817180D01*
Y285460D01*
X817014D01*
Y285294D01*
X816683D01*
Y285128D01*
X816517D01*
Y284962D01*
X816351D01*
Y284796D01*
X816185D01*
Y284630D01*
X816019D01*
Y284464D01*
X815853D01*
Y284299D01*
X815687D01*
Y284133D01*
X815521D01*
Y283967D01*
X815355D01*
Y283801D01*
X815190D01*
Y283635D01*
X815024D01*
Y283469D01*
X814692D01*
Y283303D01*
X814526D01*
Y283137D01*
X814360D01*
Y282972D01*
X814194D01*
Y287948D01*
X814360D01*
Y288114D01*
X814526D01*
Y288280D01*
X814858D01*
Y288445D01*
X815024D01*
Y288611D01*
X815190D01*
Y288777D01*
X815355D01*
Y288943D01*
X815521D01*
Y289109D01*
X815687D01*
Y289275D01*
X815853D01*
Y289441D01*
X816019D01*
Y289607D01*
X816185D01*
Y289772D01*
X816351D01*
Y289938D01*
X816517D01*
Y290104D01*
X816848D01*
Y290270D01*
X817014D01*
Y290436D01*
X817180D01*
Y290602D01*
X817346D01*
Y290768D01*
X817512D01*
Y290934D01*
X817678D01*
Y291099D01*
X817844D01*
Y291265D01*
X818009D01*
Y291431D01*
X818175D01*
Y291597D01*
X818341D01*
Y291763D01*
X818507D01*
Y291929D01*
X818839D01*
Y292261D01*
X819171D01*
Y292426D01*
X819336D01*
Y292592D01*
X819502D01*
Y292758D01*
X819668D01*
Y292924D01*
X819834D01*
Y293090D01*
X820000D01*
Y293256D01*
X820166D01*
Y293422D01*
X820332D01*
Y293588D01*
X820498D01*
Y293754D01*
X820664D01*
Y293920D01*
X820829D01*
Y294085D01*
X820995D01*
Y294251D01*
X821327D01*
Y294417D01*
X821493D01*
Y294583D01*
X821659D01*
Y294749D01*
X821825D01*
Y294915D01*
X821991D01*
Y295081D01*
X822156D01*
Y295247D01*
X822322D01*
Y295412D01*
X822488D01*
Y295578D01*
X822654D01*
Y295744D01*
X822820D01*
Y295910D01*
X823152D01*
Y296076D01*
X823317D01*
Y296242D01*
X823483D01*
Y296408D01*
X823649D01*
Y296574D01*
X823815D01*
Y296739D01*
X823981D01*
Y296905D01*
X824147D01*
Y297071D01*
X824313D01*
Y297237D01*
X824479D01*
Y297403D01*
X824645D01*
Y297569D01*
X824810D01*
Y297735D01*
X824976D01*
Y297901D01*
X825308D01*
Y298066D01*
X825474D01*
Y298232D01*
X825640D01*
Y298398D01*
X825806D01*
Y298564D01*
X825972D01*
Y298730D01*
X826137D01*
Y298896D01*
X826303D01*
Y299062D01*
X826469D01*
Y299228D01*
X826635D01*
Y299393D01*
X826801D01*
Y299559D01*
X826967D01*
Y299725D01*
X827133D01*
Y299891D01*
X827465D01*
Y300057D01*
X827630D01*
Y300223D01*
X827796D01*
Y300389D01*
X827962D01*
Y300555D01*
X828128D01*
Y300720D01*
X828294D01*
Y300886D01*
X828460D01*
Y301052D01*
X828626D01*
Y301218D01*
X828792D01*
Y301384D01*
X828957D01*
Y301550D01*
X829123D01*
Y301716D01*
X829455D01*
Y301882D01*
X829621D01*
Y302047D01*
X829787D01*
Y302213D01*
X829953D01*
Y302379D01*
X830118D01*
Y302545D01*
X830284D01*
Y302711D01*
X830450D01*
Y302877D01*
X830616D01*
Y303043D01*
X830782D01*
Y303209D01*
X830948D01*
Y303374D01*
X831114D01*
Y303540D01*
X831280D01*
Y303706D01*
X831611D01*
Y303872D01*
X831777D01*
Y304038D01*
X831943D01*
Y304204D01*
X832109D01*
Y304370D01*
X832275D01*
Y304536D01*
X832441D01*
Y304701D01*
X832607D01*
Y304867D01*
X832773D01*
Y305033D01*
X832938D01*
Y305199D01*
X833104D01*
Y305365D01*
X833436D01*
Y305531D01*
X833602D01*
Y305697D01*
X833768D01*
Y305863D01*
X833934D01*
Y306028D01*
X834100D01*
Y306194D01*
X834265D01*
Y306360D01*
X834431D01*
Y306526D01*
X834597D01*
Y306692D01*
X834763D01*
Y306858D01*
X834929D01*
Y307024D01*
X835095D01*
Y307190D01*
X835261D01*
Y307355D01*
X835426D01*
Y307521D01*
X835758D01*
Y307687D01*
X835924D01*
Y307853D01*
X836090D01*
Y308019D01*
X836256D01*
Y308185D01*
X836422D01*
Y308351D01*
X836588D01*
Y308517D01*
X836753D01*
Y308682D01*
X836919D01*
Y308848D01*
X837085D01*
Y309014D01*
X837251D01*
Y309180D01*
X837417D01*
Y309346D01*
X837583D01*
Y309512D01*
X837915D01*
Y309678D01*
X838081D01*
Y309844D01*
X838247D01*
Y310009D01*
X838412D01*
Y310175D01*
X838578D01*
Y310341D01*
X838744D01*
Y310507D01*
X838910D01*
Y310673D01*
X839076D01*
Y310839D01*
X839242D01*
Y311005D01*
X839408D01*
Y311171D01*
X839574D01*
Y311336D01*
X839739D01*
Y311502D01*
X840071D01*
Y311668D01*
X840237D01*
Y311834D01*
X840403D01*
Y312000D01*
X840569D01*
Y312166D01*
X840735D01*
Y312332D01*
X840900D01*
Y312498D01*
X841066D01*
Y312663D01*
X841232D01*
Y312829D01*
X841398D01*
Y312995D01*
X841564D01*
Y313161D01*
X841896D01*
Y313327D01*
X842062D01*
Y313493D01*
X842227D01*
Y313659D01*
X842393D01*
Y313825D01*
X842559D01*
Y313990D01*
X842725D01*
Y314156D01*
X842891D01*
Y314322D01*
X843057D01*
Y314488D01*
X843223D01*
Y314654D01*
X843389D01*
Y314820D01*
X843555D01*
Y314986D01*
X843720D01*
Y315152D01*
X844052D01*
Y315483D01*
X844384D01*
Y315649D01*
X844550D01*
Y315815D01*
X844716D01*
Y315981D01*
X844882D01*
Y316147D01*
X845047D01*
Y316313D01*
X845213D01*
Y316479D01*
X845379D01*
Y316645D01*
X845545D01*
Y316810D01*
X845711D01*
Y316976D01*
X845877D01*
Y317142D01*
X846208D01*
Y317308D01*
X846374D01*
Y317474D01*
X846540D01*
Y317640D01*
X846706D01*
Y317806D01*
X846872D01*
Y317972D01*
X847038D01*
Y318137D01*
X847204D01*
Y318303D01*
X847370D01*
Y318469D01*
X847535D01*
Y318635D01*
X847701D01*
Y318801D01*
X847867D01*
Y318967D01*
X848199D01*
Y319133D01*
X848365D01*
Y319299D01*
X848531D01*
Y319464D01*
X848697D01*
Y319630D01*
X848863D01*
Y319796D01*
X849028D01*
Y319962D01*
X849194D01*
Y320128D01*
X849360D01*
Y320294D01*
X849526D01*
Y320460D01*
X849692D01*
Y320626D01*
X849858D01*
Y322284D01*
X849526D01*
Y322118D01*
X849360D01*
Y321953D01*
X849194D01*
Y321787D01*
X849028D01*
Y321621D01*
X848863D01*
Y321455D01*
X848697D01*
Y321289D01*
X848531D01*
Y321123D01*
X848199D01*
Y320957D01*
X848033D01*
Y320792D01*
X847867D01*
Y320626D01*
X847701D01*
Y320460D01*
X847535D01*
Y320294D01*
X847370D01*
Y320128D01*
X847204D01*
Y319962D01*
X847038D01*
Y319796D01*
X846872D01*
Y319630D01*
X846706D01*
Y319464D01*
X846540D01*
Y319299D01*
X846208D01*
Y319133D01*
X846043D01*
Y318967D01*
X845877D01*
Y318801D01*
X845711D01*
Y318635D01*
X845545D01*
Y318469D01*
X845379D01*
Y318303D01*
X845213D01*
Y318137D01*
X845047D01*
Y317972D01*
X844882D01*
Y317806D01*
X844716D01*
Y317640D01*
X844550D01*
Y317474D01*
X844384D01*
Y317308D01*
X844052D01*
Y316976D01*
X843720D01*
Y316810D01*
X843555D01*
Y316645D01*
X843389D01*
Y316479D01*
X843223D01*
Y316313D01*
X843057D01*
Y316147D01*
X842891D01*
Y315981D01*
X842725D01*
Y315815D01*
X842559D01*
Y315649D01*
X842393D01*
Y315483D01*
X842227D01*
Y315318D01*
X842062D01*
Y315152D01*
X841730D01*
Y314986D01*
X841564D01*
Y314820D01*
X841398D01*
Y314654D01*
X841232D01*
Y314488D01*
X841066D01*
Y314322D01*
X840900D01*
Y314156D01*
X840735D01*
Y313990D01*
X840569D01*
Y313825D01*
X840403D01*
Y313659D01*
X840237D01*
Y313493D01*
X840071D01*
Y313327D01*
X839739D01*
Y313161D01*
X839574D01*
Y312995D01*
X839408D01*
Y312829D01*
X839242D01*
Y312663D01*
X839076D01*
Y312498D01*
X838910D01*
Y312332D01*
X838744D01*
Y312166D01*
X838578D01*
Y312000D01*
X838412D01*
Y311834D01*
X838247D01*
Y311668D01*
X838081D01*
Y311502D01*
X837915D01*
Y311336D01*
X837749D01*
Y311171D01*
X837417D01*
Y311005D01*
X837251D01*
Y310839D01*
X837085D01*
Y310673D01*
X836919D01*
Y310507D01*
X836753D01*
Y310341D01*
X836588D01*
Y310175D01*
X836422D01*
Y310009D01*
X836256D01*
Y309844D01*
X836090D01*
Y309678D01*
X835924D01*
Y309512D01*
X835758D01*
Y309346D01*
X835592D01*
Y309180D01*
X835426D01*
Y309014D01*
X835095D01*
Y308848D01*
X834929D01*
Y308682D01*
X834763D01*
Y308517D01*
X834597D01*
Y308351D01*
X834431D01*
Y308185D01*
X834265D01*
Y308019D01*
X834100D01*
Y307853D01*
X833934D01*
Y307687D01*
X833768D01*
Y307521D01*
X833602D01*
Y307355D01*
X833436D01*
Y307190D01*
X833270D01*
Y307024D01*
X832938D01*
Y306858D01*
X832773D01*
Y306692D01*
X832607D01*
Y306526D01*
X832441D01*
Y306360D01*
X832275D01*
Y306194D01*
X832109D01*
Y306028D01*
X831943D01*
Y305863D01*
X831777D01*
Y305697D01*
X831611D01*
Y305531D01*
X831445D01*
Y305365D01*
X831280D01*
Y305199D01*
X830948D01*
Y305033D01*
X830782D01*
Y304867D01*
X830616D01*
Y304701D01*
X830450D01*
Y304536D01*
X830284D01*
Y304370D01*
X830118D01*
Y304204D01*
X829953D01*
Y304038D01*
X829787D01*
Y303872D01*
X829621D01*
Y303706D01*
X829455D01*
Y303540D01*
X829289D01*
Y303374D01*
X829123D01*
Y303209D01*
X828792D01*
Y302877D01*
X828460D01*
Y302711D01*
X828294D01*
Y302545D01*
X828128D01*
Y302379D01*
X827962D01*
Y302213D01*
X827796D01*
Y302047D01*
X827630D01*
Y301882D01*
X827465D01*
Y301716D01*
X827299D01*
Y301550D01*
X827133D01*
Y301384D01*
X826967D01*
Y301218D01*
X826801D01*
Y301052D01*
X826469D01*
Y300886D01*
X826303D01*
Y300720D01*
X826137D01*
Y300555D01*
X825972D01*
Y300389D01*
X825806D01*
Y300223D01*
X825640D01*
Y300057D01*
X825474D01*
Y299891D01*
X825308D01*
Y299725D01*
X825142D01*
Y299559D01*
X824976D01*
Y299393D01*
X824810D01*
Y299228D01*
X824479D01*
Y299062D01*
X824313D01*
Y298896D01*
X824147D01*
Y298730D01*
X823981D01*
Y298564D01*
X823815D01*
Y298398D01*
X823649D01*
Y298232D01*
X823483D01*
Y298066D01*
X823317D01*
Y297901D01*
X823152D01*
Y297735D01*
X822986D01*
Y297569D01*
X822820D01*
Y297403D01*
X822654D01*
Y297237D01*
X822488D01*
Y297071D01*
X822156D01*
Y296905D01*
X821991D01*
Y296739D01*
X821825D01*
Y296574D01*
X821659D01*
Y296408D01*
X821493D01*
Y296242D01*
X821327D01*
Y296076D01*
X821161D01*
Y295910D01*
X820995D01*
Y295744D01*
X820829D01*
Y295578D01*
X820664D01*
Y295412D01*
X820498D01*
Y295247D01*
X820332D01*
Y295081D01*
X820000D01*
Y294915D01*
X819834D01*
Y294749D01*
X819668D01*
Y294583D01*
X819502D01*
Y294417D01*
X819336D01*
Y294251D01*
X819171D01*
Y294085D01*
X819005D01*
Y293920D01*
X818839D01*
Y293754D01*
X818673D01*
Y293588D01*
X818507D01*
Y293422D01*
X818341D01*
Y293256D01*
X818175D01*
Y293090D01*
X818009D01*
Y292924D01*
X817678D01*
Y292758D01*
X817512D01*
Y297735D01*
X817678D01*
Y297901D01*
X817844D01*
Y298066D01*
X818009D01*
Y298232D01*
X818175D01*
Y298398D01*
X818341D01*
Y298564D01*
X818507D01*
Y298730D01*
X818673D01*
Y298896D01*
X818839D01*
Y299062D01*
X819005D01*
Y299228D01*
X819171D01*
Y299393D01*
X819336D01*
Y299559D01*
X819668D01*
Y299891D01*
X820000D01*
Y300057D01*
X820166D01*
Y300223D01*
X820332D01*
Y300389D01*
X820498D01*
Y300555D01*
X820664D01*
Y300720D01*
X820829D01*
Y300886D01*
X820995D01*
Y301052D01*
X821161D01*
Y301218D01*
X821327D01*
Y301384D01*
X821493D01*
Y301550D01*
X821659D01*
Y301716D01*
X821991D01*
Y302047D01*
X822322D01*
Y302213D01*
X822488D01*
Y302379D01*
X822654D01*
Y302545D01*
X822820D01*
Y302711D01*
X822986D01*
Y302877D01*
X823152D01*
Y303043D01*
X823317D01*
Y303209D01*
X823483D01*
Y303374D01*
X823649D01*
Y303540D01*
X823815D01*
Y303706D01*
X823981D01*
Y303872D01*
X824147D01*
Y304038D01*
X824479D01*
Y304204D01*
X824645D01*
Y304370D01*
X824810D01*
Y304536D01*
X824976D01*
Y304701D01*
X825142D01*
Y304867D01*
X825308D01*
Y305033D01*
X825474D01*
Y305199D01*
X825640D01*
Y305365D01*
X825806D01*
Y305531D01*
X825972D01*
Y305697D01*
X826137D01*
Y305863D01*
X826303D01*
Y306028D01*
X826635D01*
Y306194D01*
X826801D01*
Y306360D01*
X826967D01*
Y306526D01*
X827133D01*
Y306692D01*
X827299D01*
Y306858D01*
X827465D01*
Y307024D01*
X827630D01*
Y307190D01*
X827796D01*
Y307355D01*
X827962D01*
Y307521D01*
X828128D01*
Y307687D01*
X828294D01*
Y307853D01*
X828460D01*
Y308019D01*
X828626D01*
Y308185D01*
X828792D01*
Y308351D01*
X829123D01*
Y308682D01*
X829455D01*
Y308848D01*
X829621D01*
Y309014D01*
X829787D01*
Y309180D01*
X829953D01*
Y309346D01*
X830118D01*
Y309512D01*
X830284D01*
Y309678D01*
X830450D01*
Y309844D01*
X830616D01*
Y310009D01*
X830782D01*
Y310175D01*
X830948D01*
Y310341D01*
X831114D01*
Y310507D01*
X831280D01*
Y310673D01*
X831611D01*
Y310839D01*
X831777D01*
Y311005D01*
X831943D01*
Y311171D01*
X832109D01*
Y311336D01*
X832275D01*
Y311502D01*
X832441D01*
Y311668D01*
X832607D01*
Y311834D01*
X832773D01*
Y312000D01*
X832938D01*
Y312166D01*
X833104D01*
Y312332D01*
X833270D01*
Y312498D01*
X833436D01*
Y312663D01*
X833602D01*
Y312829D01*
X833768D01*
Y312995D01*
X834100D01*
Y313161D01*
X834265D01*
Y313327D01*
X834431D01*
Y313493D01*
X834597D01*
Y313659D01*
X834763D01*
Y313825D01*
X834929D01*
Y313990D01*
X835095D01*
Y314156D01*
X835261D01*
Y314322D01*
X835426D01*
Y314488D01*
X835592D01*
Y314654D01*
X835758D01*
Y314820D01*
X836090D01*
Y314986D01*
X836256D01*
Y315152D01*
X836422D01*
Y315318D01*
X836588D01*
Y315483D01*
X836753D01*
Y315649D01*
X836919D01*
Y315815D01*
X837085D01*
Y315981D01*
X837251D01*
Y316147D01*
X837417D01*
Y316313D01*
X837583D01*
Y316479D01*
X837749D01*
Y316645D01*
X837915D01*
Y316810D01*
X838081D01*
Y316976D01*
X838247D01*
Y317142D01*
X838412D01*
Y318635D01*
X838081D01*
Y318469D01*
X837749D01*
Y318137D01*
X837417D01*
Y317972D01*
X837251D01*
Y317806D01*
X837085D01*
Y317640D01*
X836919D01*
Y317474D01*
X836753D01*
Y317308D01*
X836588D01*
Y317142D01*
X836422D01*
Y316976D01*
X836256D01*
Y316810D01*
X836090D01*
Y316645D01*
X835758D01*
Y316479D01*
X835592D01*
Y316313D01*
X835426D01*
Y316147D01*
X835261D01*
Y315981D01*
X835095D01*
Y315815D01*
X834929D01*
Y315649D01*
X834763D01*
Y315483D01*
X834597D01*
Y315318D01*
X834431D01*
Y315152D01*
X834100D01*
Y314986D01*
X833934D01*
Y314820D01*
X833768D01*
Y314654D01*
X833602D01*
Y314488D01*
X833436D01*
Y314322D01*
X833270D01*
Y314156D01*
X833104D01*
Y313990D01*
X832938D01*
Y313825D01*
X832773D01*
Y313659D01*
X832607D01*
Y313493D01*
X832275D01*
Y313327D01*
X832109D01*
Y313161D01*
X831943D01*
Y312995D01*
X831777D01*
Y312829D01*
X831611D01*
Y312663D01*
X831445D01*
Y312498D01*
X831280D01*
Y312332D01*
X831114D01*
Y312166D01*
X830948D01*
Y312000D01*
X830782D01*
Y311834D01*
X830450D01*
Y311668D01*
X830284D01*
Y311502D01*
X830118D01*
Y311336D01*
X829953D01*
Y311171D01*
X829787D01*
Y311005D01*
X829621D01*
Y310839D01*
X829455D01*
Y310673D01*
X829289D01*
Y310507D01*
X829123D01*
Y310341D01*
X828957D01*
Y310175D01*
X828626D01*
Y310009D01*
X828460D01*
Y309844D01*
X828294D01*
Y332237D01*
X866611D01*
Y295910D01*
D02*
G37*
G36*
X710000Y359000D02*
Y331000D01*
X670000D01*
Y359000D01*
X710000D01*
D02*
G37*
G36*
X432000Y20000D02*
X358000D01*
Y48000D01*
X432000D01*
Y20000D01*
D02*
G37*
G36*
X740000Y109000D02*
X715000D01*
Y359000D01*
X740000D01*
Y109000D01*
D02*
G37*
G36*
X383000Y360000D02*
Y330000D01*
X323000D01*
Y360000D01*
X383000D01*
D02*
G37*
G36*
X877000Y71000D02*
X747000D01*
Y97000D01*
X877000D01*
Y71000D01*
D02*
G37*
G36*
X52000Y196000D02*
X2000D01*
Y224000D01*
X52000D01*
Y196000D01*
D02*
G37*
G36*
X710000Y319000D02*
Y291000D01*
X670000D01*
Y319000D01*
X710000D01*
D02*
G37*
G36*
X440000Y150000D02*
Y125000D01*
X150000D01*
Y150000D01*
X440000D01*
D02*
G37*
G36*
X414000Y252000D02*
X314000D01*
Y277000D01*
X414000D01*
Y252000D01*
D02*
G37*
G36*
X558000Y318000D02*
X478000D01*
Y348000D01*
X558000D01*
Y318000D01*
D02*
G37*
%LPC*%
G36*
X878389Y357782D02*
X876564D01*
Y357616D01*
X876066D01*
Y357450D01*
X875735D01*
Y357284D01*
X875569D01*
Y357118D01*
X875237D01*
Y356953D01*
X875071D01*
Y356787D01*
X874905D01*
Y356621D01*
X874739D01*
Y356455D01*
X874574D01*
Y356123D01*
X874408D01*
Y355957D01*
X874242D01*
Y355460D01*
X874076D01*
Y354962D01*
X873910D01*
Y354133D01*
Y353967D01*
Y353469D01*
X874076D01*
Y352972D01*
X874242D01*
Y352640D01*
X874408D01*
Y352308D01*
X874574D01*
Y352142D01*
X874739D01*
Y351810D01*
X874905D01*
Y351645D01*
X875071D01*
Y351479D01*
X875237D01*
Y351313D01*
X875569D01*
Y351147D01*
X875900D01*
Y350981D01*
X876232D01*
Y350815D01*
X876564D01*
Y350649D01*
X878389D01*
Y350815D01*
X878886D01*
Y350981D01*
X879218D01*
Y351147D01*
X879550D01*
Y351313D01*
X879716D01*
Y351479D01*
X879882D01*
Y351645D01*
X880047D01*
Y351810D01*
X880213D01*
Y351976D01*
X880379D01*
Y352142D01*
X880545D01*
Y352474D01*
X880711D01*
Y352806D01*
X880877D01*
Y353137D01*
X881043D01*
Y355128D01*
X880877D01*
Y355626D01*
X880711D01*
Y355957D01*
X880545D01*
Y356289D01*
X880379D01*
Y356455D01*
X880213D01*
Y356787D01*
X880047D01*
Y356953D01*
X879716D01*
Y357118D01*
X879550D01*
Y357284D01*
X879218D01*
Y357450D01*
X878886D01*
Y357616D01*
X878389D01*
Y357782D01*
D02*
G37*
%LPD*%
G36*
Y356289D02*
X878720D01*
Y356123D01*
X878886D01*
Y355957D01*
X879052D01*
Y355626D01*
X879218D01*
Y354796D01*
X879052D01*
Y354464D01*
X878886D01*
Y354299D01*
X878720D01*
Y354133D01*
X878389D01*
Y353967D01*
X878057D01*
Y353801D01*
X878223D01*
Y353635D01*
X878389D01*
Y353469D01*
X878555D01*
Y353303D01*
X878720D01*
Y352972D01*
X878886D01*
Y352806D01*
X879052D01*
Y352474D01*
X879218D01*
Y352308D01*
X879384D01*
Y351976D01*
X879550D01*
Y351810D01*
X878555D01*
Y351976D01*
X878389D01*
Y352308D01*
X878223D01*
Y352640D01*
X878057D01*
Y352972D01*
X877891D01*
Y353137D01*
X877725D01*
Y353469D01*
X877559D01*
Y353635D01*
X877227D01*
Y353801D01*
X876398D01*
Y351810D01*
X875569D01*
Y354464D01*
Y354630D01*
Y356455D01*
X878389D01*
Y356289D01*
D02*
G37*
%LPC*%
G36*
X878057Y355792D02*
X876398D01*
Y354464D01*
X877891D01*
Y354630D01*
X878223D01*
Y354796D01*
X878389D01*
Y355460D01*
X878223D01*
Y355626D01*
X878057D01*
Y355792D01*
D02*
G37*
G36*
X869265Y351810D02*
X851019D01*
Y351479D01*
X851185D01*
Y351313D01*
X851517D01*
Y351147D01*
X851683D01*
Y350981D01*
X851848D01*
Y350815D01*
X852014D01*
Y350649D01*
X852180D01*
Y350483D01*
X852512D01*
Y350317D01*
X852678D01*
Y350152D01*
X863294D01*
Y340365D01*
X863460D01*
Y340199D01*
X863626D01*
Y340033D01*
X863792D01*
Y339867D01*
X863957D01*
Y339701D01*
X864123D01*
Y339535D01*
X864289D01*
Y339370D01*
X864455D01*
Y339204D01*
X864621D01*
Y339038D01*
X864787D01*
Y338872D01*
X864953D01*
Y338706D01*
X865118D01*
Y338540D01*
X865450D01*
Y339867D01*
X865284D01*
Y350152D01*
X869265D01*
Y351810D01*
D02*
G37*
G36*
X845379Y349820D02*
X845213D01*
Y340199D01*
Y340033D01*
Y337047D01*
X847038D01*
Y346171D01*
X847370D01*
Y346005D01*
X847535D01*
Y345839D01*
X847701D01*
Y345673D01*
X847867D01*
Y345507D01*
X848033D01*
Y345341D01*
X848199D01*
Y345175D01*
X848365D01*
Y345009D01*
X848531D01*
Y344844D01*
X848697D01*
Y344678D01*
X848863D01*
Y344512D01*
X849194D01*
Y344180D01*
X849526D01*
Y344014D01*
X849692D01*
Y343848D01*
X849858D01*
Y343683D01*
X850024D01*
Y343517D01*
X850190D01*
Y343351D01*
X850355D01*
Y343185D01*
X850521D01*
Y343019D01*
X850687D01*
Y342853D01*
X850853D01*
Y342687D01*
X851019D01*
Y342521D01*
X851185D01*
Y342355D01*
X851351D01*
Y342190D01*
X851517D01*
Y342024D01*
X851848D01*
Y341858D01*
X852014D01*
Y341692D01*
X852180D01*
Y341526D01*
X852346D01*
Y341360D01*
X852512D01*
Y341194D01*
X852678D01*
Y341029D01*
X852844D01*
Y340863D01*
X853009D01*
Y340697D01*
X853175D01*
Y340531D01*
X853341D01*
Y340365D01*
X853507D01*
Y340199D01*
X853839D01*
Y340033D01*
X854005D01*
Y339867D01*
X854171D01*
Y339701D01*
X854336D01*
Y339535D01*
X854502D01*
Y339370D01*
X854668D01*
Y339204D01*
X854834D01*
Y339038D01*
X855000D01*
Y338872D01*
X855166D01*
Y338706D01*
X855332D01*
Y338540D01*
X855498D01*
Y338374D01*
X855829D01*
Y338209D01*
X855995D01*
Y338043D01*
X856161D01*
Y337877D01*
X856327D01*
Y337711D01*
X856493D01*
Y337545D01*
X856659D01*
Y337379D01*
X856825D01*
Y337213D01*
X856991D01*
Y337047D01*
X859147D01*
Y337213D01*
X858981D01*
Y337379D01*
X858815D01*
Y337545D01*
X858649D01*
Y337711D01*
X858483D01*
Y337877D01*
X858152D01*
Y338043D01*
X857986D01*
Y338209D01*
X857820D01*
Y338374D01*
X857654D01*
Y338540D01*
X857488D01*
Y338706D01*
X857322D01*
Y338872D01*
X857156D01*
Y339038D01*
X856991D01*
Y339204D01*
X856825D01*
Y339370D01*
X856659D01*
Y339535D01*
X856493D01*
Y339701D01*
X856161D01*
Y339867D01*
X855995D01*
Y340033D01*
X855829D01*
Y340199D01*
X855664D01*
Y340365D01*
X855498D01*
Y340531D01*
X855332D01*
Y340697D01*
X855166D01*
Y340863D01*
X855000D01*
Y341029D01*
X854834D01*
Y341194D01*
X854668D01*
Y341360D01*
X854336D01*
Y341692D01*
X854005D01*
Y341858D01*
X853839D01*
Y342024D01*
X853673D01*
Y342190D01*
X853507D01*
Y342355D01*
X853341D01*
Y342521D01*
X853175D01*
Y342687D01*
X853009D01*
Y342853D01*
X852844D01*
Y343019D01*
X852678D01*
Y343185D01*
X852512D01*
Y343351D01*
X852346D01*
Y343517D01*
X852014D01*
Y343683D01*
X851848D01*
Y343848D01*
X851683D01*
Y344014D01*
X851517D01*
Y344180D01*
X851351D01*
Y344346D01*
X851185D01*
Y344512D01*
X851019D01*
Y344678D01*
X850853D01*
Y344844D01*
X850687D01*
Y345009D01*
X850355D01*
Y345175D01*
X850190D01*
Y345341D01*
X850024D01*
Y345507D01*
X849858D01*
Y345673D01*
X849692D01*
Y345839D01*
X849526D01*
Y346005D01*
X849360D01*
Y346171D01*
X849194D01*
Y346337D01*
X849028D01*
Y346502D01*
X848863D01*
Y346668D01*
X848697D01*
Y346834D01*
X848365D01*
Y347000D01*
X848199D01*
Y347166D01*
X848033D01*
Y347332D01*
X847867D01*
Y347498D01*
X847701D01*
Y347663D01*
X847535D01*
Y347829D01*
X847370D01*
Y347995D01*
X847204D01*
Y348161D01*
X847038D01*
Y348327D01*
X846872D01*
Y348493D01*
X846706D01*
Y348659D01*
X846540D01*
Y348825D01*
X846208D01*
Y348991D01*
X846043D01*
Y349156D01*
X845877D01*
Y349322D01*
X845711D01*
Y349488D01*
X845545D01*
Y349654D01*
X845379D01*
Y349820D01*
D02*
G37*
G36*
X834763Y351645D02*
X815853D01*
Y350152D01*
X819834D01*
Y342355D01*
Y342190D01*
Y338872D01*
X820000D01*
Y339038D01*
X820166D01*
Y339204D01*
X820332D01*
Y339370D01*
X820498D01*
Y339535D01*
X820829D01*
Y339701D01*
X820995D01*
Y339867D01*
X821161D01*
Y340033D01*
X821327D01*
Y340199D01*
X821493D01*
Y349986D01*
X821659D01*
Y350152D01*
X833104D01*
Y350317D01*
X833270D01*
Y350483D01*
X833602D01*
Y350649D01*
X833768D01*
Y350815D01*
X833934D01*
Y350981D01*
X834100D01*
Y351147D01*
X834265D01*
Y351313D01*
X834597D01*
Y351479D01*
X834763D01*
Y351645D01*
D02*
G37*
G36*
X839905Y349986D02*
X839739D01*
Y349820D01*
X839574D01*
Y349654D01*
X839408D01*
Y349488D01*
X839242D01*
Y349322D01*
X838910D01*
Y349156D01*
X838744D01*
Y348991D01*
X838578D01*
Y348825D01*
X838412D01*
Y348659D01*
X838247D01*
Y348493D01*
X838081D01*
Y348327D01*
X837749D01*
Y348161D01*
X837583D01*
Y347995D01*
X837417D01*
Y347829D01*
X837251D01*
Y347663D01*
X837085D01*
Y347498D01*
X836919D01*
Y347332D01*
X836753D01*
Y347166D01*
X836588D01*
Y347000D01*
X836256D01*
Y346834D01*
X836090D01*
Y346668D01*
X835924D01*
Y346502D01*
X835758D01*
Y346337D01*
X835592D01*
Y346171D01*
X835426D01*
Y346005D01*
X835095D01*
Y345839D01*
X834929D01*
Y345673D01*
X834763D01*
Y345507D01*
X834597D01*
Y345341D01*
X834431D01*
Y345175D01*
X834265D01*
Y345009D01*
X833934D01*
Y344844D01*
X833768D01*
Y344678D01*
X833602D01*
Y344512D01*
X833436D01*
Y344346D01*
X833270D01*
Y344180D01*
X833104D01*
Y344014D01*
X832773D01*
Y343848D01*
X832607D01*
Y343683D01*
X832441D01*
Y343517D01*
X832275D01*
Y343351D01*
X832109D01*
Y343185D01*
X831943D01*
Y343019D01*
X831777D01*
Y342853D01*
X831445D01*
Y342687D01*
X831280D01*
Y342521D01*
X831114D01*
Y342355D01*
X830948D01*
Y342190D01*
X830782D01*
Y342024D01*
X830616D01*
Y341858D01*
X830450D01*
Y341692D01*
X830118D01*
Y341526D01*
X829953D01*
Y341360D01*
X829787D01*
Y341194D01*
X829621D01*
Y341029D01*
X829455D01*
Y340863D01*
X829289D01*
Y340697D01*
X828957D01*
Y340531D01*
X828792D01*
Y340365D01*
X828626D01*
Y340199D01*
X828460D01*
Y340033D01*
X828294D01*
Y339867D01*
X828128D01*
Y339701D01*
X827796D01*
Y339535D01*
X827630D01*
Y339370D01*
X827465D01*
Y339204D01*
X827299D01*
Y339038D01*
X827133D01*
Y338872D01*
X826967D01*
Y338706D01*
X826801D01*
Y338540D01*
X826469D01*
Y338374D01*
X826303D01*
Y338209D01*
X826137D01*
Y338043D01*
X825972D01*
Y337877D01*
X825806D01*
Y337711D01*
X825640D01*
Y337545D01*
X825474D01*
Y337379D01*
X825142D01*
Y337213D01*
X824976D01*
Y337047D01*
X833602D01*
Y338540D01*
X829621D01*
Y338706D01*
X829787D01*
Y338872D01*
X829953D01*
Y339038D01*
X830118D01*
Y339204D01*
X830284D01*
Y339370D01*
X830450D01*
Y339535D01*
X830616D01*
Y339701D01*
X830782D01*
Y339867D01*
X830948D01*
Y340033D01*
X831280D01*
Y340199D01*
X831445D01*
Y340365D01*
X831611D01*
Y340531D01*
X831777D01*
Y340697D01*
X831943D01*
Y340863D01*
X832109D01*
Y341029D01*
X832275D01*
Y341194D01*
X832441D01*
Y341360D01*
X832607D01*
Y341526D01*
X832773D01*
Y341692D01*
X833104D01*
Y341858D01*
X833270D01*
Y342024D01*
X833436D01*
Y342190D01*
X833602D01*
Y342355D01*
X833768D01*
Y342521D01*
X833934D01*
Y342687D01*
X834100D01*
Y342853D01*
X834265D01*
Y343019D01*
X834431D01*
Y343185D01*
X834597D01*
Y343351D01*
X834763D01*
Y343517D01*
X834929D01*
Y343683D01*
X835261D01*
Y343848D01*
X835426D01*
Y344014D01*
X835592D01*
Y344180D01*
X835758D01*
Y344346D01*
X835924D01*
Y344512D01*
X836090D01*
Y344678D01*
X836256D01*
Y344844D01*
X836422D01*
Y345009D01*
X836588D01*
Y345175D01*
X836919D01*
Y345341D01*
X837085D01*
Y345507D01*
X837251D01*
Y345673D01*
X837417D01*
Y345839D01*
X837583D01*
Y346005D01*
X837749D01*
Y346171D01*
X837915D01*
Y346337D01*
X838081D01*
Y337047D01*
X839905D01*
Y349986D01*
D02*
G37*
G36*
X818341Y348825D02*
X814692D01*
Y348659D01*
X814526D01*
Y348493D01*
X814194D01*
Y348327D01*
X814028D01*
Y348161D01*
X813863D01*
Y347995D01*
X813697D01*
Y347829D01*
X813531D01*
Y347663D01*
X813365D01*
Y347498D01*
X813199D01*
Y347332D01*
X813033D01*
Y347166D01*
X812867D01*
Y346834D01*
X812701D01*
Y346668D01*
X812536D01*
Y346337D01*
X812370D01*
Y346005D01*
X812204D01*
Y345673D01*
X812038D01*
Y345341D01*
X811872D01*
Y344844D01*
X811706D01*
Y344180D01*
X811540D01*
Y343351D01*
X811374D01*
Y342190D01*
X811208D01*
Y339204D01*
X811374D01*
Y337711D01*
X811540D01*
Y337047D01*
X811706D01*
Y336716D01*
X811872D01*
Y336550D01*
X812038D01*
Y336384D01*
X813033D01*
Y336550D01*
X813365D01*
Y336716D01*
X813531D01*
Y336881D01*
X813697D01*
Y337047D01*
X813863D01*
Y337213D01*
X814194D01*
Y337379D01*
X814360D01*
Y337545D01*
X814526D01*
Y337711D01*
X814692D01*
Y337877D01*
X814858D01*
Y338043D01*
X815190D01*
Y338209D01*
X815355D01*
Y338374D01*
X815521D01*
Y338540D01*
X815687D01*
Y338706D01*
X816019D01*
Y338872D01*
X816185D01*
Y339038D01*
X816351D01*
Y339204D01*
X816517D01*
Y339370D01*
X816848D01*
Y339535D01*
X817014D01*
Y339701D01*
X817180D01*
Y339867D01*
X817346D01*
Y340033D01*
X817512D01*
Y340199D01*
X817844D01*
Y340365D01*
X818009D01*
Y340531D01*
X818175D01*
Y340697D01*
X818341D01*
Y348825D01*
D02*
G37*
G36*
X821161Y372545D02*
X820829D01*
Y372379D01*
X820664D01*
Y372213D01*
X820498D01*
Y372047D01*
X820332D01*
Y371881D01*
X820166D01*
Y371716D01*
X820000D01*
Y371550D01*
X819834D01*
Y371384D01*
X819668D01*
Y371218D01*
X819502D01*
Y371052D01*
X819336D01*
Y370886D01*
X819171D01*
Y370720D01*
X819005D01*
Y370555D01*
X818839D01*
Y370389D01*
X818507D01*
Y370223D01*
X818341D01*
Y370057D01*
X818175D01*
Y369891D01*
X818009D01*
Y369725D01*
X817844D01*
Y369559D01*
X817678D01*
Y369393D01*
X817512D01*
Y369227D01*
X817180D01*
Y369062D01*
X817014D01*
Y368896D01*
X816848D01*
Y368730D01*
X816683D01*
Y368564D01*
X816517D01*
Y368398D01*
X816351D01*
Y368232D01*
X816185D01*
Y368066D01*
X815853D01*
Y367901D01*
X815687D01*
Y367735D01*
X815521D01*
Y367569D01*
X815355D01*
Y367403D01*
X815190D01*
Y367237D01*
X815024D01*
Y367071D01*
X814858D01*
Y366905D01*
X814526D01*
Y366739D01*
X814360D01*
Y366573D01*
X814194D01*
Y366408D01*
X814028D01*
Y366242D01*
X813863D01*
Y366076D01*
X813697D01*
Y365910D01*
X813531D01*
Y365744D01*
X813199D01*
Y365578D01*
X813033D01*
Y365412D01*
X812867D01*
Y365247D01*
X812701D01*
Y365081D01*
X812536D01*
Y364915D01*
X812370D01*
Y364749D01*
X812038D01*
Y364583D01*
X811872D01*
Y364417D01*
X811706D01*
Y364251D01*
X811540D01*
Y364085D01*
X811374D01*
Y363919D01*
X811208D01*
Y363754D01*
X810877D01*
Y363588D01*
X810711D01*
Y363422D01*
X810545D01*
Y363256D01*
X810379D01*
Y363090D01*
X810213D01*
Y362924D01*
X809882D01*
Y362592D01*
X809550D01*
Y362427D01*
X809384D01*
Y362261D01*
X809218D01*
Y362095D01*
X809052D01*
Y361929D01*
X808886D01*
Y361763D01*
X808555D01*
Y361597D01*
X808389D01*
Y361431D01*
X808223D01*
Y361265D01*
X808057D01*
Y361100D01*
X807891D01*
Y360934D01*
X807559D01*
Y360768D01*
X807393D01*
Y360602D01*
X807227D01*
Y360436D01*
X807062D01*
Y360270D01*
X806896D01*
Y360104D01*
X806564D01*
Y359938D01*
X806398D01*
Y359772D01*
X806232D01*
Y359607D01*
X806066D01*
Y359441D01*
X805735D01*
Y359275D01*
X805569D01*
Y359109D01*
X805403D01*
Y358943D01*
X805237D01*
Y358777D01*
X805071D01*
Y358611D01*
X804905D01*
Y358446D01*
X804574D01*
Y358280D01*
X804408D01*
Y358114D01*
X804242D01*
Y357948D01*
X804076D01*
Y357782D01*
X803910D01*
Y357616D01*
X803744D01*
Y357450D01*
X803412D01*
Y357284D01*
X803247D01*
Y357118D01*
X803081D01*
Y356953D01*
X802915D01*
Y356787D01*
X802749D01*
Y356621D01*
X802583D01*
Y356455D01*
X802417D01*
Y356289D01*
X802251D01*
Y356123D01*
X802085D01*
Y355957D01*
X801919D01*
Y355792D01*
X801754D01*
Y355626D01*
X801588D01*
Y355460D01*
X801422D01*
Y355294D01*
X801256D01*
Y355128D01*
X801090D01*
Y354962D01*
X800924D01*
Y354796D01*
X800758D01*
Y354630D01*
X800592D01*
Y354299D01*
X800426D01*
Y354133D01*
X800261D01*
Y353967D01*
X800095D01*
Y353635D01*
X799929D01*
Y353469D01*
X799763D01*
Y353303D01*
X799597D01*
Y352972D01*
X799431D01*
Y352640D01*
X799265D01*
Y352474D01*
X799100D01*
Y351976D01*
X798934D01*
Y351645D01*
X798768D01*
Y351313D01*
X798602D01*
Y350815D01*
X798436D01*
Y349986D01*
X798270D01*
Y310175D01*
X798436D01*
Y309844D01*
X798602D01*
Y309512D01*
X798934D01*
Y309346D01*
X799265D01*
Y309180D01*
X800758D01*
Y309346D01*
X801588D01*
Y309512D01*
X801754D01*
Y309678D01*
X801919D01*
Y309844D01*
X802085D01*
Y310009D01*
X802251D01*
Y310175D01*
X802417D01*
Y310341D01*
X802749D01*
Y310507D01*
X802915D01*
Y310673D01*
X803081D01*
Y310839D01*
X803247D01*
Y311005D01*
X803412D01*
Y311171D01*
X803744D01*
Y311336D01*
X803910D01*
Y311502D01*
X804076D01*
Y311668D01*
X804242D01*
Y311834D01*
X804408D01*
Y312000D01*
X804574D01*
Y312166D01*
X804739D01*
Y312332D01*
X805071D01*
Y312498D01*
X805237D01*
Y312663D01*
X805403D01*
Y312829D01*
X805569D01*
Y312995D01*
X805735D01*
Y313161D01*
X805900D01*
Y313327D01*
X806232D01*
Y313493D01*
X806398D01*
Y313659D01*
X806564D01*
Y313825D01*
X806730D01*
Y313990D01*
X806896D01*
Y314156D01*
X807227D01*
Y314322D01*
X807393D01*
Y314488D01*
X807559D01*
Y314654D01*
X807725D01*
Y314820D01*
X807891D01*
Y314986D01*
X808057D01*
Y315152D01*
X808223D01*
Y315318D01*
X808555D01*
Y315483D01*
X808720D01*
Y315649D01*
X808886D01*
Y315815D01*
X809052D01*
Y315981D01*
X809218D01*
Y316147D01*
X809384D01*
Y316313D01*
X809716D01*
Y316479D01*
X809882D01*
Y316645D01*
X810047D01*
Y316810D01*
X810213D01*
Y316976D01*
X810379D01*
Y317142D01*
X810545D01*
Y317308D01*
X810877D01*
Y317474D01*
X811043D01*
Y317640D01*
X811208D01*
Y317806D01*
X811374D01*
Y317972D01*
X811540D01*
Y318137D01*
X811872D01*
Y318303D01*
X812038D01*
Y318469D01*
X812204D01*
Y318635D01*
X812370D01*
Y318801D01*
X812536D01*
Y318967D01*
X812701D01*
Y319133D01*
X812867D01*
Y319299D01*
X813199D01*
Y319464D01*
X813365D01*
Y319630D01*
X813531D01*
Y319796D01*
X813697D01*
Y319962D01*
X813863D01*
Y320128D01*
X814194D01*
Y320294D01*
X814360D01*
Y320460D01*
X814526D01*
Y320626D01*
X814692D01*
Y320792D01*
X814858D01*
Y320957D01*
X815024D01*
Y321123D01*
X815355D01*
Y321289D01*
X815521D01*
Y321455D01*
X815687D01*
Y321621D01*
X815853D01*
Y321787D01*
X816019D01*
Y321953D01*
X816185D01*
Y322118D01*
X816351D01*
Y322284D01*
X816683D01*
Y322450D01*
X816848D01*
Y322616D01*
X817014D01*
Y322782D01*
X817180D01*
Y322948D01*
X817346D01*
Y323114D01*
X817512D01*
Y323280D01*
X817844D01*
Y323446D01*
X818009D01*
Y323611D01*
X818175D01*
Y323777D01*
X818341D01*
Y323943D01*
X818507D01*
Y324109D01*
X818673D01*
Y324275D01*
X819005D01*
Y324441D01*
X819171D01*
Y324607D01*
X819336D01*
Y324772D01*
X819502D01*
Y324938D01*
X819668D01*
Y325104D01*
X820000D01*
Y325270D01*
X820166D01*
Y325436D01*
X820332D01*
Y325602D01*
X820498D01*
Y325768D01*
X820664D01*
Y325934D01*
X820829D01*
Y326100D01*
X821161D01*
Y326431D01*
X821493D01*
Y326597D01*
X821659D01*
Y326763D01*
X821825D01*
Y326929D01*
X821991D01*
Y327095D01*
X822156D01*
Y327261D01*
X822488D01*
Y327426D01*
X822654D01*
Y327592D01*
X822820D01*
Y327758D01*
X822986D01*
Y327924D01*
X823152D01*
Y328090D01*
X823483D01*
Y328256D01*
X823649D01*
Y328422D01*
X823815D01*
Y335720D01*
X821493D01*
Y335886D01*
X821659D01*
Y336052D01*
X821825D01*
Y336218D01*
X821991D01*
Y336384D01*
X822156D01*
Y336550D01*
X822488D01*
Y336716D01*
X822654D01*
Y336881D01*
X822820D01*
Y337047D01*
X822986D01*
Y337213D01*
X823152D01*
Y337379D01*
X823317D01*
Y337545D01*
X823483D01*
Y337711D01*
X823649D01*
Y338706D01*
X823815D01*
Y342521D01*
Y342687D01*
Y343683D01*
X823483D01*
Y343517D01*
X823317D01*
Y343351D01*
X823152D01*
Y343185D01*
X822986D01*
Y339370D01*
X822654D01*
Y339204D01*
X822488D01*
Y339038D01*
X822322D01*
Y338872D01*
X822156D01*
Y338706D01*
X821991D01*
Y338540D01*
X821659D01*
Y338374D01*
X821493D01*
Y338209D01*
X821327D01*
Y338043D01*
X821161D01*
Y337877D01*
X820829D01*
Y337711D01*
X820664D01*
Y337545D01*
X820498D01*
Y337379D01*
X820332D01*
Y337213D01*
X820000D01*
Y337047D01*
X819834D01*
Y336881D01*
X819668D01*
Y336716D01*
X819502D01*
Y336550D01*
X819336D01*
Y336384D01*
X819005D01*
Y336218D01*
X818839D01*
Y336052D01*
X818673D01*
Y335886D01*
X818341D01*
Y339038D01*
X818175D01*
Y338872D01*
X818009D01*
Y338706D01*
X817844D01*
Y338540D01*
X817678D01*
Y338374D01*
X817346D01*
Y338209D01*
X817180D01*
Y338043D01*
X817014D01*
Y337877D01*
X816848D01*
Y337711D01*
X816683D01*
Y337545D01*
X816517D01*
Y337379D01*
X816185D01*
Y337213D01*
X816019D01*
Y337047D01*
X815853D01*
Y336881D01*
X815687D01*
Y336716D01*
X815355D01*
Y336550D01*
X815190D01*
Y336384D01*
X814858D01*
Y336218D01*
X814692D01*
Y336052D01*
X814526D01*
Y335886D01*
X814194D01*
Y335720D01*
X814028D01*
Y335555D01*
X813697D01*
Y335389D01*
X813531D01*
Y335223D01*
X812867D01*
Y335057D01*
X811706D01*
Y335223D01*
X811208D01*
Y335389D01*
X811043D01*
Y335555D01*
X810877D01*
Y335720D01*
X810711D01*
Y335886D01*
X810545D01*
Y336218D01*
X810379D01*
Y336716D01*
X810213D01*
Y337213D01*
X810047D01*
Y338209D01*
X809882D01*
Y343351D01*
X810047D01*
Y344180D01*
X810213D01*
Y344844D01*
X810379D01*
Y345341D01*
X810545D01*
Y345839D01*
X810711D01*
Y346171D01*
X810877D01*
Y346502D01*
X811043D01*
Y347000D01*
X811208D01*
Y347332D01*
X811374D01*
Y347498D01*
X811540D01*
Y347829D01*
X811706D01*
Y347995D01*
X811872D01*
Y348327D01*
X812038D01*
Y348493D01*
X812204D01*
Y348659D01*
X812370D01*
Y348825D01*
X812536D01*
Y348991D01*
X812701D01*
Y349156D01*
X812867D01*
Y349322D01*
X813033D01*
Y349488D01*
X813199D01*
Y349654D01*
X813365D01*
Y349820D01*
X813697D01*
Y349986D01*
X813863D01*
Y350152D01*
X814194D01*
Y350317D01*
X814526D01*
Y352972D01*
X817512D01*
Y353137D01*
X817678D01*
Y353303D01*
X817844D01*
Y353469D01*
X818009D01*
Y353635D01*
X818175D01*
Y353801D01*
X818341D01*
Y353967D01*
X818507D01*
Y354133D01*
X818673D01*
Y354299D01*
X818839D01*
Y354464D01*
X819005D01*
Y354630D01*
X819171D01*
Y354796D01*
X819336D01*
Y354962D01*
X819502D01*
Y355128D01*
X819668D01*
Y355460D01*
X820000D01*
Y355792D01*
X820166D01*
Y355957D01*
X820332D01*
Y356123D01*
X820498D01*
Y356289D01*
X820664D01*
Y356455D01*
X820829D01*
Y356621D01*
X820995D01*
Y356787D01*
X821161D01*
Y372545D01*
D02*
G37*
G36*
X704543Y352474D02*
Y337526D01*
X699221Y345208D01*
X704474Y352474D01*
X700193D01*
X696976Y347800D01*
X693853Y352474D01*
X689410D01*
X694593Y345046D01*
X689294Y337526D01*
D01*
X704543D01*
Y352474D01*
D02*
G37*
G36*
X688670D02*
X675457D01*
Y349582D01*
X680131D01*
Y337526D01*
X675457D01*
D01*
X688670D01*
Y352474D01*
D02*
G37*
%LPD*%
G36*
X700054Y337526D02*
X693529D01*
X696838Y342431D01*
X700054Y337526D01*
D02*
G37*
G36*
X688670D02*
X683995D01*
Y349582D01*
X688670D01*
Y337526D01*
D02*
G37*
%LPC*%
G36*
X412007Y41775D02*
X400206D01*
D01*
X405737D01*
X405205Y41752D01*
X404672Y41729D01*
X404186Y41682D01*
X403747Y41613D01*
X403400Y41543D01*
X403238Y41520D01*
X403122Y41497D01*
X403006Y41474D01*
X402937D01*
X402891Y41451D01*
X402867D01*
X402358Y41335D01*
X401919Y41220D01*
X401548Y41127D01*
X401225Y41034D01*
X400970Y40942D01*
X400785Y40872D01*
X400692Y40849D01*
X400646Y40826D01*
Y37587D01*
X401016D01*
X401410Y37795D01*
X401780Y37980D01*
X402127Y38142D01*
X402474Y38281D01*
X402752Y38373D01*
X402960Y38443D01*
X403099Y38489D01*
X403122Y38512D01*
X403145D01*
X403562Y38628D01*
X403932Y38697D01*
X404279Y38767D01*
X404603Y38790D01*
X404857Y38813D01*
X405042Y38836D01*
X405505D01*
X405806Y38813D01*
X405922Y38790D01*
X406014D01*
X406084Y38767D01*
X406107D01*
X406477Y38697D01*
X406639Y38674D01*
X406778Y38628D01*
X406870Y38582D01*
X406963Y38558D01*
X407009Y38535D01*
X407033D01*
X407287Y38396D01*
X407472Y38258D01*
X407588Y38142D01*
X407634Y38119D01*
Y38096D01*
X407773Y37864D01*
X407842Y37633D01*
X407865Y37540D01*
Y37448D01*
Y37401D01*
Y37378D01*
Y37170D01*
X407819Y36985D01*
X407796Y36823D01*
X407750Y36684D01*
X407704Y36592D01*
X407680Y36522D01*
X407634Y36476D01*
Y36453D01*
X407426Y36244D01*
X407218Y36106D01*
X407125Y36036D01*
X407033Y35990D01*
X406986Y35967D01*
X406963D01*
X406639Y35851D01*
X406292Y35782D01*
X406153Y35759D01*
X406037Y35735D01*
X405945D01*
X405482Y35712D01*
X405251D01*
X405019Y35689D01*
X403700D01*
Y33028D01*
X405390D01*
X405552Y33005D01*
X405806D01*
X406061Y32982D01*
X406292Y32959D01*
X406477Y32936D01*
X406662Y32912D01*
X406801Y32866D01*
X406894Y32843D01*
X406963Y32820D01*
X406986D01*
X407310Y32681D01*
X407565Y32519D01*
X407657Y32427D01*
X407727Y32380D01*
X407750Y32334D01*
X407773Y32311D01*
X407889Y32172D01*
X407958Y32010D01*
X408051Y31686D01*
X408074Y31547D01*
X408097Y31432D01*
Y31339D01*
Y31316D01*
Y31061D01*
X408051Y30853D01*
X408027Y30691D01*
X407981Y30529D01*
X407935Y30413D01*
X407912Y30344D01*
X407865Y30298D01*
Y30275D01*
X407680Y30043D01*
X407472Y29835D01*
X407333Y29719D01*
X407287Y29696D01*
X407264Y29673D01*
X406894Y29465D01*
X406523Y29349D01*
X406361Y29303D01*
X406223Y29280D01*
X406130Y29256D01*
X406107D01*
X405621Y29210D01*
X405413Y29187D01*
X405228D01*
X405066Y29164D01*
X404857D01*
X404487Y29187D01*
X404094Y29233D01*
X403724Y29280D01*
X403377Y29349D01*
X403099Y29418D01*
X402867Y29488D01*
X402775Y29511D01*
X402705D01*
X402682Y29534D01*
X402659D01*
X402220Y29696D01*
X401826Y29835D01*
X401479Y29997D01*
X401178Y30136D01*
X400924Y30275D01*
X400739Y30367D01*
X400623Y30436D01*
X400577Y30460D01*
X400206D01*
Y26225D01*
Y27151D01*
X400530Y27035D01*
X400900Y26896D01*
X401248Y26804D01*
X401595Y26711D01*
X401895Y26642D01*
X402150Y26572D01*
X402243Y26549D01*
X402312D01*
X402335Y26526D01*
X402358D01*
X402891Y26433D01*
X403423Y26364D01*
X403955Y26295D01*
X404464Y26271D01*
X404904Y26248D01*
X405089Y26225D01*
X405552D01*
X406130Y26248D01*
X406662Y26271D01*
X407125Y26318D01*
X407542Y26387D01*
X407865Y26457D01*
X408097Y26503D01*
X408190Y26526D01*
X408259D01*
X408282Y26549D01*
X408305D01*
X408722Y26688D01*
X409115Y26850D01*
X409439Y27012D01*
X409740Y27174D01*
X409971Y27313D01*
X410156Y27428D01*
X410249Y27498D01*
X410295Y27521D01*
X410596Y27775D01*
X410850Y28030D01*
X411082Y28308D01*
X411244Y28539D01*
X411383Y28747D01*
X411498Y28932D01*
X411545Y29025D01*
X411568Y29071D01*
X411707Y29418D01*
X411822Y29766D01*
X411892Y30113D01*
X411961Y30413D01*
X411984Y30668D01*
X412007Y30876D01*
Y31061D01*
X411984Y31385D01*
X411961Y31686D01*
X411915Y31941D01*
X411869Y32149D01*
X411799Y32311D01*
X411753Y32450D01*
X411730Y32519D01*
X411707Y32542D01*
X411452Y32936D01*
X411336Y33121D01*
X411198Y33259D01*
X411082Y33375D01*
X411012Y33468D01*
X410943Y33514D01*
X410920Y33537D01*
X410573Y33792D01*
X410226Y33977D01*
X410087Y34046D01*
X409971Y34093D01*
X409902Y34139D01*
X409879D01*
X409462Y34278D01*
X409277Y34324D01*
X409115Y34347D01*
X408976Y34393D01*
X408884D01*
X408814Y34416D01*
X408791D01*
Y34578D01*
X409254Y34694D01*
X409647Y34879D01*
X409994Y35088D01*
X410295Y35296D01*
X410527Y35481D01*
X410689Y35643D01*
X410804Y35759D01*
X410827Y35805D01*
X411082Y36198D01*
X411290Y36569D01*
X411429Y36939D01*
X411521Y37286D01*
X411568Y37587D01*
X411614Y37818D01*
Y37911D01*
Y37980D01*
Y38003D01*
Y38026D01*
X411591Y38373D01*
X411545Y38674D01*
X411475Y38975D01*
X411406Y39206D01*
X411336Y39392D01*
X411267Y39553D01*
X411221Y39646D01*
X411198Y39669D01*
X411036Y39924D01*
X410850Y40155D01*
X410642Y40363D01*
X410434Y40525D01*
X410249Y40664D01*
X410110Y40780D01*
X410018Y40849D01*
X409971Y40872D01*
X409693Y41011D01*
X409416Y41150D01*
X409115Y41243D01*
X408837Y41335D01*
X408583Y41428D01*
X408398Y41474D01*
X408259Y41520D01*
X408213D01*
X407796Y41613D01*
X407380Y41659D01*
X406963Y41705D01*
X406570Y41752D01*
X406246D01*
X405968Y41775D01*
X412007D01*
D01*
D02*
G37*
G36*
X383916D02*
X383685D01*
X383153Y41752D01*
X382620Y41729D01*
X382135Y41682D01*
X381695Y41613D01*
X381348Y41543D01*
X381186Y41520D01*
X381070Y41497D01*
X380954Y41474D01*
X380885D01*
X380839Y41451D01*
X380816D01*
X380307Y41335D01*
X379867Y41220D01*
X379497Y41127D01*
X379173Y41034D01*
X378918Y40942D01*
X378733Y40872D01*
X378640Y40849D01*
X378594Y40826D01*
Y37587D01*
X378964D01*
X379358Y37795D01*
X379728Y37980D01*
X380075Y38142D01*
X380422Y38281D01*
X380700Y38373D01*
X380908Y38443D01*
X381047Y38489D01*
X381070Y38512D01*
X381093D01*
X381510Y38628D01*
X381880Y38697D01*
X382227Y38767D01*
X382551Y38790D01*
X382805Y38813D01*
X382991Y38836D01*
X383453D01*
X383754Y38813D01*
X383870Y38790D01*
X383963D01*
X384032Y38767D01*
X384055D01*
X384425Y38697D01*
X384587Y38674D01*
X384726Y38628D01*
X384819Y38582D01*
X384911Y38558D01*
X384958Y38535D01*
X384981D01*
X385235Y38396D01*
X385420Y38258D01*
X385536Y38142D01*
X385582Y38119D01*
Y38096D01*
X385721Y37864D01*
X385790Y37633D01*
X385814Y37540D01*
Y37448D01*
Y37401D01*
Y37378D01*
Y37170D01*
X385767Y36985D01*
X385744Y36823D01*
X385698Y36684D01*
X385652Y36592D01*
X385629Y36522D01*
X385582Y36476D01*
Y36453D01*
X385374Y36244D01*
X385166Y36106D01*
X385073Y36036D01*
X384981Y35990D01*
X384934Y35967D01*
X384911D01*
X384587Y35851D01*
X384240Y35782D01*
X384101Y35759D01*
X383986Y35735D01*
X383893D01*
X383430Y35712D01*
X383199D01*
X382967Y35689D01*
X381649D01*
Y33028D01*
X383338D01*
X383500Y33005D01*
X383754D01*
X384009Y32982D01*
X384240Y32959D01*
X384425Y32936D01*
X384610Y32912D01*
X384749Y32866D01*
X384842Y32843D01*
X384911Y32820D01*
X384934D01*
X385258Y32681D01*
X385513Y32519D01*
X385605Y32427D01*
X385675Y32380D01*
X385698Y32334D01*
X385721Y32311D01*
X385837Y32172D01*
X385906Y32010D01*
X385999Y31686D01*
X386022Y31547D01*
X386045Y31432D01*
Y31339D01*
Y31316D01*
Y31061D01*
X385999Y30853D01*
X385976Y30691D01*
X385929Y30529D01*
X385883Y30413D01*
X385860Y30344D01*
X385814Y30298D01*
Y30275D01*
X385629Y30043D01*
X385420Y29835D01*
X385281Y29719D01*
X385235Y29696D01*
X385212Y29673D01*
X384842Y29465D01*
X384472Y29349D01*
X384310Y29303D01*
X384171Y29280D01*
X384078Y29256D01*
X384055D01*
X383569Y29210D01*
X383361Y29187D01*
X383176D01*
X383014Y29164D01*
X382805D01*
X382435Y29187D01*
X382042Y29233D01*
X381672Y29280D01*
X381325Y29349D01*
X381047Y29418D01*
X380816Y29488D01*
X380723Y29511D01*
X380654D01*
X380630Y29534D01*
X380607D01*
X380168Y29696D01*
X379774Y29835D01*
X379427Y29997D01*
X379126Y30136D01*
X378872Y30275D01*
X378687Y30367D01*
X378571Y30436D01*
X378525Y30460D01*
X378154D01*
Y26225D01*
Y27151D01*
X378479Y27035D01*
X378849Y26896D01*
X379196Y26804D01*
X379543Y26711D01*
X379844Y26642D01*
X380098Y26572D01*
X380191Y26549D01*
X380260D01*
X380283Y26526D01*
X380307D01*
X380839Y26433D01*
X381371Y26364D01*
X381903Y26295D01*
X382412Y26271D01*
X382852Y26248D01*
X383037Y26225D01*
X378154D01*
X389956D01*
X383500D01*
X384078Y26248D01*
X384610Y26271D01*
X385073Y26318D01*
X385490Y26387D01*
X385814Y26457D01*
X386045Y26503D01*
X386138Y26526D01*
X386207D01*
X386230Y26549D01*
X386253D01*
X386670Y26688D01*
X387063Y26850D01*
X387387Y27012D01*
X387688Y27174D01*
X387919Y27313D01*
X388105Y27428D01*
X388197Y27498D01*
X388243Y27521D01*
X388544Y27775D01*
X388799Y28030D01*
X389030Y28308D01*
X389192Y28539D01*
X389331Y28747D01*
X389446Y28932D01*
X389493Y29025D01*
X389516Y29071D01*
X389655Y29418D01*
X389771Y29766D01*
X389840Y30113D01*
X389909Y30413D01*
X389933Y30668D01*
X389956Y30876D01*
Y31061D01*
X389933Y31385D01*
X389909Y31686D01*
X389863Y31941D01*
X389817Y32149D01*
X389747Y32311D01*
X389701Y32450D01*
X389678Y32519D01*
X389655Y32542D01*
X389400Y32936D01*
X389285Y33121D01*
X389146Y33259D01*
X389030Y33375D01*
X388961Y33468D01*
X388891Y33514D01*
X388868Y33537D01*
X388521Y33792D01*
X388174Y33977D01*
X388035Y34046D01*
X387919Y34093D01*
X387850Y34139D01*
X387827D01*
X387410Y34278D01*
X387225Y34324D01*
X387063Y34347D01*
X386924Y34393D01*
X386832D01*
X386762Y34416D01*
X386739D01*
Y34578D01*
X387202Y34694D01*
X387595Y34879D01*
X387943Y35088D01*
X388243Y35296D01*
X388475Y35481D01*
X388637Y35643D01*
X388752Y35759D01*
X388775Y35805D01*
X389030Y36198D01*
X389238Y36569D01*
X389377Y36939D01*
X389470Y37286D01*
X389516Y37587D01*
X389562Y37818D01*
Y37911D01*
Y37980D01*
Y38003D01*
Y38026D01*
X389539Y38373D01*
X389493Y38674D01*
X389423Y38975D01*
X389354Y39206D01*
X389285Y39392D01*
X389215Y39553D01*
X389169Y39646D01*
X389146Y39669D01*
X388984Y39924D01*
X388799Y40155D01*
X388590Y40363D01*
X388382Y40525D01*
X388197Y40664D01*
X388058Y40780D01*
X387966Y40849D01*
X387919Y40872D01*
X387642Y41011D01*
X387364Y41150D01*
X387063Y41243D01*
X386786Y41335D01*
X386531Y41428D01*
X386346Y41474D01*
X386207Y41520D01*
X386161D01*
X385744Y41613D01*
X385328Y41659D01*
X384911Y41705D01*
X384518Y41752D01*
X384194D01*
X383916Y41775D01*
D02*
G37*
G36*
X428899Y41474D02*
X413650D01*
X419111Y26526D01*
X428899D01*
X423415D01*
X428899Y41474D01*
D02*
G37*
G36*
X396944Y30483D02*
X393195D01*
Y26526D01*
X396944D01*
Y30483D01*
D02*
G37*
G36*
X369200Y39854D02*
X361101D01*
Y26503D01*
D01*
Y31825D01*
X366446D01*
Y26503D01*
X374545D01*
X369200D01*
Y31825D01*
X374545D01*
Y34532D01*
X369200D01*
Y39854D01*
D02*
G37*
%LPD*%
G36*
X421310Y30923D02*
X417677Y41474D01*
X424942D01*
X421310Y30923D01*
D02*
G37*
G36*
X366446Y34532D02*
X361101D01*
Y39854D01*
X366446D01*
Y34532D01*
D02*
G37*
%LPC*%
G36*
X734974Y355239D02*
X732359D01*
Y352161D01*
X719980D01*
Y355239D01*
Y345266D01*
Y348829D01*
X720211Y348806D01*
X720396Y348760D01*
X720581Y348714D01*
X720720Y348644D01*
X720836Y348598D01*
X720928Y348552D01*
X720975Y348529D01*
X720998Y348505D01*
X721137Y348390D01*
X721275Y348274D01*
X721461Y348019D01*
X721553Y347927D01*
X721599Y347834D01*
X721623Y347765D01*
X721646Y347742D01*
X721785Y347395D01*
X721877Y347024D01*
X721900Y346862D01*
X721923Y346747D01*
X721946Y346654D01*
Y346631D01*
X721993Y346145D01*
Y345914D01*
X722016Y345705D01*
Y345266D01*
X719980D01*
X734974D01*
Y355239D01*
D02*
G37*
G36*
X720026Y342350D02*
D01*
Y338393D01*
X730577Y334761D01*
X720026Y331128D01*
Y327101D01*
X734974D01*
Y336866D01*
X720026Y342350D01*
D02*
G37*
G36*
X726991Y318493D02*
X726667D01*
X725973Y318470D01*
X725348Y318424D01*
X724816Y318355D01*
X724330Y318262D01*
X724122Y318216D01*
X723960Y318170D01*
X723798Y318146D01*
X723659Y318100D01*
X723566Y318077D01*
X723497Y318054D01*
X723451Y318031D01*
X723428D01*
X722942Y317846D01*
X722525Y317614D01*
X722132Y317383D01*
X721831Y317175D01*
X721576Y316966D01*
X721391Y316804D01*
X721275Y316689D01*
X721229Y316642D01*
X720952Y316342D01*
X720720Y316018D01*
X720535Y315694D01*
X720373Y315416D01*
X720257Y315161D01*
X720165Y314953D01*
X720118Y314814D01*
X720095Y314791D01*
Y314768D01*
X719980Y314352D01*
X719887Y313935D01*
X719818Y313519D01*
X719771Y313125D01*
X719748Y312801D01*
X719725Y312524D01*
Y318493D01*
D01*
Y306253D01*
X735275D01*
Y310210D01*
X735252Y310973D01*
X735182Y311667D01*
X735090Y312292D01*
X735043Y312570D01*
X734974Y312847D01*
X734928Y313079D01*
X734882Y313287D01*
X734835Y313449D01*
X734789Y313611D01*
X734743Y313727D01*
X734719Y313819D01*
X734696Y313866D01*
Y313889D01*
X734442Y314444D01*
X734164Y314976D01*
X733863Y315416D01*
X733562Y315809D01*
X733308Y316110D01*
X733077Y316342D01*
X733007Y316411D01*
X732938Y316480D01*
X732915Y316504D01*
X732891Y316527D01*
X732452Y316874D01*
X731989Y317175D01*
X731549Y317429D01*
X731110Y317637D01*
X730740Y317799D01*
X730577Y317869D01*
X730439Y317915D01*
X730346Y317961D01*
X730254Y317985D01*
X730207Y318008D01*
X730184D01*
X729559Y318170D01*
X728958Y318285D01*
X728356Y318378D01*
X727824Y318424D01*
X727569Y318447D01*
X727361Y318470D01*
X727153D01*
X726991Y318493D01*
D02*
G37*
G36*
X735275Y303800D02*
X730439D01*
X730115Y303777D01*
X729814Y303754D01*
X729559Y303708D01*
X729351Y303661D01*
X729189Y303592D01*
X729050Y303545D01*
X728981Y303522D01*
X728958Y303499D01*
X728564Y303245D01*
X728379Y303129D01*
X728241Y302990D01*
X728125Y302875D01*
X728032Y302805D01*
X727986Y302736D01*
X727963Y302712D01*
X727708Y302365D01*
X727523Y302018D01*
X727454Y301880D01*
X727407Y301764D01*
X727361Y301694D01*
Y301671D01*
X727222Y301255D01*
X727176Y301070D01*
X727153Y300908D01*
X727107Y300769D01*
Y300676D01*
X727084Y300607D01*
Y300584D01*
X726921D01*
X726806Y301046D01*
X726621Y301440D01*
X726412Y301787D01*
X726204Y302088D01*
X726019Y302319D01*
X725857Y302481D01*
X725741Y302597D01*
X725695Y302620D01*
X725302Y302875D01*
X724931Y303083D01*
X724561Y303221D01*
X724214Y303314D01*
X723913Y303360D01*
X723682Y303407D01*
X723589D01*
X723520D01*
X723497D01*
X723474D01*
X723127Y303384D01*
X722826Y303337D01*
X722525Y303268D01*
X722294Y303198D01*
X722109Y303129D01*
X721946Y303060D01*
X721854Y303013D01*
X721831Y302990D01*
X721576Y302828D01*
X721345Y302643D01*
X721137Y302435D01*
X720975Y302227D01*
X720836Y302041D01*
X720720Y301903D01*
X720651Y301810D01*
X720628Y301764D01*
X720489Y301486D01*
X720350Y301208D01*
X720257Y300908D01*
X720165Y300630D01*
X720072Y300375D01*
X720026Y300190D01*
X719980Y300051D01*
Y300005D01*
X719887Y299589D01*
X719841Y299172D01*
X719795Y298756D01*
X719748Y298362D01*
Y298038D01*
X719725Y297761D01*
Y303800D01*
D01*
Y291999D01*
X734349D01*
X734465Y292323D01*
X734604Y292693D01*
X734696Y293040D01*
X734789Y293387D01*
X734858Y293688D01*
X734928Y293943D01*
X734951Y294035D01*
Y294105D01*
X734974Y294128D01*
Y294151D01*
X735067Y294683D01*
X735136Y295215D01*
X735205Y295748D01*
X735229Y296257D01*
X735252Y296696D01*
X735275Y296881D01*
Y297344D01*
X735252Y297923D01*
X735229Y298455D01*
X735182Y298918D01*
X735113Y299334D01*
X735043Y299658D01*
X734997Y299890D01*
X734974Y299982D01*
Y300051D01*
X734951Y300075D01*
Y300098D01*
X734812Y300514D01*
X734650Y300908D01*
X734488Y301232D01*
X734326Y301532D01*
X734187Y301764D01*
X734072Y301949D01*
X734002Y302041D01*
X733979Y302088D01*
X733725Y302388D01*
X733470Y302643D01*
X733192Y302875D01*
X732961Y303036D01*
X732753Y303175D01*
X732568Y303291D01*
X732475Y303337D01*
X732429Y303360D01*
X732082Y303499D01*
X731734Y303615D01*
X731387Y303684D01*
X731087Y303754D01*
X730832Y303777D01*
X730624Y303800D01*
X735275D01*
D02*
G37*
G36*
Y289454D02*
D01*
Y283275D01*
X735252Y283877D01*
X735205Y284432D01*
X735113Y284918D01*
X735020Y285335D01*
X734951Y285659D01*
X734905Y285798D01*
X734858Y285913D01*
X734835Y286006D01*
X734812Y286075D01*
X734789Y286098D01*
Y286122D01*
X734581Y286538D01*
X734349Y286931D01*
X734118Y287255D01*
X733886Y287533D01*
X733655Y287741D01*
X733493Y287903D01*
X733377Y288019D01*
X733331Y288042D01*
X732938Y288297D01*
X732544Y288505D01*
X732128Y288690D01*
X731734Y288852D01*
X731387Y288968D01*
X731133Y289037D01*
X731017Y289060D01*
X730948Y289083D01*
X730901Y289107D01*
X730878D01*
X730300Y289222D01*
X729721Y289315D01*
X729166Y289361D01*
X728634Y289407D01*
X728402Y289431D01*
X728171D01*
X727986Y289454D01*
X735275D01*
X727986D01*
D01*
X727500D01*
X726829Y289431D01*
X726181Y289407D01*
X725626Y289338D01*
X725140Y289292D01*
X724931Y289245D01*
X724746Y289222D01*
X724584Y289199D01*
X724446Y289153D01*
X724330Y289130D01*
X724260D01*
X724214Y289107D01*
X724191D01*
X723659Y288968D01*
X723196Y288806D01*
X722780Y288621D01*
X722432Y288459D01*
X722155Y288297D01*
X721946Y288158D01*
X721808Y288065D01*
X721761Y288042D01*
X721391Y287741D01*
X721090Y287440D01*
X720836Y287117D01*
X720604Y286816D01*
X720443Y286561D01*
X720327Y286330D01*
X720257Y286191D01*
X720234Y286168D01*
Y286145D01*
X720072Y285682D01*
X719933Y285219D01*
X719841Y284733D01*
X719795Y284270D01*
X719748Y283877D01*
Y283715D01*
X719725Y283553D01*
Y283275D01*
X719748Y282674D01*
X719795Y282118D01*
X719887Y281632D01*
X719980Y281239D01*
X720072Y280892D01*
X720118Y280753D01*
X720165Y280637D01*
X720188Y280545D01*
X720211Y280476D01*
X720234Y280452D01*
Y280429D01*
X720443Y280013D01*
X720674Y279643D01*
X720905Y279295D01*
X721137Y279018D01*
X721368Y278810D01*
X721530Y278647D01*
X721646Y278555D01*
X721692Y278509D01*
X722085Y278254D01*
X722502Y278023D01*
X722895Y277838D01*
X723289Y277699D01*
X723613Y277560D01*
X723890Y277491D01*
X723983Y277467D01*
X724052Y277444D01*
X724099Y277421D01*
X724122D01*
X724677Y277305D01*
X725256Y277236D01*
X725811Y277167D01*
X726343Y277143D01*
X726598Y277120D01*
X726806D01*
X727014Y277097D01*
X719725D01*
D01*
X735275D01*
Y289454D01*
D02*
G37*
G36*
X734974Y274112D02*
X731017D01*
Y270364D01*
X734974D01*
Y274112D01*
D02*
G37*
G36*
X735275Y267124D02*
X730439D01*
X730115Y267101D01*
X729814Y267078D01*
X729559Y267031D01*
X729351Y266985D01*
X729189Y266916D01*
X729050Y266870D01*
X728981Y266846D01*
X728958Y266823D01*
X728564Y266569D01*
X728379Y266453D01*
X728241Y266314D01*
X728125Y266199D01*
X728032Y266129D01*
X727986Y266060D01*
X727963Y266036D01*
X727708Y265689D01*
X727523Y265342D01*
X727454Y265203D01*
X727407Y265088D01*
X727361Y265018D01*
Y264995D01*
X727222Y264579D01*
X727176Y264394D01*
X727153Y264232D01*
X727107Y264093D01*
Y264000D01*
X727084Y263931D01*
Y263908D01*
X726921D01*
X726806Y264370D01*
X726621Y264764D01*
X726412Y265111D01*
X726204Y265412D01*
X726019Y265643D01*
X725857Y265805D01*
X725741Y265921D01*
X725695Y265944D01*
X725302Y266199D01*
X724931Y266407D01*
X724561Y266546D01*
X724214Y266638D01*
X723913Y266684D01*
X723682Y266731D01*
X723589D01*
X723520D01*
X723497D01*
X723474D01*
X723127Y266708D01*
X722826Y266661D01*
X722525Y266592D01*
X722294Y266523D01*
X722109Y266453D01*
X721946Y266384D01*
X721854Y266337D01*
X721831Y266314D01*
X721576Y266152D01*
X721345Y265967D01*
X721137Y265759D01*
X720975Y265551D01*
X720836Y265366D01*
X720720Y265227D01*
X720651Y265134D01*
X720628Y265088D01*
X720489Y264810D01*
X720350Y264533D01*
X720257Y264232D01*
X720165Y263954D01*
X720072Y263699D01*
X720026Y263514D01*
X719980Y263375D01*
Y263329D01*
X719887Y262913D01*
X719841Y262496D01*
X719795Y262080D01*
X719748Y261686D01*
Y261362D01*
X719725Y261085D01*
Y267124D01*
D01*
Y255323D01*
X734349D01*
X734465Y255647D01*
X734604Y256017D01*
X734696Y256364D01*
X734789Y256711D01*
X734858Y257012D01*
X734928Y257267D01*
X734951Y257359D01*
Y257429D01*
X734974Y257452D01*
Y257475D01*
X735067Y258007D01*
X735136Y258539D01*
X735205Y259072D01*
X735229Y259581D01*
X735252Y260020D01*
X735275Y260205D01*
Y260668D01*
X735252Y261247D01*
X735229Y261779D01*
X735182Y262242D01*
X735113Y262658D01*
X735043Y262982D01*
X734997Y263214D01*
X734974Y263306D01*
Y263375D01*
X734951Y263399D01*
Y263422D01*
X734812Y263838D01*
X734650Y264232D01*
X734488Y264556D01*
X734326Y264856D01*
X734187Y265088D01*
X734072Y265273D01*
X734002Y265366D01*
X733979Y265412D01*
X733725Y265713D01*
X733470Y265967D01*
X733192Y266199D01*
X732961Y266360D01*
X732753Y266499D01*
X732568Y266615D01*
X732475Y266661D01*
X732429Y266684D01*
X732082Y266823D01*
X731734Y266939D01*
X731387Y267008D01*
X731087Y267078D01*
X730832Y267101D01*
X730624Y267124D01*
X735275D01*
D02*
G37*
G36*
X734974Y252893D02*
X732105D01*
Y246160D01*
X731989Y246322D01*
X731827Y246530D01*
X731503Y246970D01*
X731364Y247155D01*
X731249Y247340D01*
X731156Y247432D01*
X731133Y247479D01*
X730577Y248150D01*
X730323Y248474D01*
X730092Y248751D01*
X729883Y248983D01*
X729721Y249145D01*
X729629Y249261D01*
X729583Y249307D01*
X729073Y249816D01*
X728587Y250256D01*
X728148Y250626D01*
X727755Y250950D01*
X727407Y251181D01*
X727153Y251343D01*
X727060Y251412D01*
X726991Y251459D01*
X726968Y251482D01*
X726945D01*
X726459Y251713D01*
X725996Y251898D01*
X725533Y252014D01*
X725117Y252107D01*
X724770Y252153D01*
X724631Y252176D01*
X724492Y252199D01*
X724399D01*
X724330D01*
X724284D01*
X724260D01*
X723867Y252176D01*
X723497Y252130D01*
X723150Y252060D01*
X722826Y251968D01*
X722525Y251852D01*
X722247Y251736D01*
X721993Y251597D01*
X721761Y251459D01*
X721576Y251320D01*
X721391Y251181D01*
X721252Y251065D01*
X721114Y250950D01*
X721021Y250857D01*
X720952Y250788D01*
X720928Y250741D01*
X720905Y250718D01*
X720697Y250417D01*
X720512Y250117D01*
X720350Y249769D01*
X720211Y249422D01*
X720003Y248705D01*
X719864Y248011D01*
X719818Y247687D01*
X719795Y247386D01*
X719771Y247108D01*
X719748Y246877D01*
X719725Y246692D01*
Y252893D01*
D01*
Y241138D01*
X734974D01*
Y252893D01*
D02*
G37*
G36*
Y237945D02*
Y231189D01*
X723011Y237945D01*
X720026D01*
Y226237D01*
X734974D01*
Y237945D01*
D02*
G37*
G36*
X730994Y223668D02*
X730809D01*
X730323Y223645D01*
X729860Y223553D01*
X729467Y223437D01*
X729120Y223298D01*
X728842Y223136D01*
X728634Y223020D01*
X728495Y222928D01*
X728449Y222905D01*
X728079Y222581D01*
X727778Y222211D01*
X727500Y221840D01*
X727269Y221470D01*
X727084Y221123D01*
X726968Y220845D01*
X726921Y220730D01*
X726875Y220660D01*
X726852Y220614D01*
Y220591D01*
X726783D01*
X726551Y221077D01*
X726320Y221493D01*
X726088Y221840D01*
X725857Y222118D01*
X725672Y222349D01*
X725510Y222511D01*
X725417Y222604D01*
X725371Y222627D01*
X725047Y222858D01*
X724723Y223020D01*
X724399Y223136D01*
X724099Y223206D01*
X723844Y223275D01*
X723659Y223298D01*
X723520D01*
X723474D01*
X723150Y223275D01*
X722849Y223229D01*
X722571Y223159D01*
X722317Y223043D01*
X721831Y222789D01*
X721438Y222511D01*
X721137Y222211D01*
X720905Y221956D01*
X720836Y221840D01*
X720766Y221771D01*
X720720Y221725D01*
Y221701D01*
X720535Y221401D01*
X720373Y221054D01*
X720118Y220359D01*
X719933Y219642D01*
X719818Y218948D01*
X719771Y218624D01*
X719725Y218323D01*
X719702Y218045D01*
Y217814D01*
X719679Y217629D01*
Y217791D01*
Y217629D01*
Y211034D01*
Y217351D01*
X719702Y216865D01*
X719725Y216402D01*
X719795Y215986D01*
X719864Y215569D01*
X719957Y215199D01*
X720049Y214829D01*
X720142Y214505D01*
X720257Y214227D01*
X720373Y213950D01*
X720466Y213741D01*
X720558Y213533D01*
X720651Y213371D01*
X720720Y213232D01*
X720790Y213140D01*
X720813Y213094D01*
X720836Y213070D01*
X721044Y212793D01*
X721275Y212538D01*
X721530Y212307D01*
X721761Y212122D01*
X722016Y211960D01*
X722247Y211821D01*
X722479Y211728D01*
X722710Y211636D01*
X723103Y211520D01*
X723289Y211474D01*
X723428Y211451D01*
X723566Y211427D01*
X723659D01*
X723705D01*
X723728D01*
X724168Y211451D01*
X724584Y211520D01*
X724955Y211613D01*
X725256Y211728D01*
X725533Y211844D01*
X725718Y211937D01*
X725834Y212006D01*
X725880Y212029D01*
X726204Y212284D01*
X726505Y212584D01*
X726759Y212908D01*
X726968Y213209D01*
X727153Y213510D01*
X727269Y213741D01*
X727315Y213834D01*
X727361Y213904D01*
X727384Y213927D01*
Y213950D01*
X727431D01*
X727685Y213394D01*
X727940Y212908D01*
X728194Y212515D01*
X728426Y212214D01*
X728634Y211983D01*
X728819Y211821D01*
X728912Y211705D01*
X728958Y211682D01*
X729305Y211474D01*
X729629Y211312D01*
X729976Y211196D01*
X730277Y211127D01*
X730554Y211080D01*
X730763Y211034D01*
X719679D01*
X735321D01*
X730948D01*
X731295Y211057D01*
X731596Y211080D01*
X731897Y211150D01*
X732151Y211219D01*
X732359Y211266D01*
X732521Y211335D01*
X732614Y211358D01*
X732660Y211381D01*
X732938Y211543D01*
X733215Y211705D01*
X733447Y211914D01*
X733655Y212099D01*
X733817Y212261D01*
X733933Y212399D01*
X734025Y212492D01*
X734048Y212515D01*
X734257Y212816D01*
X734442Y213163D01*
X734604Y213487D01*
X734743Y213788D01*
X734835Y214065D01*
X734905Y214297D01*
X734951Y214436D01*
X734974Y214459D01*
Y214482D01*
X735090Y214945D01*
X735182Y215431D01*
X735229Y215893D01*
X735275Y216356D01*
X735298Y216750D01*
X735321Y216912D01*
Y217328D01*
X735298Y217860D01*
X735275Y218369D01*
X735205Y218855D01*
X735136Y219295D01*
X735020Y219711D01*
X734928Y220082D01*
X734812Y220429D01*
X734696Y220753D01*
X734581Y221030D01*
X734465Y221262D01*
X734349Y221470D01*
X734257Y221655D01*
X734187Y221771D01*
X734118Y221887D01*
X734095Y221933D01*
X734072Y221956D01*
X733817Y222257D01*
X733562Y222511D01*
X733308Y222743D01*
X733030Y222951D01*
X732753Y223113D01*
X732475Y223252D01*
X732220Y223368D01*
X731966Y223460D01*
X731503Y223576D01*
X731318Y223622D01*
X731133Y223645D01*
X730994Y223668D01*
D02*
G37*
G36*
X735275Y208697D02*
X730115D01*
D01*
X735275D01*
D02*
G37*
G36*
X730115D02*
X729930D01*
X729421Y208674D01*
X728981Y208605D01*
X728587Y208535D01*
X728264Y208443D01*
X727986Y208327D01*
X727801Y208257D01*
X727685Y208188D01*
X727639Y208165D01*
X727315Y207957D01*
X727037Y207725D01*
X726783Y207494D01*
X726574Y207262D01*
X726412Y207077D01*
X726274Y206892D01*
X726204Y206800D01*
X726181Y206753D01*
X726042Y206476D01*
X725903Y206198D01*
X725788Y205897D01*
X725695Y205643D01*
X725626Y205411D01*
X725579Y205226D01*
X725533Y205110D01*
Y205064D01*
X725441Y204694D01*
X725394Y204301D01*
X725348Y203953D01*
X725302Y203606D01*
Y203306D01*
X725279Y203074D01*
Y202311D01*
X725302Y202195D01*
Y202010D01*
X725325Y201686D01*
Y201455D01*
X725348Y201362D01*
Y201246D01*
X722895D01*
Y208257D01*
X720026D01*
Y208697D01*
D01*
Y197058D01*
X735275D01*
X734372D01*
X734488Y197359D01*
X734604Y197706D01*
X734719Y198030D01*
X734812Y198354D01*
X734882Y198631D01*
X734928Y198863D01*
X734951Y198955D01*
Y199025D01*
X734974Y199048D01*
Y199071D01*
X735067Y199557D01*
X735136Y200066D01*
X735182Y200575D01*
X735229Y201061D01*
X735252Y201478D01*
Y201663D01*
X735275Y201802D01*
Y202102D01*
X735252Y202658D01*
X735229Y203190D01*
X735159Y203653D01*
X735090Y204069D01*
X735043Y204393D01*
X734997Y204532D01*
X734974Y204648D01*
X734951Y204740D01*
Y204810D01*
X734928Y204833D01*
Y204856D01*
X734766Y205296D01*
X734604Y205689D01*
X734396Y206059D01*
X734210Y206383D01*
X734048Y206638D01*
X733910Y206823D01*
X733817Y206938D01*
X733794Y206985D01*
X733516Y207286D01*
X733215Y207540D01*
X732938Y207748D01*
X732660Y207934D01*
X732429Y208072D01*
X732244Y208188D01*
X732128Y208234D01*
X732082Y208257D01*
X731711Y208396D01*
X731318Y208512D01*
X730971Y208581D01*
X730624Y208651D01*
X730346Y208674D01*
X730115Y208697D01*
D02*
G37*
G36*
X734974Y194073D02*
Y187316D01*
X723011Y194073D01*
X720026D01*
Y182365D01*
X734974D01*
Y194073D01*
D02*
G37*
G36*
Y178940D02*
X731017D01*
Y175191D01*
X734974D01*
Y178940D01*
D02*
G37*
G36*
Y173132D02*
X720026Y167602D01*
Y157628D01*
X734974D01*
Y161516D01*
X731966Y162557D01*
Y168064D01*
X734974Y169106D01*
Y173132D01*
D02*
G37*
G36*
Y157004D02*
Y152330D01*
X722918D01*
Y157004D01*
X720026D01*
Y143791D01*
X734974D01*
X722918D01*
Y148465D01*
X734974D01*
Y157004D01*
D02*
G37*
G36*
X735275Y142449D02*
D01*
Y137543D01*
X735252Y137914D01*
X735229Y138215D01*
X735205Y138446D01*
Y138654D01*
X735182Y138793D01*
X735159Y138885D01*
Y138909D01*
X735067Y139395D01*
X735020Y139626D01*
X734974Y139857D01*
X734928Y140019D01*
X734882Y140181D01*
X734858Y140274D01*
Y140297D01*
X734743Y140690D01*
X734673Y140876D01*
X734604Y141038D01*
X734557Y141176D01*
X734511Y141269D01*
X734488Y141338D01*
Y141361D01*
X734303Y141755D01*
X734234Y141940D01*
X734164Y142102D01*
X734095Y142241D01*
X734048Y142356D01*
X734002Y142426D01*
Y142449D01*
X729572D01*
X730416D01*
Y142032D01*
X730624Y141801D01*
X730809Y141593D01*
X730878Y141477D01*
X730948Y141408D01*
X730971Y141361D01*
X730994Y141338D01*
X731225Y141014D01*
X731434Y140737D01*
X731503Y140621D01*
X731572Y140528D01*
X731596Y140459D01*
X731619Y140436D01*
X731850Y139996D01*
X731943Y139788D01*
X732035Y139580D01*
X732082Y139418D01*
X732128Y139279D01*
X732174Y139186D01*
Y139163D01*
X732290Y138654D01*
X732336Y138423D01*
X732359Y138215D01*
Y138029D01*
X732382Y137891D01*
Y137775D01*
X732336Y137219D01*
X732313Y136965D01*
X732267Y136757D01*
X732220Y136548D01*
X732197Y136410D01*
X732151Y136317D01*
Y136271D01*
X732058Y135993D01*
X731920Y135739D01*
X731804Y135530D01*
X731665Y135322D01*
X731549Y135160D01*
X731457Y135044D01*
X731387Y134952D01*
X731364Y134929D01*
X731156Y134720D01*
X730901Y134512D01*
X730670Y134350D01*
X730416Y134211D01*
X730207Y134096D01*
X730045Y134003D01*
X729930Y133957D01*
X729883Y133934D01*
X729513Y133795D01*
X729120Y133702D01*
X728726Y133633D01*
X728356Y133587D01*
X728032Y133563D01*
X727778Y133540D01*
X727685D01*
X727616D01*
X727569D01*
X727546D01*
X727060Y133563D01*
X726621Y133587D01*
X726227Y133656D01*
X725880Y133725D01*
X725626Y133772D01*
X725417Y133841D01*
X725302Y133864D01*
X725256Y133887D01*
X724908Y134026D01*
X724608Y134188D01*
X724353Y134350D01*
X724145Y134512D01*
X723960Y134651D01*
X723844Y134767D01*
X723751Y134836D01*
X723728Y134859D01*
X723520Y135091D01*
X723358Y135322D01*
X723219Y135553D01*
X723103Y135762D01*
X723011Y135947D01*
X722942Y136086D01*
X722895Y136178D01*
Y136201D01*
X722803Y136479D01*
X722733Y136757D01*
X722687Y137011D01*
X722641Y137266D01*
Y137451D01*
X722618Y137613D01*
Y137752D01*
X722664Y138284D01*
X722687Y138515D01*
X722733Y138723D01*
X722780Y138885D01*
X722803Y139001D01*
X722849Y139094D01*
Y139117D01*
X723034Y139580D01*
X723127Y139788D01*
X723219Y139973D01*
X723289Y140112D01*
X723358Y140228D01*
X723381Y140297D01*
X723404Y140320D01*
X723636Y140690D01*
X723751Y140852D01*
X723844Y140991D01*
X723936Y141107D01*
X723983Y141200D01*
X724029Y141246D01*
X724052Y141269D01*
X724284Y141570D01*
X724446Y141801D01*
X724515Y141870D01*
X724561Y141940D01*
X724608Y141963D01*
Y142449D01*
X720975D01*
X720836Y142125D01*
X720697Y141801D01*
X720651Y141685D01*
X720604Y141570D01*
X720558Y141500D01*
Y141477D01*
X720373Y141061D01*
X720304Y140852D01*
X720234Y140667D01*
X720188Y140482D01*
X720142Y140366D01*
X720118Y140274D01*
Y140251D01*
X720003Y139765D01*
X719957Y139533D01*
X719910Y139325D01*
X719887Y139140D01*
X719864Y139001D01*
X719841Y138909D01*
Y138862D01*
X719771Y138284D01*
X719748Y137983D01*
Y137729D01*
X719725Y137497D01*
Y137150D01*
X719748Y136525D01*
X719818Y135947D01*
X719910Y135415D01*
X720003Y134952D01*
X720049Y134744D01*
X720095Y134558D01*
X720142Y134396D01*
X720188Y134258D01*
X720234Y134142D01*
X720257Y134073D01*
X720281Y134026D01*
Y134003D01*
X720489Y133494D01*
X720743Y133031D01*
X720998Y132615D01*
X721252Y132268D01*
X721461Y131990D01*
X721646Y131782D01*
X721761Y131643D01*
X721785Y131620D01*
X721808Y131597D01*
X722224Y131250D01*
X722641Y130926D01*
X723057Y130648D01*
X723451Y130440D01*
X723798Y130278D01*
X723936Y130208D01*
X724052Y130139D01*
X724168Y130093D01*
X724237Y130069D01*
X724284Y130046D01*
X724307D01*
X724862Y129884D01*
X725417Y129746D01*
X725950Y129653D01*
X726459Y129607D01*
X726875Y129560D01*
X727060D01*
X727222Y129537D01*
X727523D01*
X728217Y129560D01*
X728865Y129630D01*
X729444Y129722D01*
X729930Y129815D01*
X730138Y129861D01*
X730346Y129907D01*
X730508Y129954D01*
X730647Y130000D01*
X730763Y130046D01*
X730832Y130069D01*
X730878Y130093D01*
X730901D01*
X731434Y130324D01*
X731897Y130578D01*
X732313Y130833D01*
X732660Y131088D01*
X732938Y131296D01*
X733146Y131481D01*
X733285Y131597D01*
X733308Y131643D01*
X733331D01*
X733678Y132036D01*
X733979Y132453D01*
X734210Y132869D01*
X734419Y133239D01*
X734581Y133563D01*
X734696Y133841D01*
X734743Y133934D01*
X734766Y134003D01*
X734789Y134049D01*
Y134073D01*
X734951Y134605D01*
X735067Y135160D01*
X735159Y135669D01*
X735205Y136132D01*
X735252Y136548D01*
Y136710D01*
X735275Y136872D01*
Y130833D01*
Y142449D01*
D02*
G37*
G36*
X726184Y129537D02*
X719725D01*
D01*
X726184D01*
D02*
G37*
G36*
X734974Y128265D02*
X720026Y122734D01*
Y112761D01*
X734974D01*
Y116649D01*
X731966Y117690D01*
Y123197D01*
X734974Y124238D01*
Y128265D01*
D02*
G37*
%LPD*%
G36*
X732359Y345266D02*
X724446D01*
Y348413D01*
X732359D01*
Y345266D01*
D02*
G37*
G36*
X734974Y327101D02*
X720026D01*
X734974Y332562D01*
Y327101D01*
D02*
G37*
G36*
X726690Y314629D02*
X726736D01*
X726875Y314606D01*
X726968D01*
X727014D01*
X727037D01*
X727084Y314490D01*
X727130Y314352D01*
X727222Y314097D01*
X727245Y313958D01*
X727269Y313866D01*
X727292Y313796D01*
Y313773D01*
X727338Y313403D01*
X727361Y313241D01*
Y313079D01*
X727384Y312963D01*
Y312801D01*
X727361Y312385D01*
Y312200D01*
X727338Y312061D01*
X727315Y311922D01*
Y311829D01*
X727292Y311760D01*
Y311737D01*
X727176Y311413D01*
X727060Y311158D01*
X726991Y311066D01*
X726945Y310996D01*
X726898Y310950D01*
Y310927D01*
X726667Y310672D01*
X726412Y310511D01*
X726320Y310441D01*
X726227Y310395D01*
X726181Y310348D01*
X726158D01*
X725764Y310233D01*
X725394Y310163D01*
X725232D01*
X725094Y310140D01*
X725001D01*
X724978D01*
X724700D01*
X724469Y310163D01*
X724260Y310210D01*
X724075Y310233D01*
X723936Y310279D01*
X723821Y310302D01*
X723751Y310325D01*
X723728D01*
X723358Y310487D01*
X723219Y310580D01*
X723103Y310649D01*
X723011Y310719D01*
X722942Y310788D01*
X722895Y310811D01*
X722872Y310834D01*
X722664Y311066D01*
X722525Y311297D01*
X722479Y311390D01*
X722432Y311436D01*
X722409Y311482D01*
Y311505D01*
X722317Y311783D01*
X722294Y312038D01*
X722271Y312130D01*
Y312269D01*
X722294Y312593D01*
X722340Y312847D01*
X722386Y312940D01*
X722409Y313009D01*
X722432Y313056D01*
Y313079D01*
X722548Y313357D01*
X722710Y313565D01*
X722826Y313704D01*
X722849Y313727D01*
X722872Y313750D01*
X723057Y313889D01*
X723242Y314028D01*
X723659Y314236D01*
X723821Y314305D01*
X723960Y314352D01*
X724052Y314398D01*
X724099D01*
X724399Y314490D01*
X724746Y314537D01*
X725070Y314583D01*
X725394Y314629D01*
X725672D01*
X725903Y314652D01*
X725996D01*
X726065D01*
X726088D01*
X726112D01*
X726389D01*
X726574D01*
X726690Y314629D01*
D02*
G37*
G36*
X729328Y314514D02*
X729629Y314444D01*
X729906Y314352D01*
X730161Y314259D01*
X730346Y314190D01*
X730508Y314120D01*
X730601Y314074D01*
X730624Y314051D01*
X730855Y313912D01*
X731087Y313750D01*
X731272Y313588D01*
X731434Y313449D01*
X731549Y313310D01*
X731665Y313195D01*
X731711Y313125D01*
X731734Y313102D01*
X731897Y312894D01*
X732012Y312662D01*
X732128Y312431D01*
X732220Y312246D01*
X732267Y312061D01*
X732313Y311922D01*
X732359Y311806D01*
Y311783D01*
X732475Y311228D01*
X732498Y310973D01*
X732521Y310742D01*
X732544Y310534D01*
Y309909D01*
X732521Y309608D01*
X732498Y309354D01*
X732475Y309122D01*
X732452Y308960D01*
X732429Y308821D01*
X732405Y308752D01*
Y308729D01*
X732336Y308544D01*
X732290Y308358D01*
X732220Y308220D01*
X732174Y308104D01*
X732151Y307988D01*
X732105Y307919D01*
X732082Y307896D01*
Y307479D01*
X735020D01*
X735043Y307595D01*
X735067Y307757D01*
X735136Y308127D01*
X735159Y308312D01*
Y308451D01*
X735182Y308544D01*
Y308590D01*
X735205Y308914D01*
X735229Y309215D01*
X735252Y309492D01*
Y309724D01*
X735275Y309932D01*
Y306253D01*
X725163D01*
X725695Y306276D01*
X726181Y306322D01*
X726598Y306415D01*
X726945Y306507D01*
X727222Y306577D01*
X727431Y306669D01*
X727569Y306716D01*
X727616Y306739D01*
X727963Y306947D01*
X728264Y307155D01*
X728518Y307387D01*
X728749Y307595D01*
X728935Y307780D01*
X729050Y307942D01*
X729143Y308034D01*
X729166Y308081D01*
X729444Y308567D01*
X729559Y308798D01*
X729652Y309006D01*
X729721Y309191D01*
X729768Y309330D01*
X729814Y309446D01*
Y309469D01*
X729930Y310048D01*
X729953Y310325D01*
X729976Y310580D01*
X729999Y310788D01*
Y311089D01*
X729976Y311482D01*
X729953Y311852D01*
X729906Y312153D01*
X729860Y312431D01*
X729814Y312639D01*
X729791Y312801D01*
X729744Y312917D01*
Y312940D01*
X729513Y313519D01*
X729374Y313796D01*
X729259Y314051D01*
X729143Y314259D01*
X729050Y314444D01*
X729004Y314537D01*
X728981Y314583D01*
X729328Y314514D01*
D02*
G37*
G36*
X719748Y311806D02*
X719795Y311320D01*
X719864Y310881D01*
X719957Y310464D01*
X720072Y310071D01*
X720211Y309724D01*
X720350Y309400D01*
X720489Y309099D01*
X720628Y308821D01*
X720766Y308590D01*
X720905Y308382D01*
X721021Y308220D01*
X721114Y308081D01*
X721183Y307988D01*
X721229Y307942D01*
X721252Y307919D01*
X721553Y307618D01*
X721854Y307363D01*
X722178Y307155D01*
X722502Y306947D01*
X722826Y306785D01*
X723150Y306669D01*
X723474Y306554D01*
X723774Y306461D01*
X724052Y306392D01*
X724330Y306345D01*
X724561Y306299D01*
X724770Y306276D01*
X724931D01*
X725047Y306253D01*
X719725D01*
Y312292D01*
X719748Y311806D01*
D02*
G37*
G36*
X730647Y299843D02*
X730809Y299820D01*
X730971Y299774D01*
X731087Y299727D01*
X731156Y299704D01*
X731202Y299658D01*
X731225D01*
X731457Y299473D01*
X731665Y299265D01*
X731781Y299126D01*
X731804Y299080D01*
X731827Y299056D01*
X732035Y298686D01*
X732151Y298316D01*
X732197Y298154D01*
X732220Y298015D01*
X732244Y297923D01*
Y297899D01*
X732290Y297414D01*
X732313Y297205D01*
Y297020D01*
X732336Y296858D01*
Y296650D01*
X732313Y296280D01*
X732267Y295886D01*
X732220Y295516D01*
X732151Y295169D01*
X732082Y294891D01*
X732012Y294660D01*
X731989Y294567D01*
Y294498D01*
X731966Y294475D01*
Y294452D01*
X731804Y294012D01*
X731665Y293619D01*
X731503Y293272D01*
X731364Y292971D01*
X731225Y292716D01*
X731133Y292531D01*
X731064Y292415D01*
X731040Y292369D01*
Y291999D01*
X719725D01*
Y297529D01*
X719748Y296997D01*
X719771Y296465D01*
X719818Y295979D01*
X719887Y295539D01*
X719957Y295192D01*
X719980Y295030D01*
X720003Y294914D01*
X720026Y294799D01*
Y294729D01*
X720049Y294683D01*
Y294660D01*
X720165Y294151D01*
X720281Y293711D01*
X720373Y293341D01*
X720466Y293017D01*
X720558Y292763D01*
X720628Y292577D01*
X720651Y292485D01*
X720674Y292439D01*
X723913D01*
Y292809D01*
X723705Y293202D01*
X723520Y293572D01*
X723358Y293920D01*
X723219Y294267D01*
X723127Y294544D01*
X723057Y294753D01*
X723011Y294891D01*
X722988Y294914D01*
Y294938D01*
X722872Y295354D01*
X722803Y295724D01*
X722733Y296071D01*
X722710Y296395D01*
X722687Y296650D01*
X722664Y296835D01*
Y297298D01*
X722687Y297599D01*
X722710Y297714D01*
Y297807D01*
X722733Y297876D01*
Y297899D01*
X722803Y298270D01*
X722826Y298432D01*
X722872Y298570D01*
X722918Y298663D01*
X722942Y298756D01*
X722965Y298802D01*
Y298825D01*
X723103Y299080D01*
X723242Y299265D01*
X723358Y299380D01*
X723381Y299427D01*
X723404D01*
X723636Y299566D01*
X723867Y299635D01*
X723960Y299658D01*
X724052D01*
X724099D01*
X724122D01*
X724330D01*
X724515Y299612D01*
X724677Y299589D01*
X724816Y299542D01*
X724908Y299496D01*
X724978Y299473D01*
X725024Y299427D01*
X725047D01*
X725256Y299218D01*
X725394Y299010D01*
X725464Y298918D01*
X725510Y298825D01*
X725533Y298779D01*
Y298756D01*
X725649Y298432D01*
X725718Y298085D01*
X725741Y297946D01*
X725764Y297830D01*
Y297738D01*
X725788Y297275D01*
Y297043D01*
X725811Y296812D01*
Y295493D01*
X728472D01*
Y297182D01*
X728495Y297344D01*
Y297599D01*
X728518Y297853D01*
X728541Y298085D01*
X728564Y298270D01*
X728587Y298455D01*
X728634Y298594D01*
X728657Y298686D01*
X728680Y298756D01*
Y298779D01*
X728819Y299103D01*
X728981Y299357D01*
X729073Y299450D01*
X729120Y299519D01*
X729166Y299542D01*
X729189Y299566D01*
X729328Y299681D01*
X729490Y299751D01*
X729814Y299843D01*
X729953Y299866D01*
X730069Y299890D01*
X730161D01*
X730184D01*
X730439D01*
X730647Y299843D01*
D02*
G37*
G36*
X728426Y285543D02*
X728842Y285520D01*
X729235Y285474D01*
X729583Y285427D01*
X729906Y285381D01*
X730184Y285335D01*
X730439Y285289D01*
X730670Y285242D01*
X730855Y285196D01*
X731017Y285150D01*
X731133Y285103D01*
X731225Y285057D01*
X731318Y285034D01*
X731341Y285011D01*
X731364D01*
X731572Y284895D01*
X731734Y284779D01*
X731897Y284664D01*
X732035Y284525D01*
X732244Y284224D01*
X732382Y283946D01*
X732452Y283692D01*
X732498Y283484D01*
X732521Y283322D01*
Y283275D01*
X732498Y283044D01*
X732475Y282859D01*
X732336Y282489D01*
X732151Y282188D01*
X731943Y281933D01*
X731734Y281748D01*
X731549Y281609D01*
X731411Y281540D01*
X731387Y281517D01*
X731364D01*
X731133Y281424D01*
X730855Y281332D01*
X730277Y281216D01*
X729629Y281123D01*
X729004Y281054D01*
X728703Y281031D01*
X728426Y281008D01*
X728171D01*
X727963Y280985D01*
X727778D01*
X727639D01*
X727546D01*
X727523D01*
X727037D01*
X726574Y281008D01*
X726158Y281031D01*
X725764Y281054D01*
X725417Y281100D01*
X725094Y281147D01*
X724816Y281193D01*
X724561Y281239D01*
X724330Y281285D01*
X724145Y281332D01*
X723983Y281378D01*
X723867Y281424D01*
X723751Y281447D01*
X723682Y281471D01*
X723659Y281494D01*
X723636D01*
X723428Y281609D01*
X723242Y281725D01*
X723103Y281864D01*
X722965Y282003D01*
X722756Y282304D01*
X722618Y282581D01*
X722548Y282859D01*
X722502Y283067D01*
X722479Y283160D01*
Y283275D01*
X722502Y283507D01*
X722525Y283715D01*
X722664Y284062D01*
X722849Y284363D01*
X723057Y284618D01*
X723266Y284803D01*
X723451Y284941D01*
X723589Y285011D01*
X723613Y285034D01*
X723636D01*
X723867Y285126D01*
X724122Y285219D01*
X724423Y285289D01*
X724723Y285335D01*
X725371Y285427D01*
X725996Y285497D01*
X726297Y285520D01*
X726574Y285543D01*
X726829D01*
X727060Y285566D01*
X727245D01*
X727384D01*
X727477D01*
X727500D01*
X727986D01*
X728426Y285543D01*
D02*
G37*
G36*
X735275Y277097D02*
X727500D01*
X728194Y277120D01*
X728819Y277143D01*
X729397Y277190D01*
X729883Y277259D01*
X730092Y277282D01*
X730300Y277329D01*
X730462Y277352D01*
X730601Y277375D01*
X730716Y277398D01*
X730786D01*
X730832Y277421D01*
X730855D01*
X731387Y277560D01*
X731850Y277722D01*
X732267Y277907D01*
X732637Y278069D01*
X732915Y278231D01*
X733123Y278370D01*
X733262Y278462D01*
X733285Y278486D01*
X733308D01*
X733655Y278786D01*
X733956Y279110D01*
X734210Y279411D01*
X734419Y279735D01*
X734581Y279990D01*
X734696Y280221D01*
X734766Y280360D01*
X734789Y280383D01*
Y280406D01*
X734951Y280869D01*
X735067Y281355D01*
X735159Y281841D01*
X735205Y282280D01*
X735252Y282674D01*
Y282859D01*
X735275Y282998D01*
Y277097D01*
D02*
G37*
G36*
X730647Y263167D02*
X730809Y263144D01*
X730971Y263098D01*
X731087Y263051D01*
X731156Y263028D01*
X731202Y262982D01*
X731225D01*
X731457Y262797D01*
X731665Y262589D01*
X731781Y262450D01*
X731804Y262404D01*
X731827Y262381D01*
X732035Y262010D01*
X732151Y261640D01*
X732197Y261478D01*
X732220Y261339D01*
X732244Y261247D01*
Y261224D01*
X732290Y260738D01*
X732313Y260529D01*
Y260344D01*
X732336Y260182D01*
Y259974D01*
X732313Y259604D01*
X732267Y259210D01*
X732220Y258840D01*
X732151Y258493D01*
X732082Y258215D01*
X732012Y257984D01*
X731989Y257892D01*
Y257822D01*
X731966Y257799D01*
Y257776D01*
X731804Y257336D01*
X731665Y256943D01*
X731503Y256596D01*
X731364Y256295D01*
X731225Y256040D01*
X731133Y255855D01*
X731064Y255739D01*
X731040Y255693D01*
Y255323D01*
X719725D01*
Y260853D01*
X719748Y260321D01*
X719771Y259789D01*
X719818Y259303D01*
X719887Y258863D01*
X719957Y258516D01*
X719980Y258354D01*
X720003Y258239D01*
X720026Y258123D01*
Y258053D01*
X720049Y258007D01*
Y257984D01*
X720165Y257475D01*
X720281Y257035D01*
X720373Y256665D01*
X720466Y256341D01*
X720558Y256087D01*
X720628Y255902D01*
X720651Y255809D01*
X720674Y255763D01*
X723913D01*
Y256133D01*
X723705Y256526D01*
X723520Y256896D01*
X723358Y257244D01*
X723219Y257591D01*
X723127Y257868D01*
X723057Y258077D01*
X723011Y258215D01*
X722988Y258239D01*
Y258262D01*
X722872Y258678D01*
X722803Y259048D01*
X722733Y259396D01*
X722710Y259720D01*
X722687Y259974D01*
X722664Y260159D01*
Y260622D01*
X722687Y260923D01*
X722710Y261038D01*
Y261131D01*
X722733Y261200D01*
Y261224D01*
X722803Y261594D01*
X722826Y261756D01*
X722872Y261895D01*
X722918Y261987D01*
X722942Y262080D01*
X722965Y262126D01*
Y262149D01*
X723103Y262404D01*
X723242Y262589D01*
X723358Y262705D01*
X723381Y262751D01*
X723404D01*
X723636Y262890D01*
X723867Y262959D01*
X723960Y262982D01*
X724052D01*
X724099D01*
X724122D01*
X724330D01*
X724515Y262936D01*
X724677Y262913D01*
X724816Y262866D01*
X724908Y262820D01*
X724978Y262797D01*
X725024Y262751D01*
X725047D01*
X725256Y262542D01*
X725394Y262334D01*
X725464Y262242D01*
X725510Y262149D01*
X725533Y262103D01*
Y262080D01*
X725649Y261756D01*
X725718Y261409D01*
X725741Y261270D01*
X725764Y261154D01*
Y261062D01*
X725788Y260599D01*
Y260367D01*
X725811Y260136D01*
Y258817D01*
X728472D01*
Y260506D01*
X728495Y260668D01*
Y260923D01*
X728518Y261177D01*
X728541Y261409D01*
X728564Y261594D01*
X728587Y261779D01*
X728634Y261918D01*
X728657Y262010D01*
X728680Y262080D01*
Y262103D01*
X728819Y262427D01*
X728981Y262681D01*
X729073Y262774D01*
X729120Y262843D01*
X729166Y262866D01*
X729189Y262890D01*
X729328Y263005D01*
X729490Y263075D01*
X729814Y263167D01*
X729953Y263190D01*
X730069Y263214D01*
X730161D01*
X730184D01*
X730439D01*
X730647Y263167D01*
D02*
G37*
G36*
X725094Y248219D02*
X725394Y248150D01*
X725695Y248080D01*
X725950Y247988D01*
X726181Y247872D01*
X726343Y247803D01*
X726459Y247733D01*
X726505Y247710D01*
X726829Y247502D01*
X727176Y247224D01*
X727523Y246947D01*
X727847Y246669D01*
X728125Y246414D01*
X728333Y246206D01*
X728426Y246113D01*
X728495Y246044D01*
X728518Y246021D01*
X728541Y245998D01*
X728865Y245674D01*
X729189Y245327D01*
X729490Y244956D01*
X729791Y244609D01*
X730045Y244309D01*
X730254Y244054D01*
X730323Y243962D01*
X730392Y243892D01*
X730416Y243846D01*
X730439Y243823D01*
X730832Y243314D01*
X731225Y242828D01*
X731572Y242388D01*
X731873Y241972D01*
X732128Y241625D01*
X732244Y241486D01*
X732336Y241370D01*
X732405Y241277D01*
X732452Y241208D01*
X732475Y241162D01*
X732498Y241138D01*
X719725D01*
Y246414D01*
X719748Y245905D01*
X719771Y245396D01*
X719818Y244910D01*
X719887Y244494D01*
X719957Y244123D01*
X719980Y243985D01*
X720003Y243869D01*
X720026Y243753D01*
Y243684D01*
X720049Y243638D01*
Y243614D01*
X720165Y243129D01*
X720281Y242712D01*
X720373Y242342D01*
X720466Y242064D01*
X720558Y241833D01*
X720628Y241671D01*
X720651Y241555D01*
X720674Y241532D01*
X723983D01*
Y241833D01*
X723589Y242504D01*
X723428Y242828D01*
X723289Y243105D01*
X723173Y243360D01*
X723080Y243568D01*
X723034Y243684D01*
X723011Y243730D01*
X722872Y244100D01*
X722780Y244471D01*
X722710Y244795D01*
X722664Y245095D01*
X722641Y245327D01*
X722618Y245512D01*
Y245674D01*
X722641Y246113D01*
X722710Y246507D01*
X722803Y246831D01*
X722895Y247085D01*
X723011Y247294D01*
X723103Y247456D01*
X723173Y247548D01*
X723196Y247571D01*
X723428Y247803D01*
X723682Y247965D01*
X723936Y248080D01*
X724191Y248150D01*
X724423Y248219D01*
X724608Y248242D01*
X724723D01*
X724746D01*
X724770D01*
X725094Y248219D01*
D02*
G37*
G36*
X734974Y226885D02*
Y226237D01*
X722895D01*
Y233873D01*
X734974Y226885D01*
D02*
G37*
G36*
X724330Y219526D02*
X724515Y219480D01*
X724677Y219457D01*
X724793Y219411D01*
X724908Y219364D01*
X724955Y219341D01*
X724978D01*
X725140Y219249D01*
X725302Y219156D01*
X725626Y218925D01*
X725741Y218809D01*
X725857Y218717D01*
X725927Y218670D01*
X725950Y218647D01*
X725857Y218393D01*
X725788Y218161D01*
X725718Y217976D01*
X725672Y217791D01*
X725626Y217652D01*
X725579Y217560D01*
X725556Y217490D01*
Y217467D01*
X725441Y217143D01*
X725325Y216912D01*
X725302Y216819D01*
X725279Y216750D01*
X725256Y216726D01*
Y216703D01*
X725117Y216426D01*
X725001Y216217D01*
X724885Y216009D01*
X724793Y215870D01*
X724700Y215755D01*
X724631Y215662D01*
X724608Y215616D01*
X724584Y215593D01*
X724446Y215477D01*
X724307Y215408D01*
X724006Y215315D01*
X723867Y215292D01*
X723751Y215269D01*
X723682D01*
X723659D01*
X723404Y215292D01*
X723219Y215361D01*
X723080Y215431D01*
X723057Y215454D01*
X723034D01*
X722849Y215616D01*
X722710Y215778D01*
X722618Y215893D01*
X722594Y215917D01*
Y215940D01*
X722479Y216171D01*
X722386Y216379D01*
X722363Y216472D01*
X722340Y216541D01*
X722317Y216588D01*
Y216611D01*
X722271Y216888D01*
X722224Y217143D01*
Y217374D01*
X722247Y217722D01*
X722294Y218022D01*
X722363Y218300D01*
X722456Y218531D01*
X722548Y218717D01*
X722618Y218832D01*
X722664Y218925D01*
X722687Y218948D01*
X722872Y219156D01*
X723080Y219295D01*
X723266Y219411D01*
X723451Y219480D01*
X723636Y219526D01*
X723774Y219550D01*
X723867D01*
X723890D01*
X724122D01*
X724330Y219526D01*
D02*
G37*
G36*
X731341Y219781D02*
X731503Y219758D01*
X731619Y219711D01*
X731711Y219665D01*
X731781Y219642D01*
X731827Y219596D01*
X731850D01*
X732058Y219411D01*
X732220Y219226D01*
X732336Y219087D01*
X732382Y219040D01*
Y219017D01*
X732498Y218763D01*
X732591Y218508D01*
X732614Y218416D01*
X732637Y218323D01*
X732660Y218277D01*
Y218254D01*
X732706Y217953D01*
X732729Y217722D01*
X732753Y217629D01*
Y217513D01*
X732729Y217074D01*
X732660Y216703D01*
X732568Y216379D01*
X732452Y216102D01*
X732336Y215870D01*
X732244Y215708D01*
X732174Y215616D01*
X732151Y215569D01*
X731897Y215315D01*
X731619Y215153D01*
X731341Y215014D01*
X731087Y214922D01*
X730855Y214875D01*
X730647Y214852D01*
X730531Y214829D01*
X730485D01*
X730230Y214852D01*
X729999Y214875D01*
X729791Y214922D01*
X729606Y214991D01*
X729444Y215060D01*
X729328Y215107D01*
X729259Y215130D01*
X729235Y215153D01*
X728842Y215431D01*
X728680Y215546D01*
X728541Y215685D01*
X728449Y215778D01*
X728356Y215870D01*
X728310Y215917D01*
X728287Y215940D01*
X728426Y216287D01*
X728541Y216634D01*
X728587Y216773D01*
X728634Y216912D01*
X728680Y216981D01*
Y217004D01*
X728749Y217236D01*
X728819Y217421D01*
X728888Y217583D01*
X728935Y217722D01*
X728981Y217837D01*
X729004Y217907D01*
X729027Y217953D01*
Y217976D01*
X729212Y218369D01*
X729374Y218670D01*
X729513Y218925D01*
X729629Y219133D01*
X729744Y219272D01*
X729814Y219387D01*
X729860Y219434D01*
X729883Y219457D01*
X730045Y219573D01*
X730207Y219665D01*
X730392Y219735D01*
X730577Y219781D01*
X730740Y219804D01*
X730878Y219827D01*
X730971D01*
X730994D01*
X731341Y219781D01*
D02*
G37*
G36*
X730508Y204786D02*
X730670Y204763D01*
X730809Y204717D01*
X730925Y204694D01*
X730994Y204648D01*
X731040Y204625D01*
X731064D01*
X731295Y204463D01*
X731480Y204301D01*
X731642Y204162D01*
X731665Y204116D01*
X731688Y204092D01*
X731827Y203930D01*
X731920Y203745D01*
X732082Y203352D01*
X732128Y203190D01*
X732174Y203051D01*
X732197Y202959D01*
Y202935D01*
X732267Y202403D01*
X732313Y202172D01*
Y201964D01*
X732336Y201802D01*
Y201547D01*
X732313Y201154D01*
X732290Y200783D01*
X732220Y200413D01*
X732151Y200112D01*
X732105Y199835D01*
X732035Y199626D01*
X732012Y199488D01*
X731989Y199464D01*
Y199441D01*
X731850Y199048D01*
X731688Y198678D01*
X731526Y198354D01*
X731387Y198053D01*
X731249Y197822D01*
X731156Y197637D01*
X731087Y197521D01*
X731064Y197474D01*
Y197058D01*
X720026D01*
Y197613D01*
X728472D01*
Y198053D01*
X728356Y198539D01*
X728310Y198793D01*
X728264Y199025D01*
X728217Y199210D01*
X728194Y199372D01*
X728171Y199464D01*
Y199511D01*
X728079Y200135D01*
X728055Y200436D01*
X728032Y200691D01*
X728009Y200922D01*
Y201246D01*
X728032Y201732D01*
X728055Y201964D01*
Y202172D01*
X728079Y202357D01*
X728102Y202496D01*
X728125Y202611D01*
Y202635D01*
X728171Y202912D01*
X728241Y203167D01*
X728310Y203398D01*
X728379Y203583D01*
X728449Y203745D01*
X728518Y203861D01*
X728541Y203930D01*
X728564Y203953D01*
X728749Y204208D01*
X728958Y204393D01*
X729097Y204509D01*
X729143Y204555D01*
X729166D01*
X729305Y204648D01*
X729467Y204694D01*
X729744Y204786D01*
X729883D01*
X729976Y204810D01*
X730045D01*
X730069D01*
X730300D01*
X730508Y204786D01*
D02*
G37*
G36*
X734974Y183012D02*
Y182365D01*
X722895D01*
Y190000D01*
X734974Y183012D01*
D02*
G37*
G36*
X729212Y163483D02*
X723936Y165311D01*
X729212Y167139D01*
Y163483D01*
D02*
G37*
G36*
X734974Y157628D02*
X720026D01*
Y163136D01*
X734974Y157628D01*
D02*
G37*
G36*
X729212Y118615D02*
X723936Y120443D01*
X729212Y122271D01*
Y118615D01*
D02*
G37*
G36*
X734974Y112761D02*
X720026D01*
Y118268D01*
X734974Y112761D01*
D02*
G37*
%LPC*%
G36*
X339406Y352763D02*
X326609D01*
X333389D01*
X332857Y352740D01*
X332325Y352717D01*
X331839Y352648D01*
X331376Y352555D01*
X330960Y352463D01*
X330566Y352347D01*
X330196Y352208D01*
X329872Y352092D01*
X329571Y351977D01*
X329294Y351838D01*
X329085Y351722D01*
X328900Y351629D01*
X328738Y351537D01*
X328646Y351491D01*
X328576Y351444D01*
X328553Y351421D01*
X328229Y351167D01*
X327952Y350889D01*
X327697Y350611D01*
X327489Y350334D01*
X327304Y350056D01*
X327165Y349755D01*
X327026Y349501D01*
X326934Y349223D01*
X326864Y348968D01*
X326795Y348760D01*
X326748Y348552D01*
X326725Y348367D01*
Y348228D01*
X326702Y348112D01*
Y348043D01*
Y348020D01*
X326748Y347464D01*
X326841Y346955D01*
X326957Y346493D01*
X327119Y346122D01*
X327257Y345798D01*
X327396Y345567D01*
X327443Y345498D01*
X327489Y345428D01*
X327512Y345405D01*
Y345382D01*
X327674Y345197D01*
X327859Y345012D01*
X328299Y344688D01*
X328738Y344410D01*
X329201Y344179D01*
X329594Y343993D01*
X329780Y343901D01*
X329942Y343855D01*
X330057Y343808D01*
X330150Y343762D01*
X330219Y343739D01*
X330242D01*
X330867Y343554D01*
X331168Y343461D01*
X331446Y343415D01*
X331654Y343345D01*
X331839Y343299D01*
X331955Y343276D01*
X332001D01*
X332348Y343207D01*
X332695Y343160D01*
X332996Y343091D01*
X333251Y343022D01*
X333482Y342975D01*
X333667Y342952D01*
X333760Y342906D01*
X333806D01*
X334084Y342836D01*
X334338Y342744D01*
X334523Y342651D01*
X334708Y342559D01*
X334847Y342489D01*
X334940Y342420D01*
X334986Y342374D01*
X335009Y342351D01*
X335148Y342212D01*
X335264Y342073D01*
X335333Y341934D01*
X335402Y341795D01*
X335426Y341679D01*
X335449Y341610D01*
Y341541D01*
Y341517D01*
X335426Y341332D01*
X335402Y341170D01*
X335356Y341032D01*
X335310Y340916D01*
X335241Y340823D01*
X335194Y340754D01*
X335171Y340731D01*
X335148Y340708D01*
X334917Y340522D01*
X334685Y340384D01*
X334593Y340314D01*
X334500Y340268D01*
X334454Y340245D01*
X334431D01*
X334130Y340152D01*
X333829Y340083D01*
X333690Y340060D01*
X333574D01*
X333505Y340037D01*
X333482D01*
X333274Y340014D01*
X332927D01*
X332811Y339990D01*
X332556D01*
X332047Y340014D01*
X331538Y340060D01*
X331052Y340152D01*
X330613Y340245D01*
X330242Y340337D01*
X330104Y340384D01*
X329965Y340430D01*
X329849Y340453D01*
X329780Y340476D01*
X329733Y340499D01*
X329710D01*
X329178Y340708D01*
X328669Y340939D01*
X328206Y341194D01*
X327813Y341425D01*
X327489Y341656D01*
X327234Y341818D01*
X327142Y341888D01*
X327072Y341934D01*
X327049Y341980D01*
X326609D01*
Y337237D01*
D01*
Y338371D01*
X327512Y338047D01*
X327952Y337908D01*
X328345Y337792D01*
X328692Y337700D01*
X328947Y337630D01*
X329039Y337584D01*
X329109D01*
X329155Y337561D01*
X329178D01*
X329710Y337445D01*
X330266Y337376D01*
X330821Y337306D01*
X331330Y337283D01*
X331770Y337260D01*
X331955Y337237D01*
X332417D01*
X332996Y337260D01*
X333551Y337306D01*
X334084Y337352D01*
X334570Y337445D01*
X335032Y337561D01*
X335449Y337676D01*
X335819Y337792D01*
X336166Y337931D01*
X336467Y338047D01*
X336745Y338162D01*
X336976Y338278D01*
X337161Y338394D01*
X337323Y338486D01*
X337416Y338532D01*
X337485Y338579D01*
X337508Y338602D01*
X337832Y338880D01*
X338133Y339157D01*
X338387Y339458D01*
X338596Y339759D01*
X338781Y340060D01*
X338943Y340361D01*
X339058Y340638D01*
X339174Y340939D01*
X339244Y341194D01*
X339313Y341425D01*
X339359Y341656D01*
X339383Y341842D01*
Y342004D01*
X339406Y342119D01*
Y342212D01*
X339359Y342767D01*
X339267Y343253D01*
X339151Y343693D01*
X338989Y344063D01*
X338827Y344341D01*
X338711Y344549D01*
X338619Y344688D01*
X338573Y344734D01*
X338226Y345081D01*
X337832Y345382D01*
X337416Y345636D01*
X336999Y345868D01*
X336629Y346030D01*
X336444Y346099D01*
X336305Y346169D01*
X336189Y346215D01*
X336097Y346238D01*
X336050Y346261D01*
X336027D01*
X335703Y346354D01*
X335402Y346446D01*
X335125Y346516D01*
X334870Y346585D01*
X334662Y346631D01*
X334523Y346678D01*
X334431Y346701D01*
X334384D01*
X333829Y346816D01*
X333551Y346886D01*
X333320Y346932D01*
X333112Y346978D01*
X332950Y347025D01*
X332857Y347048D01*
X332811D01*
X332371Y347140D01*
X332024Y347233D01*
X331723Y347326D01*
X331492Y347418D01*
X331307Y347487D01*
X331191Y347557D01*
X331122Y347580D01*
X331099Y347603D01*
X330960Y347742D01*
X330844Y347881D01*
X330775Y348043D01*
X330705Y348182D01*
X330682Y348321D01*
X330659Y348436D01*
Y348506D01*
Y348529D01*
X330682Y348668D01*
X330705Y348806D01*
X330798Y349015D01*
X330844Y349107D01*
X330890Y349177D01*
X330937Y349200D01*
Y349223D01*
X331168Y349431D01*
X331376Y349570D01*
X331469Y349616D01*
X331538Y349663D01*
X331585Y349686D01*
X331608D01*
X331932Y349801D01*
X332232Y349894D01*
X332348Y349917D01*
X332441D01*
X332487Y349940D01*
X332510D01*
X332857Y349986D01*
X333181Y350010D01*
X333482D01*
X333991Y349986D01*
X334477Y349940D01*
X334940Y349848D01*
X335333Y349778D01*
X335680Y349686D01*
X335819Y349640D01*
X335935Y349593D01*
X336027Y349570D01*
X336097Y349547D01*
X336143Y349524D01*
X336166D01*
X336652Y349339D01*
X337068Y349130D01*
X337439Y348922D01*
X337763Y348737D01*
X338040Y348575D01*
X338226Y348436D01*
X338341Y348344D01*
X338387Y348321D01*
X338804D01*
Y351745D01*
X338387Y351907D01*
X337971Y352046D01*
X337531Y352162D01*
X337138Y352277D01*
X336791Y352347D01*
X336652Y352393D01*
X336536Y352416D01*
X336421Y352439D01*
X336351D01*
X336305Y352463D01*
X336282D01*
X335750Y352555D01*
X335217Y352648D01*
X334731Y352694D01*
X334292Y352717D01*
X333922Y352740D01*
X333783Y352763D01*
X339406D01*
D02*
G37*
G36*
X379390Y352463D02*
X365252D01*
Y337514D01*
X370505D01*
X371153Y337538D01*
X371754Y337561D01*
X372287Y337607D01*
X372726Y337653D01*
X372935Y337676D01*
X373097Y337700D01*
X373259D01*
X373374Y337723D01*
X373467Y337746D01*
X373536Y337769D01*
X373606D01*
X374092Y337885D01*
X374531Y338023D01*
X374948Y338186D01*
X375295Y338324D01*
X375596Y338463D01*
X375827Y338579D01*
X375966Y338671D01*
X375989Y338694D01*
X376012D01*
X376544Y339065D01*
X377007Y339458D01*
X377424Y339875D01*
X377771Y340291D01*
X378048Y340661D01*
X378164Y340800D01*
X378257Y340939D01*
X378326Y341055D01*
X378372Y341147D01*
X378419Y341194D01*
Y341217D01*
X378743Y341865D01*
X378974Y342513D01*
X379159Y343137D01*
X379275Y343716D01*
X379321Y343970D01*
X379344Y344225D01*
X379367Y344433D01*
Y344618D01*
X379390Y344757D01*
Y344965D01*
X379344Y345752D01*
X379252Y346469D01*
X379113Y347117D01*
X379020Y347395D01*
X378951Y347673D01*
X378858Y347904D01*
X378766Y348112D01*
X378696Y348297D01*
X378627Y348459D01*
X378581Y348575D01*
X378534Y348668D01*
X378488Y348714D01*
Y348737D01*
X378141Y349315D01*
X377748Y349801D01*
X377331Y350241D01*
X376938Y350611D01*
X376591Y350889D01*
X376452Y351005D01*
X376313Y351120D01*
X376197Y351190D01*
X376128Y351236D01*
X376082Y351282D01*
X376058D01*
X375711Y351491D01*
X375318Y351653D01*
X374948Y351791D01*
X374601Y351930D01*
X374277Y352023D01*
X374045Y352092D01*
X373953Y352115D01*
X373883D01*
X373837Y352138D01*
X373814D01*
X373305Y352254D01*
X372773Y352324D01*
X372240Y352393D01*
X371754Y352416D01*
X371315Y352439D01*
X371130Y352463D01*
X379390D01*
D01*
D02*
G37*
G36*
X362684D02*
X340817D01*
X344820Y337514D01*
X349101D01*
X351693Y347233D01*
X354400Y337514D01*
X358658D01*
X362684Y352463D01*
D01*
D02*
G37*
%LPD*%
G36*
X370875Y349640D02*
X371199Y349616D01*
X371454D01*
X371662Y349593D01*
X371801Y349570D01*
X371893Y349547D01*
X371917D01*
X372379Y349431D01*
X372588Y349362D01*
X372773Y349315D01*
X372911Y349246D01*
X373050Y349200D01*
X373120Y349177D01*
X373143Y349154D01*
X373559Y348922D01*
X373906Y348644D01*
X374184Y348367D01*
X374416Y348112D01*
X374601Y347881D01*
X374739Y347673D01*
X374809Y347557D01*
X374832Y347534D01*
Y347511D01*
X375017Y347094D01*
X375156Y346678D01*
X375248Y346261D01*
X375318Y345868D01*
X375364Y345521D01*
Y345359D01*
X375387Y345243D01*
Y345127D01*
Y345058D01*
Y345012D01*
Y344988D01*
X375364Y344456D01*
X375318Y343970D01*
X375225Y343554D01*
X375133Y343207D01*
X375040Y342906D01*
X374948Y342698D01*
X374901Y342559D01*
X374878Y342536D01*
Y342513D01*
X374670Y342165D01*
X374439Y341842D01*
X374184Y341564D01*
X373930Y341332D01*
X373698Y341170D01*
X373513Y341032D01*
X373397Y340939D01*
X373374Y340916D01*
X373351D01*
X372888Y340708D01*
X372680Y340615D01*
X372472Y340546D01*
X372310Y340499D01*
X372194Y340476D01*
X372102Y340453D01*
X372078D01*
X371824Y340407D01*
X371500Y340384D01*
X371176Y340361D01*
X370829D01*
X370528Y340337D01*
X369117D01*
Y349663D01*
X370505D01*
X370875Y349640D01*
D02*
G37*
G36*
X356367Y342165D02*
X353729Y352463D01*
X358773D01*
X356367Y342165D01*
D02*
G37*
G36*
X347134D02*
X344820Y352463D01*
X349888D01*
X347134Y342165D01*
D02*
G37*
%LPC*%
G36*
X871306Y91474D02*
X858094D01*
Y88582D01*
X862768D01*
Y76526D01*
X866945D01*
X866632D01*
Y88582D01*
X871306D01*
Y76526D01*
Y91474D01*
D02*
G37*
G36*
X856358D02*
X845529D01*
Y76526D01*
X856358D01*
Y91474D01*
D02*
G37*
G36*
X841734D02*
X828105D01*
Y76526D01*
X831645D01*
Y86777D01*
X838009Y76526D01*
X841734D01*
Y91474D01*
D02*
G37*
G36*
X826439D02*
D01*
Y76526D01*
X821441Y82913D01*
X821950Y83190D01*
X822366Y83468D01*
X822760Y83769D01*
X823061Y84046D01*
X823292Y84278D01*
X823477Y84486D01*
X823570Y84602D01*
X823616Y84648D01*
X823870Y85064D01*
X824079Y85527D01*
X824218Y85967D01*
X824310Y86406D01*
X824356Y86777D01*
X824380Y86939D01*
X824403Y87078D01*
Y87193D01*
Y87286D01*
Y87332D01*
Y87355D01*
X824380Y87795D01*
X824333Y88165D01*
X824241Y88512D01*
X824148Y88813D01*
X824056Y89044D01*
X823963Y89206D01*
X823917Y89299D01*
X823894Y89345D01*
X823708Y89646D01*
X823477Y89901D01*
X823246Y90109D01*
X823037Y90317D01*
X822852Y90456D01*
X822690Y90572D01*
X822598Y90641D01*
X822552Y90664D01*
X822228Y90826D01*
X821927Y90965D01*
X821626Y91081D01*
X821348Y91173D01*
X821094Y91243D01*
X820909Y91289D01*
X820793Y91312D01*
X820747D01*
X820377Y91358D01*
X819983Y91405D01*
X819613Y91428D01*
X819266Y91451D01*
X818942Y91474D01*
X826439Y91474D01*
X812023Y91474D01*
Y76526D01*
X815887D01*
Y82010D01*
X817623D01*
X821695Y76526D01*
X826439D01*
Y91474D01*
D02*
G37*
G36*
X808807Y91474D02*
X797978D01*
Y76526D01*
X808807D01*
Y91474D01*
D02*
G37*
G36*
X794183D02*
X780762D01*
Y76526D01*
X784626D01*
Y83121D01*
X790318D01*
Y76526D01*
X794183D01*
Y91474D01*
D02*
G37*
G36*
X778471D02*
X765258D01*
Y88582D01*
X769933D01*
Y76526D01*
X765258D01*
X778471D01*
Y91474D01*
D02*
G37*
G36*
X763523D02*
X752694D01*
Y76526D01*
X763523D01*
Y91474D01*
D02*
G37*
%LPD*%
G36*
X856358Y79418D02*
X849393D01*
Y83121D01*
X855849D01*
Y86013D01*
X849393D01*
Y88582D01*
X856358D01*
Y79418D01*
D02*
G37*
G36*
X838194Y82889D02*
X832710Y91474D01*
X838194D01*
Y82889D01*
D02*
G37*
G36*
X817947Y88697D02*
X818248D01*
X818363Y88674D01*
X818456D01*
X818826Y88628D01*
X818988Y88605D01*
X819127Y88559D01*
X819220Y88535D01*
X819312Y88512D01*
X819358Y88489D01*
X819381D01*
X819567Y88397D01*
X819729Y88281D01*
X819867Y88188D01*
X819983Y88073D01*
X820076Y87980D01*
X820122Y87911D01*
X820168Y87864D01*
Y87841D01*
X820307Y87517D01*
X820377Y87216D01*
X820400Y87101D01*
Y86985D01*
Y86916D01*
Y86892D01*
Y86661D01*
X820377Y86476D01*
X820353Y86291D01*
X820307Y86152D01*
X820284Y86036D01*
X820238Y85944D01*
X820214Y85898D01*
Y85874D01*
X820052Y85620D01*
X819844Y85412D01*
X819752Y85319D01*
X819682Y85250D01*
X819636Y85226D01*
X819613Y85203D01*
X819266Y84995D01*
X818942Y84879D01*
X818803Y84833D01*
X818687Y84810D01*
X818595Y84787D01*
X818572D01*
X818340Y84764D01*
X818086Y84740D01*
X817831D01*
X817577Y84717D01*
X815887D01*
Y88720D01*
X817739D01*
X817947Y88697D01*
D02*
G37*
G36*
X808807Y79418D02*
X801842D01*
Y83121D01*
X808298D01*
Y86013D01*
X801842D01*
Y88582D01*
X808807D01*
Y79418D01*
D02*
G37*
G36*
X790318Y86013D02*
X784626D01*
Y91474D01*
X790318D01*
Y86013D01*
D02*
G37*
G36*
X778471Y76526D02*
X773797D01*
Y88582D01*
X778471D01*
Y76526D01*
D02*
G37*
G36*
X763523Y79418D02*
X756558D01*
Y83121D01*
X763014D01*
Y86013D01*
X756558D01*
Y88582D01*
X763523D01*
Y79418D01*
D02*
G37*
%LPC*%
G36*
X21412Y212210D02*
Y212117D01*
D01*
Y212210D01*
D02*
G37*
G36*
Y210683D02*
D01*
D01*
D01*
D02*
G37*
G36*
Y209479D02*
Y209456D01*
D01*
Y209479D01*
D02*
G37*
G36*
X33051Y217624D02*
Y207721D01*
X33028Y208230D01*
X32958Y208669D01*
X32889Y209063D01*
X32796Y209387D01*
X32681Y209664D01*
X32611Y209850D01*
X32542Y209965D01*
X32519Y210012D01*
X32311Y210336D01*
X32079Y210613D01*
X31848Y210868D01*
X31616Y211076D01*
X31431Y211238D01*
X31246Y211377D01*
X31154Y211446D01*
X31107Y211469D01*
X30830Y211608D01*
X30552Y211747D01*
X30251Y211863D01*
X29997Y211955D01*
X29765Y212025D01*
X29580Y212071D01*
X29464Y212117D01*
X29418D01*
X29048Y212210D01*
X28654Y212256D01*
X28307Y212302D01*
X27960Y212349D01*
X27659D01*
X27428Y212372D01*
X26665D01*
X26549Y212349D01*
X26364D01*
X26040Y212325D01*
X25808D01*
X25716Y212302D01*
X25600D01*
Y214755D01*
X32611D01*
Y217624D01*
X33051D01*
X21967D01*
Y209179D01*
X22407D01*
X22893Y209294D01*
X23147Y209340D01*
X23379Y209387D01*
X23564Y209433D01*
X23726Y209456D01*
X23818Y209479D01*
X23865D01*
X24489Y209572D01*
X24790Y209595D01*
X25045Y209618D01*
X25276Y209641D01*
X25600D01*
X26086Y209618D01*
X26317Y209595D01*
X26526D01*
X26711Y209572D01*
X26850Y209549D01*
X26965Y209526D01*
X26988D01*
X27266Y209479D01*
X27521Y209410D01*
X27752Y209340D01*
X27937Y209271D01*
X28099Y209202D01*
X28215Y209132D01*
X28284Y209109D01*
X28307Y209086D01*
X28562Y208901D01*
X28747Y208693D01*
X28863Y208554D01*
X28909Y208507D01*
Y208484D01*
X29002Y208346D01*
X29048Y208184D01*
X29140Y207906D01*
Y207767D01*
X29163Y207675D01*
Y207605D01*
Y207582D01*
Y207351D01*
X29140Y207142D01*
X29117Y206980D01*
X29071Y206842D01*
X29048Y206726D01*
X29002Y206656D01*
X28978Y206610D01*
Y206587D01*
X28816Y206355D01*
X28654Y206170D01*
X28516Y206008D01*
X28469Y205985D01*
X28446Y205962D01*
X28284Y205823D01*
X28099Y205731D01*
X27706Y205569D01*
X27544Y205522D01*
X27405Y205476D01*
X27312Y205453D01*
X27289D01*
X26757Y205384D01*
X26526Y205337D01*
X26317D01*
X26155Y205314D01*
X25901D01*
X25508Y205337D01*
X25137Y205361D01*
X24767Y205430D01*
X24466Y205499D01*
X24189Y205546D01*
X23980Y205615D01*
X23842Y205638D01*
X23818Y205661D01*
X23795D01*
X23402Y205800D01*
X23032Y205962D01*
X22708Y206124D01*
X22407Y206263D01*
X22175Y206402D01*
X21990Y206494D01*
X21875Y206564D01*
X21828Y206587D01*
X21412D01*
Y203278D01*
X21713Y203162D01*
X22060Y203047D01*
X22384Y202931D01*
X22708Y202838D01*
X22985Y202769D01*
X23217Y202723D01*
X23309Y202700D01*
X23379D01*
X23402Y202676D01*
X23425D01*
X23911Y202584D01*
X24420Y202514D01*
X24929Y202468D01*
X25415Y202422D01*
X25831Y202399D01*
X26017D01*
X26155Y202376D01*
X26456D01*
X27012Y202399D01*
X27544Y202422D01*
X28007Y202491D01*
X28423Y202561D01*
X28747Y202607D01*
X28886Y202653D01*
X29002Y202676D01*
X29094Y202700D01*
X29163D01*
X29187Y202723D01*
X29210D01*
X29650Y202885D01*
X30043Y203047D01*
X30413Y203255D01*
X30737Y203440D01*
X30992Y203602D01*
X31177Y203741D01*
X31292Y203833D01*
X31339Y203857D01*
X31639Y204134D01*
X31894Y204435D01*
X32102Y204713D01*
X32287Y204990D01*
X32426Y205222D01*
X32542Y205407D01*
X32588Y205522D01*
X32611Y205569D01*
X32750Y205939D01*
X32866Y206332D01*
X32935Y206679D01*
X33005Y207027D01*
X33028Y207304D01*
X33051Y207536D01*
Y202700D01*
Y217624D01*
D02*
G37*
G36*
X21412Y207767D02*
Y207721D01*
D01*
Y207767D01*
D02*
G37*
G36*
X49873Y217624D02*
X45917D01*
X42284Y207073D01*
X38651Y217624D01*
X34624D01*
X40085Y202676D01*
X34624D01*
D01*
X49873D01*
D01*
X44389D01*
X49873Y217624D01*
D02*
G37*
G36*
X21412Y206587D02*
D01*
D01*
D01*
D02*
G37*
G36*
X12226Y216005D02*
X4127D01*
X9472D01*
Y210683D01*
X4127D01*
Y207975D01*
X9472D01*
Y202653D01*
X17571D01*
X12226D01*
Y207975D01*
X17571D01*
Y210683D01*
X12226D01*
Y216005D01*
D02*
G37*
G36*
X704763Y312474D02*
X700482D01*
X697266Y307800D01*
X694142Y312474D01*
X689699D01*
X694882Y305046D01*
X689584Y297526D01*
X684585Y303912D01*
X685094Y304190D01*
X685511Y304468D01*
X685904Y304769D01*
X686205Y305046D01*
X686436Y305278D01*
X686622Y305486D01*
X686714Y305602D01*
X686760Y305648D01*
X687015Y306064D01*
X687223Y306527D01*
X687362Y306967D01*
X687455Y307407D01*
X687501Y307777D01*
X687524Y307939D01*
X687547Y308078D01*
Y308193D01*
Y308286D01*
Y308332D01*
Y308355D01*
X687524Y308795D01*
X687478Y309165D01*
X687385Y309512D01*
X687293Y309813D01*
X687200Y310044D01*
X687108Y310206D01*
X687061Y310299D01*
X687038Y310345D01*
X686853Y310646D01*
X686622Y310900D01*
X686390Y311109D01*
X686182Y311317D01*
X685997Y311456D01*
X685835Y311572D01*
X685742Y311641D01*
X685696Y311664D01*
X685372Y311826D01*
X685071Y311965D01*
X684771Y312081D01*
X684493Y312173D01*
X684238Y312243D01*
X684053Y312289D01*
X683938Y312312D01*
X683891D01*
X683521Y312358D01*
X683128Y312405D01*
X682757Y312428D01*
X682410Y312451D01*
X682086Y312474D01*
X675168D01*
Y297526D01*
X704832D01*
D01*
X699510Y305208D01*
X704763Y312474D01*
D02*
G37*
%LPD*%
G36*
X681091Y309697D02*
X681392D01*
X681508Y309674D01*
X681600D01*
X681971Y309628D01*
X682133Y309605D01*
X682271Y309559D01*
X682364Y309535D01*
X682457Y309512D01*
X682503Y309489D01*
X682526D01*
X682711Y309396D01*
X682873Y309281D01*
X683012Y309188D01*
X683128Y309072D01*
X683220Y308980D01*
X683266Y308911D01*
X683313Y308864D01*
Y308841D01*
X683452Y308517D01*
X683521Y308216D01*
X683544Y308101D01*
Y307985D01*
Y307916D01*
Y307892D01*
Y307661D01*
X683521Y307476D01*
X683498Y307291D01*
X683452Y307152D01*
X683428Y307036D01*
X683382Y306944D01*
X683359Y306897D01*
Y306874D01*
X683197Y306620D01*
X682989Y306411D01*
X682896Y306319D01*
X682827Y306250D01*
X682781Y306226D01*
X682757Y306203D01*
X682410Y305995D01*
X682086Y305879D01*
X681947Y305833D01*
X681832Y305810D01*
X681739Y305787D01*
X681716D01*
X681485Y305764D01*
X681230Y305741D01*
X680976D01*
X680721Y305717D01*
X679032D01*
Y309720D01*
X680883D01*
X681091Y309697D01*
D02*
G37*
G36*
X700343Y297526D02*
X693818D01*
X697127Y302432D01*
X700343Y297526D01*
D02*
G37*
G36*
X684840D02*
X679032D01*
Y303010D01*
X680767D01*
X684840Y297526D01*
D02*
G37*
%LPC*%
G36*
X357303Y145125D02*
X353439D01*
Y139664D01*
X347746D01*
Y145125D01*
X343882D01*
Y130176D01*
X357303D01*
Y145125D01*
D02*
G37*
G36*
X404854Y145125D02*
X401314D01*
Y136540D01*
X395830Y145125D01*
X391225D01*
Y130176D01*
X404854D01*
Y145125D01*
D02*
G37*
G36*
X312806Y138275D02*
X305147D01*
Y135383D01*
X312806D01*
Y138275D01*
D02*
G37*
G36*
X186372Y145124D02*
X174640D01*
X174617Y144546D01*
Y144014D01*
X174594Y143528D01*
X174571Y143111D01*
Y142764D01*
Y142625D01*
X174548Y142510D01*
Y142417D01*
Y142348D01*
Y142325D01*
Y142301D01*
Y141862D01*
X174525Y141422D01*
Y141052D01*
X174502Y140705D01*
Y140427D01*
X174478Y140219D01*
Y140080D01*
Y140057D01*
Y140034D01*
X174455Y139548D01*
X174409Y139108D01*
X174386Y138669D01*
X174340Y138275D01*
X174317Y137905D01*
X174270Y137581D01*
X174224Y137280D01*
X174201Y137002D01*
X174154Y136748D01*
X174131Y136540D01*
X174108Y136355D01*
X174085Y136216D01*
X174062Y136100D01*
Y136007D01*
X174039Y135961D01*
Y135938D01*
X173923Y135429D01*
X173761Y134989D01*
X173599Y134619D01*
X173414Y134318D01*
X173252Y134110D01*
X173113Y133948D01*
X173021Y133832D01*
X172997Y133809D01*
X172836Y133717D01*
X172674Y133624D01*
X172558Y133601D01*
X172535Y133578D01*
X172512D01*
X172396Y133555D01*
X172257Y133532D01*
X172003Y133509D01*
X171401D01*
X171262Y133532D01*
X171077D01*
Y130176D01*
X171239D01*
X171470Y130153D01*
X171563D01*
X171655Y130130D01*
X171748D01*
X172141Y130107D01*
X172303D01*
X172465Y130084D01*
X171077D01*
D01*
X186372D01*
Y145124D01*
D02*
G37*
G36*
X256276Y145125D02*
X252412D01*
Y135799D01*
X252389Y135244D01*
X252296Y134758D01*
X252204Y134341D01*
X252065Y134018D01*
X251949Y133763D01*
X251833Y133578D01*
X251741Y133485D01*
X251718Y133439D01*
X251440Y133208D01*
X251093Y133023D01*
X250746Y132907D01*
X250399Y132814D01*
X250075Y132768D01*
X249820Y132745D01*
X249728Y132722D01*
X249589D01*
X249080Y132745D01*
X248640Y132837D01*
X248270Y132953D01*
X247969Y133092D01*
X247738Y133231D01*
X247576Y133347D01*
X247483Y133439D01*
X247460Y133462D01*
X247252Y133786D01*
X247090Y134156D01*
X246974Y134527D01*
X246905Y134920D01*
X246859Y135267D01*
X246812Y135545D01*
Y135660D01*
Y135730D01*
Y135776D01*
Y135799D01*
Y145125D01*
X242948D01*
Y135568D01*
X242971Y135059D01*
X243017Y134596D01*
X243110Y134156D01*
X243202Y133740D01*
X243341Y133370D01*
X243480Y133023D01*
X243619Y132699D01*
X243781Y132421D01*
X243943Y132166D01*
X244082Y131958D01*
X244221Y131773D01*
X244359Y131611D01*
X244452Y131495D01*
X244545Y131403D01*
X244591Y131356D01*
X244614Y131333D01*
X244938Y131079D01*
X245308Y130848D01*
X245702Y130662D01*
X246095Y130500D01*
X246511Y130361D01*
X246928Y130223D01*
X247738Y130061D01*
X248108Y129991D01*
X248455Y129945D01*
X248779Y129922D01*
X249057Y129899D01*
X249265Y129876D01*
X242948D01*
D01*
X256276D01*
Y145125D01*
D02*
G37*
G36*
X434426Y145125D02*
X421214D01*
Y130176D01*
Y142232D01*
X425888D01*
Y130176D01*
X421214D01*
X434426D01*
X429752D01*
Y142232D01*
X434426D01*
Y145125D01*
D02*
G37*
G36*
X419478D02*
X408649D01*
Y130176D01*
X419478D01*
Y133069D01*
X412513D01*
Y136771D01*
X418969D01*
Y139664D01*
X412513D01*
Y142232D01*
X419478D01*
Y145125D01*
D02*
G37*
G36*
X382062D02*
X375143D01*
Y130176D01*
X389559D01*
D01*
X384561Y136563D01*
X385070Y136841D01*
X385487Y137118D01*
X385880Y137419D01*
X386181Y137697D01*
X386412Y137928D01*
X386597Y138136D01*
X386690Y138252D01*
X386736Y138298D01*
X386991Y138715D01*
X387199Y139178D01*
X387338Y139617D01*
X387430Y140057D01*
X387477Y140427D01*
X387500Y140589D01*
X387523Y140728D01*
Y140844D01*
Y140936D01*
Y140983D01*
Y141006D01*
X387500Y141445D01*
X387453Y141816D01*
X387361Y142163D01*
X387268Y142464D01*
X387176Y142695D01*
X387083Y142857D01*
X387037Y142949D01*
X387014Y142996D01*
X386829Y143296D01*
X386597Y143551D01*
X386366Y143759D01*
X386158Y143968D01*
X385973Y144106D01*
X385811Y144222D01*
X385718Y144291D01*
X385672Y144315D01*
X385348Y144477D01*
X385047Y144615D01*
X384746Y144731D01*
X384468Y144824D01*
X384214Y144893D01*
X384029Y144939D01*
X383913Y144963D01*
X383867D01*
X383497Y145009D01*
X383103Y145055D01*
X382733Y145078D01*
X382386Y145101D01*
X382062Y145125D01*
D02*
G37*
G36*
X371927D02*
X361098Y145125D01*
Y130176D01*
X371927Y130176D01*
Y133069D01*
D01*
X364962Y133069D01*
Y136771D01*
X371418Y136771D01*
Y139664D01*
X364962Y139664D01*
Y142232D01*
X371927Y142232D01*
Y145125D01*
D02*
G37*
G36*
X341591Y145125D02*
X328379D01*
Y130176D01*
Y142232D01*
X333053D01*
Y130176D01*
X328379D01*
X341591D01*
X336917D01*
Y142232D01*
X341591D01*
Y145125D01*
D02*
G37*
G36*
X326643D02*
X315814D01*
Y130176D01*
X326643D01*
Y133069D01*
X319678D01*
Y136771D01*
X326134D01*
Y139664D01*
X319678D01*
Y142232D01*
X326643D01*
Y145125D01*
D02*
G37*
G36*
X303643D02*
X290430D01*
Y130176D01*
Y142232D01*
X295104D01*
Y130176D01*
X290430D01*
X303643D01*
X298968D01*
Y142232D01*
X303643D01*
Y145125D01*
D02*
G37*
G36*
X290245D02*
X275829D01*
Y130176D01*
X279693D01*
Y135660D01*
X281429D01*
X285501Y130176D01*
X290245D01*
X285247Y136563D01*
X285756Y136841D01*
X286172Y137118D01*
X286566Y137419D01*
X286866Y137697D01*
X287098Y137928D01*
X287283Y138136D01*
X287376Y138252D01*
X287422Y138298D01*
X287676Y138715D01*
X287885Y139178D01*
X288023Y139617D01*
X288116Y140057D01*
X288162Y140427D01*
X288186Y140589D01*
X288209Y140728D01*
Y140844D01*
Y140936D01*
Y140983D01*
Y141006D01*
X288186Y141445D01*
X288139Y141816D01*
X288047Y142163D01*
X287954Y142463D01*
X287861Y142695D01*
X287769Y142857D01*
X287723Y142949D01*
X287700Y142996D01*
X287514Y143296D01*
X287283Y143551D01*
X287052Y143759D01*
X286843Y143968D01*
X286658Y144106D01*
X286496Y144222D01*
X286404Y144291D01*
X286357Y144315D01*
X286033Y144477D01*
X285733Y144615D01*
X285432Y144731D01*
X285154Y144824D01*
X284900Y144893D01*
X284715Y144939D01*
X284599Y144963D01*
X284553D01*
X284182Y145009D01*
X283789Y145055D01*
X283419Y145078D01*
X283072Y145101D01*
X282748Y145125D01*
X290245D01*
D02*
G37*
G36*
X273700D02*
Y130176D01*
X268170Y145125D01*
X263704D01*
X258197Y130176D01*
D01*
X273700D01*
Y145125D01*
D02*
G37*
G36*
X228463D02*
X223997D01*
X218490Y130176D01*
D01*
X233993Y130176D01*
D01*
X228463Y145125D01*
D02*
G37*
G36*
X217865Y145124D02*
X204652D01*
Y142232D01*
X209326D01*
Y130176D01*
X204652D01*
D01*
X217865D01*
Y145124D01*
D02*
G37*
G36*
X198474D02*
X194008D01*
X188501Y130176D01*
D01*
X204004D01*
X198474Y145124D01*
D02*
G37*
G36*
X168994D02*
X155574D01*
Y130176D01*
X162284D01*
X159438D01*
Y142232D01*
X165130D01*
Y130176D01*
X168994D01*
Y145124D01*
D02*
G37*
%LPD*%
G36*
X353439Y130176D02*
X347746D01*
Y136771D01*
X353439D01*
Y130176D01*
D02*
G37*
G36*
X401129Y130176D02*
X394766D01*
Y140427D01*
X401129Y130176D01*
D02*
G37*
G36*
X182508Y130176D02*
X186372D01*
Y130084D01*
X172789D01*
X173090Y130107D01*
X173391Y130130D01*
X173645Y130176D01*
X173877Y130223D01*
X174062Y130269D01*
X174224Y130315D01*
X174317Y130361D01*
X174340D01*
X174594Y130477D01*
X174849Y130593D01*
X175057Y130709D01*
X175242Y130847D01*
X175381Y130940D01*
X175473Y131033D01*
X175543Y131079D01*
X175566Y131102D01*
X175844Y131403D01*
X176098Y131704D01*
X176191Y131842D01*
X176260Y131935D01*
X176306Y132004D01*
X176330Y132028D01*
X176468Y132259D01*
X176607Y132514D01*
X176723Y132745D01*
X176839Y132976D01*
X176931Y133184D01*
X177001Y133370D01*
X177024Y133462D01*
X177047Y133509D01*
X177163Y133856D01*
X177278Y134249D01*
X177394Y134619D01*
X177487Y134989D01*
X177556Y135290D01*
X177602Y135545D01*
X177625Y135637D01*
X177649Y135707D01*
Y135753D01*
Y135776D01*
X177741Y136332D01*
X177834Y136887D01*
X177903Y137465D01*
X177949Y138021D01*
X177973Y138252D01*
X177996Y138483D01*
X178019Y138692D01*
Y138854D01*
Y139016D01*
X178042Y139108D01*
Y139178D01*
Y139201D01*
X178065Y139525D01*
X178088Y139802D01*
X178111Y140057D01*
Y140265D01*
X178134Y140427D01*
Y140566D01*
Y140635D01*
Y140659D01*
Y140890D01*
X178158Y141145D01*
X178181Y141422D01*
Y141653D01*
X178204Y141885D01*
X178227Y142070D01*
Y142186D01*
Y142232D01*
X182508D01*
Y130176D01*
D02*
G37*
G36*
X256276Y129876D02*
X249589D01*
X250191Y129899D01*
X250746Y129945D01*
X251278Y130014D01*
X251764Y130107D01*
X252204Y130223D01*
X252597Y130338D01*
X252967Y130477D01*
X253314Y130616D01*
X253592Y130732D01*
X253847Y130871D01*
X254078Y130986D01*
X254240Y131102D01*
X254379Y131195D01*
X254494Y131264D01*
X254541Y131310D01*
X254564Y131333D01*
X254865Y131634D01*
X255119Y131935D01*
X255351Y132282D01*
X255559Y132629D01*
X255721Y132976D01*
X255860Y133323D01*
X255975Y133671D01*
X256068Y134018D01*
X256137Y134341D01*
X256184Y134642D01*
X256230Y134897D01*
X256253Y135128D01*
X256276Y135337D01*
Y129876D01*
D02*
G37*
G36*
X381067Y142348D02*
X381368D01*
X381483Y142325D01*
X381576D01*
X381946Y142278D01*
X382108Y142255D01*
X382247Y142209D01*
X382340Y142186D01*
X382432Y142163D01*
X382478Y142140D01*
X382502D01*
X382687Y142047D01*
X382849Y141931D01*
X382988Y141839D01*
X383103Y141723D01*
X383196Y141630D01*
X383242Y141561D01*
X383288Y141515D01*
Y141492D01*
X383427Y141168D01*
X383497Y140867D01*
X383520Y140751D01*
Y140635D01*
Y140566D01*
Y140543D01*
Y140311D01*
X383497Y140126D01*
X383474Y139941D01*
X383427Y139802D01*
X383404Y139687D01*
X383358Y139594D01*
X383335Y139548D01*
Y139525D01*
X383173Y139270D01*
X382964Y139062D01*
X382872Y138969D01*
X382803Y138900D01*
X382756Y138877D01*
X382733Y138854D01*
X382386Y138645D01*
X382062Y138530D01*
X381923Y138483D01*
X381808Y138460D01*
X381715Y138437D01*
X381692D01*
X381460Y138414D01*
X381206Y138391D01*
X380951D01*
X380697Y138368D01*
X379008D01*
Y142371D01*
X380859D01*
X381067Y142348D01*
D02*
G37*
G36*
X384816Y130176D02*
X379008D01*
Y135660D01*
X380743D01*
X384816Y130176D01*
D02*
G37*
G36*
X281753Y142348D02*
X282054D01*
X282169Y142325D01*
X282262D01*
X282632Y142278D01*
X282794Y142255D01*
X282933Y142209D01*
X283025Y142186D01*
X283118Y142163D01*
X283164Y142140D01*
X283187D01*
X283372Y142047D01*
X283534Y141931D01*
X283673Y141839D01*
X283789Y141723D01*
X283881Y141630D01*
X283928Y141561D01*
X283974Y141515D01*
Y141492D01*
X284113Y141168D01*
X284182Y140867D01*
X284205Y140751D01*
Y140635D01*
Y140566D01*
Y140543D01*
Y140311D01*
X284182Y140126D01*
X284159Y139941D01*
X284113Y139802D01*
X284090Y139687D01*
X284044Y139594D01*
X284020Y139548D01*
Y139525D01*
X283858Y139270D01*
X283650Y139062D01*
X283558Y138969D01*
X283488Y138900D01*
X283442Y138877D01*
X283419Y138854D01*
X283072Y138645D01*
X282748Y138530D01*
X282609Y138483D01*
X282493Y138460D01*
X282401Y138437D01*
X282377D01*
X282146Y138414D01*
X281891Y138391D01*
X281637D01*
X281383Y138368D01*
X279693D01*
Y142371D01*
X281544D01*
X281753Y142348D01*
D02*
G37*
G36*
X267707Y135938D02*
X264051D01*
X265879Y141214D01*
X267707Y135938D01*
D02*
G37*
G36*
X269674Y130176D02*
X262084D01*
X263125Y133184D01*
X268633D01*
X269674Y130176D01*
D02*
G37*
G36*
X228000Y135938D02*
X224344D01*
X226172Y141214D01*
X228000Y135938D01*
D02*
G37*
G36*
X229967Y130176D02*
X222377Y130176D01*
X223418Y133184D01*
X228925D01*
X229967Y130176D01*
D02*
G37*
G36*
X217865Y130176D02*
X213191D01*
Y142232D01*
X217865D01*
Y130176D01*
D02*
G37*
G36*
X198011Y135938D02*
X194355D01*
X196183Y141214D01*
X198011Y135938D01*
D02*
G37*
G36*
X199978Y130176D02*
X192388D01*
X193430Y133184D01*
X198937D01*
X199978Y130176D01*
D02*
G37*
%LPC*%
G36*
X391628Y271974D02*
X388204D01*
Y263598D01*
X383993Y271974D01*
X379503D01*
D01*
Y257026D01*
X402967Y257026D01*
X391628D01*
Y271974D01*
D02*
G37*
G36*
X398316Y272275D02*
X379503Y272275D01*
X398084Y272275D01*
X397668Y272252D01*
X397275Y272229D01*
X396904Y272159D01*
X396557Y272067D01*
X396233Y271974D01*
X395932Y271858D01*
X395678Y271743D01*
X395423Y271627D01*
X395215Y271511D01*
X395030Y271396D01*
X394868Y271280D01*
X394729Y271187D01*
X394637Y271095D01*
X394567Y271025D01*
X394521Y271002D01*
X394498Y270979D01*
X394266Y270725D01*
X394081Y270470D01*
X393919Y270192D01*
X393757Y269891D01*
X393526Y269313D01*
X393387Y268758D01*
X393341Y268503D01*
X393294Y268249D01*
X393271Y268040D01*
X393248Y267855D01*
X393225Y267693D01*
Y267578D01*
Y267508D01*
Y267485D01*
X393248Y267092D01*
X393271Y266698D01*
X393341Y266328D01*
X393433Y266004D01*
X393526Y265680D01*
X393618Y265403D01*
X393734Y265125D01*
X393873Y264893D01*
X393989Y264685D01*
X394104Y264500D01*
X394197Y264338D01*
X394290Y264199D01*
X394382Y264107D01*
X394451Y264037D01*
X394475Y263991D01*
X394498Y263968D01*
X394752Y263736D01*
X395007Y263551D01*
X395308Y263389D01*
X395585Y263227D01*
X396187Y262996D01*
X396765Y262857D01*
X397043Y262811D01*
X397275Y262765D01*
X397506Y262741D01*
X397714Y262718D01*
X397853Y262695D01*
X398084D01*
X398501Y262718D01*
X398894Y262741D01*
X399264Y262811D01*
X399612Y262903D01*
X399935Y262996D01*
X400236Y263088D01*
X400514Y263204D01*
X400745Y263343D01*
X400954Y263459D01*
X401139Y263575D01*
X401301Y263667D01*
X401440Y263760D01*
X401532Y263852D01*
X401601Y263922D01*
X401648Y263945D01*
X401671Y263968D01*
X401902Y264222D01*
X402111Y264500D01*
X402273Y264778D01*
X402411Y265055D01*
X402643Y265657D01*
X402805Y266212D01*
X402851Y266467D01*
X402897Y266721D01*
X402920Y266930D01*
X402944Y267115D01*
X402967Y267277D01*
Y267485D01*
X402944Y267878D01*
X402920Y268272D01*
X402851Y268619D01*
X402758Y268966D01*
X402666Y269267D01*
X402573Y269568D01*
X402458Y269822D01*
X402342Y270054D01*
X402203Y270262D01*
X402088Y270447D01*
X401995Y270609D01*
X401902Y270748D01*
X401810Y270840D01*
X401740Y270910D01*
X401717Y270956D01*
X401694Y270979D01*
X401440Y271210D01*
X401185Y271419D01*
X400884Y271581D01*
X400583Y271719D01*
X400005Y271951D01*
X399403Y272113D01*
X399149Y272159D01*
X398894Y272206D01*
X398663Y272229D01*
X398478Y272252D01*
X398316Y272275D01*
D02*
G37*
G36*
X324154Y272275D02*
X323853D01*
X323275Y272252D01*
X322696Y272229D01*
X322187Y272182D01*
X321724Y272113D01*
X321331Y272043D01*
X321169Y272020D01*
X321030Y271997D01*
X320914Y271974D01*
X320845D01*
X320799Y271951D01*
X320776D01*
X320243Y271835D01*
X319757Y271719D01*
X319341Y271604D01*
X318971Y271511D01*
X318670Y271419D01*
X318462Y271349D01*
X318323Y271303D01*
X318300Y271280D01*
X318277D01*
Y268156D01*
X318647D01*
X318948Y268295D01*
X319202Y268411D01*
X319318Y268457D01*
X319387Y268503D01*
X319433Y268526D01*
X319457D01*
X319619Y268596D01*
X319781Y268688D01*
X320128Y268804D01*
X320290Y268873D01*
X320405Y268897D01*
X320498Y268943D01*
X320521D01*
X320961Y269082D01*
X321192Y269151D01*
X321377Y269197D01*
X321539Y269244D01*
X321655Y269267D01*
X321748Y269290D01*
X321771D01*
X322280Y269382D01*
X322534Y269406D01*
X322743Y269429D01*
X322951Y269452D01*
X323228D01*
X323691Y269429D01*
X324085Y269406D01*
X324432Y269336D01*
X324732Y269290D01*
X324964Y269220D01*
X325126Y269151D01*
X325242Y269128D01*
X325265Y269105D01*
X325519Y268966D01*
X325704Y268781D01*
X325843Y268619D01*
X325936Y268434D01*
X325982Y268272D01*
X326028Y268133D01*
Y268040D01*
Y268017D01*
X326005Y267716D01*
X325959Y267485D01*
X325936Y267392D01*
X325913Y267323D01*
X325889Y267300D01*
Y267277D01*
X325774Y267069D01*
X325635Y266907D01*
X325519Y266791D01*
X325496Y266768D01*
X325473Y266744D01*
X325357Y266675D01*
X325218Y266606D01*
X324964Y266513D01*
X324825Y266467D01*
X324732Y266444D01*
X324663Y266421D01*
X324640D01*
X324223Y266374D01*
X323992Y266351D01*
X323784D01*
X323622Y266328D01*
X320683D01*
Y263667D01*
X323714D01*
X323969Y263644D01*
X324200D01*
X324385Y263621D01*
X324547Y263598D01*
X324663D01*
X324732Y263574D01*
X324756D01*
X325126Y263505D01*
X325288Y263459D01*
X325427Y263389D01*
X325542Y263343D01*
X325612Y263320D01*
X325658Y263274D01*
X325681D01*
X325936Y263088D01*
X326098Y262880D01*
X326213Y262741D01*
X326236Y262695D01*
Y262672D01*
X326352Y262371D01*
X326399Y262070D01*
X326422Y261955D01*
Y261839D01*
Y261770D01*
Y261746D01*
Y261538D01*
X326375Y261330D01*
X326352Y261168D01*
X326306Y261029D01*
X326260Y260913D01*
X326213Y260821D01*
X326190Y260775D01*
X326167Y260751D01*
X326074Y260613D01*
X325959Y260474D01*
X325704Y260266D01*
X325612Y260196D01*
X325519Y260127D01*
X325450Y260103D01*
X325427Y260080D01*
X325079Y259895D01*
X324709Y259780D01*
X324571Y259733D01*
X324455Y259687D01*
X324362Y259664D01*
X324339D01*
X323830Y259594D01*
X323599Y259571D01*
X323367D01*
X323182Y259548D01*
X322580D01*
X322326Y259571D01*
X322071Y259594D01*
X321863Y259618D01*
X321678Y259641D01*
X321562Y259664D01*
X321470Y259687D01*
X321447D01*
X320984Y259826D01*
X320752Y259895D01*
X320544Y259965D01*
X320382Y260011D01*
X320220Y260057D01*
X320128Y260103D01*
X320105D01*
X319688Y260266D01*
X319480Y260358D01*
X319318Y260427D01*
X319156Y260497D01*
X319040Y260566D01*
X318971Y260589D01*
X318948Y260613D01*
X318762Y260728D01*
X318577Y260821D01*
X318438Y260890D01*
X318323Y260960D01*
X318230Y261006D01*
X318161Y261052D01*
X318138Y261075D01*
X317768D01*
Y272275D01*
X323111D01*
X317768D01*
Y256725D01*
D01*
Y257697D01*
X318647Y257396D01*
X319086Y257281D01*
X319480Y257188D01*
X319804Y257118D01*
X320081Y257049D01*
X320174Y257026D01*
X320243D01*
X320290Y257003D01*
X320313D01*
X320845Y256910D01*
X321377Y256841D01*
X321886Y256795D01*
X322349Y256771D01*
X322743Y256748D01*
X322904Y256725D01*
X323321D01*
X323969Y256748D01*
X324571Y256771D01*
X325103Y256818D01*
X325565Y256887D01*
X325751Y256910D01*
X325913Y256957D01*
X326074Y256980D01*
X326190Y257003D01*
X326283Y257026D01*
X326375D01*
X326399Y257049D01*
X326422D01*
X326884Y257188D01*
X327324Y257327D01*
X327694Y257489D01*
X328018Y257651D01*
X328273Y257790D01*
X328481Y257905D01*
X328597Y257975D01*
X328643Y257998D01*
X328944Y258229D01*
X329221Y258484D01*
X329453Y258738D01*
X329638Y258970D01*
X329777Y259178D01*
X329869Y259363D01*
X329939Y259456D01*
X329962Y259502D01*
X330124Y259849D01*
X330240Y260196D01*
X330309Y260520D01*
X330378Y260821D01*
X330402Y261075D01*
X330425Y261284D01*
Y261469D01*
X330402Y261816D01*
X330378Y262117D01*
X330332Y262394D01*
X330263Y262626D01*
X330193Y262811D01*
X330147Y262927D01*
X330124Y263019D01*
X330101Y263042D01*
X329962Y263274D01*
X329846Y263482D01*
X329684Y263644D01*
X329569Y263806D01*
X329453Y263945D01*
X329360Y264037D01*
X329291Y264083D01*
X329268Y264107D01*
X328898Y264384D01*
X328550Y264569D01*
X328388Y264639D01*
X328273Y264685D01*
X328203Y264731D01*
X328180D01*
X327741Y264870D01*
X327556Y264940D01*
X327393Y264986D01*
X327255Y265009D01*
X327139Y265032D01*
X327070Y265055D01*
X327046D01*
Y265217D01*
X327509Y265356D01*
X327949Y265541D01*
X328319Y265749D01*
X328620Y265935D01*
X328874Y266143D01*
X329059Y266305D01*
X329152Y266397D01*
X329198Y266444D01*
X329476Y266814D01*
X329684Y267184D01*
X329823Y267554D01*
X329939Y267901D01*
X329985Y268202D01*
X330008Y268434D01*
X330031Y268526D01*
Y268596D01*
Y268619D01*
Y268642D01*
X330008Y268966D01*
X329962Y269244D01*
X329893Y269521D01*
X329800Y269776D01*
X329545Y270239D01*
X329268Y270609D01*
X328967Y270910D01*
X328736Y271118D01*
X328620Y271210D01*
X328550Y271257D01*
X328504Y271303D01*
X328481D01*
X328180Y271465D01*
X327833Y271627D01*
X327116Y271858D01*
X326329Y272043D01*
X325589Y272159D01*
X325242Y272205D01*
X324918Y272229D01*
X324617Y272252D01*
X324362D01*
X324154Y272275D01*
D02*
G37*
G36*
X401625Y260913D02*
X394567D01*
Y258785D01*
X401625D01*
Y260913D01*
D02*
G37*
G36*
X410233Y268295D02*
X406484D01*
Y257026D01*
X410233D01*
Y260983D01*
X406484D01*
Y264338D01*
X410233D01*
Y268295D01*
D02*
G37*
G36*
X368720Y260983D02*
X364972D01*
Y257026D01*
X368720D01*
Y260983D01*
D02*
G37*
G36*
X355785Y271974D02*
X349376D01*
Y257026D01*
X362172D01*
X355901D01*
X356480Y257049D01*
X357012Y257072D01*
X357452Y257118D01*
X357845Y257165D01*
X358169Y257211D01*
X358400Y257257D01*
X358470Y257281D01*
X358539Y257304D01*
X358585D01*
X358979Y257419D01*
X359349Y257558D01*
X359673Y257720D01*
X359951Y257882D01*
X360205Y258021D01*
X360367Y258113D01*
X360483Y258206D01*
X360529Y258229D01*
X360807Y258461D01*
X361038Y258692D01*
X361246Y258923D01*
X361408Y259155D01*
X361547Y259340D01*
X361663Y259502D01*
X361709Y259594D01*
X361732Y259641D01*
X361871Y259965D01*
X361987Y260312D01*
X362056Y260636D01*
X362126Y260937D01*
X362149Y261191D01*
X362172Y261399D01*
Y261584D01*
X362126Y262117D01*
X362033Y262603D01*
X361894Y263019D01*
X361732Y263343D01*
X361570Y263621D01*
X361432Y263829D01*
X361339Y263945D01*
X361293Y263991D01*
X360946Y264315D01*
X360575Y264569D01*
X360182Y264778D01*
X359812Y264940D01*
X359488Y265055D01*
X359210Y265148D01*
X359118Y265171D01*
X359048D01*
X359002Y265194D01*
X358979D01*
Y265287D01*
X359349Y265472D01*
X359673Y265680D01*
X359951Y265912D01*
X360182Y266120D01*
X360367Y266305D01*
X360483Y266444D01*
X360575Y266536D01*
X360598Y266583D01*
X360784Y266907D01*
X360923Y267230D01*
X361038Y267554D01*
X361108Y267855D01*
X361154Y268110D01*
X361177Y268295D01*
Y268434D01*
Y268480D01*
X361154Y268827D01*
X361108Y269151D01*
X361038Y269429D01*
X360969Y269660D01*
X360876Y269868D01*
X360807Y270030D01*
X360760Y270123D01*
X360737Y270146D01*
X360575Y270401D01*
X360367Y270632D01*
X360159Y270840D01*
X359951Y271002D01*
X359766Y271141D01*
X359627Y271234D01*
X359534Y271280D01*
X359488Y271303D01*
X359187Y271442D01*
X358886Y271558D01*
X358585Y271650D01*
X358354Y271719D01*
X358123Y271789D01*
X357961Y271812D01*
X357868Y271835D01*
X357822D01*
X357660Y271858D01*
X357475Y271882D01*
X357058Y271928D01*
X356618Y271951D01*
X356179D01*
X355785Y271974D01*
D02*
G37*
G36*
X341717D02*
X337251D01*
X331744Y257026D01*
X335631D01*
X336672Y260034D01*
X342180D01*
X343221Y257026D01*
X347247D01*
D01*
X341717Y271974D01*
D02*
G37*
G36*
X343221Y257026D02*
X342436D01*
X343221D01*
D01*
D02*
G37*
G36*
X331744Y271974D02*
Y257026D01*
D01*
Y271974D01*
D02*
G37*
%LPD*%
G36*
X388111Y257026D02*
X382928Y257026D01*
Y267230D01*
X388111Y257026D01*
D02*
G37*
G36*
X398431Y270239D02*
X398709Y270146D01*
X398964Y270054D01*
X399172Y269915D01*
X399311Y269799D01*
X399426Y269683D01*
X399496Y269591D01*
X399519Y269568D01*
X399681Y269267D01*
X399797Y268943D01*
X399889Y268596D01*
X399935Y268249D01*
X399982Y267925D01*
X400005Y267670D01*
Y267578D01*
Y267508D01*
Y267462D01*
Y267439D01*
X399982Y266953D01*
X399935Y266513D01*
X399843Y266166D01*
X399773Y265865D01*
X399681Y265634D01*
X399588Y265495D01*
X399542Y265379D01*
X399519Y265356D01*
X399311Y265148D01*
X399103Y264986D01*
X398871Y264870D01*
X398640Y264801D01*
X398431Y264755D01*
X398270Y264708D01*
X398107D01*
X397760Y264731D01*
X397460Y264801D01*
X397228Y264916D01*
X397020Y265032D01*
X396858Y265148D01*
X396742Y265264D01*
X396673Y265333D01*
X396650Y265356D01*
X396488Y265634D01*
X396372Y265958D01*
X396303Y266305D01*
X396256Y266652D01*
X396210Y266953D01*
X396187Y267207D01*
Y267300D01*
Y267369D01*
Y267416D01*
Y267439D01*
X396210Y267948D01*
X396256Y268387D01*
X396326Y268734D01*
X396418Y269035D01*
X396511Y269267D01*
X396580Y269429D01*
X396627Y269544D01*
X396650Y269568D01*
X396835Y269799D01*
X397066Y269961D01*
X397298Y270100D01*
X397552Y270169D01*
X397760Y270215D01*
X397922Y270262D01*
X398084D01*
X398431Y270239D01*
D02*
G37*
G36*
X355068Y269197D02*
X355323D01*
X355554Y269174D01*
X355739Y269151D01*
X355924Y269128D01*
X356086Y269105D01*
X356202Y269058D01*
X356295Y269035D01*
X356341Y269012D01*
X356364D01*
X356526Y268943D01*
X356665Y268850D01*
X356781Y268781D01*
X356873Y268688D01*
X356989Y268549D01*
X357035Y268503D01*
Y268480D01*
X357151Y268202D01*
X357197Y267971D01*
X357220Y267878D01*
Y267809D01*
Y267763D01*
Y267740D01*
X357197Y267392D01*
X357151Y267138D01*
X357104Y267022D01*
X357081Y266953D01*
X357058Y266907D01*
Y266883D01*
X356989Y266744D01*
X356873Y266629D01*
X356642Y266444D01*
X356549Y266374D01*
X356457Y266328D01*
X356387Y266282D01*
X356364D01*
X356225Y266236D01*
X356040Y266189D01*
X355716Y266120D01*
X355577D01*
X355462Y266097D01*
X355091D01*
X354837Y266073D01*
X353240D01*
Y269220D01*
X354883D01*
X355068Y269197D01*
D02*
G37*
G36*
X355415Y263459D02*
X355994D01*
X356248Y263436D01*
X356457Y263412D01*
X356618Y263389D01*
X356757Y263366D01*
X356873Y263343D01*
X356919Y263320D01*
X356942D01*
X357174Y263251D01*
X357382Y263158D01*
X357544Y263065D01*
X357660Y262973D01*
X357775Y262880D01*
X357845Y262811D01*
X357868Y262764D01*
X357891Y262741D01*
X357984Y262579D01*
X358053Y262418D01*
X358146Y262070D01*
Y261908D01*
X358169Y261770D01*
Y261677D01*
Y261654D01*
X358123Y261284D01*
X358100Y261122D01*
X358053Y260983D01*
X358007Y260867D01*
X357984Y260775D01*
X357938Y260728D01*
Y260705D01*
X357845Y260566D01*
X357706Y260427D01*
X357428Y260219D01*
X357313Y260127D01*
X357197Y260080D01*
X357128Y260057D01*
X357104Y260034D01*
X356873Y259942D01*
X356665Y259895D01*
X356433Y259849D01*
X356248Y259803D01*
X356063D01*
X355924Y259780D01*
X353240D01*
Y263482D01*
X355207D01*
X355415Y263459D01*
D02*
G37*
G36*
X341254Y262788D02*
X337598D01*
X339426Y268064D01*
X341254Y262788D01*
D02*
G37*
%LPC*%
G36*
X524849Y340763D02*
X512053D01*
X518833D01*
X518301Y340740D01*
X517769Y340717D01*
X517283Y340648D01*
X516820Y340555D01*
X516403Y340462D01*
X516010Y340347D01*
X515640Y340208D01*
X515316Y340092D01*
X515015Y339977D01*
X514737Y339838D01*
X514529Y339722D01*
X514344Y339629D01*
X514182Y339537D01*
X514089Y339491D01*
X514020Y339444D01*
X513997Y339421D01*
X513673Y339167D01*
X513395Y338889D01*
X513141Y338611D01*
X512933Y338334D01*
X512747Y338056D01*
X512608Y337755D01*
X512470Y337501D01*
X512377Y337223D01*
X512308Y336968D01*
X512238Y336760D01*
X512192Y336552D01*
X512169Y336367D01*
Y336228D01*
X512146Y336112D01*
Y336043D01*
Y336020D01*
X512192Y335464D01*
X512285Y334955D01*
X512400Y334492D01*
X512562Y334122D01*
X512701Y333798D01*
X512840Y333567D01*
X512886Y333498D01*
X512933Y333428D01*
X512956Y333405D01*
Y333382D01*
X513118Y333197D01*
X513303Y333012D01*
X513742Y332688D01*
X514182Y332410D01*
X514645Y332179D01*
X515038Y331993D01*
X515223Y331901D01*
X515385Y331855D01*
X515501Y331808D01*
X515593Y331762D01*
X515663Y331739D01*
X515686D01*
X516311Y331554D01*
X516612Y331461D01*
X516889Y331415D01*
X517098Y331345D01*
X517283Y331299D01*
X517398Y331276D01*
X517445D01*
X517792Y331207D01*
X518139Y331160D01*
X518440Y331091D01*
X518694Y331022D01*
X518926Y330975D01*
X519111Y330952D01*
X519203Y330906D01*
X519249D01*
X519527Y330836D01*
X519782Y330744D01*
X519967Y330651D01*
X520152Y330559D01*
X520291Y330489D01*
X520383Y330420D01*
X520430Y330374D01*
X520453Y330350D01*
X520592Y330212D01*
X520707Y330073D01*
X520777Y329934D01*
X520846Y329795D01*
X520869Y329679D01*
X520892Y329610D01*
Y329541D01*
Y329518D01*
X520869Y329332D01*
X520846Y329170D01*
X520800Y329032D01*
X520754Y328916D01*
X520684Y328823D01*
X520638Y328754D01*
X520615Y328731D01*
X520592Y328708D01*
X520360Y328522D01*
X520129Y328384D01*
X520036Y328314D01*
X519944Y328268D01*
X519897Y328245D01*
X519874D01*
X519574Y328152D01*
X519273Y328083D01*
X519134Y328060D01*
X519018D01*
X518949Y328037D01*
X518926D01*
X518717Y328013D01*
X518370D01*
X518255Y327990D01*
X518000D01*
X517491Y328013D01*
X516982Y328060D01*
X516496Y328152D01*
X516056Y328245D01*
X515686Y328337D01*
X515547Y328384D01*
X515408Y328430D01*
X515293Y328453D01*
X515223Y328476D01*
X515177Y328499D01*
X515154D01*
X514622Y328708D01*
X514113Y328939D01*
X513650Y329194D01*
X513256Y329425D01*
X512933Y329656D01*
X512678Y329818D01*
X512585Y329888D01*
X512516Y329934D01*
X512493Y329980D01*
X512053D01*
Y325237D01*
D01*
Y326371D01*
X512956Y326047D01*
X513395Y325908D01*
X513789Y325792D01*
X514136Y325700D01*
X514390Y325630D01*
X514483Y325584D01*
X514552D01*
X514599Y325561D01*
X514622D01*
X515154Y325445D01*
X515709Y325376D01*
X516264Y325306D01*
X516774Y325283D01*
X517213Y325260D01*
X517398Y325237D01*
X517861D01*
X518440Y325260D01*
X518995Y325306D01*
X519527Y325352D01*
X520013Y325445D01*
X520476Y325561D01*
X520892Y325676D01*
X521263Y325792D01*
X521610Y325931D01*
X521911Y326047D01*
X522188Y326162D01*
X522420Y326278D01*
X522605Y326394D01*
X522767Y326486D01*
X522859Y326533D01*
X522929Y326579D01*
X522952Y326602D01*
X523276Y326880D01*
X523577Y327157D01*
X523831Y327458D01*
X524039Y327759D01*
X524225Y328060D01*
X524386Y328361D01*
X524502Y328638D01*
X524618Y328939D01*
X524687Y329194D01*
X524757Y329425D01*
X524803Y329656D01*
X524826Y329841D01*
Y330004D01*
X524849Y330119D01*
Y330212D01*
X524803Y330767D01*
X524710Y331253D01*
X524595Y331693D01*
X524433Y332063D01*
X524271Y332341D01*
X524155Y332549D01*
X524062Y332688D01*
X524016Y332734D01*
X523669Y333081D01*
X523276Y333382D01*
X522859Y333636D01*
X522443Y333868D01*
X522072Y334030D01*
X521887Y334099D01*
X521749Y334169D01*
X521633Y334215D01*
X521540Y334238D01*
X521494Y334261D01*
X521471D01*
X521147Y334354D01*
X520846Y334446D01*
X520569Y334516D01*
X520314Y334585D01*
X520106Y334631D01*
X519967Y334678D01*
X519874Y334701D01*
X519828D01*
X519273Y334817D01*
X518995Y334886D01*
X518764Y334932D01*
X518555Y334978D01*
X518393Y335025D01*
X518301Y335048D01*
X518255D01*
X517815Y335140D01*
X517468Y335233D01*
X517167Y335326D01*
X516936Y335418D01*
X516750Y335488D01*
X516635Y335557D01*
X516565Y335580D01*
X516542Y335603D01*
X516403Y335742D01*
X516288Y335881D01*
X516218Y336043D01*
X516149Y336182D01*
X516126Y336320D01*
X516102Y336436D01*
Y336506D01*
Y336529D01*
X516126Y336668D01*
X516149Y336806D01*
X516241Y337015D01*
X516288Y337107D01*
X516334Y337177D01*
X516380Y337200D01*
Y337223D01*
X516612Y337431D01*
X516820Y337570D01*
X516912Y337616D01*
X516982Y337663D01*
X517028Y337686D01*
X517051D01*
X517375Y337801D01*
X517676Y337894D01*
X517792Y337917D01*
X517884D01*
X517931Y337940D01*
X517954D01*
X518301Y337986D01*
X518625Y338010D01*
X518926D01*
X519435Y337986D01*
X519921Y337940D01*
X520383Y337848D01*
X520777Y337778D01*
X521124Y337686D01*
X521263Y337640D01*
X521378Y337593D01*
X521471Y337570D01*
X521540Y337547D01*
X521587Y337524D01*
X521610D01*
X522096Y337339D01*
X522512Y337130D01*
X522882Y336922D01*
X523206Y336737D01*
X523484Y336575D01*
X523669Y336436D01*
X523785Y336344D01*
X523831Y336320D01*
X524248D01*
Y339745D01*
X523831Y339907D01*
X523415Y340046D01*
X522975Y340162D01*
X522582Y340277D01*
X522234Y340347D01*
X522096Y340393D01*
X521980Y340416D01*
X521864Y340439D01*
X521795D01*
X521749Y340462D01*
X521725D01*
X521193Y340555D01*
X520661Y340648D01*
X520175Y340694D01*
X519735Y340717D01*
X519365Y340740D01*
X519226Y340763D01*
X524849D01*
D02*
G37*
G36*
X553264Y340462D02*
X540052Y340462D01*
Y325514D01*
Y337570D01*
X544726D01*
Y325514D01*
X548903D01*
X548590D01*
Y337570D01*
X553264Y337570D01*
Y340462D01*
D02*
G37*
G36*
X538316Y340462D02*
X527487D01*
Y325514D01*
X538316D01*
Y328407D01*
D01*
X531351D01*
Y332109D01*
X537807D01*
Y335002D01*
X531351D01*
Y337570D01*
X538316D01*
Y340462D01*
D02*
G37*
G36*
X509647D02*
X498817D01*
Y325514D01*
X509647D01*
Y328407D01*
X502682D01*
Y332109D01*
X509138D01*
Y335002D01*
X502682D01*
Y337570D01*
X509647D01*
Y340462D01*
D02*
G37*
G36*
X497151D02*
X482735D01*
Y325514D01*
X486600D01*
Y330998D01*
X488335D01*
X492408Y325514D01*
X497151D01*
X492153Y331901D01*
X492662Y332179D01*
X493079Y332456D01*
X493472Y332757D01*
X493773Y333035D01*
X494004Y333266D01*
X494189Y333474D01*
X494282Y333590D01*
X494328Y333636D01*
X494583Y334053D01*
X494791Y334516D01*
X494930Y334955D01*
X495023Y335395D01*
X495069Y335765D01*
X495092Y335927D01*
X495115Y336066D01*
Y336182D01*
Y336274D01*
Y336320D01*
Y336344D01*
X495092Y336783D01*
X495046Y337154D01*
X494953Y337501D01*
X494861Y337801D01*
X494768Y338033D01*
X494675Y338195D01*
X494629Y338287D01*
X494606Y338334D01*
X494421Y338634D01*
X494189Y338889D01*
X493958Y339097D01*
X493750Y339305D01*
X493565Y339444D01*
X493403Y339560D01*
X493310Y339629D01*
X493264Y339653D01*
X492940Y339815D01*
X492639Y339953D01*
X492338Y340069D01*
X492061Y340162D01*
X491806Y340231D01*
X491621Y340277D01*
X491505Y340300D01*
X491459D01*
X491089Y340347D01*
X490695Y340393D01*
X490325Y340416D01*
X489978Y340439D01*
X489654Y340462D01*
X497151D01*
D02*
G37*
%LPD*%
G36*
X488659Y337686D02*
X488960D01*
X489076Y337663D01*
X489168D01*
X489538Y337616D01*
X489701Y337593D01*
X489839Y337547D01*
X489932Y337524D01*
X490024Y337501D01*
X490071Y337477D01*
X490094D01*
X490279Y337385D01*
X490441Y337269D01*
X490580Y337177D01*
X490695Y337061D01*
X490788Y336968D01*
X490834Y336899D01*
X490881Y336853D01*
Y336830D01*
X491019Y336506D01*
X491089Y336205D01*
X491112Y336089D01*
Y335973D01*
Y335904D01*
Y335881D01*
Y335649D01*
X491089Y335464D01*
X491066Y335279D01*
X491019Y335140D01*
X490996Y335025D01*
X490950Y334932D01*
X490927Y334886D01*
Y334863D01*
X490765Y334608D01*
X490557Y334400D01*
X490464Y334307D01*
X490395Y334238D01*
X490348Y334215D01*
X490325Y334192D01*
X489978Y333983D01*
X489654Y333868D01*
X489515Y333821D01*
X489400Y333798D01*
X489307Y333775D01*
X489284D01*
X489053Y333752D01*
X488798Y333729D01*
X488544D01*
X488289Y333706D01*
X486600D01*
Y337709D01*
X488451D01*
X488659Y337686D01*
D02*
G37*
D10*
X473160Y307600D02*
G03*
X473160Y307600I-2000J0D01*
G01*
X232000Y367860D02*
G03*
X232000Y367860I-2000J0D01*
G01*
D11*
X475000Y319000D02*
Y347000D01*
X421600D02*
X475000D01*
X421600Y319000D02*
Y347000D01*
Y319000D02*
X475000D01*
X995000Y110000D02*
Y270000D01*
X906000D02*
X995000D01*
X906000Y110000D02*
X995000D01*
X812000Y270000D02*
X870000D01*
X812000Y110000D02*
Y270000D01*
Y110000D02*
X870000D01*
X216030Y331030D02*
Y358970D01*
Y331030D02*
X320170D01*
Y358970D01*
X216030D02*
X320170D01*
X581720Y194720D02*
Y202720D01*
X577720Y190720D02*
X581720Y194720D01*
X569720Y190720D02*
X577720D01*
Y206720D02*
X581720Y202720D01*
X569720Y206720D02*
X577720D01*
X565720Y202720D02*
X569720Y206720D01*
X565720Y194720D02*
Y202720D01*
Y194720D02*
X569720Y190720D01*
X751000Y52000D02*
Y60000D01*
X747000Y48000D02*
X751000Y52000D01*
X739000Y48000D02*
X747000D01*
Y64000D02*
X751000Y60000D01*
X739000Y64000D02*
X747000D01*
X735000Y60000D02*
X739000Y64000D01*
X735000Y52000D02*
Y60000D01*
Y52000D02*
X739000Y48000D01*
X700681Y253564D02*
Y261564D01*
X696681Y249564D02*
X700681Y253564D01*
X688681Y249564D02*
X696681D01*
Y265564D02*
X700681Y261564D01*
X688681Y265564D02*
X696681D01*
X684681Y261564D02*
X688681Y265564D01*
X684681Y253564D02*
Y261564D01*
Y253564D02*
X688681Y249564D01*
X263000Y206000D02*
Y214000D01*
X259000Y202000D02*
X263000Y206000D01*
X251000Y202000D02*
X259000D01*
Y218000D02*
X263000Y214000D01*
X251000Y218000D02*
X259000D01*
X247000Y214000D02*
X251000Y218000D01*
X247000Y206000D02*
Y214000D01*
Y206000D02*
X251000Y202000D01*
X609000Y332000D02*
Y358000D01*
Y332000D02*
X661000D01*
Y358000D01*
X609000D02*
X661000D01*
X665982Y367000D02*
X666000Y359000D01*
X662000Y363000D02*
X670000D01*
X609000Y292000D02*
Y318000D01*
Y292000D02*
X661000D01*
Y318000D01*
X609000D02*
X661000D01*
X665982Y327000D02*
X666000Y319000D01*
X662000Y323000D02*
X670000D01*
X297000Y21000D02*
Y47000D01*
Y21000D02*
X349000D01*
Y47000D01*
X297000D02*
X349000D01*
X353982Y56000D02*
X354000Y48000D01*
X350000Y52000D02*
X358000D01*
X55000Y197000D02*
Y223000D01*
Y197000D02*
X107000D01*
Y223000D01*
X55000D02*
X107000D01*
X111982Y232000D02*
X112000Y224000D01*
X108000Y228000D02*
X116000D01*
X157000Y179000D02*
X161000Y183000D01*
X169000D01*
X173000Y179000D01*
Y171000D02*
Y179000D01*
X169000Y167000D02*
X173000Y171000D01*
X157000D02*
Y179000D01*
Y171000D02*
X161000Y167000D01*
X169000D01*
X315000Y249000D02*
X516000D01*
X315000Y168000D02*
Y249000D01*
X516000Y168000D02*
Y249000D01*
X315000Y168000D02*
X516000D01*
D12*
X435504Y368498D02*
X445501Y353502D01*
Y368498D02*
X435504Y353502D01*
X460496D02*
X450499D01*
X460496Y363499D01*
Y365998D01*
X457997Y368498D01*
X452998D01*
X450499Y365998D01*
X735006Y43498D02*
X745003D01*
X740005D01*
Y28502D01*
X750002D02*
Y43498D01*
X757499D01*
X759998Y40998D01*
Y36000D01*
X757499Y33501D01*
X750002D01*
X774994Y43498D02*
X764997D01*
Y36000D01*
X769995Y38499D01*
X772494D01*
X774994Y36000D01*
Y31002D01*
X772494Y28502D01*
X767496D01*
X764997Y31002D01*
X672007Y245498D02*
X682003D01*
X677005D01*
Y230502D01*
X687002D02*
Y245498D01*
X694499D01*
X696998Y242998D01*
Y238000D01*
X694499Y235501D01*
X687002D01*
X709494Y230502D02*
Y245498D01*
X701997Y238000D01*
X711993D01*
X584007Y206498D02*
X594003D01*
X589005D01*
Y191502D01*
X599002D02*
Y206498D01*
X606499D01*
X608998Y203998D01*
Y199000D01*
X606499Y196501D01*
X599002D01*
X613997Y203998D02*
X616496Y206498D01*
X621494D01*
X623993Y203998D01*
Y201499D01*
X621494Y199000D01*
X618995D01*
X621494D01*
X623993Y196501D01*
Y194002D01*
X621494Y191502D01*
X616496D01*
X613997Y194002D01*
X265007Y217498D02*
X275003D01*
X270005D01*
Y202502D01*
X280002D02*
Y217498D01*
X287499D01*
X289998Y214998D01*
Y210000D01*
X287499Y207501D01*
X280002D01*
X304993Y202502D02*
X294997D01*
X304993Y212499D01*
Y214998D01*
X302494Y217498D01*
X297496D01*
X294997Y214998D01*
X175506Y182498D02*
X185502D01*
X180504D01*
Y167502D01*
X190501D02*
Y182498D01*
X197998D01*
X200498Y179998D01*
Y175000D01*
X197998Y172501D01*
X190501D01*
X205496Y167502D02*
X210494D01*
X207995D01*
Y182498D01*
X205496Y179998D01*
X563007Y291498D02*
Y276502D01*
Y284000D01*
X573003D01*
Y291498D01*
Y276502D01*
X578002Y291498D02*
Y276502D01*
X587998D01*
X600494D02*
Y291498D01*
X592997Y284000D01*
X602994D01*
X563007Y371498D02*
Y356502D01*
Y364000D01*
X573003D01*
Y371498D01*
Y356502D01*
X578002Y371498D02*
Y356502D01*
X587998D01*
X592997Y368998D02*
X595496Y371498D01*
X600494D01*
X602994Y368998D01*
Y366499D01*
X600494Y364000D01*
X597995D01*
X600494D01*
X602994Y361501D01*
Y359002D01*
X600494Y356502D01*
X595496D01*
X592997Y359002D01*
X319007Y75498D02*
Y60502D01*
Y68000D01*
X329003D01*
Y75498D01*
Y60502D01*
X334002Y75498D02*
Y60502D01*
X343998D01*
X358993D02*
X348997D01*
X358993Y70499D01*
Y72998D01*
X356494Y75498D01*
X351496D01*
X348997Y72998D01*
X67506Y243498D02*
Y228502D01*
Y236000D01*
X77502D01*
Y243498D01*
Y228502D01*
X82501Y243498D02*
Y228502D01*
X92498D01*
X97496D02*
X102494D01*
X99995D01*
Y243498D01*
X97496Y240998D01*
X258003Y323498D02*
X268000Y308502D01*
Y323498D02*
X258003Y308502D01*
X272998D02*
X277997D01*
X275498D01*
Y323498D01*
X272998Y320998D01*
D13*
X781843Y205382D02*
Y215539D01*
X786922Y220618D01*
X792000Y215539D01*
Y205382D01*
Y213000D01*
X781843D01*
X797078Y205382D02*
X802157D01*
X799618D01*
Y220618D01*
X797078Y218078D01*
D14*
X612000Y364500D02*
D03*
Y324500D02*
D03*
X300000Y53500D02*
D03*
X58000Y229500D02*
D03*
M02*
