G04*
G04 #@! TF.GenerationSoftware,Altium Limited,Altium Designer,22.11.1 (43)*
G04*
G04 Layer_Color=8388736*
%FSLAX44Y44*%
%MOMM*%
G71*
G04*
G04 #@! TF.SameCoordinates,DE08DE9B-F6C2-4E1B-A14B-2B9FB2CCB798*
G04*
G04*
G04 #@! TF.FilePolarity,Negative*
G04*
G01*
G75*
G04:AMPARAMS|DCode=15|XSize=2.2mm|YSize=1.6mm|CornerRadius=0.45mm|HoleSize=0mm|Usage=FLASHONLY|Rotation=90.000|XOffset=0mm|YOffset=0mm|HoleType=Round|Shape=RoundedRectangle|*
%AMROUNDEDRECTD15*
21,1,2.2000,0.7000,0,0,90.0*
21,1,1.3000,1.6000,0,0,90.0*
1,1,0.9000,0.3500,0.6500*
1,1,0.9000,0.3500,-0.6500*
1,1,0.9000,-0.3500,-0.6500*
1,1,0.9000,-0.3500,0.6500*
%
%ADD15ROUNDEDRECTD15*%
G04:AMPARAMS|DCode=16|XSize=2.2mm|YSize=2.2mm|CornerRadius=0.6mm|HoleSize=0mm|Usage=FLASHONLY|Rotation=270.000|XOffset=0mm|YOffset=0mm|HoleType=Round|Shape=RoundedRectangle|*
%AMROUNDEDRECTD16*
21,1,2.2000,1.0000,0,0,270.0*
21,1,1.0000,2.2000,0,0,270.0*
1,1,1.2000,-0.5000,-0.5000*
1,1,1.2000,-0.5000,0.5000*
1,1,1.2000,0.5000,0.5000*
1,1,1.2000,0.5000,-0.5000*
%
%ADD16ROUNDEDRECTD16*%
%ADD17C,2.2000*%
%ADD18C,2.0000*%
%ADD19C,1.6000*%
%ADD20C,3.5000*%
%ADD21C,2.8000*%
%ADD22C,1.4000*%
G04:AMPARAMS|DCode=23|XSize=2.2mm|YSize=2.2mm|CornerRadius=0.6mm|HoleSize=0mm|Usage=FLASHONLY|Rotation=0.000|XOffset=0mm|YOffset=0mm|HoleType=Round|Shape=RoundedRectangle|*
%AMROUNDEDRECTD23*
21,1,2.2000,1.0000,0,0,0.0*
21,1,1.0000,2.2000,0,0,0.0*
1,1,1.2000,0.5000,-0.5000*
1,1,1.2000,-0.5000,-0.5000*
1,1,1.2000,-0.5000,0.5000*
1,1,1.2000,0.5000,0.5000*
%
%ADD23ROUNDEDRECTD23*%
G04:AMPARAMS|DCode=24|XSize=1.2mm|YSize=1.2mm|CornerRadius=0mm|HoleSize=0mm|Usage=FLASHONLY|Rotation=90.000|XOffset=0mm|YOffset=0mm|HoleType=Round|Shape=Octagon|*
%AMOCTAGOND24*
4,1,8,0.3000,0.6000,-0.3000,0.6000,-0.6000,0.3000,-0.6000,-0.3000,-0.3000,-0.6000,0.3000,-0.6000,0.6000,-0.3000,0.6000,0.3000,0.3000,0.6000,0.0*
%
%ADD24OCTAGOND24*%

%ADD25C,7.2000*%
G04:AMPARAMS|DCode=26|XSize=7.2mm|YSize=7.2mm|CornerRadius=1.85mm|HoleSize=0mm|Usage=FLASHONLY|Rotation=0.000|XOffset=0mm|YOffset=0mm|HoleType=Round|Shape=RoundedRectangle|*
%AMROUNDEDRECTD26*
21,1,7.2000,3.5000,0,0,0.0*
21,1,3.5000,7.2000,0,0,0.0*
1,1,3.7000,1.7500,-1.7500*
1,1,3.7000,-1.7500,-1.7500*
1,1,3.7000,-1.7500,1.7500*
1,1,3.7000,1.7500,1.7500*
%
%ADD26ROUNDEDRECTD26*%
G04:AMPARAMS|DCode=27|XSize=1.2mm|YSize=1.2mm|CornerRadius=0mm|HoleSize=0mm|Usage=FLASHONLY|Rotation=0.000|XOffset=0mm|YOffset=0mm|HoleType=Round|Shape=Octagon|*
%AMOCTAGOND27*
4,1,8,0.6000,-0.3000,0.6000,0.3000,0.3000,0.6000,-0.3000,0.6000,-0.6000,0.3000,-0.6000,-0.3000,-0.3000,-0.6000,0.3000,-0.6000,0.6000,-0.3000,0.0*
%
%ADD27OCTAGOND27*%

D15*
X651000Y345000D02*
D03*
X619000D02*
D03*
X651000Y305000D02*
D03*
X619000D02*
D03*
X461000Y345000D02*
D03*
X429000D02*
D03*
X97000Y210000D02*
D03*
X65000D02*
D03*
D16*
X580000Y330000D02*
D03*
X130000D02*
D03*
D17*
X580000Y304600D02*
D03*
X130000D02*
D03*
Y253800D02*
D03*
Y228400D02*
D03*
Y279200D02*
D03*
Y177600D02*
D03*
Y152200D02*
D03*
Y203000D02*
D03*
Y126800D02*
D03*
Y101400D02*
D03*
X255400Y345000D02*
D03*
X306200D02*
D03*
X280800D02*
D03*
D18*
X967500Y230900D02*
D03*
Y256300D02*
D03*
Y149100D02*
D03*
Y123700D02*
D03*
D19*
X829600Y234450D02*
D03*
X855000Y221750D02*
D03*
X829600Y209050D02*
D03*
X855000Y196350D02*
D03*
X829600Y183650D02*
D03*
X855000Y170950D02*
D03*
X829600Y158250D02*
D03*
X855000Y145550D02*
D03*
D20*
X918500Y247150D02*
D03*
Y132850D02*
D03*
D21*
X888000Y267450D02*
D03*
Y112550D02*
D03*
D22*
X530000Y240600D02*
D03*
Y289400D02*
D03*
X440000Y50600D02*
D03*
Y99400D02*
D03*
D23*
X230000Y345000D02*
D03*
D24*
X573720Y198720D02*
D03*
X743000Y56000D02*
D03*
X692681Y257564D02*
D03*
X255000Y210000D02*
D03*
D25*
X50000Y50000D02*
D03*
Y330000D02*
D03*
D26*
X950000D02*
D03*
Y50000D02*
D03*
D27*
X165000Y175000D02*
D03*
M02*
