M48
;Layer_Color=9474304
;FILE_FORMAT=4:4
METRIC,LZ
;TYPE=PLATED
T1F00S00C0.4000
T2F00S00C0.5000
T3F00S00C0.7000
T4F00S00C0.9000
T5F00S00C1.1000
T6F00S00C1.6000
T7F00S00C3.3000
T8F00S00C3.4000
%
T01
X00649Y00052
X00673Y0004
X006775Y000725
X00705Y00054
X0073Y0004
X0077Y00049
X00758Y00067
X00791
X00812Y00061
X00832Y00067
X00867Y00064
X00849Y00044
X0086Y00025
X00895
X00889Y00039
X00829Y00032
X00791Y00036
X00786Y00104
X00795Y00118
X00809Y00144
X00786Y00153
X00793Y00186
X00803Y00186119
X00807Y00209
Y00241
X00783Y00228
X00786Y00197
X00744Y00182
Y0016
X00695Y00163
X00684Y00166
X0068Y001425
Y001225
X00645Y00125
Y00138
Y00165
X00658Y00192
X006696Y00187521
X00695Y00206
X00681Y00226
X00663Y00236
X00679Y00252
X00705Y0028
X00744Y00286
Y00268
Y00246
Y00229
X00783Y00268
X00796Y00286
X00792Y00309
Y00351
X00744
Y00309
X00704Y00324
X00691
X00666Y00335
Y00351
X00651Y00287
X00828Y00262
X00852Y00282
X00871Y00295
X00891Y00298
X00896Y00319
X00878Y00345
X00892Y00241
X00909Y00225
X00932Y00227
X00949Y00226
X00957Y00244
X00942Y0025
X00963Y00212
X00976Y00195
Y00168
X00952Y00155
X00932Y00152
X00941Y00136
X00951Y00119
X00958Y00105
X00936Y00104
X00894Y00139
X0091Y0016
X00899Y00176
X00927Y00177
X00914Y00191
X00941
X00928Y00205
X00898Y00208
X00862Y00158
X00844
X00832Y00133
X0085Y00127
X00854Y00104
X00824Y00102
X00737Y00095
X00723
X006275Y0009
X006075
X005925
X00578Y00111
X00568Y00105
X005335Y00116
X00533Y00133
X00501Y00154
X00486Y00163
X00471676
X0047Y00147
X00451Y00142
X00454Y00121
X0046Y00096
Y00075
Y00055
X00465Y00024
X00481Y00028
X00516Y00024
X00505Y000525
X00521Y00071
X00541
X00555Y00053
X00545Y00035
X00569Y00024
X00601Y0004
X00641
X00632Y00125
X00617
X00615Y00141
X0061Y00157
X00631
X00625Y00172
X00595Y00175
Y00142
X00599Y00125
X0061048Y00218276
X00629715Y00235589
X0064Y00209
X00604865Y00251756
X00602Y00305
Y00351
X0056Y0034
X0053Y00316
X00489Y00312
X00462Y00299
Y00327
X00476Y0034
X00413Y00333
Y00308
X00401Y0029
X00379Y00281
X0036Y00313
X0033Y00326
X00305Y0031
X00305Y00291
X0031Y00272
X00286Y00285
X00275Y00286
Y002675
X00261Y00257
X00263Y00235
X00274Y00238
X0027Y00194
X00254Y00166
X00321Y002
X0031Y00216
X0038Y002
X0039Y00222
X00425Y00236
X00425Y00266
X00437Y00269
X00448Y00281
X00469Y00269
X00463Y00244
X00471Y00232
X00489Y00218
X00472Y00199
X00446Y00205
X00427Y00192
X00412Y00121
X00379
X00375Y00093
X00367Y00063
X00338
X00311
X0029Y00044
X00295Y00025
X00255
X00247Y00061
X00269Y00062
X00335Y00025
X00375
X00415Y00024
X0044
X0042Y00055
Y00075
Y00096
X00489Y00122
X00523Y00185
X00533Y0019
X00537Y00201
X0053Y00216
X0056Y00202
X0055Y00244
Y00265
Y00286
X0051
Y00265
Y00244
X00387Y00339
X00399Y00351
X00333Y00121
X00219Y00063
X00206Y00048
X00188
X00175Y00025
X00135
X00108Y00044
X00144Y00064
Y00081
X00092Y00091
X00024Y00103
Y0017
X00065Y00192
X00097Y0019
X00082Y00281
X0006Y00272
X00024Y00248
X00182Y00241
Y00281
X00215Y00285
X00234Y00293
X00239Y00257
X0022Y00325
X00104Y00351
X00197Y00166
X00215Y00025
T02
X00743Y00056
X00692681Y00257564
X0057372Y0019872
X00255Y0021
X00165Y00175
T03
X0044Y000506
Y000994
X0053Y002406
Y002894
T04
X008296Y0015825
Y0018365
Y0020905
Y0023445
X00855Y0022175
Y0019635
Y0017095
Y0014555
T05
X009675Y001237
Y001491
Y002309
Y002563
X0058Y003046
Y0033
X003062Y00345
X002808
X002554
X0023
X0013Y0033
Y003046
Y002792
Y002538
Y002284
Y00203
Y001776
Y001522
Y001268
Y001014
T06
X00888Y0011255
Y0026745
T07
X009185Y0013285
Y0024715
T08
X0095Y0005
Y0033
X0005
Y0005
M30
