G04*
G04 #@! TF.GenerationSoftware,Altium Limited,Altium Designer,22.11.1 (43)*
G04*
G04 Layer_Color=32896*
%FSLAX44Y44*%
%MOMM*%
G71*
G04*
G04 #@! TF.SameCoordinates,8D8AEDD0-DFFB-4D3A-BB57-83E995E82AED*
G04*
G04*
G04 #@! TF.FilePolarity,Positive*
G04*
G01*
G75*
%ADD10C,0.4000*%
%ADD11C,0.2000*%
%ADD12C,0.2500*%
G36*
X113000Y237000D02*
X87000D01*
Y307000D01*
X113000D01*
Y237000D01*
D02*
G37*
%LPC*%
G36*
X107624Y302347D02*
X92676D01*
X104732D01*
Y297673D01*
X92676D01*
Y293809D01*
X104732D01*
Y289135D01*
X107624D01*
Y302347D01*
D02*
G37*
G36*
Y288950D02*
D01*
Y281453D01*
X107601Y281776D01*
X107578Y282124D01*
X107555Y282494D01*
X107509Y282887D01*
X107463Y283257D01*
Y283304D01*
X107439Y283419D01*
X107393Y283604D01*
X107324Y283859D01*
X107231Y284137D01*
X107115Y284438D01*
X106976Y284738D01*
X106815Y285062D01*
X106791Y285109D01*
X106722Y285201D01*
X106606Y285363D01*
X106468Y285548D01*
X106259Y285756D01*
X106051Y285988D01*
X105796Y286219D01*
X105496Y286404D01*
X105449Y286427D01*
X105357Y286474D01*
X105195Y286566D01*
X104963Y286659D01*
X104663Y286751D01*
X104316Y286844D01*
X103945Y286890D01*
X103506Y286913D01*
X103483D01*
X103436D01*
X103344D01*
X103228D01*
X103089Y286890D01*
X102927Y286867D01*
X102557Y286821D01*
X102117Y286728D01*
X101678Y286589D01*
X101215Y286381D01*
X100798Y286127D01*
X100752Y286080D01*
X100636Y285988D01*
X100428Y285803D01*
X100197Y285571D01*
X99919Y285271D01*
X99618Y284877D01*
X99340Y284461D01*
X99063Y283951D01*
X92676Y288950D01*
Y284206D01*
X98160Y280133D01*
Y278398D01*
X92676D01*
Y274534D01*
X107624D01*
Y288950D01*
D02*
G37*
G36*
Y272405D02*
D01*
Y266875D01*
X92676Y272405D01*
Y268379D01*
X95684Y267337D01*
Y261830D01*
X92676Y260789D01*
Y256902D01*
X107624Y262409D01*
Y256902D01*
X92676D01*
X107624D01*
Y272405D01*
D02*
G37*
G36*
Y254981D02*
X97837D01*
X97628Y254958D01*
X97397Y254935D01*
X97142Y254888D01*
X96841Y254842D01*
X96517Y254773D01*
X96170Y254680D01*
X95823Y254564D01*
X95476Y254426D01*
X95129Y254264D01*
X94782Y254055D01*
X94435Y253824D01*
X94134Y253570D01*
X93833Y253269D01*
X93810Y253246D01*
X93764Y253199D01*
X93694Y253084D01*
X93602Y252945D01*
X93486Y252783D01*
X93371Y252551D01*
X93232Y252297D01*
X93116Y252019D01*
X92977Y251672D01*
X92838Y251302D01*
X92723Y250909D01*
X92607Y250469D01*
X92514Y249983D01*
X92445Y249451D01*
X92399Y248895D01*
X92376Y248294D01*
Y247970D01*
X92399Y247761D01*
X92422Y247484D01*
X92445Y247160D01*
X92491Y246813D01*
X92561Y246443D01*
X92723Y245633D01*
X92861Y245216D01*
X93000Y244800D01*
X93162Y244406D01*
X93347Y244013D01*
X93579Y243643D01*
X93833Y243319D01*
X93856Y243296D01*
X93903Y243249D01*
X93995Y243157D01*
X94111Y243064D01*
X94273Y242925D01*
X94458Y242787D01*
X94666Y242648D01*
X94921Y242486D01*
X95199Y242324D01*
X95522Y242185D01*
X95870Y242046D01*
X96240Y241907D01*
X96656Y241815D01*
X97096Y241722D01*
X97559Y241676D01*
X98068Y241653D01*
X107624D01*
Y254981D01*
D02*
G37*
%LPD*%
G36*
X103367Y282887D02*
X103668Y282818D01*
X103992Y282679D01*
X104015D01*
X104061Y282633D01*
X104130Y282586D01*
X104223Y282494D01*
X104339Y282378D01*
X104431Y282239D01*
X104547Y282077D01*
X104640Y281892D01*
Y281869D01*
X104663Y281823D01*
X104686Y281730D01*
X104709Y281638D01*
X104755Y281499D01*
X104778Y281337D01*
X104825Y280966D01*
Y280874D01*
X104848Y280758D01*
Y280457D01*
X104871Y280249D01*
Y278398D01*
X100868D01*
Y280087D01*
X100891Y280342D01*
Y280596D01*
X100914Y280851D01*
X100937Y281082D01*
Y281105D01*
X100960Y281198D01*
X100983Y281314D01*
X101030Y281453D01*
X101145Y281776D01*
X101354Y282124D01*
X101377Y282147D01*
X101400Y282193D01*
X101469Y282262D01*
X101562Y282355D01*
X101770Y282563D01*
X102025Y282725D01*
X102048D01*
X102094Y282748D01*
X102187Y282795D01*
X102302Y282818D01*
X102441Y282864D01*
X102626Y282887D01*
X102811Y282910D01*
X103043D01*
X103066D01*
X103135D01*
X103251D01*
X103367Y282887D01*
D02*
G37*
G36*
X103714Y264584D02*
X98438Y262756D01*
Y266412D01*
X103714Y264584D01*
D02*
G37*
G36*
X107624Y245517D02*
X98299D01*
X98276D01*
X98230D01*
X98160D01*
X98045D01*
X97767Y245563D01*
X97420Y245609D01*
X97027Y245679D01*
X96656Y245795D01*
X96286Y245957D01*
X95962Y246165D01*
X95939Y246188D01*
X95847Y246281D01*
X95731Y246443D01*
X95592Y246674D01*
X95453Y246975D01*
X95337Y247345D01*
X95245Y247785D01*
X95222Y248294D01*
Y248433D01*
X95245Y248525D01*
X95268Y248780D01*
X95314Y249104D01*
X95407Y249451D01*
X95522Y249798D01*
X95708Y250145D01*
X95939Y250422D01*
X95985Y250446D01*
X96078Y250538D01*
X96263Y250654D01*
X96517Y250770D01*
X96841Y250909D01*
X97258Y251001D01*
X97744Y251094D01*
X98299Y251117D01*
X107624D01*
Y245517D01*
D02*
G37*
D10*
X604000Y330000D02*
G03*
X604000Y330000I-2000J0D01*
G01*
X110000D02*
G03*
X110000Y330000I-2000J0D01*
G01*
X390000Y278000D02*
G03*
X390000Y278000I-2000J0D01*
G01*
X645000Y173000D02*
G03*
X645000Y173000I-2000J0D01*
G01*
D11*
X505000Y233000D02*
G03*
X555000Y233000I25000J0D01*
G01*
Y297000D02*
G03*
X505000Y297000I-25000J0D01*
G01*
X415000Y43000D02*
G03*
X465000Y43000I25000J0D01*
G01*
Y107000D02*
G03*
X415000Y107000I-25000J0D01*
G01*
X475000Y345000D02*
X513000D01*
X475000Y321000D02*
Y345000D01*
Y321000D02*
X513000D01*
Y345000D01*
X743000Y187000D02*
Y211000D01*
X781000D01*
Y187000D02*
Y211000D01*
X743000Y187000D02*
X781000D01*
X593970Y290630D02*
Y343970D01*
X566030D02*
X593970D01*
X566030Y290630D02*
X593970D01*
X566030D02*
Y343970D01*
X143970Y87430D02*
Y343970D01*
X116030D02*
X143970D01*
X116030Y87430D02*
X143970D01*
X116030D02*
Y343970D01*
X373000Y99000D02*
Y137000D01*
X349000D02*
X373000D01*
X349000Y99000D02*
Y137000D01*
Y99000D02*
X373000D01*
X555000Y233000D02*
Y297000D01*
X505000Y233000D02*
Y297000D01*
X396000Y194000D02*
Y286000D01*
X304000Y194000D02*
X396000D01*
X304000Y286000D02*
X396000D01*
X304000Y194000D02*
Y286000D01*
X395000Y186000D02*
X433000D01*
X395000Y162000D02*
Y186000D01*
Y162000D02*
X433000D01*
Y186000D01*
X231000Y263000D02*
Y287000D01*
X269000D01*
Y263000D02*
Y287000D01*
X231000Y263000D02*
X269000D01*
X248000Y291000D02*
X272000D01*
X248000D02*
Y329000D01*
X272000D01*
Y291000D02*
Y329000D01*
X477000Y268000D02*
X501000D01*
X477000D02*
Y306000D01*
X501000D01*
Y268000D02*
Y306000D01*
X477000Y262000D02*
X501000D01*
Y224000D02*
Y262000D01*
X477000Y224000D02*
X501000D01*
X477000D02*
Y262000D01*
X433000Y249000D02*
X457000D01*
Y211000D02*
Y249000D01*
X433000Y211000D02*
X457000D01*
X433000D02*
Y249000D01*
X456000Y287000D02*
Y311000D01*
X418000Y287000D02*
X456000D01*
X418000D02*
Y311000D01*
X456000D01*
X374000Y318000D02*
Y342000D01*
X336000Y318000D02*
X374000D01*
X336000D02*
Y342000D01*
X374000D01*
X276000Y291000D02*
X300000D01*
X276000D02*
Y329000D01*
X300000D01*
Y291000D02*
Y329000D01*
X559000Y246000D02*
Y284000D01*
Y246000D02*
X583000D01*
Y284000D01*
X559000D02*
X583000D01*
X261000Y164000D02*
Y188000D01*
X299000D01*
Y164000D02*
Y188000D01*
X261000Y164000D02*
X299000D01*
X320500D02*
X344500D01*
Y126000D02*
Y164000D01*
X320500Y126000D02*
X344500D01*
X320500D02*
Y164000D01*
X465000Y43000D02*
Y107000D01*
X415000Y43000D02*
Y107000D01*
X743000Y155000D02*
X781000D01*
X743000Y131000D02*
Y155000D01*
Y131000D02*
X781000D01*
Y155000D01*
X743000Y75000D02*
X781000D01*
Y99000D01*
X743000D02*
X781000D01*
X743000Y75000D02*
Y99000D01*
Y127000D02*
X781000D01*
X743000Y103000D02*
Y127000D01*
Y103000D02*
X781000D01*
Y127000D01*
X701000Y216000D02*
X739000D01*
X701000Y192000D02*
Y216000D01*
Y192000D02*
X739000D01*
Y216000D01*
X701000Y164000D02*
X739000D01*
Y188000D01*
X701000D02*
X739000D01*
X701000Y164000D02*
Y188000D01*
X749000Y183000D02*
X787000D01*
X749000Y159000D02*
Y183000D01*
Y159000D02*
X787000D01*
Y183000D01*
X701000Y155000D02*
X739000D01*
X701000Y131000D02*
Y155000D01*
Y131000D02*
X739000D01*
Y155000D01*
X440000Y160000D02*
Y198000D01*
Y160000D02*
X464000D01*
Y198000D01*
X440000D02*
X464000D01*
X604500Y46000D02*
Y84000D01*
X580500D02*
X604500D01*
X580500Y46000D02*
Y84000D01*
Y46000D02*
X604500D01*
X689500Y78500D02*
Y116500D01*
X665500D02*
X689500D01*
X665500Y78500D02*
Y116500D01*
Y78500D02*
X689500D01*
X863000Y88000D02*
X877000D01*
X863000Y52000D02*
X877000D01*
X693000Y60000D02*
Y98000D01*
Y60000D02*
X717000D01*
Y98000D01*
X693000D02*
X717000D01*
X549000Y40500D02*
Y64500D01*
X511000Y40500D02*
X549000D01*
X511000Y64500D02*
X549000D01*
X511000Y40500D02*
Y64500D01*
X549000Y78000D02*
Y102000D01*
X511000Y78000D02*
X549000D01*
X511000Y102000D02*
X549000D01*
X511000Y78000D02*
Y102000D01*
X608000Y84000D02*
X634000D01*
Y32000D02*
Y84000D01*
X608000Y32000D02*
X634000D01*
X608000D02*
Y84000D01*
X662000Y58000D02*
Y96000D01*
X638000D02*
X662000D01*
X638000Y58000D02*
Y96000D01*
Y58000D02*
X662000D01*
X577000Y61000D02*
Y99000D01*
X553000D02*
X577000D01*
X553000Y61000D02*
Y99000D01*
Y61000D02*
X577000D01*
X493000Y78500D02*
Y116500D01*
X469000D02*
X493000D01*
X469000Y78500D02*
Y116500D01*
Y78500D02*
X493000D01*
X562000Y108000D02*
Y146000D01*
X538000D02*
X562000D01*
X538000Y108000D02*
Y146000D01*
Y108000D02*
X562000D01*
X411000Y56000D02*
Y94000D01*
X387000D02*
X411000D01*
X387000Y56000D02*
Y94000D01*
Y56000D02*
X411000D01*
X469000Y33500D02*
Y71500D01*
Y33500D02*
X493000D01*
Y71500D01*
X469000D02*
X493000D01*
X157039Y267528D02*
Y277028D01*
Y244972D02*
Y254472D01*
Y244972D02*
X176539D01*
X157039Y277028D02*
X176539D01*
X173000Y203000D02*
Y241000D01*
X149000D02*
X173000D01*
X149000Y203000D02*
Y241000D01*
Y203000D02*
X173000D01*
X245000Y122000D02*
Y160000D01*
Y122000D02*
X269000D01*
Y160000D01*
X245000D02*
X269000D01*
X185000Y122000D02*
Y160000D01*
Y122000D02*
X209000D01*
Y160000D01*
X185000D02*
X209000D01*
X275000Y110000D02*
X305000D01*
X275000Y112000D02*
X305000D01*
X275000Y50000D02*
X305000D01*
X275000D02*
Y114000D01*
X305000Y50000D02*
Y114000D01*
X275000D02*
X305000D01*
X189000Y241000D02*
Y279000D01*
Y241000D02*
X213000D01*
Y279000D01*
X189000D02*
X213000D01*
X189000Y320000D02*
Y358000D01*
Y320000D02*
X213000D01*
Y358000D01*
X189000D02*
X213000D01*
X701000Y244000D02*
X739000D01*
X701000Y220000D02*
Y244000D01*
Y220000D02*
X739000D01*
Y244000D01*
X701000Y248000D02*
X739000D01*
Y272000D01*
X701000D02*
X739000D01*
X701000Y248000D02*
Y272000D01*
X868000Y188000D02*
Y226000D01*
Y188000D02*
X892000D01*
Y226000D01*
X868000D02*
X892000D01*
Y146000D02*
Y184000D01*
X868000D02*
X892000D01*
X868000Y146000D02*
Y184000D01*
Y146000D02*
X892000D01*
X651000Y119000D02*
Y181000D01*
X589000Y181000D02*
X651000D01*
X589000Y119000D02*
X651000D01*
X589000Y119000D02*
Y181000D01*
X479000Y180000D02*
X517000D01*
Y204000D01*
X479000D02*
X517000D01*
X479000Y180000D02*
Y204000D01*
X801000Y288000D02*
X839000D01*
Y312000D01*
X801000D02*
X839000D01*
X801000Y288000D02*
Y312000D01*
X654000Y292000D02*
X678000D01*
X654000D02*
Y330000D01*
X678000D01*
Y292000D02*
Y330000D01*
X628000Y241000D02*
X652000D01*
X628000D02*
Y279000D01*
X652000D01*
Y241000D02*
Y279000D01*
X348000Y48000D02*
Y86000D01*
Y48000D02*
X372000D01*
Y86000D01*
X348000D02*
X372000D01*
X739000Y103000D02*
Y127000D01*
X701000Y103000D02*
X739000D01*
X701000D02*
Y127000D01*
X739000D01*
X150000Y110000D02*
X180000D01*
X150000Y112000D02*
X180000D01*
X150000Y50000D02*
X180000D01*
X150000D02*
Y114000D01*
X180000Y50000D02*
Y114000D01*
X150000D02*
X180000D01*
X56000Y113000D02*
X102000D01*
X43960Y148260D02*
X54120D01*
X49040Y143180D02*
Y153340D01*
X56000Y141000D02*
X102000D01*
X801000Y316000D02*
X839000D01*
Y340000D01*
X801000D02*
X839000D01*
X801000Y316000D02*
Y340000D01*
X213000Y51000D02*
X241000D01*
Y119000D01*
X213000Y51000D02*
Y119000D01*
X241000D01*
X85000Y145000D02*
X109000D01*
X85000D02*
Y183000D01*
X109000D01*
Y145000D02*
Y183000D01*
X157039Y355028D02*
X176539D01*
X157039Y322972D02*
X176539D01*
X157039D02*
Y332472D01*
Y345528D02*
Y355028D01*
X173000Y281000D02*
Y319000D01*
X149000D02*
X173000D01*
X149000Y281000D02*
Y319000D01*
Y281000D02*
X173000D01*
X498165Y358332D02*
X499831Y359998D01*
X503164D01*
X504830Y358332D01*
Y351668D01*
X503164Y350002D01*
X499831D01*
X498165Y351668D01*
X494833Y350002D02*
X491501D01*
X493167D01*
Y359998D01*
X494833Y358332D01*
X486502Y350002D02*
X483170D01*
X484836D01*
Y359998D01*
X486502Y358332D01*
X344496Y100002D02*
Y109998D01*
X339498D01*
X337831Y108332D01*
Y105000D01*
X339498Y103334D01*
X344496D01*
X341164D02*
X337831Y100002D01*
X334499D02*
X331167D01*
X332833D01*
Y109998D01*
X334499Y108332D01*
X319504Y109998D02*
X322836Y108332D01*
X326169Y105000D01*
Y101668D01*
X324502Y100002D01*
X321170D01*
X319504Y101668D01*
Y103334D01*
X321170Y105000D01*
X326169D01*
X803998Y137332D02*
X805665Y138998D01*
X808997D01*
X810663Y137332D01*
Y130668D01*
X808997Y129002D01*
X805665D01*
X803998Y130668D01*
X794002Y129002D02*
X800666D01*
X794002Y135666D01*
Y137332D01*
X795668Y138998D01*
X799000D01*
X800666Y137332D01*
X790669Y129002D02*
X787337D01*
X789003D01*
Y138998D01*
X790669Y137332D01*
X812329Y75002D02*
Y84998D01*
X807331D01*
X805665Y83332D01*
Y80000D01*
X807331Y78334D01*
X812329D01*
X808997D02*
X805665Y75002D01*
X795668D02*
X802332D01*
X795668Y81666D01*
Y83332D01*
X797334Y84998D01*
X800666D01*
X802332Y83332D01*
X785671Y84998D02*
X792336D01*
Y80000D01*
X789003Y81666D01*
X787337D01*
X785671Y80000D01*
Y76668D01*
X787337Y75002D01*
X790669D01*
X792336Y76668D01*
X811665Y110332D02*
X813331Y111998D01*
X816663D01*
X818329Y110332D01*
Y103668D01*
X816663Y102002D01*
X813331D01*
X811665Y103668D01*
X801668Y102002D02*
X808332D01*
X801668Y108666D01*
Y110332D01*
X803334Y111998D01*
X806666D01*
X808332Y110332D01*
X798335D02*
X796669Y111998D01*
X793337D01*
X791671Y110332D01*
Y103668D01*
X793337Y102002D01*
X796669D01*
X798335Y103668D01*
Y110332D01*
X593329Y358998D02*
X586665Y349002D01*
Y358998D02*
X593329Y349002D01*
X583332D02*
Y358998D01*
X578334D01*
X576668Y357332D01*
Y354000D01*
X578334Y352334D01*
X583332D01*
X566671Y349002D02*
X573335D01*
X566671Y355666D01*
Y357332D01*
X568337Y358998D01*
X571669D01*
X573335Y357332D01*
X141663Y358998D02*
X134998Y349002D01*
Y358998D02*
X141663Y349002D01*
X131666D02*
Y358998D01*
X126668D01*
X125002Y357332D01*
Y354000D01*
X126668Y352334D01*
X131666D01*
X121669Y349002D02*
X118337D01*
X120003D01*
Y358998D01*
X121669Y357332D01*
X876665Y45332D02*
X878331Y46998D01*
X881663D01*
X883329Y45332D01*
Y38668D01*
X881663Y37002D01*
X878331D01*
X876665Y38668D01*
X866668Y37002D02*
X873332D01*
X866668Y43666D01*
Y45332D01*
X868334Y46998D01*
X871666D01*
X873332Y45332D01*
X858337Y37002D02*
Y46998D01*
X863335Y42000D01*
X856671D01*
X286666Y126332D02*
X288332Y127998D01*
X291665D01*
X293331Y126332D01*
Y119668D01*
X291665Y118002D01*
X288332D01*
X286666Y119668D01*
X283334Y126332D02*
X281668Y127998D01*
X278335D01*
X276669Y126332D01*
Y124666D01*
X278335Y123000D01*
X280002D01*
X278335D01*
X276669Y121334D01*
Y119668D01*
X278335Y118002D01*
X281668D01*
X283334Y119668D01*
X165000Y43332D02*
X166666Y44998D01*
X169998D01*
X171665Y43332D01*
Y36668D01*
X169998Y35002D01*
X166666D01*
X165000Y36668D01*
X161668Y35002D02*
X158336D01*
X160002D01*
Y44998D01*
X161668Y43332D01*
X603331Y260002D02*
Y269998D01*
X598332D01*
X596666Y268332D01*
Y265000D01*
X598332Y263334D01*
X603331D01*
X599998D02*
X596666Y260002D01*
X593334Y261668D02*
X591668Y260002D01*
X588335D01*
X586669Y261668D01*
Y268332D01*
X588335Y269998D01*
X591668D01*
X593334Y268332D01*
Y266666D01*
X591668Y265000D01*
X586669D01*
X645496Y284002D02*
Y293998D01*
X640498D01*
X638831Y292332D01*
Y289000D01*
X640498Y287334D01*
X645496D01*
X642164D02*
X638831Y284002D01*
X635499D02*
X632167D01*
X633833D01*
Y293998D01*
X635499Y292332D01*
X622170Y284002D02*
Y293998D01*
X627169Y289000D01*
X620504D01*
X649496Y319002D02*
Y328998D01*
X644498D01*
X642831Y327332D01*
Y324000D01*
X644498Y322334D01*
X649496D01*
X646164D02*
X642831Y319002D01*
X639499D02*
X636167D01*
X637833D01*
Y328998D01*
X639499Y327332D01*
X631169D02*
X629502Y328998D01*
X626170D01*
X624504Y327332D01*
Y325666D01*
X626170Y324000D01*
X627836D01*
X626170D01*
X624504Y322334D01*
Y320668D01*
X626170Y319002D01*
X629502D01*
X631169Y320668D01*
X343331Y62002D02*
Y71998D01*
X338332D01*
X336666Y70332D01*
Y67000D01*
X338332Y65334D01*
X343331D01*
X339998D02*
X336666Y62002D01*
X333334Y70332D02*
X331668Y71998D01*
X328335D01*
X326669Y70332D01*
Y68666D01*
X328335Y67000D01*
X326669Y65334D01*
Y63668D01*
X328335Y62002D01*
X331668D01*
X333334Y63668D01*
Y65334D01*
X331668Y67000D01*
X333334Y68666D01*
Y70332D01*
X331668Y67000D02*
X328335D01*
X80665Y172002D02*
Y181998D01*
X75666D01*
X74000Y180332D01*
Y177000D01*
X75666Y175334D01*
X80665D01*
X77332D02*
X74000Y172002D01*
X70668D02*
X67336D01*
X69002D01*
Y181998D01*
X70668Y180332D01*
X687002Y129671D02*
X696998D01*
Y134669D01*
X695332Y136335D01*
X692000D01*
X690334Y134669D01*
Y129671D01*
Y133003D02*
X687002Y136335D01*
Y146332D02*
Y139668D01*
X693666Y146332D01*
X695332D01*
X696998Y144666D01*
Y141334D01*
X695332Y139668D01*
Y149664D02*
X696998Y151331D01*
Y154663D01*
X695332Y156329D01*
X693666D01*
X692000Y154663D01*
Y152997D01*
Y154663D01*
X690334Y156329D01*
X688668D01*
X687002Y154663D01*
Y151331D01*
X688668Y149664D01*
X180329Y368998D02*
Y362334D01*
X176997Y359002D01*
X173664Y362334D01*
Y368998D01*
X170332D02*
X163668D01*
X167000D01*
Y359002D01*
X153671D02*
X160336D01*
X153671Y365666D01*
Y367332D01*
X155337Y368998D01*
X158669D01*
X160336Y367332D01*
X199663Y295998D02*
Y289334D01*
X196331Y286002D01*
X192998Y289334D01*
Y295998D01*
X189666D02*
X183002D01*
X186334D01*
Y286002D01*
X179669D02*
X176337D01*
X178003D01*
Y295998D01*
X179669Y294332D01*
X90663Y108998D02*
Y102334D01*
X87331Y99002D01*
X83998Y102334D01*
Y108998D01*
X80666D02*
Y99002D01*
X75668D01*
X74002Y100668D01*
Y107332D01*
X75668Y108998D01*
X80666D01*
X70669Y99002D02*
X67337D01*
X69003D01*
Y108998D01*
X70669Y107332D01*
X870329Y301002D02*
Y310998D01*
X865331D01*
X863664Y309332D01*
Y306000D01*
X865331Y304334D01*
X870329D01*
X866997D02*
X863664Y301002D01*
X860332Y309332D02*
X858666Y310998D01*
X855334D01*
X853668Y309332D01*
Y307666D01*
X855334Y306000D01*
X857000D01*
X855334D01*
X853668Y304334D01*
Y302668D01*
X855334Y301002D01*
X858666D01*
X860332Y302668D01*
X850335Y309332D02*
X848669Y310998D01*
X845337D01*
X843671Y309332D01*
Y302668D01*
X845337Y301002D01*
X848669D01*
X850335Y302668D01*
Y309332D01*
X870329Y329002D02*
Y338998D01*
X865331D01*
X863664Y337332D01*
Y334000D01*
X865331Y332334D01*
X870329D01*
X866997D02*
X863664Y329002D01*
X853668D02*
X860332D01*
X853668Y335666D01*
Y337332D01*
X855334Y338998D01*
X858666D01*
X860332Y337332D01*
X850335Y330668D02*
X848669Y329002D01*
X845337D01*
X843671Y330668D01*
Y337332D01*
X845337Y338998D01*
X848669D01*
X850335Y337332D01*
Y335666D01*
X848669Y334000D01*
X843671D01*
X886329Y230002D02*
Y239998D01*
X881331D01*
X879665Y238332D01*
Y235000D01*
X881331Y233334D01*
X886329D01*
X882997D02*
X879665Y230002D01*
X869668D02*
X876332D01*
X869668Y236666D01*
Y238332D01*
X871334Y239998D01*
X874666D01*
X876332Y238332D01*
X866336D02*
X864669Y239998D01*
X861337D01*
X859671Y238332D01*
Y236666D01*
X861337Y235000D01*
X859671Y233334D01*
Y231668D01*
X861337Y230002D01*
X864669D01*
X866336Y231668D01*
Y233334D01*
X864669Y235000D01*
X866336Y236666D01*
Y238332D01*
X864669Y235000D02*
X861337D01*
X697329Y267002D02*
Y276998D01*
X692331D01*
X690665Y275332D01*
Y272000D01*
X692331Y270334D01*
X697329D01*
X693997D02*
X690665Y267002D01*
X680668D02*
X687332D01*
X680668Y273666D01*
Y275332D01*
X682334Y276998D01*
X685666D01*
X687332Y275332D01*
X677336Y276998D02*
X670671D01*
Y275332D01*
X677336Y268668D01*
Y267002D01*
X818329Y165002D02*
Y174998D01*
X813331D01*
X811665Y173332D01*
Y170000D01*
X813331Y168334D01*
X818329D01*
X814997D02*
X811665Y165002D01*
X801668D02*
X808332D01*
X801668Y171666D01*
Y173332D01*
X803334Y174998D01*
X806666D01*
X808332Y173332D01*
X791671Y174998D02*
X795003Y173332D01*
X798335Y170000D01*
Y166668D01*
X796669Y165002D01*
X793337D01*
X791671Y166668D01*
Y168334D01*
X793337Y170000D01*
X798335D01*
X687002Y171671D02*
X696998D01*
Y176669D01*
X695332Y178335D01*
X692000D01*
X690334Y176669D01*
Y171671D01*
Y175003D02*
X687002Y178335D01*
Y188332D02*
Y181668D01*
X693666Y188332D01*
X695332D01*
X696998Y186666D01*
Y183334D01*
X695332Y181668D01*
X687002Y196663D02*
X696998D01*
X692000Y191665D01*
Y198329D01*
X725002Y63671D02*
X734998D01*
Y68669D01*
X733332Y70335D01*
X730000D01*
X728334Y68669D01*
Y63671D01*
Y67003D02*
X725002Y70335D01*
Y80332D02*
Y73668D01*
X731666Y80332D01*
X733332D01*
X734998Y78666D01*
Y75334D01*
X733332Y73668D01*
X725002Y90329D02*
Y83665D01*
X731666Y90329D01*
X733332D01*
X734998Y88663D01*
Y85331D01*
X733332Y83665D01*
X697663Y233002D02*
Y242998D01*
X692664D01*
X690998Y241332D01*
Y238000D01*
X692664Y236334D01*
X697663D01*
X694331D02*
X690998Y233002D01*
X681002D02*
X687666D01*
X681002Y239666D01*
Y241332D01*
X682668Y242998D01*
X686000D01*
X687666Y241332D01*
X677669Y233002D02*
X674337D01*
X676003D01*
Y242998D01*
X677669Y241332D01*
X697329Y211002D02*
Y220998D01*
X692331D01*
X690665Y219332D01*
Y216000D01*
X692331Y214334D01*
X697329D01*
X693997D02*
X690665Y211002D01*
X680668D02*
X687332D01*
X680668Y217666D01*
Y219332D01*
X682334Y220998D01*
X685666D01*
X687332Y219332D01*
X677336D02*
X675669Y220998D01*
X672337D01*
X670671Y219332D01*
Y212668D01*
X672337Y211002D01*
X675669D01*
X677336Y212668D01*
Y219332D01*
X710002Y30504D02*
X719998D01*
Y35502D01*
X718332Y37169D01*
X715000D01*
X713334Y35502D01*
Y30504D01*
Y33836D02*
X710002Y37169D01*
Y40501D02*
Y43833D01*
Y42167D01*
X719998D01*
X718332Y40501D01*
X711668Y48832D02*
X710002Y50498D01*
Y53830D01*
X711668Y55496D01*
X718332D01*
X719998Y53830D01*
Y50498D01*
X718332Y48832D01*
X716666D01*
X715000Y50498D01*
Y55496D01*
X516496Y166002D02*
Y175998D01*
X511498D01*
X509832Y174332D01*
Y171000D01*
X511498Y169334D01*
X516496D01*
X513164D02*
X509832Y166002D01*
X506499D02*
X503167D01*
X504833D01*
Y175998D01*
X506499Y174332D01*
X498168D02*
X496502Y175998D01*
X493170D01*
X491504Y174332D01*
Y172666D01*
X493170Y171000D01*
X491504Y169334D01*
Y167668D01*
X493170Y166002D01*
X496502D01*
X498168Y167668D01*
Y169334D01*
X496502Y171000D01*
X498168Y172666D01*
Y174332D01*
X496502Y171000D02*
X493170D01*
X459496Y147002D02*
Y156998D01*
X454498D01*
X452831Y155332D01*
Y152000D01*
X454498Y150334D01*
X459496D01*
X456164D02*
X452831Y147002D01*
X449499D02*
X446167D01*
X447833D01*
Y156998D01*
X449499Y155332D01*
X441169Y156998D02*
X434504D01*
Y155332D01*
X441169Y148668D01*
Y147002D01*
X408996Y42502D02*
Y52498D01*
X403998D01*
X402332Y50832D01*
Y47500D01*
X403998Y45834D01*
X408996D01*
X405664D02*
X402332Y42502D01*
X398999D02*
X395667D01*
X397333D01*
Y52498D01*
X398999Y50832D01*
X384004Y52498D02*
X390669D01*
Y47500D01*
X387336Y49166D01*
X385670D01*
X384004Y47500D01*
Y44168D01*
X385670Y42502D01*
X389002D01*
X390669Y44168D01*
X374496Y153002D02*
Y162998D01*
X369498D01*
X367831Y161332D01*
Y158000D01*
X369498Y156334D01*
X374496D01*
X371164D02*
X367831Y153002D01*
X364499D02*
X361167D01*
X362833D01*
Y162998D01*
X364499Y161332D01*
X349504Y153002D02*
X356169D01*
X349504Y159666D01*
Y161332D01*
X351170Y162998D01*
X354502D01*
X356169Y161332D01*
X365830Y347002D02*
Y356998D01*
X360831D01*
X359165Y355332D01*
Y352000D01*
X360831Y350334D01*
X365830D01*
X362498D02*
X359165Y347002D01*
X355833D02*
X352501D01*
X354167D01*
Y356998D01*
X355833Y355332D01*
X347503Y347002D02*
X344170D01*
X345836D01*
Y356998D01*
X347503Y355332D01*
X455496Y253002D02*
Y262998D01*
X450498D01*
X448831Y261332D01*
Y258000D01*
X450498Y256334D01*
X455496D01*
X452164D02*
X448831Y253002D01*
X445499D02*
X442167D01*
X443833D01*
Y262998D01*
X445499Y261332D01*
X437169D02*
X435502Y262998D01*
X432170D01*
X430504Y261332D01*
Y254668D01*
X432170Y253002D01*
X435502D01*
X437169Y254668D01*
Y261332D01*
X209331Y362002D02*
Y371998D01*
X204332D01*
X202666Y370332D01*
Y367000D01*
X204332Y365334D01*
X209331D01*
X205998D02*
X202666Y362002D01*
X199334Y371998D02*
X192669D01*
Y370332D01*
X199334Y363668D01*
Y362002D01*
X217331Y227002D02*
Y236998D01*
X212332D01*
X210666Y235332D01*
Y232000D01*
X212332Y230334D01*
X217331D01*
X213998D02*
X210666Y227002D01*
X200669Y236998D02*
X204002Y235332D01*
X207334Y232000D01*
Y228668D01*
X205668Y227002D01*
X202335D01*
X200669Y228668D01*
Y230334D01*
X202335Y232000D01*
X207334D01*
X194331Y300002D02*
Y309998D01*
X189332D01*
X187666Y308332D01*
Y305000D01*
X189332Y303334D01*
X194331D01*
X190998D02*
X187666Y300002D01*
X177669Y309998D02*
X184334D01*
Y305000D01*
X181002Y306666D01*
X179335D01*
X177669Y305000D01*
Y301668D01*
X179335Y300002D01*
X182668D01*
X184334Y301668D01*
X168331Y188002D02*
Y197998D01*
X163332D01*
X161666Y196332D01*
Y193000D01*
X163332Y191334D01*
X168331D01*
X164998D02*
X161666Y188002D01*
X153336D02*
Y197998D01*
X158334Y193000D01*
X151669D01*
X321331Y317002D02*
Y326998D01*
X316332D01*
X314666Y325332D01*
Y322000D01*
X316332Y320334D01*
X321331D01*
X317998D02*
X314666Y317002D01*
X311334Y325332D02*
X309668Y326998D01*
X306336D01*
X304669Y325332D01*
Y323666D01*
X306336Y322000D01*
X308002D01*
X306336D01*
X304669Y320334D01*
Y318668D01*
X306336Y317002D01*
X309668D01*
X311334Y318668D01*
X243331Y305002D02*
Y314998D01*
X238332D01*
X236666Y313332D01*
Y310000D01*
X238332Y308334D01*
X243331D01*
X239998D02*
X236666Y305002D01*
X226669D02*
X233334D01*
X226669Y311666D01*
Y313332D01*
X228335Y314998D01*
X231668D01*
X233334Y313332D01*
X537331Y35998D02*
Y26002D01*
X530666D01*
X520669D02*
X527334D01*
X520669Y32666D01*
Y34332D01*
X522336Y35998D01*
X525668D01*
X527334Y34332D01*
X524664Y115998D02*
Y106002D01*
X518000D01*
X514668D02*
X511335D01*
X513002D01*
Y115998D01*
X514668Y114332D01*
X658329Y223998D02*
Y214002D01*
X653331D01*
X651665Y215668D01*
Y222332D01*
X653331Y223998D01*
X658329D01*
X648332D02*
Y214002D01*
X643334D01*
X641668Y215668D01*
Y222332D01*
X643334Y223998D01*
X648332D01*
X631671Y214002D02*
X638335D01*
X631671Y220666D01*
Y222332D01*
X633337Y223998D01*
X636669D01*
X638335Y222332D01*
X401663Y319998D02*
Y310002D01*
X396665D01*
X394998Y311668D01*
Y318332D01*
X396665Y319998D01*
X401663D01*
X391666D02*
Y310002D01*
X386668D01*
X385002Y311668D01*
Y318332D01*
X386668Y319998D01*
X391666D01*
X381669Y310002D02*
X378337D01*
X380003D01*
Y319998D01*
X381669Y318332D01*
X236663Y44998D02*
Y35002D01*
X231665D01*
X229998Y36668D01*
Y43332D01*
X231665Y44998D01*
X236663D01*
X226666Y35002D02*
Y41666D01*
X223334Y44998D01*
X220002Y41666D01*
Y35002D01*
Y40000D01*
X226666D01*
X216669Y35002D02*
X213337D01*
X215003D01*
Y44998D01*
X216669Y43332D01*
X769665Y224332D02*
X771331Y225998D01*
X774663D01*
X776329Y224332D01*
Y217668D01*
X774663Y216002D01*
X771331D01*
X769665Y217668D01*
X759668Y216002D02*
X766332D01*
X759668Y222666D01*
Y224332D01*
X761334Y225998D01*
X764666D01*
X766332Y224332D01*
X756336D02*
X754669Y225998D01*
X751337D01*
X749671Y224332D01*
Y222666D01*
X751337Y221000D01*
X753003D01*
X751337D01*
X749671Y219334D01*
Y217668D01*
X751337Y216002D01*
X754669D01*
X756336Y217668D01*
X881665Y139332D02*
X883331Y140998D01*
X886663D01*
X888329Y139332D01*
Y132668D01*
X886663Y131002D01*
X883331D01*
X881665Y132668D01*
X871668Y131002D02*
X878332D01*
X871668Y137666D01*
Y139332D01*
X873334Y140998D01*
X876666D01*
X878332Y139332D01*
X861671Y131002D02*
X868335D01*
X861671Y137666D01*
Y139332D01*
X863337Y140998D01*
X866669D01*
X868335Y139332D01*
X626832Y25332D02*
X628498Y26998D01*
X631830D01*
X633496Y25332D01*
Y18668D01*
X631830Y17002D01*
X628498D01*
X626832Y18668D01*
X623499Y17002D02*
X620167D01*
X621833D01*
Y26998D01*
X623499Y25332D01*
X615169Y18668D02*
X613503Y17002D01*
X610170D01*
X608504Y18668D01*
Y25332D01*
X610170Y26998D01*
X613503D01*
X615169Y25332D01*
Y23666D01*
X613503Y22000D01*
X608504D01*
X686332Y49169D02*
X687998Y47502D01*
Y44170D01*
X686332Y42504D01*
X679668D01*
X678002Y44170D01*
Y47502D01*
X679668Y49169D01*
X678002Y52501D02*
Y55833D01*
Y54167D01*
X687998D01*
X686332Y52501D01*
Y60831D02*
X687998Y62498D01*
Y65830D01*
X686332Y67496D01*
X684666D01*
X683000Y65830D01*
X681334Y67496D01*
X679668D01*
X678002Y65830D01*
Y62498D01*
X679668Y60831D01*
X681334D01*
X683000Y62498D01*
X684666Y60831D01*
X686332D01*
X683000Y62498D02*
Y65830D01*
X664332Y34169D02*
X665998Y32502D01*
Y29170D01*
X664332Y27504D01*
X657668D01*
X656002Y29170D01*
Y32502D01*
X657668Y34169D01*
X656002Y37501D02*
Y40833D01*
Y39167D01*
X665998D01*
X664332Y37501D01*
X665998Y52496D02*
X664332Y49164D01*
X661000Y45831D01*
X657668D01*
X656002Y47498D01*
Y50830D01*
X657668Y52496D01*
X659334D01*
X661000Y50830D01*
Y45831D01*
X555831Y158332D02*
X557498Y159998D01*
X560830D01*
X562496Y158332D01*
Y151668D01*
X560830Y150002D01*
X557498D01*
X555831Y151668D01*
X552499Y150002D02*
X549167D01*
X550833D01*
Y159998D01*
X552499Y158332D01*
X544169Y159998D02*
X537504D01*
Y158332D01*
X544169Y151668D01*
Y150002D01*
X568332Y39169D02*
X569999Y37502D01*
Y34170D01*
X568332Y32504D01*
X561668D01*
X560002Y34170D01*
Y37502D01*
X561668Y39169D01*
X560002Y42501D02*
Y45833D01*
Y44167D01*
X569999D01*
X568332Y42501D01*
X569999Y57496D02*
Y50831D01*
X565000D01*
X566666Y54164D01*
Y55830D01*
X565000Y57496D01*
X561668D01*
X560002Y55830D01*
Y52498D01*
X561668Y50831D01*
X593332Y24169D02*
X594999Y22502D01*
Y19170D01*
X593332Y17504D01*
X586668D01*
X585002Y19170D01*
Y22502D01*
X586668Y24169D01*
X585002Y27501D02*
Y30833D01*
Y29167D01*
X594999D01*
X593332Y27501D01*
X585002Y40830D02*
X594999D01*
X590000Y35831D01*
Y42496D01*
X486832Y136332D02*
X488498Y137998D01*
X491830D01*
X493496Y136332D01*
Y129668D01*
X491830Y128002D01*
X488498D01*
X486832Y129668D01*
X483499Y128002D02*
X480167D01*
X481833D01*
Y137998D01*
X483499Y136332D01*
X475168D02*
X473502Y137998D01*
X470170D01*
X468504Y136332D01*
Y134666D01*
X470170Y133000D01*
X471836D01*
X470170D01*
X468504Y131334D01*
Y129668D01*
X470170Y128002D01*
X473502D01*
X475168Y129668D01*
X489832Y21332D02*
X491498Y22998D01*
X494830D01*
X496496Y21332D01*
Y14668D01*
X494830Y13002D01*
X491498D01*
X489832Y14668D01*
X486499Y13002D02*
X483167D01*
X484833D01*
Y22998D01*
X486499Y21332D01*
X471504Y13002D02*
X478168D01*
X471504Y19666D01*
Y21332D01*
X473170Y22998D01*
X476502D01*
X478168Y21332D01*
X249832Y186332D02*
X251498Y187998D01*
X254830D01*
X256496Y186332D01*
Y179668D01*
X254830Y178002D01*
X251498D01*
X249832Y179668D01*
X246499Y178002D02*
X243167D01*
X244833D01*
Y187998D01*
X246499Y186332D01*
X238169D02*
X236502Y187998D01*
X233170D01*
X231504Y186332D01*
Y179668D01*
X233170Y178002D01*
X236502D01*
X238169Y179668D01*
Y186332D01*
X405666Y156332D02*
X407332Y157998D01*
X410664D01*
X412331Y156332D01*
Y149668D01*
X410664Y148002D01*
X407332D01*
X405666Y149668D01*
X402334D02*
X400668Y148002D01*
X397336D01*
X395669Y149668D01*
Y156332D01*
X397336Y157998D01*
X400668D01*
X402334Y156332D01*
Y154666D01*
X400668Y153000D01*
X395669D01*
X417666Y323332D02*
X419332Y324998D01*
X422664D01*
X424331Y323332D01*
Y316668D01*
X422664Y315002D01*
X419332D01*
X417666Y316668D01*
X414334Y323332D02*
X412668Y324998D01*
X409336D01*
X407669Y323332D01*
Y321666D01*
X409336Y320000D01*
X407669Y318334D01*
Y316668D01*
X409336Y315002D01*
X412668D01*
X414334Y316668D01*
Y318334D01*
X412668Y320000D01*
X414334Y321666D01*
Y323332D01*
X412668Y320000D02*
X409336D01*
X476666Y218332D02*
X478332Y219998D01*
X481665D01*
X483331Y218332D01*
Y211668D01*
X481665Y210002D01*
X478332D01*
X476666Y211668D01*
X466669Y219998D02*
X470002Y218332D01*
X473334Y215000D01*
Y211668D01*
X471668Y210002D01*
X468335D01*
X466669Y211668D01*
Y213334D01*
X468335Y215000D01*
X473334D01*
X466666Y280332D02*
X468332Y281998D01*
X471665D01*
X473331Y280332D01*
Y273668D01*
X471665Y272002D01*
X468332D01*
X466666Y273668D01*
X456669Y281998D02*
X463334D01*
Y277000D01*
X460002Y278666D01*
X458335D01*
X456669Y277000D01*
Y273668D01*
X458335Y272002D01*
X461668D01*
X463334Y273668D01*
X251666Y250332D02*
X253332Y251998D01*
X256665D01*
X258331Y250332D01*
Y243668D01*
X256665Y242002D01*
X253332D01*
X251666Y243668D01*
X248334Y251998D02*
X241669D01*
Y250332D01*
X248334Y243668D01*
Y242002D01*
X283666Y144332D02*
X285332Y145998D01*
X288664D01*
X290331Y144332D01*
Y137668D01*
X288664Y136002D01*
X285332D01*
X283666Y137668D01*
X275336Y136002D02*
Y145998D01*
X280334Y141000D01*
X273669D01*
X174666Y157332D02*
X176332Y158998D01*
X179664D01*
X181331Y157332D01*
Y150668D01*
X179664Y149002D01*
X176332D01*
X174666Y150668D01*
X164669Y149002D02*
X171334D01*
X164669Y155666D01*
Y157332D01*
X166336Y158998D01*
X169668D01*
X171334Y157332D01*
X411329Y113998D02*
Y104002D01*
X406331D01*
X404664Y105668D01*
Y107334D01*
X406331Y109000D01*
X411329D01*
X406331D01*
X404664Y110666D01*
Y112332D01*
X406331Y113998D01*
X411329D01*
X394668Y105668D02*
Y112332D01*
X396334Y113998D01*
X399666D01*
X401332Y112332D01*
Y105668D01*
X399666Y104002D01*
X396334D01*
X398000Y107334D02*
X394668Y104002D01*
X396334D02*
X394668Y105668D01*
X384671Y104002D02*
X391335D01*
X384671Y110666D01*
Y112332D01*
X386337Y113998D01*
X389669D01*
X391335Y112332D01*
X542663Y336998D02*
Y327002D01*
X537664D01*
X535998Y328668D01*
Y330334D01*
X537664Y332000D01*
X542663D01*
X537664D01*
X535998Y333666D01*
Y335332D01*
X537664Y336998D01*
X542663D01*
X526002Y328668D02*
Y335332D01*
X527668Y336998D01*
X531000D01*
X532666Y335332D01*
Y328668D01*
X531000Y327002D01*
X527668D01*
X529334Y330334D02*
X526002Y327002D01*
X527668D02*
X526002Y328668D01*
X522669Y327002D02*
X519337D01*
X521003D01*
Y336998D01*
X522669Y335332D01*
D12*
X409250Y284000D02*
G03*
X409250Y284000I-1250J0D01*
G01*
X664250Y184000D02*
G03*
X664250Y184000I-1250J0D01*
G01*
X198250Y51000D02*
G03*
X198250Y51000I-1250J0D01*
G01*
M02*
