G04*
G04 #@! TF.GenerationSoftware,Altium Limited,Altium Designer,22.11.1 (43)*
G04*
G04 Layer_Physical_Order=1*
G04 Layer_Color=255*
%FSLAX44Y44*%
%MOMM*%
G71*
G04*
G04 #@! TF.SameCoordinates,DE08DE9B-F6C2-4E1B-A14B-2B9FB2CCB798*
G04*
G04*
G04 #@! TF.FilePolarity,Positive*
G04*
G01*
G75*
%ADD10C,0.4000*%
%ADD22C,1.4000*%
%ADD28C,0.5000*%
%ADD29C,1.4000*%
%ADD30C,0.3000*%
G04:AMPARAMS|DCode=31|XSize=2mm|YSize=1.4mm|CornerRadius=0.35mm|HoleSize=0mm|Usage=FLASHONLY|Rotation=90.000|XOffset=0mm|YOffset=0mm|HoleType=Round|Shape=RoundedRectangle|*
%AMROUNDEDRECTD31*
21,1,2.0000,0.7000,0,0,90.0*
21,1,1.3000,1.4000,0,0,90.0*
1,1,0.7000,0.3500,0.6500*
1,1,0.7000,0.3500,-0.6500*
1,1,0.7000,-0.3500,-0.6500*
1,1,0.7000,-0.3500,0.6500*
%
%ADD31ROUNDEDRECTD31*%
%ADD32C,0.8000*%
G04:AMPARAMS|DCode=33|XSize=2mm|YSize=2mm|CornerRadius=0.5mm|HoleSize=0mm|Usage=FLASHONLY|Rotation=270.000|XOffset=0mm|YOffset=0mm|HoleType=Round|Shape=RoundedRectangle|*
%AMROUNDEDRECTD33*
21,1,2.0000,1.0000,0,0,270.0*
21,1,1.0000,2.0000,0,0,270.0*
1,1,1.0000,-0.5000,-0.5000*
1,1,1.0000,-0.5000,0.5000*
1,1,1.0000,0.5000,0.5000*
1,1,1.0000,0.5000,-0.5000*
%
%ADD33ROUNDEDRECTD33*%
%ADD34C,2.0000*%
%ADD35C,1.8000*%
%ADD36C,3.3000*%
%ADD37C,2.6000*%
%ADD38C,1.2000*%
G04:AMPARAMS|DCode=39|XSize=2mm|YSize=2mm|CornerRadius=0.5mm|HoleSize=0mm|Usage=FLASHONLY|Rotation=0.000|XOffset=0mm|YOffset=0mm|HoleType=Round|Shape=RoundedRectangle|*
%AMROUNDEDRECTD39*
21,1,2.0000,1.0000,0,0,0.0*
21,1,1.0000,2.0000,0,0,0.0*
1,1,1.0000,0.5000,-0.5000*
1,1,1.0000,-0.5000,-0.5000*
1,1,1.0000,-0.5000,0.5000*
1,1,1.0000,0.5000,0.5000*
%
%ADD39ROUNDEDRECTD39*%
G04:AMPARAMS|DCode=40|XSize=1mm|YSize=1mm|CornerRadius=0mm|HoleSize=0mm|Usage=FLASHONLY|Rotation=90.000|XOffset=0mm|YOffset=0mm|HoleType=Round|Shape=Octagon|*
%AMOCTAGOND40*
4,1,8,0.2500,0.5000,-0.2500,0.5000,-0.5000,0.2500,-0.5000,-0.2500,-0.2500,-0.5000,0.2500,-0.5000,0.5000,-0.2500,0.5000,0.2500,0.2500,0.5000,0.0*
%
%ADD40OCTAGOND40*%

%ADD41C,7.0000*%
G04:AMPARAMS|DCode=42|XSize=7mm|YSize=7mm|CornerRadius=1.75mm|HoleSize=0mm|Usage=FLASHONLY|Rotation=0.000|XOffset=0mm|YOffset=0mm|HoleType=Round|Shape=RoundedRectangle|*
%AMROUNDEDRECTD42*
21,1,7.0000,3.5000,0,0,0.0*
21,1,3.5000,7.0000,0,0,0.0*
1,1,3.5000,1.7500,-1.7500*
1,1,3.5000,-1.7500,-1.7500*
1,1,3.5000,-1.7500,1.7500*
1,1,3.5000,1.7500,1.7500*
%
%ADD42ROUNDEDRECTD42*%
G04:AMPARAMS|DCode=43|XSize=1mm|YSize=1mm|CornerRadius=0mm|HoleSize=0mm|Usage=FLASHONLY|Rotation=0.000|XOffset=0mm|YOffset=0mm|HoleType=Round|Shape=Octagon|*
%AMOCTAGOND43*
4,1,8,0.5000,-0.2500,0.5000,0.2500,0.2500,0.5000,-0.2500,0.5000,-0.5000,0.2500,-0.5000,-0.2500,-0.2500,-0.5000,0.2500,-0.5000,0.5000,-0.2500,0.0*
%
%ADD43OCTAGOND43*%

%ADD44C,0.8000*%
G36*
X605954Y351868D02*
X606164Y351474D01*
X606419Y351096D01*
X606720Y350735D01*
X607066Y350391D01*
X607458Y350063D01*
X607764Y349846D01*
X608274Y349678D01*
X609063Y349471D01*
X609758Y349347D01*
X610361Y349305D01*
X610872Y349346D01*
X611289Y349470D01*
X611614Y349677D01*
X611846Y349966D01*
X611985Y350338D01*
X612031Y350793D01*
Y340201D01*
X611983Y340699D01*
X611839Y341181D01*
X611600Y341646D01*
X611265Y342094D01*
X610834Y342526D01*
X610307Y342942D01*
X609684Y343341D01*
X608965Y343724D01*
X608151Y344091D01*
X607241Y344441D01*
X607293Y346339D01*
X606130Y344965D01*
X602261Y347009D01*
X605790Y352279D01*
X605954Y351868D01*
D02*
G37*
G36*
X658269Y345478D02*
X658503Y345365D01*
X658803Y345184D01*
X659169Y344932D01*
X660670Y343761D01*
X661303Y343232D01*
X657957Y339886D01*
X657951Y339837D01*
X657937Y339771D01*
X657919Y339720D01*
X657897Y339684D01*
X657870Y339664D01*
X657840Y339660D01*
X657806Y339670D01*
X657768Y339697D01*
X657957Y339886D01*
X657961Y339919D01*
X657967Y340016D01*
X657969Y340129D01*
Y345398D01*
X658002Y345494D01*
X658102Y345521D01*
X658269Y345478D01*
D02*
G37*
G36*
X663254Y341291D02*
X665025Y339747D01*
X665388Y339489D01*
X665718Y339281D01*
X666016Y339125D01*
X666282Y339021D01*
X666516Y338967D01*
X662033Y334484D01*
X661980Y334718D01*
X661875Y334984D01*
X661719Y335282D01*
X661511Y335612D01*
X661253Y335975D01*
X660583Y336796D01*
X659709Y337746D01*
X659196Y338269D01*
X662731Y341804D01*
X663254Y341291D01*
D02*
G37*
G36*
X465516Y335340D02*
X465093Y335178D01*
X464719Y334909D01*
X464396Y334531D01*
X464122Y334046D01*
X463898Y333452D01*
X463724Y332751D01*
X463677Y332447D01*
X463714Y332226D01*
X463835Y331715D01*
X463982Y331248D01*
X464157Y330825D01*
X464358Y330445D01*
X464585Y330109D01*
X464840Y329817D01*
X458546Y329017D01*
X458538Y330000D01*
X458500D01*
X458475Y331025D01*
X458400Y331942D01*
X458276Y332751D01*
X458102Y333452D01*
X457878Y334046D01*
X457604Y334531D01*
X457281Y334909D01*
X456908Y335178D01*
X456484Y335340D01*
X456012Y335394D01*
X465988D01*
X465516Y335340D01*
D02*
G37*
G36*
X935342Y295023D02*
X934242Y295798D01*
X932970Y296205D01*
X931528Y296242D01*
X929913Y295911D01*
X928128Y295211D01*
X926171Y294142D01*
X924042Y292705D01*
X921742Y290898D01*
X919271Y288723D01*
X916629Y286179D01*
X906468Y295817D01*
X909006Y298454D01*
X912961Y303199D01*
X914378Y305306D01*
X915420Y307237D01*
X916089Y308991D01*
X916384Y310569D01*
X916304Y311970D01*
X915851Y313194D01*
X915023Y314242D01*
X935342Y295023D01*
D02*
G37*
G36*
X216410Y355000D02*
X216450Y354976D01*
X218252Y352000D01*
X218180Y351827D01*
X217940Y350000D01*
Y340000D01*
X218180Y338173D01*
X218886Y336470D01*
X220008Y335008D01*
X221470Y333885D01*
X223173Y333180D01*
X225000Y332940D01*
X235000D01*
X236827Y333180D01*
X238530Y333885D01*
X239993Y335008D01*
X241115Y336470D01*
X241820Y338173D01*
X241857Y338457D01*
X244965Y339075D01*
X245798Y337632D01*
X248032Y335398D01*
X250768Y333818D01*
X253820Y333000D01*
X256980D01*
X260032Y333818D01*
X262768Y335398D01*
X265002Y337632D01*
X266534Y340285D01*
X266890Y340368D01*
X269310D01*
X269666Y340285D01*
X271198Y337632D01*
X273432Y335398D01*
X276168Y333818D01*
X279220Y333000D01*
X282380D01*
X285432Y333818D01*
X288168Y335398D01*
X290402Y337632D01*
X291258Y339114D01*
X291822Y339287D01*
X294608Y339078D01*
X295798Y337018D01*
X298218Y334598D01*
X301182Y332886D01*
X303700Y332211D01*
Y345000D01*
X306200D01*
Y347500D01*
X318989D01*
X318314Y350018D01*
X317170Y352000D01*
X318526Y355000D01*
X416667Y355000D01*
X417324Y354526D01*
X419010Y352000D01*
X418944Y351500D01*
Y347500D01*
X429000D01*
Y345000D01*
X431500D01*
Y331944D01*
X432500D01*
X434197Y332167D01*
X435778Y332822D01*
X438558Y333558D01*
X439220Y333116D01*
X440000Y332961D01*
X450000D01*
X450780Y333116D01*
X451442Y333558D01*
X454254Y333776D01*
X454833Y333667D01*
X455354Y333319D01*
X456021Y333186D01*
X456025Y333180D01*
X456152Y332844D01*
X456275Y332350D01*
X456374Y331704D01*
X456412Y331238D01*
Y329414D01*
X456442Y329261D01*
X456000Y328194D01*
Y325807D01*
X456913Y323601D01*
X458601Y321913D01*
X460807Y321000D01*
X463194D01*
X465399Y321913D01*
X467086Y323601D01*
X468000Y325807D01*
Y328194D01*
X467086Y330399D01*
X466985Y331074D01*
X467191Y333235D01*
X467263Y333419D01*
X467507Y333894D01*
X468465Y334535D01*
X469681Y336354D01*
X470108Y338500D01*
Y351500D01*
X470008Y352000D01*
X472110Y355000D01*
X593915D01*
X596000Y352193D01*
Y349807D01*
X596913Y347601D01*
X598601Y345914D01*
X600807Y345000D01*
X601698D01*
X605177Y343162D01*
X605335Y343115D01*
X606878Y342290D01*
X607816Y342006D01*
X608067Y341893D01*
X608652Y341581D01*
X609122Y341279D01*
X609475Y341001D01*
X609718Y340757D01*
X609865Y340561D01*
X609892Y340508D01*
Y338500D01*
X610319Y336354D01*
X611535Y334535D01*
X613354Y333319D01*
X615500Y332892D01*
X622500D01*
X624646Y333319D01*
X625167Y333667D01*
X625746Y333776D01*
X628558Y333558D01*
X629220Y333116D01*
X630000Y332961D01*
X640000D01*
X640780Y333116D01*
X641442Y333558D01*
X644254Y333776D01*
X644833Y333667D01*
X645354Y333319D01*
X647500Y332892D01*
X654500D01*
X656646Y333319D01*
X657081Y333610D01*
X657445Y333634D01*
X660478Y332603D01*
X660512Y332569D01*
X660913Y331601D01*
X662601Y329913D01*
X664807Y329000D01*
X667194D01*
X669399Y329913D01*
X671087Y331601D01*
X672000Y333806D01*
Y336194D01*
X671087Y338399D01*
X669399Y340087D01*
X667194Y341000D01*
X666832D01*
X666734Y341051D01*
X666522Y341184D01*
X666290Y341350D01*
X665113Y342376D01*
X662780Y344709D01*
X662780Y344709D01*
X662780Y344709D01*
X662713Y344754D01*
X660251Y346774D01*
X660108Y346851D01*
Y351500D01*
X660008Y352000D01*
X662110Y355000D01*
X695000D01*
X695000Y282000D01*
X630000Y217000D01*
Y170000D01*
X577000Y117000D01*
X576807D01*
X574601Y116087D01*
X572914Y114399D01*
X572022Y112247D01*
X569331Y110943D01*
X569193Y111000D01*
X566807D01*
X564601Y110086D01*
X562914Y108399D01*
X562000Y106194D01*
Y103806D01*
X562529Y102529D01*
X560000Y100000D01*
X525000D01*
Y20000D01*
X97481D01*
X96066Y22646D01*
X96432Y23193D01*
X99534Y29483D01*
X101788Y36123D01*
X103156Y43002D01*
X103615Y50000D01*
X103156Y56998D01*
X101788Y63877D01*
X99534Y70518D01*
X96432Y76807D01*
X92535Y82639D01*
X87911Y87911D01*
X82639Y92535D01*
X76807Y96432D01*
X70518Y99534D01*
X63877Y101788D01*
X56998Y103156D01*
X50000Y103615D01*
X43002Y103156D01*
X36123Y101788D01*
X29483Y99534D01*
X23193Y96432D01*
X22646Y96066D01*
X20000Y97481D01*
Y282519D01*
X22646Y283934D01*
X23193Y283568D01*
X29483Y280466D01*
X36123Y278212D01*
X43002Y276844D01*
X50000Y276385D01*
X56998Y276844D01*
X63877Y278212D01*
X70518Y280466D01*
X76807Y283568D01*
X82639Y287465D01*
X87911Y292089D01*
X92535Y297361D01*
X96432Y303193D01*
X99534Y309482D01*
X101788Y316124D01*
X103156Y323002D01*
X103615Y330000D01*
X103156Y336998D01*
X101788Y343876D01*
X99534Y350518D01*
X98579Y352452D01*
X100164Y355000D01*
X216410D01*
D02*
G37*
G36*
X909888Y279439D02*
X908304Y277808D01*
X904465Y273269D01*
X903490Y271873D01*
X902666Y270536D01*
X901994Y269257D01*
X901475Y268037D01*
X901107Y266876D01*
X900891Y265773D01*
X886323Y280341D01*
X887426Y280557D01*
X888587Y280925D01*
X889807Y281444D01*
X891086Y282116D01*
X892423Y282940D01*
X893819Y283915D01*
X896786Y286323D01*
X898358Y287754D01*
X899989Y289338D01*
X909888Y279439D01*
D02*
G37*
G36*
X900000Y300766D02*
X894151Y294917D01*
X892829Y293633D01*
X891523Y292443D01*
X888960Y290364D01*
X887992Y289687D01*
X887089Y289131D01*
X886344Y288740D01*
X885782Y288500D01*
X885428Y288388D01*
X884775Y288260D01*
X884511Y288172D01*
X884235Y288136D01*
X884128Y288091D01*
X881874Y287643D01*
X878053Y286060D01*
X874613Y283762D01*
X874612Y283761D01*
X873121Y282575D01*
X866782Y282076D01*
X860598Y280592D01*
X854723Y278158D01*
X849301Y274835D01*
X844466Y270706D01*
X844503Y270668D01*
X818942Y245108D01*
X818472Y244536D01*
X817949Y244012D01*
X817537Y243396D01*
X817068Y242824D01*
X816719Y242171D01*
X816307Y241555D01*
X816024Y240871D01*
X815675Y240218D01*
X815460Y239509D01*
X815176Y238825D01*
X815032Y238099D01*
X814817Y237390D01*
X814744Y236654D01*
X814600Y235927D01*
Y235187D01*
X814527Y234450D01*
X814600Y233713D01*
Y232973D01*
X814744Y232246D01*
X814817Y231509D01*
X815032Y230801D01*
X815176Y230075D01*
X815460Y229391D01*
X815675Y228682D01*
X816024Y228029D01*
X816307Y227345D01*
X816719Y226729D01*
X817068Y226076D01*
X817537Y225504D01*
X817949Y224888D01*
X818472Y224364D01*
X818942Y223792D01*
X819514Y223322D01*
X820038Y222799D01*
X820654Y222387D01*
X821226Y221918D01*
X821879Y221569D01*
X822495Y221157D01*
X822539Y221139D01*
X823469Y218189D01*
X823549Y217445D01*
X823423Y216076D01*
X823253Y215431D01*
X822398Y214576D01*
X821213Y212524D01*
X820600Y210235D01*
Y207865D01*
X821213Y205576D01*
X821299Y205428D01*
X818958Y200659D01*
X818680Y200428D01*
X792907D01*
X792725Y200443D01*
X792265Y200506D01*
X791845Y200592D01*
X791464Y200697D01*
X791121Y200821D01*
X790813Y200961D01*
X790536Y201116D01*
X790287Y201286D01*
X789988Y201533D01*
X789910Y201575D01*
X789399Y202087D01*
X787194Y203000D01*
X784807D01*
X782601Y202087D01*
X780913Y200399D01*
X780000Y198193D01*
Y195807D01*
X780913Y193601D01*
X782601Y191914D01*
X783516Y191534D01*
X784526Y191044D01*
X785737Y189159D01*
X787000Y186661D01*
X787000Y184806D01*
X787913Y182601D01*
X789601Y180914D01*
X791306Y180207D01*
X791995Y175492D01*
X792369Y171699D01*
X792655Y170756D01*
X793475Y168051D01*
X794807Y165559D01*
X795272Y164690D01*
X797690Y161743D01*
X797708Y161761D01*
X815442Y144027D01*
X815442Y144024D01*
X815422Y144003D01*
X818590Y141403D01*
X819218Y141067D01*
X822219Y139463D01*
X825475Y138476D01*
X826157Y138269D01*
X827707Y138116D01*
X828024Y138017D01*
X828025Y138017D01*
X828240Y137994D01*
X830236Y137866D01*
X834166Y137868D01*
X837152Y138261D01*
X838543Y138837D01*
X839935Y139413D01*
X841773Y140824D01*
X842778Y141084D01*
X843335Y141099D01*
X847798Y140024D01*
X849474Y138348D01*
X851526Y137163D01*
X853815Y136550D01*
X856185D01*
X858474Y137163D01*
X860526Y138348D01*
X862202Y140024D01*
X863387Y142076D01*
X864000Y144365D01*
Y146735D01*
X863387Y149024D01*
X862202Y151076D01*
X860526Y152752D01*
X858474Y153937D01*
X856185Y154550D01*
X853815D01*
X851526Y153937D01*
X849474Y152752D01*
X847901Y151179D01*
X845568Y150640D01*
X845531Y150632D01*
X845238Y150603D01*
X841198Y151078D01*
X839818Y152745D01*
X838891Y153954D01*
X838785Y154111D01*
X838265Y154632D01*
X838094Y154848D01*
X838031Y154940D01*
X838600Y157065D01*
Y159435D01*
X837987Y161724D01*
X836802Y163776D01*
X835126Y165452D01*
X833074Y166637D01*
X830785Y167250D01*
X828415D01*
X826126Y166637D01*
X824074Y165452D01*
X822398Y163776D01*
X821494Y162210D01*
X820398Y161590D01*
X815799Y160835D01*
X807128Y169506D01*
X807054Y169555D01*
X805491Y171592D01*
X804475Y174044D01*
X804326Y175175D01*
X804193Y180119D01*
X806399Y181033D01*
X808086Y182721D01*
X809000Y184926D01*
Y187272D01*
X809000Y187313D01*
X811810Y192174D01*
X811946Y192272D01*
X818680D01*
X818957Y192041D01*
X821299Y187272D01*
X821213Y187124D01*
X820600Y184835D01*
Y182465D01*
X821213Y180176D01*
X822398Y178124D01*
X824074Y176448D01*
X826126Y175263D01*
X828415Y174650D01*
X830785D01*
X833074Y175263D01*
X835126Y176448D01*
X836802Y178124D01*
X837987Y180176D01*
X838600Y182465D01*
Y184835D01*
X837987Y187124D01*
X837901Y187272D01*
X840242Y192041D01*
X840520Y192272D01*
X842176D01*
X842916Y192190D01*
X843726Y192039D01*
X844536Y191828D01*
X845350Y191553D01*
X846167Y191215D01*
X846989Y190810D01*
X847817Y190338D01*
X848649Y189797D01*
X849300Y189322D01*
X849474Y189148D01*
X851526Y187963D01*
X853815Y187350D01*
X856185D01*
X858474Y187963D01*
X860526Y189148D01*
X862202Y190824D01*
X863387Y192876D01*
X864000Y195165D01*
Y197535D01*
X863387Y199824D01*
X862202Y201876D01*
X860526Y203552D01*
X858474Y204737D01*
X856185Y205350D01*
X853815D01*
X851526Y204737D01*
X849474Y203552D01*
X849300Y203377D01*
X848649Y202903D01*
X847816Y202362D01*
X846990Y201890D01*
X846167Y201486D01*
X845350Y201147D01*
X844536Y200872D01*
X843726Y200661D01*
X842916Y200510D01*
X842176Y200428D01*
X840519D01*
X840242Y200659D01*
X837901Y205428D01*
X837987Y205576D01*
X838600Y207865D01*
Y210235D01*
X837987Y212524D01*
X836802Y214576D01*
X835947Y215431D01*
X835777Y216076D01*
X835651Y217445D01*
X835731Y218189D01*
X836661Y221139D01*
X836705Y221157D01*
X837321Y221569D01*
X837974Y221918D01*
X838546Y222387D01*
X839162Y222799D01*
X839686Y223322D01*
X840258Y223792D01*
X841345Y224879D01*
X844850Y223415D01*
X846000Y222463D01*
Y220565D01*
X846613Y218276D01*
X847798Y216224D01*
X849474Y214548D01*
X851526Y213363D01*
X853815Y212750D01*
X856185D01*
X858474Y213363D01*
X860526Y214548D01*
X862202Y216224D01*
X863387Y218276D01*
X864000Y220565D01*
Y222935D01*
X863387Y225224D01*
X862202Y227276D01*
X860526Y228952D01*
X858474Y230137D01*
X856185Y230750D01*
X854287D01*
X853335Y231900D01*
X851871Y235406D01*
X865818Y249353D01*
X865913Y249468D01*
X867940Y251024D01*
X870439Y252059D01*
X872972Y252392D01*
X873121Y252377D01*
X873374D01*
X874613Y251138D01*
X878053Y248840D01*
X881874Y247257D01*
X885932Y246450D01*
X890068D01*
X894126Y247257D01*
X895000Y247619D01*
X897950Y246267D01*
X900161Y244521D01*
X900711Y241754D01*
X902105Y238387D01*
X904130Y235357D01*
X906707Y232780D01*
X909737Y230756D01*
X913104Y229361D01*
X916678Y228650D01*
X920322D01*
X923896Y229361D01*
X927263Y230756D01*
X930293Y232780D01*
X932870Y235357D01*
X934894Y238387D01*
X936289Y241754D01*
X937000Y245328D01*
Y248972D01*
X936289Y252546D01*
X934894Y255913D01*
X932870Y258943D01*
X930293Y261520D01*
X927263Y263545D01*
X923896Y264939D01*
X920322Y265650D01*
X916678D01*
X914828Y265282D01*
X914826Y265284D01*
X912137Y269845D01*
X914286Y272385D01*
X915467Y273601D01*
X921866Y280000D01*
X980000D01*
Y266198D01*
X975000Y264356D01*
X974254Y265102D01*
X971746Y266550D01*
X968948Y267300D01*
X966052D01*
X963254Y266550D01*
X960746Y265102D01*
X958698Y263054D01*
X957250Y260546D01*
X956500Y257748D01*
Y254852D01*
X957250Y252054D01*
X958698Y249546D01*
X960746Y247498D01*
X962926Y246239D01*
X963254Y244499D01*
Y242701D01*
X962926Y240961D01*
X960746Y239702D01*
X958698Y237654D01*
X957250Y235146D01*
X956500Y232348D01*
Y231987D01*
X956339Y230954D01*
X956065Y229653D01*
X955732Y228421D01*
X955342Y227259D01*
X954894Y226164D01*
X954390Y225134D01*
X953830Y224169D01*
X953214Y223265D01*
X952581Y222469D01*
X771795Y41684D01*
X771678Y41508D01*
X768676Y39044D01*
X765067Y37115D01*
X761151Y35928D01*
X757286Y35547D01*
X757079Y35588D01*
X600000D01*
X599848Y35558D01*
X596594Y35878D01*
X593320Y36872D01*
X590301Y38485D01*
X587656Y40656D01*
X585485Y43301D01*
X583872Y46319D01*
X582878Y49594D01*
X582558Y52848D01*
X582588Y53000D01*
Y85185D01*
X586663Y86381D01*
X587588Y86427D01*
X587840Y86175D01*
X588174Y85674D01*
X588675Y85339D01*
X589101Y84913D01*
X589658Y84683D01*
X590159Y84348D01*
X590750Y84231D01*
X591307Y84000D01*
X591909D01*
X592500Y83883D01*
X627500D01*
X628091Y84000D01*
X628694D01*
X629250Y84231D01*
X629841Y84348D01*
X630342Y84683D01*
X630899Y84913D01*
X631325Y85339D01*
X631826Y85674D01*
X632160Y86175D01*
X632587Y86601D01*
X632817Y87158D01*
X633152Y87659D01*
X633270Y88250D01*
X633500Y88806D01*
Y89409D01*
X633618Y90000D01*
X633500Y90591D01*
Y91194D01*
X633270Y91750D01*
X633152Y92341D01*
X632817Y92842D01*
X632587Y93399D01*
X632160Y93825D01*
X631826Y94326D01*
X631325Y94661D01*
X630899Y95087D01*
X630342Y95317D01*
X629841Y95652D01*
X629250Y95769D01*
X628694Y96000D01*
X628091D01*
X627500Y96117D01*
X592500D01*
X591909Y96000D01*
X591307D01*
X590750Y95769D01*
X590159Y95652D01*
X589658Y95317D01*
X589101Y95087D01*
X588675Y94661D01*
X588174Y94326D01*
X587840Y93825D01*
X587588Y93573D01*
X586663Y93619D01*
X582588Y94815D01*
Y105586D01*
X582595Y105755D01*
X582690Y106683D01*
X582742Y106996D01*
X582798Y107240D01*
X582831Y107346D01*
X583087Y107601D01*
X584000Y109806D01*
Y112193D01*
X583087Y114399D01*
X582240Y115245D01*
X634762Y168886D01*
X634762Y215000D01*
X680681Y260918D01*
X685681Y258847D01*
Y254064D01*
X689181Y250564D01*
X690354D01*
X690412Y250477D01*
Y211414D01*
X690405Y211245D01*
X690311Y210317D01*
X690258Y210004D01*
X690202Y209760D01*
X690169Y209654D01*
X689913Y209399D01*
X689000Y207194D01*
Y204806D01*
X689913Y202601D01*
X691601Y200914D01*
X693807Y200000D01*
X696193D01*
X698399Y200914D01*
X700087Y202601D01*
X701000Y204806D01*
Y207194D01*
X700087Y209399D01*
X699831Y209654D01*
X699798Y209760D01*
X699742Y210004D01*
X699695Y210285D01*
X699588Y211843D01*
Y252135D01*
X699284Y253667D01*
X699681Y254064D01*
Y261064D01*
X696181Y264564D01*
X691397D01*
X689326Y269564D01*
X699762Y280000D01*
X700000Y355000D01*
X900000D01*
Y300766D01*
D02*
G37*
G36*
X968661Y221975D02*
X967187Y221746D01*
X965777Y221449D01*
X964430Y221085D01*
X963147Y220654D01*
X961928Y220155D01*
X960773Y219590D01*
X959682Y218957D01*
X958654Y218257D01*
X957690Y217489D01*
X956790Y216655D01*
X953255Y220190D01*
X954089Y221090D01*
X954857Y222054D01*
X955557Y223082D01*
X956190Y224173D01*
X956755Y225329D01*
X957254Y226547D01*
X957685Y227830D01*
X958049Y229177D01*
X958346Y230587D01*
X958575Y232061D01*
X968661Y221975D01*
D02*
G37*
G36*
X697507Y212389D02*
X697667Y210046D01*
X697741Y209607D01*
X697828Y209227D01*
X697929Y208906D01*
X698042Y208643D01*
X698170Y208440D01*
X691830D01*
X691958Y208643D01*
X692072Y208906D01*
X692172Y209227D01*
X692259Y209607D01*
X692333Y210046D01*
X692440Y211100D01*
X692493Y212389D01*
X692500Y213123D01*
X697500D01*
X697507Y212389D01*
D02*
G37*
G36*
X789059Y199655D02*
X789460Y199381D01*
X789891Y199140D01*
X790353Y198930D01*
X790845Y198753D01*
X791368Y198608D01*
X791922Y198495D01*
X792506Y198414D01*
X793120Y198366D01*
X793765Y198350D01*
X792996Y194350D01*
X792277Y194343D01*
X789926Y194173D01*
X789470Y194095D01*
X789067Y194003D01*
X788716Y193896D01*
X788418Y193776D01*
X788172Y193641D01*
X788689Y199961D01*
X789059Y199655D01*
D02*
G37*
G36*
X850730Y190803D02*
X849806Y191477D01*
X848878Y192080D01*
X847945Y192612D01*
X847008Y193073D01*
X846067Y193463D01*
X845121Y193783D01*
X844170Y194031D01*
X843215Y194208D01*
X842256Y194314D01*
X841292Y194350D01*
Y198350D01*
X842256Y198386D01*
X843215Y198492D01*
X844170Y198669D01*
X845121Y198918D01*
X846067Y199237D01*
X847008Y199627D01*
X847945Y200088D01*
X848878Y200620D01*
X849806Y201223D01*
X850730Y201897D01*
Y190803D01*
D02*
G37*
G36*
X803143Y182122D02*
X802943Y182101D01*
X802764Y182051D01*
X802606Y181974D01*
X802468Y181868D01*
X802352Y181735D01*
X802258Y181574D01*
X802184Y181385D01*
X802131Y181168D01*
X802099Y180923D01*
X802089Y180650D01*
X799089D01*
X799561Y184077D01*
X803143Y182122D01*
D02*
G37*
G36*
X796638Y184298D02*
X796632Y184164D01*
X796638Y183977D01*
X796686Y183443D01*
X797013Y181174D01*
X794089Y180228D01*
X794073Y180532D01*
X794024Y180809D01*
X793943Y181059D01*
X793830Y181281D01*
X793684Y181476D01*
X793507Y181642D01*
X793296Y181782D01*
X793054Y181894D01*
X792779Y181978D01*
X792472Y182035D01*
X796656Y184378D01*
X796638Y184298D01*
D02*
G37*
G36*
X980000Y221002D02*
Y158998D01*
X975000Y157156D01*
X974254Y157902D01*
X971746Y159350D01*
X968948Y160100D01*
X966052D01*
X963254Y159350D01*
X960746Y157902D01*
X958698Y155854D01*
X957250Y153346D01*
X956500Y150548D01*
Y150188D01*
X956339Y149154D01*
X956065Y147853D01*
X955732Y146621D01*
X955342Y145459D01*
X954894Y144364D01*
X954390Y143334D01*
X953830Y142369D01*
X953214Y141465D01*
X952581Y140669D01*
X941889Y129978D01*
X939720Y130443D01*
X937000Y132160D01*
Y134672D01*
X936289Y138246D01*
X934894Y141613D01*
X932870Y144643D01*
X930293Y147220D01*
X927263Y149244D01*
X923896Y150639D01*
X920322Y151350D01*
X916678D01*
X913104Y150639D01*
X909737Y149244D01*
X906707Y147220D01*
X904130Y144643D01*
X902105Y141613D01*
X900711Y138246D01*
X900161Y135479D01*
X897950Y133733D01*
X895000Y132381D01*
X894126Y132743D01*
X890068Y133550D01*
X885932D01*
X883158Y132998D01*
X880520Y137139D01*
X880451Y137362D01*
X959069Y215981D01*
X959865Y216614D01*
X960769Y217230D01*
X961734Y217790D01*
X962764Y218294D01*
X963859Y218742D01*
X965022Y219132D01*
X966253Y219465D01*
X967554Y219739D01*
X968587Y219900D01*
X968948D01*
X971746Y220650D01*
X974254Y222098D01*
X975000Y222844D01*
X980000Y221002D01*
D02*
G37*
G36*
X835896Y155131D02*
X835880Y154926D01*
X835907Y154703D01*
X835978Y154463D01*
X836092Y154205D01*
X836251Y153929D01*
X836453Y153636D01*
X836699Y153324D01*
X836989Y152995D01*
X837323Y152649D01*
X835201Y150527D01*
X834855Y150861D01*
X834214Y151397D01*
X833921Y151599D01*
X833645Y151758D01*
X833387Y151872D01*
X833147Y151943D01*
X832924Y151971D01*
X832719Y151954D01*
X832532Y151894D01*
X835956Y155318D01*
X835896Y155131D01*
D02*
G37*
G36*
X848015Y145100D02*
X847981Y145275D01*
X847907Y145421D01*
X847791Y145538D01*
X847634Y145626D01*
X847435Y145684D01*
X847195Y145713D01*
X846914Y145712D01*
X846591Y145683D01*
X846226Y145624D01*
X845820Y145536D01*
X845754Y148590D01*
X849135Y149372D01*
X848015Y145100D01*
D02*
G37*
G36*
X968661Y140175D02*
X967187Y139946D01*
X965777Y139649D01*
X964430Y139285D01*
X963147Y138854D01*
X961928Y138355D01*
X960773Y137790D01*
X959682Y137157D01*
X958654Y136457D01*
X957690Y135689D01*
X956790Y134855D01*
X953255Y138390D01*
X954089Y139290D01*
X954857Y140254D01*
X955557Y141282D01*
X956190Y142373D01*
X956755Y143528D01*
X957254Y144747D01*
X957685Y146030D01*
X958049Y147377D01*
X958346Y148787D01*
X958575Y150261D01*
X968661Y140175D01*
D02*
G37*
G36*
X581042Y108357D02*
X580929Y108094D01*
X580828Y107773D01*
X580741Y107393D01*
X580667Y106954D01*
X580560Y105900D01*
X580507Y104611D01*
X580500Y103877D01*
X575500D01*
X575493Y104611D01*
X575333Y106954D01*
X575259Y107393D01*
X575172Y107773D01*
X575071Y108094D01*
X574958Y108357D01*
X574830Y108560D01*
X581170D01*
X581042Y108357D01*
D02*
G37*
G36*
X955016Y125702D02*
X956500Y124540D01*
Y122252D01*
X957250Y119454D01*
X958698Y116946D01*
X960746Y114898D01*
X963254Y113450D01*
X966052Y112700D01*
X968948D01*
X971746Y113450D01*
X974254Y114898D01*
X975000Y115644D01*
X980000Y113802D01*
Y100000D01*
X931422D01*
X929508Y104619D01*
X951795Y126906D01*
X955016Y125702D01*
D02*
G37*
G36*
X571042Y102357D02*
X570929Y102094D01*
X570828Y101773D01*
X570741Y101393D01*
X570667Y100954D01*
X570560Y99900D01*
X570507Y98611D01*
X570500Y97878D01*
X565500D01*
X565493Y98611D01*
X565333Y100954D01*
X565259Y101393D01*
X565172Y101773D01*
X565071Y102094D01*
X564958Y102357D01*
X564830Y102560D01*
X571170D01*
X571042Y102357D01*
D02*
G37*
G36*
X863411Y120030D02*
X867552Y117392D01*
X867000Y114618D01*
Y110482D01*
X867807Y106425D01*
X869390Y102603D01*
X871688Y99163D01*
X874613Y96238D01*
X878053Y93940D01*
X881874Y92357D01*
X885932Y91550D01*
X890068D01*
X891835Y91901D01*
X896373Y88983D01*
X896942Y88128D01*
X897217Y85306D01*
X845095Y33184D01*
X844978Y33008D01*
X841976Y30544D01*
X838367Y28615D01*
X834451Y27427D01*
X830586Y27047D01*
X830379Y27088D01*
X776041D01*
X774631Y32088D01*
X774708Y32136D01*
X778287Y35192D01*
X778284Y35195D01*
X863188Y120099D01*
X863411Y120030D01*
D02*
G37*
G36*
X900000Y68579D02*
Y20000D01*
X851450D01*
X849606Y25000D01*
X851587Y26692D01*
X851584Y26695D01*
X895381Y70492D01*
X900000Y68579D01*
D02*
G37*
G36*
X562417Y95000D02*
X563412Y94594D01*
Y48993D01*
X563408D01*
X563777Y44301D01*
X563811Y44158D01*
X564876Y39725D01*
X566677Y35376D01*
X569059Y31489D01*
X569136Y31363D01*
X572192Y27785D01*
X574200Y24540D01*
X572034Y20000D01*
X530000D01*
Y95000D01*
X562417D01*
D02*
G37*
%LPC*%
G36*
X318989Y342500D02*
X308700D01*
Y332211D01*
X311218Y332886D01*
X314182Y334598D01*
X316603Y337018D01*
X318314Y339982D01*
X318989Y342500D01*
D02*
G37*
G36*
X426500Y342500D02*
X418944D01*
Y338500D01*
X419167Y336803D01*
X419822Y335222D01*
X420864Y333864D01*
X422222Y332822D01*
X423803Y332167D01*
X425500Y331944D01*
X426500D01*
Y342500D01*
D02*
G37*
G36*
X654500Y317108D02*
X647500D01*
X645354Y316681D01*
X644833Y316333D01*
X644254Y316224D01*
X641442Y316442D01*
X640780Y316884D01*
X640000Y317039D01*
X630000D01*
X629220Y316884D01*
X628558Y316442D01*
X625746Y316224D01*
X625167Y316333D01*
X624646Y316681D01*
X622500Y317108D01*
X615500D01*
X613354Y316681D01*
X611535Y315465D01*
X610319Y313646D01*
X609892Y311500D01*
Y310881D01*
X607627Y309781D01*
X607041Y309616D01*
X606317Y309690D01*
X606004Y309742D01*
X605760Y309798D01*
X605654Y309831D01*
X605399Y310087D01*
X603194Y311000D01*
X600807D01*
X598601Y310087D01*
X596913Y308399D01*
X596000Y306194D01*
Y303806D01*
X596913Y301601D01*
X598601Y299913D01*
X600807Y299000D01*
X603194D01*
X605399Y299913D01*
X605654Y300169D01*
X605760Y300202D01*
X606004Y300258D01*
X606285Y300305D01*
X607030Y300356D01*
X609892Y298500D01*
X610319Y296354D01*
X611535Y294535D01*
X613354Y293319D01*
X615500Y292892D01*
X622500D01*
X624646Y293319D01*
X625167Y293667D01*
X625746Y293776D01*
X628558Y293558D01*
X629220Y293116D01*
X630000Y292961D01*
X640000D01*
X640780Y293116D01*
X641442Y293558D01*
X644254Y293776D01*
X644833Y293667D01*
X645354Y293319D01*
X645364Y293286D01*
X645913Y290399D01*
X645000Y288193D01*
Y285807D01*
X645913Y283601D01*
X647601Y281914D01*
X649807Y281000D01*
X652194D01*
X654399Y281914D01*
X656087Y283601D01*
X657000Y285807D01*
Y288193D01*
X656087Y290399D01*
X656636Y293286D01*
X656646Y293319D01*
X658465Y294535D01*
X659681Y296354D01*
X660108Y298500D01*
Y311500D01*
X659681Y313646D01*
X658465Y315465D01*
X656646Y316681D01*
X654500Y317108D01*
D02*
G37*
G36*
X585000Y342060D02*
X575000D01*
X573173Y341820D01*
X571470Y341115D01*
X570008Y339992D01*
X568885Y338530D01*
X568180Y336827D01*
X567940Y335000D01*
Y325000D01*
X568180Y323173D01*
X568885Y321470D01*
X570008Y320008D01*
X571470Y318885D01*
X572211Y318578D01*
X572665Y315754D01*
X572575Y315324D01*
X572018Y315003D01*
X569597Y312582D01*
X567886Y309618D01*
X567211Y307100D01*
X580000D01*
X592789D01*
X592114Y309618D01*
X590403Y312582D01*
X587982Y315003D01*
X587425Y315324D01*
X587335Y315754D01*
X587789Y318578D01*
X588530Y318885D01*
X589992Y320008D01*
X591115Y321470D01*
X591820Y323173D01*
X592060Y325000D01*
Y335000D01*
X591820Y336827D01*
X591115Y338530D01*
X589992Y339992D01*
X588530Y341115D01*
X586827Y341820D01*
X585000Y342060D01*
D02*
G37*
G36*
X135000D02*
X125000D01*
X123173Y341820D01*
X121470Y341115D01*
X120007Y339992D01*
X118885Y338530D01*
X118180Y336827D01*
X117940Y335000D01*
Y325000D01*
X118180Y323173D01*
X118885Y321470D01*
X120007Y320008D01*
X121470Y318885D01*
X122211Y318578D01*
X122665Y315754D01*
X122576Y315324D01*
X122018Y315003D01*
X119597Y312582D01*
X117886Y309618D01*
X117211Y307100D01*
X130000D01*
X142789D01*
X142114Y309618D01*
X140403Y312582D01*
X137982Y315003D01*
X137424Y315324D01*
X137335Y315754D01*
X137789Y318578D01*
X138530Y318885D01*
X139993Y320008D01*
X141115Y321470D01*
X141820Y323173D01*
X142060Y325000D01*
Y335000D01*
X141820Y336827D01*
X141115Y338530D01*
X139993Y339992D01*
X138530Y341115D01*
X136827Y341820D01*
X135000Y342060D01*
D02*
G37*
G36*
X592789Y302100D02*
X582500D01*
Y291811D01*
X585018Y292486D01*
X587982Y294197D01*
X590403Y296618D01*
X592114Y299582D01*
X592789Y302100D01*
D02*
G37*
G36*
X577500D02*
X567211D01*
X567886Y299582D01*
X569597Y296618D01*
X572018Y294197D01*
X574982Y292486D01*
X577500Y291811D01*
Y302100D01*
D02*
G37*
G36*
X235194Y299000D02*
X232806D01*
X230601Y298087D01*
X230171Y297656D01*
X226324Y296661D01*
X226161Y296583D01*
X224253Y296124D01*
X219905Y294324D01*
X218098Y293217D01*
X218098Y293216D01*
X217979Y293143D01*
X217923Y293109D01*
X217733Y293038D01*
X217036Y292606D01*
X214391Y291000D01*
X213806D01*
X211601Y290086D01*
X209913Y288399D01*
X209000Y286194D01*
Y283806D01*
X209913Y281601D01*
X211601Y279913D01*
X213806Y279000D01*
X216194D01*
X218399Y279913D01*
X220087Y281601D01*
X221000Y283806D01*
Y283834D01*
X221091Y283986D01*
X221248Y284200D01*
X221454Y284434D01*
X221711Y284683D01*
X222001Y284926D01*
X222426Y285224D01*
X225533Y286885D01*
X228887Y287902D01*
X229128Y287941D01*
X229533Y287980D01*
X229891Y287990D01*
X230201Y287974D01*
X230465Y287937D01*
X230655Y287891D01*
X231064Y287722D01*
X231125Y287692D01*
X231158Y287683D01*
X232806Y287000D01*
X235194D01*
X237399Y287913D01*
X239086Y289601D01*
X240000Y291807D01*
Y294193D01*
X239086Y296399D01*
X237399Y298087D01*
X235194Y299000D01*
D02*
G37*
G36*
X531053Y297400D02*
X528947D01*
X526912Y296855D01*
X525088Y295802D01*
X523598Y294312D01*
X522545Y292488D01*
X522000Y290453D01*
Y288347D01*
X522545Y286312D01*
X523598Y284488D01*
X525088Y282998D01*
X526912Y281945D01*
X528947Y281400D01*
X531053D01*
X533088Y281945D01*
X534912Y282998D01*
X536402Y284488D01*
X537455Y286312D01*
X538000Y288347D01*
Y290453D01*
X537455Y292488D01*
X536402Y294312D01*
X534912Y295802D01*
X533088Y296855D01*
X531053Y297400D01*
D02*
G37*
G36*
X276194Y292000D02*
X273807D01*
X271601Y291087D01*
X269914Y289399D01*
X269000Y287194D01*
Y284806D01*
X269914Y282601D01*
X270169Y282346D01*
X270202Y282240D01*
X270258Y281996D01*
X270305Y281715D01*
X270412Y280157D01*
Y272914D01*
X270405Y272745D01*
X270311Y271817D01*
X270258Y271504D01*
X270202Y271260D01*
X270169Y271154D01*
X269914Y270899D01*
X269000Y268694D01*
Y266307D01*
X269914Y264101D01*
X271601Y262414D01*
X273807Y261500D01*
X276194D01*
X278399Y262414D01*
X280087Y264101D01*
X281000Y266307D01*
Y268694D01*
X280087Y270899D01*
X279831Y271154D01*
X279798Y271260D01*
X279742Y271504D01*
X279695Y271785D01*
X279588Y273343D01*
Y280586D01*
X279595Y280755D01*
X279690Y281683D01*
X279742Y281996D01*
X279798Y282240D01*
X279831Y282346D01*
X280087Y282601D01*
X281000Y284806D01*
Y287194D01*
X280087Y289399D01*
X278399Y291087D01*
X276194Y292000D01*
D02*
G37*
G36*
X142789Y302100D02*
X130000D01*
X117211D01*
X117886Y299582D01*
X119597Y296618D01*
X122018Y294197D01*
X124078Y293008D01*
X124287Y290222D01*
X124114Y289658D01*
X122632Y288802D01*
X120398Y286568D01*
X118818Y283832D01*
X118000Y280780D01*
Y277620D01*
X118818Y274568D01*
X120398Y271832D01*
X122632Y269598D01*
X124114Y268742D01*
X124287Y268178D01*
X124078Y265392D01*
X122018Y264203D01*
X119597Y261782D01*
X117886Y258818D01*
X117211Y256300D01*
X130000D01*
X142789D01*
X142114Y258818D01*
X140403Y261782D01*
X137982Y264203D01*
X135922Y265392D01*
X135713Y268178D01*
X135886Y268742D01*
X137368Y269598D01*
X139602Y271832D01*
X141182Y274568D01*
X142000Y277620D01*
Y280780D01*
X141182Y283832D01*
X139602Y286568D01*
X137368Y288802D01*
X135886Y289658D01*
X135713Y290222D01*
X135922Y293008D01*
X137982Y294197D01*
X140403Y296618D01*
X142114Y299582D01*
X142789Y302100D01*
D02*
G37*
G36*
X183193Y287000D02*
X180807D01*
X178601Y286087D01*
X176913Y284399D01*
X176000Y282194D01*
Y279806D01*
X176913Y277601D01*
X177169Y277346D01*
X177202Y277240D01*
X177258Y276996D01*
X177305Y276715D01*
X177412Y275157D01*
Y246414D01*
X177405Y246245D01*
X177311Y245317D01*
X177258Y245004D01*
X177202Y244760D01*
X177169Y244654D01*
X176913Y244399D01*
X176000Y242194D01*
Y239806D01*
X176913Y237601D01*
X178601Y235913D01*
X180807Y235000D01*
X183193D01*
X185399Y235913D01*
X187087Y237601D01*
X188000Y239806D01*
Y242194D01*
X187087Y244399D01*
X186831Y244654D01*
X186798Y244760D01*
X186742Y245004D01*
X186695Y245285D01*
X186588Y246843D01*
Y275586D01*
X186595Y275755D01*
X186689Y276683D01*
X186742Y276996D01*
X186798Y277240D01*
X186831Y277346D01*
X187087Y277601D01*
X188000Y279806D01*
Y282194D01*
X187087Y284399D01*
X185399Y286087D01*
X183193Y287000D01*
D02*
G37*
G36*
X531053Y248600D02*
X528947D01*
X526912Y248055D01*
X525088Y247002D01*
X523598Y245512D01*
X522545Y243688D01*
X522000Y241653D01*
Y239547D01*
X522545Y237512D01*
X523598Y235688D01*
X525088Y234198D01*
X526912Y233145D01*
X528947Y232600D01*
X531053D01*
X533088Y233145D01*
X534912Y234198D01*
X536402Y235688D01*
X537455Y237512D01*
X538000Y239547D01*
Y241653D01*
X537455Y243688D01*
X536402Y245512D01*
X534912Y247002D01*
X533088Y248055D01*
X531053Y248600D01*
D02*
G37*
G36*
X262194Y263000D02*
X259807D01*
X257601Y262087D01*
X255914Y260399D01*
X255000Y258193D01*
Y255807D01*
X255914Y253601D01*
X257601Y251914D01*
X259807Y251000D01*
X260168D01*
X260266Y250949D01*
X260478Y250816D01*
X260710Y250650D01*
X261887Y249624D01*
X266513Y244998D01*
X266516Y244996D01*
X266518Y244993D01*
X266634Y244916D01*
X268104Y243000D01*
X268107Y242995D01*
X268163Y242882D01*
X268451Y242187D01*
X268514Y241971D01*
X268571Y241668D01*
X268596Y241380D01*
X268590Y241098D01*
X268554Y240816D01*
X268487Y240528D01*
X268353Y240137D01*
X268335Y240002D01*
X268000Y239193D01*
Y236807D01*
X268913Y234601D01*
X270601Y232913D01*
X272806Y232000D01*
X275194D01*
X277399Y232913D01*
X279087Y234601D01*
X280000Y236807D01*
Y239193D01*
X279087Y241399D01*
X278141Y242344D01*
X277575Y243865D01*
X277140Y245301D01*
X276712Y246101D01*
X276690Y246168D01*
X276655Y246208D01*
X275377Y248599D01*
X273010Y251483D01*
X273004Y251490D01*
X273002Y251487D01*
X268072Y256416D01*
X267958Y256540D01*
X267369Y257263D01*
X267184Y257522D01*
X267051Y257735D01*
X267000Y257832D01*
Y258193D01*
X266087Y260399D01*
X264399Y262087D01*
X262194Y263000D01*
D02*
G37*
G36*
X426194Y272000D02*
X423806D01*
X421601Y271087D01*
X419913Y269399D01*
X419000Y267194D01*
Y264806D01*
X419913Y262601D01*
X420169Y262346D01*
X420202Y262240D01*
X420258Y261996D01*
X420305Y261715D01*
X420412Y260157D01*
Y241414D01*
X420405Y241245D01*
X420311Y240317D01*
X420258Y240004D01*
X420202Y239760D01*
X420169Y239654D01*
X419913Y239399D01*
X419000Y237194D01*
Y234806D01*
X419913Y232601D01*
X421601Y230914D01*
X423807Y230000D01*
X426194D01*
X428399Y230914D01*
X430087Y232601D01*
X431000Y234806D01*
Y237194D01*
X430087Y239399D01*
X429831Y239654D01*
X429798Y239760D01*
X429742Y240004D01*
X429695Y240285D01*
X429588Y241843D01*
Y260586D01*
X429595Y260755D01*
X429689Y261682D01*
X429742Y261997D01*
X429798Y262240D01*
X429831Y262346D01*
X430087Y262601D01*
X431000Y264806D01*
Y267194D01*
X430087Y269399D01*
X428399Y271087D01*
X426194Y272000D01*
D02*
G37*
G36*
X62500Y223056D02*
X61500D01*
X59803Y222833D01*
X58222Y222178D01*
X56864Y221136D01*
X55822Y219778D01*
X55167Y218197D01*
X54944Y216500D01*
Y212500D01*
X62500D01*
Y223056D01*
D02*
G37*
G36*
X142789Y251300D02*
X130000D01*
X117211D01*
X117886Y248782D01*
X119597Y245818D01*
X122018Y243397D01*
X124078Y242208D01*
X124287Y239422D01*
X124114Y238858D01*
X122632Y238002D01*
X120398Y235768D01*
X118818Y233032D01*
X118000Y229980D01*
Y226820D01*
X118818Y223768D01*
X120398Y221032D01*
X122632Y218798D01*
X124114Y217942D01*
X124287Y217378D01*
X124078Y214592D01*
X122018Y213403D01*
X119597Y210982D01*
X117886Y208018D01*
X117211Y205500D01*
X130000D01*
X142789D01*
X142114Y208018D01*
X140403Y210982D01*
X137982Y213403D01*
X135922Y214592D01*
X135713Y217378D01*
X135886Y217942D01*
X137368Y218798D01*
X139602Y221032D01*
X141182Y223768D01*
X142000Y226820D01*
Y229980D01*
X141182Y233032D01*
X139602Y235768D01*
X137368Y238002D01*
X135886Y238858D01*
X135713Y239422D01*
X135922Y242208D01*
X137982Y243397D01*
X140403Y245818D01*
X142114Y248782D01*
X142789Y251300D01*
D02*
G37*
G36*
X62500Y207500D02*
X54944D01*
Y203500D01*
X55167Y201803D01*
X55822Y200222D01*
X56864Y198864D01*
X58222Y197822D01*
X59803Y197167D01*
X61500Y196944D01*
X62500D01*
Y207500D01*
D02*
G37*
G36*
X577220Y205720D02*
X570220D01*
X566720Y202220D01*
Y195220D01*
X570220Y191720D01*
X577220D01*
X580720Y195220D01*
Y202220D01*
X577220Y205720D01*
D02*
G37*
G36*
X68500Y223056D02*
X67500D01*
Y210000D01*
Y196944D01*
X68500D01*
X70197Y197167D01*
X71778Y197822D01*
X74558Y198558D01*
X75220Y198116D01*
X76000Y197961D01*
X86000D01*
X86780Y198116D01*
X87442Y198558D01*
X90254Y198776D01*
X90833Y198667D01*
X91354Y198319D01*
X92022Y198186D01*
X92025Y198180D01*
X92152Y197844D01*
X92275Y197350D01*
X92374Y196704D01*
X92412Y196238D01*
Y195414D01*
X92405Y195245D01*
X92310Y194317D01*
X92258Y194004D01*
X92202Y193760D01*
X92169Y193654D01*
X91913Y193399D01*
X91000Y191194D01*
Y188806D01*
X91913Y186601D01*
X93601Y184913D01*
X95807Y184000D01*
X98194D01*
X100399Y184913D01*
X102087Y186601D01*
X103000Y188806D01*
Y191194D01*
X102087Y193399D01*
X101831Y193654D01*
X101798Y193760D01*
X101742Y194004D01*
X101695Y194285D01*
X101588Y195843D01*
Y196238D01*
X101626Y196704D01*
X101725Y197350D01*
X101848Y197844D01*
X101975Y198180D01*
X101979Y198186D01*
X102646Y198319D01*
X104465Y199535D01*
X105681Y201354D01*
X106108Y203500D01*
Y216500D01*
X105681Y218646D01*
X104465Y220465D01*
X102646Y221681D01*
X100500Y222108D01*
X93500D01*
X91354Y221681D01*
X90833Y221333D01*
X90254Y221224D01*
X87442Y221442D01*
X86780Y221884D01*
X86000Y222039D01*
X76000D01*
X75220Y221884D01*
X74558Y221442D01*
X71778Y222178D01*
X70197Y222833D01*
X68500Y223056D01*
D02*
G37*
G36*
X168500Y182000D02*
X161500D01*
X158000Y178500D01*
Y171500D01*
X161500Y168000D01*
X168500D01*
X172000Y171500D01*
Y178500D01*
X168500Y182000D01*
D02*
G37*
G36*
X487193Y169000D02*
X484807D01*
X482601Y168087D01*
X480913Y166399D01*
X480448Y165275D01*
X477228D01*
X476763Y166399D01*
X475075Y168087D01*
X472870Y169000D01*
X470483D01*
X468278Y168087D01*
X466590Y166399D01*
X465676Y164193D01*
Y163693D01*
X465668Y163647D01*
X465647Y163587D01*
X465578Y163437D01*
X465451Y163215D01*
X465266Y162935D01*
X465043Y162635D01*
X464326Y161815D01*
X451584Y149072D01*
X451460Y148958D01*
X450737Y148369D01*
X450478Y148184D01*
X450266Y148051D01*
X450168Y148000D01*
X449807D01*
X447601Y147086D01*
X445914Y145399D01*
X445000Y143194D01*
Y140807D01*
X445914Y138601D01*
X447601Y136913D01*
X449807Y136000D01*
X452193D01*
X454399Y136913D01*
X456087Y138601D01*
X457000Y140807D01*
Y141168D01*
X457051Y141266D01*
X457184Y141478D01*
X457350Y141710D01*
X458376Y142887D01*
X461087Y145598D01*
X461568Y145632D01*
X464450Y144719D01*
X464913Y143601D01*
X466601Y141913D01*
X468806Y141000D01*
X471194D01*
X473399Y141913D01*
X475087Y143601D01*
X476000Y145807D01*
Y146168D01*
X476051Y146266D01*
X476184Y146478D01*
X476350Y146710D01*
X477376Y147887D01*
X485416Y155928D01*
X485540Y156042D01*
X486263Y156631D01*
X486522Y156816D01*
X486735Y156949D01*
X486832Y157000D01*
X487193D01*
X489399Y157914D01*
X491087Y159601D01*
X492000Y161807D01*
Y164193D01*
X491087Y166399D01*
X489399Y168087D01*
X487193Y169000D01*
D02*
G37*
G36*
X142789Y200500D02*
X130000D01*
X117211D01*
X117886Y197982D01*
X119597Y195018D01*
X122018Y192597D01*
X124078Y191408D01*
X124287Y188622D01*
X124114Y188058D01*
X122632Y187202D01*
X120398Y184968D01*
X118818Y182232D01*
X118000Y179180D01*
Y176020D01*
X118818Y172968D01*
X120398Y170232D01*
X122632Y167998D01*
X124114Y167142D01*
X124287Y166578D01*
X124078Y163792D01*
X122018Y162603D01*
X119597Y160182D01*
X117886Y157218D01*
X117211Y154700D01*
X130000D01*
X142789D01*
X142114Y157218D01*
X140403Y160182D01*
X137982Y162603D01*
X135922Y163792D01*
X135713Y166578D01*
X135886Y167142D01*
X137368Y167998D01*
X139602Y170232D01*
X141182Y172968D01*
X142000Y176020D01*
Y179180D01*
X141182Y182232D01*
X139602Y184968D01*
X137368Y187202D01*
X135886Y188058D01*
X135713Y188622D01*
X135922Y191408D01*
X137982Y192597D01*
X140403Y195018D01*
X142114Y197982D01*
X142789Y200500D01*
D02*
G37*
G36*
X534193Y196000D02*
X531806D01*
X529601Y195087D01*
X527913Y193399D01*
X527581Y192597D01*
X526917Y191188D01*
X524193Y191000D01*
X521806D01*
X519601Y190087D01*
X517913Y188399D01*
X517000Y186194D01*
Y183806D01*
X517537Y182511D01*
X517570Y182362D01*
X517699Y182069D01*
X517765Y181861D01*
X517812Y181626D01*
X517839Y181357D01*
X517841Y181050D01*
X517815Y180704D01*
X517790Y180542D01*
X517148Y178424D01*
X515560Y175453D01*
X513517Y172964D01*
X513392Y172880D01*
X501584Y161072D01*
X501460Y160958D01*
X500737Y160369D01*
X500478Y160184D01*
X500266Y160051D01*
X500168Y160000D01*
X499807D01*
X497601Y159087D01*
X495913Y157399D01*
X495000Y155194D01*
Y152807D01*
X495913Y150601D01*
X497601Y148913D01*
X499807Y148000D01*
X502193D01*
X504399Y148913D01*
X506087Y150601D01*
X507000Y152807D01*
Y153168D01*
X507051Y153266D01*
X507184Y153478D01*
X507350Y153710D01*
X508376Y154887D01*
X519880Y166392D01*
X519908Y166364D01*
X523185Y170358D01*
X524072Y172018D01*
X527983Y172970D01*
X528412Y172675D01*
Y138414D01*
X528405Y138245D01*
X528311Y137317D01*
X528258Y137004D01*
X528202Y136760D01*
X528169Y136654D01*
X527914Y136399D01*
X527000Y134193D01*
Y131806D01*
X527914Y129601D01*
X529601Y127913D01*
X531807Y127000D01*
X534193D01*
X536399Y127913D01*
X538087Y129601D01*
X539000Y131806D01*
Y134193D01*
X538087Y136399D01*
X537831Y136654D01*
X537798Y136760D01*
X537742Y137004D01*
X537695Y137285D01*
X537588Y138843D01*
Y184586D01*
X537595Y184755D01*
X537690Y185683D01*
X537742Y185996D01*
X537798Y186240D01*
X537831Y186346D01*
X538087Y186601D01*
X539000Y188806D01*
Y191194D01*
X538087Y193399D01*
X536399Y195087D01*
X534193Y196000D01*
D02*
G37*
G36*
X142789Y149700D02*
X130000D01*
X117211D01*
X117886Y147182D01*
X119597Y144218D01*
X122018Y141797D01*
X124078Y140608D01*
X124287Y137822D01*
X124114Y137258D01*
X122632Y136402D01*
X120398Y134168D01*
X118818Y131432D01*
X118000Y128380D01*
Y125220D01*
X118818Y122168D01*
X120398Y119432D01*
X122632Y117198D01*
X124114Y116342D01*
X124287Y115778D01*
X124078Y112992D01*
X122018Y111803D01*
X119597Y109382D01*
X117886Y106418D01*
X117211Y103900D01*
X130000D01*
X142789D01*
X142114Y106418D01*
X140403Y109382D01*
X137982Y111803D01*
X135922Y112992D01*
X135713Y115778D01*
X135886Y116342D01*
X137368Y117198D01*
X139602Y119432D01*
X141182Y122168D01*
X142000Y125220D01*
Y128380D01*
X141182Y131432D01*
X139602Y134168D01*
X137368Y136402D01*
X135886Y137258D01*
X135713Y137822D01*
X135922Y140608D01*
X137982Y141797D01*
X140403Y144218D01*
X142114Y147182D01*
X142789Y149700D01*
D02*
G37*
G36*
X441053Y107400D02*
X438947D01*
X436912Y106855D01*
X435088Y105802D01*
X433598Y104312D01*
X432545Y102488D01*
X432000Y100453D01*
Y98347D01*
X432545Y96312D01*
X433598Y94488D01*
X435088Y92998D01*
X436912Y91945D01*
X438947Y91400D01*
X441053D01*
X443088Y91945D01*
X444912Y92998D01*
X446402Y94488D01*
X447455Y96312D01*
X448000Y98347D01*
Y100453D01*
X447455Y102488D01*
X446402Y104312D01*
X444912Y105802D01*
X443088Y106855D01*
X441053Y107400D01*
D02*
G37*
G36*
X142789Y98900D02*
X132500D01*
Y88611D01*
X135018Y89286D01*
X137982Y90997D01*
X140403Y93418D01*
X142114Y96382D01*
X142789Y98900D01*
D02*
G37*
G36*
X127500D02*
X117211D01*
X117886Y96382D01*
X119597Y93418D01*
X122018Y90997D01*
X124982Y89286D01*
X127500Y88611D01*
Y98900D01*
D02*
G37*
G36*
X441053Y58600D02*
X438947D01*
X436912Y58055D01*
X435088Y57002D01*
X433598Y55512D01*
X432545Y53688D01*
X432000Y51653D01*
Y49547D01*
X432545Y47512D01*
X433598Y45688D01*
X435088Y44198D01*
X436912Y43145D01*
X438947Y42600D01*
X441053D01*
X443088Y43145D01*
X444912Y44198D01*
X446402Y45688D01*
X447455Y47512D01*
X448000Y49547D01*
Y51653D01*
X447455Y53688D01*
X446402Y55512D01*
X444912Y57002D01*
X443088Y58055D01*
X441053Y58600D01*
D02*
G37*
%LPD*%
G36*
X612031Y300000D02*
X611981Y300475D01*
X611830Y300900D01*
X611578Y301275D01*
X611226Y301600D01*
X610773Y301875D01*
X610220Y302100D01*
X609566Y302275D01*
X608811Y302400D01*
X608029Y302469D01*
X606045Y302333D01*
X605607Y302259D01*
X605227Y302172D01*
X604906Y302071D01*
X604643Y301958D01*
X604440Y301830D01*
Y308170D01*
X604643Y308042D01*
X604906Y307929D01*
X605227Y307828D01*
X605607Y307741D01*
X606045Y307667D01*
X607100Y307560D01*
X607952Y307525D01*
X607956Y307525D01*
X608811Y307600D01*
X609566Y307725D01*
X610220Y307900D01*
X610773Y308125D01*
X611226Y308400D01*
X611578Y308725D01*
X611830Y309100D01*
X611981Y309525D01*
X612031Y310000D01*
Y300000D01*
D02*
G37*
G36*
X655516Y295340D02*
X655092Y295178D01*
X654719Y294909D01*
X654396Y294531D01*
X654122Y294046D01*
X653898Y293452D01*
X653724Y292751D01*
X653604Y291971D01*
X653667Y291045D01*
X653741Y290607D01*
X653828Y290227D01*
X653929Y289906D01*
X654042Y289643D01*
X654170Y289440D01*
X647830Y289440D01*
X647958Y289643D01*
X648071Y289906D01*
X648172Y290227D01*
X648259Y290607D01*
X648333Y291046D01*
X648411Y291815D01*
X648400Y291942D01*
X648276Y292751D01*
X648102Y293452D01*
X647878Y294046D01*
X647604Y294531D01*
X647281Y294909D01*
X646908Y295178D01*
X646485Y295340D01*
X646012Y295394D01*
X655988D01*
X655516Y295340D01*
D02*
G37*
G36*
X232025Y289521D02*
X231661Y289701D01*
X231268Y289841D01*
X230846Y289943D01*
X230395Y290006D01*
X229915Y290031D01*
X229405Y290017D01*
X228867Y289964D01*
X228300Y289873D01*
X227703Y289743D01*
X227078Y289575D01*
X226835Y294687D01*
X231145Y295802D01*
X232025Y289521D01*
D02*
G37*
G36*
X222286Y287554D02*
X221728Y287224D01*
X220757Y286545D01*
X220343Y286197D01*
X219978Y285842D01*
X219660Y285482D01*
X219390Y285116D01*
X219168Y284743D01*
X218994Y284365D01*
X218868Y283981D01*
X214992Y289000D01*
X215049Y289023D01*
X215178Y289092D01*
X218101Y290867D01*
X218807Y291304D01*
X222286Y287554D01*
D02*
G37*
G36*
X278042Y283357D02*
X277929Y283094D01*
X277828Y282773D01*
X277741Y282393D01*
X277668Y281954D01*
X277560Y280900D01*
X277507Y279611D01*
X277500Y278878D01*
X272500D01*
X272493Y279611D01*
X272333Y281954D01*
X272259Y282393D01*
X272172Y282773D01*
X272071Y283094D01*
X271958Y283357D01*
X271830Y283560D01*
X278170D01*
X278042Y283357D01*
D02*
G37*
G36*
X277507Y273889D02*
X277668Y271546D01*
X277741Y271107D01*
X277828Y270727D01*
X277929Y270406D01*
X278042Y270143D01*
X278170Y269940D01*
X271830D01*
X271958Y270143D01*
X272071Y270406D01*
X272172Y270727D01*
X272259Y271107D01*
X272333Y271546D01*
X272440Y272600D01*
X272493Y273889D01*
X272500Y274622D01*
X277500D01*
X277507Y273889D01*
D02*
G37*
G36*
X185042Y278357D02*
X184928Y278094D01*
X184828Y277773D01*
X184741Y277393D01*
X184667Y276954D01*
X184560Y275900D01*
X184507Y274611D01*
X184500Y273878D01*
X179500D01*
X179493Y274611D01*
X179333Y276954D01*
X179259Y277393D01*
X179172Y277773D01*
X179071Y278094D01*
X178958Y278357D01*
X178830Y278560D01*
X185170D01*
X185042Y278357D01*
D02*
G37*
G36*
X184507Y247389D02*
X184667Y245046D01*
X184741Y244607D01*
X184828Y244227D01*
X184928Y243906D01*
X185042Y243643D01*
X185170Y243440D01*
X178830D01*
X178958Y243643D01*
X179071Y243906D01*
X179172Y244227D01*
X179259Y244607D01*
X179333Y245046D01*
X179440Y246100D01*
X179493Y247389D01*
X179500Y248123D01*
X184500D01*
X184507Y247389D01*
D02*
G37*
G36*
X265021Y257282D02*
X265126Y257016D01*
X265282Y256718D01*
X265489Y256388D01*
X265747Y256026D01*
X266416Y255204D01*
X267290Y254254D01*
X267804Y253731D01*
X264269Y250196D01*
X263745Y250709D01*
X261975Y252253D01*
X261612Y252512D01*
X261282Y252719D01*
X260984Y252875D01*
X260718Y252980D01*
X260484Y253033D01*
X264967Y257516D01*
X265021Y257282D01*
D02*
G37*
G36*
X276388Y241209D02*
X270282Y239476D01*
X270450Y239964D01*
X270564Y240455D01*
X270627Y240949D01*
X270637Y241445D01*
X270594Y241944D01*
X270499Y242446D01*
X270352Y242951D01*
X270153Y243458D01*
X269901Y243968D01*
X269597Y244481D01*
X274919Y245156D01*
X276388Y241209D01*
D02*
G37*
G36*
X428042Y263357D02*
X427929Y263094D01*
X427828Y262773D01*
X427741Y262393D01*
X427667Y261954D01*
X427560Y260900D01*
X427507Y259611D01*
X427500Y258878D01*
X422500Y258877D01*
X422493Y259611D01*
X422333Y261954D01*
X422259Y262393D01*
X422172Y262773D01*
X422071Y263094D01*
X421958Y263357D01*
X421830Y263560D01*
X428170Y263560D01*
X428042Y263357D01*
D02*
G37*
G36*
X427507Y242390D02*
X427667Y240046D01*
X427741Y239607D01*
X427828Y239227D01*
X427929Y238906D01*
X428042Y238643D01*
X428170Y238440D01*
X421830Y238440D01*
X421958Y238643D01*
X422071Y238906D01*
X422172Y239227D01*
X422259Y239607D01*
X422333Y240046D01*
X422440Y241100D01*
X422493Y242389D01*
X422500Y243123D01*
X427500Y243123D01*
X427507Y242390D01*
D02*
G37*
G36*
X101516Y200340D02*
X101093Y200178D01*
X100719Y199909D01*
X100396Y199531D01*
X100122Y199046D01*
X99898Y198452D01*
X99724Y197751D01*
X99600Y196942D01*
X99529Y196070D01*
X99667Y194046D01*
X99741Y193607D01*
X99828Y193227D01*
X99929Y192906D01*
X100042Y192643D01*
X100170Y192440D01*
X93830D01*
X93958Y192643D01*
X94072Y192906D01*
X94172Y193227D01*
X94259Y193607D01*
X94333Y194046D01*
X94440Y195100D01*
X94476Y195979D01*
X94475Y196025D01*
X94401Y196942D01*
X94276Y197751D01*
X94102Y198452D01*
X93878Y199046D01*
X93604Y199531D01*
X93281Y199909D01*
X92907Y200178D01*
X92485Y200340D01*
X92012Y200394D01*
X101988D01*
X101516Y200340D01*
D02*
G37*
G36*
X486516Y159033D02*
X486282Y158980D01*
X486016Y158875D01*
X485718Y158719D01*
X485388Y158511D01*
X485025Y158253D01*
X484204Y157584D01*
X483255Y156709D01*
X482731Y156196D01*
X479196Y159731D01*
X479710Y160254D01*
X481253Y162026D01*
X481511Y162388D01*
X481718Y162718D01*
X481875Y163016D01*
X481979Y163282D01*
X482033Y163516D01*
X486516Y159033D01*
D02*
G37*
G36*
X472306Y159050D02*
X472116Y158996D01*
X471888Y158891D01*
X471622Y158734D01*
X471319Y158524D01*
X470600Y157949D01*
X469730Y157166D01*
X468709Y156174D01*
X464914Y159449D01*
X465419Y159966D01*
X466632Y161355D01*
X466935Y161763D01*
X467188Y162145D01*
X467391Y162500D01*
X467543Y162828D01*
X467645Y163129D01*
X467697Y163403D01*
X472306Y159050D01*
D02*
G37*
G36*
X476804Y150269D02*
X476291Y149746D01*
X474747Y147975D01*
X474489Y147612D01*
X474281Y147282D01*
X474125Y146984D01*
X474021Y146718D01*
X473967Y146484D01*
X469484Y150967D01*
X469718Y151020D01*
X469984Y151125D01*
X470282Y151281D01*
X470612Y151489D01*
X470975Y151747D01*
X471796Y152416D01*
X472746Y153291D01*
X473269Y153804D01*
X476804Y150269D01*
D02*
G37*
G36*
X457804Y145269D02*
X457290Y144746D01*
X455747Y142975D01*
X455489Y142612D01*
X455281Y142282D01*
X455125Y141984D01*
X455020Y141718D01*
X454967Y141484D01*
X450484Y145967D01*
X450718Y146020D01*
X450984Y146125D01*
X451282Y146281D01*
X451612Y146489D01*
X451974Y146747D01*
X452796Y147416D01*
X453745Y148291D01*
X454269Y148804D01*
X457804Y145269D01*
D02*
G37*
G36*
X536042Y187357D02*
X535929Y187094D01*
X535828Y186773D01*
X535741Y186393D01*
X535667Y185954D01*
X535560Y184900D01*
X535507Y183611D01*
X535500Y182878D01*
X530500Y182878D01*
X530493Y183611D01*
X530333Y185954D01*
X530259Y186393D01*
X530172Y186773D01*
X530071Y187094D01*
X529958Y187357D01*
X529830Y187560D01*
X536170Y187560D01*
X536042Y187357D01*
D02*
G37*
G36*
X525671Y182022D02*
X524409Y177810D01*
X519261Y178209D01*
X519470Y178809D01*
X519637Y179386D01*
X519761Y179940D01*
X519842Y180472D01*
X519881Y180980D01*
X519877Y181467D01*
X519831Y181930D01*
X519742Y182371D01*
X519610Y182789D01*
X519436Y183184D01*
X525671Y182022D01*
D02*
G37*
G36*
X507804Y157269D02*
X507290Y156746D01*
X505747Y154974D01*
X505489Y154612D01*
X505281Y154282D01*
X505125Y153984D01*
X505020Y153718D01*
X504967Y153484D01*
X500484Y157967D01*
X500718Y158020D01*
X500984Y158125D01*
X501282Y158281D01*
X501612Y158489D01*
X501974Y158747D01*
X502796Y159416D01*
X503745Y160291D01*
X504269Y160804D01*
X507804Y157269D01*
D02*
G37*
G36*
X535507Y139389D02*
X535667Y137046D01*
X535741Y136607D01*
X535828Y136227D01*
X535929Y135906D01*
X536042Y135643D01*
X536170Y135440D01*
X529830Y135440D01*
X529958Y135643D01*
X530071Y135906D01*
X530172Y136227D01*
X530259Y136607D01*
X530333Y137045D01*
X530440Y138100D01*
X530493Y139389D01*
X530500Y140122D01*
X535500Y140122D01*
X535507Y139389D01*
D02*
G37*
%LPC*%
G36*
X856185Y179950D02*
X853815D01*
X851526Y179337D01*
X849474Y178152D01*
X847798Y176476D01*
X846613Y174424D01*
X846000Y172135D01*
Y169765D01*
X846613Y167476D01*
X847798Y165424D01*
X849474Y163748D01*
X851526Y162563D01*
X853815Y161950D01*
X856185D01*
X858474Y162563D01*
X860526Y163748D01*
X862202Y165424D01*
X863387Y167476D01*
X864000Y169765D01*
Y172135D01*
X863387Y174424D01*
X862202Y176476D01*
X860526Y178152D01*
X858474Y179337D01*
X856185Y179950D01*
D02*
G37*
G36*
X685193Y172000D02*
X682807D01*
X680601Y171087D01*
X678913Y169399D01*
X678000Y167194D01*
Y165756D01*
X677508Y164649D01*
X676801Y163325D01*
X676543Y162475D01*
X676494Y162364D01*
X676457Y162202D01*
X676385Y162053D01*
X676377Y161929D01*
X675763Y159902D01*
X675413Y156346D01*
X675412Y156343D01*
Y147914D01*
X675405Y147745D01*
X675311Y146817D01*
X675258Y146504D01*
X675202Y146260D01*
X675169Y146154D01*
X674913Y145899D01*
X674000Y143694D01*
Y141306D01*
X674913Y139101D01*
X675169Y138846D01*
X675202Y138740D01*
X675258Y138496D01*
X675305Y138215D01*
X675412Y136657D01*
Y127914D01*
X675405Y127745D01*
X675311Y126818D01*
X675258Y126504D01*
X675202Y126260D01*
X675169Y126154D01*
X674913Y125899D01*
X674000Y123694D01*
Y121306D01*
X674913Y119101D01*
X676601Y117414D01*
X678807Y116500D01*
X681193D01*
X683399Y117414D01*
X685087Y119101D01*
X686000Y121306D01*
Y123694D01*
X685087Y125899D01*
X684831Y126154D01*
X684798Y126260D01*
X684742Y126504D01*
X684695Y126785D01*
X684588Y128343D01*
Y137086D01*
X684595Y137255D01*
X684689Y138183D01*
X684742Y138496D01*
X684798Y138740D01*
X684831Y138846D01*
X685087Y139101D01*
X686000Y141306D01*
Y143694D01*
X685087Y145899D01*
X684831Y146154D01*
X684798Y146260D01*
X684742Y146504D01*
X684695Y146785D01*
X684588Y148343D01*
Y156343D01*
X684565Y156461D01*
X684846Y158595D01*
X684880Y158708D01*
X685011Y159036D01*
X685159Y159323D01*
X685322Y159574D01*
X685503Y159796D01*
X685704Y159995D01*
X685931Y160177D01*
X686191Y160343D01*
X686574Y160538D01*
X686663Y160609D01*
X687399Y160913D01*
X689087Y162601D01*
X690000Y164806D01*
Y167194D01*
X689087Y169399D01*
X687399Y171087D01*
X685193Y172000D01*
D02*
G37*
G36*
X787194Y159000D02*
X784807D01*
X782601Y158087D01*
X780913Y156399D01*
X780000Y154193D01*
Y151806D01*
X780913Y149601D01*
X781238Y149277D01*
X781313Y149167D01*
X781418Y148975D01*
X781525Y148731D01*
X781627Y148432D01*
X781721Y148080D01*
X781803Y147673D01*
X781867Y147236D01*
X781922Y146505D01*
Y110495D01*
X781867Y109764D01*
X781803Y109327D01*
X781721Y108920D01*
X781627Y108568D01*
X781525Y108269D01*
X781418Y108025D01*
X781313Y107833D01*
X781238Y107723D01*
X780913Y107399D01*
X780000Y105194D01*
Y102807D01*
X780913Y100601D01*
X782601Y98913D01*
X784807Y98000D01*
X787194D01*
X789399Y98913D01*
X791087Y100601D01*
X792000Y102807D01*
Y105194D01*
X791087Y107399D01*
X790762Y107723D01*
X790687Y107833D01*
X790582Y108025D01*
X790475Y108269D01*
X790373Y108568D01*
X790279Y108920D01*
X790197Y109327D01*
X790133Y109764D01*
X790078Y110495D01*
Y146505D01*
X790133Y147236D01*
X790197Y147673D01*
X790279Y148080D01*
X790373Y148432D01*
X790475Y148731D01*
X790582Y148975D01*
X790687Y149167D01*
X790762Y149277D01*
X791087Y149601D01*
X792000Y151806D01*
Y154193D01*
X791087Y156399D01*
X789399Y158087D01*
X787194Y159000D01*
D02*
G37*
%LPD*%
G36*
X685647Y162355D02*
X685175Y162114D01*
X684741Y161836D01*
X684346Y161520D01*
X683990Y161167D01*
X683673Y160777D01*
X683394Y160350D01*
X683154Y159885D01*
X682953Y159382D01*
X682791Y158843D01*
X682667Y158266D01*
X678357Y161536D01*
X680053Y165353D01*
X685647Y162355D01*
D02*
G37*
G36*
X682507Y148889D02*
X682667Y146546D01*
X682741Y146107D01*
X682828Y145727D01*
X682929Y145406D01*
X683042Y145143D01*
X683170Y144940D01*
X676830D01*
X676958Y145143D01*
X677072Y145406D01*
X677172Y145727D01*
X677259Y146107D01*
X677333Y146546D01*
X677440Y147600D01*
X677493Y148889D01*
X677500Y149622D01*
X682500D01*
X682507Y148889D01*
D02*
G37*
G36*
X683042Y139857D02*
X682929Y139594D01*
X682828Y139273D01*
X682741Y138893D01*
X682667Y138454D01*
X682560Y137400D01*
X682507Y136111D01*
X682500Y135378D01*
X677500D01*
X677493Y136111D01*
X677333Y138454D01*
X677259Y138893D01*
X677172Y139273D01*
X677072Y139594D01*
X676958Y139857D01*
X676830Y140060D01*
X683170D01*
X683042Y139857D01*
D02*
G37*
G36*
X682507Y128889D02*
X682667Y126546D01*
X682741Y126107D01*
X682828Y125727D01*
X682929Y125406D01*
X683042Y125143D01*
X683170Y124940D01*
X676830D01*
X676958Y125143D01*
X677072Y125406D01*
X677172Y125727D01*
X677259Y126107D01*
X677333Y126546D01*
X677440Y127600D01*
X677493Y128889D01*
X677500Y129622D01*
X682500D01*
X682507Y128889D01*
D02*
G37*
G36*
X788947Y150236D02*
X788749Y149873D01*
X788573Y149470D01*
X788421Y149027D01*
X788292Y148544D01*
X788187Y148022D01*
X788105Y147460D01*
X788012Y146217D01*
X788000Y145536D01*
X784000D01*
X783988Y146217D01*
X783895Y147460D01*
X783813Y148022D01*
X783708Y148544D01*
X783579Y149027D01*
X783427Y149470D01*
X783251Y149873D01*
X783053Y150236D01*
X782830Y150560D01*
X789170D01*
X788947Y150236D01*
D02*
G37*
G36*
X788012Y110783D02*
X788105Y109540D01*
X788187Y108978D01*
X788292Y108456D01*
X788421Y107973D01*
X788573Y107530D01*
X788749Y107127D01*
X788947Y106764D01*
X789170Y106440D01*
X782830D01*
X783053Y106764D01*
X783251Y107127D01*
X783427Y107530D01*
X783579Y107973D01*
X783708Y108456D01*
X783813Y108978D01*
X783895Y109540D01*
X783988Y110783D01*
X784000Y111464D01*
X788000D01*
X788012Y110783D01*
D02*
G37*
D10*
X787569Y196350D02*
G03*
X786000Y197000I-2280J-3286D01*
G01*
Y197000D02*
X786000Y197000D01*
X787569Y196350D02*
X855000Y196350D01*
X786000Y197000D02*
X786000Y197000D01*
Y104000D02*
Y153000D01*
D22*
X829600Y234450D02*
D03*
X855000Y221750D02*
D03*
X829600Y209050D02*
D03*
X855000Y196350D02*
D03*
X829600Y183650D02*
D03*
X855000Y170950D02*
D03*
X829600Y158250D02*
D03*
X855000Y145550D02*
D03*
D28*
X233521Y293000D02*
G03*
X215560Y285560I0J-25400D01*
G01*
X684000Y166000D02*
G03*
X680000Y156343I9657J-9657D01*
G01*
X757079Y31000D02*
G03*
X775040Y38440I0J25400D01*
G01*
X830379Y22500D02*
G03*
X848339Y29939I0J25400D01*
G01*
X659536Y341465D02*
G03*
X651000Y345000I-8536J-8536D01*
G01*
X602000Y351000D02*
G03*
X616485Y345000I14485J14485D01*
G01*
X461000Y329414D02*
G03*
X462000Y327000I3414J0D01*
G01*
X516636Y169636D02*
G03*
X523000Y185000I-15364J15364D01*
G01*
X269762Y248238D02*
G03*
X269757Y248243I-10248J-10238D01*
G01*
X273868Y239949D02*
G03*
X269762Y248238I-14354J-1949D01*
G01*
X274000Y238000D02*
G03*
X273868Y239949I-14485J0D01*
G01*
X578000Y53000D02*
G03*
X600000Y31000I22000J-0D01*
G01*
X568000Y48993D02*
G03*
X575439Y31032I25400J0D01*
G01*
X579197Y27274D02*
G03*
X594021Y22500I14824J20626D01*
G01*
X233521Y293000D02*
X234000D01*
X215000Y285000D02*
X215560Y285560D01*
X680000Y142500D02*
Y156343D01*
X775040Y38440D02*
X967500Y230900D01*
X600000Y31000D02*
X757079D01*
X848339Y29939D02*
X967500Y149100D01*
X594021Y22500D02*
X830379D01*
X651000Y287000D02*
X651000Y287000D01*
Y305000D01*
X659536Y341465D02*
X666000Y335000D01*
X602000Y305000D02*
X619000D01*
X616485Y345000D02*
X619000D01*
X461000Y329414D02*
Y345000D01*
X97000Y190000D02*
Y210000D01*
X470000Y147000D02*
X486000Y163000D01*
X470858Y162182D02*
X471676Y163000D01*
X451000Y142000D02*
X470858Y161858D01*
Y162182D01*
X501000Y154000D02*
X516636Y169636D01*
X425000Y236000D02*
X425000Y236000D01*
X425000Y266000D02*
X425000Y266000D01*
Y236000D02*
Y266000D01*
X261000Y257000D02*
X269757Y248243D01*
X182000Y241000D02*
Y281000D01*
X533000Y133000D02*
Y190000D01*
X533000Y190000D02*
X533000Y190000D01*
Y133000D02*
X533000Y133000D01*
X275000Y267500D02*
Y286000D01*
X695000Y206000D02*
Y252135D01*
X694145Y252990D02*
X695000Y252135D01*
X692681Y257564D02*
X694145Y256099D01*
Y252990D02*
Y256099D01*
X680000Y122500D02*
Y142500D01*
X568000Y48993D02*
Y105000D01*
X578000Y53000D02*
Y111000D01*
X575439Y31032D02*
X579197Y27274D01*
D29*
X873121Y267450D02*
G03*
X855161Y260011I0J-25400D01*
G01*
X949612Y329062D02*
G03*
X950000Y330000I-940J938D01*
G01*
X949611Y329061D02*
G03*
X949612Y329062I-939J939D01*
G01*
X873121Y267450D02*
X888000D01*
X949611Y329061D02*
X949612Y329062D01*
X888000Y267450D02*
X949611Y329061D01*
X829600Y234450D02*
X855161Y260011D01*
D30*
X855000Y145550D02*
G03*
X850711Y147327I-4289J-4289D01*
G01*
X848269D02*
G03*
X839811Y143823I0J-11961D01*
G01*
X834166Y141467D02*
G03*
X839779Y143792I0J7938D01*
G01*
X817965Y146551D02*
G03*
X828402Y141565I12287J12305D01*
G01*
X828619Y141542D02*
G03*
X830236Y141467I1617J17276D01*
G01*
X793000Y186000D02*
G03*
X793957Y183690I3266J0D01*
G01*
X795589Y180228D02*
G03*
X794294Y183353I-4419J0D01*
G01*
X795589Y175492D02*
G03*
X800231Y164284I15851J0D01*
G01*
X837141Y149467D02*
G03*
X836262Y151588I-3000J0D01*
G01*
X834141Y146467D02*
G03*
X836262Y147345I0J3000D01*
G01*
X821491Y150095D02*
G03*
X830252Y146467I8760J8760D01*
G01*
X802043Y183810D02*
G03*
X803000Y186119I-2310J2310D01*
G01*
X801089Y182617D02*
G03*
X800589Y180650I3616J-1966D01*
G01*
X801793Y183559D02*
G03*
X801089Y182617I2912J-2909D01*
G01*
X801794Y183561D02*
G03*
X801793Y183559I2911J-2911D01*
G01*
X800589Y176677D02*
G03*
X804604Y166982I13710J0D01*
G01*
X836262Y147345D02*
G03*
X837141Y149467I-2121J2121D01*
G01*
X848269Y147327D02*
X850711D01*
X839779Y143792D02*
X839811Y143823D01*
X828402Y141565D02*
X828619Y141542D01*
X830236Y141467D02*
X834166D01*
X793957Y183690D02*
X794294Y183353D01*
X795589Y175492D02*
Y180228D01*
X800231Y164284D02*
X817965Y146551D01*
X829600Y158250D02*
X836262Y151588D01*
X804604Y166982D02*
X821491Y150095D01*
X830252Y146467D02*
X834141D01*
X801794Y183561D02*
X802043Y183810D01*
X801793Y183559D02*
X801794Y183561D01*
X800589Y176677D02*
Y180650D01*
D31*
X651000Y345000D02*
D03*
X619000D02*
D03*
X651000Y305000D02*
D03*
X619000D02*
D03*
X461000Y345000D02*
D03*
X429000D02*
D03*
X97000Y210000D02*
D03*
X65000D02*
D03*
D32*
X592500Y90000D02*
X607500D01*
X627500D01*
D33*
X580000Y330000D02*
D03*
X130000D02*
D03*
D34*
X580000Y304600D02*
D03*
X130000D02*
D03*
Y253800D02*
D03*
Y228400D02*
D03*
Y279200D02*
D03*
Y177600D02*
D03*
Y152200D02*
D03*
Y203000D02*
D03*
Y126800D02*
D03*
Y101400D02*
D03*
X255400Y345000D02*
D03*
X306200D02*
D03*
X280800D02*
D03*
D35*
X967500Y230900D02*
D03*
Y256300D02*
D03*
Y149100D02*
D03*
Y123700D02*
D03*
D36*
X918500Y247150D02*
D03*
Y132850D02*
D03*
D37*
X888000Y267450D02*
D03*
Y112550D02*
D03*
D38*
X530000Y240600D02*
D03*
Y289400D02*
D03*
X440000Y50600D02*
D03*
Y99400D02*
D03*
D39*
X230000Y345000D02*
D03*
D40*
X573720Y198720D02*
D03*
X743000Y56000D02*
D03*
X692681Y257564D02*
D03*
X255000Y210000D02*
D03*
D41*
X50000Y50000D02*
D03*
Y330000D02*
D03*
D42*
X950000D02*
D03*
Y50000D02*
D03*
D43*
X165000Y175000D02*
D03*
D44*
X629715Y235589D02*
D03*
X530000Y316000D02*
D03*
Y216000D02*
D03*
X440000Y24000D02*
D03*
X305000Y291000D02*
D03*
X360000Y313000D02*
D03*
X310000Y216000D02*
D03*
X744000Y160000D02*
D03*
X695000Y163000D02*
D03*
X809000Y144000D02*
D03*
X691000Y324000D02*
D03*
X666000Y351000D02*
D03*
X871000Y295000D02*
D03*
X852000Y282000D02*
D03*
X891000Y298000D02*
D03*
X896000Y319000D02*
D03*
X878000Y345000D02*
D03*
X792000Y351000D02*
D03*
X744000D02*
D03*
Y309000D02*
D03*
X792000D02*
D03*
X704000Y324000D02*
D03*
X951000Y119000D02*
D03*
X958000Y105000D02*
D03*
X936000Y104000D02*
D03*
X889000Y39000D02*
D03*
X860000Y25000D02*
D03*
X895000D02*
D03*
X932000Y152000D02*
D03*
X941000Y136000D02*
D03*
X909000Y225000D02*
D03*
X976000Y195000D02*
D03*
Y168000D02*
D03*
X952000Y155000D02*
D03*
X963000Y212000D02*
D03*
X941000Y191000D02*
D03*
X892000Y241000D02*
D03*
X932000Y227000D02*
D03*
X949000Y226000D02*
D03*
X957000Y244000D02*
D03*
X942000Y250000D02*
D03*
X928000Y205000D02*
D03*
X898000Y208000D02*
D03*
X914000Y191000D02*
D03*
X899000Y176000D02*
D03*
X910000Y160000D02*
D03*
X927000Y177000D02*
D03*
X894000Y139000D02*
D03*
X862000Y158000D02*
D03*
X844000D02*
D03*
X829000Y32000D02*
D03*
X854000Y104000D02*
D03*
X812000Y61000D02*
D03*
X867000Y64000D02*
D03*
X849000Y44000D02*
D03*
X832000Y67000D02*
D03*
X791000Y36000D02*
D03*
Y67000D02*
D03*
X770000Y49000D02*
D03*
X824000Y102000D02*
D03*
X832000Y133000D02*
D03*
X795000Y118000D02*
D03*
X850000Y127000D02*
D03*
X783000Y228000D02*
D03*
X807000Y241000D02*
D03*
Y209000D02*
D03*
X828000Y262000D02*
D03*
X796000Y286000D02*
D03*
X744000D02*
D03*
X705000Y280000D02*
D03*
X663000Y236000D02*
D03*
X681000Y226000D02*
D03*
X679000Y252000D02*
D03*
X744000Y246000D02*
D03*
Y229000D02*
D03*
Y182000D02*
D03*
X786000Y197000D02*
D03*
X793000Y186000D02*
D03*
X803000Y186119D02*
D03*
X786000Y104000D02*
D03*
Y153000D02*
D03*
X730000Y40000D02*
D03*
X333000Y121000D02*
D03*
X651000Y287000D02*
D03*
X666000Y335000D02*
D03*
X602000Y305000D02*
D03*
Y351000D02*
D03*
X476000Y340000D02*
D03*
X560000D02*
D03*
X387000Y339000D02*
D03*
X413000Y333000D02*
D03*
X462000Y299000D02*
D03*
Y327000D02*
D03*
X104000Y351000D02*
D03*
X82000Y281000D02*
D03*
X60000Y272000D02*
D03*
X92000Y91000D02*
D03*
X24000Y248000D02*
D03*
Y170000D02*
D03*
Y103000D02*
D03*
X65000Y192000D02*
D03*
X97000Y190000D02*
D03*
X550000Y244000D02*
D03*
X510000D02*
D03*
X550000Y286000D02*
D03*
X472000Y199000D02*
D03*
X463000Y244000D02*
D03*
X471000Y232000D02*
D03*
X469000Y269000D02*
D03*
X448000Y281000D02*
D03*
X610480Y218276D02*
D03*
X560000Y202000D02*
D03*
X537000Y201000D02*
D03*
X144000Y81000D02*
D03*
X413000Y308000D02*
D03*
X263000Y235000D02*
D03*
X197000Y166000D02*
D03*
X270000Y194000D02*
D03*
X460000Y55000D02*
D03*
X420000D02*
D03*
X460000Y96000D02*
D03*
X375000Y93000D02*
D03*
X454000Y121000D02*
D03*
X420000Y96000D02*
D03*
X412000Y121000D02*
D03*
X379000D02*
D03*
X367000Y63000D02*
D03*
X338000D02*
D03*
X108000Y44000D02*
D03*
X144000Y64000D02*
D03*
X247000Y61000D02*
D03*
X219000Y63000D02*
D03*
X206000Y48000D02*
D03*
X188000D02*
D03*
X135000Y25000D02*
D03*
X175000D02*
D03*
X215000D02*
D03*
X255000D02*
D03*
X295000D02*
D03*
X335000D02*
D03*
X375000D02*
D03*
X290000Y44000D02*
D03*
X269000Y62000D02*
D03*
X311000Y63000D02*
D03*
X415000Y24000D02*
D03*
X465000D02*
D03*
X516000D02*
D03*
X521000Y71000D02*
D03*
X758000Y67000D02*
D03*
X569000Y24000D02*
D03*
X550000Y265000D02*
D03*
X510000D02*
D03*
X460000Y75000D02*
D03*
X420000D02*
D03*
X239000Y257000D02*
D03*
X215000Y285000D02*
D03*
X234000Y293000D02*
D03*
X471676Y163000D02*
D03*
X451000Y142000D02*
D03*
X427000Y192000D02*
D03*
X523000Y185000D02*
D03*
X489000Y122000D02*
D03*
X425000Y266000D02*
D03*
X489000Y218000D02*
D03*
X182000Y241000D02*
D03*
Y281000D02*
D03*
X274000Y238000D02*
D03*
X533000Y190000D02*
D03*
X533500Y116000D02*
D03*
X486000Y163000D02*
D03*
X501000Y154000D02*
D03*
X470000Y147000D02*
D03*
X261000Y257000D02*
D03*
X510000Y286000D02*
D03*
X489000Y312000D02*
D03*
X401000Y290000D02*
D03*
X380000Y200000D02*
D03*
X379000Y281000D02*
D03*
X390000Y222000D02*
D03*
X399000Y351000D02*
D03*
X310000Y272000D02*
D03*
X330000Y326000D02*
D03*
X305000Y310000D02*
D03*
X275000Y286000D02*
D03*
X286000Y285000D02*
D03*
X275000Y267500D02*
D03*
X220000Y325000D02*
D03*
X254000Y166000D02*
D03*
X321000Y200000D02*
D03*
X425000Y236000D02*
D03*
X446000Y205000D02*
D03*
X437000Y269000D02*
D03*
X695000Y206000D02*
D03*
X705000Y54000D02*
D03*
X541000Y71000D02*
D03*
X673000Y40000D02*
D03*
X677500Y72500D02*
D03*
X555000Y53000D02*
D03*
X592500Y90000D02*
D03*
X649000Y52000D02*
D03*
X545000Y35000D02*
D03*
X627500Y90000D02*
D03*
X641000Y40000D02*
D03*
X601000D02*
D03*
X505000Y52500D02*
D03*
X607500Y90000D02*
D03*
X737000Y95000D02*
D03*
X684000Y166000D02*
D03*
X658000Y192000D02*
D03*
X680000Y142500D02*
D03*
Y122500D02*
D03*
X669600Y187521D02*
D03*
X723000Y95000D02*
D03*
X631000Y157000D02*
D03*
X610000D02*
D03*
X595000Y175000D02*
D03*
X578000Y111000D02*
D03*
X615000Y141000D02*
D03*
X617000Y125000D02*
D03*
X625000Y172000D02*
D03*
X640000Y209000D02*
D03*
X568000Y105000D02*
D03*
X595000Y142000D02*
D03*
X599000Y125000D02*
D03*
X645000Y138000D02*
D03*
Y165000D02*
D03*
Y125000D02*
D03*
X632000D02*
D03*
X533000Y133000D02*
D03*
X481000Y28000D02*
D03*
X783000Y268000D02*
D03*
X744000D02*
D03*
X604865Y251756D02*
D03*
M02*
