G04*
G04 #@! TF.GenerationSoftware,Altium Limited,Altium Designer,22.11.1 (43)*
G04*
G04 Layer_Physical_Order=1*
G04 Layer_Color=255*
%FSLAX44Y44*%
%MOMM*%
G71*
G04*
G04 #@! TF.SameCoordinates,4B648768-BFFC-43AD-A596-386A4E8CEC00*
G04*
G04*
G04 #@! TF.FilePolarity,Positive*
G04*
G01*
G75*
%ADD10C,0.4000*%
%ADD20C,1.4000*%
%ADD28C,0.5000*%
%ADD29C,0.3000*%
G04:AMPARAMS|DCode=30|XSize=1.8mm|YSize=1mm|CornerRadius=0.25mm|HoleSize=0mm|Usage=FLASHONLY|Rotation=90.000|XOffset=0mm|YOffset=0mm|HoleType=Round|Shape=RoundedRectangle|*
%AMROUNDEDRECTD30*
21,1,1.8000,0.5000,0,0,90.0*
21,1,1.3000,1.0000,0,0,90.0*
1,1,0.5000,0.2500,0.6500*
1,1,0.5000,0.2500,-0.6500*
1,1,0.5000,-0.2500,-0.6500*
1,1,0.5000,-0.2500,0.6500*
%
%ADD30ROUNDEDRECTD30*%
%ADD31C,0.8000*%
G04:AMPARAMS|DCode=32|XSize=1mm|YSize=1mm|CornerRadius=0mm|HoleSize=0mm|Usage=FLASHONLY|Rotation=90.000|XOffset=0mm|YOffset=0mm|HoleType=Round|Shape=Octagon|*
%AMOCTAGOND32*
4,1,8,0.2500,0.5000,-0.2500,0.5000,-0.5000,0.2500,-0.5000,-0.2500,-0.2500,-0.5000,0.2500,-0.5000,0.5000,-0.2500,0.5000,0.2500,0.2500,0.5000,0.0*
%
%ADD32OCTAGOND32*%

G04:AMPARAMS|DCode=33|XSize=1mm|YSize=1mm|CornerRadius=0mm|HoleSize=0mm|Usage=FLASHONLY|Rotation=0.000|XOffset=0mm|YOffset=0mm|HoleType=Round|Shape=Octagon|*
%AMOCTAGOND33*
4,1,8,0.5000,-0.2500,0.5000,0.2500,0.2500,0.5000,-0.2500,0.5000,-0.5000,0.2500,-0.5000,-0.2500,-0.2500,-0.5000,0.2500,-0.5000,0.5000,-0.2500,0.0*
%
%ADD33OCTAGOND33*%

%ADD34O,2.0000X1.6000*%
G04:AMPARAMS|DCode=35|XSize=1.6mm|YSize=2mm|CornerRadius=0.4mm|HoleSize=0mm|Usage=FLASHONLY|Rotation=90.000|XOffset=0mm|YOffset=0mm|HoleType=Round|Shape=RoundedRectangle|*
%AMROUNDEDRECTD35*
21,1,1.6000,1.2000,0,0,90.0*
21,1,0.8000,2.0000,0,0,90.0*
1,1,0.8000,0.6000,0.4000*
1,1,0.8000,0.6000,-0.4000*
1,1,0.8000,-0.6000,-0.4000*
1,1,0.8000,-0.6000,0.4000*
%
%ADD35ROUNDEDRECTD35*%
%ADD36C,1.2000*%
%ADD37C,2.6000*%
%ADD38C,3.3000*%
%ADD39C,1.8000*%
%ADD40C,2.0000*%
G04:AMPARAMS|DCode=41|XSize=2mm|YSize=2mm|CornerRadius=0.5mm|HoleSize=0mm|Usage=FLASHONLY|Rotation=0.000|XOffset=0mm|YOffset=0mm|HoleType=Round|Shape=RoundedRectangle|*
%AMROUNDEDRECTD41*
21,1,2.0000,1.0000,0,0,0.0*
21,1,1.0000,2.0000,0,0,0.0*
1,1,1.0000,0.5000,-0.5000*
1,1,1.0000,-0.5000,-0.5000*
1,1,1.0000,-0.5000,0.5000*
1,1,1.0000,0.5000,0.5000*
%
%ADD41ROUNDEDRECTD41*%
%ADD42C,7.0000*%
%ADD43C,0.8000*%
G36*
X96777Y372631D02*
X96720Y372702D01*
X96657Y372770D01*
X96587Y372836D01*
X96510Y372898D01*
X96426Y372957D01*
X96336Y373013D01*
X96239Y373067D01*
X96026Y373165D01*
X95909Y373209D01*
X96761Y378275D01*
X96849Y378241D01*
X96950Y378222D01*
X97065Y378218D01*
X97193Y378228D01*
X97336Y378254D01*
X97492Y378293D01*
X97662Y378348D01*
X98043Y378501D01*
X98254Y378599D01*
X96777Y372631D01*
D02*
G37*
G36*
X91009Y384127D02*
X91105Y383905D01*
X91275Y383623D01*
X91520Y383282D01*
X92233Y382421D01*
X93862Y380681D01*
X94553Y379982D01*
X91404Y376061D01*
X91167Y376290D01*
X90762Y376633D01*
X90595Y376747D01*
X90451Y376823D01*
X90330Y376860D01*
X90232Y376858D01*
X90158Y376818D01*
X90107Y376739D01*
X90079Y376622D01*
X90987Y384289D01*
X91009Y384127D01*
D02*
G37*
G36*
X604523Y478236D02*
X603568Y476807D01*
X600466Y470518D01*
X598212Y463876D01*
X596844Y456998D01*
X596385Y450000D01*
X596844Y443002D01*
X598212Y436124D01*
X600466Y429482D01*
X603568Y423193D01*
X607464Y417361D01*
X612089Y412089D01*
X617361Y407464D01*
X623193Y403568D01*
X629482Y400466D01*
X636124Y398212D01*
X643002Y396844D01*
X650000Y396385D01*
X656998Y396844D01*
X663876Y398212D01*
X670518Y400466D01*
X676807Y403568D01*
X678236Y404523D01*
X680000Y403580D01*
Y350000D01*
X470113Y350000D01*
X469348Y351848D01*
X470000Y352500D01*
Y359500D01*
X466500Y363000D01*
X459500D01*
X456000Y359500D01*
Y352500D01*
X459250Y349250D01*
X350000Y240000D01*
Y170000D01*
X297000Y117000D01*
X296807D01*
X294601Y116087D01*
X292913Y114399D01*
X292000Y112193D01*
Y112000D01*
X290471Y110471D01*
X289193Y111000D01*
X286807D01*
X284601Y110086D01*
X282913Y108399D01*
X282000Y106194D01*
Y105000D01*
X245000D01*
Y20000D01*
X96420D01*
X95477Y21764D01*
X96432Y23193D01*
X99534Y29483D01*
X101788Y36123D01*
X103156Y43002D01*
X103615Y50000D01*
X103156Y56998D01*
X101788Y63877D01*
X99534Y70518D01*
X96432Y76807D01*
X92535Y82639D01*
X87911Y87911D01*
X82639Y92535D01*
X76807Y96432D01*
X70518Y99534D01*
X63877Y101788D01*
X56998Y103156D01*
X50000Y103615D01*
X43002Y103156D01*
X36123Y101788D01*
X29483Y99534D01*
X23193Y96432D01*
X21764Y95477D01*
X20000Y96420D01*
Y403580D01*
X21764Y404523D01*
X23193Y403568D01*
X29483Y400466D01*
X36123Y398212D01*
X43002Y396844D01*
X50000Y396385D01*
X56193Y396791D01*
X57122Y394848D01*
X56319Y393646D01*
X55892Y391500D01*
Y387500D01*
X64000D01*
Y385000D01*
X66500D01*
Y372892D01*
X68646Y373319D01*
X68877Y373474D01*
X70558Y374558D01*
X71220Y374116D01*
X72000Y373961D01*
X78000D01*
X78780Y374116D01*
X79442Y374558D01*
X81597Y374360D01*
X81744Y374261D01*
X83500Y373912D01*
X88500D01*
X90256Y374261D01*
X90276Y374274D01*
X92860Y372291D01*
X95064Y371378D01*
X95184Y371303D01*
X95229Y371286D01*
X96601Y369913D01*
X98806Y369000D01*
X101194D01*
X103399Y369913D01*
X105087Y371601D01*
X106000Y373806D01*
Y376194D01*
X105087Y378399D01*
X103399Y380087D01*
X101194Y381000D01*
X98806D01*
X97586Y380494D01*
X97393Y380447D01*
X97307Y380407D01*
X96501Y380946D01*
X96416Y381073D01*
X94422Y383067D01*
X93764Y383769D01*
X93136Y384528D01*
X93088Y384595D01*
Y391500D01*
X92739Y393256D01*
X91744Y394744D01*
X90256Y395739D01*
X88500Y396088D01*
X83500D01*
X81744Y395739D01*
X81597Y395640D01*
X79442Y395442D01*
X78780Y395884D01*
X78000Y396039D01*
X72000D01*
X71220Y395884D01*
X70558Y395442D01*
X68877Y396526D01*
X68646Y396681D01*
X68508Y396708D01*
X67040Y399013D01*
X67112Y399310D01*
X70518Y400466D01*
X76807Y403568D01*
X82639Y407464D01*
X87911Y412089D01*
X92535Y417361D01*
X96432Y423193D01*
X99534Y429482D01*
X101788Y436124D01*
X103156Y443002D01*
X103615Y450000D01*
X103156Y456998D01*
X101788Y463876D01*
X99534Y470518D01*
X96432Y476807D01*
X95477Y478236D01*
X96420Y480000D01*
X603580D01*
X604523Y478236D01*
D02*
G37*
G36*
X680000Y319877D02*
X678000Y319614D01*
X677750Y320546D01*
X676302Y323054D01*
X674254Y325102D01*
X671746Y326550D01*
X668948Y327300D01*
X666052D01*
X663254Y326550D01*
X660746Y325102D01*
X658698Y323054D01*
X657250Y320546D01*
X656500Y317748D01*
Y314852D01*
X657250Y312054D01*
X658698Y309546D01*
X660746Y307498D01*
X663254Y306050D01*
X666052Y305300D01*
X668948D01*
X671746Y306050D01*
X674254Y307498D01*
X676302Y309546D01*
X677750Y312054D01*
X678000Y312986D01*
X680000Y312723D01*
Y294477D01*
X678000Y294214D01*
X677750Y295146D01*
X676302Y297654D01*
X674254Y299702D01*
X671746Y301150D01*
X668948Y301900D01*
X666052D01*
X663254Y301150D01*
X660746Y299702D01*
X658698Y297654D01*
X657250Y295146D01*
X656500Y292348D01*
Y291987D01*
X656339Y290954D01*
X656065Y289653D01*
X655732Y288421D01*
X655342Y287259D01*
X654894Y286164D01*
X654390Y285134D01*
X653830Y284169D01*
X653214Y283265D01*
X652581Y282469D01*
X645603Y275492D01*
X644178Y274100D01*
X644179Y274100D01*
X641295Y270587D01*
X639153Y266579D01*
X637834Y262230D01*
X637388Y257707D01*
X637412D01*
X637412Y257707D01*
Y200762D01*
X635412Y200364D01*
X634894Y201613D01*
X632870Y204643D01*
X630293Y207220D01*
X627263Y209244D01*
X623896Y210639D01*
X620322Y211350D01*
X616678D01*
X613104Y210639D01*
X609737Y209244D01*
X606707Y207220D01*
X604130Y204643D01*
X602105Y201613D01*
X600711Y198246D01*
X600000Y194672D01*
Y191028D01*
X600711Y187454D01*
X602105Y184087D01*
X604130Y181057D01*
X606707Y178480D01*
X609737Y176455D01*
X613104Y175061D01*
X616678Y174350D01*
X620322D01*
X623896Y175061D01*
X627263Y176455D01*
X630293Y178480D01*
X632870Y181057D01*
X634894Y184087D01*
X635412Y185336D01*
X637412Y184938D01*
Y144521D01*
X637453Y144314D01*
X637072Y140449D01*
X635885Y136533D01*
X633956Y132924D01*
X631492Y129922D01*
X631316Y129805D01*
X543195Y41684D01*
X543078Y41508D01*
X540076Y39044D01*
X536467Y37115D01*
X532551Y35928D01*
X528686Y35547D01*
X528479Y35588D01*
X431201D01*
X430436Y37436D01*
X431000Y38000D01*
Y39500D01*
X423000D01*
X415000D01*
Y38000D01*
X415564Y37436D01*
X414799Y35588D01*
X320000D01*
X319848Y35558D01*
X316594Y35878D01*
X313319Y36872D01*
X310301Y38485D01*
X307656Y40656D01*
X305485Y43301D01*
X303872Y46319D01*
X302878Y49594D01*
X302558Y52848D01*
X302588Y53000D01*
Y105586D01*
X302595Y105755D01*
X302689Y106683D01*
X302742Y106996D01*
X302798Y107240D01*
X302831Y107346D01*
X303086Y107601D01*
X304000Y109806D01*
Y112193D01*
X303086Y114399D01*
X302243Y115243D01*
X355000Y168000D01*
Y238000D01*
X462000Y345000D01*
X680000D01*
Y319877D01*
D02*
G37*
G36*
X668661Y281975D02*
X667187Y281746D01*
X665777Y281449D01*
X664430Y281085D01*
X663147Y280654D01*
X661928Y280155D01*
X660773Y279590D01*
X659682Y278957D01*
X658654Y278257D01*
X657690Y277489D01*
X656790Y276655D01*
X653255Y280190D01*
X654089Y281090D01*
X654857Y282054D01*
X655557Y283082D01*
X656190Y284173D01*
X656755Y285329D01*
X657254Y286547D01*
X657685Y287830D01*
X658049Y289177D01*
X658346Y290587D01*
X658575Y292061D01*
X668661Y281975D01*
D02*
G37*
G36*
X666016Y200223D02*
X665353Y200293D01*
X664686Y200282D01*
X664015Y200189D01*
X663340Y200016D01*
X662661Y199762D01*
X661979Y199426D01*
X661292Y199009D01*
X660601Y198511D01*
X659906Y197932D01*
X659207Y197272D01*
X655672Y200807D01*
X656332Y201506D01*
X656911Y202201D01*
X657409Y202892D01*
X657826Y203579D01*
X658161Y204261D01*
X658416Y204940D01*
X658589Y205615D01*
X658682Y206286D01*
X658693Y206953D01*
X658623Y207616D01*
X666016Y200223D01*
D02*
G37*
G36*
X301042Y108357D02*
X300928Y108094D01*
X300828Y107773D01*
X300741Y107393D01*
X300667Y106954D01*
X300560Y105900D01*
X300507Y104611D01*
X300500Y103877D01*
X295500D01*
X295493Y104611D01*
X295333Y106954D01*
X295259Y107393D01*
X295172Y107773D01*
X295071Y108094D01*
X294958Y108357D01*
X294830Y108560D01*
X301170D01*
X301042Y108357D01*
D02*
G37*
G36*
X291042Y102357D02*
X290929Y102094D01*
X290828Y101773D01*
X290741Y101393D01*
X290667Y100954D01*
X290560Y99900D01*
X290507Y98611D01*
X290500Y97878D01*
X285500D01*
X285493Y98611D01*
X285333Y100954D01*
X285259Y101393D01*
X285172Y101773D01*
X285072Y102094D01*
X284958Y102357D01*
X284830Y102560D01*
X291170D01*
X291042Y102357D01*
D02*
G37*
G36*
X283412Y99157D02*
Y48993D01*
X283408D01*
X283777Y44301D01*
X284876Y39725D01*
X286677Y35376D01*
X289136Y31363D01*
X292192Y27785D01*
X292195Y27788D01*
X295079Y24904D01*
X295123Y24860D01*
X295123Y24860D01*
X295953Y24030D01*
X296524Y23555D01*
X296524Y23555D01*
X299061Y22000D01*
X298497Y20000D01*
X250000D01*
Y100000D01*
X283354D01*
X283412Y99157D01*
D02*
G37*
%LPC*%
G36*
X563500Y471088D02*
X558500D01*
X556744Y470739D01*
X556597Y470640D01*
X554442Y470442D01*
X553780Y470884D01*
X553000Y471039D01*
X547000D01*
X546220Y470884D01*
X545558Y470442D01*
X543403Y470640D01*
X543256Y470739D01*
X541500Y471088D01*
X536500D01*
X534744Y470739D01*
X533256Y469744D01*
X532261Y468256D01*
X531912Y466500D01*
Y456964D01*
X531725Y456636D01*
X531275Y455988D01*
X530075Y454563D01*
X525584Y450072D01*
X525460Y449958D01*
X524737Y449369D01*
X524478Y449184D01*
X524266Y449051D01*
X524168Y449000D01*
X523806D01*
X521601Y448087D01*
X519913Y446399D01*
X519000Y444193D01*
Y441806D01*
X519913Y439601D01*
X521601Y437913D01*
X523806Y437000D01*
X526194D01*
X528399Y437913D01*
X530087Y439601D01*
X531000Y441806D01*
Y442168D01*
X531051Y442266D01*
X531184Y442478D01*
X531350Y442710D01*
X532376Y443887D01*
X535418Y446930D01*
X536384Y447830D01*
X537185Y448477D01*
X537803Y448912D01*
X541500D01*
X543256Y449261D01*
X543403Y449360D01*
X545558Y449558D01*
X546220Y449116D01*
X547000Y448961D01*
X553000D01*
X553780Y449116D01*
X554442Y449558D01*
X556597Y449360D01*
X556744Y449261D01*
X558500Y448912D01*
X563500D01*
X565256Y449261D01*
X566744Y450256D01*
X567739Y451744D01*
X568088Y453500D01*
Y454594D01*
X569928Y455387D01*
X570683Y455311D01*
X570996Y455258D01*
X571240Y455202D01*
X571346Y455169D01*
X571601Y454913D01*
X573806Y454000D01*
X576194D01*
X578399Y454913D01*
X580087Y456601D01*
X581000Y458806D01*
Y461194D01*
X580087Y463399D01*
X578399Y465087D01*
X576194Y466000D01*
X573806D01*
X571601Y465087D01*
X571346Y464831D01*
X571240Y464798D01*
X570996Y464742D01*
X570715Y464695D01*
X569940Y464642D01*
X568088Y465947D01*
Y466500D01*
X567739Y468256D01*
X566744Y469744D01*
X565256Y470739D01*
X563500Y471088D01*
D02*
G37*
G36*
X193700Y477789D02*
X191182Y477114D01*
X188218Y475403D01*
X185797Y472982D01*
X184086Y470018D01*
X184018Y469763D01*
X182240Y469649D01*
X181934Y469715D01*
X180402Y472368D01*
X178168Y474602D01*
X175432Y476182D01*
X172380Y477000D01*
X169220D01*
X166168Y476182D01*
X163432Y474602D01*
X161198Y472368D01*
X159618Y469632D01*
X159135Y467831D01*
X157065D01*
X156582Y469632D01*
X155002Y472368D01*
X152768Y474602D01*
X150032Y476182D01*
X146980Y477000D01*
X143820D01*
X140768Y476182D01*
X138032Y474602D01*
X135798Y472368D01*
X134218Y469632D01*
X134060Y469044D01*
X132060Y469308D01*
Y470000D01*
X131820Y471827D01*
X131115Y473530D01*
X129993Y474992D01*
X128530Y476115D01*
X126827Y476820D01*
X125000Y477060D01*
X115000D01*
X113173Y476820D01*
X111470Y476115D01*
X110007Y474992D01*
X108885Y473530D01*
X108180Y471827D01*
X107940Y470000D01*
Y460000D01*
X108180Y458173D01*
X108885Y456470D01*
X110007Y455008D01*
X111470Y453885D01*
X113173Y453180D01*
X115000Y452940D01*
X125000D01*
X126827Y453180D01*
X128530Y453885D01*
X129993Y455008D01*
X131115Y456470D01*
X131820Y458173D01*
X132060Y460000D01*
Y460692D01*
X134060Y460956D01*
X134218Y460368D01*
X135798Y457632D01*
X138032Y455398D01*
X140768Y453818D01*
X143820Y453000D01*
X146980D01*
X150032Y453818D01*
X152768Y455398D01*
X155002Y457632D01*
X156582Y460368D01*
X157065Y462169D01*
X159135D01*
X159618Y460368D01*
X161198Y457632D01*
X163432Y455398D01*
X166168Y453818D01*
X169220Y453000D01*
X172380D01*
X175432Y453818D01*
X178168Y455398D01*
X180402Y457632D01*
X181934Y460285D01*
X182240Y460351D01*
X184018Y460237D01*
X184086Y459982D01*
X185797Y457018D01*
X188218Y454597D01*
X191182Y452886D01*
X193700Y452211D01*
Y465000D01*
Y477789D01*
D02*
G37*
G36*
X198700D02*
Y467500D01*
X208989D01*
X208314Y470018D01*
X206603Y472982D01*
X204182Y475403D01*
X201218Y477114D01*
X198700Y477789D01*
D02*
G37*
G36*
X208989Y462500D02*
X198700D01*
Y452211D01*
X201218Y452886D01*
X204182Y454597D01*
X206603Y457018D01*
X208314Y459982D01*
X208989Y462500D01*
D02*
G37*
G36*
X544193Y444000D02*
X541806D01*
X539601Y443087D01*
X537914Y441399D01*
X537000Y439193D01*
Y437756D01*
X536508Y436649D01*
X535801Y435325D01*
X535543Y434475D01*
X535529Y434444D01*
X535510Y434403D01*
X535508Y434396D01*
X535494Y434364D01*
X535457Y434202D01*
X535385Y434053D01*
X535377Y433928D01*
X534790Y431992D01*
X534654Y431642D01*
X534435Y431159D01*
X534221Y430760D01*
X534020Y430446D01*
X533840Y430216D01*
X533693Y430066D01*
X533465Y429888D01*
X533457Y429879D01*
X533256Y429744D01*
X532962Y429304D01*
X532945Y429285D01*
X532941Y429274D01*
X532261Y428256D01*
X531912Y426500D01*
Y413500D01*
X532261Y411744D01*
X533256Y410256D01*
X534744Y409261D01*
X536500Y408912D01*
X541500D01*
X543256Y409261D01*
X543403Y409360D01*
X545558Y409558D01*
X546220Y409116D01*
X547000Y408961D01*
X553000D01*
X553780Y409116D01*
X554442Y409558D01*
X556597Y409360D01*
X556744Y409261D01*
X558500Y408912D01*
X563500D01*
X565256Y409261D01*
X566744Y410256D01*
X567739Y411744D01*
X568088Y413500D01*
Y414594D01*
X569928Y415387D01*
X570683Y415311D01*
X570996Y415258D01*
X571240Y415202D01*
X571346Y415169D01*
X571601Y414913D01*
X573806Y414000D01*
X576194D01*
X578399Y414913D01*
X580087Y416601D01*
X581000Y418806D01*
Y421194D01*
X580087Y423399D01*
X578399Y425087D01*
X576194Y426000D01*
X573806D01*
X571601Y425087D01*
X571346Y424831D01*
X571240Y424798D01*
X570996Y424742D01*
X570715Y424695D01*
X569940Y424642D01*
X568088Y425947D01*
Y426500D01*
X567739Y428256D01*
X566744Y429744D01*
X565256Y430739D01*
X563500Y431088D01*
X558500D01*
X556744Y430739D01*
X556597Y430640D01*
X554442Y430442D01*
X553780Y430884D01*
X553000Y431039D01*
X547159D01*
X546453Y432813D01*
X546455Y432970D01*
X548087Y434601D01*
X549000Y436806D01*
Y439193D01*
X548087Y441399D01*
X546399Y443087D01*
X544193Y444000D01*
D02*
G37*
G36*
X401053Y407400D02*
X398947D01*
X396912Y406855D01*
X395088Y405802D01*
X393598Y404312D01*
X392545Y402488D01*
X392000Y400453D01*
Y398347D01*
X392545Y396312D01*
X393598Y394488D01*
X395088Y392998D01*
X396912Y391945D01*
X398947Y391400D01*
X401053D01*
X403088Y391945D01*
X404912Y392998D01*
X406402Y394488D01*
X407455Y396312D01*
X408000Y398347D01*
Y400453D01*
X407455Y402488D01*
X406402Y404312D01*
X404912Y405802D01*
X403088Y406855D01*
X401053Y407400D01*
D02*
G37*
G36*
X536500Y392108D02*
X534354Y391681D01*
X532535Y390465D01*
X531319Y388646D01*
X530892Y386500D01*
Y382500D01*
X536500D01*
Y392108D01*
D02*
G37*
G36*
X166194Y412000D02*
X163806D01*
X161601Y411087D01*
X159913Y409399D01*
X159000Y407193D01*
Y404807D01*
X159913Y402601D01*
X160169Y402346D01*
X160202Y402240D01*
X160258Y401996D01*
X160305Y401715D01*
X160412Y400157D01*
Y392914D01*
X160405Y392745D01*
X160310Y391818D01*
X160258Y391504D01*
X160202Y391260D01*
X160169Y391154D01*
X159913Y390899D01*
X159000Y388694D01*
Y386306D01*
X159913Y384101D01*
X161601Y382413D01*
X163806Y381500D01*
X166194D01*
X168399Y382413D01*
X170087Y384101D01*
X171000Y386306D01*
Y388694D01*
X170087Y390899D01*
X169831Y391154D01*
X169798Y391260D01*
X169742Y391504D01*
X169695Y391785D01*
X169588Y393343D01*
Y400586D01*
X169595Y400755D01*
X169690Y401683D01*
X169742Y401996D01*
X169798Y402240D01*
X169831Y402346D01*
X170087Y402601D01*
X171000Y404807D01*
Y407193D01*
X170087Y409399D01*
X168399Y411087D01*
X166194Y412000D01*
D02*
G37*
G36*
X541500Y392108D02*
X541500D01*
Y380000D01*
Y367892D01*
X541500D01*
X543646Y368319D01*
X543877Y368474D01*
X545558Y369558D01*
X546220Y369116D01*
X547000Y368961D01*
X553000D01*
X553780Y369116D01*
X554442Y369558D01*
X556597Y369360D01*
X556744Y369261D01*
X558500Y368912D01*
X563500D01*
X565256Y369261D01*
X566744Y370256D01*
X567739Y371744D01*
X568088Y373500D01*
Y374594D01*
X569928Y375387D01*
X570683Y375311D01*
X570996Y375258D01*
X571240Y375202D01*
X571346Y375169D01*
X571601Y374913D01*
X573806Y374000D01*
X576194D01*
X578399Y374913D01*
X580087Y376601D01*
X581000Y378806D01*
Y381194D01*
X580087Y383399D01*
X578399Y385087D01*
X576194Y386000D01*
X573806D01*
X571601Y385087D01*
X571346Y384831D01*
X571240Y384798D01*
X570996Y384742D01*
X570715Y384695D01*
X569940Y384642D01*
X568088Y385947D01*
Y386500D01*
X567739Y388256D01*
X566744Y389744D01*
X565256Y390739D01*
X563500Y391088D01*
X558500D01*
X556744Y390739D01*
X556597Y390640D01*
X554442Y390442D01*
X553780Y390884D01*
X553000Y391039D01*
X547000D01*
X546220Y390884D01*
X545558Y390442D01*
X543877Y391526D01*
X543646Y391681D01*
X541500Y392108D01*
D02*
G37*
G36*
X61500Y382500D02*
X55892D01*
Y378500D01*
X56319Y376354D01*
X57535Y374535D01*
X59354Y373319D01*
X61500Y372892D01*
X61500D01*
Y382500D01*
D02*
G37*
G36*
X536500Y377500D02*
X530892D01*
Y373500D01*
X531319Y371354D01*
X532535Y369535D01*
X534354Y368319D01*
X536500Y367892D01*
Y377500D01*
D02*
G37*
G36*
X152193Y383000D02*
X149806D01*
X147601Y382087D01*
X145913Y380399D01*
X145000Y378194D01*
Y375807D01*
X145913Y373601D01*
X147601Y371913D01*
X149806Y371000D01*
X150168D01*
X150266Y370949D01*
X150478Y370816D01*
X150710Y370650D01*
X151887Y369624D01*
X154533Y366979D01*
X155947Y365564D01*
X157150Y364063D01*
X157431Y363697D01*
X157507Y363543D01*
X157671Y363147D01*
X157673Y363143D01*
X157754Y362856D01*
X157804Y362580D01*
X157824Y362309D01*
X157817Y362037D01*
X157781Y361759D01*
X157713Y361467D01*
X157583Y361074D01*
X157568Y360952D01*
X157254Y360195D01*
Y357808D01*
X158167Y355602D01*
X159855Y353915D01*
X162060Y353001D01*
X164447D01*
X166652Y353915D01*
X168340Y355602D01*
X169254Y357808D01*
Y360195D01*
X168340Y362400D01*
X167303Y363437D01*
X167082Y363941D01*
X167050Y364047D01*
X166919Y364706D01*
X166793Y364894D01*
X166437Y366065D01*
X164732Y369256D01*
X162436Y372053D01*
X162436Y372053D01*
X161021Y373467D01*
X158072Y376416D01*
X157958Y376540D01*
X157369Y377263D01*
X157184Y377522D01*
X157051Y377734D01*
X157000Y377832D01*
Y378194D01*
X156087Y380399D01*
X154399Y382087D01*
X152193Y383000D01*
D02*
G37*
G36*
X316194Y396000D02*
X313806D01*
X311601Y395087D01*
X309914Y393399D01*
X309000Y391194D01*
Y388806D01*
X309914Y386601D01*
X310169Y386346D01*
X310202Y386240D01*
X310258Y385996D01*
X310305Y385715D01*
X310412Y384157D01*
Y361414D01*
X310405Y361245D01*
X310310Y360317D01*
X310258Y360004D01*
X310202Y359760D01*
X310169Y359654D01*
X309914Y359399D01*
X309000Y357193D01*
Y354807D01*
X309914Y352601D01*
X311601Y350913D01*
X313806Y350000D01*
X316194D01*
X318399Y350913D01*
X320087Y352601D01*
X321000Y354807D01*
Y357193D01*
X320087Y359399D01*
X319831Y359654D01*
X319798Y359760D01*
X319742Y360004D01*
X319695Y360285D01*
X319588Y361843D01*
Y384586D01*
X319595Y384755D01*
X319690Y385683D01*
X319742Y385996D01*
X319798Y386240D01*
X319831Y386346D01*
X320087Y386601D01*
X321000Y388806D01*
Y391194D01*
X320087Y393399D01*
X318399Y395087D01*
X316194Y396000D01*
D02*
G37*
G36*
X401053Y358600D02*
X398947D01*
X396912Y358055D01*
X395088Y357002D01*
X393598Y355512D01*
X392545Y353688D01*
X392000Y351653D01*
Y349547D01*
X392545Y347512D01*
X393598Y345688D01*
X395088Y344198D01*
X396912Y343145D01*
X398947Y342600D01*
X401053D01*
X403088Y343145D01*
X404912Y344198D01*
X406402Y345688D01*
X407455Y347512D01*
X408000Y349547D01*
Y351653D01*
X407455Y353688D01*
X406402Y355512D01*
X404912Y357002D01*
X403088Y358055D01*
X401053Y358600D01*
D02*
G37*
G36*
X291194Y311000D02*
X288806D01*
X286601Y310087D01*
X286346Y309831D01*
X286240Y309798D01*
X285996Y309742D01*
X285715Y309695D01*
X284157Y309588D01*
X200414D01*
X200245Y309595D01*
X199317Y309690D01*
X199004Y309742D01*
X198760Y309798D01*
X198654Y309831D01*
X198399Y310087D01*
X196194Y311000D01*
X193806D01*
X191601Y310087D01*
X189913Y308399D01*
X189000Y306194D01*
Y303806D01*
X189913Y301601D01*
X191601Y299913D01*
X193806Y299000D01*
X196194D01*
X198399Y299913D01*
X198654Y300169D01*
X198760Y300202D01*
X199004Y300258D01*
X199285Y300305D01*
X200843Y300412D01*
X284586D01*
X284755Y300405D01*
X285683Y300310D01*
X285996Y300258D01*
X286240Y300202D01*
X286346Y300169D01*
X286601Y299913D01*
X288806Y299000D01*
X291194D01*
X293399Y299913D01*
X295087Y301601D01*
X296000Y303806D01*
Y306194D01*
X295087Y308399D01*
X293399Y310087D01*
X291194Y311000D01*
D02*
G37*
G36*
X37100Y312629D02*
X34728Y312317D01*
X32053Y311208D01*
X29755Y309445D01*
X27991Y307147D01*
X26883Y304472D01*
X26834Y304100D01*
X37100D01*
Y312629D01*
D02*
G37*
G36*
X164193Y303000D02*
X161807D01*
X159601Y302087D01*
X159346Y301831D01*
X159240Y301798D01*
X158996Y301742D01*
X158715Y301695D01*
X157157Y301588D01*
X140414D01*
X140245Y301595D01*
X139318Y301689D01*
X139004Y301742D01*
X138760Y301798D01*
X138654Y301831D01*
X138399Y302087D01*
X136194Y303000D01*
X133806D01*
X131601Y302087D01*
X129914Y300399D01*
X129000Y298193D01*
Y295807D01*
X129914Y293601D01*
X131601Y291913D01*
X133806Y291000D01*
X136194D01*
X138399Y291913D01*
X138654Y292169D01*
X138760Y292202D01*
X139004Y292258D01*
X139285Y292305D01*
X140843Y292412D01*
X157586D01*
X157755Y292405D01*
X158683Y292311D01*
X158996Y292258D01*
X159240Y292202D01*
X159346Y292169D01*
X159601Y291913D01*
X161807Y291000D01*
X164193D01*
X166399Y291913D01*
X168087Y293601D01*
X169000Y295807D01*
Y298193D01*
X168087Y300399D01*
X166399Y302087D01*
X164193Y303000D01*
D02*
G37*
G36*
X381000Y300000D02*
X379500D01*
Y294500D01*
X385000D01*
Y296000D01*
X381000Y300000D01*
D02*
G37*
G36*
X374500D02*
X373000D01*
X369000Y296000D01*
Y294500D01*
X374500D01*
Y300000D01*
D02*
G37*
G36*
X42100Y312629D02*
Y301600D01*
Y290571D01*
X44472Y290883D01*
X47147Y291992D01*
X49445Y293755D01*
X51209Y296053D01*
X51759Y297381D01*
X53924D01*
X54265Y296557D01*
X55868Y294468D01*
X57957Y292865D01*
X60389Y291857D01*
X63000Y291514D01*
X67000D01*
X69611Y291857D01*
X72043Y292865D01*
X74132Y294468D01*
X75735Y296557D01*
X76743Y298990D01*
X77086Y301600D01*
X76743Y304210D01*
X75735Y306643D01*
X74132Y308732D01*
X72043Y310335D01*
X69611Y311343D01*
X67000Y311686D01*
X63000D01*
X60389Y311343D01*
X57957Y310335D01*
X55868Y308732D01*
X54265Y306643D01*
X53924Y305819D01*
X51759D01*
X51209Y307147D01*
X49445Y309445D01*
X47147Y311208D01*
X44472Y312317D01*
X42100Y312629D01*
D02*
G37*
G36*
X37100Y299100D02*
X26834D01*
X26883Y298728D01*
X27991Y296053D01*
X29755Y293755D01*
X32053Y291992D01*
X34728Y290883D01*
X37100Y290571D01*
Y299100D01*
D02*
G37*
G36*
X385000Y289500D02*
X379500D01*
Y284000D01*
X381000D01*
X385000Y288000D01*
Y289500D01*
D02*
G37*
G36*
X374500D02*
X369000D01*
Y288000D01*
X373000Y284000D01*
X374500D01*
Y289500D01*
D02*
G37*
G36*
X37100Y287229D02*
X34728Y286917D01*
X32053Y285809D01*
X29755Y284045D01*
X27991Y281747D01*
X26883Y279072D01*
X26834Y278700D01*
X37100D01*
Y287229D01*
D02*
G37*
G36*
X42100Y287229D02*
Y276200D01*
Y265171D01*
X44472Y265483D01*
X47147Y266591D01*
X49445Y268355D01*
X51209Y270653D01*
X51759Y271981D01*
X53924D01*
X54265Y271157D01*
X55868Y269068D01*
X57957Y267465D01*
X60389Y266457D01*
X63000Y266114D01*
X67000D01*
X69611Y266457D01*
X72043Y267465D01*
X74132Y269068D01*
X75735Y271157D01*
X76743Y273589D01*
X77086Y276200D01*
X76743Y278811D01*
X75735Y281243D01*
X74132Y283332D01*
X72043Y284935D01*
X69611Y285943D01*
X67000Y286286D01*
X63000D01*
X60389Y285943D01*
X57957Y284935D01*
X55868Y283332D01*
X54265Y281243D01*
X53924Y280419D01*
X51759D01*
X51209Y281747D01*
X49445Y284045D01*
X47147Y285809D01*
X44472Y286917D01*
X42100Y287229D01*
D02*
G37*
G36*
X37100Y273700D02*
X26834D01*
X26883Y273328D01*
X27991Y270653D01*
X29755Y268355D01*
X32053Y266591D01*
X34728Y265483D01*
X37100Y265171D01*
Y273700D01*
D02*
G37*
G36*
X164193Y255000D02*
X161807D01*
X159601Y254087D01*
X159346Y253831D01*
X159240Y253798D01*
X158996Y253742D01*
X158715Y253695D01*
X157157Y253588D01*
X140414D01*
X140245Y253595D01*
X139318Y253689D01*
X139004Y253742D01*
X138760Y253798D01*
X138654Y253831D01*
X138399Y254087D01*
X136194Y255000D01*
X133806D01*
X131601Y254087D01*
X129914Y252399D01*
X129000Y250194D01*
Y247806D01*
X129914Y245601D01*
X131601Y243913D01*
X133806Y243000D01*
X136194D01*
X138399Y243913D01*
X138654Y244169D01*
X138760Y244202D01*
X139004Y244258D01*
X139285Y244305D01*
X140843Y244412D01*
X157586D01*
X157755Y244405D01*
X158683Y244310D01*
X158996Y244258D01*
X159240Y244202D01*
X159346Y244169D01*
X159601Y243913D01*
X161807Y243000D01*
X164193D01*
X166399Y243913D01*
X168087Y245601D01*
X169000Y247806D01*
Y250194D01*
X168087Y252399D01*
X166399Y254087D01*
X164193Y255000D01*
D02*
G37*
G36*
X37100Y261829D02*
X34728Y261517D01*
X32053Y260408D01*
X29755Y258645D01*
X27991Y256347D01*
X26883Y253672D01*
X26834Y253300D01*
X37100D01*
Y261829D01*
D02*
G37*
G36*
X268193Y284000D02*
X265807D01*
X263601Y283087D01*
X261913Y281399D01*
X261000Y279193D01*
Y276807D01*
X261913Y274601D01*
X262169Y274346D01*
X262202Y274240D01*
X262258Y273996D01*
X262305Y273715D01*
X262412Y272157D01*
Y259414D01*
X262405Y259245D01*
X262311Y258317D01*
X262258Y258004D01*
X262202Y257760D01*
X262169Y257654D01*
X261913Y257399D01*
X261000Y255194D01*
Y252806D01*
X261913Y250601D01*
X263601Y248913D01*
X265807Y248000D01*
X268193D01*
X270399Y248913D01*
X272087Y250601D01*
X273000Y252806D01*
Y255194D01*
X272087Y257399D01*
X271831Y257654D01*
X271798Y257760D01*
X271742Y258004D01*
X271695Y258285D01*
X271588Y259843D01*
Y272586D01*
X271595Y272755D01*
X271689Y273683D01*
X271742Y273996D01*
X271798Y274240D01*
X271831Y274346D01*
X272087Y274601D01*
X273000Y276807D01*
Y279193D01*
X272087Y281399D01*
X270399Y283087D01*
X268193Y284000D01*
D02*
G37*
G36*
X311194Y246000D02*
X308806D01*
X306601Y245087D01*
X306346Y244831D01*
X306240Y244798D01*
X305996Y244742D01*
X305715Y244695D01*
X304157Y244588D01*
X231414D01*
X231245Y244595D01*
X230317Y244690D01*
X230004Y244742D01*
X229760Y244798D01*
X229654Y244831D01*
X229399Y245087D01*
X227194Y246000D01*
X224806D01*
X222601Y245087D01*
X220914Y243399D01*
X220000Y241194D01*
Y238806D01*
X220914Y236601D01*
X222601Y234913D01*
X224806Y234000D01*
X227194D01*
X229399Y234913D01*
X229654Y235169D01*
X229760Y235202D01*
X230004Y235258D01*
X230285Y235305D01*
X231843Y235412D01*
X248098D01*
X248927Y233412D01*
X248913Y233399D01*
X248000Y231194D01*
Y228806D01*
X248913Y226601D01*
X250601Y224913D01*
X252806Y224000D01*
X255194D01*
X255561Y224152D01*
X257092Y222621D01*
X256500Y221193D01*
Y218806D01*
X257413Y216601D01*
X259101Y214913D01*
X261306Y214000D01*
X263694D01*
X265899Y214913D01*
X266154Y215169D01*
X266260Y215202D01*
X266504Y215258D01*
X266785Y215305D01*
X268343Y215412D01*
X277586D01*
X277755Y215405D01*
X278683Y215310D01*
X278996Y215258D01*
X279240Y215202D01*
X279346Y215169D01*
X279601Y214913D01*
X281807Y214000D01*
X284193D01*
X286399Y214913D01*
X288086Y216601D01*
X289000Y218806D01*
Y221194D01*
X288086Y223399D01*
X288073Y223412D01*
X288902Y225412D01*
X294586D01*
X294755Y225405D01*
X295683Y225310D01*
X295996Y225258D01*
X296240Y225202D01*
X296346Y225169D01*
X296601Y224913D01*
X298806Y224000D01*
X301194D01*
X303399Y224913D01*
X305087Y226601D01*
X306000Y228806D01*
Y231194D01*
X305087Y233399D01*
X305134Y233552D01*
X305424Y233820D01*
X307278Y234633D01*
X308806Y234000D01*
X311194D01*
X313399Y234913D01*
X315086Y236601D01*
X316000Y238806D01*
Y241194D01*
X315086Y243399D01*
X313399Y245087D01*
X311194Y246000D01*
D02*
G37*
G36*
X42100Y261829D02*
Y250800D01*
Y239771D01*
X44472Y240083D01*
X47147Y241192D01*
X49445Y242955D01*
X51209Y245253D01*
X51759Y246581D01*
X53924D01*
X54265Y245757D01*
X55868Y243668D01*
X57957Y242065D01*
X60389Y241057D01*
X63000Y240714D01*
X67000D01*
X69611Y241057D01*
X72043Y242065D01*
X74132Y243668D01*
X75735Y245757D01*
X76743Y248190D01*
X77086Y250800D01*
X76743Y253410D01*
X75735Y255843D01*
X74132Y257932D01*
X72043Y259535D01*
X69611Y260543D01*
X67000Y260886D01*
X63000D01*
X60389Y260543D01*
X57957Y259535D01*
X55868Y257932D01*
X54265Y255843D01*
X53924Y255019D01*
X51759D01*
X51209Y256347D01*
X49445Y258645D01*
X47147Y260408D01*
X44472Y261517D01*
X42100Y261829D01*
D02*
G37*
G36*
X37100Y248300D02*
X26834D01*
X26883Y247928D01*
X27991Y245253D01*
X29755Y242955D01*
X32053Y241192D01*
X34728Y240083D01*
X37100Y239771D01*
Y248300D01*
D02*
G37*
G36*
X67000Y235486D02*
X63000D01*
X60389Y235143D01*
X57957Y234135D01*
X55868Y232532D01*
X54265Y230443D01*
X53335Y228198D01*
X52817Y228011D01*
X51783D01*
X51265Y228198D01*
X50335Y230443D01*
X48732Y232532D01*
X46643Y234135D01*
X44211Y235143D01*
X41600Y235486D01*
X37600D01*
X34990Y235143D01*
X32557Y234135D01*
X30468Y232532D01*
X28865Y230443D01*
X27857Y228011D01*
X27514Y225400D01*
X27857Y222789D01*
X28865Y220357D01*
X30468Y218268D01*
X32557Y216665D01*
X34990Y215657D01*
X37600Y215314D01*
X41600D01*
X44211Y215657D01*
X46643Y216665D01*
X48732Y218268D01*
X50335Y220357D01*
X51265Y222602D01*
X51783Y222789D01*
X52817D01*
X53335Y222602D01*
X54265Y220357D01*
X55868Y218268D01*
X57957Y216665D01*
X60389Y215657D01*
X63000Y215314D01*
X67000D01*
X69611Y215657D01*
X72043Y216665D01*
X74132Y218268D01*
X75735Y220357D01*
X76743Y222789D01*
X77086Y225400D01*
X76743Y228011D01*
X75735Y230443D01*
X74132Y232532D01*
X72043Y234135D01*
X69611Y235143D01*
X67000Y235486D01*
D02*
G37*
G36*
X71000Y210117D02*
X59000D01*
X56659Y209652D01*
X54674Y208326D01*
X53348Y206341D01*
X52899Y204081D01*
X52755Y203982D01*
X50882Y203721D01*
X50335Y205043D01*
X48732Y207132D01*
X46643Y208735D01*
X44211Y209743D01*
X41600Y210086D01*
X37600D01*
X34990Y209743D01*
X32557Y208735D01*
X30468Y207132D01*
X28865Y205043D01*
X27857Y202610D01*
X27514Y200000D01*
X27857Y197390D01*
X28865Y194957D01*
X30468Y192868D01*
X32557Y191265D01*
X34990Y190257D01*
X37600Y189914D01*
X41600D01*
X44211Y190257D01*
X46643Y191265D01*
X48732Y192868D01*
X50335Y194957D01*
X50882Y196279D01*
X52755Y196018D01*
X52899Y195919D01*
X53348Y193659D01*
X54674Y191674D01*
X56659Y190348D01*
X59000Y189883D01*
X71000D01*
X73341Y190348D01*
X75326Y191674D01*
X76652Y193659D01*
X77118Y196000D01*
Y204000D01*
X76652Y206341D01*
X75326Y208326D01*
X73341Y209652D01*
X71000Y210117D01*
D02*
G37*
G36*
X118500Y185000D02*
X111500D01*
X108000Y181500D01*
Y174500D01*
X111500Y171000D01*
X118500D01*
X122000Y174500D01*
Y181500D01*
X118500Y185000D01*
D02*
G37*
G36*
X211053Y182400D02*
X208947D01*
X206912Y181855D01*
X205088Y180802D01*
X203598Y179312D01*
X202545Y177488D01*
X202000Y175453D01*
Y173347D01*
X202545Y171312D01*
X203598Y169488D01*
X205088Y167998D01*
X206912Y166945D01*
X208947Y166400D01*
X211053D01*
X213088Y166945D01*
X214912Y167998D01*
X216402Y169488D01*
X217455Y171312D01*
X218000Y173347D01*
Y175453D01*
X217455Y177488D01*
X216402Y179312D01*
X214912Y180802D01*
X213088Y181855D01*
X211053Y182400D01*
D02*
G37*
G36*
X254193Y173000D02*
X251807D01*
X249601Y172087D01*
X247913Y170399D01*
X247000Y168193D01*
Y165807D01*
X247913Y163601D01*
X248169Y163346D01*
X248202Y163240D01*
X248258Y162996D01*
X248305Y162715D01*
X248412Y161157D01*
Y138414D01*
X248405Y138245D01*
X248311Y137317D01*
X248258Y137004D01*
X248202Y136760D01*
X248169Y136654D01*
X247913Y136399D01*
X247000Y134193D01*
Y131806D01*
X247913Y129601D01*
X249601Y127913D01*
X251807Y127000D01*
X254193D01*
X256399Y127913D01*
X258087Y129601D01*
X259000Y131806D01*
Y134193D01*
X258087Y136399D01*
X257831Y136654D01*
X257798Y136760D01*
X257742Y137004D01*
X257695Y137285D01*
X257588Y138843D01*
Y161586D01*
X257595Y161755D01*
X257689Y162683D01*
X257742Y162996D01*
X257798Y163240D01*
X257831Y163346D01*
X258087Y163601D01*
X259000Y165807D01*
Y168193D01*
X258087Y170399D01*
X256399Y172087D01*
X254193Y173000D01*
D02*
G37*
G36*
X211053Y133600D02*
X208947D01*
X206912Y133055D01*
X205088Y132002D01*
X203598Y130512D01*
X202545Y128688D01*
X202000Y126653D01*
Y124547D01*
X202545Y122512D01*
X203598Y120688D01*
X205088Y119198D01*
X206912Y118145D01*
X208947Y117600D01*
X211053D01*
X213088Y118145D01*
X214912Y119198D01*
X216402Y120688D01*
X217455Y122512D01*
X218000Y124547D01*
Y126653D01*
X217455Y128688D01*
X216402Y130512D01*
X214912Y132002D01*
X213088Y133055D01*
X211053Y133600D01*
D02*
G37*
%LPD*%
G36*
X566038Y464525D02*
X566189Y464100D01*
X566440Y463725D01*
X566792Y463400D01*
X567245Y463125D01*
X567798Y462900D01*
X568452Y462725D01*
X569207Y462600D01*
X569542Y462571D01*
X570954Y462667D01*
X571393Y462741D01*
X571773Y462828D01*
X572094Y462929D01*
X572357Y463042D01*
X572560Y463170D01*
Y456830D01*
X572357Y456958D01*
X572094Y457071D01*
X571773Y457172D01*
X571393Y457259D01*
X570954Y457333D01*
X569900Y457440D01*
X569737Y457447D01*
X569207Y457400D01*
X568452Y457275D01*
X567798Y457100D01*
X567245Y456875D01*
X566792Y456600D01*
X566440Y456275D01*
X566189Y455900D01*
X566038Y455475D01*
X565987Y455000D01*
Y465000D01*
X566038Y464525D01*
D02*
G37*
G36*
X540053Y451013D02*
X539712Y451337D01*
X539289Y451510D01*
X538785Y451532D01*
X538200Y451403D01*
X537534Y451122D01*
X536786Y450690D01*
X535957Y450106D01*
X535047Y449371D01*
X532982Y447447D01*
X530447Y451982D01*
X531395Y452965D01*
X532897Y454748D01*
X533451Y455547D01*
X533873Y456285D01*
X534164Y456961D01*
X534323Y457576D01*
X534351Y458130D01*
X534248Y458622D01*
X534013Y459053D01*
X540053Y451013D01*
D02*
G37*
G36*
X531804Y446269D02*
X531291Y445746D01*
X529747Y443974D01*
X529489Y443612D01*
X529281Y443282D01*
X529125Y442984D01*
X529021Y442718D01*
X528967Y442484D01*
X524484Y446967D01*
X524718Y447020D01*
X524984Y447125D01*
X525282Y447281D01*
X525612Y447489D01*
X525975Y447747D01*
X526796Y448416D01*
X527746Y449291D01*
X528269Y449804D01*
X531804Y446269D01*
D02*
G37*
G36*
X544647Y434355D02*
X544175Y434114D01*
X543741Y433836D01*
X543346Y433520D01*
X542990Y433167D01*
X542703Y432814D01*
X542661Y432620D01*
X542383Y430665D01*
X542356Y429864D01*
X542403Y429180D01*
X542524Y428614D01*
X542720Y428165D01*
X542989Y427833D01*
X543333Y427619D01*
X543751Y427522D01*
X534720Y428280D01*
X535054Y428542D01*
X535376Y428870D01*
X535685Y429265D01*
X535981Y429727D01*
X536264Y430256D01*
X536534Y430851D01*
X536792Y431514D01*
X537268Y433039D01*
X537388Y433513D01*
X537357Y433536D01*
X537442Y433727D01*
X537486Y433902D01*
X537519Y433901D01*
X539053Y437353D01*
X544647Y434355D01*
D02*
G37*
G36*
X566038Y424525D02*
X566189Y424100D01*
X566440Y423725D01*
X566792Y423400D01*
X567245Y423125D01*
X567798Y422900D01*
X568452Y422725D01*
X569207Y422600D01*
X569542Y422571D01*
X570954Y422667D01*
X571393Y422741D01*
X571773Y422828D01*
X572094Y422929D01*
X572357Y423042D01*
X572560Y423170D01*
Y416830D01*
X572357Y416958D01*
X572094Y417071D01*
X571773Y417172D01*
X571393Y417259D01*
X570954Y417333D01*
X569900Y417440D01*
X569737Y417447D01*
X569207Y417400D01*
X568452Y417275D01*
X567798Y417100D01*
X567245Y416875D01*
X566792Y416600D01*
X566440Y416275D01*
X566189Y415900D01*
X566038Y415475D01*
X565987Y415000D01*
Y425000D01*
X566038Y424525D01*
D02*
G37*
G36*
X168042Y403357D02*
X167929Y403094D01*
X167828Y402773D01*
X167741Y402393D01*
X167667Y401954D01*
X167560Y400900D01*
X167507Y399611D01*
X167500Y398877D01*
X162500D01*
X162493Y399611D01*
X162333Y401954D01*
X162259Y402393D01*
X162172Y402773D01*
X162071Y403094D01*
X161958Y403357D01*
X161830Y403560D01*
X168170D01*
X168042Y403357D01*
D02*
G37*
G36*
X167507Y393889D02*
X167667Y391546D01*
X167741Y391107D01*
X167828Y390727D01*
X167929Y390406D01*
X168042Y390143D01*
X168170Y389940D01*
X161830D01*
X161958Y390143D01*
X162071Y390406D01*
X162172Y390727D01*
X162259Y391107D01*
X162333Y391546D01*
X162440Y392600D01*
X162493Y393889D01*
X162500Y394622D01*
X167500D01*
X167507Y393889D01*
D02*
G37*
G36*
X566038Y384525D02*
X566189Y384100D01*
X566440Y383725D01*
X566792Y383400D01*
X567245Y383125D01*
X567798Y382900D01*
X568452Y382725D01*
X569207Y382600D01*
X569542Y382571D01*
X570954Y382667D01*
X571393Y382741D01*
X571773Y382828D01*
X572094Y382929D01*
X572357Y383042D01*
X572560Y383170D01*
Y376830D01*
X572357Y376958D01*
X572094Y377071D01*
X571773Y377172D01*
X571393Y377259D01*
X570954Y377333D01*
X569900Y377440D01*
X569737Y377447D01*
X569207Y377400D01*
X568452Y377275D01*
X567798Y377100D01*
X567245Y376875D01*
X566792Y376600D01*
X566440Y376275D01*
X566189Y375900D01*
X566038Y375475D01*
X565987Y375000D01*
Y385000D01*
X566038Y384525D01*
D02*
G37*
G36*
X155021Y377282D02*
X155125Y377016D01*
X155281Y376718D01*
X155489Y376388D01*
X155747Y376026D01*
X156417Y375204D01*
X157290Y374254D01*
X157804Y373731D01*
X154269Y370196D01*
X153745Y370709D01*
X151974Y372253D01*
X151612Y372511D01*
X151282Y372719D01*
X150984Y372875D01*
X150718Y372980D01*
X150484Y373033D01*
X154967Y377516D01*
X155021Y377282D01*
D02*
G37*
G36*
X165602Y362239D02*
X159518Y360431D01*
X159679Y360915D01*
X159790Y361397D01*
X159853Y361879D01*
X159865Y362359D01*
X159829Y362837D01*
X159743Y363315D01*
X159608Y363791D01*
X159424Y364266D01*
X159191Y364739D01*
X158908Y365211D01*
X163096Y367942D01*
X165602Y362239D01*
D02*
G37*
G36*
X318042Y387357D02*
X317929Y387094D01*
X317828Y386773D01*
X317741Y386393D01*
X317667Y385954D01*
X317560Y384900D01*
X317507Y383611D01*
X317500Y382878D01*
X312500D01*
X312493Y383611D01*
X312333Y385954D01*
X312259Y386393D01*
X312172Y386773D01*
X312071Y387094D01*
X311958Y387357D01*
X311830Y387560D01*
X318170D01*
X318042Y387357D01*
D02*
G37*
G36*
X317507Y362389D02*
X317667Y360046D01*
X317741Y359607D01*
X317828Y359227D01*
X317929Y358906D01*
X318042Y358643D01*
X318170Y358440D01*
X311830D01*
X311958Y358643D01*
X312071Y358906D01*
X312172Y359227D01*
X312259Y359607D01*
X312333Y360046D01*
X312440Y361100D01*
X312493Y362389D01*
X312500Y363122D01*
X317500D01*
X317507Y362389D01*
D02*
G37*
G36*
X287560Y301830D02*
X287357Y301958D01*
X287094Y302071D01*
X286773Y302172D01*
X286393Y302259D01*
X285954Y302333D01*
X284900Y302440D01*
X283611Y302493D01*
X282878Y302500D01*
Y307500D01*
X283611Y307507D01*
X285954Y307667D01*
X286393Y307741D01*
X286773Y307828D01*
X287094Y307929D01*
X287357Y308042D01*
X287560Y308170D01*
Y301830D01*
D02*
G37*
G36*
X197643Y308042D02*
X197906Y307929D01*
X198227Y307828D01*
X198607Y307741D01*
X199046Y307667D01*
X200100Y307560D01*
X201389Y307507D01*
X202122Y307500D01*
Y302500D01*
X201389Y302493D01*
X199046Y302333D01*
X198607Y302259D01*
X198227Y302172D01*
X197906Y302071D01*
X197643Y301958D01*
X197440Y301830D01*
Y308170D01*
X197643Y308042D01*
D02*
G37*
G36*
X160560Y293830D02*
X160357Y293958D01*
X160094Y294071D01*
X159773Y294172D01*
X159393Y294259D01*
X158954Y294333D01*
X157900Y294440D01*
X156611Y294493D01*
X155878Y294500D01*
Y299500D01*
X156611Y299507D01*
X158954Y299667D01*
X159393Y299741D01*
X159773Y299828D01*
X160094Y299928D01*
X160357Y300042D01*
X160560Y300170D01*
Y293830D01*
D02*
G37*
G36*
X137643Y300042D02*
X137906Y299928D01*
X138227Y299828D01*
X138607Y299741D01*
X139046Y299667D01*
X140100Y299560D01*
X141389Y299507D01*
X142122Y299500D01*
Y294500D01*
X141389Y294493D01*
X139046Y294333D01*
X138607Y294259D01*
X138227Y294172D01*
X137906Y294071D01*
X137643Y293958D01*
X137440Y293830D01*
Y300170D01*
X137643Y300042D01*
D02*
G37*
G36*
X160560Y245830D02*
X160357Y245958D01*
X160094Y246071D01*
X159773Y246172D01*
X159393Y246259D01*
X158954Y246333D01*
X157900Y246440D01*
X156611Y246493D01*
X155878Y246500D01*
Y251500D01*
X156611Y251507D01*
X158954Y251667D01*
X159393Y251741D01*
X159773Y251828D01*
X160094Y251929D01*
X160357Y252042D01*
X160560Y252170D01*
Y245830D01*
D02*
G37*
G36*
X137643Y252042D02*
X137906Y251929D01*
X138227Y251828D01*
X138607Y251741D01*
X139046Y251667D01*
X140100Y251560D01*
X141389Y251507D01*
X142122Y251500D01*
Y246500D01*
X141389Y246493D01*
X139046Y246333D01*
X138607Y246259D01*
X138227Y246172D01*
X137906Y246071D01*
X137643Y245958D01*
X137440Y245830D01*
Y252170D01*
X137643Y252042D01*
D02*
G37*
G36*
X270042Y275357D02*
X269928Y275094D01*
X269828Y274773D01*
X269741Y274393D01*
X269667Y273954D01*
X269560Y272900D01*
X269507Y271611D01*
X269500Y270877D01*
X264500D01*
X264493Y271611D01*
X264333Y273954D01*
X264259Y274393D01*
X264172Y274773D01*
X264072Y275094D01*
X263958Y275357D01*
X263830Y275560D01*
X270170D01*
X270042Y275357D01*
D02*
G37*
G36*
X269507Y260389D02*
X269667Y258046D01*
X269741Y257607D01*
X269828Y257227D01*
X269928Y256906D01*
X270042Y256643D01*
X270170Y256440D01*
X263830D01*
X263958Y256643D01*
X264072Y256906D01*
X264172Y257227D01*
X264259Y257607D01*
X264333Y258046D01*
X264440Y259100D01*
X264493Y260389D01*
X264500Y261122D01*
X269500D01*
X269507Y260389D01*
D02*
G37*
G36*
X307560Y236830D02*
X307357Y236958D01*
X307094Y237071D01*
X306773Y237172D01*
X306393Y237259D01*
X305954Y237333D01*
X304900Y237440D01*
X303611Y237493D01*
X302878Y237500D01*
Y242500D01*
X303611Y242507D01*
X305954Y242667D01*
X306393Y242741D01*
X306773Y242828D01*
X307094Y242929D01*
X307357Y243042D01*
X307560Y243170D01*
Y236830D01*
D02*
G37*
G36*
X228643Y243042D02*
X228906Y242929D01*
X229227Y242828D01*
X229607Y242741D01*
X230046Y242667D01*
X231100Y242560D01*
X232389Y242507D01*
X233123Y242500D01*
Y237500D01*
X232389Y237493D01*
X230046Y237333D01*
X229607Y237259D01*
X229227Y237172D01*
X228906Y237071D01*
X228643Y236958D01*
X228440Y236830D01*
Y243170D01*
X228643Y243042D01*
D02*
G37*
G36*
X297560Y226830D02*
X297357Y226958D01*
X297094Y227071D01*
X296773Y227172D01*
X296393Y227259D01*
X295954Y227333D01*
X294900Y227440D01*
X293611Y227493D01*
X292878Y227500D01*
Y232500D01*
X293611Y232507D01*
X295954Y232667D01*
X296393Y232741D01*
X296773Y232828D01*
X297094Y232929D01*
X297357Y233042D01*
X297560Y233170D01*
Y226830D01*
D02*
G37*
G36*
X256643Y233042D02*
X256906Y232929D01*
X257227Y232828D01*
X257607Y232741D01*
X258046Y232667D01*
X259100Y232560D01*
X260389Y232507D01*
X261122Y232500D01*
Y227500D01*
X260389Y227493D01*
X258046Y227333D01*
X257607Y227259D01*
X257227Y227172D01*
X256906Y227071D01*
X256643Y226958D01*
X256440Y226830D01*
Y233170D01*
X256643Y233042D01*
D02*
G37*
G36*
X280560Y216830D02*
X280357Y216958D01*
X280094Y217071D01*
X279773Y217172D01*
X279393Y217259D01*
X278954Y217333D01*
X277900Y217440D01*
X276611Y217493D01*
X275877Y217500D01*
Y222500D01*
X276611Y222507D01*
X278954Y222667D01*
X279393Y222741D01*
X279773Y222828D01*
X280094Y222929D01*
X280357Y223042D01*
X280560Y223170D01*
Y216830D01*
D02*
G37*
G36*
X265143Y223042D02*
X265406Y222929D01*
X265727Y222828D01*
X266107Y222741D01*
X266546Y222667D01*
X267600Y222560D01*
X268889Y222507D01*
X269622Y222500D01*
X269622Y217500D01*
X268889Y217493D01*
X266546Y217333D01*
X266107Y217259D01*
X265727Y217172D01*
X265406Y217071D01*
X265143Y216958D01*
X264940Y216830D01*
X264940Y223170D01*
X265143Y223042D01*
D02*
G37*
G36*
X256042Y164357D02*
X255928Y164094D01*
X255828Y163773D01*
X255741Y163393D01*
X255667Y162954D01*
X255560Y161900D01*
X255507Y160611D01*
X255500Y159878D01*
X250500D01*
X250493Y160611D01*
X250333Y162954D01*
X250259Y163393D01*
X250172Y163773D01*
X250072Y164094D01*
X249958Y164357D01*
X249830Y164560D01*
X256170D01*
X256042Y164357D01*
D02*
G37*
G36*
X255507Y139389D02*
X255667Y137045D01*
X255741Y136607D01*
X255828Y136227D01*
X255928Y135906D01*
X256042Y135643D01*
X256170Y135440D01*
X249830D01*
X249958Y135643D01*
X250072Y135906D01*
X250172Y136227D01*
X250259Y136607D01*
X250333Y137045D01*
X250440Y138100D01*
X250493Y139389D01*
X250500Y140122D01*
X255500D01*
X255507Y139389D01*
D02*
G37*
%LPC*%
G36*
X589477Y342450D02*
X586523D01*
X583625Y341874D01*
X580895Y340743D01*
X578438Y339101D01*
X576349Y337012D01*
X574707Y334555D01*
X573577Y331825D01*
X573000Y328927D01*
Y325973D01*
X573577Y323075D01*
X574707Y320345D01*
X576349Y317888D01*
X578438Y315799D01*
X580895Y314157D01*
X583625Y313027D01*
X586523Y312450D01*
X589477D01*
X592375Y313027D01*
X595105Y314157D01*
X597562Y315799D01*
X599651Y317888D01*
X601293Y320345D01*
X602424Y323075D01*
X603000Y325973D01*
Y328927D01*
X602424Y331825D01*
X601293Y334555D01*
X599651Y337012D01*
X597562Y339101D01*
X595105Y340743D01*
X592375Y341874D01*
X589477Y342450D01*
D02*
G37*
G36*
X620322Y325650D02*
X616678D01*
X613104Y324939D01*
X609737Y323545D01*
X606707Y321520D01*
X604130Y318943D01*
X602105Y315913D01*
X600711Y312546D01*
X600000Y308972D01*
Y305328D01*
X600711Y301754D01*
X602105Y298387D01*
X604130Y295357D01*
X606707Y292780D01*
X609737Y290756D01*
X613104Y289361D01*
X616678Y288650D01*
X620322D01*
X623896Y289361D01*
X627263Y290756D01*
X630293Y292780D01*
X632870Y295357D01*
X634894Y298387D01*
X636289Y301754D01*
X637000Y305328D01*
Y308972D01*
X636289Y312546D01*
X634894Y315913D01*
X632870Y318943D01*
X630293Y321520D01*
X627263Y323545D01*
X623896Y324939D01*
X620322Y325650D01*
D02*
G37*
G36*
X530785Y303450D02*
X528415D01*
X526126Y302837D01*
X524074Y301652D01*
X522398Y299976D01*
X521213Y297924D01*
X520600Y295635D01*
Y293265D01*
X521213Y290976D01*
X522398Y288924D01*
X524074Y287248D01*
X526126Y286063D01*
X528415Y285450D01*
X530785D01*
X533074Y286063D01*
X535126Y287248D01*
X536802Y288924D01*
X537987Y290976D01*
X538600Y293265D01*
Y295635D01*
X537987Y297924D01*
X536802Y299976D01*
X535126Y301652D01*
X533074Y302837D01*
X530785Y303450D01*
D02*
G37*
G36*
X556185Y290750D02*
X553815D01*
X551526Y290137D01*
X549474Y288952D01*
X547798Y287276D01*
X546613Y285224D01*
X546000Y282935D01*
Y280565D01*
X546613Y278276D01*
X547798Y276224D01*
X549474Y274548D01*
X551526Y273363D01*
X553815Y272750D01*
X556185D01*
X558474Y273363D01*
X560526Y274548D01*
X562202Y276224D01*
X563387Y278276D01*
X564000Y280565D01*
Y282935D01*
X563387Y285224D01*
X562202Y287276D01*
X560526Y288952D01*
X558474Y290137D01*
X556185Y290750D01*
D02*
G37*
G36*
X530785Y278050D02*
X528415D01*
X526126Y277437D01*
X524074Y276252D01*
X522398Y274576D01*
X521213Y272524D01*
X520600Y270235D01*
Y267865D01*
X521213Y265576D01*
X522398Y263524D01*
X524074Y261848D01*
X526126Y260663D01*
X528415Y260050D01*
X530785D01*
X533074Y260663D01*
X535126Y261848D01*
X536802Y263524D01*
X537987Y265576D01*
X538600Y267865D01*
Y270235D01*
X537987Y272524D01*
X536802Y274576D01*
X535126Y276252D01*
X533074Y277437D01*
X530785Y278050D01*
D02*
G37*
G36*
X556185Y265350D02*
X553815D01*
X551526Y264737D01*
X549474Y263552D01*
X547798Y261876D01*
X546613Y259824D01*
X546000Y257535D01*
Y255165D01*
X546613Y252876D01*
X547798Y250824D01*
X549474Y249148D01*
X551526Y247963D01*
X553815Y247350D01*
X556185D01*
X558474Y247963D01*
X560526Y249148D01*
X562202Y250824D01*
X563387Y252876D01*
X564000Y255165D01*
Y257535D01*
X563387Y259824D01*
X562202Y261876D01*
X560526Y263552D01*
X558474Y264737D01*
X556185Y265350D01*
D02*
G37*
G36*
X508194Y276000D02*
X505807D01*
X503601Y275086D01*
X501913Y273399D01*
X501000Y271194D01*
Y268806D01*
X501913Y266601D01*
X502190Y266325D01*
X503231Y262272D01*
X503246Y262076D01*
X503391Y261474D01*
X503432Y261262D01*
X503455Y261205D01*
X504224Y258005D01*
X505826Y254137D01*
X508014Y250567D01*
X510733Y247383D01*
X513917Y244664D01*
X515092Y243943D01*
X515190Y243845D01*
X518433Y241673D01*
X520047Y240478D01*
X521259Y239466D01*
X521673Y239072D01*
X521980Y238740D01*
X522220Y238432D01*
X522398Y238124D01*
X524074Y236448D01*
X526126Y235263D01*
X528415Y234650D01*
X530785D01*
X533074Y235263D01*
X535126Y236448D01*
X536802Y238124D01*
X537987Y240176D01*
X538600Y242465D01*
Y244835D01*
X537987Y247124D01*
X536802Y249176D01*
X535126Y250852D01*
X533074Y252037D01*
X530785Y252650D01*
X528415D01*
X526680Y252185D01*
X526593Y252174D01*
X526409Y252113D01*
X526126Y252037D01*
X526048Y251992D01*
X525236Y251720D01*
X524019Y251375D01*
X522909Y251124D01*
X521908Y250966D01*
X521022Y250895D01*
X520257Y250905D01*
X519614Y250983D01*
X519091Y251117D01*
X518742Y251264D01*
X516474Y253124D01*
X514166Y255937D01*
X512451Y259146D01*
X511394Y262629D01*
X511239Y264206D01*
X511258Y264566D01*
X511307Y264944D01*
X511384Y265298D01*
X511488Y265633D01*
X511618Y265953D01*
X511777Y266261D01*
X511830Y266345D01*
X512087Y266601D01*
X513000Y268806D01*
Y271194D01*
X512087Y273399D01*
X510399Y275086D01*
X508194Y276000D01*
D02*
G37*
G36*
X556185Y239950D02*
X553815D01*
X551526Y239337D01*
X549474Y238152D01*
X547798Y236476D01*
X546613Y234424D01*
X546000Y232135D01*
Y229765D01*
X546613Y227476D01*
X547798Y225424D01*
X549474Y223748D01*
X551526Y222563D01*
X553815Y221950D01*
X556185D01*
X558474Y222563D01*
X560526Y223748D01*
X562202Y225424D01*
X563387Y227476D01*
X564000Y229765D01*
Y232135D01*
X563387Y234424D01*
X562202Y236476D01*
X560526Y238152D01*
X558474Y239337D01*
X556185Y239950D01*
D02*
G37*
G36*
X416181Y259564D02*
X409181D01*
X405681Y256064D01*
Y249064D01*
X409181Y245564D01*
X410180D01*
X410272Y245180D01*
X410373Y244486D01*
X410412Y243964D01*
Y231414D01*
X410405Y231245D01*
X410311Y230317D01*
X410258Y230004D01*
X410202Y229760D01*
X410169Y229654D01*
X409913Y229399D01*
X409000Y227194D01*
Y224806D01*
X409913Y222601D01*
X411601Y220914D01*
X413806Y220000D01*
X416194D01*
X418399Y220914D01*
X420087Y222601D01*
X421000Y224806D01*
Y227194D01*
X420087Y229399D01*
X419831Y229654D01*
X419798Y229760D01*
X419742Y230004D01*
X419695Y230285D01*
X419588Y231843D01*
Y248678D01*
X419597Y248980D01*
X419681Y249064D01*
Y250125D01*
X419687Y250169D01*
X419681Y250196D01*
Y256064D01*
X416181Y259564D01*
D02*
G37*
G36*
X469944Y250000D02*
X467556D01*
X465351Y249086D01*
X463663Y247399D01*
X462750Y245194D01*
Y242806D01*
X463663Y240601D01*
X465265Y239000D01*
X463663Y237399D01*
X462750Y235194D01*
Y232806D01*
X463663Y230601D01*
X465351Y228913D01*
X467556Y228000D01*
X469944D01*
X472149Y228913D01*
X473837Y230601D01*
X473975Y230935D01*
X474149Y231183D01*
X474500Y231626D01*
X474838Y231996D01*
X475158Y232296D01*
X475456Y232530D01*
X475729Y232702D01*
X475977Y232822D01*
X476203Y232899D01*
X476360Y232931D01*
X487500D01*
X487659Y232963D01*
X490860Y232542D01*
X493992Y231245D01*
X496681Y229181D01*
X498745Y226492D01*
X500042Y223361D01*
X500463Y220159D01*
X500431Y220000D01*
Y216964D01*
X498431Y216566D01*
X498087Y217399D01*
X496399Y219087D01*
X494193Y220000D01*
X491806D01*
X489601Y219087D01*
X487914Y217399D01*
X487000Y215194D01*
Y212806D01*
X487914Y210601D01*
X488701Y209814D01*
X488909Y207900D01*
X488909D01*
X489272Y203287D01*
X490353Y198787D01*
X492123Y194511D01*
X494541Y190566D01*
X497547Y187047D01*
X497547Y187047D01*
X498961Y185633D01*
X499047Y185547D01*
X499047Y185547D01*
X502566Y182541D01*
X506511Y180123D01*
X510787Y178353D01*
X515287Y177272D01*
X519900Y176909D01*
Y176922D01*
X523505D01*
X524236Y176867D01*
X524673Y176803D01*
X525080Y176721D01*
X525432Y176627D01*
X525731Y176525D01*
X525975Y176418D01*
X526167Y176313D01*
X526277Y176238D01*
X526601Y175913D01*
X528806Y175000D01*
X531194D01*
X533399Y175913D01*
X535087Y177601D01*
X536000Y179806D01*
Y182194D01*
X535087Y184399D01*
X533399Y186087D01*
X531194Y187000D01*
X528806D01*
X526601Y186087D01*
X526277Y185762D01*
X526167Y185687D01*
X525975Y185582D01*
X525731Y185475D01*
X525432Y185373D01*
X525080Y185279D01*
X524673Y185197D01*
X524236Y185133D01*
X523505Y185078D01*
X519900D01*
X519717Y185042D01*
X515730Y185435D01*
X511720Y186651D01*
X508024Y188626D01*
X506294Y190046D01*
X504823Y191323D01*
X503323Y192823D01*
X503169Y192927D01*
X500627Y196024D01*
X498651Y199720D01*
X497435Y203730D01*
X497042Y207717D01*
X497078Y207900D01*
Y209593D01*
X498087Y210601D01*
X500113Y210268D01*
X500406Y210000D01*
X500782Y206177D01*
X501897Y202502D01*
X503708Y199114D01*
X506145Y196145D01*
X509114Y193708D01*
X512502Y191897D01*
X516177Y190782D01*
X520000Y190406D01*
Y190431D01*
X525752D01*
Y190382D01*
X529335Y190853D01*
X532674Y192236D01*
X535541Y194436D01*
X535506Y194472D01*
X535506Y194472D01*
X538680Y197646D01*
X538682Y197649D01*
X538685Y197651D01*
X538708Y197686D01*
X540916Y199498D01*
X542762Y200484D01*
X542969Y200521D01*
X543459Y200527D01*
X544095Y200453D01*
X544868Y200281D01*
X545767Y200000D01*
X546760Y199615D01*
X549155Y198462D01*
X550492Y197715D01*
X550669Y197658D01*
X551526Y197163D01*
X553815Y196550D01*
X556185D01*
X558474Y197163D01*
X560526Y198348D01*
X562202Y200024D01*
X563387Y202076D01*
X564000Y204365D01*
Y206735D01*
X563387Y209024D01*
X562202Y211076D01*
X560526Y212752D01*
X558474Y213937D01*
X556185Y214550D01*
X553815D01*
X551526Y213937D01*
X549474Y212752D01*
X548814Y212092D01*
X548676Y212007D01*
X548211Y211577D01*
X547732Y211187D01*
X546427Y210286D01*
X545718Y209857D01*
X542345Y208157D01*
X540890Y208974D01*
X540514Y209480D01*
X540505Y209503D01*
X540570Y210000D01*
X540569D01*
Y210586D01*
X540542Y210718D01*
X540322Y212391D01*
X539625Y214073D01*
X538598Y215411D01*
X538523Y215523D01*
X538258Y215789D01*
X538600Y217065D01*
Y219435D01*
X537987Y221724D01*
X536802Y223776D01*
X535126Y225452D01*
X533074Y226637D01*
X530785Y227250D01*
X528415D01*
X526126Y226637D01*
X524074Y225452D01*
X522398Y223776D01*
X521213Y221724D01*
X520600Y219435D01*
Y217065D01*
X521213Y214776D01*
X522398Y212724D01*
X524074Y211048D01*
X526126Y209863D01*
X528415Y209250D01*
X530291D01*
X531062Y207976D01*
X531201Y207332D01*
X528342Y204472D01*
X526916Y203084D01*
X525737Y202595D01*
X523747Y202569D01*
X520000D01*
X519984Y202565D01*
X518075Y202817D01*
X516282Y203560D01*
X514742Y204741D01*
X513560Y206282D01*
X512817Y208075D01*
X512565Y209984D01*
X512569Y210000D01*
Y220000D01*
X512621D01*
X512138Y224901D01*
X510709Y229613D01*
X508387Y233957D01*
X505263Y237763D01*
X501456Y240887D01*
X497113Y243209D01*
X492401Y244638D01*
X487500Y245121D01*
Y245069D01*
X476360D01*
X476203Y245101D01*
X475977Y245178D01*
X475729Y245298D01*
X475456Y245471D01*
X475158Y245704D01*
X474838Y246004D01*
X474500Y246374D01*
X474149Y246816D01*
X473975Y247065D01*
X473837Y247399D01*
X472149Y249086D01*
X469944Y250000D01*
D02*
G37*
G36*
X589477Y187550D02*
X586523D01*
X583625Y186973D01*
X580895Y185843D01*
X578438Y184201D01*
X576349Y182112D01*
X574707Y179655D01*
X573577Y176925D01*
X573000Y174027D01*
Y171073D01*
X573577Y168175D01*
X574707Y165445D01*
X576349Y162988D01*
X578438Y160899D01*
X580895Y159257D01*
X583625Y158126D01*
X586523Y157550D01*
X589477D01*
X592375Y158126D01*
X595105Y159257D01*
X597562Y160899D01*
X599651Y162988D01*
X601293Y165445D01*
X602424Y168175D01*
X603000Y171073D01*
Y174027D01*
X602424Y176925D01*
X601293Y179655D01*
X599651Y182112D01*
X597562Y184201D01*
X595105Y185843D01*
X592375Y186973D01*
X589477Y187550D01*
D02*
G37*
G36*
X405193Y172000D02*
X402807D01*
X400601Y171087D01*
X398913Y169399D01*
X398000Y167194D01*
Y165756D01*
X397508Y164649D01*
X396801Y163325D01*
X396543Y162475D01*
X396494Y162364D01*
X396457Y162202D01*
X396385Y162053D01*
X396377Y161929D01*
X395763Y159902D01*
X395412Y156346D01*
X395412Y156343D01*
Y147914D01*
X395405Y147745D01*
X395311Y146817D01*
X395258Y146504D01*
X395202Y146260D01*
X395169Y146154D01*
X394913Y145899D01*
X394000Y143694D01*
Y141306D01*
X394913Y139101D01*
X395169Y138846D01*
X395202Y138740D01*
X395258Y138496D01*
X395305Y138215D01*
X395412Y136657D01*
Y127914D01*
X395405Y127745D01*
X395311Y126818D01*
X395258Y126504D01*
X395202Y126260D01*
X395169Y126154D01*
X394913Y125899D01*
X394000Y123694D01*
Y121306D01*
X394913Y119101D01*
X396601Y117414D01*
X398806Y116500D01*
X401194D01*
X403399Y117414D01*
X405087Y119101D01*
X406000Y121306D01*
Y123694D01*
X405087Y125899D01*
X404831Y126154D01*
X404798Y126260D01*
X404742Y126504D01*
X404695Y126785D01*
X404588Y128343D01*
Y137086D01*
X404595Y137255D01*
X404689Y138183D01*
X404742Y138496D01*
X404798Y138740D01*
X404831Y138846D01*
X405087Y139101D01*
X406000Y141306D01*
Y143694D01*
X405087Y145899D01*
X404831Y146154D01*
X404798Y146260D01*
X404742Y146504D01*
X404695Y146785D01*
X404588Y148343D01*
Y156343D01*
X404565Y156461D01*
X404846Y158595D01*
X404880Y158708D01*
X405011Y159036D01*
X405159Y159323D01*
X405322Y159574D01*
X405503Y159796D01*
X405704Y159995D01*
X405931Y160177D01*
X406191Y160343D01*
X406574Y160538D01*
X406663Y160609D01*
X407399Y160913D01*
X409087Y162601D01*
X410000Y164806D01*
Y167194D01*
X409087Y169399D01*
X407399Y171087D01*
X405193Y172000D01*
D02*
G37*
G36*
X347500Y96117D02*
X312500D01*
X311909Y96000D01*
X311306D01*
X310750Y95769D01*
X310159Y95652D01*
X309658Y95317D01*
X309101Y95087D01*
X308675Y94661D01*
X308174Y94326D01*
X307840Y93825D01*
X307414Y93399D01*
X307183Y92842D01*
X306848Y92341D01*
X306731Y91750D01*
X306500Y91194D01*
Y90591D01*
X306383Y90000D01*
X306500Y89409D01*
Y88806D01*
X306731Y88250D01*
X306848Y87659D01*
X307183Y87158D01*
X307414Y86601D01*
X307840Y86175D01*
X308174Y85674D01*
X308675Y85339D01*
X309101Y84913D01*
X309658Y84683D01*
X310159Y84348D01*
X310750Y84231D01*
X311306Y84000D01*
X311909D01*
X312500Y83883D01*
X347500D01*
X348091Y84000D01*
X348694D01*
X349250Y84231D01*
X349841Y84348D01*
X350342Y84683D01*
X350899Y84913D01*
X351325Y85339D01*
X351826Y85674D01*
X352160Y86175D01*
X352587Y86601D01*
X352817Y87158D01*
X353152Y87659D01*
X353269Y88250D01*
X353500Y88806D01*
Y89409D01*
X353618Y90000D01*
X353500Y90591D01*
Y91194D01*
X353269Y91750D01*
X353152Y92341D01*
X352817Y92842D01*
X352587Y93399D01*
X352160Y93825D01*
X351826Y94326D01*
X351325Y94661D01*
X350899Y95087D01*
X350342Y95317D01*
X349841Y95652D01*
X349250Y95769D01*
X348694Y96000D01*
X348091D01*
X347500Y96117D01*
D02*
G37*
G36*
X427000Y50000D02*
X425500D01*
Y44500D01*
X431000D01*
Y46000D01*
X427000Y50000D01*
D02*
G37*
G36*
X420500D02*
X419000D01*
X415000Y46000D01*
Y44500D01*
X420500D01*
Y50000D01*
D02*
G37*
%LPD*%
G36*
X510005Y267274D02*
X509765Y266807D01*
X509566Y266321D01*
X509410Y265817D01*
X509297Y265294D01*
X509225Y264752D01*
X509196Y264192D01*
X509210Y263613D01*
X509265Y263015D01*
X509363Y262399D01*
X505434Y261651D01*
X505242Y262640D01*
X504059Y267244D01*
X503955Y267406D01*
X510288Y267722D01*
X510005Y267274D01*
D02*
G37*
G36*
X523848Y239662D02*
X523535Y240062D01*
X523125Y240505D01*
X522617Y240989D01*
X521308Y242081D01*
X519608Y243340D01*
X516325Y245540D01*
X517101Y249875D01*
X517726Y249479D01*
X518438Y249179D01*
X519236Y248975D01*
X520121Y248867D01*
X521092Y248855D01*
X522149Y248940D01*
X523292Y249121D01*
X524522Y249398D01*
X525838Y249771D01*
X527240Y250240D01*
X523848Y239662D01*
D02*
G37*
G36*
X417622Y250000D02*
X417596Y249825D01*
X417574Y249552D01*
X417514Y247492D01*
X417500Y244929D01*
X412500Y242594D01*
X412475Y243718D01*
X412401Y244708D01*
X412277Y245565D01*
X412104Y246287D01*
X411880Y246876D01*
X411608Y247331D01*
X411286Y247652D01*
X410914Y247839D01*
X410493Y247892D01*
X410022Y247812D01*
X417650Y250079D01*
X417622Y250000D01*
D02*
G37*
G36*
X417507Y232389D02*
X417667Y230046D01*
X417741Y229607D01*
X417828Y229227D01*
X417929Y228906D01*
X418042Y228643D01*
X418170Y228440D01*
X411830D01*
X411958Y228643D01*
X412071Y228906D01*
X412172Y229227D01*
X412259Y229607D01*
X412333Y230046D01*
X412440Y231100D01*
X412493Y232389D01*
X412500Y233123D01*
X417500D01*
X417507Y232389D01*
D02*
G37*
G36*
X472514Y245596D02*
X472946Y245051D01*
X473385Y244571D01*
X473830Y244154D01*
X474280Y243801D01*
X474737Y243513D01*
X475199Y243288D01*
X475668Y243128D01*
X476142Y243032D01*
X476623Y243000D01*
X472767Y240000D01*
X469977Y240193D01*
X472087Y246205D01*
X472514Y245596D01*
D02*
G37*
G36*
X468875Y237998D02*
X469000Y237992D01*
X469371Y237952D01*
X469493Y237931D01*
X469857Y237844D01*
X469977Y237807D01*
X470088Y237490D01*
X468750Y238000D01*
X468875Y237998D01*
D02*
G37*
G36*
X476623Y235000D02*
X476142Y234968D01*
X475668Y234872D01*
X475199Y234712D01*
X474737Y234487D01*
X474280Y234199D01*
X473830Y233846D01*
X473385Y233430D01*
X472946Y232949D01*
X472514Y232404D01*
X472087Y231795D01*
X470088Y237490D01*
X476623Y235000D01*
D02*
G37*
G36*
X495081Y210557D02*
X495064Y210468D01*
X495049Y210327D01*
X495016Y209596D01*
X495000Y207900D01*
X491000D01*
X490900Y210596D01*
X495100D01*
X495081Y210557D01*
D02*
G37*
G36*
X551486Y199496D02*
X550095Y200272D01*
X547572Y201487D01*
X546440Y201926D01*
X545395Y202253D01*
X544436Y202467D01*
X543563Y202568D01*
X542776Y202557D01*
X542076Y202434D01*
X541463Y202198D01*
X541370Y205465D01*
X542596Y206000D01*
X546706Y208071D01*
X547535Y208573D01*
X548956Y209555D01*
X549548Y210036D01*
X550061Y210510D01*
X551486Y199496D01*
D02*
G37*
G36*
X527560Y177830D02*
X527236Y178053D01*
X526873Y178251D01*
X526470Y178427D01*
X526027Y178579D01*
X525544Y178708D01*
X525022Y178813D01*
X524460Y178895D01*
X523217Y178988D01*
X522536Y179000D01*
Y183000D01*
X523217Y183012D01*
X524460Y183105D01*
X525022Y183187D01*
X525544Y183292D01*
X526027Y183421D01*
X526470Y183573D01*
X526873Y183749D01*
X527236Y183947D01*
X527560Y184170D01*
Y177830D01*
D02*
G37*
G36*
X405647Y162355D02*
X405175Y162114D01*
X404741Y161836D01*
X404346Y161520D01*
X403990Y161167D01*
X403673Y160777D01*
X403394Y160350D01*
X403154Y159885D01*
X402953Y159382D01*
X402791Y158843D01*
X402667Y158266D01*
X398357Y161536D01*
X400053Y165353D01*
X405647Y162355D01*
D02*
G37*
G36*
X402507Y148889D02*
X402667Y146546D01*
X402741Y146107D01*
X402828Y145727D01*
X402929Y145406D01*
X403042Y145143D01*
X403170Y144940D01*
X396830D01*
X396958Y145143D01*
X397071Y145406D01*
X397172Y145727D01*
X397259Y146107D01*
X397333Y146546D01*
X397440Y147600D01*
X397493Y148889D01*
X397500Y149622D01*
X402500D01*
X402507Y148889D01*
D02*
G37*
G36*
X403042Y139857D02*
X402929Y139594D01*
X402828Y139273D01*
X402741Y138893D01*
X402667Y138454D01*
X402560Y137400D01*
X402507Y136111D01*
X402500Y135378D01*
X397500D01*
X397493Y136111D01*
X397333Y138454D01*
X397259Y138893D01*
X397172Y139273D01*
X397071Y139594D01*
X396958Y139857D01*
X396830Y140060D01*
X403170D01*
X403042Y139857D01*
D02*
G37*
G36*
X402507Y128889D02*
X402667Y126546D01*
X402741Y126107D01*
X402828Y125727D01*
X402929Y125406D01*
X403042Y125143D01*
X403170Y124940D01*
X396830D01*
X396958Y125143D01*
X397071Y125406D01*
X397172Y125727D01*
X397259Y126107D01*
X397333Y126546D01*
X397440Y127600D01*
X397493Y128889D01*
X397500Y129622D01*
X402500D01*
X402507Y128889D01*
D02*
G37*
D10*
X501940Y188440D02*
G03*
X519900Y181000I17960J17960D01*
G01*
X493000Y207900D02*
G03*
X500439Y189939I25400J0D01*
G01*
X507000Y266250D02*
G03*
X529600Y243650I22600J0D01*
G01*
X519900Y181000D02*
X530000D01*
X500439Y189939D02*
X501940Y188440D01*
X493000Y207900D02*
Y214000D01*
X507000Y266250D02*
Y270000D01*
X555000Y230000D02*
Y230950D01*
D20*
Y205550D02*
D03*
X529600Y218250D02*
D03*
X555000Y230950D02*
D03*
X529600Y243650D02*
D03*
X555000Y256350D02*
D03*
X529600Y269050D02*
D03*
X555000Y281750D02*
D03*
X529600Y294450D02*
D03*
D28*
X543000Y438000D02*
G03*
X539000Y428343I9657J-9657D01*
G01*
X404000Y166000D02*
G03*
X400000Y156343I9657J-9657D01*
G01*
X288000Y48993D02*
G03*
X295439Y31032I25400J0D01*
G01*
X299197Y27274D02*
G03*
X314021Y22500I14824J20626D01*
G01*
X298000Y53000D02*
G03*
X320000Y31000I22000J-0D01*
G01*
X531979Y22500D02*
G03*
X549939Y29939I0J25400D01*
G01*
X528479Y31000D02*
G03*
X546440Y38440I0J25400D01*
G01*
X634561Y126560D02*
G03*
X642000Y144521I-17960J17960D01*
G01*
X647439Y270840D02*
G03*
X642000Y257707I13132J-13132D01*
G01*
X657439Y199039D02*
G03*
X650000Y181079I17960J-17960D01*
G01*
X642561Y122561D02*
G03*
X650000Y140521I-17960J17960D01*
G01*
X536879Y454879D02*
G03*
X539000Y460000I-5121J5121D01*
G01*
X162680Y362950D02*
G03*
X159191Y368809I-13296J-3949D01*
G01*
X163254Y359001D02*
G03*
X162680Y362950I-13870J0D01*
G01*
X93172Y377828D02*
G03*
X100000Y375000I6829J6829D01*
G01*
X315000Y356000D02*
Y390000D01*
X539000Y420000D02*
Y428343D01*
X400000Y142500D02*
Y156343D01*
X288000Y48993D02*
Y105000D01*
X295439Y31032D02*
X299197Y27274D01*
X298000Y53000D02*
Y111000D01*
X320000Y31000D02*
X528479D01*
X314021Y22500D02*
X531979D01*
X549939Y29939D02*
X642561Y122561D01*
X546440Y38440D02*
X634561Y126560D01*
X642000Y144521D02*
Y257707D01*
X135000Y249000D02*
X163000D01*
X135000Y297000D02*
X163000D01*
X657439Y199039D02*
X667500Y209100D01*
X650000Y140521D02*
Y181079D01*
X647439Y270840D02*
X667500Y290900D01*
X400000Y122500D02*
Y142500D01*
X415000Y226000D02*
Y250000D01*
X525000Y443000D02*
X536879Y454879D01*
X561000Y460000D02*
X575000D01*
X561000Y420000D02*
X575000D01*
X561000Y380000D02*
X575000D01*
X151000Y377000D02*
X159191Y368809D01*
X165000Y387500D02*
Y406000D01*
X226000Y240000D02*
X310000D01*
X267000Y254000D02*
Y278000D01*
X262500Y220000D02*
X283000D01*
X254000Y230000D02*
X300000D01*
X195000Y305000D02*
X290000D01*
X253000Y133000D02*
Y167000D01*
X86000Y385000D02*
X93172Y377828D01*
D29*
X549147Y205550D02*
G03*
X536162Y200174I0J-18370D01*
G01*
X504000Y220000D02*
G03*
X487500Y236500I-16500J0D01*
G01*
X525752Y194000D02*
G03*
X532983Y196995I0J10226D01*
G01*
X504000Y210000D02*
G03*
X520000Y194000I16000J0D01*
G01*
X537000Y210586D02*
G03*
X536000Y213000I-3414J0D01*
G01*
X535646Y206729D02*
G03*
X537000Y210000I-3273J3271D01*
G01*
X535645Y206728D02*
G03*
X535646Y206729I-3272J3272D01*
G01*
X525737Y199000D02*
G03*
X529458Y200542I0J5263D01*
G01*
X509000Y210000D02*
G03*
X520000Y199000I11000J0D01*
G01*
X509000Y220000D02*
G03*
X487500Y241500I-21500J0D01*
G01*
X531563Y217437D02*
G03*
X529600Y218250I-1963J-1963D01*
G01*
X536162Y200174D02*
G03*
X536157Y200169I12985J-12994D01*
G01*
X262500Y220000D02*
X262500Y220000D01*
X549147Y205550D02*
X555000D01*
X468750Y236500D02*
X487500D01*
X504000Y210000D02*
Y220000D01*
X532983Y196995D02*
X536157Y200169D01*
X520000Y194000D02*
X525752D01*
X537000Y210000D02*
Y210586D01*
X509000Y210000D02*
Y220000D01*
X531563Y217437D02*
X536000Y213000D01*
X535645Y206728D02*
X535646Y206729D01*
X529458Y200542D02*
X535645Y206728D01*
X520000Y199000D02*
X525737D01*
X468750Y241500D02*
X487500D01*
D30*
X561000Y460000D02*
D03*
X539000D02*
D03*
X561000Y420000D02*
D03*
X539000D02*
D03*
Y380000D02*
D03*
X561000D02*
D03*
X86000Y385000D02*
D03*
X64000D02*
D03*
D31*
X312500Y90000D02*
X327500D01*
X347500D01*
D32*
X377000Y292000D02*
D03*
X423000Y42000D02*
D03*
X412681Y252564D02*
D03*
X463000Y356000D02*
D03*
D33*
X115000Y178000D02*
D03*
D34*
X39600Y301600D02*
D03*
X65000D02*
D03*
X39600Y276200D02*
D03*
X65000D02*
D03*
X39600Y250800D02*
D03*
X65000D02*
D03*
X39600Y225400D02*
D03*
X65000D02*
D03*
X39600Y200000D02*
D03*
D35*
X65000D02*
D03*
D36*
X400000Y350600D02*
D03*
Y399400D02*
D03*
X210000Y125600D02*
D03*
Y174400D02*
D03*
D37*
X588000Y172550D02*
D03*
Y327450D02*
D03*
D38*
X618500Y192850D02*
D03*
Y307150D02*
D03*
D39*
X667500Y183700D02*
D03*
Y209100D02*
D03*
Y316300D02*
D03*
Y290900D02*
D03*
D40*
X170800Y465000D02*
D03*
X196200D02*
D03*
X145400D02*
D03*
D41*
X120000D02*
D03*
D42*
X650000Y50000D02*
D03*
Y450000D02*
D03*
X50000Y50000D02*
D03*
Y450000D02*
D03*
D43*
X85000Y247500D02*
D03*
X525000Y460000D02*
D03*
X570000Y432500D02*
D03*
X572500Y395000D02*
D03*
X592500Y435000D02*
D03*
X627500Y395000D02*
D03*
X565000Y315000D02*
D03*
X373000Y449000D02*
D03*
X278000D02*
D03*
X315000D02*
D03*
X291000Y410000D02*
D03*
X220000Y446000D02*
D03*
X315000Y390000D02*
D03*
X126000Y187000D02*
D03*
X555000Y439000D02*
D03*
X393000Y412000D02*
D03*
Y337000D02*
D03*
X505000Y317000D02*
D03*
X458000Y311000D02*
D03*
X191000Y180000D02*
D03*
X195000Y110000D02*
D03*
X355000Y355000D02*
D03*
X325000Y325000D02*
D03*
X330000Y280000D02*
D03*
X295000D02*
D03*
X395000Y305000D02*
D03*
X360000Y270000D02*
D03*
X324865Y251756D02*
D03*
X590000Y465000D02*
D03*
X640000Y365000D02*
D03*
X674174Y393773D02*
D03*
X675000Y365000D02*
D03*
X435000Y345000D02*
D03*
X483000Y426000D02*
D03*
X431000D02*
D03*
X482804Y449207D02*
D03*
X405832Y475967D02*
D03*
X330000Y475000D02*
D03*
X475000D02*
D03*
X430000Y449000D02*
D03*
X352000Y419000D02*
D03*
X345000Y390000D02*
D03*
X176000Y405000D02*
D03*
X113160Y287220D02*
D03*
X140000Y315000D02*
D03*
X115000Y350000D02*
D03*
X140000Y365000D02*
D03*
X90000Y405000D02*
D03*
X110000Y435000D02*
D03*
X25000Y365000D02*
D03*
X75000Y330000D02*
D03*
X25000D02*
D03*
X590000Y305000D02*
D03*
X595000Y195000D02*
D03*
X580000Y220000D02*
D03*
X570000Y255000D02*
D03*
X545000Y245000D02*
D03*
X507023Y283864D02*
D03*
X490000Y225000D02*
D03*
X465000Y215000D02*
D03*
X517770Y339972D02*
D03*
X275000Y53000D02*
D03*
X265000Y35000D02*
D03*
Y70000D02*
D03*
X390000Y40000D02*
D03*
X482000D02*
D03*
X630000Y215000D02*
D03*
X632000Y165000D02*
D03*
X620000Y126000D02*
D03*
X575000Y81000D02*
D03*
X530000Y40000D02*
D03*
X509000Y115000D02*
D03*
X457000Y121000D02*
D03*
X443000D02*
D03*
X550000Y145000D02*
D03*
X568000Y162000D02*
D03*
X635000Y288000D02*
D03*
X572000Y340000D02*
D03*
X464000D02*
D03*
X434000Y310000D02*
D03*
X400000Y276000D02*
D03*
X371000Y247000D02*
D03*
X398000D02*
D03*
X392000Y219000D02*
D03*
X315000Y175000D02*
D03*
X304517Y204614D02*
D03*
X360000Y209000D02*
D03*
X389600Y187521D02*
D03*
X378000Y192000D02*
D03*
X351000Y157000D02*
D03*
X335000Y141000D02*
D03*
X365000Y165000D02*
D03*
Y138000D02*
D03*
Y125000D02*
D03*
X352000D02*
D03*
X337000D02*
D03*
X319000D02*
D03*
X225000Y52500D02*
D03*
X487500Y282500D02*
D03*
X208000Y320000D02*
D03*
X198000Y269000D02*
D03*
X205000Y287000D02*
D03*
X204000Y255000D02*
D03*
X185000D02*
D03*
X277000Y474000D02*
D03*
X269000Y400000D02*
D03*
X200000Y392000D02*
D03*
X272000Y320000D02*
D03*
X280000Y342000D02*
D03*
X212000Y141000D02*
D03*
Y160000D02*
D03*
X330000Y157000D02*
D03*
X345000Y172000D02*
D03*
X315000Y142000D02*
D03*
X163000Y249000D02*
D03*
Y297000D02*
D03*
X135000Y249000D02*
D03*
Y297000D02*
D03*
X321000Y40000D02*
D03*
X404000Y166000D02*
D03*
X530000Y181000D02*
D03*
X543000Y399000D02*
D03*
X575000Y460000D02*
D03*
Y420000D02*
D03*
Y380000D02*
D03*
X339000Y300000D02*
D03*
X374000Y423000D02*
D03*
X372000Y328000D02*
D03*
X543000Y438000D02*
D03*
X525000Y443000D02*
D03*
X165000Y406000D02*
D03*
X237000Y197000D02*
D03*
X226000Y240000D02*
D03*
X267000Y278000D02*
D03*
X310000Y240000D02*
D03*
X262500Y220000D02*
D03*
X254000Y230000D02*
D03*
X300000D02*
D03*
X283000Y220000D02*
D03*
X267000Y254000D02*
D03*
X195000Y305000D02*
D03*
X151000Y377000D02*
D03*
X163254Y359001D02*
D03*
X288000Y105000D02*
D03*
X253000Y167000D02*
D03*
Y116000D02*
D03*
Y133000D02*
D03*
X298000Y111000D02*
D03*
X315000Y356000D02*
D03*
X64000Y368000D02*
D03*
X100000Y375000D02*
D03*
X507000Y270000D02*
D03*
X470000Y282500D02*
D03*
X369000Y52000D02*
D03*
X340000Y40000D02*
D03*
X312500Y90000D02*
D03*
X327500D02*
D03*
X347500D02*
D03*
X425000Y81000D02*
D03*
X397500Y72500D02*
D03*
X400000Y122500D02*
D03*
Y142500D02*
D03*
X415000Y226000D02*
D03*
X468750Y244000D02*
D03*
Y234000D02*
D03*
X493000Y214000D02*
D03*
X290000Y305000D02*
D03*
X115000Y395000D02*
D03*
X165000Y387500D02*
D03*
X58000Y113000D02*
D03*
X25000Y105000D02*
D03*
X81000Y100000D02*
D03*
X96000Y95000D02*
D03*
X115000D02*
D03*
X79000Y114000D02*
D03*
M02*
