M48
;Layer_Color=9474304
;FILE_FORMAT=4:4
METRIC,LZ
;TYPE=PLATED
T1F00S00C0.4000
T2F00S00C0.5000
T3F00S00C0.7000
T4F00S00C0.9000
T5F00S00C1.1000
T6F00S00C1.6000
T7F00S00C3.3000
T8F00S00C3.4000
%
T01
X00675Y00365
X00674174Y00393773
X006275Y00395
X0064Y00365
X00575Y0038
X005725Y00395
X00543Y00399
X0051777Y00339972
X00505Y00317
X00507023Y00283864
X00507Y0027
X004875Y002825
X0047
X0046875Y00244
Y00234
X00465Y00215
X00493Y00214
X0049Y00225
X00545Y00245
X0057Y00255
X0058Y0022
X00595Y00195
X0063Y00215
X00632Y00165
X0062Y00126
X00568Y00162
X0055Y00145
X0053Y00181
X00509Y00115
X00457Y00121
X00443
X004Y001225
Y001425
X00404Y00166
X003896Y00187521
X00378Y00192
X0036Y00209
X00392Y00219
X00415Y00226
X00398Y00247
X00371
X0036Y0027
X0033Y0028
X00339Y003
X00325Y00325
X00315Y00356
Y0039
X00345
X00355Y00355
X00372Y00328
X00393Y00337
X00395Y00305
X004Y00276
X00434Y0031
X00458Y00311
X00464Y0034
X00435Y00345
X00393Y00412
X00291Y0041
X00269Y004
X0028Y00342
X00272Y0032
X0029Y00305
X00295Y0028
X00267Y00278
Y00254
X00254Y0023
X002625Y0022
X00283Y0022
X003Y0023
X0031Y0024
X00324865Y00251756
X00304517Y00204614
X00315Y00175
X00345Y00172
X00351Y00157
X0033
X00335Y00141
X00337Y00125
X00352
X00365
Y00138
Y00165
X00315Y00142
X00319Y00125
X00298Y00111
X00288Y00105
X003125Y0009
X003275
X003475
X0034Y0004
X00321
X00275Y00053
X00265Y0007
Y00035
X00253Y00116
Y00133
Y00167
X00369Y00052
X0039Y0004
X003975Y000725
X00425Y00081
X00482Y0004
X0053
X00575Y00081
X0059Y00305
X00565Y00315
X00572Y0034
X00635Y00288
X00205Y00287
X00198Y00269
X00204Y00255
X00185
X00163Y00249
X00135
Y00297
X0014Y00315
X00163Y00297
X00195Y00305
X00208Y0032
X002Y00392
X00176Y00405
X00165Y00406
Y003875
X00151Y00377
X0014Y00365
X00163254Y00359001
X00115Y0035
X001Y00375
X00115Y00395
X0009Y00405
X00064Y00368
X00025Y00365
Y0033
X00075
X0011316Y0028722
X00085Y002475
X00126Y00187
X00191Y0018
X00212Y0016
Y00141
X00195Y0011
X00225Y000525
X00115Y00095
X00096
X00081Y001
X00079Y00114
X00058Y00113
X00025Y00105
X00237Y00197
X00226Y0024
X0022Y00446
X0011Y00435
X00278Y00449
X00277Y00474
X0033Y00475
X00315Y00449
X00373
X00374Y00423
X00352Y00419
X00431Y00426
X0043Y00449
X00405832Y00475967
X00475Y00475
X00482804Y00449207
X00483Y00426
X00525Y00443
Y0046
X00543Y00438
X00555Y00439
X0057Y004325
X00575Y0042
X005925Y00435
X0059Y00465
X00575Y0046
T02
X00423Y00042
X00412681Y00252564
X00377Y00292
X00463Y00356
X00115Y00178
T03
X004Y003506
Y003994
X0021Y001744
Y001256
T04
X005296Y0021825
Y0024365
Y0026905
Y0029445
X00555Y0028175
Y0025635
Y0023095
Y0020555
T05
X006675Y001837
Y002091
Y002909
Y003163
X00065Y003016
X000396
Y002762
X00065
Y002508
X000396
Y002254
X00065
Y002
X000396
X0012Y00465
X001454
X001708
X001962
T06
X00588Y0017255
Y0032745
T07
X006185Y0019285
Y0030715
T08
X0065Y0005
X0005
Y0045
X0065
M30
