G04*
G04 #@! TF.GenerationSoftware,Altium Limited,Altium Designer,22.11.1 (43)*
G04*
G04 Layer_Color=65535*
%FSLAX44Y44*%
%MOMM*%
G71*
G04*
G04 #@! TF.SameCoordinates,8DE4AF9F-CAA2-4086-90C6-F3C8F64AD1A9*
G04*
G04*
G04 #@! TF.FilePolarity,Positive*
G04*
G01*
G75*
%ADD10C,0.4000*%
%ADD11C,0.2000*%
%ADD12C,0.2500*%
%ADD13C,0.2540*%
%ADD14R,0.8000X0.3000*%
G36*
X185900Y100592D02*
X186532D01*
Y100466D01*
X186785D01*
Y100340D01*
X187038D01*
Y100213D01*
X187291D01*
Y100087D01*
X187543D01*
Y99960D01*
X187670D01*
Y99834D01*
X187796D01*
Y99708D01*
X187923D01*
Y99581D01*
X188049D01*
Y99455D01*
X188175D01*
Y99202D01*
X188302D01*
Y99076D01*
X188428D01*
Y98823D01*
X188554D01*
Y98444D01*
X188681D01*
Y98065D01*
X188807D01*
Y96801D01*
X188681D01*
Y96295D01*
X188554D01*
Y96043D01*
X188428D01*
Y95790D01*
X188302D01*
Y95537D01*
X188175D01*
Y95284D01*
X188049D01*
Y95158D01*
X187923D01*
Y95032D01*
X187796D01*
Y94905D01*
X187670D01*
Y94779D01*
X187543D01*
Y94652D01*
X187291D01*
Y94526D01*
X187038D01*
Y94400D01*
X186785D01*
Y94273D01*
X186406D01*
Y94147D01*
X185774D01*
Y94021D01*
X185142D01*
Y94147D01*
X184510D01*
Y94273D01*
X184258D01*
Y94400D01*
X183878D01*
Y94526D01*
X183752D01*
Y94652D01*
X183499D01*
Y94779D01*
X183373D01*
Y94905D01*
X183246D01*
Y95032D01*
X183120D01*
Y95158D01*
X182994D01*
Y95284D01*
X182867D01*
Y95411D01*
X182741D01*
Y95663D01*
X182614D01*
Y95916D01*
X182488D01*
Y96169D01*
X182362D01*
Y96548D01*
X182235D01*
Y98317D01*
X182362D01*
Y98697D01*
X182488D01*
Y98949D01*
X182614D01*
Y99202D01*
X182741D01*
Y99329D01*
X182867D01*
Y99455D01*
X182994D01*
Y99708D01*
X183120D01*
Y99834D01*
X183373D01*
Y99960D01*
X183499D01*
Y100087D01*
X183626D01*
Y100213D01*
X183878D01*
Y100340D01*
X184131D01*
Y100466D01*
X184510D01*
Y100592D01*
X185016D01*
Y100719D01*
X185900D01*
Y100592D01*
D02*
G37*
G36*
X180213Y93389D02*
X180087D01*
Y93262D01*
X177180D01*
Y83404D01*
X177054D01*
Y83531D01*
X176927D01*
Y83657D01*
X176801D01*
Y83784D01*
X176675D01*
Y83910D01*
X176422D01*
Y84036D01*
X176295D01*
Y84163D01*
X176169D01*
Y84289D01*
X176043D01*
Y84416D01*
X175916D01*
Y84542D01*
X175790D01*
Y84668D01*
X175664D01*
Y84795D01*
X175537D01*
Y84921D01*
X175411D01*
Y85047D01*
X175284D01*
Y85174D01*
X175158D01*
Y85300D01*
X175032D01*
Y85427D01*
X174905D01*
Y85553D01*
X174652D01*
Y85806D01*
X174400D01*
Y85932D01*
X174273D01*
Y86059D01*
X174147D01*
Y86185D01*
X174021D01*
Y86311D01*
X173894D01*
Y86438D01*
X173768D01*
Y86564D01*
X173641D01*
Y93262D01*
X166058D01*
Y93389D01*
X165932D01*
Y93515D01*
X165806D01*
Y93641D01*
X165553D01*
Y93768D01*
X165427D01*
Y93894D01*
X165300D01*
Y94021D01*
X165174D01*
Y94147D01*
X165047D01*
Y94273D01*
X164795D01*
Y94400D01*
X164668D01*
Y94526D01*
X164542D01*
Y94652D01*
X164415D01*
Y94779D01*
X164289D01*
Y94905D01*
X164163D01*
Y95032D01*
X163910D01*
Y95158D01*
X163784D01*
Y95284D01*
X163657D01*
Y95411D01*
X163531D01*
Y95537D01*
X163404D01*
Y95663D01*
X163152D01*
Y95790D01*
X163025D01*
Y95916D01*
X162899D01*
Y96043D01*
X162773D01*
Y96169D01*
X162646D01*
Y96295D01*
X162520D01*
Y96422D01*
X180213D01*
Y93389D01*
D02*
G37*
G36*
X160119Y96169D02*
X160245D01*
Y96043D01*
X160371D01*
Y95916D01*
X160498D01*
Y95790D01*
X160624D01*
Y95663D01*
X160750D01*
Y95537D01*
X160877D01*
Y95411D01*
X161003D01*
Y95284D01*
X161129D01*
Y95158D01*
X161256D01*
Y95032D01*
X161382D01*
Y94905D01*
X161509D01*
Y94779D01*
X161761D01*
Y94652D01*
X161888D01*
Y94526D01*
X162014D01*
Y94400D01*
X162141D01*
Y94273D01*
X162267D01*
Y94147D01*
X162393D01*
Y94021D01*
X162520D01*
Y93894D01*
X162646D01*
Y93768D01*
X162773D01*
Y93641D01*
X162899D01*
Y93515D01*
X163025D01*
Y93389D01*
X163152D01*
Y93262D01*
X163278D01*
Y93136D01*
X163404D01*
Y93010D01*
X163657D01*
Y92883D01*
X163784D01*
Y92757D01*
X163910D01*
Y92630D01*
X164036D01*
Y92504D01*
X164163D01*
Y92378D01*
X164289D01*
Y92251D01*
X164415D01*
Y92125D01*
X164542D01*
Y91998D01*
X164668D01*
Y91872D01*
X164795D01*
Y91746D01*
X164921D01*
Y91619D01*
X165047D01*
Y91493D01*
X165174D01*
Y91367D01*
X165300D01*
Y91240D01*
X165427D01*
Y91114D01*
X165679D01*
Y90987D01*
X165806D01*
Y90861D01*
X165932D01*
Y90735D01*
X166058D01*
Y90608D01*
X166185D01*
Y90482D01*
X166311D01*
Y90355D01*
X166438D01*
Y90229D01*
X166564D01*
Y90103D01*
X166690D01*
Y89976D01*
X166817D01*
Y89850D01*
X166943D01*
Y89724D01*
X167069D01*
Y89597D01*
X167196D01*
Y89471D01*
X167322D01*
Y89344D01*
X167449D01*
Y89218D01*
X167701D01*
Y89092D01*
X167828D01*
Y88965D01*
X167954D01*
Y88839D01*
X168081D01*
Y88713D01*
X168207D01*
Y88586D01*
X168333D01*
Y88460D01*
X168460D01*
Y88333D01*
X168586D01*
Y88207D01*
X168713D01*
Y88081D01*
X168839D01*
Y87954D01*
X168965D01*
Y87828D01*
X169092D01*
Y87701D01*
X169344D01*
Y87575D01*
X169471D01*
Y87449D01*
X169597D01*
Y87322D01*
X169723D01*
Y87196D01*
X169850D01*
Y87070D01*
X169976D01*
Y86943D01*
X170103D01*
Y86817D01*
X170229D01*
Y86690D01*
X170355D01*
Y86564D01*
X170482D01*
Y86438D01*
X170608D01*
Y86311D01*
X170735D01*
Y86185D01*
X170861D01*
Y86059D01*
X171114D01*
Y85806D01*
X171367D01*
Y85679D01*
X171493D01*
Y85553D01*
X171619D01*
Y85427D01*
X171746D01*
Y85300D01*
X171872D01*
Y85174D01*
X171998D01*
Y85047D01*
X172125D01*
Y84921D01*
X172251D01*
Y84795D01*
X172378D01*
Y84668D01*
X172504D01*
Y84542D01*
X172630D01*
Y84416D01*
X172757D01*
Y84289D01*
X172883D01*
Y84163D01*
X173009D01*
Y84036D01*
X173136D01*
Y83910D01*
X173389D01*
Y83784D01*
X173515D01*
Y83657D01*
X173641D01*
Y83531D01*
X173768D01*
Y83404D01*
X173894D01*
Y83278D01*
X169471D01*
Y83404D01*
X169344D01*
Y83531D01*
X169218D01*
Y83657D01*
X169092D01*
Y83784D01*
X168965D01*
Y83910D01*
X168713D01*
Y84036D01*
X168586D01*
Y84163D01*
X168460D01*
Y84289D01*
X168333D01*
Y84416D01*
X168207D01*
Y84542D01*
X168081D01*
Y84668D01*
X167954D01*
Y84795D01*
X167828D01*
Y84921D01*
X167701D01*
Y85047D01*
X167575D01*
Y85174D01*
X167449D01*
Y85300D01*
X167196D01*
Y85427D01*
X167069D01*
Y85553D01*
X166943D01*
Y85679D01*
X166817D01*
Y85806D01*
X166690D01*
Y85932D01*
X166564D01*
Y86059D01*
X166438D01*
Y86185D01*
X166311D01*
Y86311D01*
X166185D01*
Y86438D01*
X165932D01*
Y86564D01*
X165806D01*
Y86690D01*
X165679D01*
Y86817D01*
X165553D01*
Y86943D01*
X165427D01*
Y87070D01*
X165300D01*
Y87196D01*
X165174D01*
Y87322D01*
X165047D01*
Y87449D01*
X164921D01*
Y87575D01*
X164795D01*
Y87701D01*
X164542D01*
Y87828D01*
X164415D01*
Y87954D01*
X164289D01*
Y88081D01*
X164163D01*
Y88207D01*
X164036D01*
Y88333D01*
X163910D01*
Y88460D01*
X163784D01*
Y88586D01*
X163657D01*
Y88713D01*
X163531D01*
Y88839D01*
X163278D01*
Y87449D01*
Y87322D01*
Y83278D01*
X159866D01*
Y96295D01*
X160119D01*
Y96169D01*
D02*
G37*
G36*
X143436Y98697D02*
X143310D01*
Y98570D01*
X143183D01*
Y98444D01*
X143057D01*
Y98317D01*
X142930D01*
Y98065D01*
X142678D01*
Y97812D01*
X142551D01*
Y97686D01*
X142299D01*
Y97433D01*
X142172D01*
Y97306D01*
X142046D01*
Y97180D01*
X141919D01*
Y97054D01*
X141793D01*
Y96927D01*
X141667D01*
Y96801D01*
X141540D01*
Y96675D01*
X141414D01*
Y96422D01*
X155569D01*
Y96169D01*
X155316D01*
Y96043D01*
X155190D01*
Y95916D01*
X155063D01*
Y95790D01*
X154937D01*
Y95663D01*
X154810D01*
Y95537D01*
X154684D01*
Y95411D01*
X154431D01*
Y95284D01*
X154305D01*
Y95158D01*
X154178D01*
Y95032D01*
X154052D01*
Y94905D01*
X153926D01*
Y94779D01*
X153799D01*
Y94652D01*
X153673D01*
Y94526D01*
X153420D01*
Y94400D01*
X153294D01*
Y94273D01*
X153167D01*
Y94147D01*
X153041D01*
Y94021D01*
X152915D01*
Y93894D01*
X152788D01*
Y93768D01*
X152662D01*
Y93641D01*
X152409D01*
Y93515D01*
X152283D01*
Y93389D01*
X152156D01*
Y93262D01*
X143941D01*
Y90355D01*
X144068D01*
Y90482D01*
X144321D01*
Y90608D01*
X144447D01*
Y90735D01*
X144573D01*
Y90861D01*
X144700D01*
Y90987D01*
X144953D01*
Y91114D01*
X145079D01*
Y91240D01*
X145332D01*
Y91367D01*
X145458D01*
Y91493D01*
X145584D01*
Y91619D01*
X145711D01*
Y85932D01*
X145837D01*
Y86059D01*
X146090D01*
Y86185D01*
X146216D01*
Y86311D01*
X146343D01*
Y86438D01*
X146469D01*
Y86564D01*
X146596D01*
Y86690D01*
X146722D01*
Y86817D01*
X146848D01*
Y86943D01*
X147101D01*
Y87070D01*
X147227D01*
Y87196D01*
X147354D01*
Y87322D01*
X147480D01*
Y87449D01*
X147607D01*
Y87575D01*
X147733D01*
Y87701D01*
X147859D01*
Y87828D01*
X148112D01*
Y87954D01*
X148238D01*
Y88081D01*
X148365D01*
Y88207D01*
X148491D01*
Y88333D01*
X148618D01*
Y88460D01*
X148744D01*
Y88586D01*
X148870D01*
Y88713D01*
X148997D01*
Y88839D01*
X149250D01*
Y88965D01*
X149376D01*
Y89092D01*
X149502D01*
Y89218D01*
X149629D01*
Y89344D01*
X149755D01*
Y89471D01*
X149881D01*
Y89597D01*
X150008D01*
Y89724D01*
X150134D01*
Y89850D01*
X150387D01*
Y89976D01*
X150513D01*
Y90103D01*
X150640D01*
Y90229D01*
X150766D01*
Y90355D01*
X150893D01*
Y90482D01*
X151019D01*
Y90608D01*
X151145D01*
Y90735D01*
X151272D01*
Y90861D01*
X151524D01*
Y90987D01*
X151651D01*
Y91114D01*
X151777D01*
Y91240D01*
X151904D01*
Y91367D01*
X152030D01*
Y91493D01*
X152156D01*
Y91619D01*
X152283D01*
Y91746D01*
X152535D01*
Y91872D01*
X152662D01*
Y91998D01*
X152788D01*
Y92125D01*
X152915D01*
Y92251D01*
X153041D01*
Y92378D01*
X153167D01*
Y92504D01*
X153294D01*
Y92630D01*
X153420D01*
Y92757D01*
X153673D01*
Y92883D01*
X153799D01*
Y93010D01*
X153926D01*
Y93136D01*
X154052D01*
Y93262D01*
X154178D01*
Y93389D01*
X154305D01*
Y93515D01*
X154431D01*
Y93641D01*
X154558D01*
Y93768D01*
X154810D01*
Y93894D01*
X154937D01*
Y94021D01*
X155063D01*
Y94147D01*
X155190D01*
Y94273D01*
X155316D01*
Y94400D01*
X155442D01*
Y94526D01*
X155569D01*
Y94652D01*
X155822D01*
Y94779D01*
X155948D01*
Y94905D01*
X156074D01*
Y95032D01*
X156201D01*
Y95158D01*
X156327D01*
Y95284D01*
X156453D01*
Y95411D01*
X156580D01*
Y95537D01*
X156706D01*
Y95663D01*
X156959D01*
Y95790D01*
X157085D01*
Y95916D01*
X157212D01*
Y96043D01*
X157338D01*
Y96169D01*
X157465D01*
Y96295D01*
X157591D01*
Y96422D01*
X157717D01*
Y96548D01*
X157970D01*
Y83404D01*
X157844D01*
Y83278D01*
X154305D01*
Y88965D01*
X154178D01*
Y88839D01*
X154052D01*
Y88713D01*
X153926D01*
Y88586D01*
X153673D01*
Y88460D01*
X153547D01*
Y88333D01*
X153420D01*
Y88207D01*
X153294D01*
Y88081D01*
X153167D01*
Y87954D01*
X153041D01*
Y87828D01*
X152915D01*
Y87701D01*
X152788D01*
Y87575D01*
X152662D01*
Y87449D01*
X152535D01*
Y87322D01*
X152409D01*
Y87196D01*
X152283D01*
Y87070D01*
X152156D01*
Y86943D01*
X152030D01*
Y86817D01*
X151777D01*
Y86690D01*
X151651D01*
Y86564D01*
X151524D01*
Y86438D01*
X152915D01*
Y83278D01*
X145711D01*
Y77212D01*
X145584D01*
Y77085D01*
X145458D01*
Y76959D01*
X145332D01*
Y76832D01*
X145079D01*
Y76706D01*
X144953D01*
Y76580D01*
X144826D01*
Y76453D01*
X144700D01*
Y76327D01*
X144573D01*
Y76201D01*
X144321D01*
Y76074D01*
X144194D01*
Y75948D01*
X144068D01*
Y75821D01*
X143941D01*
Y75695D01*
X143815D01*
Y75569D01*
X143562D01*
Y75442D01*
X143436D01*
Y75316D01*
X143310D01*
Y75190D01*
X143183D01*
Y75063D01*
X143057D01*
Y74937D01*
X142930D01*
Y74810D01*
X142678D01*
Y74684D01*
X142551D01*
Y74558D01*
X142425D01*
Y74431D01*
X142299D01*
Y74305D01*
X142172D01*
Y74179D01*
X141919D01*
Y74052D01*
X141793D01*
Y73926D01*
X141667D01*
Y73799D01*
X141540D01*
Y73673D01*
X141414D01*
Y73547D01*
X141161D01*
Y73420D01*
X141035D01*
Y73294D01*
X140908D01*
Y73168D01*
X140782D01*
Y73041D01*
X140656D01*
Y72915D01*
X140403D01*
Y72788D01*
X140276D01*
Y72662D01*
X140150D01*
Y72536D01*
X140024D01*
Y72409D01*
X139897D01*
Y72283D01*
X139771D01*
Y72156D01*
X139645D01*
Y72030D01*
X139392D01*
Y71904D01*
X139265D01*
Y71777D01*
X139139D01*
Y71651D01*
X139013D01*
Y71525D01*
X138760D01*
Y71398D01*
X138633D01*
Y71272D01*
X138507D01*
Y71145D01*
X138381D01*
Y71019D01*
X138254D01*
Y70893D01*
X138128D01*
Y70766D01*
X137875D01*
Y70640D01*
X137749D01*
Y70513D01*
X137622D01*
Y70387D01*
X137496D01*
Y70261D01*
X137370D01*
Y70134D01*
X137243D01*
Y70008D01*
X136990D01*
Y69882D01*
X136864D01*
Y69755D01*
X136738D01*
Y69629D01*
X136611D01*
Y69502D01*
X136359D01*
Y69376D01*
X136232D01*
Y69250D01*
X136106D01*
Y69123D01*
X135979D01*
Y68997D01*
X135853D01*
Y68870D01*
X135727D01*
Y68744D01*
X135474D01*
Y68618D01*
X135348D01*
Y68491D01*
X135221D01*
Y68365D01*
X135095D01*
Y68239D01*
X134968D01*
Y68112D01*
X134716D01*
Y67986D01*
X134589D01*
Y67859D01*
X134463D01*
Y67733D01*
X134337D01*
Y67607D01*
X134210D01*
Y67480D01*
X134084D01*
Y67354D01*
X133831D01*
Y67228D01*
X133705D01*
Y67101D01*
X133578D01*
Y66975D01*
X133452D01*
Y66848D01*
X133325D01*
Y66722D01*
X133073D01*
Y66596D01*
X132946D01*
Y66469D01*
X132820D01*
Y66343D01*
X132694D01*
Y66216D01*
X132567D01*
Y66090D01*
X132314D01*
Y65964D01*
X132188D01*
Y65837D01*
X132062D01*
Y65711D01*
X131935D01*
Y65585D01*
X131809D01*
Y65458D01*
X131683D01*
Y65332D01*
X131430D01*
Y65205D01*
X131303D01*
Y65079D01*
X131177D01*
Y64953D01*
X131051D01*
Y64826D01*
X130924D01*
Y64700D01*
X130671D01*
Y64573D01*
X130545D01*
Y64447D01*
X130419D01*
Y64321D01*
X130292D01*
Y64194D01*
X130166D01*
Y64068D01*
X130040D01*
Y63942D01*
X129787D01*
Y63815D01*
X129660D01*
Y63689D01*
X129534D01*
Y63562D01*
X129408D01*
Y63436D01*
X129281D01*
Y63310D01*
X129028D01*
Y63183D01*
X128902D01*
Y63057D01*
X128776D01*
Y62930D01*
X128649D01*
Y62804D01*
X128523D01*
Y62678D01*
X128397D01*
Y62551D01*
X128270D01*
Y62425D01*
X128144D01*
Y62299D01*
X127891D01*
Y62172D01*
X127638D01*
Y62046D01*
X127259D01*
Y61919D01*
X125743D01*
Y62046D01*
X125363D01*
Y62172D01*
X125111D01*
Y62299D01*
X124858D01*
Y62425D01*
X124731D01*
Y62551D01*
X124605D01*
Y62678D01*
X124479D01*
Y62804D01*
X124352D01*
Y62930D01*
X124226D01*
Y63057D01*
X124100D01*
Y63310D01*
X123973D01*
Y63689D01*
X123847D01*
Y93768D01*
X123973D01*
Y94400D01*
X124100D01*
Y94779D01*
X124226D01*
Y95284D01*
X124352D01*
Y95537D01*
X124479D01*
Y95790D01*
X124605D01*
Y96043D01*
X124731D01*
Y96295D01*
X124858D01*
Y96548D01*
X124984D01*
Y96801D01*
X125111D01*
Y96927D01*
X125237D01*
Y97180D01*
X125363D01*
Y97306D01*
X125490D01*
Y97559D01*
X125616D01*
Y97686D01*
X125743D01*
Y97812D01*
X125869D01*
Y97938D01*
X125995D01*
Y98191D01*
X126122D01*
Y98317D01*
X126248D01*
Y98444D01*
X126374D01*
Y98570D01*
X126501D01*
Y98697D01*
X126627D01*
Y98823D01*
X126754D01*
Y98949D01*
X126880D01*
Y99076D01*
X127006D01*
Y99202D01*
X127133D01*
Y99329D01*
X127259D01*
Y99455D01*
X127386D01*
Y99581D01*
X127512D01*
Y99708D01*
X127638D01*
Y99834D01*
X127765D01*
Y99960D01*
X127891D01*
Y100087D01*
X128017D01*
Y100213D01*
X128144D01*
Y100340D01*
X128270D01*
Y100466D01*
X128523D01*
Y100592D01*
X128649D01*
Y100719D01*
X128776D01*
Y100845D01*
X128902D01*
Y100972D01*
X129028D01*
Y101098D01*
X129155D01*
Y101224D01*
X129281D01*
Y101351D01*
X129534D01*
Y101477D01*
X129660D01*
Y101603D01*
X129787D01*
Y101730D01*
X129913D01*
Y101856D01*
X130040D01*
Y101983D01*
X130292D01*
Y102109D01*
X130419D01*
Y102235D01*
X130545D01*
Y102362D01*
X130671D01*
Y102488D01*
X130924D01*
Y102614D01*
X131051D01*
Y102741D01*
X131177D01*
Y102867D01*
X131303D01*
Y102994D01*
X131430D01*
Y103120D01*
X131683D01*
Y103246D01*
X131809D01*
Y103373D01*
X131935D01*
Y103499D01*
X132062D01*
Y103626D01*
X132188D01*
Y103752D01*
X132441D01*
Y103878D01*
X132567D01*
Y104005D01*
X132694D01*
Y104131D01*
X132820D01*
Y104257D01*
X132946D01*
Y104384D01*
X133073D01*
Y104510D01*
X133325D01*
Y104637D01*
X133452D01*
Y104763D01*
X133578D01*
Y104889D01*
X133705D01*
Y105016D01*
X133831D01*
Y105142D01*
X134084D01*
Y105269D01*
X134210D01*
Y105395D01*
X134337D01*
Y105521D01*
X134463D01*
Y105648D01*
X134589D01*
Y105774D01*
X134842D01*
Y105900D01*
X134968D01*
Y106027D01*
X135095D01*
Y106153D01*
X135221D01*
Y106280D01*
X135348D01*
Y106406D01*
X135474D01*
Y106532D01*
X135727D01*
Y106659D01*
X135853D01*
Y106785D01*
X135979D01*
Y106911D01*
X136106D01*
Y107038D01*
X136232D01*
Y107164D01*
X136359D01*
Y107291D01*
X136611D01*
Y107417D01*
X136738D01*
Y107543D01*
X136864D01*
Y107670D01*
X136990D01*
Y107796D01*
X137117D01*
Y107923D01*
X137243D01*
Y108049D01*
X137370D01*
Y108175D01*
X137622D01*
Y108302D01*
X137749D01*
Y108428D01*
X137875D01*
Y108554D01*
X138002D01*
Y108681D01*
X138128D01*
Y108807D01*
X138254D01*
Y108934D01*
X138381D01*
Y109060D01*
X138507D01*
Y109186D01*
X138760D01*
Y109313D01*
X138886D01*
Y109439D01*
X139013D01*
Y109566D01*
X139139D01*
Y109692D01*
X139265D01*
Y109818D01*
X139392D01*
Y109945D01*
X139518D01*
Y110071D01*
X139645D01*
Y110197D01*
X139897D01*
Y110324D01*
X140024D01*
Y110450D01*
X140150D01*
Y110577D01*
X140276D01*
Y110703D01*
X140403D01*
Y110829D01*
X140529D01*
Y110956D01*
X140656D01*
Y111082D01*
X140782D01*
Y111208D01*
X140908D01*
Y111335D01*
X141035D01*
Y111461D01*
X141161D01*
Y111588D01*
X141414D01*
Y111714D01*
X141540D01*
Y111840D01*
X141667D01*
Y111967D01*
X141793D01*
Y112093D01*
X141919D01*
Y112220D01*
X142046D01*
Y112346D01*
X142172D01*
Y112472D01*
X142299D01*
Y112599D01*
X142425D01*
Y112725D01*
X142551D01*
Y112851D01*
X142678D01*
Y112978D01*
X142804D01*
Y113104D01*
X142930D01*
Y113231D01*
X143057D01*
Y113357D01*
X143183D01*
Y113483D01*
X143310D01*
Y113610D01*
X143436D01*
Y98697D01*
D02*
G37*
G36*
X177180Y52946D02*
X164289D01*
Y52820D01*
X164163D01*
Y52694D01*
X164036D01*
Y52567D01*
X163910D01*
Y52441D01*
X163784D01*
Y52314D01*
X163657D01*
Y52188D01*
X163404D01*
Y52062D01*
X163278D01*
Y51935D01*
X163152D01*
Y51809D01*
X163025D01*
Y51683D01*
X162899D01*
Y51556D01*
X162773D01*
Y51430D01*
X162646D01*
Y51303D01*
X162520D01*
Y51177D01*
X162393D01*
Y51051D01*
X162141D01*
Y50924D01*
X162014D01*
Y50798D01*
X161888D01*
Y50671D01*
X161761D01*
Y50545D01*
X161635D01*
Y50419D01*
X161509D01*
Y50292D01*
X161382D01*
Y50166D01*
X161256D01*
Y50040D01*
X161129D01*
Y49913D01*
X160877D01*
Y49787D01*
X160750D01*
Y49660D01*
X160624D01*
Y49534D01*
X160498D01*
Y49408D01*
X160371D01*
Y49281D01*
X160245D01*
Y49155D01*
X160119D01*
Y49029D01*
X159992D01*
Y48902D01*
X159739D01*
Y48776D01*
X159613D01*
Y48649D01*
X159487D01*
Y48523D01*
X159360D01*
Y48397D01*
X159234D01*
Y48270D01*
X159107D01*
Y48144D01*
X158981D01*
Y48017D01*
X158855D01*
Y47891D01*
X158728D01*
Y47765D01*
X158476D01*
Y47638D01*
X158349D01*
Y47512D01*
X158223D01*
Y47386D01*
X158096D01*
Y47259D01*
X157970D01*
Y47133D01*
X157844D01*
Y47006D01*
X157717D01*
Y46880D01*
X157591D01*
Y46754D01*
X157465D01*
Y46627D01*
X157212D01*
Y46501D01*
X157085D01*
Y46374D01*
X156959D01*
Y46248D01*
X156833D01*
Y46122D01*
X156706D01*
Y45995D01*
X156580D01*
Y45869D01*
X156453D01*
Y45743D01*
X156327D01*
Y45616D01*
X156201D01*
Y45490D01*
X155948D01*
Y45363D01*
X155822D01*
Y45237D01*
X155695D01*
Y45111D01*
X155569D01*
Y44984D01*
X155442D01*
Y44858D01*
X155316D01*
Y44731D01*
X155190D01*
Y44605D01*
X155063D01*
Y48144D01*
X155190D01*
Y48270D01*
X155316D01*
Y48397D01*
X155442D01*
Y48523D01*
X155569D01*
Y48649D01*
X155695D01*
Y48776D01*
X155822D01*
Y48902D01*
X155948D01*
Y49029D01*
X156074D01*
Y49155D01*
X156327D01*
Y49281D01*
X156453D01*
Y49408D01*
X156580D01*
Y49534D01*
X156706D01*
Y49660D01*
X156833D01*
Y49787D01*
X156959D01*
Y49913D01*
X157085D01*
Y50040D01*
X157212D01*
Y50166D01*
X157338D01*
Y50292D01*
X157465D01*
Y50419D01*
X157591D01*
Y50545D01*
X157844D01*
Y50671D01*
X157970D01*
Y50798D01*
X158096D01*
Y50924D01*
X158223D01*
Y51051D01*
X158349D01*
Y51177D01*
X158476D01*
Y51303D01*
X158602D01*
Y51430D01*
X158728D01*
Y51556D01*
X158855D01*
Y51683D01*
X158981D01*
Y51809D01*
X159107D01*
Y51935D01*
X159234D01*
Y52062D01*
X159360D01*
Y52188D01*
X159613D01*
Y52314D01*
X159739D01*
Y52441D01*
X159866D01*
Y52567D01*
X159992D01*
Y52694D01*
X160119D01*
Y52820D01*
X160245D01*
Y52946D01*
X160371D01*
Y53073D01*
X160498D01*
Y53199D01*
X160624D01*
Y53325D01*
X160750D01*
Y53452D01*
X160877D01*
Y53578D01*
X161003D01*
Y53705D01*
X161256D01*
Y53831D01*
X161382D01*
Y53957D01*
X161509D01*
Y54084D01*
X161635D01*
Y54210D01*
X161761D01*
Y54337D01*
X161888D01*
Y54463D01*
X162014D01*
Y54589D01*
X162141D01*
Y54716D01*
X162267D01*
Y54842D01*
X162393D01*
Y54968D01*
X162646D01*
Y55221D01*
X162899D01*
Y55348D01*
X163025D01*
Y55474D01*
X163152D01*
Y55600D01*
X163278D01*
Y55727D01*
X163404D01*
Y55853D01*
X163531D01*
Y55979D01*
X163657D01*
Y56106D01*
X163784D01*
Y56232D01*
X163910D01*
Y56359D01*
X164036D01*
Y56485D01*
X164163D01*
Y56611D01*
X164415D01*
Y56738D01*
X164542D01*
Y56864D01*
X164668D01*
Y56990D01*
X164795D01*
Y57117D01*
X164921D01*
Y57243D01*
X165047D01*
Y57370D01*
X165174D01*
Y57496D01*
X165300D01*
Y57622D01*
X165427D01*
Y57749D01*
X165553D01*
Y57875D01*
X165679D01*
Y58002D01*
X165932D01*
Y58128D01*
X166058D01*
Y58254D01*
X166185D01*
Y58381D01*
X166311D01*
Y59645D01*
X166185D01*
Y59518D01*
X166058D01*
Y59392D01*
X165932D01*
Y59265D01*
X165806D01*
Y59139D01*
X165679D01*
Y59013D01*
X165553D01*
Y58886D01*
X165427D01*
Y58760D01*
X165174D01*
Y58633D01*
X165047D01*
Y58507D01*
X164921D01*
Y58381D01*
X164795D01*
Y58254D01*
X164668D01*
Y58128D01*
X164542D01*
Y58002D01*
X164415D01*
Y57875D01*
X164289D01*
Y57749D01*
X164163D01*
Y57622D01*
X164036D01*
Y57496D01*
X163910D01*
Y57370D01*
X163784D01*
Y57243D01*
X163531D01*
Y57117D01*
X163404D01*
Y56990D01*
X163278D01*
Y56864D01*
X163152D01*
Y56738D01*
X163025D01*
Y56611D01*
X162899D01*
Y56485D01*
X162773D01*
Y56359D01*
X162646D01*
Y56232D01*
X162520D01*
Y56106D01*
X162267D01*
Y55979D01*
X162141D01*
Y55853D01*
X162014D01*
Y55727D01*
X161888D01*
Y55600D01*
X161761D01*
Y55474D01*
X161635D01*
Y55348D01*
X161509D01*
Y55221D01*
X161382D01*
Y55095D01*
X161256D01*
Y54968D01*
X161129D01*
Y54842D01*
X160877D01*
Y54589D01*
X160624D01*
Y54463D01*
X160498D01*
Y54337D01*
X160371D01*
Y54210D01*
X160245D01*
Y54084D01*
X160119D01*
Y53957D01*
X159992D01*
Y53831D01*
X159866D01*
Y53705D01*
X159739D01*
Y53578D01*
X159613D01*
Y53452D01*
X159360D01*
Y53325D01*
X159234D01*
Y53199D01*
X159107D01*
Y53073D01*
X158981D01*
Y52946D01*
X158855D01*
Y52820D01*
X158728D01*
Y52694D01*
X158602D01*
Y52567D01*
X158476D01*
Y52441D01*
X158349D01*
Y52314D01*
X158223D01*
Y52188D01*
X158096D01*
Y52062D01*
X157844D01*
Y51935D01*
X157717D01*
Y51809D01*
X157591D01*
Y51683D01*
X157465D01*
Y51556D01*
X157338D01*
Y51430D01*
X157212D01*
Y51303D01*
X157085D01*
Y51177D01*
X156959D01*
Y51051D01*
X156833D01*
Y50924D01*
X156706D01*
Y50798D01*
X156580D01*
Y50671D01*
X156327D01*
Y50545D01*
X156201D01*
Y50419D01*
X156074D01*
Y50292D01*
X155948D01*
Y50166D01*
X155822D01*
Y50040D01*
X155695D01*
Y49913D01*
X155569D01*
Y49787D01*
X155442D01*
Y49660D01*
X155316D01*
Y49534D01*
X155190D01*
Y49408D01*
X155063D01*
Y49281D01*
X154810D01*
Y49155D01*
X154684D01*
Y49029D01*
X154558D01*
Y48902D01*
X154431D01*
Y48776D01*
X154305D01*
Y48649D01*
X154178D01*
Y48523D01*
X154052D01*
Y48397D01*
X153926D01*
Y48270D01*
X153799D01*
Y48144D01*
X153673D01*
Y48017D01*
X153547D01*
Y47891D01*
X153294D01*
Y47765D01*
X153167D01*
Y47638D01*
X153041D01*
Y47512D01*
X152915D01*
Y47386D01*
X152788D01*
Y47259D01*
X152662D01*
Y47133D01*
X152535D01*
Y47006D01*
X152409D01*
Y46880D01*
X152283D01*
Y46754D01*
X152156D01*
Y46627D01*
X151904D01*
Y46501D01*
X151777D01*
Y46374D01*
X151651D01*
Y46248D01*
X151524D01*
Y46122D01*
X151398D01*
Y45995D01*
X151272D01*
Y45869D01*
X151145D01*
Y45743D01*
X151019D01*
Y45616D01*
X150893D01*
Y45490D01*
X150766D01*
Y45363D01*
X150513D01*
Y45237D01*
X150387D01*
Y45111D01*
X150261D01*
Y44984D01*
X150134D01*
Y44858D01*
X150008D01*
Y44731D01*
X149881D01*
Y44605D01*
X149755D01*
Y44479D01*
X149629D01*
Y44352D01*
X149502D01*
Y44226D01*
X149376D01*
Y44099D01*
X149123D01*
Y43847D01*
X148870D01*
Y43720D01*
X148744D01*
Y43594D01*
X148618D01*
Y43468D01*
X148491D01*
Y43341D01*
X148365D01*
Y43215D01*
X148238D01*
Y43088D01*
X148112D01*
Y42962D01*
X147986D01*
Y42836D01*
X147859D01*
Y42709D01*
X147607D01*
Y42583D01*
X147480D01*
Y42457D01*
X147354D01*
Y42330D01*
X147227D01*
Y42204D01*
X147101D01*
Y42077D01*
X146975D01*
Y41951D01*
X146848D01*
Y41825D01*
X146722D01*
Y41698D01*
X146596D01*
Y41572D01*
X146469D01*
Y41445D01*
X146343D01*
Y41319D01*
X146216D01*
Y41193D01*
X145964D01*
Y41066D01*
X145837D01*
Y40940D01*
X145711D01*
Y44352D01*
X145837D01*
Y44479D01*
X145964D01*
Y44605D01*
X146090D01*
Y44731D01*
X146216D01*
Y44858D01*
X146343D01*
Y44984D01*
X146469D01*
Y45111D01*
X146596D01*
Y45237D01*
X146848D01*
Y45363D01*
X146975D01*
Y45490D01*
X147101D01*
Y45616D01*
X147227D01*
Y45743D01*
X147354D01*
Y45869D01*
X147480D01*
Y45995D01*
X147607D01*
Y46122D01*
X147733D01*
Y46248D01*
X147859D01*
Y46374D01*
X147986D01*
Y46501D01*
X148112D01*
Y46627D01*
X148238D01*
Y46754D01*
X148365D01*
Y46880D01*
X148491D01*
Y47006D01*
X148744D01*
Y47133D01*
X148870D01*
Y47259D01*
X148997D01*
Y47386D01*
X149123D01*
Y47512D01*
X149250D01*
Y47638D01*
X149376D01*
Y47765D01*
X149502D01*
Y47891D01*
X149629D01*
Y48017D01*
X149755D01*
Y48144D01*
X149881D01*
Y48270D01*
X150008D01*
Y48397D01*
X150134D01*
Y48523D01*
X150261D01*
Y48649D01*
X150513D01*
Y48776D01*
X150640D01*
Y48902D01*
X150766D01*
Y49029D01*
X150893D01*
Y49155D01*
X151019D01*
Y49281D01*
X151145D01*
Y49408D01*
X151272D01*
Y49534D01*
X151398D01*
Y49660D01*
X151524D01*
Y49787D01*
X151651D01*
Y49913D01*
X151777D01*
Y50040D01*
X151904D01*
Y50166D01*
X152156D01*
Y50419D01*
X152409D01*
Y50545D01*
X152535D01*
Y50671D01*
X152662D01*
Y50798D01*
X152788D01*
Y50924D01*
X152915D01*
Y51051D01*
X153041D01*
Y51177D01*
X153167D01*
Y51303D01*
X153294D01*
Y51430D01*
X153420D01*
Y51556D01*
X153547D01*
Y51683D01*
X153673D01*
Y51809D01*
X153799D01*
Y51935D01*
X154052D01*
Y52062D01*
X154178D01*
Y52188D01*
X154305D01*
Y52314D01*
X154431D01*
Y52441D01*
X154558D01*
Y52567D01*
X154684D01*
Y52694D01*
X154810D01*
Y52820D01*
X154937D01*
Y52946D01*
X155063D01*
Y53073D01*
X155190D01*
Y53199D01*
X155316D01*
Y53325D01*
X155442D01*
Y53452D01*
X155695D01*
Y53578D01*
X155822D01*
Y53705D01*
X155948D01*
Y53831D01*
X156074D01*
Y53957D01*
X156201D01*
Y54084D01*
X156327D01*
Y54210D01*
X156453D01*
Y54337D01*
X156580D01*
Y54463D01*
X156706D01*
Y54589D01*
X156833D01*
Y54716D01*
X156959D01*
Y54842D01*
X157085D01*
Y54968D01*
X157212D01*
Y55095D01*
X157338D01*
Y55221D01*
X157591D01*
Y55348D01*
X157717D01*
Y55474D01*
X157844D01*
Y55600D01*
X157970D01*
Y55727D01*
X158096D01*
Y55853D01*
X158223D01*
Y55979D01*
X158349D01*
Y56106D01*
X158476D01*
Y56232D01*
X158602D01*
Y56359D01*
X158728D01*
Y56485D01*
X158855D01*
Y56611D01*
X158981D01*
Y56738D01*
X159107D01*
Y56864D01*
X159360D01*
Y56990D01*
X159487D01*
Y57117D01*
X159613D01*
Y57243D01*
X159739D01*
Y57370D01*
X159866D01*
Y57496D01*
X159992D01*
Y57622D01*
X160119D01*
Y57749D01*
X160245D01*
Y57875D01*
X160371D01*
Y58002D01*
X160498D01*
Y58128D01*
X160624D01*
Y58254D01*
X160750D01*
Y58381D01*
X160877D01*
Y58507D01*
X161003D01*
Y58633D01*
X161256D01*
Y58760D01*
X161382D01*
Y58886D01*
X161509D01*
Y59013D01*
X161635D01*
Y59139D01*
X161761D01*
Y59265D01*
X161888D01*
Y59392D01*
X162014D01*
Y59518D01*
X162141D01*
Y59645D01*
X162267D01*
Y59771D01*
X162393D01*
Y59897D01*
X162520D01*
Y60024D01*
X162646D01*
Y60150D01*
X162899D01*
Y60276D01*
X163025D01*
Y60403D01*
X163152D01*
Y60529D01*
X163278D01*
Y60656D01*
X163404D01*
Y60782D01*
X163531D01*
Y60908D01*
X163657D01*
Y61035D01*
X163784D01*
Y61161D01*
X163910D01*
Y61287D01*
X164036D01*
Y61414D01*
X164163D01*
Y61540D01*
X164289D01*
Y61667D01*
X164415D01*
Y61793D01*
X164668D01*
Y61919D01*
X164795D01*
Y62046D01*
X164921D01*
Y62172D01*
X165047D01*
Y62299D01*
X165174D01*
Y62425D01*
X165300D01*
Y62551D01*
X165427D01*
Y62678D01*
X165553D01*
Y62804D01*
X165679D01*
Y62930D01*
X165806D01*
Y63057D01*
X165932D01*
Y63183D01*
X166058D01*
Y63310D01*
X166185D01*
Y63436D01*
X166311D01*
Y63562D01*
X166564D01*
Y63689D01*
X166690D01*
Y63815D01*
X166817D01*
Y63942D01*
X166943D01*
Y64068D01*
X167069D01*
Y64194D01*
X167196D01*
Y64321D01*
X167322D01*
Y64447D01*
X167449D01*
Y64573D01*
X167575D01*
Y64700D01*
X167701D01*
Y64826D01*
X167828D01*
Y64953D01*
X168081D01*
Y65079D01*
X168207D01*
Y65205D01*
X168333D01*
Y65332D01*
X168460D01*
Y65458D01*
X168586D01*
Y65585D01*
X168713D01*
Y65711D01*
X168839D01*
Y67101D01*
X168713D01*
Y66975D01*
X168586D01*
Y66848D01*
X168460D01*
Y66722D01*
X168333D01*
Y66596D01*
X168207D01*
Y66469D01*
X168081D01*
Y66343D01*
X167954D01*
Y66216D01*
X167828D01*
Y66090D01*
X167701D01*
Y65964D01*
X167449D01*
Y65837D01*
X167322D01*
Y65711D01*
X167196D01*
Y65585D01*
X167069D01*
Y65458D01*
X166943D01*
Y65332D01*
X166817D01*
Y65205D01*
X166690D01*
Y65079D01*
X166564D01*
Y64953D01*
X166438D01*
Y64826D01*
X166185D01*
Y64700D01*
X166058D01*
Y64573D01*
X165932D01*
Y64447D01*
X165806D01*
Y64321D01*
X165679D01*
Y64194D01*
X165553D01*
Y64068D01*
X165427D01*
Y63942D01*
X165300D01*
Y63815D01*
X165174D01*
Y63689D01*
X165047D01*
Y63562D01*
X164795D01*
Y63436D01*
X164668D01*
Y63310D01*
X164542D01*
Y63183D01*
X164415D01*
Y63057D01*
X164289D01*
Y62930D01*
X164163D01*
Y62804D01*
X164036D01*
Y62678D01*
X163910D01*
Y62551D01*
X163784D01*
Y62425D01*
X163657D01*
Y62299D01*
X163404D01*
Y62172D01*
X163278D01*
Y62046D01*
X163152D01*
Y61919D01*
X163025D01*
Y61793D01*
X162899D01*
Y61667D01*
X162773D01*
Y61540D01*
X162646D01*
Y61414D01*
X162520D01*
Y61287D01*
X162393D01*
Y61161D01*
X162141D01*
Y61035D01*
X162014D01*
Y60908D01*
X161888D01*
Y60782D01*
X161761D01*
Y60656D01*
X161635D01*
Y60529D01*
X161509D01*
Y60403D01*
X161382D01*
Y60276D01*
X161256D01*
Y60150D01*
X161129D01*
Y60024D01*
X161003D01*
Y59897D01*
X160877D01*
Y59771D01*
X160624D01*
Y59645D01*
X160498D01*
Y59518D01*
X160371D01*
Y59392D01*
X160245D01*
Y59265D01*
X160119D01*
Y59139D01*
X159992D01*
Y59013D01*
X159866D01*
Y58886D01*
X159739D01*
Y58760D01*
X159613D01*
Y58633D01*
X159487D01*
Y58507D01*
X159234D01*
Y58381D01*
X159107D01*
Y58254D01*
X158981D01*
Y58128D01*
X158855D01*
Y58002D01*
X158728D01*
Y57875D01*
X158602D01*
Y57749D01*
X158476D01*
Y57622D01*
X158349D01*
Y57496D01*
X158223D01*
Y57370D01*
X158096D01*
Y57243D01*
X157844D01*
Y57117D01*
X157717D01*
Y56990D01*
X157591D01*
Y56864D01*
X157465D01*
Y56738D01*
X157338D01*
Y56611D01*
X157212D01*
Y56485D01*
X157085D01*
Y56359D01*
X156959D01*
Y56232D01*
X156833D01*
Y56106D01*
X156580D01*
Y55979D01*
X156453D01*
Y55853D01*
X156327D01*
Y55727D01*
X156201D01*
Y55600D01*
X156074D01*
Y55474D01*
X155948D01*
Y55348D01*
X155822D01*
Y55221D01*
X155695D01*
Y55095D01*
X155569D01*
Y54968D01*
X155442D01*
Y54842D01*
X155190D01*
Y54589D01*
X154937D01*
Y54463D01*
X154810D01*
Y54337D01*
X154684D01*
Y54210D01*
X154558D01*
Y54084D01*
X154431D01*
Y53957D01*
X154305D01*
Y53831D01*
X154178D01*
Y53705D01*
X153926D01*
Y53452D01*
X153673D01*
Y53325D01*
X153547D01*
Y53199D01*
X153420D01*
Y53073D01*
X153294D01*
Y52946D01*
X153167D01*
Y52820D01*
X153041D01*
Y52694D01*
X152915D01*
Y52567D01*
X152788D01*
Y52441D01*
X152535D01*
Y52314D01*
X152409D01*
Y52188D01*
X152283D01*
Y52062D01*
X152156D01*
Y51935D01*
X152030D01*
Y51809D01*
X151904D01*
Y51683D01*
X151777D01*
Y51556D01*
X151651D01*
Y51430D01*
X151524D01*
Y51303D01*
X151398D01*
Y51177D01*
X151272D01*
Y51051D01*
X151019D01*
Y50924D01*
X150893D01*
Y50798D01*
X150766D01*
Y50671D01*
X150640D01*
Y50545D01*
X150513D01*
Y50419D01*
X150387D01*
Y50292D01*
X150261D01*
Y50166D01*
X150134D01*
Y50040D01*
X150008D01*
Y49913D01*
X149755D01*
Y49787D01*
X149629D01*
Y49660D01*
X149502D01*
Y49534D01*
X149376D01*
Y49408D01*
X149250D01*
Y49281D01*
X149123D01*
Y49155D01*
X148997D01*
Y49029D01*
X148870D01*
Y48902D01*
X148744D01*
Y48776D01*
X148618D01*
Y48649D01*
X148491D01*
Y48523D01*
X148365D01*
Y48397D01*
X148112D01*
Y48270D01*
X147986D01*
Y48144D01*
X147859D01*
Y48017D01*
X147733D01*
Y47891D01*
X147607D01*
Y47765D01*
X147480D01*
Y47638D01*
X147354D01*
Y47512D01*
X147227D01*
Y47386D01*
X147101D01*
Y47259D01*
X146848D01*
Y47133D01*
X146722D01*
Y47006D01*
X146596D01*
Y46880D01*
X146469D01*
Y46754D01*
X146343D01*
Y46627D01*
X146216D01*
Y46501D01*
X146090D01*
Y46374D01*
X145964D01*
Y46248D01*
X145837D01*
Y46122D01*
X145584D01*
Y45995D01*
X145458D01*
Y45869D01*
X145332D01*
Y45743D01*
X145205D01*
Y45616D01*
X145079D01*
Y45490D01*
X144953D01*
Y45363D01*
X144826D01*
Y45237D01*
X144700D01*
Y45111D01*
X144573D01*
Y44984D01*
X144447D01*
Y44858D01*
X144321D01*
Y44731D01*
X144068D01*
Y44605D01*
X143941D01*
Y44479D01*
X143815D01*
Y44352D01*
X143689D01*
Y44226D01*
X143562D01*
Y44099D01*
X143436D01*
Y43973D01*
X143310D01*
Y43847D01*
X143183D01*
Y43720D01*
X143057D01*
Y43594D01*
X142804D01*
Y43468D01*
X142678D01*
Y43341D01*
X142551D01*
Y43215D01*
X142425D01*
Y43088D01*
X142299D01*
Y42962D01*
X142172D01*
Y42836D01*
X142046D01*
Y42709D01*
X141919D01*
Y42583D01*
X141793D01*
Y42457D01*
X141667D01*
Y42330D01*
X141414D01*
Y42204D01*
X141287D01*
Y42077D01*
X141161D01*
Y41951D01*
X141035D01*
Y41825D01*
X140908D01*
Y41698D01*
X140782D01*
Y41572D01*
X140656D01*
Y41445D01*
X140529D01*
Y41319D01*
X140403D01*
Y41193D01*
X140150D01*
Y41066D01*
X140024D01*
Y40940D01*
X139897D01*
Y40814D01*
X139771D01*
Y40687D01*
X139645D01*
Y40561D01*
X139518D01*
Y40434D01*
X139392D01*
Y40308D01*
X139265D01*
Y40182D01*
X139139D01*
Y40055D01*
X139013D01*
Y39929D01*
X138886D01*
Y39802D01*
X138760D01*
Y39676D01*
X138507D01*
Y39550D01*
X138381D01*
Y39423D01*
X138254D01*
Y39297D01*
X138128D01*
Y39171D01*
X138002D01*
Y39044D01*
X137875D01*
Y38918D01*
X137749D01*
Y38791D01*
X137622D01*
Y38665D01*
X137496D01*
Y38539D01*
X137243D01*
Y38412D01*
X137117D01*
Y38286D01*
X136990D01*
Y38160D01*
X136864D01*
Y38033D01*
X136738D01*
Y37907D01*
X136611D01*
Y37780D01*
X136485D01*
Y37654D01*
X136359D01*
Y37528D01*
X136232D01*
Y37401D01*
X135979D01*
Y37275D01*
X135853D01*
Y37148D01*
X135727D01*
Y37022D01*
X135600D01*
Y36896D01*
X135474D01*
Y36769D01*
X135348D01*
Y36643D01*
X135221D01*
Y40055D01*
X135348D01*
Y40182D01*
X135474D01*
Y40308D01*
X135600D01*
Y40434D01*
X135727D01*
Y40561D01*
X135853D01*
Y40687D01*
X135979D01*
Y40814D01*
X136106D01*
Y40940D01*
X136359D01*
Y41066D01*
X136485D01*
Y41193D01*
X136611D01*
Y41319D01*
X136738D01*
Y41445D01*
X136864D01*
Y41572D01*
X136990D01*
Y41698D01*
X137117D01*
Y41825D01*
X137243D01*
Y41951D01*
X137496D01*
Y42077D01*
X137622D01*
Y42204D01*
X137749D01*
Y42330D01*
X137875D01*
Y42457D01*
X138002D01*
Y42583D01*
X138128D01*
Y42709D01*
X138254D01*
Y42836D01*
X138381D01*
Y42962D01*
X138633D01*
Y43088D01*
X138760D01*
Y43215D01*
X138886D01*
Y43341D01*
X139013D01*
Y43468D01*
X139139D01*
Y43594D01*
X139265D01*
Y43720D01*
X139392D01*
Y43847D01*
X139518D01*
Y43973D01*
X139645D01*
Y44099D01*
X139897D01*
Y44352D01*
X140150D01*
Y44479D01*
X140276D01*
Y44605D01*
X140403D01*
Y44731D01*
X140529D01*
Y44858D01*
X140656D01*
Y44984D01*
X140782D01*
Y45111D01*
X140908D01*
Y45237D01*
X141035D01*
Y45363D01*
X141287D01*
Y45490D01*
X141414D01*
Y45616D01*
X141540D01*
Y45743D01*
X141667D01*
Y45869D01*
X141793D01*
Y45995D01*
X141919D01*
Y46122D01*
X142046D01*
Y46248D01*
X142172D01*
Y46374D01*
X142299D01*
Y46501D01*
X142551D01*
Y46627D01*
X142678D01*
Y46754D01*
X142804D01*
Y46880D01*
X142930D01*
Y47006D01*
X143057D01*
Y47133D01*
X143183D01*
Y47259D01*
X143310D01*
Y47386D01*
X143436D01*
Y47512D01*
X143562D01*
Y47638D01*
X143689D01*
Y47765D01*
X143941D01*
Y47891D01*
X144068D01*
Y48017D01*
X144194D01*
Y48144D01*
X144321D01*
Y48270D01*
X144447D01*
Y48397D01*
X144573D01*
Y48523D01*
X144700D01*
Y48649D01*
X144826D01*
Y48776D01*
X144953D01*
Y48902D01*
X145205D01*
Y49029D01*
X145332D01*
Y49155D01*
X145458D01*
Y49281D01*
X145584D01*
Y49408D01*
X145711D01*
Y49534D01*
X145837D01*
Y49660D01*
X145964D01*
Y49787D01*
X146090D01*
Y49913D01*
X146343D01*
Y50040D01*
X146469D01*
Y50166D01*
X146596D01*
Y50292D01*
X146722D01*
Y50419D01*
X146848D01*
Y50545D01*
X146975D01*
Y50671D01*
X147101D01*
Y50798D01*
X147227D01*
Y50924D01*
X147354D01*
Y51051D01*
X147607D01*
Y51177D01*
X147733D01*
Y51303D01*
X147859D01*
Y51430D01*
X147986D01*
Y51556D01*
X148112D01*
Y51683D01*
X148238D01*
Y51809D01*
X148365D01*
Y51935D01*
X148491D01*
Y52062D01*
X148618D01*
Y52188D01*
X148870D01*
Y52314D01*
X148997D01*
Y52441D01*
X149123D01*
Y52567D01*
X149250D01*
Y52694D01*
X149376D01*
Y52820D01*
X149502D01*
Y52946D01*
X149629D01*
Y53073D01*
X149755D01*
Y53199D01*
X149881D01*
Y53325D01*
X150134D01*
Y53452D01*
X150261D01*
Y53578D01*
X150387D01*
Y53705D01*
X150513D01*
Y53831D01*
X150640D01*
Y53957D01*
X150766D01*
Y54084D01*
X150893D01*
Y54210D01*
X151019D01*
Y54337D01*
X151145D01*
Y54463D01*
X151272D01*
Y54589D01*
X151524D01*
Y54716D01*
X151651D01*
Y54842D01*
X151777D01*
Y54968D01*
X151904D01*
Y55095D01*
X152030D01*
Y55221D01*
X152156D01*
Y55348D01*
X152283D01*
Y55474D01*
X152535D01*
Y55600D01*
X152662D01*
Y55727D01*
X152788D01*
Y55853D01*
X152915D01*
Y55979D01*
X153041D01*
Y56106D01*
X153167D01*
Y56232D01*
X153294D01*
Y56359D01*
X153420D01*
Y56485D01*
X153547D01*
Y56611D01*
X153673D01*
Y56738D01*
X153799D01*
Y56864D01*
X153926D01*
Y56990D01*
X154052D01*
Y57117D01*
X154305D01*
Y57370D01*
X154558D01*
Y57496D01*
X154684D01*
Y57622D01*
X154810D01*
Y57749D01*
X154937D01*
Y57875D01*
X155063D01*
Y58002D01*
X155190D01*
Y58128D01*
X155316D01*
Y58254D01*
X155442D01*
Y58381D01*
X155569D01*
Y58507D01*
X155695D01*
Y58633D01*
X155822D01*
Y58760D01*
X156074D01*
Y58886D01*
X156201D01*
Y59013D01*
X156327D01*
Y59139D01*
X156453D01*
Y59265D01*
X156580D01*
Y59392D01*
X156706D01*
Y59518D01*
X156833D01*
Y59645D01*
X156959D01*
Y59771D01*
X157085D01*
Y59897D01*
X157212D01*
Y60024D01*
X157338D01*
Y60150D01*
X157465D01*
Y60276D01*
X157717D01*
Y60403D01*
X157844D01*
Y60529D01*
X157970D01*
Y60656D01*
X158096D01*
Y60782D01*
X158223D01*
Y60908D01*
X158349D01*
Y61035D01*
X158476D01*
Y61161D01*
X158602D01*
Y61287D01*
X158728D01*
Y61414D01*
X158855D01*
Y61540D01*
X158981D01*
Y61667D01*
X159107D01*
Y61793D01*
X159234D01*
Y61919D01*
X159360D01*
Y62046D01*
X159613D01*
Y62172D01*
X159739D01*
Y62299D01*
X159866D01*
Y62425D01*
X159992D01*
Y62551D01*
X160119D01*
Y62678D01*
X160245D01*
Y62804D01*
X160371D01*
Y62930D01*
X160498D01*
Y63057D01*
X160624D01*
Y63183D01*
X160750D01*
Y63310D01*
X160877D01*
Y63436D01*
X161003D01*
Y63562D01*
X161129D01*
Y63689D01*
X161382D01*
Y63815D01*
X161509D01*
Y63942D01*
X161635D01*
Y64068D01*
X161761D01*
Y64194D01*
X161888D01*
Y64321D01*
X162014D01*
Y64447D01*
X162141D01*
Y64573D01*
X162267D01*
Y64700D01*
X162393D01*
Y64826D01*
X162520D01*
Y64953D01*
X162646D01*
Y65079D01*
X162773D01*
Y65205D01*
X162899D01*
Y65332D01*
X163025D01*
Y65458D01*
X163278D01*
Y65585D01*
X163404D01*
Y65711D01*
X163531D01*
Y65837D01*
X163657D01*
Y65964D01*
X163784D01*
Y66090D01*
X163910D01*
Y66216D01*
X164036D01*
Y66343D01*
X164163D01*
Y66469D01*
X164289D01*
Y66596D01*
X164415D01*
Y66722D01*
X164542D01*
Y66848D01*
X164668D01*
Y66975D01*
X164921D01*
Y67101D01*
X165047D01*
Y67228D01*
X165174D01*
Y67354D01*
X165300D01*
Y67480D01*
X165427D01*
Y67607D01*
X165553D01*
Y67733D01*
X165679D01*
Y67859D01*
X165806D01*
Y67986D01*
X165932D01*
Y68112D01*
X166058D01*
Y68239D01*
X166185D01*
Y68365D01*
X166311D01*
Y68491D01*
X166564D01*
Y68744D01*
X166817D01*
Y68997D01*
X167069D01*
Y69123D01*
X167196D01*
Y69250D01*
X167322D01*
Y69376D01*
X167449D01*
Y69502D01*
X167575D01*
Y69629D01*
X167701D01*
Y69755D01*
X167828D01*
Y69882D01*
X167954D01*
Y70008D01*
X168081D01*
Y70134D01*
X168207D01*
Y70261D01*
X168333D01*
Y70387D01*
X168460D01*
Y70513D01*
X168713D01*
Y70640D01*
X168839D01*
Y70766D01*
X168965D01*
Y70893D01*
X169092D01*
Y71019D01*
X169218D01*
Y71145D01*
X169344D01*
Y71272D01*
X169471D01*
Y71398D01*
X169597D01*
Y71525D01*
X169723D01*
Y71651D01*
X169850D01*
Y71777D01*
X169976D01*
Y71904D01*
X170103D01*
Y72030D01*
X170355D01*
Y72156D01*
X170482D01*
Y72283D01*
X170608D01*
Y72409D01*
X170735D01*
Y72536D01*
X170861D01*
Y72662D01*
X170987D01*
Y72788D01*
X171114D01*
Y72915D01*
X171240D01*
Y73041D01*
X171367D01*
Y73168D01*
X171493D01*
Y73294D01*
X171619D01*
Y74684D01*
X171367D01*
Y74558D01*
X171240D01*
Y74431D01*
X171114D01*
Y74305D01*
X170987D01*
Y74179D01*
X170861D01*
Y74052D01*
X170735D01*
Y73926D01*
X170608D01*
Y73799D01*
X170355D01*
Y73673D01*
X170229D01*
Y73547D01*
X170103D01*
Y73420D01*
X169976D01*
Y73294D01*
X169850D01*
Y73168D01*
X169723D01*
Y73041D01*
X169597D01*
Y72915D01*
X169471D01*
Y72788D01*
X169344D01*
Y72662D01*
X169218D01*
Y72536D01*
X169092D01*
Y72409D01*
X168965D01*
Y72283D01*
X168839D01*
Y72156D01*
X168713D01*
Y72030D01*
X168460D01*
Y71904D01*
X168333D01*
Y71777D01*
X168207D01*
Y71651D01*
X168081D01*
Y71525D01*
X167954D01*
Y71398D01*
X167828D01*
Y71272D01*
X167701D01*
Y71145D01*
X167575D01*
Y71019D01*
X167449D01*
Y70893D01*
X167322D01*
Y70766D01*
X167196D01*
Y70640D01*
X167069D01*
Y70513D01*
X166817D01*
Y70387D01*
X166690D01*
Y70261D01*
X166564D01*
Y70134D01*
X166438D01*
Y70008D01*
X166311D01*
Y69882D01*
X166185D01*
Y69755D01*
X166058D01*
Y69629D01*
X165932D01*
Y69502D01*
X165806D01*
Y69376D01*
X165679D01*
Y69250D01*
X165553D01*
Y69123D01*
X165300D01*
Y68997D01*
X165174D01*
Y68870D01*
X165047D01*
Y68744D01*
X164921D01*
Y68618D01*
X164795D01*
Y68491D01*
X164668D01*
Y68365D01*
X164542D01*
Y68239D01*
X164415D01*
Y68112D01*
X164289D01*
Y67986D01*
X164163D01*
Y67859D01*
X164036D01*
Y67733D01*
X163910D01*
Y67607D01*
X163784D01*
Y67480D01*
X163657D01*
Y67354D01*
X163531D01*
Y67228D01*
X163278D01*
Y67101D01*
X163152D01*
Y66975D01*
X163025D01*
Y66848D01*
X162899D01*
Y66722D01*
X162773D01*
Y66596D01*
X162646D01*
Y66469D01*
X162520D01*
Y66343D01*
X162393D01*
Y66216D01*
X162267D01*
Y66090D01*
X162141D01*
Y65964D01*
X162014D01*
Y65837D01*
X161888D01*
Y65711D01*
X161635D01*
Y65585D01*
X161509D01*
Y65458D01*
X161382D01*
Y65332D01*
X161256D01*
Y65205D01*
X161129D01*
Y65079D01*
X161003D01*
Y64953D01*
X160877D01*
Y64826D01*
X160750D01*
Y64700D01*
X160624D01*
Y64573D01*
X160498D01*
Y64447D01*
X160371D01*
Y64321D01*
X160245D01*
Y64194D01*
X160119D01*
Y64068D01*
X159866D01*
Y63942D01*
X159739D01*
Y63815D01*
X159613D01*
Y63689D01*
X159487D01*
Y63562D01*
X159360D01*
Y63436D01*
X159234D01*
Y63310D01*
X159107D01*
Y63183D01*
X158981D01*
Y63057D01*
X158855D01*
Y62930D01*
X158728D01*
Y62804D01*
X158602D01*
Y62678D01*
X158476D01*
Y62551D01*
X158223D01*
Y62425D01*
X158096D01*
Y62299D01*
X157970D01*
Y62172D01*
X157844D01*
Y62046D01*
X157717D01*
Y61919D01*
X157591D01*
Y61793D01*
X157465D01*
Y61667D01*
X157338D01*
Y61540D01*
X157212D01*
Y61414D01*
X157085D01*
Y61287D01*
X156959D01*
Y61161D01*
X156706D01*
Y60908D01*
X156453D01*
Y60656D01*
X156201D01*
Y60529D01*
X156074D01*
Y60403D01*
X155948D01*
Y60276D01*
X155822D01*
Y60150D01*
X155695D01*
Y60024D01*
X155569D01*
Y59897D01*
X155442D01*
Y59771D01*
X155316D01*
Y59645D01*
X155190D01*
Y59518D01*
X155063D01*
Y59392D01*
X154937D01*
Y59265D01*
X154684D01*
Y59139D01*
X154558D01*
Y59013D01*
X154431D01*
Y58886D01*
X154305D01*
Y58760D01*
X154178D01*
Y58633D01*
X154052D01*
Y58507D01*
X153926D01*
Y58381D01*
X153799D01*
Y58254D01*
X153673D01*
Y58128D01*
X153547D01*
Y58002D01*
X153420D01*
Y57875D01*
X153294D01*
Y57749D01*
X153041D01*
Y57622D01*
X152915D01*
Y57496D01*
X152788D01*
Y57370D01*
X152662D01*
Y57243D01*
X152535D01*
Y57117D01*
X152409D01*
Y56990D01*
X152283D01*
Y56864D01*
X152156D01*
Y56738D01*
X152030D01*
Y56611D01*
X151904D01*
Y56485D01*
X151777D01*
Y56359D01*
X151651D01*
Y56232D01*
X151524D01*
Y56106D01*
X151272D01*
Y55979D01*
X151145D01*
Y55853D01*
X151019D01*
Y55727D01*
X150893D01*
Y55600D01*
X150766D01*
Y55474D01*
X150640D01*
Y55348D01*
X150513D01*
Y55221D01*
X150387D01*
Y55095D01*
X150261D01*
Y54968D01*
X150134D01*
Y54842D01*
X150008D01*
Y54716D01*
X149881D01*
Y54589D01*
X149755D01*
Y54463D01*
X149502D01*
Y54337D01*
X149376D01*
Y54210D01*
X149250D01*
Y54084D01*
X149123D01*
Y53957D01*
X148997D01*
Y53831D01*
X148870D01*
Y53705D01*
X148744D01*
Y53578D01*
X148618D01*
Y53452D01*
X148491D01*
Y53325D01*
X148365D01*
Y53199D01*
X148238D01*
Y53073D01*
X148112D01*
Y52946D01*
X147986D01*
Y52820D01*
X147733D01*
Y52694D01*
X147607D01*
Y52567D01*
X147480D01*
Y52441D01*
X147354D01*
Y52314D01*
X147227D01*
Y52188D01*
X147101D01*
Y52062D01*
X146975D01*
Y51935D01*
X146848D01*
Y51809D01*
X146722D01*
Y51683D01*
X146596D01*
Y51556D01*
X146469D01*
Y51430D01*
X146216D01*
Y51303D01*
X146090D01*
Y51177D01*
X145964D01*
Y51051D01*
X145837D01*
Y50924D01*
X145711D01*
Y50798D01*
X145584D01*
Y50671D01*
X145458D01*
Y50545D01*
X145332D01*
Y50419D01*
X145205D01*
Y50292D01*
X145079D01*
Y50166D01*
X144953D01*
Y50040D01*
X144826D01*
Y49913D01*
X144700D01*
Y49787D01*
X144447D01*
Y49534D01*
X144194D01*
Y49408D01*
X144068D01*
Y49281D01*
X143941D01*
Y49155D01*
X143815D01*
Y49029D01*
X143689D01*
Y48902D01*
X143562D01*
Y48776D01*
X143436D01*
Y48649D01*
X143310D01*
Y48523D01*
X143183D01*
Y48397D01*
X143057D01*
Y48270D01*
X142930D01*
Y48144D01*
X142804D01*
Y48017D01*
X142551D01*
Y47891D01*
X142425D01*
Y47765D01*
X142299D01*
Y47638D01*
X142172D01*
Y47512D01*
X142046D01*
Y47386D01*
X141919D01*
Y47259D01*
X141793D01*
Y47133D01*
X141667D01*
Y47006D01*
X141540D01*
Y46880D01*
X141414D01*
Y46754D01*
X141287D01*
Y46627D01*
X141035D01*
Y46501D01*
X140908D01*
Y46374D01*
X140782D01*
Y46248D01*
X140656D01*
Y46122D01*
X140529D01*
Y45995D01*
X140403D01*
Y45869D01*
X140276D01*
Y45743D01*
X140150D01*
Y45616D01*
X140024D01*
Y45490D01*
X139897D01*
Y45363D01*
X139771D01*
Y45237D01*
X139645D01*
Y45111D01*
X139518D01*
Y44984D01*
X139392D01*
Y44858D01*
X139139D01*
Y44731D01*
X139013D01*
Y44605D01*
X138886D01*
Y44479D01*
X138760D01*
Y44352D01*
X138633D01*
Y44226D01*
X138507D01*
Y44099D01*
X138381D01*
Y43973D01*
X138254D01*
Y43847D01*
X138128D01*
Y43720D01*
X138002D01*
Y43594D01*
X137875D01*
Y43468D01*
X137622D01*
Y43341D01*
X137496D01*
Y43215D01*
X137370D01*
Y43088D01*
X137243D01*
Y46880D01*
X137370D01*
Y47006D01*
X137496D01*
Y47133D01*
X137749D01*
Y47259D01*
X137875D01*
Y47386D01*
X138002D01*
Y47512D01*
X138128D01*
Y47638D01*
X138254D01*
Y47765D01*
X138381D01*
Y47891D01*
X138507D01*
Y48017D01*
X138633D01*
Y48144D01*
X138760D01*
Y48270D01*
X138886D01*
Y48397D01*
X139013D01*
Y48523D01*
X139265D01*
Y48649D01*
X139392D01*
Y48776D01*
X139518D01*
Y48902D01*
X139645D01*
Y49029D01*
X139771D01*
Y49155D01*
X139897D01*
Y49281D01*
X140024D01*
Y49408D01*
X140150D01*
Y49534D01*
X140276D01*
Y49660D01*
X140403D01*
Y49787D01*
X140529D01*
Y49913D01*
X140782D01*
Y50166D01*
X141035D01*
Y50292D01*
X141161D01*
Y50419D01*
X141287D01*
Y50545D01*
X141414D01*
Y50671D01*
X141540D01*
Y50798D01*
X141667D01*
Y50924D01*
X141793D01*
Y51051D01*
X141919D01*
Y51177D01*
X142046D01*
Y51303D01*
X142172D01*
Y51430D01*
X142299D01*
Y51556D01*
X142425D01*
Y51683D01*
X142678D01*
Y51809D01*
X142804D01*
Y51935D01*
X142930D01*
Y52062D01*
X143057D01*
Y52188D01*
X143183D01*
Y52314D01*
X143310D01*
Y52441D01*
X143436D01*
Y52567D01*
X143562D01*
Y52694D01*
X143689D01*
Y52820D01*
X143815D01*
Y52946D01*
X144068D01*
Y53073D01*
X144194D01*
Y53199D01*
X144321D01*
Y53325D01*
X144447D01*
Y53452D01*
X144573D01*
Y53578D01*
X144700D01*
Y53705D01*
X144826D01*
Y53831D01*
X144953D01*
Y53957D01*
X145079D01*
Y54084D01*
X145205D01*
Y54210D01*
X145332D01*
Y54337D01*
X145458D01*
Y54463D01*
X145711D01*
Y54589D01*
X145837D01*
Y54716D01*
X145964D01*
Y54842D01*
X146090D01*
Y54968D01*
X146216D01*
Y55095D01*
X146343D01*
Y55221D01*
X146469D01*
Y55348D01*
X146596D01*
Y55474D01*
X146722D01*
Y55600D01*
X146848D01*
Y55727D01*
X146975D01*
Y55853D01*
X147101D01*
Y55979D01*
X147354D01*
Y56106D01*
X147480D01*
Y56232D01*
X147607D01*
Y56359D01*
X147733D01*
Y56485D01*
X147859D01*
Y56611D01*
X147986D01*
Y56738D01*
X148112D01*
Y56864D01*
X148238D01*
Y56990D01*
X148365D01*
Y57117D01*
X148491D01*
Y57243D01*
X148618D01*
Y57370D01*
X148870D01*
Y57496D01*
X148997D01*
Y57622D01*
X149123D01*
Y57749D01*
X149250D01*
Y57875D01*
X149376D01*
Y58002D01*
X149502D01*
Y58128D01*
X149629D01*
Y58254D01*
X149755D01*
Y58381D01*
X149881D01*
Y58507D01*
X150008D01*
Y58633D01*
X150134D01*
Y58760D01*
X150261D01*
Y58886D01*
X150513D01*
Y59013D01*
X150640D01*
Y59139D01*
X150766D01*
Y59265D01*
X150893D01*
Y59392D01*
X151019D01*
Y59518D01*
X151145D01*
Y59645D01*
X151272D01*
Y59771D01*
X151398D01*
Y59897D01*
X151524D01*
Y60024D01*
X151651D01*
Y60150D01*
X151904D01*
Y60276D01*
X152030D01*
Y60403D01*
X152156D01*
Y60529D01*
X152283D01*
Y60656D01*
X152409D01*
Y60782D01*
X152535D01*
Y60908D01*
X152662D01*
Y61035D01*
X152788D01*
Y61161D01*
X152915D01*
Y61287D01*
X153041D01*
Y61414D01*
X153167D01*
Y61540D01*
X153294D01*
Y61667D01*
X153420D01*
Y61793D01*
X153673D01*
Y61919D01*
X153799D01*
Y62046D01*
X153926D01*
Y62172D01*
X154052D01*
Y62299D01*
X154178D01*
Y62425D01*
X154305D01*
Y62551D01*
X154431D01*
Y62678D01*
X154558D01*
Y62804D01*
X154684D01*
Y62930D01*
X154810D01*
Y63057D01*
X154937D01*
Y63183D01*
X155063D01*
Y63310D01*
X155316D01*
Y63436D01*
X155442D01*
Y63562D01*
X155569D01*
Y63689D01*
X155695D01*
Y63815D01*
X155822D01*
Y63942D01*
X155948D01*
Y64068D01*
X156074D01*
Y64194D01*
X156201D01*
Y64321D01*
X156327D01*
Y64447D01*
X156453D01*
Y64573D01*
X156580D01*
Y64700D01*
X156706D01*
Y64826D01*
X156959D01*
Y64953D01*
X157085D01*
Y65079D01*
X157212D01*
Y65205D01*
X157338D01*
Y65332D01*
X157465D01*
Y65458D01*
X157591D01*
Y65585D01*
X157717D01*
Y65711D01*
X157844D01*
Y65837D01*
X157970D01*
Y65964D01*
X158096D01*
Y66090D01*
X158349D01*
Y66216D01*
X158476D01*
Y66343D01*
X158602D01*
Y66469D01*
X158728D01*
Y66596D01*
X158855D01*
Y66722D01*
X158981D01*
Y66848D01*
X159107D01*
Y66975D01*
X159234D01*
Y67101D01*
X159360D01*
Y67228D01*
X159487D01*
Y67354D01*
X159613D01*
Y67480D01*
X159739D01*
Y67607D01*
X159992D01*
Y67859D01*
X160245D01*
Y67986D01*
X160371D01*
Y68112D01*
X160498D01*
Y68239D01*
X160624D01*
Y68365D01*
X160750D01*
Y68491D01*
X160877D01*
Y68618D01*
X161003D01*
Y68744D01*
X161129D01*
Y68870D01*
X161256D01*
Y68997D01*
X161382D01*
Y69123D01*
X161635D01*
Y69250D01*
X161761D01*
Y69376D01*
X161888D01*
Y69502D01*
X162014D01*
Y69629D01*
X162141D01*
Y69755D01*
X162267D01*
Y69882D01*
X162393D01*
Y70008D01*
X162520D01*
Y70134D01*
X162646D01*
Y70261D01*
X162773D01*
Y70387D01*
X162899D01*
Y70513D01*
X163152D01*
Y70640D01*
X163278D01*
Y70766D01*
X163404D01*
Y70893D01*
X163531D01*
Y71019D01*
X163657D01*
Y71145D01*
X163784D01*
Y71272D01*
X163910D01*
Y71398D01*
X164036D01*
Y71525D01*
X164163D01*
Y71651D01*
X164289D01*
Y71777D01*
X164415D01*
Y73041D01*
X164163D01*
Y72915D01*
X164036D01*
Y72788D01*
X163910D01*
Y72662D01*
X163784D01*
Y72536D01*
X163657D01*
Y72409D01*
X163531D01*
Y72283D01*
X163404D01*
Y72156D01*
X163152D01*
Y72030D01*
X163025D01*
Y71904D01*
X162899D01*
Y71777D01*
X162773D01*
Y71651D01*
X162646D01*
Y71525D01*
X162520D01*
Y71398D01*
X162393D01*
Y71272D01*
X162267D01*
Y71145D01*
X162141D01*
Y71019D01*
X162014D01*
Y70893D01*
X161888D01*
Y70766D01*
X161635D01*
Y70640D01*
X161509D01*
Y70513D01*
X161382D01*
Y70387D01*
X161256D01*
Y70261D01*
X161129D01*
Y70134D01*
X161003D01*
Y70008D01*
X160877D01*
Y69882D01*
X160750D01*
Y69755D01*
X160624D01*
Y69629D01*
X160498D01*
Y69502D01*
X160371D01*
Y69376D01*
X160245D01*
Y69250D01*
X159992D01*
Y68997D01*
X159739D01*
Y68870D01*
X159613D01*
Y68744D01*
X159487D01*
Y68618D01*
X159360D01*
Y68491D01*
X159234D01*
Y68365D01*
X159107D01*
Y68239D01*
X158981D01*
Y68112D01*
X158855D01*
Y67986D01*
X158728D01*
Y67859D01*
X158602D01*
Y67733D01*
X158476D01*
Y67607D01*
X158223D01*
Y67480D01*
X158096D01*
Y67354D01*
X157970D01*
Y67228D01*
X157844D01*
Y67101D01*
X157717D01*
Y66975D01*
X157591D01*
Y66848D01*
X157465D01*
Y66722D01*
X157338D01*
Y66596D01*
X157212D01*
Y66469D01*
X157085D01*
Y66343D01*
X156959D01*
Y66216D01*
X156706D01*
Y66090D01*
X156580D01*
Y65964D01*
X156453D01*
Y65837D01*
X156327D01*
Y65711D01*
X156201D01*
Y65585D01*
X156074D01*
Y65458D01*
X155948D01*
Y65332D01*
X155822D01*
Y65205D01*
X155695D01*
Y65079D01*
X155569D01*
Y64953D01*
X155442D01*
Y64826D01*
X155316D01*
Y64700D01*
X155190D01*
Y64573D01*
X154937D01*
Y64447D01*
X154810D01*
Y64321D01*
X154684D01*
Y64194D01*
X154558D01*
Y64068D01*
X154431D01*
Y63942D01*
X154305D01*
Y63815D01*
X154178D01*
Y63689D01*
X154052D01*
Y63562D01*
X153926D01*
Y63436D01*
X153799D01*
Y63310D01*
X153673D01*
Y63183D01*
X153547D01*
Y63057D01*
X153420D01*
Y62930D01*
X153167D01*
Y62804D01*
X153041D01*
Y62678D01*
X152915D01*
Y62551D01*
X152788D01*
Y62425D01*
X152662D01*
Y62299D01*
X152535D01*
Y62172D01*
X152409D01*
Y62046D01*
X152283D01*
Y61919D01*
X152156D01*
Y61793D01*
X152030D01*
Y61667D01*
X151904D01*
Y61540D01*
X151777D01*
Y61414D01*
X151524D01*
Y61287D01*
X151398D01*
Y61161D01*
X151272D01*
Y61035D01*
X151145D01*
Y60908D01*
X151019D01*
Y60782D01*
X150893D01*
Y60656D01*
X150766D01*
Y60529D01*
X150640D01*
Y60403D01*
X150513D01*
Y60276D01*
X150387D01*
Y60150D01*
X150261D01*
Y60024D01*
X150008D01*
Y59897D01*
X149881D01*
Y59771D01*
X149755D01*
Y59645D01*
X149629D01*
Y59518D01*
X149502D01*
Y59392D01*
X149376D01*
Y59265D01*
X149250D01*
Y59139D01*
X149123D01*
Y59013D01*
X148997D01*
Y58886D01*
X148870D01*
Y58760D01*
X148744D01*
Y58633D01*
X148618D01*
Y58507D01*
X148365D01*
Y58254D01*
X148112D01*
Y58128D01*
X147986D01*
Y58002D01*
X147859D01*
Y57875D01*
X147733D01*
Y57749D01*
X147607D01*
Y57622D01*
X147480D01*
Y57496D01*
X147354D01*
Y57370D01*
X147227D01*
Y57243D01*
X147101D01*
Y57117D01*
X146975D01*
Y56990D01*
X146848D01*
Y56864D01*
X146596D01*
Y56738D01*
X146469D01*
Y56611D01*
X146343D01*
Y56485D01*
X146216D01*
Y56359D01*
X146090D01*
Y56232D01*
X145964D01*
Y56106D01*
X145837D01*
Y55979D01*
X145711D01*
Y55853D01*
X145584D01*
Y55727D01*
X145458D01*
Y55600D01*
X145332D01*
Y55474D01*
X145079D01*
Y55348D01*
X144953D01*
Y55221D01*
X144826D01*
Y55095D01*
X144700D01*
Y54968D01*
X144573D01*
Y54842D01*
X144447D01*
Y54716D01*
X144321D01*
Y54589D01*
X144194D01*
Y54463D01*
X144068D01*
Y54337D01*
X143941D01*
Y54210D01*
X143815D01*
Y54084D01*
X143689D01*
Y53957D01*
X143562D01*
Y53831D01*
X143310D01*
Y53705D01*
X143183D01*
Y53578D01*
X143057D01*
Y53452D01*
X142930D01*
Y53325D01*
X142804D01*
Y53199D01*
X142678D01*
Y53073D01*
X142551D01*
Y52946D01*
X142425D01*
Y52820D01*
X142299D01*
Y52694D01*
X142172D01*
Y52567D01*
X142046D01*
Y52441D01*
X141919D01*
Y52314D01*
X141667D01*
Y52188D01*
X141540D01*
Y52062D01*
X141414D01*
Y51935D01*
X141287D01*
Y51809D01*
X141161D01*
Y51683D01*
X141035D01*
Y51556D01*
X140908D01*
Y51430D01*
X140782D01*
Y51303D01*
X140656D01*
Y51177D01*
X140529D01*
Y51051D01*
X140403D01*
Y50924D01*
X140276D01*
Y50798D01*
X140150D01*
Y50671D01*
X139897D01*
Y50545D01*
X139771D01*
Y54337D01*
X139897D01*
Y54463D01*
X140024D01*
Y54589D01*
X140150D01*
Y54716D01*
X140276D01*
Y54842D01*
X140403D01*
Y54968D01*
X140529D01*
Y55095D01*
X140656D01*
Y55221D01*
X140782D01*
Y55348D01*
X140908D01*
Y55474D01*
X141035D01*
Y55600D01*
X141161D01*
Y55727D01*
X141414D01*
Y55979D01*
X141667D01*
Y56106D01*
X141793D01*
Y56232D01*
X141919D01*
Y56359D01*
X142046D01*
Y56485D01*
X142172D01*
Y56611D01*
X142299D01*
Y56738D01*
X142425D01*
Y56864D01*
X142551D01*
Y56990D01*
X142678D01*
Y57117D01*
X142804D01*
Y57243D01*
X142930D01*
Y57370D01*
X143183D01*
Y57622D01*
X143436D01*
Y57749D01*
X143562D01*
Y57875D01*
X143689D01*
Y58002D01*
X143815D01*
Y58128D01*
X143941D01*
Y58254D01*
X144068D01*
Y58381D01*
X144194D01*
Y58507D01*
X144321D01*
Y58633D01*
X144447D01*
Y58760D01*
X144573D01*
Y58886D01*
X144700D01*
Y59013D01*
X144826D01*
Y59139D01*
X145079D01*
Y59265D01*
X145205D01*
Y59392D01*
X145332D01*
Y59518D01*
X145458D01*
Y59645D01*
X145584D01*
Y59771D01*
X145711D01*
Y59897D01*
X145837D01*
Y60024D01*
X145964D01*
Y60150D01*
X146090D01*
Y60276D01*
X146216D01*
Y60403D01*
X146343D01*
Y60529D01*
X146469D01*
Y60656D01*
X146722D01*
Y60782D01*
X146848D01*
Y60908D01*
X146975D01*
Y61035D01*
X147101D01*
Y61161D01*
X147227D01*
Y61287D01*
X147354D01*
Y61414D01*
X147480D01*
Y61540D01*
X147607D01*
Y61667D01*
X147733D01*
Y61793D01*
X147859D01*
Y61919D01*
X147986D01*
Y62046D01*
X148112D01*
Y62172D01*
X148238D01*
Y62299D01*
X148365D01*
Y62425D01*
X148618D01*
Y62678D01*
X148870D01*
Y62804D01*
X148997D01*
Y62930D01*
X149123D01*
Y63057D01*
X149250D01*
Y63183D01*
X149376D01*
Y63310D01*
X149502D01*
Y63436D01*
X149629D01*
Y63562D01*
X149755D01*
Y63689D01*
X149881D01*
Y63815D01*
X150008D01*
Y63942D01*
X150134D01*
Y64068D01*
X150261D01*
Y64194D01*
X150513D01*
Y64321D01*
X150640D01*
Y64447D01*
X150766D01*
Y64573D01*
X150893D01*
Y64700D01*
X151019D01*
Y64826D01*
X151145D01*
Y64953D01*
X151272D01*
Y65079D01*
X151398D01*
Y65205D01*
X151524D01*
Y65332D01*
X151651D01*
Y65458D01*
X151777D01*
Y65585D01*
X151904D01*
Y65711D01*
X152030D01*
Y65837D01*
X152156D01*
Y65964D01*
X152409D01*
Y66090D01*
X152535D01*
Y66216D01*
X152662D01*
Y66343D01*
X152788D01*
Y66469D01*
X152915D01*
Y66596D01*
X153041D01*
Y66722D01*
X153167D01*
Y66848D01*
X153294D01*
Y66975D01*
X153420D01*
Y67101D01*
X153547D01*
Y67228D01*
X153673D01*
Y67354D01*
X153926D01*
Y67480D01*
X154052D01*
Y67607D01*
X154178D01*
Y67733D01*
X154305D01*
Y67859D01*
X154431D01*
Y67986D01*
X154558D01*
Y68112D01*
X154684D01*
Y68239D01*
X154810D01*
Y68365D01*
X154937D01*
Y68491D01*
X155063D01*
Y68618D01*
X155190D01*
Y68744D01*
X155316D01*
Y68870D01*
X155442D01*
Y68997D01*
X155569D01*
Y69123D01*
X155695D01*
Y70261D01*
X155442D01*
Y70134D01*
X155190D01*
Y69882D01*
X154937D01*
Y69755D01*
X154810D01*
Y69629D01*
X154684D01*
Y69502D01*
X154558D01*
Y69376D01*
X154431D01*
Y69250D01*
X154305D01*
Y69123D01*
X154178D01*
Y68997D01*
X154052D01*
Y68870D01*
X153926D01*
Y68744D01*
X153673D01*
Y68618D01*
X153547D01*
Y68491D01*
X153420D01*
Y68365D01*
X153294D01*
Y68239D01*
X153167D01*
Y68112D01*
X153041D01*
Y67986D01*
X152915D01*
Y67859D01*
X152788D01*
Y67733D01*
X152662D01*
Y67607D01*
X152409D01*
Y67480D01*
X152283D01*
Y67354D01*
X152156D01*
Y67228D01*
X152030D01*
Y67101D01*
X151904D01*
Y66975D01*
X151777D01*
Y66848D01*
X151651D01*
Y66722D01*
X151524D01*
Y66596D01*
X151398D01*
Y66469D01*
X151272D01*
Y66343D01*
X151019D01*
Y66216D01*
X150893D01*
Y66090D01*
X150766D01*
Y65964D01*
X150640D01*
Y65837D01*
X150513D01*
Y65711D01*
X150387D01*
Y65585D01*
X150261D01*
Y65458D01*
X150134D01*
Y65332D01*
X150008D01*
Y65205D01*
X149881D01*
Y65079D01*
X149629D01*
Y64953D01*
X149502D01*
Y64826D01*
X149376D01*
Y64700D01*
X149250D01*
Y64573D01*
X149123D01*
Y64447D01*
X148997D01*
Y64321D01*
X148870D01*
Y64194D01*
X148744D01*
Y64068D01*
X148618D01*
Y63942D01*
X148491D01*
Y63815D01*
X148238D01*
Y63689D01*
X148112D01*
Y63562D01*
X147986D01*
Y80624D01*
X177180D01*
Y52946D01*
D02*
G37*
G36*
X697000Y131000D02*
X567000D01*
Y157000D01*
X697000D01*
Y131000D01*
D02*
G37*
G36*
X99000Y118000D02*
X3000D01*
Y144000D01*
X99000D01*
Y118000D01*
D02*
G37*
G36*
X53000Y372000D02*
X3000D01*
Y398000D01*
X53000D01*
Y372000D01*
D02*
G37*
G36*
X528000Y447000D02*
X488000D01*
Y473000D01*
X528000D01*
Y447000D01*
D02*
G37*
G36*
X390000Y5000D02*
X100000D01*
Y30000D01*
X390000D01*
Y5000D01*
D02*
G37*
G36*
X528000Y367000D02*
X454000D01*
Y393000D01*
X528000D01*
Y367000D01*
D02*
G37*
G36*
X269000Y352000D02*
X169000D01*
Y377000D01*
X269000D01*
Y352000D01*
D02*
G37*
G36*
X601826Y85674D02*
X351826D01*
Y110674D01*
X601826D01*
Y85674D01*
D02*
G37*
G36*
X273000Y480000D02*
Y450000D01*
X213000D01*
Y480000D01*
X273000D01*
D02*
G37*
G36*
X528000Y407000D02*
X488000D01*
Y433000D01*
X528000D01*
Y407000D01*
D02*
G37*
%LPC*%
G36*
X186153Y100087D02*
X184763D01*
Y99960D01*
X184384D01*
Y99834D01*
X184131D01*
Y99708D01*
X184005D01*
Y99581D01*
X183752D01*
Y99455D01*
X183626D01*
Y99329D01*
X183499D01*
Y99202D01*
X183373D01*
Y99076D01*
X183246D01*
Y98823D01*
X183120D01*
Y98697D01*
X182994D01*
Y98317D01*
X182867D01*
Y97938D01*
X182741D01*
Y97306D01*
Y97180D01*
Y96801D01*
X182867D01*
Y96422D01*
X182994D01*
Y96169D01*
X183120D01*
Y95916D01*
X183246D01*
Y95790D01*
X183373D01*
Y95537D01*
X183499D01*
Y95411D01*
X183626D01*
Y95284D01*
X183752D01*
Y95158D01*
X184005D01*
Y95032D01*
X184258D01*
Y94905D01*
X184510D01*
Y94779D01*
X184763D01*
Y94652D01*
X186153D01*
Y94779D01*
X186532D01*
Y94905D01*
X186785D01*
Y95032D01*
X187038D01*
Y95158D01*
X187164D01*
Y95284D01*
X187291D01*
Y95411D01*
X187417D01*
Y95537D01*
X187543D01*
Y95663D01*
X187670D01*
Y95790D01*
X187796D01*
Y96043D01*
X187923D01*
Y96295D01*
X188049D01*
Y96548D01*
X188175D01*
Y98065D01*
X188049D01*
Y98444D01*
X187923D01*
Y98697D01*
X187796D01*
Y98949D01*
X187670D01*
Y99076D01*
X187543D01*
Y99329D01*
X187417D01*
Y99455D01*
X187164D01*
Y99581D01*
X187038D01*
Y99708D01*
X186785D01*
Y99834D01*
X186532D01*
Y99960D01*
X186153D01*
Y100087D01*
D02*
G37*
%LPD*%
G36*
Y98949D02*
X186406D01*
Y98823D01*
X186532D01*
Y98697D01*
X186659D01*
Y98444D01*
X186785D01*
Y97812D01*
X186659D01*
Y97559D01*
X186532D01*
Y97433D01*
X186406D01*
Y97306D01*
X186153D01*
Y97180D01*
X185900D01*
Y97054D01*
X186027D01*
Y96927D01*
X186153D01*
Y96801D01*
X186280D01*
Y96675D01*
X186406D01*
Y96422D01*
X186532D01*
Y96295D01*
X186659D01*
Y96043D01*
X186785D01*
Y95916D01*
X186912D01*
Y95663D01*
X187038D01*
Y95537D01*
X186280D01*
Y95663D01*
X186153D01*
Y95916D01*
X186027D01*
Y96169D01*
X185900D01*
Y96422D01*
X185774D01*
Y96548D01*
X185648D01*
Y96801D01*
X185521D01*
Y96927D01*
X185269D01*
Y97054D01*
X184637D01*
Y95537D01*
X184005D01*
Y97559D01*
Y97686D01*
Y99076D01*
X186153D01*
Y98949D01*
D02*
G37*
%LPC*%
G36*
X185900Y98570D02*
X184637D01*
Y97559D01*
X185774D01*
Y97686D01*
X186027D01*
Y97812D01*
X186153D01*
Y98317D01*
X186027D01*
Y98444D01*
X185900D01*
Y98570D01*
D02*
G37*
G36*
X179202Y95537D02*
X165300D01*
Y95284D01*
X165427D01*
Y95158D01*
X165679D01*
Y95032D01*
X165806D01*
Y94905D01*
X165932D01*
Y94779D01*
X166058D01*
Y94652D01*
X166185D01*
Y94526D01*
X166438D01*
Y94400D01*
X166564D01*
Y94273D01*
X174652D01*
Y86817D01*
X174779D01*
Y86690D01*
X174905D01*
Y86564D01*
X175032D01*
Y86438D01*
X175158D01*
Y86311D01*
X175284D01*
Y86185D01*
X175411D01*
Y86059D01*
X175537D01*
Y85932D01*
X175664D01*
Y85806D01*
X175790D01*
Y85679D01*
X175916D01*
Y85553D01*
X176043D01*
Y85427D01*
X176295D01*
Y86438D01*
X176169D01*
Y94273D01*
X179202D01*
Y95537D01*
D02*
G37*
G36*
X161003Y94021D02*
X160877D01*
Y86690D01*
Y86564D01*
Y84289D01*
X162267D01*
Y91240D01*
X162520D01*
Y91114D01*
X162646D01*
Y90987D01*
X162773D01*
Y90861D01*
X162899D01*
Y90735D01*
X163025D01*
Y90608D01*
X163152D01*
Y90482D01*
X163278D01*
Y90355D01*
X163404D01*
Y90229D01*
X163531D01*
Y90103D01*
X163657D01*
Y89976D01*
X163910D01*
Y89724D01*
X164163D01*
Y89597D01*
X164289D01*
Y89471D01*
X164415D01*
Y89344D01*
X164542D01*
Y89218D01*
X164668D01*
Y89092D01*
X164795D01*
Y88965D01*
X164921D01*
Y88839D01*
X165047D01*
Y88713D01*
X165174D01*
Y88586D01*
X165300D01*
Y88460D01*
X165427D01*
Y88333D01*
X165553D01*
Y88207D01*
X165679D01*
Y88081D01*
X165932D01*
Y87954D01*
X166058D01*
Y87828D01*
X166185D01*
Y87701D01*
X166311D01*
Y87575D01*
X166438D01*
Y87449D01*
X166564D01*
Y87322D01*
X166690D01*
Y87196D01*
X166817D01*
Y87070D01*
X166943D01*
Y86943D01*
X167069D01*
Y86817D01*
X167196D01*
Y86690D01*
X167449D01*
Y86564D01*
X167575D01*
Y86438D01*
X167701D01*
Y86311D01*
X167828D01*
Y86185D01*
X167954D01*
Y86059D01*
X168081D01*
Y85932D01*
X168207D01*
Y85806D01*
X168333D01*
Y85679D01*
X168460D01*
Y85553D01*
X168586D01*
Y85427D01*
X168713D01*
Y85300D01*
X168965D01*
Y85174D01*
X169092D01*
Y85047D01*
X169218D01*
Y84921D01*
X169344D01*
Y84795D01*
X169471D01*
Y84668D01*
X169597D01*
Y84542D01*
X169723D01*
Y84416D01*
X169850D01*
Y84289D01*
X171493D01*
Y84416D01*
X171367D01*
Y84542D01*
X171240D01*
Y84668D01*
X171114D01*
Y84795D01*
X170987D01*
Y84921D01*
X170735D01*
Y85047D01*
X170608D01*
Y85174D01*
X170482D01*
Y85300D01*
X170355D01*
Y85427D01*
X170229D01*
Y85553D01*
X170103D01*
Y85679D01*
X169976D01*
Y85806D01*
X169850D01*
Y85932D01*
X169723D01*
Y86059D01*
X169597D01*
Y86185D01*
X169471D01*
Y86311D01*
X169218D01*
Y86438D01*
X169092D01*
Y86564D01*
X168965D01*
Y86690D01*
X168839D01*
Y86817D01*
X168713D01*
Y86943D01*
X168586D01*
Y87070D01*
X168460D01*
Y87196D01*
X168333D01*
Y87322D01*
X168207D01*
Y87449D01*
X168081D01*
Y87575D01*
X167828D01*
Y87828D01*
X167575D01*
Y87954D01*
X167449D01*
Y88081D01*
X167322D01*
Y88207D01*
X167196D01*
Y88333D01*
X167069D01*
Y88460D01*
X166943D01*
Y88586D01*
X166817D01*
Y88713D01*
X166690D01*
Y88839D01*
X166564D01*
Y88965D01*
X166438D01*
Y89092D01*
X166311D01*
Y89218D01*
X166058D01*
Y89344D01*
X165932D01*
Y89471D01*
X165806D01*
Y89597D01*
X165679D01*
Y89724D01*
X165553D01*
Y89850D01*
X165427D01*
Y89976D01*
X165300D01*
Y90103D01*
X165174D01*
Y90229D01*
X165047D01*
Y90355D01*
X164795D01*
Y90482D01*
X164668D01*
Y90608D01*
X164542D01*
Y90735D01*
X164415D01*
Y90861D01*
X164289D01*
Y90987D01*
X164163D01*
Y91114D01*
X164036D01*
Y91240D01*
X163910D01*
Y91367D01*
X163784D01*
Y91493D01*
X163657D01*
Y91619D01*
X163531D01*
Y91746D01*
X163278D01*
Y91872D01*
X163152D01*
Y91998D01*
X163025D01*
Y92125D01*
X162899D01*
Y92251D01*
X162773D01*
Y92378D01*
X162646D01*
Y92504D01*
X162520D01*
Y92630D01*
X162393D01*
Y92757D01*
X162267D01*
Y92883D01*
X162141D01*
Y93010D01*
X162014D01*
Y93136D01*
X161888D01*
Y93262D01*
X161635D01*
Y93389D01*
X161509D01*
Y93515D01*
X161382D01*
Y93641D01*
X161256D01*
Y93768D01*
X161129D01*
Y93894D01*
X161003D01*
Y94021D01*
D02*
G37*
G36*
X152915Y95411D02*
X138507D01*
Y94273D01*
X141540D01*
Y88333D01*
Y88207D01*
Y85679D01*
X141667D01*
Y85806D01*
X141793D01*
Y85932D01*
X141919D01*
Y86059D01*
X142046D01*
Y86185D01*
X142299D01*
Y86311D01*
X142425D01*
Y86438D01*
X142551D01*
Y86564D01*
X142678D01*
Y86690D01*
X142804D01*
Y94147D01*
X142930D01*
Y94273D01*
X151651D01*
Y94400D01*
X151777D01*
Y94526D01*
X152030D01*
Y94652D01*
X152156D01*
Y94779D01*
X152283D01*
Y94905D01*
X152409D01*
Y95032D01*
X152535D01*
Y95158D01*
X152788D01*
Y95284D01*
X152915D01*
Y95411D01*
D02*
G37*
G36*
X156833Y94147D02*
X156706D01*
Y94021D01*
X156580D01*
Y93894D01*
X156453D01*
Y93768D01*
X156327D01*
Y93641D01*
X156074D01*
Y93515D01*
X155948D01*
Y93389D01*
X155822D01*
Y93262D01*
X155695D01*
Y93136D01*
X155569D01*
Y93010D01*
X155442D01*
Y92883D01*
X155190D01*
Y92757D01*
X155063D01*
Y92630D01*
X154937D01*
Y92504D01*
X154810D01*
Y92378D01*
X154684D01*
Y92251D01*
X154558D01*
Y92125D01*
X154431D01*
Y91998D01*
X154305D01*
Y91872D01*
X154052D01*
Y91746D01*
X153926D01*
Y91619D01*
X153799D01*
Y91493D01*
X153673D01*
Y91367D01*
X153547D01*
Y91240D01*
X153420D01*
Y91114D01*
X153167D01*
Y90987D01*
X153041D01*
Y90861D01*
X152915D01*
Y90735D01*
X152788D01*
Y90608D01*
X152662D01*
Y90482D01*
X152535D01*
Y90355D01*
X152283D01*
Y90229D01*
X152156D01*
Y90103D01*
X152030D01*
Y89976D01*
X151904D01*
Y89850D01*
X151777D01*
Y89724D01*
X151651D01*
Y89597D01*
X151398D01*
Y89471D01*
X151272D01*
Y89344D01*
X151145D01*
Y89218D01*
X151019D01*
Y89092D01*
X150893D01*
Y88965D01*
X150766D01*
Y88839D01*
X150640D01*
Y88713D01*
X150387D01*
Y88586D01*
X150261D01*
Y88460D01*
X150134D01*
Y88333D01*
X150008D01*
Y88207D01*
X149881D01*
Y88081D01*
X149755D01*
Y87954D01*
X149629D01*
Y87828D01*
X149376D01*
Y87701D01*
X149250D01*
Y87575D01*
X149123D01*
Y87449D01*
X148997D01*
Y87322D01*
X148870D01*
Y87196D01*
X148744D01*
Y87070D01*
X148491D01*
Y86943D01*
X148365D01*
Y86817D01*
X148238D01*
Y86690D01*
X148112D01*
Y86564D01*
X147986D01*
Y86438D01*
X147859D01*
Y86311D01*
X147607D01*
Y86185D01*
X147480D01*
Y86059D01*
X147354D01*
Y85932D01*
X147227D01*
Y85806D01*
X147101D01*
Y85679D01*
X146975D01*
Y85553D01*
X146848D01*
Y85427D01*
X146596D01*
Y85300D01*
X146469D01*
Y85174D01*
X146343D01*
Y85047D01*
X146216D01*
Y84921D01*
X146090D01*
Y84795D01*
X145964D01*
Y84668D01*
X145837D01*
Y84542D01*
X145584D01*
Y84416D01*
X145458D01*
Y84289D01*
X152030D01*
Y85427D01*
X148997D01*
Y85553D01*
X149123D01*
Y85679D01*
X149250D01*
Y85806D01*
X149376D01*
Y85932D01*
X149502D01*
Y86059D01*
X149629D01*
Y86185D01*
X149755D01*
Y86311D01*
X149881D01*
Y86438D01*
X150008D01*
Y86564D01*
X150261D01*
Y86690D01*
X150387D01*
Y86817D01*
X150513D01*
Y86943D01*
X150640D01*
Y87070D01*
X150766D01*
Y87196D01*
X150893D01*
Y87322D01*
X151019D01*
Y87449D01*
X151145D01*
Y87575D01*
X151272D01*
Y87701D01*
X151398D01*
Y87828D01*
X151651D01*
Y87954D01*
X151777D01*
Y88081D01*
X151904D01*
Y88207D01*
X152030D01*
Y88333D01*
X152156D01*
Y88460D01*
X152283D01*
Y88586D01*
X152409D01*
Y88713D01*
X152535D01*
Y88839D01*
X152662D01*
Y88965D01*
X152788D01*
Y89092D01*
X152915D01*
Y89218D01*
X153041D01*
Y89344D01*
X153294D01*
Y89471D01*
X153420D01*
Y89597D01*
X153547D01*
Y89724D01*
X153673D01*
Y89850D01*
X153799D01*
Y89976D01*
X153926D01*
Y90103D01*
X154052D01*
Y90229D01*
X154178D01*
Y90355D01*
X154305D01*
Y90482D01*
X154558D01*
Y90608D01*
X154684D01*
Y90735D01*
X154810D01*
Y90861D01*
X154937D01*
Y90987D01*
X155063D01*
Y91114D01*
X155190D01*
Y91240D01*
X155316D01*
Y91367D01*
X155442D01*
Y84289D01*
X156833D01*
Y94147D01*
D02*
G37*
G36*
X140403Y93262D02*
X137622D01*
Y93136D01*
X137496D01*
Y93010D01*
X137243D01*
Y92883D01*
X137117D01*
Y92757D01*
X136990D01*
Y92630D01*
X136864D01*
Y92504D01*
X136738D01*
Y92378D01*
X136611D01*
Y92251D01*
X136485D01*
Y92125D01*
X136359D01*
Y91998D01*
X136232D01*
Y91746D01*
X136106D01*
Y91619D01*
X135979D01*
Y91367D01*
X135853D01*
Y91114D01*
X135727D01*
Y90861D01*
X135600D01*
Y90608D01*
X135474D01*
Y90229D01*
X135348D01*
Y89724D01*
X135221D01*
Y89092D01*
X135095D01*
Y88207D01*
X134968D01*
Y85932D01*
X135095D01*
Y84795D01*
X135221D01*
Y84289D01*
X135348D01*
Y84036D01*
X135474D01*
Y83910D01*
X135600D01*
Y83784D01*
X136359D01*
Y83910D01*
X136611D01*
Y84036D01*
X136738D01*
Y84163D01*
X136864D01*
Y84289D01*
X136990D01*
Y84416D01*
X137243D01*
Y84542D01*
X137370D01*
Y84668D01*
X137496D01*
Y84795D01*
X137622D01*
Y84921D01*
X137749D01*
Y85047D01*
X138002D01*
Y85174D01*
X138128D01*
Y85300D01*
X138254D01*
Y85427D01*
X138381D01*
Y85553D01*
X138633D01*
Y85679D01*
X138760D01*
Y85806D01*
X138886D01*
Y85932D01*
X139013D01*
Y86059D01*
X139265D01*
Y86185D01*
X139392D01*
Y86311D01*
X139518D01*
Y86438D01*
X139645D01*
Y86564D01*
X139771D01*
Y86690D01*
X140024D01*
Y86817D01*
X140150D01*
Y86943D01*
X140276D01*
Y87070D01*
X140403D01*
Y93262D01*
D02*
G37*
G36*
X142551Y111335D02*
X142299D01*
Y111208D01*
X142172D01*
Y111082D01*
X142046D01*
Y110956D01*
X141919D01*
Y110829D01*
X141793D01*
Y110703D01*
X141667D01*
Y110577D01*
X141540D01*
Y110450D01*
X141414D01*
Y110324D01*
X141287D01*
Y110197D01*
X141161D01*
Y110071D01*
X141035D01*
Y109945D01*
X140908D01*
Y109818D01*
X140782D01*
Y109692D01*
X140529D01*
Y109566D01*
X140403D01*
Y109439D01*
X140276D01*
Y109313D01*
X140150D01*
Y109186D01*
X140024D01*
Y109060D01*
X139897D01*
Y108934D01*
X139771D01*
Y108807D01*
X139518D01*
Y108681D01*
X139392D01*
Y108554D01*
X139265D01*
Y108428D01*
X139139D01*
Y108302D01*
X139013D01*
Y108175D01*
X138886D01*
Y108049D01*
X138760D01*
Y107923D01*
X138507D01*
Y107796D01*
X138381D01*
Y107670D01*
X138254D01*
Y107543D01*
X138128D01*
Y107417D01*
X138002D01*
Y107291D01*
X137875D01*
Y107164D01*
X137749D01*
Y107038D01*
X137496D01*
Y106911D01*
X137370D01*
Y106785D01*
X137243D01*
Y106659D01*
X137117D01*
Y106532D01*
X136990D01*
Y106406D01*
X136864D01*
Y106280D01*
X136738D01*
Y106153D01*
X136485D01*
Y106027D01*
X136359D01*
Y105900D01*
X136232D01*
Y105774D01*
X136106D01*
Y105648D01*
X135979D01*
Y105521D01*
X135853D01*
Y105395D01*
X135600D01*
Y105269D01*
X135474D01*
Y105142D01*
X135348D01*
Y105016D01*
X135221D01*
Y104889D01*
X135095D01*
Y104763D01*
X134968D01*
Y104637D01*
X134716D01*
Y104510D01*
X134589D01*
Y104384D01*
X134463D01*
Y104257D01*
X134337D01*
Y104131D01*
X134210D01*
Y104005D01*
X133957D01*
Y103752D01*
X133705D01*
Y103626D01*
X133578D01*
Y103499D01*
X133452D01*
Y103373D01*
X133325D01*
Y103246D01*
X133199D01*
Y103120D01*
X132946D01*
Y102994D01*
X132820D01*
Y102867D01*
X132694D01*
Y102741D01*
X132567D01*
Y102614D01*
X132441D01*
Y102488D01*
X132188D01*
Y102362D01*
X132062D01*
Y102235D01*
X131935D01*
Y102109D01*
X131809D01*
Y101983D01*
X131683D01*
Y101856D01*
X131430D01*
Y101730D01*
X131303D01*
Y101603D01*
X131177D01*
Y101477D01*
X131051D01*
Y101351D01*
X130798D01*
Y101224D01*
X130671D01*
Y101098D01*
X130545D01*
Y100972D01*
X130419D01*
Y100845D01*
X130292D01*
Y100719D01*
X130166D01*
Y100592D01*
X129913D01*
Y100466D01*
X129787D01*
Y100340D01*
X129660D01*
Y100213D01*
X129534D01*
Y100087D01*
X129408D01*
Y99960D01*
X129281D01*
Y99834D01*
X129028D01*
Y99708D01*
X128902D01*
Y99581D01*
X128776D01*
Y99455D01*
X128649D01*
Y99329D01*
X128523D01*
Y99202D01*
X128397D01*
Y99076D01*
X128270D01*
Y98949D01*
X128144D01*
Y98823D01*
X128017D01*
Y98697D01*
X127891D01*
Y98570D01*
X127765D01*
Y98444D01*
X127638D01*
Y98317D01*
X127512D01*
Y98191D01*
X127386D01*
Y98065D01*
X127259D01*
Y97938D01*
X127133D01*
Y97812D01*
X127006D01*
Y97686D01*
X126880D01*
Y97433D01*
X126754D01*
Y97306D01*
X126627D01*
Y97180D01*
X126501D01*
Y96927D01*
X126374D01*
Y96801D01*
X126248D01*
Y96675D01*
X126122D01*
Y96422D01*
X125995D01*
Y96169D01*
X125869D01*
Y96043D01*
X125743D01*
Y95663D01*
X125616D01*
Y95411D01*
X125490D01*
Y95158D01*
X125363D01*
Y94779D01*
X125237D01*
Y94147D01*
X125111D01*
Y63815D01*
X125237D01*
Y63562D01*
X125363D01*
Y63310D01*
X125616D01*
Y63183D01*
X125869D01*
Y63057D01*
X127006D01*
Y63183D01*
X127638D01*
Y63310D01*
X127765D01*
Y63436D01*
X127891D01*
Y63562D01*
X128017D01*
Y63689D01*
X128144D01*
Y63815D01*
X128270D01*
Y63942D01*
X128523D01*
Y64068D01*
X128649D01*
Y64194D01*
X128776D01*
Y64321D01*
X128902D01*
Y64447D01*
X129028D01*
Y64573D01*
X129281D01*
Y64700D01*
X129408D01*
Y64826D01*
X129534D01*
Y64953D01*
X129660D01*
Y65079D01*
X129787D01*
Y65205D01*
X129913D01*
Y65332D01*
X130040D01*
Y65458D01*
X130292D01*
Y65585D01*
X130419D01*
Y65711D01*
X130545D01*
Y65837D01*
X130671D01*
Y65964D01*
X130798D01*
Y66090D01*
X130924D01*
Y66216D01*
X131177D01*
Y66343D01*
X131303D01*
Y66469D01*
X131430D01*
Y66596D01*
X131556D01*
Y66722D01*
X131683D01*
Y66848D01*
X131935D01*
Y66975D01*
X132062D01*
Y67101D01*
X132188D01*
Y67228D01*
X132314D01*
Y67354D01*
X132441D01*
Y67480D01*
X132567D01*
Y67607D01*
X132694D01*
Y67733D01*
X132946D01*
Y67859D01*
X133073D01*
Y67986D01*
X133199D01*
Y68112D01*
X133325D01*
Y68239D01*
X133452D01*
Y68365D01*
X133578D01*
Y68491D01*
X133831D01*
Y68618D01*
X133957D01*
Y68744D01*
X134084D01*
Y68870D01*
X134210D01*
Y68997D01*
X134337D01*
Y69123D01*
X134463D01*
Y69250D01*
X134716D01*
Y69376D01*
X134842D01*
Y69502D01*
X134968D01*
Y69629D01*
X135095D01*
Y69755D01*
X135221D01*
Y69882D01*
X135474D01*
Y70008D01*
X135600D01*
Y70134D01*
X135727D01*
Y70261D01*
X135853D01*
Y70387D01*
X135979D01*
Y70513D01*
X136106D01*
Y70640D01*
X136232D01*
Y70766D01*
X136485D01*
Y70893D01*
X136611D01*
Y71019D01*
X136738D01*
Y71145D01*
X136864D01*
Y71272D01*
X136990D01*
Y71398D01*
X137243D01*
Y71525D01*
X137370D01*
Y71651D01*
X137496D01*
Y71777D01*
X137622D01*
Y71904D01*
X137749D01*
Y72030D01*
X137875D01*
Y72156D01*
X138128D01*
Y72283D01*
X138254D01*
Y72409D01*
X138381D01*
Y72536D01*
X138507D01*
Y72662D01*
X138633D01*
Y72788D01*
X138760D01*
Y72915D01*
X138886D01*
Y73041D01*
X139139D01*
Y73168D01*
X139265D01*
Y73294D01*
X139392D01*
Y73420D01*
X139518D01*
Y73547D01*
X139645D01*
Y73673D01*
X139771D01*
Y73799D01*
X140024D01*
Y73926D01*
X140150D01*
Y74052D01*
X140276D01*
Y74179D01*
X140403D01*
Y74305D01*
X140529D01*
Y74431D01*
X140656D01*
Y74558D01*
X140908D01*
Y74684D01*
X141035D01*
Y74810D01*
X141161D01*
Y74937D01*
X141287D01*
Y75063D01*
X141414D01*
Y75190D01*
X141667D01*
Y75316D01*
X141793D01*
Y75442D01*
X141919D01*
Y75569D01*
X142046D01*
Y75695D01*
X142172D01*
Y75821D01*
X142299D01*
Y75948D01*
X142551D01*
Y76201D01*
X142804D01*
Y76327D01*
X142930D01*
Y76453D01*
X143057D01*
Y76580D01*
X143183D01*
Y76706D01*
X143310D01*
Y76832D01*
X143562D01*
Y76959D01*
X143689D01*
Y77085D01*
X143815D01*
Y77212D01*
X143941D01*
Y77338D01*
X144068D01*
Y77464D01*
X144321D01*
Y77591D01*
X144447D01*
Y77717D01*
X144573D01*
Y83278D01*
X142804D01*
Y83404D01*
X142930D01*
Y83531D01*
X143057D01*
Y83657D01*
X143183D01*
Y83784D01*
X143310D01*
Y83910D01*
X143562D01*
Y84036D01*
X143689D01*
Y84163D01*
X143815D01*
Y84289D01*
X143941D01*
Y84416D01*
X144068D01*
Y84542D01*
X144194D01*
Y84668D01*
X144321D01*
Y84795D01*
X144447D01*
Y85553D01*
X144573D01*
Y88460D01*
Y88586D01*
Y89344D01*
X144321D01*
Y89218D01*
X144194D01*
Y89092D01*
X144068D01*
Y88965D01*
X143941D01*
Y86059D01*
X143689D01*
Y85932D01*
X143562D01*
Y85806D01*
X143436D01*
Y85679D01*
X143310D01*
Y85553D01*
X143183D01*
Y85427D01*
X142930D01*
Y85300D01*
X142804D01*
Y85174D01*
X142678D01*
Y85047D01*
X142551D01*
Y84921D01*
X142299D01*
Y84795D01*
X142172D01*
Y84668D01*
X142046D01*
Y84542D01*
X141919D01*
Y84416D01*
X141667D01*
Y84289D01*
X141540D01*
Y84163D01*
X141414D01*
Y84036D01*
X141287D01*
Y83910D01*
X141161D01*
Y83784D01*
X140908D01*
Y83657D01*
X140782D01*
Y83531D01*
X140656D01*
Y83404D01*
X140403D01*
Y85806D01*
X140276D01*
Y85679D01*
X140150D01*
Y85553D01*
X140024D01*
Y85427D01*
X139897D01*
Y85300D01*
X139645D01*
Y85174D01*
X139518D01*
Y85047D01*
X139392D01*
Y84921D01*
X139265D01*
Y84795D01*
X139139D01*
Y84668D01*
X139013D01*
Y84542D01*
X138760D01*
Y84416D01*
X138633D01*
Y84289D01*
X138507D01*
Y84163D01*
X138381D01*
Y84036D01*
X138128D01*
Y83910D01*
X138002D01*
Y83784D01*
X137749D01*
Y83657D01*
X137622D01*
Y83531D01*
X137496D01*
Y83404D01*
X137243D01*
Y83278D01*
X137117D01*
Y83152D01*
X136864D01*
Y83025D01*
X136738D01*
Y82899D01*
X136232D01*
Y82773D01*
X135348D01*
Y82899D01*
X134968D01*
Y83025D01*
X134842D01*
Y83152D01*
X134716D01*
Y83278D01*
X134589D01*
Y83404D01*
X134463D01*
Y83657D01*
X134337D01*
Y84036D01*
X134210D01*
Y84416D01*
X134084D01*
Y85174D01*
X133957D01*
Y89092D01*
X134084D01*
Y89724D01*
X134210D01*
Y90229D01*
X134337D01*
Y90608D01*
X134463D01*
Y90987D01*
X134589D01*
Y91240D01*
X134716D01*
Y91493D01*
X134842D01*
Y91872D01*
X134968D01*
Y92125D01*
X135095D01*
Y92251D01*
X135221D01*
Y92504D01*
X135348D01*
Y92630D01*
X135474D01*
Y92883D01*
X135600D01*
Y93010D01*
X135727D01*
Y93136D01*
X135853D01*
Y93262D01*
X135979D01*
Y93389D01*
X136106D01*
Y93515D01*
X136232D01*
Y93641D01*
X136359D01*
Y93768D01*
X136485D01*
Y93894D01*
X136611D01*
Y94021D01*
X136864D01*
Y94147D01*
X136990D01*
Y94273D01*
X137243D01*
Y94400D01*
X137496D01*
Y96422D01*
X139771D01*
Y96548D01*
X139897D01*
Y96675D01*
X140024D01*
Y96801D01*
X140150D01*
Y96927D01*
X140276D01*
Y97054D01*
X140403D01*
Y97180D01*
X140529D01*
Y97306D01*
X140656D01*
Y97433D01*
X140782D01*
Y97559D01*
X140908D01*
Y97686D01*
X141035D01*
Y97812D01*
X141161D01*
Y97938D01*
X141287D01*
Y98065D01*
X141414D01*
Y98317D01*
X141667D01*
Y98570D01*
X141793D01*
Y98697D01*
X141919D01*
Y98823D01*
X142046D01*
Y98949D01*
X142172D01*
Y99076D01*
X142299D01*
Y99202D01*
X142425D01*
Y99329D01*
X142551D01*
Y111335D01*
D02*
G37*
G36*
X614183Y151474D02*
X607472D01*
X610318D01*
Y146013D01*
X604626D01*
Y151474D01*
X600762D01*
Y136526D01*
X607472D01*
X604626D01*
Y143121D01*
X610318D01*
Y136526D01*
X614183D01*
Y151474D01*
D02*
G37*
G36*
X691306Y151474D02*
X678094D01*
Y148582D01*
X682768D01*
Y136526D01*
X686945D01*
X686632D01*
Y148582D01*
X691306D01*
Y143121D01*
Y148582D01*
Y151474D01*
D02*
G37*
G36*
X676358D02*
X665529D01*
Y136526D01*
X676358D01*
Y151474D01*
D02*
G37*
G36*
X661734D02*
X648105D01*
Y136526D01*
X656608D01*
X651645D01*
Y146777D01*
X658009Y136526D01*
X661734D01*
Y151474D01*
D02*
G37*
G36*
X646439D02*
D01*
Y136526D01*
X641441Y142913D01*
X641950Y143190D01*
X642366Y143468D01*
X642760Y143769D01*
X643061Y144046D01*
X643292Y144278D01*
X643477Y144486D01*
X643570Y144602D01*
X643616Y144648D01*
X643870Y145064D01*
X644079Y145527D01*
X644218Y145967D01*
X644310Y146406D01*
X644356Y146777D01*
X644380Y146939D01*
X644403Y147078D01*
Y147193D01*
Y147286D01*
Y147332D01*
Y147355D01*
X644380Y147795D01*
X644333Y148165D01*
X644241Y148512D01*
X644148Y148813D01*
X644056Y149044D01*
X643963Y149206D01*
X643917Y149299D01*
X643894Y149345D01*
X643708Y149646D01*
X643477Y149901D01*
X643246Y150109D01*
X643037Y150317D01*
X642852Y150456D01*
X642690Y150572D01*
X642598Y150641D01*
X642552Y150664D01*
X642228Y150826D01*
X641927Y150965D01*
X641626Y151081D01*
X641348Y151173D01*
X641094Y151243D01*
X640909Y151289D01*
X640793Y151312D01*
X640747D01*
X640377Y151358D01*
X639983Y151405D01*
X639613Y151428D01*
X639266Y151451D01*
X638942Y151474D01*
X646439Y151474D01*
X632023Y151474D01*
Y136526D01*
X635887D01*
Y142010D01*
X637623D01*
X641695Y136526D01*
X646439D01*
Y151474D01*
D02*
G37*
G36*
X628807Y151474D02*
X617977D01*
Y136526D01*
X628807D01*
Y151474D01*
D02*
G37*
G36*
X598471D02*
X585258D01*
Y148582D01*
X589933D01*
Y136526D01*
X585258D01*
X598471D01*
Y151474D01*
D02*
G37*
G36*
X583523D02*
X572694D01*
Y136526D01*
X583523D01*
Y151474D01*
D02*
G37*
%LPD*%
G36*
X676358Y139418D02*
X669393D01*
Y143121D01*
X675849D01*
Y146013D01*
X669393D01*
Y148582D01*
X676358D01*
Y139418D01*
D02*
G37*
G36*
X658194Y142889D02*
X652710Y151474D01*
X658194D01*
Y142889D01*
D02*
G37*
G36*
X637947Y148697D02*
X638248D01*
X638363Y148674D01*
X638456D01*
X638826Y148628D01*
X638988Y148605D01*
X639127Y148559D01*
X639220Y148535D01*
X639312Y148512D01*
X639358Y148489D01*
X639381D01*
X639567Y148397D01*
X639729Y148281D01*
X639867Y148188D01*
X639983Y148073D01*
X640076Y147980D01*
X640122Y147911D01*
X640168Y147864D01*
Y147841D01*
X640307Y147517D01*
X640377Y147216D01*
X640400Y147101D01*
Y146985D01*
Y146916D01*
Y146892D01*
Y146661D01*
X640377Y146476D01*
X640353Y146291D01*
X640307Y146152D01*
X640284Y146036D01*
X640238Y145944D01*
X640214Y145897D01*
Y145874D01*
X640052Y145620D01*
X639844Y145412D01*
X639752Y145319D01*
X639682Y145250D01*
X639636Y145226D01*
X639613Y145203D01*
X639266Y144995D01*
X638942Y144879D01*
X638803Y144833D01*
X638687Y144810D01*
X638595Y144787D01*
X638572D01*
X638340Y144764D01*
X638086Y144740D01*
X637831D01*
X637577Y144717D01*
X635887D01*
Y148720D01*
X637739D01*
X637947Y148697D01*
D02*
G37*
G36*
X628807Y139418D02*
X621842D01*
Y143121D01*
X628298D01*
Y146013D01*
X621842D01*
Y148582D01*
X628807D01*
Y139418D01*
D02*
G37*
G36*
X598471Y136526D02*
X593797D01*
Y148582D01*
X598471D01*
Y136526D01*
D02*
G37*
G36*
X583523Y139418D02*
X576558D01*
Y143121D01*
X583014D01*
Y146013D01*
X576558D01*
Y148582D01*
X583523D01*
Y139418D01*
D02*
G37*
%LPC*%
G36*
X81347Y138624D02*
X68135Y138624D01*
Y135732D01*
X72809D01*
Y123676D01*
X76986Y123676D01*
X76673D01*
Y135732D01*
X81347D01*
Y124000D01*
Y138624D01*
D02*
G37*
G36*
X67950Y138624D02*
X53534D01*
Y123676D01*
X57398D01*
Y129160D01*
X59134D01*
X63206Y123676D01*
X67950D01*
X62951Y130063D01*
X63461Y130340D01*
X63877Y130618D01*
X64271Y130919D01*
X64571Y131197D01*
X64803Y131428D01*
X64988Y131636D01*
X65080Y131752D01*
X65127Y131798D01*
X65381Y132215D01*
X65589Y132678D01*
X65728Y133117D01*
X65821Y133557D01*
X65867Y133927D01*
X65890Y134089D01*
X65913Y134228D01*
Y134344D01*
Y134436D01*
Y134482D01*
Y134506D01*
X65890Y134945D01*
X65844Y135316D01*
X65751Y135663D01*
X65659Y135963D01*
X65566Y136195D01*
X65474Y136357D01*
X65427Y136449D01*
X65404Y136496D01*
X65219Y136796D01*
X64988Y137051D01*
X64756Y137259D01*
X64548Y137467D01*
X64363Y137606D01*
X64201Y137722D01*
X64109Y137791D01*
X64062Y137815D01*
X63738Y137977D01*
X63437Y138115D01*
X63137Y138231D01*
X62859Y138324D01*
X62604Y138393D01*
X62419Y138439D01*
X62304Y138462D01*
X62257D01*
X61887Y138509D01*
X61494Y138555D01*
X61123Y138578D01*
X60776Y138601D01*
X60452Y138624D01*
X67950D01*
D02*
G37*
G36*
X51405D02*
X35902D01*
X41409D01*
X35902Y123676D01*
X39789D01*
X40830Y126685D01*
X46337D01*
X47379Y123676D01*
X51405D01*
X45875Y138624D01*
X51405D01*
D01*
D02*
G37*
G36*
X33981D02*
X20653D01*
Y129068D01*
X20676Y128559D01*
X20722Y128096D01*
X20815Y127656D01*
X20907Y127240D01*
X21046Y126870D01*
X21185Y126523D01*
X21324Y126199D01*
X21486Y125921D01*
X21648Y125666D01*
X21786Y125458D01*
X21925Y125273D01*
X22064Y125111D01*
X22157Y124995D01*
X22249Y124903D01*
X22296Y124857D01*
X22319Y124833D01*
X22643Y124579D01*
X23013Y124347D01*
X23406Y124162D01*
X23800Y124000D01*
X24216Y123862D01*
X24633Y123723D01*
X25443Y123561D01*
X25813Y123491D01*
X26160Y123445D01*
X26484Y123422D01*
X26762Y123399D01*
X26970Y123376D01*
X20653D01*
X33981D01*
Y138624D01*
D02*
G37*
%LPD*%
G36*
X59458Y135848D02*
X59758D01*
X59874Y135825D01*
X59967D01*
X60337Y135778D01*
X60499Y135755D01*
X60638Y135709D01*
X60730Y135686D01*
X60823Y135663D01*
X60869Y135639D01*
X60892D01*
X61077Y135547D01*
X61239Y135431D01*
X61378Y135339D01*
X61494Y135223D01*
X61586Y135130D01*
X61633Y135061D01*
X61679Y135015D01*
Y134992D01*
X61818Y134668D01*
X61887Y134367D01*
X61910Y134251D01*
Y134135D01*
Y134066D01*
Y134043D01*
Y133811D01*
X61887Y133626D01*
X61864Y133441D01*
X61818Y133302D01*
X61795Y133187D01*
X61748Y133094D01*
X61725Y133048D01*
Y133025D01*
X61563Y132770D01*
X61355Y132562D01*
X61262Y132469D01*
X61193Y132400D01*
X61147Y132377D01*
X61123Y132354D01*
X60776Y132145D01*
X60452Y132030D01*
X60314Y131983D01*
X60198Y131960D01*
X60105Y131937D01*
X60082D01*
X59851Y131914D01*
X59596Y131891D01*
X59342D01*
X59087Y131868D01*
X57398D01*
Y135871D01*
X59249D01*
X59458Y135848D01*
D02*
G37*
G36*
X45412Y129438D02*
X41756D01*
X43584Y134714D01*
X45412Y129438D01*
D02*
G37*
G36*
X30117Y129299D02*
X30094Y128744D01*
X30001Y128258D01*
X29908Y127842D01*
X29770Y127517D01*
X29654Y127263D01*
X29538Y127078D01*
X29446Y126985D01*
X29423Y126939D01*
X29145Y126708D01*
X28798Y126523D01*
X28451Y126407D01*
X28104Y126314D01*
X27780Y126268D01*
X27525Y126245D01*
X27432Y126222D01*
X27294D01*
X26785Y126245D01*
X26345Y126337D01*
X25975Y126453D01*
X25674Y126592D01*
X25443Y126731D01*
X25281Y126847D01*
X25188Y126939D01*
X25165Y126962D01*
X24957Y127286D01*
X24795Y127656D01*
X24679Y128027D01*
X24609Y128420D01*
X24563Y128767D01*
X24517Y129045D01*
Y129160D01*
Y129230D01*
Y129276D01*
Y129299D01*
Y138624D01*
X30117D01*
Y129299D01*
D02*
G37*
G36*
X33981Y123376D02*
X27294D01*
X27895Y123399D01*
X28451Y123445D01*
X28983Y123514D01*
X29469Y123607D01*
X29908Y123723D01*
X30302Y123838D01*
X30672Y123977D01*
X31019Y124116D01*
X31297Y124232D01*
X31551Y124371D01*
X31783Y124486D01*
X31945Y124602D01*
X32084Y124694D01*
X32199Y124764D01*
X32246Y124810D01*
X32269Y124833D01*
X32569Y125134D01*
X32824Y125435D01*
X33055Y125782D01*
X33264Y126129D01*
X33426Y126476D01*
X33565Y126823D01*
X33680Y127170D01*
X33773Y127517D01*
X33842Y127842D01*
X33888Y128142D01*
X33935Y128397D01*
X33958Y128628D01*
X33981Y128836D01*
Y123376D01*
D02*
G37*
%LPC*%
G36*
X22412Y387210D02*
Y387117D01*
D01*
Y387210D01*
D02*
G37*
G36*
Y385683D02*
D01*
D01*
D01*
D02*
G37*
G36*
Y384479D02*
Y384456D01*
D01*
Y384479D01*
D02*
G37*
G36*
Y382767D02*
Y382721D01*
D01*
Y382767D01*
D02*
G37*
G36*
Y381587D02*
D01*
D01*
D01*
D02*
G37*
G36*
X34051Y392624D02*
X22412D01*
D01*
X22967D01*
Y384179D01*
X23407D01*
X23893Y384294D01*
X24147Y384341D01*
X24379Y384387D01*
X24564Y384433D01*
X24726Y384456D01*
X24818Y384479D01*
X24865D01*
X25489Y384572D01*
X25790Y384595D01*
X26045Y384618D01*
X26276Y384641D01*
X26600D01*
X27086Y384618D01*
X27317Y384595D01*
X27526D01*
X27711Y384572D01*
X27850Y384549D01*
X27965Y384526D01*
X27988D01*
X28266Y384479D01*
X28521Y384410D01*
X28752Y384341D01*
X28937Y384271D01*
X29099Y384202D01*
X29215Y384132D01*
X29284Y384109D01*
X29307Y384086D01*
X29562Y383901D01*
X29747Y383693D01*
X29863Y383554D01*
X29909Y383507D01*
Y383484D01*
X30002Y383345D01*
X30048Y383184D01*
X30140Y382906D01*
Y382767D01*
X30164Y382674D01*
Y382605D01*
Y382582D01*
Y382351D01*
X30140Y382142D01*
X30117Y381980D01*
X30071Y381842D01*
X30048Y381726D01*
X30002Y381656D01*
X29978Y381610D01*
Y381587D01*
X29817Y381356D01*
X29655Y381170D01*
X29516Y381008D01*
X29469Y380985D01*
X29446Y380962D01*
X29284Y380823D01*
X29099Y380731D01*
X28706Y380569D01*
X28544Y380522D01*
X28405Y380476D01*
X28312Y380453D01*
X28289D01*
X27757Y380384D01*
X27526Y380337D01*
X27317D01*
X27155Y380314D01*
X26901D01*
X26507Y380337D01*
X26137Y380361D01*
X25767Y380430D01*
X25466Y380499D01*
X25189Y380546D01*
X24980Y380615D01*
X24841Y380638D01*
X24818Y380661D01*
X24795D01*
X24402Y380800D01*
X24032Y380962D01*
X23708Y381124D01*
X23407Y381263D01*
X23175Y381402D01*
X22990Y381494D01*
X22875Y381564D01*
X22828Y381587D01*
X22412D01*
Y378278D01*
X22713Y378162D01*
X23060Y378047D01*
X23384Y377931D01*
X23708Y377838D01*
X23985Y377769D01*
X24217Y377723D01*
X24309Y377700D01*
X24379D01*
X24402Y377676D01*
X24425D01*
X24911Y377584D01*
X25420Y377514D01*
X25929Y377468D01*
X26415Y377422D01*
X26832Y377399D01*
X27017D01*
X27155Y377376D01*
X27456D01*
X28012Y377399D01*
X28544Y377422D01*
X29007Y377491D01*
X29423Y377561D01*
X29747Y377607D01*
X29886Y377653D01*
X30002Y377676D01*
X30094Y377700D01*
X30164D01*
X30187Y377723D01*
X30210D01*
X30649Y377885D01*
X31043Y378047D01*
X31413Y378255D01*
X31737Y378440D01*
X31992Y378602D01*
X32177Y378741D01*
X32292Y378833D01*
X32339Y378857D01*
X32640Y379134D01*
X32894Y379435D01*
X33102Y379713D01*
X33287Y379990D01*
X33426Y380222D01*
X33542Y380407D01*
X33588Y380522D01*
X33611Y380569D01*
X33750Y380939D01*
X33866Y381332D01*
X33935Y381679D01*
X34005Y382027D01*
X34028Y382304D01*
X34051Y382536D01*
Y377700D01*
Y392624D01*
D02*
G37*
G36*
X50873D02*
X35624D01*
X41085Y377676D01*
X50873D01*
X45389D01*
X50873Y392624D01*
D02*
G37*
G36*
X13226Y391005D02*
X5127D01*
X10472D01*
Y385683D01*
X5127D01*
Y382975D01*
X10472D01*
Y377653D01*
X18571D01*
X13226D01*
Y382975D01*
X18571D01*
Y385683D01*
X13226D01*
Y391005D01*
D02*
G37*
%LPD*%
G36*
X34051Y382721D02*
X34028Y383230D01*
X33958Y383670D01*
X33889Y384063D01*
X33796Y384387D01*
X33681Y384664D01*
X33611Y384850D01*
X33542Y384965D01*
X33519Y385012D01*
X33310Y385336D01*
X33079Y385613D01*
X32848Y385868D01*
X32616Y386076D01*
X32431Y386238D01*
X32246Y386377D01*
X32153Y386446D01*
X32107Y386469D01*
X31830Y386608D01*
X31552Y386747D01*
X31251Y386863D01*
X30997Y386955D01*
X30765Y387025D01*
X30580Y387071D01*
X30464Y387117D01*
X30418D01*
X30048Y387210D01*
X29655Y387256D01*
X29307Y387302D01*
X28960Y387349D01*
X28660D01*
X28428Y387372D01*
X27664D01*
X27549Y387349D01*
X27364D01*
X27040Y387326D01*
X26808D01*
X26716Y387302D01*
X26600D01*
Y389755D01*
X33611D01*
Y392624D01*
X34051D01*
Y382721D01*
D02*
G37*
G36*
X43284Y382073D02*
X39651Y392624D01*
X46916D01*
X43284Y382073D01*
D02*
G37*
%LPC*%
G36*
X522543Y467474D02*
D01*
Y452526D01*
X517221Y460208D01*
X522474Y467474D01*
X522543D01*
X518193D01*
X514977Y462800D01*
X511853Y467474D01*
X514822D01*
X507410D01*
X512593Y460046D01*
X507294Y452526D01*
D01*
X511529D01*
X514838Y457431D01*
X518054Y452526D01*
X522543D01*
Y467474D01*
D02*
G37*
G36*
X506670D02*
X493457D01*
Y464582D01*
X498131D01*
Y452526D01*
X493457D01*
D01*
X506670D01*
Y467474D01*
D02*
G37*
%LPD*%
G36*
Y452526D02*
X501995D01*
Y464582D01*
X506670D01*
Y452526D01*
D02*
G37*
%LPC*%
G36*
X262806Y18275D02*
X255147D01*
Y15383D01*
X262806D01*
Y18275D01*
D02*
G37*
G36*
X384426Y25124D02*
X371214D01*
Y10176D01*
Y22232D01*
X375888D01*
Y10176D01*
X371214D01*
X384426D01*
X379752D01*
Y22232D01*
X384426D01*
Y25124D01*
D02*
G37*
G36*
X369478D02*
X358649D01*
Y10176D01*
X369478D01*
Y13069D01*
X362513D01*
Y16771D01*
X368969D01*
Y19664D01*
X362513D01*
Y22232D01*
X369478D01*
Y25124D01*
D02*
G37*
G36*
X354854D02*
X341225D01*
Y10176D01*
X344766D01*
Y20427D01*
X351129Y10176D01*
X354854D01*
Y25124D01*
D02*
G37*
G36*
X332062D02*
X325143D01*
Y10176D01*
X339559D01*
D01*
X334561Y16563D01*
X335070Y16841D01*
X335487Y17118D01*
X335880Y17419D01*
X336181Y17697D01*
X336412Y17928D01*
X336597Y18136D01*
X336690Y18252D01*
X336736Y18298D01*
X336991Y18715D01*
X337199Y19178D01*
X337338Y19617D01*
X337430Y20057D01*
X337477Y20427D01*
X337500Y20589D01*
X337523Y20728D01*
Y20844D01*
Y20936D01*
Y20982D01*
Y21006D01*
X337500Y21445D01*
X337453Y21816D01*
X337361Y22163D01*
X337268Y22464D01*
X337176Y22695D01*
X337083Y22857D01*
X337037Y22949D01*
X337014Y22996D01*
X336829Y23296D01*
X336597Y23551D01*
X336366Y23759D01*
X336158Y23967D01*
X335973Y24106D01*
X335811Y24222D01*
X335718Y24292D01*
X335672Y24315D01*
X335348Y24477D01*
X335047Y24615D01*
X334746Y24731D01*
X334468Y24824D01*
X334214Y24893D01*
X334029Y24939D01*
X333913Y24962D01*
X333867D01*
X333497Y25009D01*
X333103Y25055D01*
X332733Y25078D01*
X332386Y25101D01*
X332062Y25124D01*
D02*
G37*
G36*
X321927D02*
X311098Y25124D01*
Y10176D01*
X321927Y10176D01*
Y13069D01*
D01*
X314962Y13069D01*
Y16771D01*
X321418Y16771D01*
Y19664D01*
X314962Y19664D01*
Y22232D01*
X321927Y22232D01*
Y25124D01*
D02*
G37*
G36*
X307303Y25124D02*
X293882D01*
Y10176D01*
X297746D01*
Y16771D01*
X303439D01*
Y10176D01*
X307303D01*
Y25124D01*
D02*
G37*
G36*
X291591D02*
X278379D01*
Y10176D01*
Y22232D01*
X283053D01*
Y10176D01*
X278379D01*
X291591D01*
X286917D01*
Y22232D01*
X291591D01*
Y25124D01*
D02*
G37*
G36*
X276643D02*
X265814D01*
Y10176D01*
X276643D01*
Y13069D01*
X269678D01*
Y16771D01*
X276134D01*
Y19664D01*
X269678D01*
Y22232D01*
X276643D01*
Y25124D01*
D02*
G37*
G36*
X253643D02*
X240430D01*
Y10176D01*
Y22232D01*
X245104D01*
Y10176D01*
X240430D01*
X253643D01*
X248968D01*
Y22232D01*
X253643D01*
Y25124D01*
D02*
G37*
G36*
X240245D02*
X225829D01*
Y10176D01*
X229693D01*
Y15660D01*
X231429D01*
X235501Y10176D01*
X240245D01*
X235247Y16563D01*
X235756Y16841D01*
X236172Y17118D01*
X236566Y17419D01*
X236866Y17697D01*
X237098Y17928D01*
X237283Y18136D01*
X237376Y18252D01*
X237422Y18298D01*
X237676Y18715D01*
X237885Y19178D01*
X238023Y19617D01*
X238116Y20057D01*
X238162Y20427D01*
X238186Y20589D01*
X238209Y20728D01*
Y20844D01*
Y20936D01*
Y20982D01*
Y21006D01*
X238186Y21445D01*
X238139Y21816D01*
X238047Y22163D01*
X237954Y22463D01*
X237861Y22695D01*
X237769Y22857D01*
X237723Y22949D01*
X237700Y22996D01*
X237514Y23296D01*
X237283Y23551D01*
X237052Y23759D01*
X236843Y23967D01*
X236658Y24106D01*
X236496Y24222D01*
X236404Y24291D01*
X236357Y24315D01*
X236033Y24477D01*
X235733Y24615D01*
X235432Y24731D01*
X235154Y24824D01*
X234900Y24893D01*
X234715Y24939D01*
X234599Y24962D01*
X234553D01*
X234182Y25009D01*
X233789Y25055D01*
X233419Y25078D01*
X233072Y25101D01*
X232748Y25124D01*
X240245D01*
D02*
G37*
G36*
X218170D02*
X213704D01*
X208197Y10176D01*
X212084D01*
X213125Y13184D01*
X218633D01*
X219674Y10176D01*
X218889D01*
X223700D01*
X218170Y25124D01*
D02*
G37*
G36*
X208197D02*
D01*
Y10176D01*
Y25124D01*
D01*
D02*
G37*
G36*
X178463D02*
X173997D01*
X168490Y10176D01*
X172377D01*
X173418Y13184D01*
X178925D01*
X179967Y10176D01*
X183993D01*
D01*
X178463Y25124D01*
D02*
G37*
G36*
X179967Y10176D02*
X179182D01*
X179967D01*
D01*
D02*
G37*
G36*
X168490Y25124D02*
D01*
Y10176D01*
D01*
Y25124D01*
D01*
D02*
G37*
G36*
X167865D02*
X154652D01*
Y10176D01*
X167865D01*
X163191D01*
Y22232D01*
X167865D01*
Y25124D01*
D02*
G37*
G36*
X148474D02*
X144008D01*
X138501Y10176D01*
Y25124D01*
D01*
Y10176D01*
X154004D01*
D01*
X148474Y25124D01*
D02*
G37*
G36*
X136372D02*
X121077D01*
Y10084D01*
Y10176D01*
X121239D01*
X121470Y10153D01*
X121563D01*
X121655Y10130D01*
X121748D01*
X122141Y10107D01*
X122303D01*
X122465Y10084D01*
X121077D01*
X136372D01*
X122789D01*
X123090Y10107D01*
X123391Y10130D01*
X123645Y10176D01*
X123877Y10223D01*
X124062Y10269D01*
X124224Y10315D01*
X124317Y10361D01*
X124340D01*
X124594Y10477D01*
X124849Y10593D01*
X125057Y10709D01*
X125242Y10847D01*
X125381Y10940D01*
X125473Y11033D01*
X125543Y11079D01*
X125566Y11102D01*
X125844Y11403D01*
X126098Y11704D01*
X126191Y11842D01*
X126260Y11935D01*
X126306Y12004D01*
X126330Y12027D01*
X126468Y12259D01*
X126607Y12514D01*
X126723Y12745D01*
X126839Y12976D01*
X126931Y13184D01*
X127001Y13370D01*
X127024Y13462D01*
X127047Y13508D01*
X127163Y13856D01*
X127278Y14249D01*
X127394Y14619D01*
X127487Y14989D01*
X127556Y15290D01*
X127602Y15545D01*
X127625Y15637D01*
X127648Y15707D01*
Y15753D01*
Y15776D01*
X127741Y16331D01*
X127834Y16887D01*
X127903Y17465D01*
X127949Y18021D01*
X127972Y18252D01*
X127996Y18483D01*
X128019Y18692D01*
Y18854D01*
Y19016D01*
X128042Y19108D01*
Y19178D01*
Y19201D01*
X128065Y19525D01*
X128088Y19802D01*
X128111Y20057D01*
Y20265D01*
X128134Y20427D01*
Y20566D01*
Y20635D01*
Y20659D01*
Y20890D01*
X128158Y21144D01*
X128181Y21422D01*
Y21653D01*
X128204Y21885D01*
X128227Y22070D01*
Y22186D01*
Y22232D01*
X132508D01*
Y10176D01*
X136372D01*
Y25124D01*
D02*
G37*
G36*
X118994D02*
X105574D01*
Y10176D01*
X109438D01*
Y22232D01*
X115130D01*
Y10176D01*
X118994D01*
Y25124D01*
D02*
G37*
G36*
X206276Y25124D02*
X192948D01*
Y9876D01*
Y15568D01*
X192971Y15059D01*
X193017Y14596D01*
X193110Y14156D01*
X193202Y13740D01*
X193341Y13370D01*
X193480Y13023D01*
X193619Y12699D01*
X193781Y12421D01*
X193943Y12166D01*
X194082Y11958D01*
X194221Y11773D01*
X194359Y11611D01*
X194452Y11495D01*
X194545Y11403D01*
X194591Y11357D01*
X194614Y11333D01*
X194938Y11079D01*
X195308Y10848D01*
X195702Y10662D01*
X196095Y10500D01*
X196511Y10361D01*
X196928Y10223D01*
X197738Y10061D01*
X198108Y9991D01*
X198455Y9945D01*
X198779Y9922D01*
X199057Y9899D01*
X199265Y9876D01*
X192948D01*
X206276D01*
X199589D01*
X200191Y9899D01*
X200746Y9945D01*
X201278Y10014D01*
X201764Y10107D01*
X202204Y10223D01*
X202597Y10338D01*
X202967Y10477D01*
X203314Y10616D01*
X203592Y10732D01*
X203847Y10871D01*
X204078Y10986D01*
X204240Y11102D01*
X204379Y11194D01*
X204494Y11264D01*
X204541Y11310D01*
X204564Y11333D01*
X204865Y11634D01*
X205119Y11935D01*
X205351Y12282D01*
X205559Y12629D01*
X205721Y12976D01*
X205860Y13323D01*
X205975Y13671D01*
X206068Y14017D01*
X206137Y14341D01*
X206184Y14642D01*
X206230Y14897D01*
X206253Y15128D01*
X206276Y15337D01*
Y25124D01*
D02*
G37*
%LPD*%
G36*
X351314Y16540D02*
X345830Y25124D01*
X351314D01*
Y16540D01*
D02*
G37*
G36*
X331067Y22348D02*
X331368D01*
X331483Y22325D01*
X331576D01*
X331946Y22278D01*
X332108Y22255D01*
X332247Y22209D01*
X332340Y22186D01*
X332432Y22163D01*
X332478Y22139D01*
X332502D01*
X332687Y22047D01*
X332849Y21931D01*
X332988Y21839D01*
X333103Y21723D01*
X333196Y21630D01*
X333242Y21561D01*
X333288Y21515D01*
Y21492D01*
X333427Y21168D01*
X333497Y20867D01*
X333520Y20751D01*
Y20635D01*
Y20566D01*
Y20543D01*
Y20312D01*
X333497Y20126D01*
X333474Y19941D01*
X333427Y19802D01*
X333404Y19687D01*
X333358Y19594D01*
X333335Y19548D01*
Y19525D01*
X333173Y19270D01*
X332964Y19062D01*
X332872Y18969D01*
X332803Y18900D01*
X332756Y18877D01*
X332733Y18854D01*
X332386Y18645D01*
X332062Y18530D01*
X331923Y18484D01*
X331808Y18460D01*
X331715Y18437D01*
X331692D01*
X331460Y18414D01*
X331206Y18391D01*
X330951D01*
X330697Y18368D01*
X329008D01*
Y22371D01*
X330859D01*
X331067Y22348D01*
D02*
G37*
G36*
X334816Y10176D02*
X329008D01*
Y15661D01*
X330743D01*
X334816Y10176D01*
D02*
G37*
G36*
X303439Y19664D02*
X297746D01*
Y25124D01*
X303439D01*
Y19664D01*
D02*
G37*
G36*
X231753Y22348D02*
X232054D01*
X232169Y22325D01*
X232262D01*
X232632Y22278D01*
X232794Y22255D01*
X232933Y22209D01*
X233025Y22186D01*
X233118Y22163D01*
X233164Y22139D01*
X233187D01*
X233372Y22047D01*
X233534Y21931D01*
X233673Y21839D01*
X233789Y21723D01*
X233881Y21630D01*
X233928Y21561D01*
X233974Y21515D01*
Y21492D01*
X234113Y21168D01*
X234182Y20867D01*
X234205Y20751D01*
Y20635D01*
Y20566D01*
Y20543D01*
Y20312D01*
X234182Y20126D01*
X234159Y19941D01*
X234113Y19802D01*
X234090Y19687D01*
X234044Y19594D01*
X234020Y19548D01*
Y19525D01*
X233858Y19270D01*
X233650Y19062D01*
X233558Y18969D01*
X233488Y18900D01*
X233442Y18877D01*
X233419Y18854D01*
X233072Y18645D01*
X232748Y18530D01*
X232609Y18484D01*
X232493Y18460D01*
X232401Y18437D01*
X232377D01*
X232146Y18414D01*
X231891Y18391D01*
X231637D01*
X231383Y18368D01*
X229693D01*
Y22371D01*
X231544D01*
X231753Y22348D01*
D02*
G37*
G36*
X217707Y15938D02*
X214051D01*
X215879Y21214D01*
X217707Y15938D01*
D02*
G37*
G36*
X178000D02*
X174344D01*
X176172Y21214D01*
X178000Y15938D01*
D02*
G37*
G36*
X159326Y10176D02*
X154652D01*
Y22232D01*
X159326D01*
Y10176D01*
D02*
G37*
G36*
X148011Y15938D02*
X144355D01*
X146183Y21214D01*
X148011Y15938D01*
D02*
G37*
G36*
X149978Y10176D02*
X142388D01*
X143430Y13184D01*
X148937D01*
X149978Y10176D01*
D02*
G37*
G36*
X124617Y24546D02*
Y24014D01*
X124594Y23528D01*
X124571Y23111D01*
Y22764D01*
Y22625D01*
X124548Y22510D01*
Y22417D01*
Y22348D01*
Y22325D01*
Y22301D01*
Y21862D01*
X124525Y21422D01*
Y21052D01*
X124502Y20705D01*
Y20427D01*
X124478Y20219D01*
Y20080D01*
Y20057D01*
Y20034D01*
X124455Y19548D01*
X124409Y19108D01*
X124386Y18669D01*
X124340Y18275D01*
X124317Y17905D01*
X124270Y17581D01*
X124224Y17280D01*
X124201Y17003D01*
X124155Y16748D01*
X124131Y16540D01*
X124108Y16355D01*
X124085Y16216D01*
X124062Y16100D01*
Y16007D01*
X124039Y15961D01*
Y15938D01*
X123923Y15429D01*
X123761Y14989D01*
X123599Y14619D01*
X123414Y14318D01*
X123252Y14110D01*
X123113Y13948D01*
X123021Y13832D01*
X122998Y13809D01*
X122836Y13717D01*
X122674Y13624D01*
X122558Y13601D01*
X122535Y13578D01*
X122512D01*
X122396Y13555D01*
X122257Y13532D01*
X122002Y13508D01*
X121401D01*
X121262Y13532D01*
X121077D01*
Y25124D01*
X124640D01*
X124617Y24546D01*
D02*
G37*
G36*
X202412Y15799D02*
X202389Y15244D01*
X202296Y14758D01*
X202204Y14341D01*
X202065Y14017D01*
X201949Y13763D01*
X201833Y13578D01*
X201741Y13485D01*
X201718Y13439D01*
X201440Y13208D01*
X201093Y13023D01*
X200746Y12907D01*
X200399Y12814D01*
X200075Y12768D01*
X199820Y12745D01*
X199728Y12722D01*
X199589D01*
X199080Y12745D01*
X198640Y12837D01*
X198270Y12953D01*
X197969Y13092D01*
X197738Y13231D01*
X197576Y13347D01*
X197483Y13439D01*
X197460Y13462D01*
X197252Y13786D01*
X197090Y14156D01*
X196974Y14527D01*
X196905Y14920D01*
X196859Y15267D01*
X196812Y15545D01*
Y15660D01*
Y15730D01*
Y15776D01*
Y15799D01*
Y25124D01*
X202412D01*
Y15799D01*
D02*
G37*
%LPC*%
G36*
X470545Y385854D02*
D01*
Y380532D01*
X465200D01*
Y385854D01*
X457101D01*
X462446D01*
Y380532D01*
X457101D01*
Y377825D01*
X462446D01*
Y372503D01*
X470545D01*
Y385854D01*
D02*
G37*
G36*
X485956Y387775D02*
D01*
Y377061D01*
X485933Y377385D01*
X485909Y377686D01*
X485863Y377941D01*
X485817Y378149D01*
X485747Y378311D01*
X485701Y378450D01*
X485678Y378519D01*
X485655Y378542D01*
X485400Y378936D01*
X485285Y379121D01*
X485146Y379259D01*
X485030Y379375D01*
X484961Y379468D01*
X484891Y379514D01*
X484868Y379537D01*
X484521Y379792D01*
X484174Y379977D01*
X484035Y380046D01*
X483919Y380093D01*
X483850Y380139D01*
X483827D01*
X483410Y380278D01*
X483225Y380324D01*
X483063Y380347D01*
X482924Y380393D01*
X482832D01*
X482762Y380416D01*
X482739D01*
Y380578D01*
X483202Y380694D01*
X483595Y380879D01*
X483942Y381088D01*
X484243Y381296D01*
X484475Y381481D01*
X484637Y381643D01*
X484752Y381759D01*
X484776Y381805D01*
X485030Y382198D01*
X485238Y382569D01*
X485377Y382939D01*
X485470Y383286D01*
X485516Y383587D01*
X485562Y383818D01*
Y383911D01*
Y383980D01*
Y384003D01*
Y384026D01*
X485539Y384373D01*
X485493Y384674D01*
X485423Y384975D01*
X485354Y385206D01*
X485285Y385392D01*
X485215Y385554D01*
X485169Y385646D01*
X485146Y385669D01*
X484984Y385924D01*
X484799Y386155D01*
X484590Y386363D01*
X484382Y386525D01*
X484197Y386664D01*
X484058Y386780D01*
X483966Y386849D01*
X483919Y386872D01*
X483642Y387011D01*
X483364Y387150D01*
X483063Y387243D01*
X482785Y387335D01*
X482531Y387428D01*
X482346Y387474D01*
X482207Y387520D01*
X482161D01*
X481744Y387613D01*
X481328Y387659D01*
X480911Y387705D01*
X480518Y387752D01*
X480194D01*
X479916Y387775D01*
X479685D01*
X479153Y387752D01*
X478620Y387729D01*
X478134Y387682D01*
X477695Y387613D01*
X477348Y387543D01*
X477186Y387520D01*
X477070Y387497D01*
X476954Y387474D01*
X476885D01*
X476839Y387451D01*
X476816D01*
X476306Y387335D01*
X475867Y387220D01*
X475497Y387127D01*
X475173Y387034D01*
X474918Y386942D01*
X474733Y386872D01*
X474641Y386849D01*
X474594Y386826D01*
Y383587D01*
X474964D01*
X475358Y383795D01*
X475728Y383980D01*
X476075Y384142D01*
X476422Y384281D01*
X476700Y384373D01*
X476908Y384443D01*
X477047Y384489D01*
X477070Y384512D01*
X477093D01*
X477510Y384628D01*
X477880Y384697D01*
X478227Y384767D01*
X478551Y384790D01*
X478806Y384813D01*
X478991Y384836D01*
X479453D01*
X479754Y384813D01*
X479870Y384790D01*
X479963D01*
X480032Y384767D01*
X480055D01*
X480425Y384697D01*
X480587Y384674D01*
X480726Y384628D01*
X480819Y384582D01*
X480911Y384558D01*
X480957Y384535D01*
X480981D01*
X481235Y384397D01*
X481420Y384258D01*
X481536Y384142D01*
X481582Y384119D01*
Y384096D01*
X481721Y383864D01*
X481791Y383633D01*
X481814Y383540D01*
Y383448D01*
Y383401D01*
Y383378D01*
Y383170D01*
X481767Y382985D01*
X481744Y382823D01*
X481698Y382684D01*
X481652Y382592D01*
X481629Y382522D01*
X481582Y382476D01*
Y382453D01*
X481374Y382244D01*
X481166Y382106D01*
X481073Y382036D01*
X480981Y381990D01*
X480934Y381967D01*
X480911D01*
X480587Y381851D01*
X480240Y381782D01*
X480101Y381759D01*
X479986Y381735D01*
X479893D01*
X479430Y381712D01*
X479199D01*
X478968Y381689D01*
X477649D01*
Y379028D01*
X479338D01*
X479500Y379005D01*
X479754D01*
X480009Y378982D01*
X480240Y378959D01*
X480425Y378936D01*
X480610Y378913D01*
X480749Y378866D01*
X480842Y378843D01*
X480911Y378820D01*
X480934D01*
X481258Y378681D01*
X481513Y378519D01*
X481605Y378427D01*
X481675Y378380D01*
X481698Y378334D01*
X481721Y378311D01*
X481837Y378172D01*
X481906Y378010D01*
X481999Y377686D01*
X482022Y377547D01*
X482045Y377431D01*
Y377339D01*
Y377316D01*
Y377061D01*
X481999Y376853D01*
X481976Y376691D01*
X481929Y376529D01*
X481883Y376413D01*
X481860Y376344D01*
X481814Y376298D01*
Y376275D01*
X481629Y376043D01*
X481420Y375835D01*
X481282Y375719D01*
X481235Y375696D01*
X481212Y375673D01*
X480842Y375465D01*
X480472Y375349D01*
X480310Y375303D01*
X480171Y375280D01*
X480078Y375256D01*
X480055D01*
X479569Y375210D01*
X479361Y375187D01*
X479176D01*
X479014Y375164D01*
X478806D01*
X478435Y375187D01*
X478042Y375233D01*
X477672Y375280D01*
X477325Y375349D01*
X477047Y375418D01*
X476816Y375488D01*
X476723Y375511D01*
X476654D01*
X476630Y375534D01*
X476607D01*
X476168Y375696D01*
X475774Y375835D01*
X475427Y375997D01*
X475126Y376136D01*
X474872Y376275D01*
X474687Y376367D01*
X474571Y376437D01*
X474525Y376460D01*
X474155D01*
Y373151D01*
X474478Y373035D01*
X474849Y372896D01*
X475196Y372804D01*
X475543Y372711D01*
X475844Y372642D01*
X476098Y372572D01*
X476191Y372549D01*
X476260D01*
X476283Y372526D01*
X476306D01*
X476839Y372433D01*
X477371Y372364D01*
X477903Y372295D01*
X478412Y372271D01*
X478852Y372248D01*
X479037Y372225D01*
X474155D01*
X485956D01*
Y387775D01*
D02*
G37*
G36*
X524899Y387474D02*
D01*
Y372526D01*
X519415D01*
X524899Y387474D01*
X509650D01*
D01*
X515111Y372526D01*
X524899D01*
Y387474D01*
D02*
G37*
G36*
X492944Y376483D02*
X489195D01*
Y372526D01*
X492944D01*
Y376483D01*
D02*
G37*
G36*
X508008Y387775D02*
X496206D01*
D01*
X501737D01*
X501204Y387752D01*
X500672Y387729D01*
X500186Y387682D01*
X499747Y387613D01*
X499400Y387543D01*
X499238Y387520D01*
X499122Y387497D01*
X499006Y387474D01*
X498937D01*
X498890Y387451D01*
X498867D01*
X498358Y387335D01*
X497919Y387220D01*
X497548Y387127D01*
X497225Y387034D01*
X496970Y386942D01*
X496785Y386872D01*
X496692Y386849D01*
X496646Y386826D01*
Y383587D01*
X497016D01*
X497410Y383795D01*
X497780Y383980D01*
X498127Y384142D01*
X498474Y384281D01*
X498752Y384373D01*
X498960Y384443D01*
X499099Y384489D01*
X499122Y384512D01*
X499145D01*
X499562Y384628D01*
X499932Y384697D01*
X500279Y384767D01*
X500603Y384790D01*
X500857Y384813D01*
X501043Y384836D01*
X501505D01*
X501806Y384813D01*
X501922Y384790D01*
X502014D01*
X502084Y384767D01*
X502107D01*
X502477Y384697D01*
X502639Y384674D01*
X502778Y384628D01*
X502870Y384582D01*
X502963Y384558D01*
X503009Y384535D01*
X503032D01*
X503287Y384397D01*
X503472Y384258D01*
X503588Y384142D01*
X503634Y384119D01*
Y384096D01*
X503773Y383864D01*
X503842Y383633D01*
X503866Y383540D01*
Y383448D01*
Y383401D01*
Y383378D01*
Y383170D01*
X503819Y382985D01*
X503796Y382823D01*
X503750Y382684D01*
X503703Y382592D01*
X503680Y382522D01*
X503634Y382476D01*
Y382453D01*
X503426Y382244D01*
X503218Y382106D01*
X503125Y382036D01*
X503032Y381990D01*
X502986Y381967D01*
X502963D01*
X502639Y381851D01*
X502292Y381782D01*
X502153Y381759D01*
X502038Y381735D01*
X501945D01*
X501482Y381712D01*
X501251D01*
X501019Y381689D01*
X499700D01*
Y379028D01*
X501390D01*
X501552Y379005D01*
X501806D01*
X502061Y378982D01*
X502292Y378959D01*
X502477Y378936D01*
X502662Y378913D01*
X502801Y378866D01*
X502894Y378843D01*
X502963Y378820D01*
X502986D01*
X503310Y378681D01*
X503565Y378519D01*
X503657Y378427D01*
X503727Y378380D01*
X503750Y378334D01*
X503773Y378311D01*
X503889Y378172D01*
X503958Y378010D01*
X504051Y377686D01*
X504074Y377547D01*
X504097Y377431D01*
Y377339D01*
Y377316D01*
Y377061D01*
X504051Y376853D01*
X504027Y376691D01*
X503981Y376529D01*
X503935Y376413D01*
X503912Y376344D01*
X503866Y376298D01*
Y376275D01*
X503680Y376043D01*
X503472Y375835D01*
X503333Y375719D01*
X503287Y375696D01*
X503264Y375673D01*
X502894Y375465D01*
X502523Y375349D01*
X502361Y375303D01*
X502223Y375280D01*
X502130Y375256D01*
X502107D01*
X501621Y375210D01*
X501413Y375187D01*
X501228D01*
X501066Y375164D01*
X500857D01*
X500487Y375187D01*
X500094Y375233D01*
X499724Y375280D01*
X499376Y375349D01*
X499099Y375418D01*
X498867Y375488D01*
X498775Y375511D01*
X498705D01*
X498682Y375534D01*
X498659D01*
X498219Y375696D01*
X497826Y375835D01*
X497479Y375997D01*
X497178Y376136D01*
X496924Y376275D01*
X496739Y376367D01*
X496623Y376437D01*
X496577Y376460D01*
X496206D01*
Y373151D01*
X496530Y373035D01*
X496901Y372896D01*
X497248Y372804D01*
X497595Y372711D01*
X497896Y372642D01*
X498150Y372572D01*
X498243Y372549D01*
X498312D01*
X498335Y372526D01*
X498358D01*
X498890Y372433D01*
X499423Y372364D01*
X499955Y372295D01*
X500464Y372271D01*
X500904Y372248D01*
X501089Y372225D01*
X501552D01*
X502130Y372248D01*
X502662Y372271D01*
X503125Y372318D01*
X503542Y372387D01*
X503866Y372457D01*
X504097Y372503D01*
X504189Y372526D01*
X504259D01*
X504282Y372549D01*
X504305D01*
X504722Y372688D01*
X505115Y372850D01*
X505439Y373012D01*
X505740Y373174D01*
X505971Y373313D01*
X506156Y373428D01*
X506249Y373498D01*
X506295Y373521D01*
X506596Y373775D01*
X506851Y374030D01*
X507082Y374308D01*
X507244Y374539D01*
X507383Y374747D01*
X507498Y374933D01*
X507545Y375025D01*
X507568Y375071D01*
X507707Y375418D01*
X507822Y375765D01*
X507892Y376113D01*
X507961Y376413D01*
X507984Y376668D01*
X508008Y376876D01*
Y372225D01*
D01*
Y387775D01*
D02*
G37*
%LPD*%
G36*
X470545Y372503D02*
X465200D01*
Y377825D01*
X470545D01*
Y372503D01*
D02*
G37*
G36*
X485956Y372225D02*
X479500D01*
X480078Y372248D01*
X480610Y372271D01*
X481073Y372318D01*
X481490Y372387D01*
X481814Y372457D01*
X482045Y372503D01*
X482138Y372526D01*
X482207D01*
X482230Y372549D01*
X482253D01*
X482670Y372688D01*
X483063Y372850D01*
X483387Y373012D01*
X483688Y373174D01*
X483919Y373313D01*
X484104Y373428D01*
X484197Y373498D01*
X484243Y373521D01*
X484544Y373775D01*
X484799Y374030D01*
X485030Y374308D01*
X485192Y374539D01*
X485331Y374747D01*
X485447Y374933D01*
X485493Y375025D01*
X485516Y375071D01*
X485655Y375418D01*
X485770Y375765D01*
X485840Y376113D01*
X485909Y376413D01*
X485933Y376668D01*
X485956Y376876D01*
Y372225D01*
D02*
G37*
G36*
X517309Y376922D02*
X513677Y387474D01*
X520942D01*
X517309Y376922D01*
D02*
G37*
G36*
X508008Y377061D02*
X507984Y377385D01*
X507961Y377686D01*
X507915Y377941D01*
X507869Y378149D01*
X507799Y378311D01*
X507753Y378450D01*
X507730Y378519D01*
X507707Y378542D01*
X507452Y378936D01*
X507336Y379121D01*
X507198Y379259D01*
X507082Y379375D01*
X507012Y379468D01*
X506943Y379514D01*
X506920Y379537D01*
X506573Y379792D01*
X506226Y379977D01*
X506087Y380046D01*
X505971Y380093D01*
X505902Y380139D01*
X505879D01*
X505462Y380278D01*
X505277Y380324D01*
X505115Y380347D01*
X504976Y380393D01*
X504884D01*
X504814Y380416D01*
X504791D01*
Y380578D01*
X505254Y380694D01*
X505647Y380879D01*
X505994Y381088D01*
X506295Y381296D01*
X506526Y381481D01*
X506688Y381643D01*
X506804Y381759D01*
X506827Y381805D01*
X507082Y382198D01*
X507290Y382569D01*
X507429Y382939D01*
X507522Y383286D01*
X507568Y383587D01*
X507614Y383818D01*
Y383911D01*
Y383980D01*
Y384003D01*
Y384026D01*
X507591Y384373D01*
X507545Y384674D01*
X507475Y384975D01*
X507406Y385206D01*
X507336Y385392D01*
X507267Y385554D01*
X507221Y385646D01*
X507198Y385669D01*
X507036Y385924D01*
X506851Y386155D01*
X506642Y386363D01*
X506434Y386525D01*
X506249Y386664D01*
X506110Y386780D01*
X506017Y386849D01*
X505971Y386872D01*
X505694Y387011D01*
X505416Y387150D01*
X505115Y387243D01*
X504837Y387335D01*
X504583Y387428D01*
X504398Y387474D01*
X504259Y387520D01*
X504213D01*
X503796Y387613D01*
X503380Y387659D01*
X502963Y387705D01*
X502570Y387752D01*
X502246D01*
X501968Y387775D01*
X508008D01*
Y377061D01*
D02*
G37*
%LPC*%
G36*
X253316Y372275D02*
X234503Y372275D01*
Y357026D01*
X257967Y357026D01*
X246628D01*
Y371974D01*
X243204D01*
Y363598D01*
X238992Y371974D01*
X234503D01*
Y372275D01*
X253084Y372275D01*
X252668Y372252D01*
X252274Y372229D01*
X251904Y372159D01*
X251557Y372067D01*
X251233Y371974D01*
X250932Y371858D01*
X250678Y371743D01*
X250423Y371627D01*
X250215Y371511D01*
X250030Y371396D01*
X249868Y371280D01*
X249729Y371187D01*
X249637Y371095D01*
X249567Y371025D01*
X249521Y371002D01*
X249498Y370979D01*
X249266Y370724D01*
X249081Y370470D01*
X248919Y370192D01*
X248757Y369892D01*
X248526Y369313D01*
X248387Y368758D01*
X248341Y368503D01*
X248295Y368249D01*
X248271Y368040D01*
X248248Y367855D01*
X248225Y367693D01*
Y367578D01*
Y367508D01*
Y367485D01*
X248248Y367092D01*
X248271Y366698D01*
X248341Y366328D01*
X248433Y366004D01*
X248526Y365680D01*
X248618Y365402D01*
X248734Y365125D01*
X248873Y364893D01*
X248989Y364685D01*
X249104Y364500D01*
X249197Y364338D01*
X249289Y364199D01*
X249382Y364107D01*
X249451Y364037D01*
X249475Y363991D01*
X249498Y363968D01*
X249752Y363736D01*
X250007Y363551D01*
X250308Y363389D01*
X250585Y363227D01*
X251187Y362996D01*
X251765Y362857D01*
X252043Y362811D01*
X252274Y362765D01*
X252506Y362741D01*
X252714Y362718D01*
X252853Y362695D01*
X253084D01*
X253501Y362718D01*
X253894Y362741D01*
X254264Y362811D01*
X254611Y362903D01*
X254935Y362996D01*
X255236Y363088D01*
X255514Y363204D01*
X255745Y363343D01*
X255954Y363459D01*
X256139Y363574D01*
X256301Y363667D01*
X256439Y363760D01*
X256532Y363852D01*
X256602Y363922D01*
X256648Y363945D01*
X256671Y363968D01*
X256902Y364222D01*
X257111Y364500D01*
X257273Y364778D01*
X257411Y365055D01*
X257643Y365657D01*
X257805Y366212D01*
X257851Y366467D01*
X257897Y366721D01*
X257920Y366930D01*
X257944Y367115D01*
X257967Y367277D01*
Y367485D01*
X257944Y367878D01*
X257920Y368272D01*
X257851Y368619D01*
X257759Y368966D01*
X257666Y369267D01*
X257573Y369568D01*
X257458Y369822D01*
X257342Y370053D01*
X257203Y370262D01*
X257087Y370447D01*
X256995Y370609D01*
X256902Y370748D01*
X256810Y370840D01*
X256740Y370910D01*
X256717Y370956D01*
X256694Y370979D01*
X256439Y371211D01*
X256185Y371419D01*
X255884Y371581D01*
X255583Y371720D01*
X255005Y371951D01*
X254403Y372113D01*
X254149Y372159D01*
X253894Y372206D01*
X253663Y372229D01*
X253478Y372252D01*
X253316Y372275D01*
D02*
G37*
G36*
X179154Y372275D02*
X178853D01*
X178275Y372252D01*
X177696Y372229D01*
X177187Y372182D01*
X176724Y372113D01*
X176331Y372043D01*
X176169Y372020D01*
X176030Y371997D01*
X175914Y371974D01*
X175845D01*
X175799Y371951D01*
X175776D01*
X175243Y371835D01*
X174757Y371720D01*
X174341Y371604D01*
X173971Y371511D01*
X173670Y371419D01*
X173462Y371349D01*
X173323Y371303D01*
X173300Y371280D01*
X173277D01*
Y368156D01*
X173647D01*
X173948Y368295D01*
X174202Y368411D01*
X174318Y368457D01*
X174387Y368503D01*
X174433Y368526D01*
X174457D01*
X174619Y368596D01*
X174781Y368688D01*
X175128Y368804D01*
X175290Y368873D01*
X175405Y368896D01*
X175498Y368943D01*
X175521D01*
X175961Y369082D01*
X176192Y369151D01*
X176377Y369197D01*
X176539Y369244D01*
X176655Y369267D01*
X176747Y369290D01*
X176771D01*
X177280Y369382D01*
X177534Y369406D01*
X177742Y369429D01*
X177951Y369452D01*
X178228D01*
X178691Y369429D01*
X179084Y369406D01*
X179432Y369336D01*
X179732Y369290D01*
X179964Y369220D01*
X180126Y369151D01*
X180242Y369128D01*
X180265Y369105D01*
X180519Y368966D01*
X180704Y368781D01*
X180843Y368619D01*
X180936Y368434D01*
X180982Y368272D01*
X181028Y368133D01*
Y368040D01*
Y368017D01*
X181005Y367716D01*
X180959Y367485D01*
X180936Y367392D01*
X180912Y367323D01*
X180889Y367300D01*
Y367277D01*
X180774Y367068D01*
X180635Y366907D01*
X180519Y366791D01*
X180496Y366768D01*
X180473Y366744D01*
X180357Y366675D01*
X180218Y366606D01*
X179964Y366513D01*
X179825Y366467D01*
X179732Y366444D01*
X179663Y366421D01*
X179640D01*
X179223Y366374D01*
X178992Y366351D01*
X178784D01*
X178622Y366328D01*
X175683D01*
Y363667D01*
X178714D01*
X178969Y363644D01*
X179200D01*
X179385Y363621D01*
X179547Y363598D01*
X179663D01*
X179732Y363574D01*
X179756D01*
X180126Y363505D01*
X180288Y363459D01*
X180427Y363389D01*
X180542Y363343D01*
X180612Y363320D01*
X180658Y363274D01*
X180681D01*
X180936Y363088D01*
X181098Y362880D01*
X181213Y362741D01*
X181236Y362695D01*
Y362672D01*
X181352Y362371D01*
X181399Y362070D01*
X181422Y361955D01*
Y361839D01*
Y361770D01*
Y361746D01*
Y361538D01*
X181375Y361330D01*
X181352Y361168D01*
X181306Y361029D01*
X181260Y360913D01*
X181213Y360821D01*
X181190Y360775D01*
X181167Y360751D01*
X181075Y360613D01*
X180959Y360474D01*
X180704Y360266D01*
X180612Y360196D01*
X180519Y360127D01*
X180450Y360103D01*
X180427Y360080D01*
X180079Y359895D01*
X179709Y359780D01*
X179571Y359733D01*
X179455Y359687D01*
X179362Y359664D01*
X179339D01*
X178830Y359594D01*
X178599Y359571D01*
X178367D01*
X178182Y359548D01*
X177581D01*
X177326Y359571D01*
X177071Y359594D01*
X176863Y359618D01*
X176678Y359641D01*
X176562Y359664D01*
X176470Y359687D01*
X176447D01*
X175984Y359826D01*
X175753Y359895D01*
X175544Y359965D01*
X175382Y360011D01*
X175220Y360057D01*
X175128Y360103D01*
X175105D01*
X174688Y360266D01*
X174480Y360358D01*
X174318Y360428D01*
X174156Y360497D01*
X174040Y360566D01*
X173971Y360589D01*
X173948Y360613D01*
X173762Y360728D01*
X173577Y360821D01*
X173438Y360890D01*
X173323Y360960D01*
X173230Y361006D01*
X173161Y361052D01*
X173138Y361075D01*
X172768D01*
Y372275D01*
X178111D01*
X172768D01*
Y356725D01*
Y357697D01*
X173647Y357396D01*
X174086Y357281D01*
X174480Y357188D01*
X174804Y357118D01*
X175081Y357049D01*
X175174Y357026D01*
X175243D01*
X175290Y357003D01*
X175313D01*
X175845Y356910D01*
X176377Y356841D01*
X176886Y356795D01*
X177349Y356771D01*
X177742Y356748D01*
X177904Y356725D01*
X178321D01*
X178969Y356748D01*
X179571Y356771D01*
X180103Y356818D01*
X180565Y356887D01*
X180751Y356910D01*
X180912Y356957D01*
X181075Y356980D01*
X181190Y357003D01*
X181283Y357026D01*
X181375D01*
X181399Y357049D01*
X181422D01*
X181884Y357188D01*
X182324Y357327D01*
X182694Y357489D01*
X183018Y357651D01*
X183273Y357790D01*
X183481Y357905D01*
X183597Y357975D01*
X183643Y357998D01*
X183944Y358229D01*
X184221Y358484D01*
X184453Y358738D01*
X184638Y358970D01*
X184777Y359178D01*
X184869Y359363D01*
X184939Y359456D01*
X184962Y359502D01*
X185124Y359849D01*
X185240Y360196D01*
X185309Y360520D01*
X185378Y360821D01*
X185402Y361075D01*
X185425Y361284D01*
Y361469D01*
X185402Y361816D01*
X185378Y362117D01*
X185332Y362394D01*
X185263Y362626D01*
X185193Y362811D01*
X185147Y362926D01*
X185124Y363019D01*
X185101Y363042D01*
X184962Y363274D01*
X184846Y363482D01*
X184684Y363644D01*
X184569Y363806D01*
X184453Y363945D01*
X184360Y364037D01*
X184291Y364084D01*
X184268Y364107D01*
X183897Y364384D01*
X183550Y364569D01*
X183389Y364639D01*
X183273Y364685D01*
X183203Y364731D01*
X183180D01*
X182741Y364870D01*
X182555Y364940D01*
X182393Y364986D01*
X182255Y365009D01*
X182139Y365032D01*
X182069Y365055D01*
X182046D01*
Y365217D01*
X182509Y365356D01*
X182949Y365541D01*
X183319Y365750D01*
X183620Y365935D01*
X183874Y366143D01*
X184060Y366305D01*
X184152Y366397D01*
X184198Y366444D01*
X184476Y366814D01*
X184684Y367184D01*
X184823Y367554D01*
X184939Y367901D01*
X184985Y368202D01*
X185008Y368434D01*
X185031Y368526D01*
Y368596D01*
Y368619D01*
Y368642D01*
X185008Y368966D01*
X184962Y369244D01*
X184893Y369521D01*
X184800Y369776D01*
X184545Y370239D01*
X184268Y370609D01*
X183967Y370910D01*
X183736Y371118D01*
X183620Y371210D01*
X183550Y371257D01*
X183504Y371303D01*
X183481D01*
X183180Y371465D01*
X182833Y371627D01*
X182116Y371858D01*
X181329Y372043D01*
X180589Y372159D01*
X180242Y372205D01*
X179918Y372229D01*
X179617Y372252D01*
X179362D01*
X179154Y372275D01*
D02*
G37*
G36*
X256625Y360913D02*
X249567D01*
Y358785D01*
X256625D01*
Y360913D01*
D02*
G37*
G36*
X265233Y368295D02*
X261484D01*
Y357026D01*
X265233D01*
Y360983D01*
X261484D01*
Y364338D01*
X265233D01*
Y368295D01*
D02*
G37*
G36*
X223720Y360983D02*
X219972D01*
Y357026D01*
X223720D01*
Y360983D01*
D02*
G37*
G36*
X210786Y371974D02*
X204376D01*
Y357026D01*
X217172D01*
X210901D01*
X211480Y357049D01*
X212012Y357072D01*
X212451Y357118D01*
X212845Y357165D01*
X213169Y357211D01*
X213400Y357257D01*
X213470Y357281D01*
X213539Y357304D01*
X213585D01*
X213979Y357419D01*
X214349Y357558D01*
X214673Y357720D01*
X214951Y357882D01*
X215205Y358021D01*
X215367Y358114D01*
X215483Y358206D01*
X215529Y358229D01*
X215807Y358461D01*
X216038Y358692D01*
X216246Y358923D01*
X216408Y359155D01*
X216547Y359340D01*
X216663Y359502D01*
X216709Y359594D01*
X216732Y359641D01*
X216871Y359965D01*
X216987Y360312D01*
X217056Y360636D01*
X217126Y360937D01*
X217149Y361191D01*
X217172Y361399D01*
Y361584D01*
X217126Y362117D01*
X217033Y362603D01*
X216894Y363019D01*
X216732Y363343D01*
X216570Y363621D01*
X216432Y363829D01*
X216339Y363945D01*
X216293Y363991D01*
X215946Y364315D01*
X215575Y364569D01*
X215182Y364778D01*
X214812Y364940D01*
X214488Y365055D01*
X214210Y365148D01*
X214118Y365171D01*
X214048D01*
X214002Y365194D01*
X213979D01*
Y365287D01*
X214349Y365472D01*
X214673Y365680D01*
X214951Y365911D01*
X215182Y366120D01*
X215367Y366305D01*
X215483Y366444D01*
X215575Y366536D01*
X215599Y366583D01*
X215784Y366907D01*
X215923Y367230D01*
X216038Y367554D01*
X216108Y367855D01*
X216154Y368110D01*
X216177Y368295D01*
Y368434D01*
Y368480D01*
X216154Y368827D01*
X216108Y369151D01*
X216038Y369429D01*
X215969Y369660D01*
X215876Y369868D01*
X215807Y370030D01*
X215760Y370123D01*
X215737Y370146D01*
X215575Y370401D01*
X215367Y370632D01*
X215159Y370840D01*
X214951Y371002D01*
X214765Y371141D01*
X214627Y371234D01*
X214534Y371280D01*
X214488Y371303D01*
X214187Y371442D01*
X213886Y371558D01*
X213585Y371650D01*
X213354Y371720D01*
X213123Y371789D01*
X212961Y371812D01*
X212868Y371835D01*
X212822D01*
X212660Y371858D01*
X212475Y371881D01*
X212058Y371928D01*
X211618Y371951D01*
X211179D01*
X210786Y371974D01*
D02*
G37*
G36*
X196717D02*
X192251D01*
X186744Y357026D01*
X190631D01*
X191672Y360034D01*
X197180D01*
X198221Y357026D01*
X202247D01*
D01*
X196717Y371974D01*
D02*
G37*
G36*
X198221Y357026D02*
X197436D01*
X198221D01*
D01*
D02*
G37*
G36*
X186744Y371974D02*
Y357026D01*
D01*
Y371974D01*
D02*
G37*
%LPD*%
G36*
X253431Y370239D02*
X253709Y370146D01*
X253964Y370053D01*
X254172Y369915D01*
X254311Y369799D01*
X254426Y369683D01*
X254496Y369591D01*
X254519Y369568D01*
X254681Y369267D01*
X254797Y368943D01*
X254889Y368596D01*
X254935Y368249D01*
X254982Y367925D01*
X255005Y367670D01*
Y367578D01*
Y367508D01*
Y367462D01*
Y367439D01*
X254982Y366953D01*
X254935Y366513D01*
X254843Y366166D01*
X254774Y365865D01*
X254681Y365634D01*
X254588Y365495D01*
X254542Y365379D01*
X254519Y365356D01*
X254311Y365148D01*
X254102Y364986D01*
X253871Y364870D01*
X253640Y364801D01*
X253431Y364755D01*
X253269Y364708D01*
X253107D01*
X252760Y364731D01*
X252460Y364801D01*
X252228Y364916D01*
X252020Y365032D01*
X251858Y365148D01*
X251742Y365264D01*
X251673Y365333D01*
X251650Y365356D01*
X251488Y365634D01*
X251372Y365958D01*
X251303Y366305D01*
X251256Y366652D01*
X251210Y366953D01*
X251187Y367207D01*
Y367300D01*
Y367369D01*
Y367416D01*
Y367439D01*
X251210Y367948D01*
X251256Y368387D01*
X251326Y368735D01*
X251418Y369035D01*
X251511Y369267D01*
X251580Y369429D01*
X251626Y369544D01*
X251650Y369568D01*
X251835Y369799D01*
X252066Y369961D01*
X252298Y370100D01*
X252552Y370169D01*
X252760Y370215D01*
X252922Y370262D01*
X253084D01*
X253431Y370239D01*
D02*
G37*
G36*
X243111Y357026D02*
X237928Y357026D01*
Y367230D01*
X243111Y357026D01*
D02*
G37*
G36*
X210068Y369197D02*
X210323D01*
X210554Y369174D01*
X210739Y369151D01*
X210924Y369128D01*
X211086Y369105D01*
X211202Y369058D01*
X211295Y369035D01*
X211341Y369012D01*
X211364D01*
X211526Y368943D01*
X211665Y368850D01*
X211780Y368781D01*
X211873Y368688D01*
X211989Y368549D01*
X212035Y368503D01*
Y368480D01*
X212151Y368202D01*
X212197Y367971D01*
X212220Y367878D01*
Y367809D01*
Y367763D01*
Y367739D01*
X212197Y367392D01*
X212151Y367138D01*
X212104Y367022D01*
X212081Y366953D01*
X212058Y366907D01*
Y366883D01*
X211989Y366744D01*
X211873Y366629D01*
X211642Y366444D01*
X211549Y366374D01*
X211457Y366328D01*
X211387Y366282D01*
X211364D01*
X211225Y366236D01*
X211040Y366189D01*
X210716Y366120D01*
X210577D01*
X210462Y366097D01*
X210091D01*
X209837Y366073D01*
X208240D01*
Y369220D01*
X209883D01*
X210068Y369197D01*
D02*
G37*
G36*
X210415Y363459D02*
X210994D01*
X211248Y363436D01*
X211457Y363413D01*
X211618Y363389D01*
X211757Y363366D01*
X211873Y363343D01*
X211919Y363320D01*
X211943D01*
X212174Y363251D01*
X212382Y363158D01*
X212544Y363065D01*
X212660Y362973D01*
X212775Y362880D01*
X212845Y362811D01*
X212868Y362765D01*
X212891Y362741D01*
X212984Y362579D01*
X213053Y362417D01*
X213146Y362070D01*
Y361908D01*
X213169Y361770D01*
Y361677D01*
Y361654D01*
X213123Y361284D01*
X213099Y361122D01*
X213053Y360983D01*
X213007Y360867D01*
X212984Y360775D01*
X212938Y360728D01*
Y360705D01*
X212845Y360566D01*
X212706Y360428D01*
X212428Y360219D01*
X212313Y360127D01*
X212197Y360080D01*
X212128Y360057D01*
X212104Y360034D01*
X211873Y359941D01*
X211665Y359895D01*
X211433Y359849D01*
X211248Y359803D01*
X211063D01*
X210924Y359780D01*
X208240D01*
Y363482D01*
X210207D01*
X210415Y363459D01*
D02*
G37*
G36*
X196254Y362788D02*
X192598D01*
X194426Y368064D01*
X196254Y362788D01*
D02*
G37*
%LPC*%
G36*
X385275Y105949D02*
D01*
Y104700D01*
X384951Y104838D01*
X384627Y104977D01*
X384511Y105023D01*
X384395Y105070D01*
X384326Y105116D01*
X384303D01*
X383886Y105301D01*
X383678Y105371D01*
X383493Y105440D01*
X383308Y105486D01*
X383192Y105533D01*
X383100Y105556D01*
X383077D01*
X382590Y105671D01*
X382359Y105718D01*
X382151Y105764D01*
X381966Y105787D01*
X381827Y105810D01*
X381734Y105833D01*
X381688D01*
X381110Y105903D01*
X380809Y105926D01*
X380554D01*
X380323Y105949D01*
X372363D01*
X379976D01*
X379351Y105926D01*
X378773Y105857D01*
X378240Y105764D01*
X377778Y105671D01*
X377569Y105625D01*
X377384Y105579D01*
X377222Y105533D01*
X377083Y105486D01*
X376968Y105440D01*
X376898Y105417D01*
X376852Y105394D01*
X376829D01*
X376320Y105185D01*
X375857Y104931D01*
X375440Y104676D01*
X375093Y104422D01*
X374816Y104214D01*
X374608Y104029D01*
X374469Y103913D01*
X374445Y103890D01*
X374422Y103867D01*
X374075Y103450D01*
X373751Y103034D01*
X373474Y102617D01*
X373265Y102224D01*
X373103Y101877D01*
X373034Y101738D01*
X372965Y101622D01*
X372918Y101506D01*
X372895Y101437D01*
X372872Y101391D01*
Y101368D01*
X372710Y100812D01*
X372571Y100257D01*
X372479Y99725D01*
X372432Y99215D01*
X372386Y98799D01*
Y98614D01*
X372363Y98452D01*
Y98151D01*
X372386Y97457D01*
X372455Y96809D01*
X372548Y96230D01*
X372641Y95745D01*
X372687Y95536D01*
X372733Y95328D01*
X372779Y95166D01*
X372826Y95027D01*
X372872Y94912D01*
X372895Y94842D01*
X372918Y94796D01*
Y94773D01*
X373150Y94241D01*
X373404Y93778D01*
X373659Y93361D01*
X373913Y93014D01*
X374122Y92737D01*
X374307Y92528D01*
X374422Y92389D01*
X374469Y92366D01*
Y92343D01*
X374862Y91996D01*
X375279Y91695D01*
X375695Y91464D01*
X376065Y91256D01*
X376389Y91094D01*
X376667Y90978D01*
X376759Y90932D01*
X376829Y90908D01*
X376875Y90885D01*
X376898D01*
X377430Y90723D01*
X377986Y90608D01*
X378495Y90515D01*
X378958Y90469D01*
X379374Y90423D01*
X379536D01*
X379698Y90399D01*
X372363D01*
X385275D01*
Y105949D01*
D02*
G37*
G36*
X509950Y105949D02*
D01*
Y98845D01*
Y105949D01*
D02*
G37*
G36*
X546626D02*
D01*
Y98498D01*
Y105949D01*
D02*
G37*
G36*
X532279D02*
D01*
Y98174D01*
X532256Y98845D01*
X532233Y99493D01*
X532164Y100049D01*
X532117Y100534D01*
X532071Y100743D01*
X532048Y100928D01*
X532025Y101090D01*
X531978Y101229D01*
X531955Y101344D01*
Y101414D01*
X531932Y101460D01*
Y101483D01*
X531793Y102015D01*
X531631Y102478D01*
X531446Y102895D01*
X531284Y103242D01*
X531122Y103519D01*
X530984Y103728D01*
X530891Y103867D01*
X530868Y103913D01*
X530567Y104283D01*
X530266Y104584D01*
X529942Y104838D01*
X529641Y105070D01*
X529387Y105232D01*
X529156Y105347D01*
X529017Y105417D01*
X528993Y105440D01*
X528970D01*
X528508Y105602D01*
X528045Y105741D01*
X527559Y105833D01*
X527096Y105880D01*
X526703Y105926D01*
X526541D01*
X526379Y105949D01*
X519923D01*
X526101D01*
X525499Y105926D01*
X524944Y105880D01*
X524458Y105787D01*
X524065Y105695D01*
X523718Y105602D01*
X523579Y105556D01*
X523463Y105510D01*
X523371Y105486D01*
X523301Y105463D01*
X523278Y105440D01*
X523255D01*
X522839Y105232D01*
X522468Y105000D01*
X522121Y104769D01*
X521843Y104538D01*
X521635Y104306D01*
X521473Y104144D01*
X521381Y104029D01*
X521334Y103982D01*
X521080Y103589D01*
X520849Y103172D01*
X520663Y102779D01*
X520524Y102386D01*
X520386Y102062D01*
X520316Y101784D01*
X520293Y101692D01*
X520270Y101622D01*
X520247Y101576D01*
Y101553D01*
X520131Y100997D01*
X520062Y100419D01*
X519992Y99864D01*
X519969Y99331D01*
X519946Y99077D01*
Y98869D01*
X519923Y98660D01*
Y98174D01*
X519946Y97480D01*
X519969Y96855D01*
X520015Y96277D01*
X520085Y95791D01*
X520108Y95583D01*
X520154Y95374D01*
X520177Y95212D01*
X520201Y95074D01*
X520224Y94958D01*
Y94888D01*
X520247Y94842D01*
Y94819D01*
X520386Y94287D01*
X520548Y93824D01*
X520733Y93408D01*
X520895Y93037D01*
X521057Y92760D01*
X521196Y92551D01*
X521288Y92413D01*
X521311Y92389D01*
Y92366D01*
X521612Y92019D01*
X521936Y91718D01*
X522237Y91464D01*
X522561Y91256D01*
X522815Y91094D01*
X523047Y90978D01*
X523186Y90908D01*
X523209Y90885D01*
X523232D01*
X523695Y90723D01*
X524180Y90608D01*
X524666Y90515D01*
X525106Y90469D01*
X525499Y90423D01*
X525685D01*
X525823Y90399D01*
X526101D01*
X526703Y90423D01*
X527258Y90469D01*
X527744Y90561D01*
X528161Y90654D01*
X528484Y90723D01*
X528623Y90770D01*
X528739Y90816D01*
X528832Y90839D01*
X528901Y90862D01*
X528924Y90885D01*
X528947D01*
X529364Y91094D01*
X529757Y91325D01*
X530081Y91556D01*
X530359Y91788D01*
X530567Y92019D01*
X530729Y92181D01*
X530845Y92297D01*
X530868Y92343D01*
X531122Y92737D01*
X531331Y93130D01*
X531516Y93546D01*
X531678Y93940D01*
X531793Y94287D01*
X531863Y94541D01*
X531886Y94657D01*
X531909Y94726D01*
X531932Y94773D01*
Y94796D01*
X532048Y95374D01*
X532141Y95953D01*
X532187Y96508D01*
X532233Y97040D01*
X532256Y97272D01*
Y97503D01*
X532279Y97688D01*
Y92389D01*
Y105949D01*
D02*
G37*
G36*
X451523Y105648D02*
D01*
Y95745D01*
X451500Y96254D01*
X451430Y96693D01*
X451361Y97087D01*
X451268Y97411D01*
X451153Y97688D01*
X451083Y97873D01*
X451014Y97989D01*
X450991Y98035D01*
X450782Y98359D01*
X450551Y98637D01*
X450320Y98892D01*
X450088Y99100D01*
X449903Y99262D01*
X449718Y99401D01*
X449625Y99470D01*
X449579Y99493D01*
X449301Y99632D01*
X449024Y99771D01*
X448723Y99887D01*
X448468Y99979D01*
X448237Y100049D01*
X448052Y100095D01*
X447936Y100141D01*
X447890D01*
X447520Y100234D01*
X447126Y100280D01*
X446779Y100326D01*
X446432Y100372D01*
X446131D01*
X445900Y100396D01*
X445136D01*
X445021Y100372D01*
X444836D01*
X444512Y100349D01*
X444280D01*
X444188Y100326D01*
X444072D01*
Y102779D01*
X451083D01*
Y105648D01*
X440439D01*
Y97202D01*
X440879D01*
X441365Y97318D01*
X441619Y97364D01*
X441851Y97411D01*
X442036Y97457D01*
X442198Y97480D01*
X442290Y97503D01*
X442337D01*
X442961Y97596D01*
X443262Y97619D01*
X443517Y97642D01*
X443748Y97665D01*
X444072D01*
X444558Y97642D01*
X444789Y97619D01*
X444997D01*
X445183Y97596D01*
X445322Y97573D01*
X445437Y97549D01*
X445460D01*
X445738Y97503D01*
X445993Y97434D01*
X446224Y97364D01*
X446409Y97295D01*
X446571Y97226D01*
X446687Y97156D01*
X446756Y97133D01*
X446779Y97110D01*
X447034Y96925D01*
X447219Y96716D01*
X447335Y96578D01*
X447381Y96531D01*
Y96508D01*
X447473Y96369D01*
X447520Y96207D01*
X447612Y95930D01*
Y95791D01*
X447635Y95698D01*
Y95629D01*
Y95606D01*
Y95374D01*
X447612Y95166D01*
X447589Y95004D01*
X447543Y94865D01*
X447520Y94750D01*
X447473Y94680D01*
X447450Y94634D01*
Y94611D01*
X447288Y94379D01*
X447126Y94194D01*
X446987Y94032D01*
X446941Y94009D01*
X446918Y93986D01*
X446756Y93847D01*
X446571Y93755D01*
X446178Y93593D01*
X446016Y93546D01*
X445877Y93500D01*
X445784Y93477D01*
X445761D01*
X445229Y93408D01*
X444997Y93361D01*
X444789D01*
X444627Y93338D01*
X444373D01*
X443979Y93361D01*
X443609Y93384D01*
X443239Y93454D01*
X442938Y93523D01*
X442660Y93569D01*
X442452Y93639D01*
X442313Y93662D01*
X442290Y93685D01*
X442267D01*
X441874Y93824D01*
X441503Y93986D01*
X441180Y94148D01*
X440879Y94287D01*
X440647Y94426D01*
X440462Y94518D01*
X440346Y94588D01*
X440300Y94611D01*
X439884D01*
Y90399D01*
X451523D01*
D01*
X444928D01*
X445483Y90423D01*
X446016Y90446D01*
X446478Y90515D01*
X446895Y90585D01*
X447219Y90631D01*
X447358Y90677D01*
X447473Y90700D01*
X447566Y90723D01*
X447635D01*
X447659Y90746D01*
X447682D01*
X448121Y90908D01*
X448515Y91070D01*
X448885Y91279D01*
X449209Y91464D01*
X449463Y91626D01*
X449649Y91765D01*
X449764Y91857D01*
X449810Y91880D01*
X450111Y92158D01*
X450366Y92459D01*
X450574Y92737D01*
X450759Y93014D01*
X450898Y93246D01*
X451014Y93431D01*
X451060Y93546D01*
X451083Y93593D01*
X451222Y93963D01*
X451338Y94356D01*
X451407Y94703D01*
X451477Y95050D01*
X451500Y95328D01*
X451523Y95560D01*
Y105648D01*
D02*
G37*
G36*
X561666Y105995D02*
D01*
Y94865D01*
X561643Y95351D01*
X561551Y95814D01*
X561435Y96207D01*
X561296Y96554D01*
X561134Y96832D01*
X561018Y97040D01*
X560926Y97179D01*
X560903Y97226D01*
X560579Y97596D01*
X560209Y97897D01*
X559838Y98174D01*
X559468Y98406D01*
X559121Y98591D01*
X558843Y98707D01*
X558728Y98753D01*
X558658Y98799D01*
X558612Y98822D01*
X558589D01*
Y98892D01*
X559075Y99123D01*
X559491Y99354D01*
X559838Y99586D01*
X560116Y99817D01*
X560347Y100002D01*
X560509Y100164D01*
X560602Y100257D01*
X560625Y100303D01*
X560857Y100627D01*
X561018Y100951D01*
X561134Y101275D01*
X561204Y101576D01*
X561273Y101830D01*
X561296Y102015D01*
Y102154D01*
Y102200D01*
X561273Y102524D01*
X561227Y102825D01*
X561157Y103103D01*
X561042Y103357D01*
X560787Y103843D01*
X560509Y104237D01*
X560209Y104538D01*
X559954Y104769D01*
X559838Y104838D01*
X559769Y104908D01*
X559723Y104954D01*
X559700D01*
X559399Y105139D01*
X559052Y105301D01*
X558357Y105556D01*
X557640Y105741D01*
X556946Y105857D01*
X556622Y105903D01*
X556321Y105949D01*
X556044Y105972D01*
X555812D01*
X555627Y105995D01*
X555349D01*
X554863Y105972D01*
X554401Y105949D01*
X553984Y105880D01*
X553568Y105810D01*
X553197Y105718D01*
X552827Y105625D01*
X552503Y105533D01*
X552225Y105417D01*
X551948Y105301D01*
X551740Y105209D01*
X551531Y105116D01*
X551369Y105023D01*
X551231Y104954D01*
X551138Y104885D01*
X551092Y104862D01*
X551068Y104838D01*
X550791Y104630D01*
X550536Y104399D01*
X550305Y104144D01*
X550120Y103913D01*
X549958Y103658D01*
X549819Y103427D01*
X549726Y103195D01*
X549634Y102964D01*
X549518Y102571D01*
X549472Y102386D01*
X549449Y102247D01*
X549426Y102108D01*
Y102015D01*
Y101969D01*
Y101946D01*
X549449Y101506D01*
X549518Y101090D01*
X549611Y100720D01*
X549726Y100419D01*
X549842Y100141D01*
X549935Y99956D01*
X550004Y99840D01*
X550027Y99794D01*
X550282Y99470D01*
X550583Y99169D01*
X550906Y98915D01*
X551207Y98707D01*
X551508Y98521D01*
X551740Y98406D01*
X551832Y98359D01*
X551902Y98313D01*
X551925Y98290D01*
X551948D01*
Y98244D01*
X551393Y97989D01*
X550906Y97735D01*
X550513Y97480D01*
X550212Y97249D01*
X549981Y97040D01*
X549819Y96855D01*
X549703Y96763D01*
X549680Y96716D01*
X549472Y96369D01*
X549310Y96046D01*
X549194Y95698D01*
X549125Y95398D01*
X549078Y95120D01*
X549032Y94912D01*
Y94726D01*
X549055Y94379D01*
X549078Y94079D01*
X549148Y93778D01*
X549217Y93523D01*
X549264Y93315D01*
X549333Y93153D01*
X549356Y93061D01*
X549379Y93014D01*
X549541Y92737D01*
X549703Y92459D01*
X549911Y92227D01*
X550097Y92019D01*
X550259Y91857D01*
X550397Y91742D01*
X550490Y91649D01*
X550513Y91626D01*
X550814Y91418D01*
X551161Y91233D01*
X551485Y91070D01*
X551786Y90932D01*
X552063Y90839D01*
X552295Y90770D01*
X552434Y90723D01*
X552457Y90700D01*
X552480D01*
X552943Y90585D01*
X553429Y90492D01*
X553891Y90446D01*
X554354Y90399D01*
X554748Y90376D01*
X554910Y90353D01*
X549032D01*
X561666D01*
Y105995D01*
D02*
G37*
G36*
X466494D02*
D01*
Y94865D01*
X466471Y95351D01*
X466378Y95814D01*
X466263Y96207D01*
X466124Y96554D01*
X465962Y96832D01*
X465846Y97040D01*
X465754Y97179D01*
X465730Y97226D01*
X465406Y97596D01*
X465036Y97897D01*
X464666Y98174D01*
X464296Y98406D01*
X463949Y98591D01*
X463671Y98707D01*
X463555Y98753D01*
X463486Y98799D01*
X463440Y98822D01*
X463416D01*
Y98892D01*
X463902Y99123D01*
X464319Y99354D01*
X464666Y99586D01*
X464944Y99817D01*
X465175Y100002D01*
X465337Y100164D01*
X465430Y100257D01*
X465453Y100303D01*
X465684Y100627D01*
X465846Y100951D01*
X465962Y101275D01*
X466031Y101576D01*
X466101Y101830D01*
X466124Y102015D01*
Y102154D01*
Y102200D01*
X466101Y102524D01*
X466054Y102825D01*
X465985Y103103D01*
X465869Y103357D01*
X465615Y103843D01*
X465337Y104237D01*
X465036Y104538D01*
X464782Y104769D01*
X464666Y104838D01*
X464597Y104908D01*
X464550Y104954D01*
X464527D01*
X464226Y105139D01*
X463879Y105301D01*
X463185Y105556D01*
X462468Y105741D01*
X461774Y105857D01*
X461450Y105903D01*
X461149Y105949D01*
X460871Y105972D01*
X460640D01*
X460455Y105995D01*
X460177D01*
X459691Y105972D01*
X459228Y105949D01*
X458812Y105880D01*
X458395Y105810D01*
X458025Y105718D01*
X457655Y105625D01*
X457331Y105533D01*
X457053Y105417D01*
X456776Y105301D01*
X456567Y105209D01*
X456359Y105116D01*
X456197Y105023D01*
X456058Y104954D01*
X455966Y104885D01*
X455919Y104862D01*
X455896Y104838D01*
X455619Y104630D01*
X455364Y104399D01*
X455133Y104144D01*
X454948Y103913D01*
X454785Y103658D01*
X454647Y103427D01*
X454554Y103195D01*
X454462Y102964D01*
X454346Y102571D01*
X454300Y102386D01*
X454276Y102247D01*
X454253Y102108D01*
Y102015D01*
Y101969D01*
Y101946D01*
X454276Y101506D01*
X454346Y101090D01*
X454438Y100720D01*
X454554Y100419D01*
X454670Y100141D01*
X454762Y99956D01*
X454832Y99840D01*
X454855Y99794D01*
X455109Y99470D01*
X455410Y99169D01*
X455734Y98915D01*
X456035Y98707D01*
X456336Y98521D01*
X456567Y98406D01*
X456660Y98359D01*
X456729Y98313D01*
X456752Y98290D01*
X456776D01*
Y98244D01*
X456220Y97989D01*
X455734Y97735D01*
X455341Y97480D01*
X455040Y97249D01*
X454809Y97040D01*
X454647Y96855D01*
X454531Y96763D01*
X454508Y96716D01*
X454300Y96369D01*
X454138Y96046D01*
X454022Y95698D01*
X453952Y95398D01*
X453906Y95120D01*
X453860Y94912D01*
Y94726D01*
X453883Y94379D01*
X453906Y94079D01*
X453976Y93778D01*
X454045Y93523D01*
X454091Y93315D01*
X454161Y93153D01*
X454184Y93061D01*
X454207Y93014D01*
X454369Y92737D01*
X454531Y92459D01*
X454739Y92227D01*
X454924Y92019D01*
X455086Y91857D01*
X455225Y91742D01*
X455318Y91649D01*
X455341Y91626D01*
X455642Y91418D01*
X455989Y91233D01*
X456313Y91070D01*
X456614Y90932D01*
X456891Y90839D01*
X457123Y90770D01*
X457261Y90723D01*
X457285Y90700D01*
X457308D01*
X457771Y90585D01*
X458256Y90492D01*
X458719Y90446D01*
X459182Y90399D01*
X459575Y90376D01*
X459737Y90353D01*
X453860D01*
X466494D01*
Y105995D01*
D02*
G37*
G36*
X480771Y105648D02*
X469062D01*
Y102779D01*
X476698D01*
X469710Y90700D01*
X469062D01*
X474014D01*
X480771Y102663D01*
Y94657D01*
Y105648D01*
D02*
G37*
G36*
X495719Y105949D02*
D01*
Y93569D01*
X488985D01*
X489147Y93685D01*
X489356Y93847D01*
X489795Y94171D01*
X489981Y94310D01*
X490166Y94426D01*
X490258Y94518D01*
X490304Y94541D01*
X490975Y95097D01*
X491299Y95351D01*
X491577Y95583D01*
X491809Y95791D01*
X491970Y95953D01*
X492086Y96046D01*
X492132Y96092D01*
X492641Y96601D01*
X493081Y97087D01*
X493451Y97526D01*
X493775Y97920D01*
X494007Y98267D01*
X494169Y98521D01*
X494238Y98614D01*
X494284Y98683D01*
X494308Y98707D01*
Y98730D01*
X494539Y99215D01*
X494724Y99678D01*
X494840Y100141D01*
X494932Y100558D01*
X494979Y100905D01*
X495002Y101044D01*
X495025Y101182D01*
Y101275D01*
Y101344D01*
Y101391D01*
Y101414D01*
X495002Y101807D01*
X494955Y102177D01*
X494886Y102524D01*
X494794Y102848D01*
X494678Y103149D01*
X494562Y103427D01*
X494423Y103681D01*
X494284Y103913D01*
X494146Y104098D01*
X494007Y104283D01*
X493891Y104422D01*
X493775Y104561D01*
X493683Y104653D01*
X493613Y104723D01*
X493567Y104746D01*
X493544Y104769D01*
X493243Y104977D01*
X492942Y105162D01*
X492595Y105324D01*
X492248Y105463D01*
X491531Y105671D01*
X490837Y105810D01*
X490513Y105857D01*
X490212Y105880D01*
X489934Y105903D01*
X489703Y105926D01*
X489518Y105949D01*
X489240D01*
X488731Y105926D01*
X488222Y105903D01*
X487736Y105857D01*
X487319Y105787D01*
X486949Y105718D01*
X486810Y105695D01*
X486695Y105671D01*
X486579Y105648D01*
X486510D01*
X486463Y105625D01*
X486440D01*
X485954Y105510D01*
X485538Y105394D01*
X485168Y105301D01*
X484890Y105209D01*
X484658Y105116D01*
X484496Y105047D01*
X484381Y105023D01*
X484358Y105000D01*
Y101692D01*
X484658D01*
X485330Y102085D01*
X485653Y102247D01*
X485931Y102386D01*
X486186Y102501D01*
X486394Y102594D01*
X486510Y102640D01*
X486556Y102663D01*
X486926Y102802D01*
X487296Y102895D01*
X487620Y102964D01*
X487921Y103010D01*
X488153Y103034D01*
X488338Y103057D01*
X488500D01*
X488939Y103034D01*
X489333Y102964D01*
X489657Y102872D01*
X489911Y102779D01*
X490119Y102663D01*
X490281Y102571D01*
X490374Y102501D01*
X490397Y102478D01*
X490628Y102247D01*
X490790Y101992D01*
X490906Y101738D01*
X490975Y101483D01*
X491045Y101252D01*
X491068Y101067D01*
Y100951D01*
Y100928D01*
Y100905D01*
X491045Y100581D01*
X490975Y100280D01*
X490906Y99979D01*
X490813Y99725D01*
X490698Y99493D01*
X490628Y99331D01*
X490559Y99215D01*
X490536Y99169D01*
X490328Y98845D01*
X490050Y98498D01*
X489772Y98151D01*
X489495Y97827D01*
X489240Y97549D01*
X489032Y97341D01*
X488939Y97249D01*
X488870Y97179D01*
X488847Y97156D01*
X488824Y97133D01*
X488500Y96809D01*
X488153Y96485D01*
X487782Y96184D01*
X487435Y95884D01*
X487134Y95629D01*
X486880Y95421D01*
X486787Y95351D01*
X486718Y95282D01*
X486672Y95259D01*
X486648Y95236D01*
X486139Y94842D01*
X485653Y94449D01*
X485214Y94102D01*
X484797Y93801D01*
X484450Y93546D01*
X484311Y93431D01*
X484196Y93338D01*
X484103Y93269D01*
X484034Y93222D01*
X483987Y93199D01*
X483964Y93176D01*
Y90700D01*
X495719D01*
Y105949D01*
D02*
G37*
G36*
X540586D02*
X540355D01*
X539823Y105926D01*
X539291Y105903D01*
X538805Y105857D01*
X538365Y105787D01*
X538018Y105718D01*
X537856Y105695D01*
X537740Y105671D01*
X537625Y105648D01*
X537555D01*
X537509Y105625D01*
X537486D01*
X536977Y105510D01*
X536537Y105394D01*
X536167Y105301D01*
X535843Y105209D01*
X535588Y105116D01*
X535403Y105047D01*
X535311Y105023D01*
X535264Y105000D01*
Y101761D01*
X535634D01*
X536028Y101969D01*
X536398Y102154D01*
X536745Y102316D01*
X537092Y102455D01*
X537370Y102548D01*
X537578Y102617D01*
X537717Y102663D01*
X537740Y102687D01*
X537763D01*
X538180Y102802D01*
X538550Y102872D01*
X538897Y102941D01*
X539221Y102964D01*
X539476Y102987D01*
X539661Y103010D01*
X540124D01*
X540424Y102987D01*
X540540Y102964D01*
X540633D01*
X540702Y102941D01*
X540725D01*
X541095Y102872D01*
X541257Y102848D01*
X541396Y102802D01*
X541489Y102756D01*
X541581Y102733D01*
X541628Y102710D01*
X541651D01*
X541905Y102571D01*
X542090Y102432D01*
X542206Y102316D01*
X542252Y102293D01*
Y102270D01*
X542391Y102039D01*
X542461Y101807D01*
X542484Y101715D01*
Y101622D01*
Y101576D01*
Y101553D01*
Y101344D01*
X542438Y101159D01*
X542414Y100997D01*
X542368Y100858D01*
X542322Y100766D01*
X542299Y100696D01*
X542252Y100650D01*
Y100627D01*
X542044Y100419D01*
X541836Y100280D01*
X541743Y100211D01*
X541651Y100164D01*
X541604Y100141D01*
X541581D01*
X541257Y100025D01*
X540910Y99956D01*
X540771Y99933D01*
X540656Y99910D01*
X540563D01*
X540100Y99887D01*
X539869D01*
X539638Y99864D01*
X538319D01*
Y97202D01*
X540008D01*
X540170Y97179D01*
X540424D01*
X540679Y97156D01*
X540910Y97133D01*
X541095Y97110D01*
X541281Y97087D01*
X541419Y97040D01*
X541512Y97017D01*
X541581Y96994D01*
X541604D01*
X541928Y96855D01*
X542183Y96693D01*
X542276Y96601D01*
X542345Y96554D01*
X542368Y96508D01*
X542391Y96485D01*
X542507Y96346D01*
X542576Y96184D01*
X542669Y95860D01*
X542692Y95722D01*
X542715Y95606D01*
Y95513D01*
Y95490D01*
Y95236D01*
X542669Y95027D01*
X542646Y94865D01*
X542599Y94703D01*
X542553Y94588D01*
X542530Y94518D01*
X542484Y94472D01*
Y94449D01*
X542299Y94217D01*
X542090Y94009D01*
X541952Y93893D01*
X541905Y93870D01*
X541882Y93847D01*
X541512Y93639D01*
X541142Y93523D01*
X540980Y93477D01*
X540841Y93454D01*
X540748Y93431D01*
X540725D01*
X540239Y93384D01*
X540031Y93361D01*
X539846D01*
X539684Y93338D01*
X539476D01*
X539105Y93361D01*
X538712Y93408D01*
X538342Y93454D01*
X537995Y93523D01*
X537717Y93593D01*
X537486Y93662D01*
X537393Y93685D01*
X537324D01*
X537301Y93708D01*
X537277D01*
X536838Y93870D01*
X536444Y94009D01*
X536097Y94171D01*
X535797Y94310D01*
X535542Y94449D01*
X535357Y94541D01*
X535241Y94611D01*
X535195Y94634D01*
X534825D01*
Y90399D01*
Y91325D01*
X535149Y91209D01*
X535519Y91070D01*
X535866Y90978D01*
X536213Y90885D01*
X536514Y90816D01*
X536768Y90746D01*
X536861Y90723D01*
X536930D01*
X536954Y90700D01*
X536977D01*
X537509Y90608D01*
X538041Y90538D01*
X538573Y90469D01*
X539082Y90446D01*
X539522Y90423D01*
X539707Y90399D01*
X534825D01*
X546626D01*
Y95236D01*
X546603Y95560D01*
X546580Y95860D01*
X546533Y96115D01*
X546487Y96323D01*
X546418Y96485D01*
X546371Y96624D01*
X546348Y96693D01*
X546325Y96716D01*
X546070Y97110D01*
X545955Y97295D01*
X545816Y97434D01*
X545700Y97549D01*
X545631Y97642D01*
X545561Y97688D01*
X545538Y97711D01*
X545191Y97966D01*
X544844Y98151D01*
X544705Y98221D01*
X544590Y98267D01*
X544520Y98313D01*
X544497D01*
X544080Y98452D01*
X543895Y98498D01*
X543733Y98521D01*
X543595Y98568D01*
X543502D01*
X543433Y98591D01*
X543409D01*
Y98753D01*
X543872Y98869D01*
X544266Y99054D01*
X544613Y99262D01*
X544913Y99470D01*
X545145Y99655D01*
X545307Y99817D01*
X545423Y99933D01*
X545446Y99979D01*
X545700Y100372D01*
X545908Y100743D01*
X546047Y101113D01*
X546140Y101460D01*
X546186Y101761D01*
X546232Y101992D01*
Y102085D01*
Y102154D01*
Y102177D01*
Y102200D01*
X546209Y102548D01*
X546163Y102848D01*
X546093Y103149D01*
X546024Y103381D01*
X545955Y103566D01*
X545885Y103728D01*
X545839Y103820D01*
X545816Y103843D01*
X545654Y104098D01*
X545469Y104329D01*
X545261Y104538D01*
X545052Y104700D01*
X544867Y104838D01*
X544728Y104954D01*
X544636Y105023D01*
X544590Y105047D01*
X544312Y105185D01*
X544034Y105324D01*
X543733Y105417D01*
X543456Y105510D01*
X543201Y105602D01*
X543016Y105648D01*
X542877Y105695D01*
X542831D01*
X542414Y105787D01*
X541998Y105833D01*
X541581Y105880D01*
X541188Y105926D01*
X540864D01*
X540586Y105949D01*
D02*
G37*
G36*
X503910D02*
X503679D01*
X503147Y105926D01*
X502615Y105903D01*
X502129Y105857D01*
X501689Y105787D01*
X501342Y105718D01*
X501180Y105695D01*
X501064Y105671D01*
X500949Y105648D01*
X500879D01*
X500833Y105625D01*
X500810D01*
X500301Y105510D01*
X499861Y105394D01*
X499491Y105301D01*
X499167Y105209D01*
X498912Y105116D01*
X498727Y105047D01*
X498635Y105023D01*
X498588Y105000D01*
Y101761D01*
X498959D01*
X499352Y101969D01*
X499722Y102154D01*
X500069Y102316D01*
X500416Y102455D01*
X500694Y102548D01*
X500902Y102617D01*
X501041Y102663D01*
X501064Y102687D01*
X501087D01*
X501504Y102802D01*
X501874Y102872D01*
X502221Y102941D01*
X502545Y102964D01*
X502800Y102987D01*
X502985Y103010D01*
X503448D01*
X503748Y102987D01*
X503864Y102964D01*
X503957D01*
X504026Y102941D01*
X504049D01*
X504420Y102872D01*
X504581Y102848D01*
X504720Y102802D01*
X504813Y102756D01*
X504905Y102733D01*
X504952Y102710D01*
X504975D01*
X505229Y102571D01*
X505415Y102432D01*
X505530Y102316D01*
X505577Y102293D01*
Y102270D01*
X505715Y102039D01*
X505785Y101807D01*
X505808Y101715D01*
Y101622D01*
Y101576D01*
Y101553D01*
Y101344D01*
X505762Y101159D01*
X505738Y100997D01*
X505692Y100858D01*
X505646Y100766D01*
X505623Y100696D01*
X505577Y100650D01*
Y100627D01*
X505368Y100419D01*
X505160Y100280D01*
X505067Y100211D01*
X504975Y100164D01*
X504929Y100141D01*
X504905D01*
X504581Y100025D01*
X504234Y99956D01*
X504095Y99933D01*
X503980Y99910D01*
X503887D01*
X503424Y99887D01*
X503193D01*
X502962Y99864D01*
X501643D01*
Y97202D01*
X503332D01*
X503494Y97179D01*
X503748D01*
X504003Y97156D01*
X504234Y97133D01*
X504420Y97110D01*
X504605Y97087D01*
X504743Y97040D01*
X504836Y97017D01*
X504905Y96994D01*
X504929D01*
X505252Y96855D01*
X505507Y96693D01*
X505600Y96601D01*
X505669Y96554D01*
X505692Y96508D01*
X505715Y96485D01*
X505831Y96346D01*
X505900Y96184D01*
X505993Y95860D01*
X506016Y95722D01*
X506039Y95606D01*
Y95513D01*
Y95490D01*
Y95236D01*
X505993Y95027D01*
X505970Y94865D01*
X505924Y94703D01*
X505877Y94588D01*
X505854Y94518D01*
X505808Y94472D01*
Y94449D01*
X505623Y94217D01*
X505415Y94009D01*
X505276Y93893D01*
X505229Y93870D01*
X505206Y93847D01*
X504836Y93639D01*
X504466Y93523D01*
X504304Y93477D01*
X504165Y93454D01*
X504072Y93431D01*
X504049D01*
X503563Y93384D01*
X503355Y93361D01*
X503170D01*
X503008Y93338D01*
X502800D01*
X502430Y93361D01*
X502036Y93408D01*
X501666Y93454D01*
X501319Y93523D01*
X501041Y93593D01*
X500810Y93662D01*
X500717Y93685D01*
X500648D01*
X500625Y93708D01*
X500602D01*
X500162Y93870D01*
X499768Y94009D01*
X499421Y94171D01*
X499121Y94310D01*
X498866Y94449D01*
X498681Y94541D01*
X498565Y94611D01*
X498519Y94634D01*
X498149D01*
Y90399D01*
Y91325D01*
X498473Y91209D01*
X498843Y91070D01*
X499190Y90978D01*
X499537Y90885D01*
X499838Y90816D01*
X500092Y90746D01*
X500185Y90723D01*
X500254D01*
X500277Y90700D01*
X500301D01*
X500833Y90608D01*
X501365Y90538D01*
X501897Y90469D01*
X502406Y90446D01*
X502846Y90423D01*
X503031Y90399D01*
X498149D01*
X509950D01*
Y95259D01*
Y95236D01*
X509927Y95560D01*
X509903Y95860D01*
X509857Y96115D01*
X509811Y96323D01*
X509742Y96485D01*
X509695Y96624D01*
X509672Y96693D01*
X509649Y96716D01*
X509394Y97110D01*
X509279Y97295D01*
X509140Y97434D01*
X509024Y97549D01*
X508955Y97642D01*
X508885Y97688D01*
X508862Y97711D01*
X508515Y97966D01*
X508168Y98151D01*
X508029Y98221D01*
X507914Y98267D01*
X507844Y98313D01*
X507821D01*
X507405Y98452D01*
X507219Y98498D01*
X507057Y98521D01*
X506918Y98568D01*
X506826D01*
X506757Y98591D01*
X506733D01*
Y98753D01*
X507196Y98869D01*
X507590Y99054D01*
X507937Y99262D01*
X508237Y99470D01*
X508469Y99655D01*
X508631Y99817D01*
X508747Y99933D01*
X508770Y99979D01*
X509024Y100372D01*
X509232Y100743D01*
X509371Y101113D01*
X509464Y101460D01*
X509510Y101761D01*
X509556Y101992D01*
Y102085D01*
Y102154D01*
Y102177D01*
Y102200D01*
X509533Y102548D01*
X509487Y102848D01*
X509418Y103149D01*
X509348Y103381D01*
X509279Y103566D01*
X509209Y103728D01*
X509163Y103820D01*
X509140Y103843D01*
X508978Y104098D01*
X508793Y104329D01*
X508585Y104538D01*
X508376Y104700D01*
X508191Y104838D01*
X508052Y104954D01*
X507960Y105023D01*
X507914Y105047D01*
X507636Y105185D01*
X507358Y105324D01*
X507057Y105417D01*
X506780Y105510D01*
X506525Y105602D01*
X506340Y105648D01*
X506201Y105695D01*
X506155D01*
X505738Y105787D01*
X505322Y105833D01*
X504905Y105880D01*
X504512Y105926D01*
X504188D01*
X503910Y105949D01*
D02*
G37*
G36*
X598065Y105695D02*
D01*
Y93315D01*
X594987D01*
Y105695D01*
X591655D01*
X591632Y105463D01*
X591586Y105278D01*
X591539Y105093D01*
X591470Y104954D01*
X591424Y104838D01*
X591377Y104746D01*
X591354Y104700D01*
X591331Y104677D01*
X591215Y104538D01*
X591100Y104399D01*
X590845Y104214D01*
X590753Y104121D01*
X590660Y104075D01*
X590591Y104052D01*
X590568Y104029D01*
X590220Y103890D01*
X589850Y103797D01*
X589688Y103774D01*
X589572Y103751D01*
X589480Y103728D01*
X589457D01*
X588971Y103681D01*
X588740D01*
X588531Y103658D01*
X588092D01*
Y101229D01*
X591239D01*
Y93315D01*
X588092D01*
Y90700D01*
X598065D01*
Y105695D01*
D02*
G37*
G36*
X585176Y105648D02*
D01*
Y90700D01*
X579692D01*
X585176Y105648D01*
X581219D01*
X577586Y95097D01*
X573953Y105648D01*
X569927D01*
X575388Y90700D01*
X569927D01*
D01*
X585176D01*
Y105648D01*
D02*
G37*
G36*
X516938Y94657D02*
X513189D01*
Y90700D01*
X516938D01*
Y94657D01*
D02*
G37*
G36*
X436899Y105648D02*
X425190D01*
Y102779D01*
X432826D01*
X425838Y90700D01*
X425190D01*
D01*
X436899D01*
Y105648D01*
D02*
G37*
G36*
X421766Y94657D02*
X418017D01*
Y90700D01*
X421766D01*
Y94657D01*
D02*
G37*
G36*
X415958Y105648D02*
D01*
Y90700D01*
X410427Y105648D01*
X405961D01*
X400454Y90700D01*
X404342D01*
X405383Y93708D01*
X410890D01*
X411931Y90700D01*
X411146D01*
X415958D01*
Y105648D01*
D02*
G37*
G36*
X399829D02*
X386617D01*
Y102756D01*
X391291D01*
Y90700D01*
X386617D01*
D01*
X399829D01*
Y105648D01*
D02*
G37*
G36*
X371090D02*
D01*
Y90700D01*
X365560Y105648D01*
X361094D01*
X355587Y90700D01*
X359474D01*
X360516Y93708D01*
X366023D01*
X367064Y90700D01*
X366279D01*
X371090D01*
Y105648D01*
D02*
G37*
%LPD*%
G36*
X381110Y103010D02*
X381341Y102987D01*
X381549Y102941D01*
X381711Y102895D01*
X381827Y102872D01*
X381920Y102825D01*
X381943D01*
X382405Y102640D01*
X382614Y102548D01*
X382799Y102455D01*
X382938Y102386D01*
X383053Y102316D01*
X383123Y102293D01*
X383146Y102270D01*
X383516Y102038D01*
X383678Y101923D01*
X383817Y101830D01*
X383933Y101738D01*
X384025Y101691D01*
X384072Y101645D01*
X384095Y101622D01*
X384395Y101391D01*
X384627Y101229D01*
X384696Y101159D01*
X384766Y101113D01*
X384789Y101067D01*
X385275D01*
Y95259D01*
X384858D01*
X384627Y95050D01*
X384419Y94865D01*
X384303Y94796D01*
X384233Y94726D01*
X384187Y94703D01*
X384164Y94680D01*
X383840Y94449D01*
X383562Y94241D01*
X383447Y94171D01*
X383354Y94102D01*
X383285Y94079D01*
X383262Y94055D01*
X382822Y93824D01*
X382614Y93731D01*
X382405Y93639D01*
X382243Y93593D01*
X382105Y93546D01*
X382012Y93500D01*
X381989D01*
X381480Y93384D01*
X381249Y93338D01*
X381040Y93315D01*
X380855D01*
X380716Y93292D01*
X380601D01*
X380045Y93338D01*
X379791Y93361D01*
X379582Y93407D01*
X379374Y93454D01*
X379235Y93477D01*
X379143Y93523D01*
X379096D01*
X378819Y93616D01*
X378564Y93755D01*
X378356Y93870D01*
X378148Y94009D01*
X377986Y94125D01*
X377870Y94217D01*
X377778Y94287D01*
X377754Y94310D01*
X377546Y94518D01*
X377338Y94773D01*
X377176Y95004D01*
X377037Y95259D01*
X376921Y95467D01*
X376829Y95629D01*
X376783Y95745D01*
X376759Y95791D01*
X376621Y96161D01*
X376528Y96554D01*
X376459Y96948D01*
X376412Y97318D01*
X376389Y97642D01*
X376366Y97897D01*
Y97989D01*
Y98059D01*
Y98105D01*
Y98128D01*
X376389Y98614D01*
X376412Y99053D01*
X376482Y99447D01*
X376551Y99794D01*
X376597Y100049D01*
X376667Y100257D01*
X376690Y100372D01*
X376713Y100419D01*
X376852Y100766D01*
X377014Y101067D01*
X377176Y101321D01*
X377338Y101530D01*
X377477Y101715D01*
X377592Y101830D01*
X377662Y101923D01*
X377685Y101946D01*
X377916Y102154D01*
X378148Y102316D01*
X378379Y102455D01*
X378587Y102571D01*
X378773Y102663D01*
X378911Y102733D01*
X379004Y102779D01*
X379027D01*
X379305Y102872D01*
X379582Y102941D01*
X379837Y102987D01*
X380092Y103034D01*
X380277D01*
X380439Y103057D01*
X380577D01*
X381110Y103010D01*
D02*
G37*
G36*
X385275Y90399D02*
X380369D01*
X380739Y90423D01*
X381040Y90446D01*
X381272Y90469D01*
X381480D01*
X381619Y90492D01*
X381711Y90515D01*
X381734D01*
X382220Y90608D01*
X382452Y90654D01*
X382683Y90700D01*
X382845Y90746D01*
X383007Y90793D01*
X383100Y90816D01*
X383123D01*
X383516Y90932D01*
X383701Y91001D01*
X383863Y91070D01*
X384002Y91117D01*
X384095Y91163D01*
X384164Y91186D01*
X384187D01*
X384580Y91371D01*
X384766Y91441D01*
X384928Y91510D01*
X385066Y91580D01*
X385182Y91626D01*
X385252Y91672D01*
X385275D01*
Y90399D01*
D02*
G37*
G36*
X526333Y103172D02*
X526541Y103149D01*
X526888Y103010D01*
X527189Y102825D01*
X527443Y102617D01*
X527628Y102409D01*
X527767Y102224D01*
X527837Y102085D01*
X527860Y102062D01*
Y102039D01*
X527952Y101807D01*
X528045Y101553D01*
X528114Y101252D01*
X528161Y100951D01*
X528253Y100303D01*
X528322Y99678D01*
X528346Y99377D01*
X528369Y99100D01*
Y98845D01*
X528392Y98614D01*
Y98429D01*
Y98290D01*
Y98197D01*
Y98174D01*
Y97688D01*
X528369Y97249D01*
X528346Y96832D01*
X528299Y96439D01*
X528253Y96092D01*
X528207Y95768D01*
X528161Y95490D01*
X528114Y95236D01*
X528068Y95004D01*
X528022Y94819D01*
X527975Y94657D01*
X527929Y94541D01*
X527883Y94449D01*
X527860Y94356D01*
X527837Y94333D01*
Y94310D01*
X527721Y94102D01*
X527605Y93940D01*
X527490Y93778D01*
X527351Y93639D01*
X527050Y93431D01*
X526772Y93292D01*
X526518Y93222D01*
X526309Y93176D01*
X526147Y93153D01*
X526101D01*
X525870Y93176D01*
X525685Y93199D01*
X525314Y93338D01*
X525014Y93523D01*
X524759Y93731D01*
X524574Y93940D01*
X524435Y94125D01*
X524366Y94264D01*
X524342Y94287D01*
Y94310D01*
X524250Y94541D01*
X524157Y94819D01*
X524042Y95398D01*
X523949Y96046D01*
X523880Y96670D01*
X523857Y96971D01*
X523833Y97249D01*
Y97503D01*
X523810Y97711D01*
Y97897D01*
Y98035D01*
Y98128D01*
Y98151D01*
Y98637D01*
X523833Y99100D01*
X523857Y99516D01*
X523880Y99910D01*
X523926Y100257D01*
X523972Y100581D01*
X524019Y100858D01*
X524065Y101113D01*
X524111Y101344D01*
X524157Y101530D01*
X524204Y101692D01*
X524250Y101807D01*
X524273Y101923D01*
X524296Y101992D01*
X524319Y102015D01*
Y102039D01*
X524435Y102247D01*
X524551Y102432D01*
X524690Y102571D01*
X524828Y102710D01*
X525129Y102918D01*
X525407Y103057D01*
X525685Y103126D01*
X525893Y103172D01*
X525985Y103195D01*
X526101D01*
X526333Y103172D01*
D02*
G37*
G36*
X440185Y91186D02*
X440532Y91070D01*
X440856Y90955D01*
X441180Y90862D01*
X441457Y90793D01*
X441689Y90746D01*
X441781Y90723D01*
X441851D01*
X441874Y90700D01*
X441897D01*
X442383Y90608D01*
X442892Y90538D01*
X443401Y90492D01*
X443887Y90446D01*
X444303Y90423D01*
X444488D01*
X444627Y90399D01*
X439884D01*
Y91302D01*
X440185Y91186D01*
D02*
G37*
G36*
X555719Y103427D02*
X556020Y103381D01*
X556298Y103311D01*
X556529Y103219D01*
X556715Y103126D01*
X556830Y103057D01*
X556923Y103010D01*
X556946Y102987D01*
X557154Y102802D01*
X557293Y102594D01*
X557409Y102409D01*
X557478Y102224D01*
X557524Y102039D01*
X557548Y101900D01*
Y101807D01*
Y101784D01*
Y101553D01*
X557524Y101344D01*
X557478Y101159D01*
X557455Y100997D01*
X557409Y100882D01*
X557362Y100766D01*
X557339Y100720D01*
Y100696D01*
X557247Y100534D01*
X557154Y100372D01*
X556923Y100049D01*
X556807Y99933D01*
X556715Y99817D01*
X556668Y99748D01*
X556645Y99725D01*
X556391Y99817D01*
X556159Y99887D01*
X555974Y99956D01*
X555789Y100002D01*
X555650Y100049D01*
X555558Y100095D01*
X555488Y100118D01*
X555465D01*
X555141Y100234D01*
X554910Y100349D01*
X554817Y100372D01*
X554748Y100396D01*
X554725Y100419D01*
X554701D01*
X554424Y100558D01*
X554216Y100673D01*
X554007Y100789D01*
X553868Y100882D01*
X553753Y100974D01*
X553660Y101044D01*
X553614Y101067D01*
X553591Y101090D01*
X553475Y101229D01*
X553406Y101368D01*
X553313Y101668D01*
X553290Y101807D01*
X553267Y101923D01*
Y101992D01*
Y102015D01*
X553290Y102270D01*
X553359Y102455D01*
X553429Y102594D01*
X553452Y102617D01*
Y102640D01*
X553614Y102825D01*
X553776Y102964D01*
X553891Y103057D01*
X553915Y103080D01*
X553938D01*
X554169Y103195D01*
X554378Y103288D01*
X554470Y103311D01*
X554539Y103334D01*
X554586Y103357D01*
X554609D01*
X554887Y103404D01*
X555141Y103450D01*
X555372D01*
X555719Y103427D01*
D02*
G37*
G36*
X554285Y97249D02*
X554632Y97133D01*
X554771Y97087D01*
X554910Y97040D01*
X554979Y96994D01*
X555002D01*
X555234Y96925D01*
X555419Y96855D01*
X555581Y96786D01*
X555719Y96740D01*
X555835Y96693D01*
X555905Y96670D01*
X555951Y96647D01*
X555974D01*
X556367Y96462D01*
X556668Y96300D01*
X556923Y96161D01*
X557131Y96046D01*
X557270Y95930D01*
X557386Y95860D01*
X557432Y95814D01*
X557455Y95791D01*
X557571Y95629D01*
X557663Y95467D01*
X557733Y95282D01*
X557779Y95097D01*
X557802Y94935D01*
X557825Y94796D01*
Y94703D01*
Y94680D01*
X557779Y94333D01*
X557756Y94171D01*
X557710Y94056D01*
X557663Y93963D01*
X557640Y93893D01*
X557594Y93847D01*
Y93824D01*
X557409Y93616D01*
X557224Y93454D01*
X557085Y93338D01*
X557038Y93292D01*
X557015D01*
X556761Y93176D01*
X556506Y93084D01*
X556414Y93061D01*
X556321Y93037D01*
X556275Y93014D01*
X556252D01*
X555951Y92968D01*
X555719Y92945D01*
X555627Y92922D01*
X555511D01*
X555072Y92945D01*
X554701Y93014D01*
X554378Y93107D01*
X554100Y93222D01*
X553868Y93338D01*
X553706Y93431D01*
X553614Y93500D01*
X553568Y93523D01*
X553313Y93778D01*
X553151Y94056D01*
X553012Y94333D01*
X552920Y94588D01*
X552873Y94819D01*
X552850Y95027D01*
X552827Y95143D01*
Y95189D01*
X552850Y95444D01*
X552873Y95675D01*
X552920Y95884D01*
X552989Y96069D01*
X553059Y96231D01*
X553105Y96346D01*
X553128Y96416D01*
X553151Y96439D01*
X553429Y96832D01*
X553544Y96994D01*
X553683Y97133D01*
X553776Y97226D01*
X553868Y97318D01*
X553915Y97364D01*
X553938Y97388D01*
X554285Y97249D01*
D02*
G37*
G36*
X561666Y90353D02*
X555326D01*
X555858Y90376D01*
X556367Y90399D01*
X556853Y90469D01*
X557293Y90538D01*
X557710Y90654D01*
X558080Y90746D01*
X558427Y90862D01*
X558751Y90978D01*
X559029Y91094D01*
X559260Y91209D01*
X559468Y91325D01*
X559653Y91418D01*
X559769Y91487D01*
X559885Y91556D01*
X559931Y91580D01*
X559954Y91603D01*
X560255Y91857D01*
X560509Y92112D01*
X560741Y92366D01*
X560949Y92644D01*
X561111Y92922D01*
X561250Y93199D01*
X561366Y93454D01*
X561458Y93708D01*
X561574Y94171D01*
X561620Y94356D01*
X561643Y94541D01*
X561666Y94680D01*
Y90353D01*
D02*
G37*
G36*
X460547Y103427D02*
X460848Y103381D01*
X461126Y103311D01*
X461357Y103219D01*
X461542Y103126D01*
X461658Y103057D01*
X461750Y103010D01*
X461774Y102987D01*
X461982Y102802D01*
X462121Y102594D01*
X462236Y102409D01*
X462306Y102224D01*
X462352Y102039D01*
X462375Y101900D01*
Y101807D01*
Y101784D01*
Y101553D01*
X462352Y101344D01*
X462306Y101159D01*
X462283Y100997D01*
X462236Y100882D01*
X462190Y100766D01*
X462167Y100720D01*
Y100696D01*
X462074Y100534D01*
X461982Y100372D01*
X461750Y100049D01*
X461635Y99933D01*
X461542Y99817D01*
X461496Y99748D01*
X461473Y99725D01*
X461218Y99817D01*
X460987Y99887D01*
X460802Y99956D01*
X460617Y100002D01*
X460478Y100049D01*
X460385Y100095D01*
X460316Y100118D01*
X460293D01*
X459969Y100234D01*
X459737Y100349D01*
X459645Y100372D01*
X459575Y100396D01*
X459552Y100419D01*
X459529D01*
X459251Y100558D01*
X459043Y100673D01*
X458835Y100789D01*
X458696Y100882D01*
X458580Y100974D01*
X458488Y101044D01*
X458442Y101067D01*
X458418Y101090D01*
X458303Y101229D01*
X458233Y101368D01*
X458141Y101668D01*
X458117Y101807D01*
X458094Y101923D01*
Y101992D01*
Y102015D01*
X458117Y102270D01*
X458187Y102455D01*
X458256Y102594D01*
X458279Y102617D01*
Y102640D01*
X458442Y102825D01*
X458604Y102964D01*
X458719Y103057D01*
X458742Y103080D01*
X458765D01*
X458997Y103195D01*
X459205Y103288D01*
X459298Y103311D01*
X459367Y103334D01*
X459413Y103357D01*
X459436D01*
X459714Y103404D01*
X459969Y103450D01*
X460200D01*
X460547Y103427D01*
D02*
G37*
G36*
X459113Y97249D02*
X459460Y97133D01*
X459599Y97087D01*
X459737Y97040D01*
X459807Y96994D01*
X459830D01*
X460061Y96925D01*
X460246Y96855D01*
X460408Y96786D01*
X460547Y96740D01*
X460663Y96693D01*
X460732Y96670D01*
X460779Y96647D01*
X460802D01*
X461195Y96462D01*
X461496Y96300D01*
X461750Y96161D01*
X461959Y96046D01*
X462098Y95930D01*
X462213Y95860D01*
X462259Y95814D01*
X462283Y95791D01*
X462398Y95629D01*
X462491Y95467D01*
X462560Y95282D01*
X462607Y95097D01*
X462630Y94935D01*
X462653Y94796D01*
Y94703D01*
Y94680D01*
X462607Y94333D01*
X462584Y94171D01*
X462537Y94056D01*
X462491Y93963D01*
X462468Y93893D01*
X462421Y93847D01*
Y93824D01*
X462236Y93616D01*
X462051Y93454D01*
X461912Y93338D01*
X461866Y93292D01*
X461843D01*
X461589Y93176D01*
X461334Y93084D01*
X461241Y93061D01*
X461149Y93037D01*
X461102Y93014D01*
X461079D01*
X460779Y92968D01*
X460547Y92945D01*
X460455Y92922D01*
X460339D01*
X459899Y92945D01*
X459529Y93014D01*
X459205Y93107D01*
X458927Y93222D01*
X458696Y93338D01*
X458534Y93431D01*
X458442Y93500D01*
X458395Y93523D01*
X458141Y93778D01*
X457979Y94056D01*
X457840Y94333D01*
X457747Y94588D01*
X457701Y94819D01*
X457678Y95027D01*
X457655Y95143D01*
Y95189D01*
X457678Y95444D01*
X457701Y95675D01*
X457747Y95884D01*
X457817Y96069D01*
X457886Y96231D01*
X457932Y96346D01*
X457956Y96416D01*
X457979Y96439D01*
X458256Y96832D01*
X458372Y96994D01*
X458511Y97133D01*
X458604Y97226D01*
X458696Y97318D01*
X458742Y97364D01*
X458765Y97388D01*
X459113Y97249D01*
D02*
G37*
G36*
X466494Y90353D02*
X460154D01*
X460686Y90376D01*
X461195Y90399D01*
X461681Y90469D01*
X462121Y90538D01*
X462537Y90654D01*
X462907Y90746D01*
X463255Y90862D01*
X463578Y90978D01*
X463856Y91094D01*
X464087Y91209D01*
X464296Y91325D01*
X464481Y91418D01*
X464597Y91487D01*
X464712Y91556D01*
X464759Y91580D01*
X464782Y91603D01*
X465083Y91857D01*
X465337Y92112D01*
X465568Y92366D01*
X465777Y92644D01*
X465939Y92922D01*
X466077Y93199D01*
X466193Y93454D01*
X466286Y93708D01*
X466401Y94171D01*
X466448Y94356D01*
X466471Y94541D01*
X466494Y94680D01*
Y90353D01*
D02*
G37*
G36*
X546626Y90399D02*
X540170D01*
X540748Y90423D01*
X541281Y90446D01*
X541743Y90492D01*
X542160Y90561D01*
X542484Y90631D01*
X542715Y90677D01*
X542808Y90700D01*
X542877D01*
X542900Y90723D01*
X542924D01*
X543340Y90862D01*
X543733Y91024D01*
X544057Y91186D01*
X544358Y91348D01*
X544590Y91487D01*
X544775Y91603D01*
X544867Y91672D01*
X544913Y91695D01*
X545214Y91950D01*
X545469Y92204D01*
X545700Y92482D01*
X545862Y92713D01*
X546001Y92922D01*
X546117Y93107D01*
X546163Y93199D01*
X546186Y93246D01*
X546325Y93593D01*
X546441Y93940D01*
X546510Y94287D01*
X546580Y94588D01*
X546603Y94842D01*
X546626Y95050D01*
Y90399D01*
D02*
G37*
G36*
X509950D02*
X503494D01*
X504072Y90423D01*
X504605Y90446D01*
X505067Y90492D01*
X505484Y90561D01*
X505808Y90631D01*
X506039Y90677D01*
X506132Y90700D01*
X506201D01*
X506224Y90723D01*
X506247D01*
X506664Y90862D01*
X507057Y91024D01*
X507381Y91186D01*
X507682Y91348D01*
X507914Y91487D01*
X508099Y91603D01*
X508191Y91672D01*
X508237Y91695D01*
X508538Y91950D01*
X508793Y92204D01*
X509024Y92482D01*
X509186Y92713D01*
X509325Y92922D01*
X509441Y93107D01*
X509487Y93199D01*
X509510Y93246D01*
X509649Y93593D01*
X509765Y93940D01*
X509834Y94287D01*
X509903Y94588D01*
X509927Y94842D01*
X509950Y95050D01*
Y90399D01*
D02*
G37*
G36*
X436899Y90700D02*
X430142D01*
X436899Y102663D01*
Y90700D01*
D02*
G37*
G36*
X409964Y96462D02*
X406308D01*
X408136Y101738D01*
X409964Y96462D01*
D02*
G37*
G36*
X399829Y90700D02*
X395155D01*
Y102756D01*
X399829D01*
Y90700D01*
D02*
G37*
G36*
X365097Y96462D02*
X361441D01*
X363269Y101738D01*
X365097Y96462D01*
D02*
G37*
%LPC*%
G36*
X229406Y472763D02*
Y462212D01*
X229359Y462767D01*
X229267Y463253D01*
X229151Y463693D01*
X228989Y464063D01*
X228827Y464341D01*
X228711Y464549D01*
X228619Y464688D01*
X228573Y464734D01*
X228225Y465081D01*
X227832Y465382D01*
X227416Y465636D01*
X226999Y465868D01*
X226629Y466030D01*
X226444Y466099D01*
X226305Y466169D01*
X226189Y466215D01*
X226097Y466238D01*
X226050Y466261D01*
X226027D01*
X225703Y466354D01*
X225403Y466446D01*
X225125Y466516D01*
X224870Y466585D01*
X224662Y466631D01*
X224523Y466678D01*
X224431Y466701D01*
X224384D01*
X223829Y466816D01*
X223551Y466886D01*
X223320Y466932D01*
X223112Y466978D01*
X222950Y467025D01*
X222857Y467048D01*
X222811D01*
X222371Y467140D01*
X222024Y467233D01*
X221723Y467326D01*
X221492Y467418D01*
X221307Y467487D01*
X221191Y467557D01*
X221122Y467580D01*
X221099Y467603D01*
X220960Y467742D01*
X220844Y467881D01*
X220775Y468043D01*
X220705Y468182D01*
X220682Y468321D01*
X220659Y468436D01*
Y468506D01*
Y468529D01*
X220682Y468668D01*
X220705Y468806D01*
X220798Y469015D01*
X220844Y469107D01*
X220890Y469177D01*
X220937Y469200D01*
Y469223D01*
X221168Y469431D01*
X221376Y469570D01*
X221469Y469616D01*
X221538Y469663D01*
X221584Y469686D01*
X221608D01*
X221932Y469801D01*
X222232Y469894D01*
X222348Y469917D01*
X222441D01*
X222487Y469940D01*
X222510D01*
X222857Y469986D01*
X223181Y470010D01*
X223482D01*
X223991Y469986D01*
X224477Y469940D01*
X224940Y469848D01*
X225333Y469778D01*
X225680Y469686D01*
X225819Y469639D01*
X225935Y469593D01*
X226027Y469570D01*
X226097Y469547D01*
X226143Y469524D01*
X226166D01*
X226652Y469339D01*
X227069Y469130D01*
X227439Y468922D01*
X227763Y468737D01*
X228040Y468575D01*
X228225Y468436D01*
X228341Y468344D01*
X228388Y468321D01*
X228804D01*
Y471745D01*
X228388Y471907D01*
X227971Y472046D01*
X227531Y472162D01*
X227138Y472277D01*
X226791Y472347D01*
X226652Y472393D01*
X226536Y472416D01*
X226421Y472439D01*
X226351D01*
X226305Y472463D01*
X226282D01*
X225750Y472555D01*
X225217Y472648D01*
X224732Y472694D01*
X224292Y472717D01*
X223922Y472740D01*
X223783Y472763D01*
X223389D01*
X222857Y472740D01*
X222325Y472717D01*
X221839Y472648D01*
X221376Y472555D01*
X220960Y472463D01*
X220566Y472347D01*
X220196Y472208D01*
X219872Y472092D01*
X219571Y471977D01*
X219294Y471838D01*
X219085Y471722D01*
X218900Y471629D01*
X218738Y471537D01*
X218646Y471491D01*
X218576Y471444D01*
X218553Y471421D01*
X218229Y471167D01*
X217952Y470889D01*
X217697Y470611D01*
X217489Y470334D01*
X217304Y470056D01*
X217165Y469755D01*
X217026Y469501D01*
X216933Y469223D01*
X216864Y468968D01*
X216795Y468760D01*
X216748Y468552D01*
X216725Y468367D01*
Y468228D01*
X216702Y468112D01*
Y468043D01*
Y468020D01*
X216748Y467464D01*
X216841Y466955D01*
X216957Y466493D01*
X217119Y466122D01*
X217257Y465798D01*
X217396Y465567D01*
X217442Y465498D01*
X217489Y465428D01*
X217512Y465405D01*
Y465382D01*
X217674Y465197D01*
X217859Y465012D01*
X218299Y464688D01*
X218738Y464410D01*
X219201Y464179D01*
X219594Y463993D01*
X219780Y463901D01*
X219942Y463855D01*
X220057Y463808D01*
X220150Y463762D01*
X220219Y463739D01*
X220242D01*
X220867Y463554D01*
X221168Y463461D01*
X221446Y463415D01*
X221654Y463345D01*
X221839Y463299D01*
X221955Y463276D01*
X222001D01*
X222348Y463207D01*
X222695Y463160D01*
X222996Y463091D01*
X223251Y463022D01*
X223482Y462975D01*
X223667Y462952D01*
X223760Y462906D01*
X223806D01*
X224083Y462836D01*
X224338Y462744D01*
X224523Y462651D01*
X224708Y462559D01*
X224847Y462489D01*
X224940Y462420D01*
X224986Y462374D01*
X225009Y462351D01*
X225148Y462212D01*
X225264Y462073D01*
X225333Y461934D01*
X225403Y461795D01*
X225426Y461679D01*
X225449Y461610D01*
Y461541D01*
Y461517D01*
X225426Y461332D01*
X225403Y461170D01*
X225356Y461032D01*
X225310Y460916D01*
X225240Y460823D01*
X225194Y460754D01*
X225171Y460731D01*
X225148Y460708D01*
X224917Y460522D01*
X224685Y460384D01*
X224593Y460314D01*
X224500Y460268D01*
X224454Y460245D01*
X224431D01*
X224130Y460152D01*
X223829Y460083D01*
X223690Y460060D01*
X223575D01*
X223505Y460037D01*
X223482D01*
X223274Y460014D01*
X222927D01*
X222811Y459990D01*
X222556D01*
X222047Y460014D01*
X221538Y460060D01*
X221052Y460152D01*
X220613Y460245D01*
X220242Y460337D01*
X220104Y460384D01*
X219965Y460430D01*
X219849Y460453D01*
X219780Y460476D01*
X219733Y460499D01*
X219710D01*
X219178Y460708D01*
X218669Y460939D01*
X218206Y461194D01*
X217813Y461425D01*
X217489Y461656D01*
X217234Y461818D01*
X217142Y461888D01*
X217072Y461934D01*
X217049Y461980D01*
X216609D01*
Y458371D01*
X217512Y458047D01*
X217952Y457908D01*
X218345Y457792D01*
X218692Y457700D01*
X218947Y457630D01*
X219039Y457584D01*
X219109D01*
X219155Y457561D01*
X219178D01*
X219710Y457445D01*
X220266Y457376D01*
X220821Y457306D01*
X221330Y457283D01*
X221770Y457260D01*
X221955Y457237D01*
X216609D01*
D01*
X229406D01*
Y472763D01*
D02*
G37*
G36*
X252684Y472463D02*
X248773D01*
X246367Y462165D01*
X243729Y472463D01*
X239888D01*
X237134Y462165D01*
X234820Y472463D01*
X230817D01*
X234820Y457514D01*
X230817D01*
D01*
X252684D01*
D01*
X248658D01*
X252684Y472463D01*
D02*
G37*
G36*
X261130D02*
X255252D01*
Y457514D01*
X269391D01*
X260505D01*
X261153Y457537D01*
X261754Y457561D01*
X262287Y457607D01*
X262726Y457653D01*
X262935Y457676D01*
X263097Y457700D01*
X263259D01*
X263374Y457723D01*
X263467Y457746D01*
X263536Y457769D01*
X263606D01*
X264092Y457885D01*
X264531Y458023D01*
X264948Y458185D01*
X265295Y458324D01*
X265596Y458463D01*
X265827Y458579D01*
X265966Y458671D01*
X265989Y458694D01*
X266012D01*
X266544Y459065D01*
X267007Y459458D01*
X267424Y459875D01*
X267771Y460291D01*
X268048Y460661D01*
X268164Y460800D01*
X268257Y460939D01*
X268326Y461055D01*
X268372Y461147D01*
X268419Y461194D01*
Y461217D01*
X268743Y461865D01*
X268974Y462513D01*
X269159Y463137D01*
X269275Y463716D01*
X269321Y463970D01*
X269344Y464225D01*
X269367Y464433D01*
Y464618D01*
X269391Y464757D01*
Y465058D01*
Y464965D01*
X269344Y465752D01*
X269252Y466469D01*
X269113Y467117D01*
X269020Y467395D01*
X268951Y467673D01*
X268858Y467904D01*
X268766Y468112D01*
X268696Y468297D01*
X268627Y468459D01*
X268581Y468575D01*
X268534Y468668D01*
X268488Y468714D01*
Y468737D01*
X268141Y469315D01*
X267748Y469801D01*
X267331Y470241D01*
X266938Y470611D01*
X266591Y470889D01*
X266452Y471005D01*
X266313Y471120D01*
X266197Y471190D01*
X266128Y471236D01*
X266082Y471282D01*
X266058D01*
X265711Y471491D01*
X265318Y471653D01*
X264948Y471791D01*
X264601Y471930D01*
X264277Y472023D01*
X264045Y472092D01*
X263953Y472115D01*
X263883D01*
X263837Y472138D01*
X263814D01*
X263305Y472254D01*
X262773Y472324D01*
X262240Y472393D01*
X261754Y472416D01*
X261315Y472439D01*
X261130Y472463D01*
D02*
G37*
%LPD*%
G36*
X229406Y457237D02*
X222418D01*
X222996Y457260D01*
X223551Y457306D01*
X224083Y457352D01*
X224569Y457445D01*
X225032Y457561D01*
X225449Y457676D01*
X225819Y457792D01*
X226166Y457931D01*
X226467Y458047D01*
X226745Y458162D01*
X226976Y458278D01*
X227161Y458394D01*
X227323Y458486D01*
X227416Y458532D01*
X227485Y458579D01*
X227508Y458602D01*
X227832Y458880D01*
X228133Y459157D01*
X228388Y459458D01*
X228596Y459759D01*
X228781Y460060D01*
X228943Y460360D01*
X229058Y460638D01*
X229174Y460939D01*
X229244Y461194D01*
X229313Y461425D01*
X229359Y461656D01*
X229382Y461842D01*
Y462003D01*
X229406Y462119D01*
Y457237D01*
D02*
G37*
G36*
X244400Y457514D02*
X239101D01*
X241693Y467233D01*
X244400Y457514D01*
D02*
G37*
G36*
X260875Y469639D02*
X261199Y469616D01*
X261454D01*
X261662Y469593D01*
X261801Y469570D01*
X261893Y469547D01*
X261917D01*
X262379Y469431D01*
X262588Y469362D01*
X262773Y469315D01*
X262911Y469246D01*
X263050Y469200D01*
X263120Y469177D01*
X263143Y469154D01*
X263559Y468922D01*
X263906Y468644D01*
X264184Y468367D01*
X264415Y468112D01*
X264601Y467881D01*
X264739Y467673D01*
X264809Y467557D01*
X264832Y467534D01*
Y467511D01*
X265017Y467094D01*
X265156Y466678D01*
X265249Y466261D01*
X265318Y465868D01*
X265364Y465521D01*
Y465359D01*
X265387Y465243D01*
Y465127D01*
Y465058D01*
Y465012D01*
Y464988D01*
X265364Y464456D01*
X265318Y463970D01*
X265225Y463554D01*
X265133Y463207D01*
X265040Y462906D01*
X264948Y462698D01*
X264902Y462559D01*
X264878Y462536D01*
Y462513D01*
X264670Y462165D01*
X264439Y461842D01*
X264184Y461564D01*
X263930Y461332D01*
X263698Y461170D01*
X263513Y461032D01*
X263397Y460939D01*
X263374Y460916D01*
X263351D01*
X262888Y460708D01*
X262680Y460615D01*
X262472Y460546D01*
X262310Y460499D01*
X262194Y460476D01*
X262102Y460453D01*
X262078D01*
X261824Y460407D01*
X261500Y460384D01*
X261176Y460360D01*
X260829D01*
X260528Y460337D01*
X259117D01*
Y469663D01*
X260505D01*
X260875Y469639D01*
D02*
G37*
%LPC*%
G36*
X522832Y427474D02*
X518482D01*
X515266Y422800D01*
X512142Y427474D01*
X515111D01*
X507699D01*
X512882Y420046D01*
X507584Y412526D01*
X511818D01*
X515127Y417431D01*
X518343Y412526D01*
X522832D01*
X517510Y420208D01*
X522763Y427474D01*
X522832D01*
D02*
G37*
G36*
X500086D02*
X493168D01*
Y412526D01*
X507584D01*
D01*
X502585Y418912D01*
X503094Y419190D01*
X503511Y419468D01*
X503904Y419769D01*
X504205Y420046D01*
X504436Y420278D01*
X504622Y420486D01*
X504714Y420602D01*
X504761Y420648D01*
X505015Y421064D01*
X505223Y421527D01*
X505362Y421967D01*
X505455Y422407D01*
X505501Y422777D01*
X505524Y422939D01*
X505547Y423078D01*
Y423193D01*
Y423286D01*
Y423332D01*
Y423355D01*
X505524Y423795D01*
X505478Y424165D01*
X505385Y424512D01*
X505293Y424813D01*
X505200Y425044D01*
X505108Y425206D01*
X505061Y425299D01*
X505038Y425345D01*
X504853Y425646D01*
X504622Y425900D01*
X504390Y426109D01*
X504182Y426317D01*
X503997Y426456D01*
X503835Y426572D01*
X503742Y426641D01*
X503696Y426664D01*
X503372Y426826D01*
X503071Y426965D01*
X502771Y427081D01*
X502493Y427173D01*
X502238Y427243D01*
X502053Y427289D01*
X501937Y427312D01*
X501891D01*
X501521Y427358D01*
X501128Y427405D01*
X500757Y427428D01*
X500410Y427451D01*
X500086Y427474D01*
D02*
G37*
%LPD*%
G36*
X499091Y424697D02*
X499392D01*
X499508Y424674D01*
X499600D01*
X499971Y424628D01*
X500133Y424605D01*
X500271Y424558D01*
X500364Y424535D01*
X500457Y424512D01*
X500503Y424489D01*
X500526D01*
X500711Y424397D01*
X500873Y424281D01*
X501012Y424188D01*
X501128Y424072D01*
X501220Y423980D01*
X501266Y423911D01*
X501313Y423864D01*
Y423841D01*
X501451Y423517D01*
X501521Y423216D01*
X501544Y423101D01*
Y422985D01*
Y422916D01*
Y422892D01*
Y422661D01*
X501521Y422476D01*
X501498Y422291D01*
X501451Y422152D01*
X501428Y422036D01*
X501382Y421944D01*
X501359Y421897D01*
Y421874D01*
X501197Y421620D01*
X500989Y421412D01*
X500896Y421319D01*
X500827Y421250D01*
X500780Y421226D01*
X500757Y421203D01*
X500410Y420995D01*
X500086Y420879D01*
X499948Y420833D01*
X499832Y420810D01*
X499739Y420787D01*
X499716D01*
X499485Y420764D01*
X499230Y420741D01*
X498976D01*
X498721Y420717D01*
X497032D01*
Y424720D01*
X498883D01*
X499091Y424697D01*
D02*
G37*
G36*
X502840Y412526D02*
X497032D01*
Y418010D01*
X498767D01*
X502840Y412526D01*
D02*
G37*
D10*
X108910Y200000D02*
G03*
X108910Y200000I-2000J0D01*
G01*
X122000Y487860D02*
G03*
X122000Y487860I-2000J0D01*
G01*
D11*
X375000Y343000D02*
G03*
X425000Y343000I25000J0D01*
G01*
Y407000D02*
G03*
X375000Y407000I-25000J0D01*
G01*
X185000Y118000D02*
G03*
X235000Y118000I25000J0D01*
G01*
Y182000D02*
G03*
X185000Y182000I-25000J0D01*
G01*
X369000Y288000D02*
X373000Y284000D01*
X369000Y288000D02*
Y296000D01*
X373000Y300000D01*
X381000D01*
X385000Y296000D01*
X373000Y284000D02*
X381000D01*
X385000Y288000D01*
Y296000D01*
X415000Y38000D02*
X419000Y34000D01*
X415000Y38000D02*
Y46000D01*
X419000Y50000D01*
X427000D01*
X431000Y46000D01*
X419000Y34000D02*
X427000D01*
X431000Y38000D01*
Y46000D01*
X404681Y248564D02*
X408681Y244564D01*
X404681Y248564D02*
Y256564D01*
X408681Y260564D01*
X416681D01*
X420681Y256564D01*
X408681Y244564D02*
X416681D01*
X420681Y248564D01*
Y256564D01*
X455000Y352000D02*
X459000Y348000D01*
X455000Y352000D02*
Y360000D01*
X459000Y364000D01*
X467000D01*
X471000Y360000D01*
X459000Y348000D02*
X467000D01*
X471000Y352000D01*
Y360000D01*
X107000Y182000D02*
X111000Y186000D01*
X119000D01*
X123000Y182000D01*
Y174000D02*
Y182000D01*
X119000Y170000D02*
X123000Y174000D01*
X107000D02*
Y182000D01*
Y174000D02*
X111000Y170000D01*
X119000D01*
X4040Y146660D02*
X98020D01*
Y354940D01*
X4040D02*
X98020D01*
X4040Y146660D02*
Y354940D01*
X85320Y174600D02*
X98020Y161900D01*
X85320Y174600D02*
X98020Y187300D01*
X85320Y230480D02*
X98020D01*
X85320D02*
Y271120D01*
X98020D01*
X170000Y349000D02*
X365000D01*
X170000Y246000D02*
Y349000D01*
X375000Y343000D02*
Y407000D01*
X425000Y343000D02*
Y407000D01*
X185000Y118000D02*
Y182000D01*
X235000Y118000D02*
Y182000D01*
X570000Y477000D02*
X578000D01*
X573982Y481000D02*
X574000Y473000D01*
X569000Y448000D02*
Y472000D01*
X531000D02*
X569000D01*
X531000Y448000D02*
Y472000D01*
Y448000D02*
X569000D01*
X512000Y170000D02*
X570000D01*
X512000D02*
Y330000D01*
X570000D01*
X606000Y170000D02*
X696000D01*
X606000Y330000D02*
X696000D01*
X570000Y437000D02*
X578000D01*
X573982Y441000D02*
X574000Y433000D01*
X569000Y408000D02*
Y432000D01*
X531000D02*
X569000D01*
X531000Y408000D02*
Y432000D01*
Y408000D02*
X569000D01*
X531000Y368000D02*
X569000D01*
X531000D02*
Y392000D01*
X569000D01*
Y368000D02*
Y392000D01*
X573982Y401000D02*
X574000Y393000D01*
X570000Y397000D02*
X578000D01*
X95000Y402000D02*
X103000D01*
X98982Y406000D02*
X99000Y398000D01*
X94000Y373000D02*
Y397000D01*
X56000D02*
X94000D01*
X56000Y373000D02*
Y397000D01*
Y373000D02*
X94000D01*
X106030Y478970D02*
X210170D01*
Y451030D02*
Y478970D01*
X106030Y451030D02*
X210170D01*
X106030D02*
Y478970D01*
X365000Y246000D02*
Y349000D01*
X170000Y246000D02*
X365000D01*
D12*
X435006Y49498D02*
X445003D01*
X440005D01*
Y34502D01*
X450002D02*
Y49498D01*
X457499D01*
X459998Y46998D01*
Y42000D01*
X457499Y39501D01*
X450002D01*
X474994Y49498D02*
X464997D01*
Y42000D01*
X469995Y44499D01*
X472494D01*
X474994Y42000D01*
Y37002D01*
X472494Y34502D01*
X467496D01*
X464997Y37002D01*
X425006Y260498D02*
X435003D01*
X430005D01*
Y245502D01*
X440002D02*
Y260498D01*
X447499D01*
X449998Y257998D01*
Y253000D01*
X447499Y250501D01*
X440002D01*
X462494Y245502D02*
Y260498D01*
X454997Y253000D01*
X464994D01*
X475006Y363498D02*
X485003D01*
X480005D01*
Y348502D01*
X490002D02*
Y363498D01*
X497499D01*
X499998Y360998D01*
Y356000D01*
X497499Y353501D01*
X490002D01*
X504997Y360998D02*
X507496Y363498D01*
X512494D01*
X514994Y360998D01*
Y358499D01*
X512494Y356000D01*
X509995D01*
X512494D01*
X514994Y353501D01*
Y351002D01*
X512494Y348502D01*
X507496D01*
X504997Y351002D01*
X389007Y299498D02*
X399003D01*
X394005D01*
Y284502D01*
X404002D02*
Y299498D01*
X411499D01*
X413998Y296998D01*
Y292000D01*
X411499Y289501D01*
X404002D01*
X428993Y284502D02*
X418997D01*
X428993Y294499D01*
Y296998D01*
X426494Y299498D01*
X421496D01*
X418997Y296998D01*
X127506Y181498D02*
X137502D01*
X132504D01*
Y166502D01*
X142501D02*
Y181498D01*
X149998D01*
X152498Y178998D01*
Y174000D01*
X149998Y171501D01*
X142501D01*
X157496Y166502D02*
X162494D01*
X159995D01*
Y181498D01*
X157496Y178998D01*
X585006Y412498D02*
Y397502D01*
Y405000D01*
X595003D01*
Y412498D01*
Y397502D01*
X600002Y412498D02*
Y397502D01*
X609998D01*
X622494D02*
Y412498D01*
X614997Y405000D01*
X624994D01*
X582502Y440006D02*
X597498D01*
X590000D01*
Y450003D01*
X582502D01*
X597498D01*
X582502Y455002D02*
X597498D01*
Y464998D01*
X585002Y469997D02*
X582502Y472496D01*
Y477494D01*
X585002Y479994D01*
X587501D01*
X590000Y477494D01*
Y474995D01*
Y477494D01*
X592499Y479994D01*
X594998D01*
X597498Y477494D01*
Y472496D01*
X594998Y469997D01*
X585006Y387498D02*
Y372502D01*
Y380000D01*
X595003D01*
Y387498D01*
Y372502D01*
X600002Y387498D02*
Y372502D01*
X609998D01*
X624994D02*
X614997D01*
X624994Y382499D01*
Y384998D01*
X622494Y387498D01*
X617496D01*
X614997Y384998D01*
X107506Y387498D02*
Y372502D01*
Y380000D01*
X117502D01*
Y387498D01*
Y372502D01*
X122501Y387498D02*
Y372502D01*
X132498D01*
X137496D02*
X142494D01*
X139995D01*
Y387498D01*
X137496Y384998D01*
X140506Y442498D02*
X150502Y427502D01*
Y442498D02*
X140506Y427502D01*
X165498Y439998D02*
X162998Y442498D01*
X158000D01*
X155501Y439998D01*
Y437499D01*
X158000Y435000D01*
X162998D01*
X165498Y432501D01*
Y430002D01*
X162998Y427502D01*
X158000D01*
X155501Y430002D01*
X170496Y427502D02*
X175494D01*
X172995D01*
Y442498D01*
X170496Y439998D01*
X190007Y232498D02*
Y217502D01*
X197504D01*
X200003Y220002D01*
Y222501D01*
X197504Y225000D01*
X190007D01*
X197504D01*
X200003Y227499D01*
Y229998D01*
X197504Y232498D01*
X190007D01*
X214998Y220002D02*
Y229998D01*
X212499Y232498D01*
X207501D01*
X205002Y229998D01*
Y220002D01*
X207501Y217502D01*
X212499D01*
X210000Y222501D02*
X214998Y217502D01*
X212499D02*
X214998Y220002D01*
X229993Y217502D02*
X219997D01*
X229993Y227499D01*
Y229998D01*
X227494Y232498D01*
X222496D01*
X219997Y229998D01*
X382506Y457498D02*
Y442502D01*
X390003D01*
X392502Y445002D01*
Y447501D01*
X390003Y450000D01*
X382506D01*
X390003D01*
X392502Y452499D01*
Y454998D01*
X390003Y457498D01*
X382506D01*
X407498Y445002D02*
Y454998D01*
X404998Y457498D01*
X400000D01*
X397501Y454998D01*
Y445002D01*
X400000Y442502D01*
X404998D01*
X402499Y447501D02*
X407498Y442502D01*
X404998D02*
X407498Y445002D01*
X412496Y442502D02*
X417494D01*
X414995D01*
Y457498D01*
X412496Y454998D01*
X112506Y342498D02*
X122502Y327502D01*
Y342498D02*
X112506Y327502D01*
X127501D02*
Y342498D01*
X134998D01*
X137498Y339998D01*
Y335000D01*
X134998Y332501D01*
X127501D01*
X142496Y327502D02*
X147494D01*
X144995D01*
Y342498D01*
X142496Y339998D01*
D13*
X479843Y292383D02*
Y302539D01*
X484922Y307617D01*
X490000Y302539D01*
Y292383D01*
Y300000D01*
X479843D01*
X495078Y292383D02*
X500157D01*
X497618D01*
Y307617D01*
X495078Y305078D01*
D14*
X534000Y477500D02*
D03*
Y437500D02*
D03*
Y397500D02*
D03*
X59000Y402500D02*
D03*
M02*
