G04*
G04 #@! TF.GenerationSoftware,Altium Limited,Altium Designer,22.11.1 (43)*
G04*
G04 Layer_Physical_Order=1*
G04 Layer_Color=255*
%FSLAX44Y44*%
%MOMM*%
G71*
G04*
G04 #@! TF.SameCoordinates,BE042D05-FDBB-4392-BC48-8EFB1C9D91ED*
G04*
G04*
G04 #@! TF.FilePolarity,Positive*
G04*
G01*
G75*
%ADD10C,0.4000*%
%ADD27C,1.4000*%
%ADD29C,0.5000*%
%ADD30C,0.3000*%
G04:AMPARAMS|DCode=31|XSize=2mm|YSize=1.4mm|CornerRadius=0.35mm|HoleSize=0mm|Usage=FLASHONLY|Rotation=90.000|XOffset=0mm|YOffset=0mm|HoleType=Round|Shape=RoundedRectangle|*
%AMROUNDEDRECTD31*
21,1,2.0000,0.7000,0,0,90.0*
21,1,1.3000,1.4000,0,0,90.0*
1,1,0.7000,0.3500,0.6500*
1,1,0.7000,0.3500,-0.6500*
1,1,0.7000,-0.3500,-0.6500*
1,1,0.7000,-0.3500,0.6500*
%
%ADD31ROUNDEDRECTD31*%
%ADD32C,0.8000*%
G04:AMPARAMS|DCode=33|XSize=2mm|YSize=2mm|CornerRadius=0.5mm|HoleSize=0mm|Usage=FLASHONLY|Rotation=0.000|XOffset=0mm|YOffset=0mm|HoleType=Round|Shape=RoundedRectangle|*
%AMROUNDEDRECTD33*
21,1,2.0000,1.0000,0,0,0.0*
21,1,1.0000,2.0000,0,0,0.0*
1,1,1.0000,0.5000,-0.5000*
1,1,1.0000,-0.5000,-0.5000*
1,1,1.0000,-0.5000,0.5000*
1,1,1.0000,0.5000,0.5000*
%
%ADD33ROUNDEDRECTD33*%
%ADD34C,2.0000*%
%ADD35C,1.8000*%
%ADD36C,3.3000*%
%ADD37C,2.6000*%
%ADD38C,7.0000*%
G04:AMPARAMS|DCode=39|XSize=1mm|YSize=1mm|CornerRadius=0mm|HoleSize=0mm|Usage=FLASHONLY|Rotation=90.000|XOffset=0mm|YOffset=0mm|HoleType=Round|Shape=Octagon|*
%AMOCTAGOND39*
4,1,8,0.2500,0.5000,-0.2500,0.5000,-0.5000,0.2500,-0.5000,-0.2500,-0.2500,-0.5000,0.2500,-0.5000,0.5000,-0.2500,0.5000,0.2500,0.2500,0.5000,0.0*
%
%ADD39OCTAGOND39*%

G04:AMPARAMS|DCode=40|XSize=1mm|YSize=1mm|CornerRadius=0mm|HoleSize=0mm|Usage=FLASHONLY|Rotation=0.000|XOffset=0mm|YOffset=0mm|HoleType=Round|Shape=Octagon|*
%AMOCTAGOND40*
4,1,8,0.5000,-0.2500,0.5000,0.2500,0.2500,0.5000,-0.2500,0.5000,-0.5000,0.2500,-0.5000,-0.2500,-0.2500,-0.5000,0.2500,-0.5000,0.5000,-0.2500,0.0*
%
%ADD40OCTAGOND40*%

%ADD41O,2.0000X1.6000*%
G04:AMPARAMS|DCode=42|XSize=1.6mm|YSize=2mm|CornerRadius=0.4mm|HoleSize=0mm|Usage=FLASHONLY|Rotation=90.000|XOffset=0mm|YOffset=0mm|HoleType=Round|Shape=RoundedRectangle|*
%AMROUNDEDRECTD42*
21,1,1.6000,1.2000,0,0,90.0*
21,1,0.8000,2.0000,0,0,90.0*
1,1,0.8000,0.6000,0.4000*
1,1,0.8000,0.6000,-0.4000*
1,1,0.8000,-0.6000,-0.4000*
1,1,0.8000,-0.6000,0.4000*
%
%ADD42ROUNDEDRECTD42*%
%ADD43C,1.2000*%
G04:AMPARAMS|DCode=44|XSize=7mm|YSize=7mm|CornerRadius=1.75mm|HoleSize=0mm|Usage=FLASHONLY|Rotation=0.000|XOffset=0mm|YOffset=0mm|HoleType=Round|Shape=RoundedRectangle|*
%AMROUNDEDRECTD44*
21,1,7.0000,3.5000,0,0,0.0*
21,1,3.5000,7.0000,0,0,0.0*
1,1,3.5000,1.7500,-1.7500*
1,1,3.5000,-1.7500,-1.7500*
1,1,3.5000,-1.7500,1.7500*
1,1,3.5000,1.7500,1.7500*
%
%ADD44ROUNDEDRECTD44*%
%ADD45C,0.8000*%
G36*
X604523Y478236D02*
X603568Y476807D01*
X600466Y470518D01*
X598212Y463876D01*
X596844Y456998D01*
X596385Y450000D01*
X596844Y443002D01*
X598212Y436124D01*
X600466Y429482D01*
X603568Y423193D01*
X607464Y417361D01*
X612089Y412089D01*
X617361Y407464D01*
X623193Y403568D01*
X629482Y400466D01*
X636124Y398212D01*
X643002Y396844D01*
X650000Y396385D01*
X656998Y396844D01*
X663876Y398212D01*
X670518Y400466D01*
X676807Y403568D01*
X678236Y404523D01*
X680000Y403580D01*
Y350000D01*
X463793Y350000D01*
X462000Y352000D01*
Y357500D01*
X458500Y361000D01*
X451500D01*
X448000Y357500D01*
Y350500D01*
X451500Y347000D01*
X454387D01*
X455152Y345152D01*
X350000Y240000D01*
Y170000D01*
X297000Y117000D01*
X296807D01*
X294601Y116087D01*
X292913Y114399D01*
X292000Y112193D01*
Y112000D01*
X290471Y110471D01*
X289193Y111000D01*
X286807D01*
X284601Y110086D01*
X282913Y108399D01*
X282000Y106194D01*
Y105000D01*
X245000D01*
Y20000D01*
X96420D01*
X95477Y21764D01*
X96432Y23193D01*
X99534Y29483D01*
X101788Y36123D01*
X103156Y43002D01*
X103615Y50000D01*
X103156Y56998D01*
X101788Y63877D01*
X99534Y70518D01*
X96432Y76807D01*
X92535Y82639D01*
X87911Y87911D01*
X82639Y92535D01*
X76807Y96432D01*
X70518Y99534D01*
X63877Y101788D01*
X56998Y103156D01*
X50000Y103615D01*
X43002Y103156D01*
X36123Y101788D01*
X29483Y99534D01*
X23193Y96432D01*
X21764Y95477D01*
X20000Y96420D01*
Y403580D01*
X21764Y404523D01*
X23193Y403568D01*
X29483Y400466D01*
X36123Y398212D01*
X43002Y396844D01*
X50000Y396385D01*
X56998Y396844D01*
X63877Y398212D01*
X70518Y400466D01*
X75173Y402762D01*
X75297Y402688D01*
X76597Y401235D01*
X76167Y400197D01*
X75944Y398500D01*
Y394500D01*
X83500D01*
Y405056D01*
X82634D01*
X82479Y405223D01*
X82117Y407116D01*
X82639Y407464D01*
X87911Y412089D01*
X92535Y417361D01*
X96432Y423193D01*
X99534Y429482D01*
X101788Y436124D01*
X103156Y443002D01*
X103615Y450000D01*
X103156Y456998D01*
X101788Y463876D01*
X99534Y470518D01*
X96432Y476807D01*
X95477Y478236D01*
X96420Y480000D01*
X603580D01*
X604523Y478236D01*
D02*
G37*
G36*
X680000Y319877D02*
X678000Y319614D01*
X677750Y320546D01*
X676302Y323054D01*
X674254Y325102D01*
X671746Y326550D01*
X668948Y327300D01*
X666052D01*
X663254Y326550D01*
X660746Y325102D01*
X658698Y323054D01*
X657250Y320546D01*
X656500Y317748D01*
Y314852D01*
X657250Y312054D01*
X658698Y309546D01*
X660746Y307498D01*
X663254Y306050D01*
X666052Y305300D01*
X668948D01*
X671746Y306050D01*
X674254Y307498D01*
X676302Y309546D01*
X677750Y312054D01*
X678000Y312986D01*
X680000Y312723D01*
Y294477D01*
X678000Y294214D01*
X677750Y295146D01*
X676302Y297654D01*
X674254Y299702D01*
X671746Y301150D01*
X668948Y301900D01*
X666052D01*
X663254Y301150D01*
X660746Y299702D01*
X658698Y297654D01*
X657250Y295146D01*
X656500Y292348D01*
Y291987D01*
X656339Y290954D01*
X656065Y289653D01*
X655732Y288421D01*
X655342Y287259D01*
X654894Y286164D01*
X654390Y285134D01*
X653830Y284169D01*
X653214Y283265D01*
X652581Y282469D01*
X645603Y275492D01*
X644178Y274100D01*
X644179Y274100D01*
X641295Y270587D01*
X639153Y266579D01*
X637834Y262230D01*
X637388Y257707D01*
X637412D01*
X637412Y257707D01*
Y200762D01*
X635412Y200364D01*
X634894Y201613D01*
X632870Y204643D01*
X630293Y207220D01*
X627263Y209244D01*
X623896Y210639D01*
X620322Y211350D01*
X616678D01*
X613104Y210639D01*
X609737Y209244D01*
X606707Y207220D01*
X604130Y204643D01*
X602105Y201613D01*
X600711Y198246D01*
X600000Y194672D01*
Y192194D01*
X598000Y191125D01*
X597947Y191160D01*
X594126Y192743D01*
X590068Y193550D01*
X585932D01*
X581875Y192743D01*
X578053Y191160D01*
X574613Y188862D01*
X571688Y185937D01*
X569390Y182497D01*
X567807Y178675D01*
X567000Y174618D01*
Y170482D01*
X567807Y166425D01*
X569390Y162603D01*
X571688Y159163D01*
X574613Y156238D01*
X578053Y153940D01*
X581875Y152357D01*
X585932Y151550D01*
X590068D01*
X594126Y152357D01*
X597947Y153940D01*
X601387Y156238D01*
X604312Y159163D01*
X606610Y162603D01*
X608193Y166425D01*
X609000Y170482D01*
Y174618D01*
X610758Y176033D01*
X613104Y175061D01*
X616678Y174350D01*
X620322D01*
X623896Y175061D01*
X627263Y176455D01*
X630293Y178480D01*
X632870Y181057D01*
X634894Y184087D01*
X635412Y185336D01*
X637412Y184938D01*
Y144521D01*
X637453Y144314D01*
X637072Y140449D01*
X635885Y136533D01*
X633956Y132924D01*
X631492Y129922D01*
X631316Y129805D01*
X601511Y100000D01*
X600000D01*
Y98489D01*
X543195Y41684D01*
X543078Y41508D01*
X540076Y39044D01*
X536467Y37115D01*
X532551Y35928D01*
X528686Y35547D01*
X528479Y35588D01*
X431201D01*
X430436Y37436D01*
X431000Y38000D01*
Y39500D01*
X423000D01*
X415000D01*
Y38000D01*
X415564Y37436D01*
X414799Y35588D01*
X320000D01*
X319848Y35558D01*
X316594Y35878D01*
X313319Y36872D01*
X310301Y38485D01*
X307656Y40656D01*
X305485Y43301D01*
X303872Y46319D01*
X302878Y49594D01*
X302558Y52848D01*
X302588Y53000D01*
Y105586D01*
X302595Y105755D01*
X302689Y106683D01*
X302742Y106996D01*
X302798Y107240D01*
X302831Y107346D01*
X303086Y107601D01*
X304000Y109806D01*
Y112193D01*
X303086Y114399D01*
X302243Y115243D01*
X355000Y168000D01*
Y238000D01*
X462000Y345000D01*
X573023D01*
X573852Y343000D01*
X571688Y340837D01*
X569390Y337397D01*
X567807Y333576D01*
X567000Y329518D01*
Y325382D01*
X567807Y321325D01*
X569390Y317503D01*
X571688Y314063D01*
X574613Y311138D01*
X578053Y308840D01*
X581875Y307257D01*
X585932Y306450D01*
X590068D01*
X594126Y307257D01*
X597947Y308840D01*
X598000Y308875D01*
X600000Y307806D01*
Y305328D01*
X600711Y301754D01*
X602105Y298387D01*
X604130Y295357D01*
X606707Y292780D01*
X609737Y290756D01*
X613104Y289361D01*
X616678Y288650D01*
X620322D01*
X623896Y289361D01*
X627263Y290756D01*
X630293Y292780D01*
X632870Y295357D01*
X634894Y298387D01*
X636289Y301754D01*
X637000Y305328D01*
Y308972D01*
X636289Y312546D01*
X634894Y315913D01*
X632870Y318943D01*
X630293Y321520D01*
X627263Y323545D01*
X623896Y324939D01*
X620322Y325650D01*
X616678D01*
X613104Y324939D01*
X610758Y323967D01*
X609000Y325382D01*
Y329518D01*
X608193Y333576D01*
X606610Y337397D01*
X604312Y340837D01*
X602149Y343000D01*
X602977Y345000D01*
X680000D01*
Y319877D01*
D02*
G37*
G36*
X668661Y281975D02*
X667187Y281746D01*
X665777Y281449D01*
X664430Y281085D01*
X663147Y280654D01*
X661928Y280155D01*
X660773Y279590D01*
X659682Y278957D01*
X658654Y278257D01*
X657690Y277489D01*
X656790Y276655D01*
X653255Y280190D01*
X654089Y281090D01*
X654857Y282054D01*
X655557Y283082D01*
X656190Y284173D01*
X656755Y285329D01*
X657254Y286547D01*
X657685Y287830D01*
X658049Y289177D01*
X658346Y290587D01*
X658575Y292061D01*
X668661Y281975D01*
D02*
G37*
G36*
X666016Y200223D02*
X665353Y200293D01*
X664686Y200282D01*
X664015Y200189D01*
X663340Y200016D01*
X662661Y199762D01*
X661979Y199426D01*
X661292Y199009D01*
X660601Y198511D01*
X659906Y197932D01*
X659207Y197272D01*
X655672Y200807D01*
X656332Y201506D01*
X656911Y202201D01*
X657409Y202892D01*
X657826Y203579D01*
X658161Y204261D01*
X658416Y204940D01*
X658589Y205615D01*
X658682Y206286D01*
X658693Y206953D01*
X658623Y207616D01*
X666016Y200223D01*
D02*
G37*
G36*
X301042Y108357D02*
X300928Y108094D01*
X300828Y107773D01*
X300741Y107393D01*
X300667Y106954D01*
X300560Y105900D01*
X300507Y104611D01*
X300500Y103877D01*
X295500D01*
X295493Y104611D01*
X295333Y106954D01*
X295259Y107393D01*
X295172Y107773D01*
X295071Y108094D01*
X294958Y108357D01*
X294830Y108560D01*
X301170D01*
X301042Y108357D01*
D02*
G37*
G36*
X291042Y102357D02*
X290929Y102094D01*
X290828Y101773D01*
X290741Y101393D01*
X290667Y100954D01*
X290560Y99900D01*
X290507Y98611D01*
X290500Y97878D01*
X285500D01*
X285493Y98611D01*
X285333Y100954D01*
X285259Y101393D01*
X285172Y101773D01*
X285072Y102094D01*
X284958Y102357D01*
X284830Y102560D01*
X291170D01*
X291042Y102357D01*
D02*
G37*
G36*
X283412Y99157D02*
Y48993D01*
X283408D01*
X283777Y44301D01*
X284876Y39725D01*
X286677Y35376D01*
X289136Y31363D01*
X292192Y27785D01*
X292195Y27788D01*
X295079Y24904D01*
X295123Y24860D01*
X295123Y24860D01*
X295953Y24030D01*
X296524Y23555D01*
X296524Y23555D01*
X299061Y22000D01*
X298497Y20000D01*
X250000D01*
Y100000D01*
X283354D01*
X283412Y99157D01*
D02*
G37*
%LPC*%
G36*
X574500Y473108D02*
X567500D01*
X565354Y472681D01*
X563933Y471731D01*
X563246Y471748D01*
X562276Y471938D01*
X561612Y472188D01*
X561442Y472442D01*
X560780Y472884D01*
X560000Y473039D01*
X550000D01*
X549220Y472884D01*
X548558Y472442D01*
X548388Y472188D01*
X547724Y471938D01*
X546754Y471748D01*
X546067Y471731D01*
X544646Y472681D01*
X542500Y473108D01*
X535500D01*
X533354Y472681D01*
X531535Y471465D01*
X530319Y469646D01*
X529892Y467500D01*
Y454749D01*
X529563Y454277D01*
X528287Y452775D01*
X525584Y450072D01*
X525460Y449958D01*
X524737Y449369D01*
X524478Y449184D01*
X524266Y449051D01*
X524168Y449000D01*
X523806D01*
X521601Y448087D01*
X519913Y446399D01*
X519000Y444193D01*
Y441806D01*
X519913Y439601D01*
X521601Y437913D01*
X523806Y437000D01*
X526194D01*
X528399Y437913D01*
X530087Y439601D01*
X531000Y441806D01*
Y442168D01*
X531051Y442266D01*
X531184Y442478D01*
X531350Y442710D01*
X532376Y443887D01*
X535682Y447193D01*
X536218Y447668D01*
X536983Y448278D01*
X537655Y448743D01*
X537915Y448892D01*
X542500D01*
X544646Y449319D01*
X546067Y450269D01*
X546754Y450252D01*
X547724Y450062D01*
X548388Y449813D01*
X548558Y449558D01*
X549220Y449116D01*
X550000Y448961D01*
X560000D01*
X560780Y449116D01*
X561442Y449558D01*
X561612Y449813D01*
X562276Y450062D01*
X563246Y450252D01*
X563933Y450269D01*
X565354Y449319D01*
X567500Y448892D01*
X574500D01*
X576646Y449319D01*
X578465Y450535D01*
X579681Y452354D01*
X580108Y454500D01*
Y454889D01*
X580869Y455577D01*
X581996Y456258D01*
X582240Y456202D01*
X582346Y456169D01*
X582601Y455913D01*
X584807Y455000D01*
X587193D01*
X589399Y455913D01*
X591087Y457601D01*
X592000Y459807D01*
Y462193D01*
X591087Y464399D01*
X589399Y466087D01*
X587193Y467000D01*
X584807D01*
X582601Y466087D01*
X582346Y465831D01*
X582240Y465798D01*
X581996Y465742D01*
X581047Y466309D01*
X580108Y467170D01*
Y467500D01*
X579681Y469646D01*
X578465Y471465D01*
X576646Y472681D01*
X574500Y473108D01*
D02*
G37*
G36*
X193700Y477789D02*
X191182Y477114D01*
X188218Y475403D01*
X185797Y472982D01*
X184086Y470018D01*
X184018Y469763D01*
X182240Y469649D01*
X181934Y469715D01*
X180402Y472368D01*
X178168Y474602D01*
X175432Y476182D01*
X172380Y477000D01*
X169220D01*
X166168Y476182D01*
X163432Y474602D01*
X161198Y472368D01*
X159618Y469632D01*
X159135Y467831D01*
X157065D01*
X156582Y469632D01*
X155002Y472368D01*
X152768Y474602D01*
X150032Y476182D01*
X146980Y477000D01*
X143820D01*
X140768Y476182D01*
X138032Y474602D01*
X135798Y472368D01*
X134218Y469632D01*
X134060Y469044D01*
X132060Y469308D01*
Y470000D01*
X131820Y471827D01*
X131115Y473530D01*
X129993Y474992D01*
X128530Y476115D01*
X126827Y476820D01*
X125000Y477060D01*
X115000D01*
X113173Y476820D01*
X111470Y476115D01*
X110007Y474992D01*
X108885Y473530D01*
X108180Y471827D01*
X107940Y470000D01*
Y460000D01*
X108180Y458173D01*
X108885Y456470D01*
X110007Y455008D01*
X111470Y453885D01*
X113173Y453180D01*
X115000Y452940D01*
X125000D01*
X126827Y453180D01*
X128530Y453885D01*
X129993Y455008D01*
X131115Y456470D01*
X131820Y458173D01*
X132060Y460000D01*
Y460692D01*
X134060Y460956D01*
X134218Y460368D01*
X135798Y457632D01*
X138032Y455398D01*
X140768Y453818D01*
X143820Y453000D01*
X146980D01*
X150032Y453818D01*
X152768Y455398D01*
X155002Y457632D01*
X156582Y460368D01*
X157065Y462169D01*
X159135D01*
X159618Y460368D01*
X161198Y457632D01*
X163432Y455398D01*
X166168Y453818D01*
X169220Y453000D01*
X172380D01*
X175432Y453818D01*
X178168Y455398D01*
X180402Y457632D01*
X181934Y460285D01*
X182240Y460351D01*
X184018Y460237D01*
X184086Y459982D01*
X185797Y457018D01*
X188218Y454597D01*
X191182Y452886D01*
X193700Y452211D01*
Y465000D01*
Y477789D01*
D02*
G37*
G36*
X198700D02*
Y467500D01*
X208989D01*
X208314Y470018D01*
X206603Y472982D01*
X204182Y475403D01*
X201218Y477114D01*
X198700Y477789D01*
D02*
G37*
G36*
X208989Y462500D02*
X198700D01*
Y452211D01*
X201218Y452886D01*
X204182Y454597D01*
X206603Y457018D01*
X208314Y459982D01*
X208989Y462500D01*
D02*
G37*
G36*
X544193Y444000D02*
X541806D01*
X539601Y443087D01*
X537914Y441399D01*
X537000Y439193D01*
Y437756D01*
X536508Y436649D01*
X535801Y435325D01*
X535543Y434475D01*
X535494Y434364D01*
X535470Y434257D01*
X535416Y434128D01*
X535145Y433581D01*
X534862Y433101D01*
X534568Y432686D01*
X534267Y432333D01*
X533958Y432035D01*
X533642Y431787D01*
X533526Y431715D01*
X533354Y431681D01*
X532937Y431402D01*
X532868Y431369D01*
X532711Y431251D01*
X531535Y430465D01*
X530319Y428646D01*
X529892Y426500D01*
Y413500D01*
X530319Y411354D01*
X531535Y409535D01*
X533354Y408319D01*
X535500Y407892D01*
X542500D01*
X544646Y408319D01*
X546067Y409269D01*
X546754Y409252D01*
X547724Y409062D01*
X548388Y408812D01*
X548558Y408558D01*
X549220Y408116D01*
X550000Y407961D01*
X560000D01*
X560780Y408116D01*
X561442Y408558D01*
X561612Y408812D01*
X562276Y409062D01*
X563246Y409252D01*
X563933Y409269D01*
X565354Y408319D01*
X567500Y407892D01*
X574500D01*
X576646Y408319D01*
X578465Y409535D01*
X579681Y411354D01*
X580108Y413500D01*
Y415024D01*
X580146Y415047D01*
X580430Y415163D01*
X580865Y415280D01*
X581445Y415375D01*
X581860Y415412D01*
X584586D01*
X584755Y415405D01*
X585682Y415311D01*
X585996Y415258D01*
X586240Y415202D01*
X586346Y415169D01*
X586601Y414913D01*
X588806Y414000D01*
X591194D01*
X593399Y414913D01*
X595087Y416601D01*
X596000Y418806D01*
Y421194D01*
X595087Y423399D01*
X593399Y425087D01*
X591194Y426000D01*
X588806D01*
X586601Y425087D01*
X586346Y424831D01*
X586240Y424798D01*
X585996Y424742D01*
X585715Y424695D01*
X584157Y424588D01*
X581860D01*
X581445Y424625D01*
X580865Y424721D01*
X580430Y424837D01*
X580146Y424953D01*
X580108Y424976D01*
Y426500D01*
X579681Y428646D01*
X578465Y430465D01*
X576646Y431681D01*
X574500Y432108D01*
X567500D01*
X565354Y431681D01*
X563933Y430731D01*
X563246Y430748D01*
X562276Y430938D01*
X561612Y431188D01*
X561442Y431442D01*
X560780Y431884D01*
X560000Y432039D01*
X550000D01*
X549220Y431884D01*
X548558Y431442D01*
X547376Y431959D01*
X546929Y433444D01*
X548087Y434601D01*
X549000Y436806D01*
Y439193D01*
X548087Y441399D01*
X546399Y443087D01*
X544193Y444000D01*
D02*
G37*
G36*
X401053Y407400D02*
X398947D01*
X396912Y406855D01*
X395088Y405802D01*
X393598Y404312D01*
X392545Y402488D01*
X392000Y400453D01*
Y398347D01*
X392545Y396312D01*
X393598Y394488D01*
X395088Y392998D01*
X396912Y391945D01*
X398947Y391400D01*
X401053D01*
X403088Y391945D01*
X404912Y392998D01*
X406402Y394488D01*
X407455Y396312D01*
X408000Y398347D01*
Y400453D01*
X407455Y402488D01*
X406402Y404312D01*
X404912Y405802D01*
X403088Y406855D01*
X401053Y407400D01*
D02*
G37*
G36*
X166194Y412000D02*
X163806D01*
X161601Y411087D01*
X159913Y409399D01*
X159000Y407193D01*
Y404807D01*
X159913Y402601D01*
X160169Y402346D01*
X160202Y402240D01*
X160258Y401996D01*
X160305Y401715D01*
X160412Y400157D01*
Y392914D01*
X160405Y392745D01*
X160310Y391818D01*
X160258Y391504D01*
X160202Y391260D01*
X160169Y391154D01*
X159913Y390899D01*
X159000Y388694D01*
Y386306D01*
X159913Y384101D01*
X161601Y382413D01*
X163806Y381500D01*
X166194D01*
X168399Y382413D01*
X170087Y384101D01*
X171000Y386306D01*
Y388694D01*
X170087Y390899D01*
X169831Y391154D01*
X169798Y391260D01*
X169742Y391504D01*
X169695Y391785D01*
X169588Y393343D01*
Y400586D01*
X169595Y400755D01*
X169690Y401683D01*
X169742Y401996D01*
X169798Y402240D01*
X169831Y402346D01*
X170087Y402601D01*
X171000Y404807D01*
Y407193D01*
X170087Y409399D01*
X168399Y411087D01*
X166194Y412000D01*
D02*
G37*
G36*
X525500Y392056D02*
X524500D01*
X522803Y391833D01*
X521222Y391178D01*
X519864Y390136D01*
X518822Y388778D01*
X518167Y387197D01*
X517944Y385500D01*
Y381500D01*
X525500D01*
Y392056D01*
D02*
G37*
G36*
X83500Y389500D02*
X75944D01*
Y385500D01*
X76167Y383803D01*
X76822Y382222D01*
X77864Y380864D01*
X79222Y379822D01*
X80803Y379167D01*
X82500Y378944D01*
X83500D01*
Y389500D01*
D02*
G37*
G36*
X89500Y405056D02*
X88500D01*
Y392000D01*
Y378944D01*
X89500D01*
X91197Y379167D01*
X92778Y379822D01*
X93413Y380310D01*
X95558Y380558D01*
X96220Y380116D01*
X97000Y379961D01*
X105644D01*
X106472Y377961D01*
X105584Y377072D01*
X105460Y376958D01*
X104737Y376369D01*
X104478Y376184D01*
X104265Y376051D01*
X104168Y376000D01*
X103806D01*
X101601Y375087D01*
X99913Y373399D01*
X99000Y371194D01*
Y368806D01*
X99913Y366601D01*
X101601Y364913D01*
X103806Y364000D01*
X106194D01*
X108399Y364913D01*
X110086Y366601D01*
X111000Y368806D01*
Y369168D01*
X111051Y369266D01*
X111184Y369478D01*
X111350Y369710D01*
X112376Y370887D01*
X114880Y373392D01*
X114908Y373364D01*
X118185Y377358D01*
X118417Y377792D01*
X118688Y378141D01*
X119223Y378753D01*
X119713Y379241D01*
X120147Y379604D01*
X120511Y379848D01*
X120600Y379892D01*
X121500D01*
X123646Y380319D01*
X125465Y381535D01*
X126681Y383354D01*
X127108Y385500D01*
Y398500D01*
X126681Y400646D01*
X125465Y402465D01*
X123646Y403681D01*
X121500Y404108D01*
X114500D01*
X112354Y403681D01*
X110933Y402731D01*
X110246Y402748D01*
X109276Y402938D01*
X108612Y403187D01*
X108442Y403442D01*
X107780Y403884D01*
X107000Y404039D01*
X97000D01*
X96220Y403884D01*
X95558Y403442D01*
X93413Y403690D01*
X92778Y404178D01*
X91197Y404833D01*
X89500Y405056D01*
D02*
G37*
G36*
X531500Y392056D02*
X530500D01*
Y379000D01*
Y365944D01*
X531500D01*
X533197Y366167D01*
X534778Y366822D01*
X535413Y367310D01*
X537558Y367558D01*
X538220Y367116D01*
X539000Y366961D01*
X549000D01*
X549780Y367116D01*
X550442Y367558D01*
X550612Y367812D01*
X551276Y368062D01*
X552246Y368252D01*
X552933Y368269D01*
X554354Y367319D01*
X556500Y366892D01*
X563500D01*
X565646Y367319D01*
X567465Y368535D01*
X568681Y370354D01*
X569108Y372500D01*
Y372889D01*
X569869Y373577D01*
X570996Y374258D01*
X571240Y374202D01*
X571346Y374169D01*
X571601Y373913D01*
X573806Y373000D01*
X576194D01*
X578399Y373913D01*
X580087Y375601D01*
X581000Y377807D01*
Y380193D01*
X580087Y382399D01*
X578399Y384087D01*
X576194Y385000D01*
X573806D01*
X571601Y384087D01*
X571346Y383831D01*
X571240Y383798D01*
X570996Y383742D01*
X570047Y384309D01*
X569108Y385170D01*
Y385500D01*
X568681Y387646D01*
X567465Y389465D01*
X565646Y390681D01*
X563500Y391108D01*
X556500D01*
X554354Y390681D01*
X552933Y389731D01*
X552246Y389748D01*
X551276Y389938D01*
X550612Y390187D01*
X550442Y390442D01*
X549780Y390884D01*
X549000Y391039D01*
X539000D01*
X538220Y390884D01*
X537558Y390442D01*
X535413Y390690D01*
X534778Y391178D01*
X533197Y391833D01*
X531500Y392056D01*
D02*
G37*
G36*
X525500Y376500D02*
X517944D01*
Y372500D01*
X518167Y370803D01*
X518822Y369222D01*
X519864Y367864D01*
X521222Y366822D01*
X522803Y366167D01*
X524500Y365944D01*
X525500D01*
Y376500D01*
D02*
G37*
G36*
X46500Y374000D02*
X39500D01*
X36000Y370500D01*
Y363500D01*
X39500Y360000D01*
X46500D01*
X50000Y363500D01*
Y370500D01*
X46500Y374000D01*
D02*
G37*
G36*
X152193Y383000D02*
X149806D01*
X147601Y382087D01*
X145913Y380399D01*
X145000Y378194D01*
Y375807D01*
X145913Y373601D01*
X147601Y371913D01*
X149806Y371000D01*
X150168D01*
X150266Y370949D01*
X150478Y370816D01*
X150710Y370650D01*
X151887Y369624D01*
X154533Y366979D01*
X155947Y365564D01*
X157150Y364063D01*
X157431Y363697D01*
X157507Y363543D01*
X157671Y363147D01*
X157673Y363143D01*
X157754Y362856D01*
X157804Y362580D01*
X157824Y362309D01*
X157817Y362037D01*
X157781Y361759D01*
X157713Y361467D01*
X157583Y361074D01*
X157568Y360952D01*
X157254Y360195D01*
Y357808D01*
X158167Y355602D01*
X159855Y353915D01*
X162060Y353001D01*
X164447D01*
X166652Y353915D01*
X168340Y355602D01*
X169254Y357808D01*
Y360195D01*
X168340Y362400D01*
X167303Y363437D01*
X167082Y363941D01*
X167050Y364047D01*
X166919Y364706D01*
X166793Y364894D01*
X166437Y366065D01*
X164732Y369256D01*
X162436Y372053D01*
X162436Y372053D01*
X161021Y373467D01*
X158072Y376416D01*
X157958Y376540D01*
X157369Y377263D01*
X157184Y377522D01*
X157051Y377734D01*
X157000Y377832D01*
Y378194D01*
X156087Y380399D01*
X154399Y382087D01*
X152193Y383000D01*
D02*
G37*
G36*
X316194Y396000D02*
X313806D01*
X311601Y395087D01*
X309914Y393399D01*
X309000Y391194D01*
Y388806D01*
X309914Y386601D01*
X310169Y386346D01*
X310202Y386240D01*
X310258Y385996D01*
X310305Y385715D01*
X310412Y384157D01*
Y361414D01*
X310405Y361245D01*
X310310Y360317D01*
X310258Y360004D01*
X310202Y359760D01*
X310169Y359654D01*
X309914Y359399D01*
X309000Y357193D01*
Y354807D01*
X309914Y352601D01*
X311601Y350913D01*
X313806Y350000D01*
X316194D01*
X318399Y350913D01*
X320087Y352601D01*
X321000Y354807D01*
Y357193D01*
X320087Y359399D01*
X319831Y359654D01*
X319798Y359760D01*
X319742Y360004D01*
X319695Y360285D01*
X319588Y361843D01*
Y384586D01*
X319595Y384755D01*
X319690Y385683D01*
X319742Y385996D01*
X319798Y386240D01*
X319831Y386346D01*
X320087Y386601D01*
X321000Y388806D01*
Y391194D01*
X320087Y393399D01*
X318399Y395087D01*
X316194Y396000D01*
D02*
G37*
G36*
X164193Y347000D02*
X161807D01*
X159601Y346087D01*
X159346Y345831D01*
X159240Y345798D01*
X158996Y345742D01*
X158715Y345695D01*
X157157Y345588D01*
X140414D01*
X140245Y345595D01*
X139318Y345690D01*
X139004Y345742D01*
X138760Y345798D01*
X138654Y345831D01*
X138399Y346087D01*
X136194Y347000D01*
X133806D01*
X131601Y346087D01*
X129914Y344399D01*
X129000Y342193D01*
Y339807D01*
X129914Y337601D01*
X131601Y335913D01*
X133806Y335000D01*
X136194D01*
X138399Y335913D01*
X138654Y336169D01*
X138760Y336202D01*
X139004Y336258D01*
X139285Y336305D01*
X140843Y336412D01*
X157586D01*
X157755Y336405D01*
X158683Y336311D01*
X158996Y336258D01*
X159240Y336202D01*
X159346Y336169D01*
X159601Y335913D01*
X161807Y335000D01*
X164193D01*
X166399Y335913D01*
X168087Y337601D01*
X169000Y339807D01*
Y342193D01*
X168087Y344399D01*
X166399Y346087D01*
X164193Y347000D01*
D02*
G37*
G36*
X401053Y358600D02*
X398947D01*
X396912Y358055D01*
X395088Y357002D01*
X393598Y355512D01*
X392545Y353688D01*
X392000Y351653D01*
Y349547D01*
X392545Y347512D01*
X393598Y345688D01*
X395088Y344198D01*
X396912Y343145D01*
X398947Y342600D01*
X401053D01*
X403088Y343145D01*
X404912Y344198D01*
X406402Y345688D01*
X407455Y347512D01*
X408000Y349547D01*
Y351653D01*
X407455Y353688D01*
X406402Y355512D01*
X404912Y357002D01*
X403088Y358055D01*
X401053Y358600D01*
D02*
G37*
G36*
X37100Y312629D02*
X34728Y312317D01*
X32053Y311208D01*
X29755Y309445D01*
X27991Y307147D01*
X26883Y304472D01*
X26834Y304100D01*
X37100D01*
Y312629D01*
D02*
G37*
G36*
X164193Y299000D02*
X161807D01*
X159601Y298087D01*
X159346Y297831D01*
X159240Y297798D01*
X158996Y297742D01*
X158715Y297695D01*
X157157Y297588D01*
X140414D01*
X140245Y297595D01*
X139318Y297689D01*
X139004Y297742D01*
X138760Y297798D01*
X138654Y297831D01*
X138399Y298087D01*
X136194Y299000D01*
X133806D01*
X131601Y298087D01*
X129914Y296399D01*
X129000Y294193D01*
Y291807D01*
X129914Y289601D01*
X131601Y287913D01*
X133806Y287000D01*
X136194D01*
X138399Y287913D01*
X138654Y288169D01*
X138760Y288202D01*
X139004Y288258D01*
X139285Y288305D01*
X140843Y288412D01*
X157586D01*
X157755Y288405D01*
X158683Y288311D01*
X158996Y288258D01*
X159240Y288202D01*
X159346Y288169D01*
X159601Y287913D01*
X161807Y287000D01*
X164193D01*
X166399Y287913D01*
X168087Y289601D01*
X169000Y291807D01*
Y294193D01*
X168087Y296399D01*
X166399Y298087D01*
X164193Y299000D01*
D02*
G37*
G36*
X381000Y300000D02*
X379500D01*
Y294500D01*
X385000D01*
Y296000D01*
X381000Y300000D01*
D02*
G37*
G36*
X374500D02*
X373000D01*
X369000Y296000D01*
Y294500D01*
X374500D01*
Y300000D01*
D02*
G37*
G36*
X42100Y312629D02*
Y301600D01*
Y290571D01*
X44472Y290883D01*
X47147Y291992D01*
X49445Y293755D01*
X51209Y296053D01*
X51759Y297381D01*
X53924D01*
X54265Y296557D01*
X55868Y294468D01*
X57957Y292865D01*
X60389Y291857D01*
X63000Y291514D01*
X67000D01*
X69611Y291857D01*
X72043Y292865D01*
X74132Y294468D01*
X75735Y296557D01*
X76743Y298990D01*
X77086Y301600D01*
X76743Y304210D01*
X75735Y306643D01*
X74132Y308732D01*
X72043Y310335D01*
X69611Y311343D01*
X67000Y311686D01*
X63000D01*
X60389Y311343D01*
X57957Y310335D01*
X55868Y308732D01*
X54265Y306643D01*
X53924Y305819D01*
X51759D01*
X51209Y307147D01*
X49445Y309445D01*
X47147Y311208D01*
X44472Y312317D01*
X42100Y312629D01*
D02*
G37*
G36*
X37100Y299100D02*
X26834D01*
X26883Y298728D01*
X27991Y296053D01*
X29755Y293755D01*
X32053Y291992D01*
X34728Y290883D01*
X37100Y290571D01*
Y299100D01*
D02*
G37*
G36*
X385000Y289500D02*
X379500D01*
Y284000D01*
X381000D01*
X385000Y288000D01*
Y289500D01*
D02*
G37*
G36*
X374500D02*
X369000D01*
Y288000D01*
X373000Y284000D01*
X374500D01*
Y289500D01*
D02*
G37*
G36*
X37100Y287229D02*
X34728Y286917D01*
X32053Y285809D01*
X29755Y284045D01*
X27991Y281747D01*
X26883Y279072D01*
X26834Y278700D01*
X37100D01*
Y287229D01*
D02*
G37*
G36*
X42100Y287229D02*
Y276200D01*
Y265171D01*
X44472Y265483D01*
X47147Y266591D01*
X49445Y268355D01*
X51209Y270653D01*
X51759Y271981D01*
X53924D01*
X54265Y271157D01*
X55868Y269068D01*
X57957Y267465D01*
X60389Y266457D01*
X63000Y266114D01*
X67000D01*
X69611Y266457D01*
X72043Y267465D01*
X74132Y269068D01*
X75735Y271157D01*
X76743Y273589D01*
X77086Y276200D01*
X76743Y278811D01*
X75735Y281243D01*
X74132Y283332D01*
X72043Y284935D01*
X69611Y285943D01*
X67000Y286286D01*
X63000D01*
X60389Y285943D01*
X57957Y284935D01*
X55868Y283332D01*
X54265Y281243D01*
X53924Y280419D01*
X51759D01*
X51209Y281747D01*
X49445Y284045D01*
X47147Y285809D01*
X44472Y286917D01*
X42100Y287229D01*
D02*
G37*
G36*
X37100Y273700D02*
X26834D01*
X26883Y273328D01*
X27991Y270653D01*
X29755Y268355D01*
X32053Y266591D01*
X34728Y265483D01*
X37100Y265171D01*
Y273700D01*
D02*
G37*
G36*
Y261829D02*
X34728Y261517D01*
X32053Y260408D01*
X29755Y258645D01*
X27991Y256347D01*
X26883Y253672D01*
X26834Y253300D01*
X37100D01*
Y261829D01*
D02*
G37*
G36*
X268193Y284000D02*
X265807D01*
X263601Y283087D01*
X261913Y281399D01*
X261000Y279193D01*
Y276807D01*
X261913Y274601D01*
X262169Y274346D01*
X262202Y274240D01*
X262258Y273996D01*
X262305Y273715D01*
X262412Y272157D01*
Y259414D01*
X262405Y259245D01*
X262311Y258317D01*
X262258Y258004D01*
X262202Y257760D01*
X262169Y257654D01*
X261913Y257399D01*
X261000Y255194D01*
Y252806D01*
X261913Y250601D01*
X263601Y248913D01*
X265807Y248000D01*
X268193D01*
X270399Y248913D01*
X272087Y250601D01*
X273000Y252806D01*
Y255194D01*
X272087Y257399D01*
X271831Y257654D01*
X271798Y257760D01*
X271742Y258004D01*
X271695Y258285D01*
X271588Y259843D01*
Y272586D01*
X271595Y272755D01*
X271689Y273683D01*
X271742Y273996D01*
X271798Y274240D01*
X271831Y274346D01*
X272087Y274601D01*
X273000Y276807D01*
Y279193D01*
X272087Y281399D01*
X270399Y283087D01*
X268193Y284000D01*
D02*
G37*
G36*
X42100Y261829D02*
Y250800D01*
Y239771D01*
X44472Y240083D01*
X47147Y241192D01*
X49445Y242955D01*
X51209Y245253D01*
X51759Y246581D01*
X53924D01*
X54265Y245757D01*
X55868Y243668D01*
X57957Y242065D01*
X60389Y241057D01*
X63000Y240714D01*
X67000D01*
X69611Y241057D01*
X72043Y242065D01*
X74132Y243668D01*
X75735Y245757D01*
X76743Y248190D01*
X77086Y250800D01*
X76743Y253410D01*
X75735Y255843D01*
X74132Y257932D01*
X72043Y259535D01*
X69611Y260543D01*
X67000Y260886D01*
X63000D01*
X60389Y260543D01*
X57957Y259535D01*
X55868Y257932D01*
X54265Y255843D01*
X53924Y255019D01*
X51759D01*
X51209Y256347D01*
X49445Y258645D01*
X47147Y260408D01*
X44472Y261517D01*
X42100Y261829D01*
D02*
G37*
G36*
X37100Y248300D02*
X26834D01*
X26883Y247928D01*
X27991Y245253D01*
X29755Y242955D01*
X32053Y241192D01*
X34728Y240083D01*
X37100Y239771D01*
Y248300D01*
D02*
G37*
G36*
X296194Y236000D02*
X293806D01*
X291601Y235087D01*
X291346Y234831D01*
X291240Y234798D01*
X290996Y234742D01*
X290715Y234695D01*
X289157Y234588D01*
X259414D01*
X259245Y234595D01*
X258317Y234690D01*
X258004Y234742D01*
X257760Y234798D01*
X257654Y234831D01*
X257399Y235087D01*
X255194Y236000D01*
X252806D01*
X250601Y235087D01*
X248913Y233399D01*
X248000Y231194D01*
Y228806D01*
X248913Y226601D01*
X250601Y224913D01*
X252806Y224000D01*
X255194D01*
X255561Y224152D01*
X257092Y222621D01*
X256500Y221193D01*
Y218806D01*
X257413Y216601D01*
X259101Y214913D01*
X261306Y214000D01*
X263694D01*
X265899Y214913D01*
X266154Y215169D01*
X266260Y215202D01*
X266504Y215258D01*
X266785Y215305D01*
X268343Y215412D01*
X277586D01*
X277755Y215405D01*
X278683Y215310D01*
X278996Y215258D01*
X279240Y215202D01*
X279346Y215169D01*
X279601Y214913D01*
X281807Y214000D01*
X284193D01*
X286399Y214913D01*
X288086Y216601D01*
X289000Y218806D01*
Y221194D01*
X288086Y223399D01*
X288073Y223412D01*
X288902Y225412D01*
X289586D01*
X289755Y225405D01*
X290683Y225310D01*
X290996Y225258D01*
X291240Y225202D01*
X291346Y225169D01*
X291601Y224913D01*
X293806Y224000D01*
X296194D01*
X298399Y224913D01*
X300086Y226601D01*
X301000Y228806D01*
Y231194D01*
X300086Y233399D01*
X298399Y235087D01*
X296194Y236000D01*
D02*
G37*
G36*
X67000Y235486D02*
X63000D01*
X60389Y235143D01*
X57957Y234135D01*
X55868Y232532D01*
X54265Y230443D01*
X53335Y228198D01*
X52817Y228011D01*
X51783D01*
X51265Y228198D01*
X50335Y230443D01*
X48732Y232532D01*
X46643Y234135D01*
X44211Y235143D01*
X41600Y235486D01*
X37600D01*
X34990Y235143D01*
X32557Y234135D01*
X30468Y232532D01*
X28865Y230443D01*
X27857Y228011D01*
X27514Y225400D01*
X27857Y222789D01*
X28865Y220357D01*
X30468Y218268D01*
X32557Y216665D01*
X34990Y215657D01*
X37600Y215314D01*
X41600D01*
X44211Y215657D01*
X46643Y216665D01*
X48732Y218268D01*
X50335Y220357D01*
X51265Y222602D01*
X51783Y222789D01*
X52817D01*
X53335Y222602D01*
X54265Y220357D01*
X55868Y218268D01*
X57957Y216665D01*
X60389Y215657D01*
X63000Y215314D01*
X67000D01*
X69611Y215657D01*
X72043Y216665D01*
X74132Y218268D01*
X75735Y220357D01*
X76743Y222789D01*
X77086Y225400D01*
X76743Y228011D01*
X75735Y230443D01*
X74132Y232532D01*
X72043Y234135D01*
X69611Y235143D01*
X67000Y235486D01*
D02*
G37*
G36*
X71000Y210117D02*
X59000D01*
X56659Y209652D01*
X54674Y208326D01*
X53348Y206341D01*
X52899Y204081D01*
X52755Y203982D01*
X50882Y203721D01*
X50335Y205043D01*
X48732Y207132D01*
X46643Y208735D01*
X44211Y209743D01*
X41600Y210086D01*
X37600D01*
X34990Y209743D01*
X32557Y208735D01*
X30468Y207132D01*
X28865Y205043D01*
X27857Y202610D01*
X27514Y200000D01*
X27857Y197390D01*
X28865Y194957D01*
X30468Y192868D01*
X32557Y191265D01*
X34990Y190257D01*
X37600Y189914D01*
X41600D01*
X44211Y190257D01*
X46643Y191265D01*
X48732Y192868D01*
X50335Y194957D01*
X50882Y196279D01*
X52755Y196018D01*
X52899Y195919D01*
X53348Y193659D01*
X54674Y191674D01*
X56659Y190348D01*
X59000Y189883D01*
X71000D01*
X73341Y190348D01*
X75326Y191674D01*
X76652Y193659D01*
X77118Y196000D01*
Y204000D01*
X76652Y206341D01*
X75326Y208326D01*
X73341Y209652D01*
X71000Y210117D01*
D02*
G37*
G36*
X211053Y182400D02*
X208947D01*
X206912Y181855D01*
X205088Y180802D01*
X203598Y179312D01*
X202545Y177488D01*
X202000Y175453D01*
Y173347D01*
X202545Y171312D01*
X203598Y169488D01*
X205088Y167998D01*
X206912Y166945D01*
X208947Y166400D01*
X211053D01*
X213088Y166945D01*
X214912Y167998D01*
X216402Y169488D01*
X217455Y171312D01*
X218000Y173347D01*
Y175453D01*
X217455Y177488D01*
X216402Y179312D01*
X214912Y180802D01*
X213088Y181855D01*
X211053Y182400D01*
D02*
G37*
G36*
X254193Y173000D02*
X251807D01*
X249601Y172087D01*
X247913Y170399D01*
X247000Y168193D01*
Y165807D01*
X247913Y163601D01*
X248169Y163346D01*
X248202Y163240D01*
X248258Y162996D01*
X248305Y162715D01*
X248412Y161157D01*
Y138414D01*
X248405Y138245D01*
X248311Y137317D01*
X248258Y137004D01*
X248202Y136760D01*
X248169Y136654D01*
X247913Y136399D01*
X247000Y134193D01*
Y131806D01*
X247913Y129601D01*
X249601Y127913D01*
X251807Y127000D01*
X254193D01*
X256399Y127913D01*
X258087Y129601D01*
X259000Y131806D01*
Y134193D01*
X258087Y136399D01*
X257831Y136654D01*
X257798Y136760D01*
X257742Y137004D01*
X257695Y137285D01*
X257588Y138843D01*
Y161586D01*
X257595Y161755D01*
X257689Y162683D01*
X257742Y162996D01*
X257798Y163240D01*
X257831Y163346D01*
X258087Y163601D01*
X259000Y165807D01*
Y168193D01*
X258087Y170399D01*
X256399Y172087D01*
X254193Y173000D01*
D02*
G37*
G36*
X211053Y133600D02*
X208947D01*
X206912Y133055D01*
X205088Y132002D01*
X203598Y130512D01*
X202545Y128688D01*
X202000Y126653D01*
Y124547D01*
X202545Y122512D01*
X203598Y120688D01*
X205088Y119198D01*
X206912Y118145D01*
X208947Y117600D01*
X211053D01*
X213088Y118145D01*
X214912Y119198D01*
X216402Y120688D01*
X217455Y122512D01*
X218000Y124547D01*
Y126653D01*
X217455Y128688D01*
X216402Y130512D01*
X214912Y132002D01*
X213088Y133055D01*
X211053Y133600D01*
D02*
G37*
%LPD*%
G36*
X578019Y465525D02*
X578170Y465100D01*
X578422Y464725D01*
X578774Y464400D01*
X579227Y464125D01*
X579780Y463900D01*
X580434Y463725D01*
X581125Y463610D01*
X581954Y463667D01*
X582393Y463741D01*
X582773Y463828D01*
X583094Y463928D01*
X583357Y464042D01*
X583560Y464170D01*
Y457830D01*
X583357Y457958D01*
X583094Y458071D01*
X582773Y458172D01*
X582393Y458259D01*
X581954Y458333D01*
X581244Y458405D01*
X581189Y458400D01*
X580434Y458275D01*
X579780Y458100D01*
X579227Y457875D01*
X578774Y457600D01*
X578422Y457275D01*
X578170Y456900D01*
X578019Y456475D01*
X577969Y456000D01*
Y466000D01*
X578019Y465525D01*
D02*
G37*
G36*
X540072Y451031D02*
X539641Y451266D01*
X539148Y451370D01*
X538595Y451342D01*
X537980Y451182D01*
X537303Y450891D01*
X536565Y450469D01*
X535766Y449915D01*
X534906Y449230D01*
X533984Y448413D01*
X533000Y447465D01*
X528577Y450113D01*
X529594Y451164D01*
X531179Y453030D01*
X531748Y453845D01*
X532168Y454580D01*
X532439Y455237D01*
X532561Y455814D01*
X532533Y456312D01*
X532357Y456731D01*
X532031Y457072D01*
X540072Y451031D01*
D02*
G37*
G36*
X531804Y446269D02*
X531291Y445746D01*
X529747Y443974D01*
X529489Y443612D01*
X529281Y443282D01*
X529125Y442984D01*
X529021Y442718D01*
X528967Y442484D01*
X524484Y446967D01*
X524718Y447020D01*
X524984Y447125D01*
X525282Y447281D01*
X525612Y447489D01*
X525975Y447747D01*
X526796Y448416D01*
X527746Y449291D01*
X528269Y449804D01*
X531804Y446269D01*
D02*
G37*
G36*
X544647Y434355D02*
X544175Y434114D01*
X543741Y433836D01*
X543346Y433520D01*
X543052Y433229D01*
X542949Y432786D01*
X542825Y432024D01*
X542781Y431363D01*
X542815Y430804D01*
X542927Y430346D01*
X543119Y429991D01*
X543388Y429737D01*
X543737Y429584D01*
X544164Y429533D01*
X533750Y429531D01*
X534296Y429793D01*
X534813Y430114D01*
X535298Y430494D01*
X535754Y430934D01*
X536179Y431433D01*
X536574Y431991D01*
X536939Y432608D01*
X537274Y433285D01*
X537373Y433524D01*
X537357Y433536D01*
X537600Y434084D01*
X537853Y434815D01*
X537924Y434813D01*
X539053Y437353D01*
X544647Y434355D01*
D02*
G37*
G36*
X578019Y424525D02*
X578170Y424100D01*
X578422Y423725D01*
X578774Y423400D01*
X579227Y423125D01*
X579780Y422900D01*
X580434Y422725D01*
X581189Y422600D01*
X582044Y422525D01*
X582968Y422501D01*
X583611Y422507D01*
X585954Y422667D01*
X586393Y422741D01*
X586773Y422828D01*
X587094Y422929D01*
X587357Y423042D01*
X587560Y423170D01*
Y416830D01*
X587357Y416958D01*
X587094Y417071D01*
X586773Y417172D01*
X586393Y417259D01*
X585954Y417333D01*
X584900Y417440D01*
X583611Y417493D01*
X582968Y417499D01*
X582044Y417475D01*
X581189Y417400D01*
X580434Y417275D01*
X579780Y417100D01*
X579227Y416875D01*
X578774Y416600D01*
X578422Y416275D01*
X578170Y415900D01*
X578019Y415475D01*
X577969Y415000D01*
Y425000D01*
X578019Y424525D01*
D02*
G37*
G36*
X168042Y403357D02*
X167929Y403094D01*
X167828Y402773D01*
X167741Y402393D01*
X167667Y401954D01*
X167560Y400900D01*
X167507Y399611D01*
X167500Y398877D01*
X162500D01*
X162493Y399611D01*
X162333Y401954D01*
X162259Y402393D01*
X162172Y402773D01*
X162071Y403094D01*
X161958Y403357D01*
X161830Y403560D01*
X168170D01*
X168042Y403357D01*
D02*
G37*
G36*
X167507Y393889D02*
X167667Y391546D01*
X167741Y391107D01*
X167828Y390727D01*
X167929Y390406D01*
X168042Y390143D01*
X168170Y389940D01*
X161830D01*
X161958Y390143D01*
X162071Y390406D01*
X162172Y390727D01*
X162259Y391107D01*
X162333Y391546D01*
X162440Y392600D01*
X162493Y393889D01*
X162500Y394622D01*
X167500D01*
X167507Y393889D01*
D02*
G37*
G36*
X121583Y382042D02*
X121086Y382101D01*
X120571Y382049D01*
X120038Y381889D01*
X119489Y381618D01*
X118921Y381238D01*
X118336Y380748D01*
X117734Y380148D01*
X117115Y379439D01*
X116477Y378619D01*
X115823Y377691D01*
X109900Y378435D01*
X110576Y379478D01*
X111565Y381270D01*
X111878Y382019D01*
X112070Y382669D01*
X112141Y383221D01*
X112091Y383674D01*
X111920Y384030D01*
X111627Y384287D01*
X111214Y384446D01*
X121583Y382042D01*
D02*
G37*
G36*
X111804Y373269D02*
X111291Y372746D01*
X109747Y370975D01*
X109489Y370612D01*
X109281Y370282D01*
X109125Y369984D01*
X109021Y369718D01*
X108967Y369484D01*
X104484Y373967D01*
X104718Y374021D01*
X104984Y374125D01*
X105282Y374281D01*
X105612Y374489D01*
X105975Y374747D01*
X106796Y375416D01*
X107746Y376291D01*
X108269Y376804D01*
X111804Y373269D01*
D02*
G37*
G36*
X567019Y383525D02*
X567170Y383100D01*
X567422Y382725D01*
X567774Y382400D01*
X568227Y382125D01*
X568780Y381900D01*
X569434Y381725D01*
X570125Y381610D01*
X570954Y381667D01*
X571393Y381741D01*
X571773Y381828D01*
X572094Y381928D01*
X572357Y382042D01*
X572560Y382170D01*
Y375830D01*
X572357Y375958D01*
X572094Y376072D01*
X571773Y376172D01*
X571393Y376259D01*
X570954Y376333D01*
X570244Y376405D01*
X570188Y376400D01*
X569434Y376275D01*
X568780Y376100D01*
X568227Y375875D01*
X567774Y375600D01*
X567422Y375275D01*
X567170Y374900D01*
X567019Y374475D01*
X566969Y374000D01*
Y384000D01*
X567019Y383525D01*
D02*
G37*
G36*
X155021Y377282D02*
X155125Y377016D01*
X155281Y376718D01*
X155489Y376388D01*
X155747Y376026D01*
X156417Y375204D01*
X157290Y374254D01*
X157804Y373731D01*
X154269Y370196D01*
X153745Y370709D01*
X151974Y372253D01*
X151612Y372511D01*
X151282Y372719D01*
X150984Y372875D01*
X150718Y372980D01*
X150484Y373033D01*
X154967Y377516D01*
X155021Y377282D01*
D02*
G37*
G36*
X165602Y362239D02*
X159518Y360431D01*
X159679Y360915D01*
X159790Y361397D01*
X159853Y361879D01*
X159865Y362359D01*
X159829Y362837D01*
X159743Y363315D01*
X159608Y363791D01*
X159424Y364266D01*
X159191Y364739D01*
X158908Y365211D01*
X163096Y367942D01*
X165602Y362239D01*
D02*
G37*
G36*
X318042Y387357D02*
X317929Y387094D01*
X317828Y386773D01*
X317741Y386393D01*
X317667Y385954D01*
X317560Y384900D01*
X317507Y383611D01*
X317500Y382878D01*
X312500D01*
X312493Y383611D01*
X312333Y385954D01*
X312259Y386393D01*
X312172Y386773D01*
X312071Y387094D01*
X311958Y387357D01*
X311830Y387560D01*
X318170D01*
X318042Y387357D01*
D02*
G37*
G36*
X317507Y362389D02*
X317667Y360046D01*
X317741Y359607D01*
X317828Y359227D01*
X317929Y358906D01*
X318042Y358643D01*
X318170Y358440D01*
X311830D01*
X311958Y358643D01*
X312071Y358906D01*
X312172Y359227D01*
X312259Y359607D01*
X312333Y360046D01*
X312440Y361100D01*
X312493Y362389D01*
X312500Y363122D01*
X317500D01*
X317507Y362389D01*
D02*
G37*
G36*
X160560Y337830D02*
X160357Y337958D01*
X160094Y338071D01*
X159773Y338172D01*
X159393Y338259D01*
X158954Y338333D01*
X157900Y338440D01*
X156611Y338493D01*
X155878Y338500D01*
Y343500D01*
X156611Y343507D01*
X158954Y343667D01*
X159393Y343741D01*
X159773Y343828D01*
X160094Y343928D01*
X160357Y344042D01*
X160560Y344170D01*
Y337830D01*
D02*
G37*
G36*
X137643Y344042D02*
X137906Y343928D01*
X138227Y343828D01*
X138607Y343741D01*
X139046Y343667D01*
X140100Y343560D01*
X141389Y343507D01*
X142122Y343500D01*
Y338500D01*
X141389Y338493D01*
X139046Y338333D01*
X138607Y338259D01*
X138227Y338172D01*
X137906Y338071D01*
X137643Y337958D01*
X137440Y337830D01*
Y344170D01*
X137643Y344042D01*
D02*
G37*
G36*
X160560Y289830D02*
X160357Y289958D01*
X160094Y290072D01*
X159773Y290172D01*
X159393Y290259D01*
X158954Y290333D01*
X157900Y290440D01*
X156611Y290493D01*
X155878Y290500D01*
Y295500D01*
X156611Y295507D01*
X158954Y295667D01*
X159393Y295741D01*
X159773Y295828D01*
X160094Y295928D01*
X160357Y296042D01*
X160560Y296170D01*
Y289830D01*
D02*
G37*
G36*
X137643Y296042D02*
X137906Y295928D01*
X138227Y295828D01*
X138607Y295741D01*
X139046Y295667D01*
X140100Y295560D01*
X141389Y295507D01*
X142122Y295500D01*
Y290500D01*
X141389Y290493D01*
X139046Y290333D01*
X138607Y290259D01*
X138227Y290172D01*
X137906Y290072D01*
X137643Y289958D01*
X137440Y289830D01*
Y296170D01*
X137643Y296042D01*
D02*
G37*
G36*
X270042Y275357D02*
X269928Y275094D01*
X269828Y274773D01*
X269741Y274393D01*
X269667Y273954D01*
X269560Y272900D01*
X269507Y271611D01*
X269500Y270877D01*
X264500D01*
X264493Y271611D01*
X264333Y273954D01*
X264259Y274393D01*
X264172Y274773D01*
X264072Y275094D01*
X263958Y275357D01*
X263830Y275560D01*
X270170D01*
X270042Y275357D01*
D02*
G37*
G36*
X269507Y260389D02*
X269667Y258046D01*
X269741Y257607D01*
X269828Y257227D01*
X269928Y256906D01*
X270042Y256643D01*
X270170Y256440D01*
X263830D01*
X263958Y256643D01*
X264072Y256906D01*
X264172Y257227D01*
X264259Y257607D01*
X264333Y258046D01*
X264440Y259100D01*
X264493Y260389D01*
X264500Y261122D01*
X269500D01*
X269507Y260389D01*
D02*
G37*
G36*
X292560Y226830D02*
X292357Y226958D01*
X292094Y227071D01*
X291773Y227172D01*
X291393Y227259D01*
X290954Y227333D01*
X289900Y227440D01*
X288611Y227493D01*
X287878Y227500D01*
Y232500D01*
X288611Y232507D01*
X290954Y232667D01*
X291393Y232741D01*
X291773Y232828D01*
X292094Y232929D01*
X292357Y233042D01*
X292560Y233170D01*
Y226830D01*
D02*
G37*
G36*
X256643Y233042D02*
X256906Y232929D01*
X257227Y232828D01*
X257607Y232741D01*
X258046Y232667D01*
X259100Y232560D01*
X260389Y232507D01*
X261122Y232500D01*
Y227500D01*
X260389Y227493D01*
X258046Y227333D01*
X257607Y227259D01*
X257227Y227172D01*
X256906Y227071D01*
X256643Y226958D01*
X256440Y226830D01*
Y233170D01*
X256643Y233042D01*
D02*
G37*
G36*
X280560Y216830D02*
X280357Y216958D01*
X280094Y217071D01*
X279773Y217172D01*
X279393Y217259D01*
X278954Y217333D01*
X277900Y217440D01*
X276611Y217493D01*
X275877Y217500D01*
Y222500D01*
X276611Y222507D01*
X278954Y222667D01*
X279393Y222741D01*
X279773Y222828D01*
X280094Y222929D01*
X280357Y223042D01*
X280560Y223170D01*
Y216830D01*
D02*
G37*
G36*
X265143Y223042D02*
X265406Y222929D01*
X265727Y222828D01*
X266107Y222741D01*
X266546Y222667D01*
X267600Y222560D01*
X268889Y222507D01*
X269622Y222500D01*
X269622Y217500D01*
X268889Y217493D01*
X266546Y217333D01*
X266107Y217259D01*
X265727Y217172D01*
X265406Y217071D01*
X265143Y216958D01*
X264940Y216830D01*
X264940Y223170D01*
X265143Y223042D01*
D02*
G37*
G36*
X256042Y164357D02*
X255928Y164094D01*
X255828Y163773D01*
X255741Y163393D01*
X255667Y162954D01*
X255560Y161900D01*
X255507Y160611D01*
X255500Y159878D01*
X250500D01*
X250493Y160611D01*
X250333Y162954D01*
X250259Y163393D01*
X250172Y163773D01*
X250072Y164094D01*
X249958Y164357D01*
X249830Y164560D01*
X256170D01*
X256042Y164357D01*
D02*
G37*
G36*
X255507Y139389D02*
X255667Y137045D01*
X255741Y136607D01*
X255828Y136227D01*
X255928Y135906D01*
X256042Y135643D01*
X256170Y135440D01*
X249830D01*
X249958Y135643D01*
X250072Y135906D01*
X250172Y136227D01*
X250259Y136607D01*
X250333Y137045D01*
X250440Y138100D01*
X250493Y139389D01*
X250500Y140122D01*
X255500D01*
X255507Y139389D01*
D02*
G37*
%LPC*%
G36*
X556185Y290750D02*
X553815D01*
X551526Y290137D01*
X549474Y288952D01*
X547798Y287276D01*
X546613Y285224D01*
X546000Y282935D01*
Y280565D01*
X546613Y278276D01*
X547798Y276224D01*
X549474Y274548D01*
X551526Y273363D01*
X553815Y272750D01*
X556185D01*
X558474Y273363D01*
X560526Y274548D01*
X562202Y276224D01*
X563387Y278276D01*
X564000Y280565D01*
Y282935D01*
X563387Y285224D01*
X562202Y287276D01*
X560526Y288952D01*
X558474Y290137D01*
X556185Y290750D01*
D02*
G37*
G36*
X531077Y309450D02*
X528123D01*
X525225Y308874D01*
X522495Y307743D01*
X520038Y306101D01*
X517949Y304012D01*
X516307Y301555D01*
X515177Y298825D01*
X514600Y295927D01*
Y292973D01*
X515177Y290075D01*
X516307Y287345D01*
X517949Y284888D01*
X520038Y282799D01*
X522495Y281157D01*
X525225Y280026D01*
X526854Y279702D01*
X526922Y277650D01*
X526126Y277437D01*
X524074Y276252D01*
X522398Y274576D01*
X521213Y272524D01*
X520600Y270235D01*
Y267865D01*
X521213Y265576D01*
X522398Y263524D01*
X524074Y261848D01*
X526126Y260663D01*
X528415Y260050D01*
X530785D01*
X533074Y260663D01*
X535126Y261848D01*
X536802Y263524D01*
X537987Y265576D01*
X538600Y267865D01*
Y270235D01*
X537987Y272524D01*
X536802Y274576D01*
X535126Y276252D01*
X533074Y277437D01*
X532279Y277650D01*
X532346Y279702D01*
X533975Y280026D01*
X536705Y281157D01*
X539162Y282799D01*
X541251Y284888D01*
X542893Y287345D01*
X544024Y290075D01*
X544600Y292973D01*
Y295927D01*
X544024Y298825D01*
X542893Y301555D01*
X541251Y304012D01*
X539162Y306101D01*
X536705Y307743D01*
X533975Y308874D01*
X531077Y309450D01*
D02*
G37*
G36*
X556185Y265350D02*
X553815D01*
X551526Y264737D01*
X549474Y263552D01*
X547798Y261876D01*
X546613Y259824D01*
X546000Y257535D01*
Y255165D01*
X546613Y252876D01*
X547798Y250824D01*
X549474Y249148D01*
X551526Y247963D01*
X553815Y247350D01*
X556185D01*
X558474Y247963D01*
X560526Y249148D01*
X562202Y250824D01*
X563387Y252876D01*
X564000Y255165D01*
Y257535D01*
X563387Y259824D01*
X562202Y261876D01*
X560526Y263552D01*
X558474Y264737D01*
X556185Y265350D01*
D02*
G37*
G36*
X508194Y276000D02*
X505807D01*
X503601Y275086D01*
X501913Y273399D01*
X501000Y271194D01*
Y268806D01*
X501913Y266601D01*
X502190Y266325D01*
X503231Y262272D01*
X503246Y262076D01*
X503391Y261474D01*
X503432Y261262D01*
X503455Y261205D01*
X504224Y258005D01*
X505826Y254137D01*
X508014Y250567D01*
X510733Y247383D01*
X513917Y244664D01*
X515092Y243943D01*
X515190Y243845D01*
X518433Y241673D01*
X520047Y240478D01*
X521259Y239466D01*
X521673Y239072D01*
X521980Y238740D01*
X522220Y238432D01*
X522398Y238124D01*
X524074Y236448D01*
X526126Y235263D01*
X528415Y234650D01*
X530785D01*
X533074Y235263D01*
X535126Y236448D01*
X536802Y238124D01*
X537987Y240176D01*
X538600Y242465D01*
Y244835D01*
X537987Y247124D01*
X536802Y249176D01*
X535126Y250852D01*
X533074Y252037D01*
X530785Y252650D01*
X528415D01*
X526680Y252185D01*
X526593Y252174D01*
X526409Y252113D01*
X526126Y252037D01*
X526048Y251992D01*
X525236Y251720D01*
X524019Y251375D01*
X522909Y251124D01*
X521908Y250966D01*
X521022Y250895D01*
X520257Y250905D01*
X519614Y250983D01*
X519091Y251117D01*
X518742Y251264D01*
X516474Y253124D01*
X514166Y255937D01*
X512451Y259146D01*
X511394Y262629D01*
X511239Y264206D01*
X511258Y264566D01*
X511307Y264944D01*
X511384Y265298D01*
X511488Y265633D01*
X511618Y265953D01*
X511777Y266261D01*
X511830Y266345D01*
X512087Y266601D01*
X513000Y268806D01*
Y271194D01*
X512087Y273399D01*
X510399Y275086D01*
X508194Y276000D01*
D02*
G37*
G36*
X556185Y239950D02*
X553815D01*
X551526Y239337D01*
X549474Y238152D01*
X547798Y236476D01*
X546613Y234424D01*
X546000Y232135D01*
Y229765D01*
X546613Y227476D01*
X547798Y225424D01*
X549474Y223748D01*
X551526Y222563D01*
X553815Y221950D01*
X556185D01*
X558474Y222563D01*
X560526Y223748D01*
X562202Y225424D01*
X563387Y227476D01*
X564000Y229765D01*
Y232135D01*
X563387Y234424D01*
X562202Y236476D01*
X560526Y238152D01*
X558474Y239337D01*
X556185Y239950D01*
D02*
G37*
G36*
X416181Y259564D02*
X409181D01*
X405681Y256064D01*
Y249064D01*
X409181Y245564D01*
X410180D01*
X410272Y245180D01*
X410373Y244486D01*
X410412Y243964D01*
Y231414D01*
X410405Y231245D01*
X410311Y230317D01*
X410258Y230004D01*
X410202Y229760D01*
X410169Y229654D01*
X409913Y229399D01*
X409000Y227194D01*
Y224806D01*
X409913Y222601D01*
X411601Y220914D01*
X413806Y220000D01*
X416194D01*
X418399Y220914D01*
X420087Y222601D01*
X421000Y224806D01*
Y227194D01*
X420087Y229399D01*
X419831Y229654D01*
X419798Y229760D01*
X419742Y230004D01*
X419695Y230285D01*
X419588Y231843D01*
Y248678D01*
X419597Y248980D01*
X419681Y249064D01*
Y250125D01*
X419687Y250169D01*
X419681Y250196D01*
Y256064D01*
X416181Y259564D01*
D02*
G37*
G36*
X469944Y250000D02*
X467556D01*
X465351Y249086D01*
X463663Y247399D01*
X462750Y245194D01*
Y242806D01*
X463663Y240601D01*
X465265Y239000D01*
X463663Y237399D01*
X462750Y235194D01*
Y232806D01*
X463663Y230601D01*
X465351Y228913D01*
X467556Y228000D01*
X469944D01*
X472149Y228913D01*
X473837Y230601D01*
X473975Y230935D01*
X474149Y231183D01*
X474500Y231626D01*
X474838Y231996D01*
X475158Y232296D01*
X475456Y232530D01*
X475729Y232702D01*
X475977Y232822D01*
X476203Y232899D01*
X476360Y232931D01*
X487500D01*
X487659Y232963D01*
X490860Y232542D01*
X493992Y231245D01*
X496681Y229181D01*
X498745Y226492D01*
X500042Y223361D01*
X500463Y220159D01*
X500431Y220000D01*
Y216964D01*
X498431Y216566D01*
X498087Y217399D01*
X496399Y219087D01*
X494193Y220000D01*
X491806D01*
X489601Y219087D01*
X487914Y217399D01*
X487000Y215194D01*
Y212806D01*
X487914Y210601D01*
X488701Y209814D01*
X488909Y207900D01*
X488909D01*
X489272Y203287D01*
X490353Y198787D01*
X492123Y194511D01*
X494541Y190566D01*
X497547Y187047D01*
X497547Y187047D01*
X498961Y185633D01*
X499047Y185547D01*
X499047Y185547D01*
X502566Y182541D01*
X506511Y180123D01*
X510787Y178353D01*
X515287Y177272D01*
X519900Y176909D01*
Y176922D01*
X523505D01*
X524236Y176867D01*
X524673Y176803D01*
X525080Y176721D01*
X525432Y176627D01*
X525731Y176525D01*
X525975Y176418D01*
X526167Y176313D01*
X526277Y176238D01*
X526601Y175913D01*
X528806Y175000D01*
X531194D01*
X533399Y175913D01*
X535087Y177601D01*
X536000Y179806D01*
Y182194D01*
X535087Y184399D01*
X533399Y186087D01*
X531194Y187000D01*
X528806D01*
X526601Y186087D01*
X526277Y185762D01*
X526167Y185687D01*
X525975Y185582D01*
X525731Y185475D01*
X525432Y185373D01*
X525080Y185279D01*
X524673Y185197D01*
X524236Y185133D01*
X523505Y185078D01*
X519900D01*
X519717Y185042D01*
X515730Y185435D01*
X511720Y186651D01*
X508024Y188626D01*
X506294Y190046D01*
X504823Y191323D01*
X503323Y192823D01*
X503169Y192927D01*
X500627Y196024D01*
X498651Y199720D01*
X497435Y203730D01*
X497042Y207717D01*
X497078Y207900D01*
Y209593D01*
X498087Y210601D01*
X500113Y210268D01*
X500406Y210000D01*
X500782Y206177D01*
X501897Y202502D01*
X503708Y199114D01*
X506145Y196145D01*
X509114Y193708D01*
X512502Y191897D01*
X516177Y190782D01*
X520000Y190406D01*
Y190431D01*
X525752D01*
Y190382D01*
X529335Y190853D01*
X532674Y192236D01*
X535541Y194436D01*
X535506Y194472D01*
X535506Y194472D01*
X538680Y197646D01*
X538682Y197649D01*
X538685Y197651D01*
X538708Y197686D01*
X540916Y199498D01*
X542762Y200484D01*
X542969Y200521D01*
X543459Y200527D01*
X544095Y200453D01*
X544868Y200281D01*
X545767Y200000D01*
X546760Y199615D01*
X549155Y198462D01*
X550492Y197715D01*
X550669Y197658D01*
X551526Y197163D01*
X553815Y196550D01*
X556185D01*
X558474Y197163D01*
X560526Y198348D01*
X562202Y200024D01*
X563387Y202076D01*
X564000Y204365D01*
Y206735D01*
X563387Y209024D01*
X562202Y211076D01*
X560526Y212752D01*
X558474Y213937D01*
X556185Y214550D01*
X553815D01*
X551526Y213937D01*
X549474Y212752D01*
X548814Y212092D01*
X548676Y212007D01*
X548211Y211577D01*
X547732Y211187D01*
X546427Y210286D01*
X545718Y209857D01*
X542345Y208157D01*
X540890Y208974D01*
X540514Y209480D01*
X540505Y209503D01*
X540570Y210000D01*
X540569D01*
Y210586D01*
X540542Y210718D01*
X540322Y212391D01*
X539625Y214073D01*
X538598Y215411D01*
X538523Y215523D01*
X538258Y215789D01*
X538600Y217065D01*
Y219435D01*
X537987Y221724D01*
X536802Y223776D01*
X535126Y225452D01*
X533074Y226637D01*
X530785Y227250D01*
X528415D01*
X526126Y226637D01*
X524074Y225452D01*
X522398Y223776D01*
X521213Y221724D01*
X520600Y219435D01*
Y217065D01*
X521213Y214776D01*
X522398Y212724D01*
X524074Y211048D01*
X526126Y209863D01*
X528415Y209250D01*
X530291D01*
X531062Y207976D01*
X531201Y207332D01*
X528342Y204472D01*
X526916Y203084D01*
X525737Y202595D01*
X523747Y202569D01*
X520000D01*
X519984Y202565D01*
X518075Y202817D01*
X516282Y203560D01*
X514742Y204741D01*
X513560Y206282D01*
X512817Y208075D01*
X512565Y209984D01*
X512569Y210000D01*
Y220000D01*
X512621D01*
X512138Y224901D01*
X510709Y229613D01*
X508387Y233957D01*
X505263Y237763D01*
X501456Y240887D01*
X497113Y243209D01*
X492401Y244638D01*
X487500Y245121D01*
Y245069D01*
X476360D01*
X476203Y245101D01*
X475977Y245178D01*
X475729Y245298D01*
X475456Y245471D01*
X475158Y245704D01*
X474838Y246004D01*
X474500Y246374D01*
X474149Y246816D01*
X473975Y247065D01*
X473837Y247399D01*
X472149Y249086D01*
X469944Y250000D01*
D02*
G37*
G36*
X405193Y172000D02*
X402807D01*
X400601Y171087D01*
X398913Y169399D01*
X398000Y167194D01*
Y165756D01*
X397508Y164649D01*
X396801Y163325D01*
X396543Y162475D01*
X396494Y162364D01*
X396457Y162202D01*
X396385Y162053D01*
X396377Y161929D01*
X395763Y159902D01*
X395412Y156346D01*
X395412Y156343D01*
Y147914D01*
X395405Y147745D01*
X395311Y146817D01*
X395258Y146504D01*
X395202Y146260D01*
X395169Y146154D01*
X394913Y145899D01*
X394000Y143694D01*
Y141306D01*
X394913Y139101D01*
X395169Y138846D01*
X395202Y138740D01*
X395258Y138496D01*
X395305Y138215D01*
X395412Y136657D01*
Y127914D01*
X395405Y127745D01*
X395311Y126818D01*
X395258Y126504D01*
X395202Y126260D01*
X395169Y126154D01*
X394913Y125899D01*
X394000Y123694D01*
Y121306D01*
X394913Y119101D01*
X396601Y117414D01*
X398806Y116500D01*
X401194D01*
X403399Y117414D01*
X405087Y119101D01*
X406000Y121306D01*
Y123694D01*
X405087Y125899D01*
X404831Y126154D01*
X404798Y126260D01*
X404742Y126504D01*
X404695Y126785D01*
X404588Y128343D01*
Y137086D01*
X404595Y137255D01*
X404689Y138183D01*
X404742Y138496D01*
X404798Y138740D01*
X404831Y138846D01*
X405087Y139101D01*
X406000Y141306D01*
Y143694D01*
X405087Y145899D01*
X404831Y146154D01*
X404798Y146260D01*
X404742Y146504D01*
X404695Y146785D01*
X404588Y148343D01*
Y156343D01*
X404565Y156461D01*
X404846Y158595D01*
X404880Y158708D01*
X405011Y159036D01*
X405159Y159323D01*
X405322Y159574D01*
X405503Y159796D01*
X405704Y159995D01*
X405931Y160177D01*
X406191Y160343D01*
X406574Y160538D01*
X406663Y160609D01*
X407399Y160913D01*
X409087Y162601D01*
X410000Y164806D01*
Y167194D01*
X409087Y169399D01*
X407399Y171087D01*
X405193Y172000D01*
D02*
G37*
G36*
X347500Y96117D02*
X312500D01*
X311909Y96000D01*
X311306D01*
X310750Y95769D01*
X310159Y95652D01*
X309658Y95317D01*
X309101Y95087D01*
X308675Y94661D01*
X308174Y94326D01*
X307840Y93825D01*
X307414Y93399D01*
X307183Y92842D01*
X306848Y92341D01*
X306731Y91750D01*
X306500Y91194D01*
Y90591D01*
X306383Y90000D01*
X306500Y89409D01*
Y88806D01*
X306731Y88250D01*
X306848Y87659D01*
X307183Y87158D01*
X307414Y86601D01*
X307840Y86175D01*
X308174Y85674D01*
X308675Y85339D01*
X309101Y84913D01*
X309658Y84683D01*
X310159Y84348D01*
X310750Y84231D01*
X311306Y84000D01*
X311909D01*
X312500Y83883D01*
X347500D01*
X348091Y84000D01*
X348694D01*
X349250Y84231D01*
X349841Y84348D01*
X350342Y84683D01*
X350899Y84913D01*
X351325Y85339D01*
X351826Y85674D01*
X352160Y86175D01*
X352587Y86601D01*
X352817Y87158D01*
X353152Y87659D01*
X353269Y88250D01*
X353500Y88806D01*
Y89409D01*
X353618Y90000D01*
X353500Y90591D01*
Y91194D01*
X353269Y91750D01*
X353152Y92341D01*
X352817Y92842D01*
X352587Y93399D01*
X352160Y93825D01*
X351826Y94326D01*
X351325Y94661D01*
X350899Y95087D01*
X350342Y95317D01*
X349841Y95652D01*
X349250Y95769D01*
X348694Y96000D01*
X348091D01*
X347500Y96117D01*
D02*
G37*
G36*
X427000Y50000D02*
X425500D01*
Y44500D01*
X431000D01*
Y46000D01*
X427000Y50000D01*
D02*
G37*
G36*
X420500D02*
X419000D01*
X415000Y46000D01*
Y44500D01*
X420500D01*
Y50000D01*
D02*
G37*
%LPD*%
G36*
X510005Y267274D02*
X509765Y266807D01*
X509566Y266321D01*
X509410Y265817D01*
X509297Y265294D01*
X509225Y264752D01*
X509196Y264192D01*
X509210Y263613D01*
X509265Y263015D01*
X509363Y262399D01*
X505434Y261651D01*
X505242Y262640D01*
X504059Y267244D01*
X503955Y267406D01*
X510288Y267722D01*
X510005Y267274D01*
D02*
G37*
G36*
X523848Y239662D02*
X523535Y240062D01*
X523125Y240505D01*
X522617Y240989D01*
X521308Y242081D01*
X519608Y243340D01*
X516325Y245540D01*
X517101Y249875D01*
X517726Y249479D01*
X518438Y249179D01*
X519236Y248975D01*
X520121Y248867D01*
X521092Y248855D01*
X522149Y248940D01*
X523292Y249121D01*
X524522Y249398D01*
X525838Y249771D01*
X527240Y250240D01*
X523848Y239662D01*
D02*
G37*
G36*
X417622Y250000D02*
X417596Y249825D01*
X417574Y249552D01*
X417514Y247492D01*
X417500Y244929D01*
X412500Y242594D01*
X412475Y243718D01*
X412401Y244708D01*
X412277Y245565D01*
X412104Y246287D01*
X411880Y246876D01*
X411608Y247331D01*
X411286Y247652D01*
X410914Y247839D01*
X410493Y247892D01*
X410022Y247812D01*
X417650Y250079D01*
X417622Y250000D01*
D02*
G37*
G36*
X417507Y232389D02*
X417667Y230046D01*
X417741Y229607D01*
X417828Y229227D01*
X417929Y228906D01*
X418042Y228643D01*
X418170Y228440D01*
X411830D01*
X411958Y228643D01*
X412071Y228906D01*
X412172Y229227D01*
X412259Y229607D01*
X412333Y230046D01*
X412440Y231100D01*
X412493Y232389D01*
X412500Y233123D01*
X417500D01*
X417507Y232389D01*
D02*
G37*
G36*
X472514Y245596D02*
X472946Y245051D01*
X473385Y244571D01*
X473830Y244154D01*
X474280Y243801D01*
X474737Y243513D01*
X475199Y243288D01*
X475668Y243128D01*
X476142Y243032D01*
X476623Y243000D01*
X472767Y240000D01*
X469977Y240193D01*
X472087Y246205D01*
X472514Y245596D01*
D02*
G37*
G36*
X468875Y237998D02*
X469000Y237992D01*
X469371Y237952D01*
X469493Y237931D01*
X469857Y237844D01*
X469977Y237807D01*
X470088Y237490D01*
X468750Y238000D01*
X468875Y237998D01*
D02*
G37*
G36*
X476623Y235000D02*
X476142Y234968D01*
X475668Y234872D01*
X475199Y234712D01*
X474737Y234487D01*
X474280Y234199D01*
X473830Y233846D01*
X473385Y233430D01*
X472946Y232949D01*
X472514Y232404D01*
X472087Y231795D01*
X470088Y237490D01*
X476623Y235000D01*
D02*
G37*
G36*
X495081Y210557D02*
X495064Y210468D01*
X495049Y210327D01*
X495016Y209596D01*
X495000Y207900D01*
X491000D01*
X490900Y210596D01*
X495100D01*
X495081Y210557D01*
D02*
G37*
G36*
X551486Y199496D02*
X550095Y200272D01*
X547572Y201487D01*
X546440Y201926D01*
X545395Y202253D01*
X544436Y202467D01*
X543563Y202568D01*
X542776Y202557D01*
X542076Y202434D01*
X541463Y202198D01*
X541370Y205465D01*
X542596Y206000D01*
X546706Y208071D01*
X547535Y208573D01*
X548956Y209555D01*
X549548Y210036D01*
X550061Y210510D01*
X551486Y199496D01*
D02*
G37*
G36*
X527560Y177830D02*
X527236Y178053D01*
X526873Y178251D01*
X526470Y178427D01*
X526027Y178579D01*
X525544Y178708D01*
X525022Y178813D01*
X524460Y178895D01*
X523217Y178988D01*
X522536Y179000D01*
Y183000D01*
X523217Y183012D01*
X524460Y183105D01*
X525022Y183187D01*
X525544Y183292D01*
X526027Y183421D01*
X526470Y183573D01*
X526873Y183749D01*
X527236Y183947D01*
X527560Y184170D01*
Y177830D01*
D02*
G37*
G36*
X405647Y162355D02*
X405175Y162114D01*
X404741Y161836D01*
X404346Y161520D01*
X403990Y161167D01*
X403673Y160777D01*
X403394Y160350D01*
X403154Y159885D01*
X402953Y159382D01*
X402791Y158843D01*
X402667Y158266D01*
X398357Y161536D01*
X400053Y165353D01*
X405647Y162355D01*
D02*
G37*
G36*
X402507Y148889D02*
X402667Y146546D01*
X402741Y146107D01*
X402828Y145727D01*
X402929Y145406D01*
X403042Y145143D01*
X403170Y144940D01*
X396830D01*
X396958Y145143D01*
X397071Y145406D01*
X397172Y145727D01*
X397259Y146107D01*
X397333Y146546D01*
X397440Y147600D01*
X397493Y148889D01*
X397500Y149622D01*
X402500D01*
X402507Y148889D01*
D02*
G37*
G36*
X403042Y139857D02*
X402929Y139594D01*
X402828Y139273D01*
X402741Y138893D01*
X402667Y138454D01*
X402560Y137400D01*
X402507Y136111D01*
X402500Y135378D01*
X397500D01*
X397493Y136111D01*
X397333Y138454D01*
X397259Y138893D01*
X397172Y139273D01*
X397071Y139594D01*
X396958Y139857D01*
X396830Y140060D01*
X403170D01*
X403042Y139857D01*
D02*
G37*
G36*
X402507Y128889D02*
X402667Y126546D01*
X402741Y126107D01*
X402828Y125727D01*
X402929Y125406D01*
X403042Y125143D01*
X403170Y124940D01*
X396830D01*
X396958Y125143D01*
X397071Y125406D01*
X397172Y125727D01*
X397259Y126107D01*
X397333Y126546D01*
X397440Y127600D01*
X397493Y128889D01*
X397500Y129622D01*
X402500D01*
X402507Y128889D01*
D02*
G37*
D10*
X501940Y188440D02*
G03*
X519900Y181000I17960J17960D01*
G01*
X493000Y207900D02*
G03*
X500439Y189939I25400J0D01*
G01*
X507000Y266250D02*
G03*
X529600Y243650I22600J0D01*
G01*
X519900Y181000D02*
X530000D01*
X500439Y189939D02*
X501940Y188440D01*
X493000Y207900D02*
Y214000D01*
X507000Y266250D02*
Y270000D01*
X555000Y230000D02*
Y230950D01*
D27*
X529600Y294450D02*
D03*
X555000Y281750D02*
D03*
X529600Y269050D02*
D03*
X555000Y256350D02*
D03*
X529600Y243650D02*
D03*
X555000Y230950D02*
D03*
X529600Y218250D02*
D03*
X555000Y205550D02*
D03*
D29*
X111636Y376636D02*
G03*
X118000Y392000I-15364J15364D01*
G01*
X162680Y362950D02*
G03*
X159191Y368809I-13296J-3949D01*
G01*
X299197Y27274D02*
G03*
X314021Y22500I14824J20626D01*
G01*
X531979D02*
G03*
X549939Y29939I0J25400D01*
G01*
X528479Y31000D02*
G03*
X546440Y38440I0J25400D01*
G01*
X298000Y53000D02*
G03*
X320000Y31000I22000J-0D01*
G01*
X543000Y438000D02*
G03*
X539000Y428343I9657J-9657D01*
G01*
X404000Y166000D02*
G03*
X400000Y156343I9657J-9657D01*
G01*
X288000Y48993D02*
G03*
X295439Y31032I25400J0D01*
G01*
X634561Y126560D02*
G03*
X642000Y144521I-17960J17960D01*
G01*
X647439Y270840D02*
G03*
X642000Y257707I13132J-13132D01*
G01*
X657439Y199039D02*
G03*
X650000Y181079I17960J-17960D01*
G01*
X642561Y122561D02*
G03*
X650000Y140521I-17960J17960D01*
G01*
X536879Y454879D02*
G03*
X539000Y460000I-5121J5121D01*
G01*
X163254Y359001D02*
G03*
X162680Y362950I-13870J0D01*
G01*
X267000Y254000D02*
Y278000D01*
X254000Y230000D02*
X295000D01*
X560000Y380000D02*
X561000Y379000D01*
X575000D01*
X571000Y420000D02*
X590000D01*
X571000Y461000D02*
X586000D01*
X105000Y370000D02*
X111636Y376636D01*
X135000Y341000D02*
X163000D01*
X135000Y293000D02*
X163000D01*
X151000Y377000D02*
X159191Y368809D01*
X320000Y31000D02*
X528479D01*
X314021Y22500D02*
X531979D01*
X315000Y356000D02*
Y390000D01*
X539000Y420000D02*
Y428343D01*
X400000Y142500D02*
Y156343D01*
X288000Y48993D02*
Y105000D01*
X295439Y31032D02*
X299197Y27274D01*
X298000Y53000D02*
Y111000D01*
X549939Y29939D02*
X642561Y122561D01*
X546440Y38440D02*
X634561Y126560D01*
X642000Y144521D02*
Y257707D01*
X657439Y199039D02*
X667500Y209100D01*
X650000Y140521D02*
Y181079D01*
X647439Y270840D02*
X667500Y290900D01*
X400000Y122500D02*
Y142500D01*
X415000Y226000D02*
Y250000D01*
X525000Y443000D02*
X536879Y454879D01*
X165000Y387500D02*
Y406000D01*
X262500Y220000D02*
X283000D01*
X253000Y133000D02*
Y167000D01*
D30*
X549147Y205550D02*
G03*
X536162Y200174I0J-18370D01*
G01*
X504000Y220000D02*
G03*
X487500Y236500I-16500J0D01*
G01*
X525752Y194000D02*
G03*
X532983Y196995I0J10226D01*
G01*
X504000Y210000D02*
G03*
X520000Y194000I16000J0D01*
G01*
X537000Y210586D02*
G03*
X536000Y213000I-3414J0D01*
G01*
X535646Y206729D02*
G03*
X537000Y210000I-3273J3271D01*
G01*
X535645Y206728D02*
G03*
X535646Y206729I-3272J3272D01*
G01*
X525737Y199000D02*
G03*
X529458Y200542I0J5263D01*
G01*
X509000Y210000D02*
G03*
X520000Y199000I11000J0D01*
G01*
X509000Y220000D02*
G03*
X487500Y241500I-21500J0D01*
G01*
X531563Y217437D02*
G03*
X529600Y218250I-1963J-1963D01*
G01*
X536162Y200174D02*
G03*
X536157Y200169I12985J-12994D01*
G01*
X262500Y220000D02*
X262500Y220000D01*
X549147Y205550D02*
X555000D01*
X468750Y236500D02*
X487500D01*
X504000Y210000D02*
Y220000D01*
X532983Y196995D02*
X536157Y200169D01*
X520000Y194000D02*
X525752D01*
X537000Y210000D02*
Y210586D01*
X509000Y210000D02*
Y220000D01*
X531563Y217437D02*
X536000Y213000D01*
X535645Y206728D02*
X535646Y206729D01*
X529458Y200542D02*
X535645Y206728D01*
X520000Y199000D02*
X525737D01*
X468750Y241500D02*
X487500D01*
D31*
X528000Y379000D02*
D03*
X560000D02*
D03*
X86000Y392000D02*
D03*
X118000D02*
D03*
X539000Y420000D02*
D03*
X571000D02*
D03*
X539000Y461000D02*
D03*
X571000D02*
D03*
D32*
X312500Y90000D02*
X327500D01*
X347500D01*
D33*
X120000Y465000D02*
D03*
D34*
X145400D02*
D03*
X196200D02*
D03*
X170800D02*
D03*
D35*
X667500Y290900D02*
D03*
Y316300D02*
D03*
Y209100D02*
D03*
Y183700D02*
D03*
D36*
X618500Y307150D02*
D03*
Y192850D02*
D03*
D37*
X588000Y327450D02*
D03*
Y172550D02*
D03*
D38*
X650000Y450000D02*
D03*
X50000Y50000D02*
D03*
Y450000D02*
D03*
D39*
X377000Y292000D02*
D03*
X423000Y42000D02*
D03*
X412681Y252564D02*
D03*
X455000Y354000D02*
D03*
D40*
X43000Y367000D02*
D03*
D41*
X39600Y301600D02*
D03*
X65000D02*
D03*
X39600Y276200D02*
D03*
X65000D02*
D03*
X39600Y250800D02*
D03*
X65000D02*
D03*
X39600Y225400D02*
D03*
X65000D02*
D03*
X39600Y200000D02*
D03*
D42*
X65000D02*
D03*
D43*
X400000Y350600D02*
D03*
Y399400D02*
D03*
X210000Y125600D02*
D03*
Y174400D02*
D03*
D44*
X650000Y50000D02*
D03*
D45*
X612000Y119000D02*
D03*
X326000Y392000D02*
D03*
X317000Y312000D02*
D03*
X195000Y430000D02*
D03*
X270000Y320000D02*
D03*
X211000D02*
D03*
X531000Y115000D02*
D03*
X540000Y82000D02*
D03*
X505000Y317000D02*
D03*
X549000Y341000D02*
D03*
X397000Y366000D02*
D03*
Y385000D02*
D03*
X267000Y278000D02*
D03*
X295000Y230000D02*
D03*
X439000Y399000D02*
D03*
X481000D02*
D03*
X435000Y345000D02*
D03*
X575000Y379000D02*
D03*
Y440000D02*
D03*
X590000Y420000D02*
D03*
X630000Y395000D02*
D03*
X586000Y461000D02*
D03*
X113890Y411437D02*
D03*
X120000Y370000D02*
D03*
X105000D02*
D03*
X96000Y413000D02*
D03*
X25000Y361000D02*
D03*
X114000Y329000D02*
D03*
X80000Y317000D02*
D03*
X86000Y288000D02*
D03*
X116000Y250000D02*
D03*
X141000Y236000D02*
D03*
X129000D02*
D03*
X218000Y112000D02*
D03*
X121000Y185000D02*
D03*
X117000Y236000D02*
D03*
X114000Y196000D02*
D03*
X163000Y341000D02*
D03*
Y293000D02*
D03*
X49000Y109000D02*
D03*
X361000Y40000D02*
D03*
X321000D02*
D03*
X373000Y449000D02*
D03*
X278000D02*
D03*
X315000D02*
D03*
X291000Y410000D02*
D03*
X220000Y446000D02*
D03*
X315000Y390000D02*
D03*
X555000Y440000D02*
D03*
X393000Y412000D02*
D03*
Y337000D02*
D03*
X458000Y311000D02*
D03*
X191000Y180000D02*
D03*
X192000Y111000D02*
D03*
X355000Y355000D02*
D03*
X336000Y325000D02*
D03*
X319000Y276000D02*
D03*
X395000Y305000D02*
D03*
X360000Y270000D02*
D03*
X324865Y251756D02*
D03*
X640000Y365000D02*
D03*
X674174Y393773D02*
D03*
X675000Y365000D02*
D03*
X481000Y426000D02*
D03*
X431000D02*
D03*
X481000Y450000D02*
D03*
X405832Y475967D02*
D03*
X330000Y475000D02*
D03*
X475000D02*
D03*
X430000Y449000D02*
D03*
X352000Y419000D02*
D03*
Y390000D02*
D03*
X176000Y405000D02*
D03*
X115000Y350000D02*
D03*
X140000Y365000D02*
D03*
X110000Y445000D02*
D03*
X25000Y328000D02*
D03*
X572000Y307000D02*
D03*
X597000Y204000D02*
D03*
X580000Y220000D02*
D03*
X570000Y255000D02*
D03*
X545000Y245000D02*
D03*
X507023Y283864D02*
D03*
X490000Y225000D02*
D03*
X465000Y215000D02*
D03*
X517770Y339972D02*
D03*
X275000Y53000D02*
D03*
X265000Y35000D02*
D03*
Y70000D02*
D03*
X393000Y40000D02*
D03*
X482000D02*
D03*
X630000Y215000D02*
D03*
X632000Y165000D02*
D03*
X570000Y75000D02*
D03*
X530000Y40000D02*
D03*
X509000Y115000D02*
D03*
X457000Y121000D02*
D03*
X443000D02*
D03*
X537000Y145000D02*
D03*
X562000D02*
D03*
X635000Y288000D02*
D03*
X464000Y340000D02*
D03*
X434000Y310000D02*
D03*
X400000Y276000D02*
D03*
X371000Y247000D02*
D03*
X398000D02*
D03*
X392000Y219000D02*
D03*
X315000Y175000D02*
D03*
X304517Y204614D02*
D03*
X360000Y209000D02*
D03*
X389600Y187521D02*
D03*
X378000Y192000D02*
D03*
X351000Y157000D02*
D03*
X335000Y141000D02*
D03*
X365000Y165000D02*
D03*
Y138000D02*
D03*
Y125000D02*
D03*
X352000D02*
D03*
X337000D02*
D03*
X319000D02*
D03*
X225000Y52500D02*
D03*
X487500Y282500D02*
D03*
X198000Y269000D02*
D03*
X205000Y287000D02*
D03*
X204000Y255000D02*
D03*
X185000D02*
D03*
X277000Y474000D02*
D03*
X269000Y400000D02*
D03*
X200000Y392000D02*
D03*
X280000Y342000D02*
D03*
X212000Y141000D02*
D03*
Y160000D02*
D03*
X330000Y157000D02*
D03*
X345000Y172000D02*
D03*
X315000Y142000D02*
D03*
X135000Y293000D02*
D03*
Y341000D02*
D03*
X404000Y166000D02*
D03*
X530000Y181000D02*
D03*
X543000Y399000D02*
D03*
X329000Y294000D02*
D03*
X374000Y423000D02*
D03*
X372000Y328000D02*
D03*
X543000Y438000D02*
D03*
X525000Y443000D02*
D03*
X165000Y406000D02*
D03*
X237000Y197000D02*
D03*
X262500Y220000D02*
D03*
X254000Y230000D02*
D03*
X283000Y220000D02*
D03*
X267000Y254000D02*
D03*
X151000Y377000D02*
D03*
X163254Y359001D02*
D03*
X288000Y105000D02*
D03*
X253000Y167000D02*
D03*
Y116000D02*
D03*
Y133000D02*
D03*
X298000Y111000D02*
D03*
X315000Y356000D02*
D03*
X507000Y270000D02*
D03*
X470000Y282500D02*
D03*
X369000Y52000D02*
D03*
X312500Y90000D02*
D03*
X327500D02*
D03*
X347500D02*
D03*
X425000Y81000D02*
D03*
X397500Y72500D02*
D03*
X400000Y122500D02*
D03*
Y142500D02*
D03*
X415000Y226000D02*
D03*
X468750Y244000D02*
D03*
Y234000D02*
D03*
X493000Y214000D02*
D03*
X165000Y387500D02*
D03*
X61000Y109000D02*
D03*
X25000Y105000D02*
D03*
X82000Y103000D02*
D03*
X92000Y98000D02*
D03*
X115000Y95000D02*
D03*
X73000Y109000D02*
D03*
M02*
