G04*
G04 #@! TF.GenerationSoftware,Altium Limited,Altium Designer,21.8.1 (53)*
G04*
G04 Layer_Color=8388736*
%FSLAX44Y44*%
%MOMM*%
G71*
G04*
G04 #@! TF.SameCoordinates,2E23119D-389B-4C9F-880A-4D3C85954969*
G04*
G04*
G04 #@! TF.FilePolarity,Negative*
G04*
G01*
G75*
G04:AMPARAMS|DCode=15|XSize=2.2mm|YSize=1.6mm|CornerRadius=0.45mm|HoleSize=0mm|Usage=FLASHONLY|Rotation=90.000|XOffset=0mm|YOffset=0mm|HoleType=Round|Shape=RoundedRectangle|*
%AMROUNDEDRECTD15*
21,1,2.2000,0.7000,0,0,90.0*
21,1,1.3000,1.6000,0,0,90.0*
1,1,0.9000,0.3500,0.6500*
1,1,0.9000,0.3500,-0.6500*
1,1,0.9000,-0.3500,-0.6500*
1,1,0.9000,-0.3500,0.6500*
%
%ADD15ROUNDEDRECTD15*%
G04:AMPARAMS|DCode=16|XSize=2.2mm|YSize=2.2mm|CornerRadius=0.6mm|HoleSize=0mm|Usage=FLASHONLY|Rotation=0.000|XOffset=0mm|YOffset=0mm|HoleType=Round|Shape=RoundedRectangle|*
%AMROUNDEDRECTD16*
21,1,2.2000,1.0000,0,0,0.0*
21,1,1.0000,2.2000,0,0,0.0*
1,1,1.2000,0.5000,-0.5000*
1,1,1.2000,-0.5000,-0.5000*
1,1,1.2000,-0.5000,0.5000*
1,1,1.2000,0.5000,0.5000*
%
%ADD16ROUNDEDRECTD16*%
%ADD17C,2.2000*%
%ADD18C,2.0000*%
%ADD19C,1.6000*%
%ADD20C,3.5000*%
%ADD21C,2.8000*%
%ADD22C,7.2000*%
%ADD23P,1.2989X8X112.5*%
%ADD24P,1.2989X8X22.5*%
%ADD25O,2.2000X1.8000*%
G04:AMPARAMS|DCode=26|XSize=1.8mm|YSize=2.2mm|CornerRadius=0.5mm|HoleSize=0mm|Usage=FLASHONLY|Rotation=90.000|XOffset=0mm|YOffset=0mm|HoleType=Round|Shape=RoundedRectangle|*
%AMROUNDEDRECTD26*
21,1,1.8000,1.2000,0,0,90.0*
21,1,0.8000,2.2000,0,0,90.0*
1,1,1.0000,0.6000,0.4000*
1,1,1.0000,0.6000,-0.4000*
1,1,1.0000,-0.6000,-0.4000*
1,1,1.0000,-0.6000,0.4000*
%
%ADD26ROUNDEDRECTD26*%
%ADD27C,1.4000*%
G04:AMPARAMS|DCode=28|XSize=7.2mm|YSize=7.2mm|CornerRadius=1.85mm|HoleSize=0mm|Usage=FLASHONLY|Rotation=0.000|XOffset=0mm|YOffset=0mm|HoleType=Round|Shape=RoundedRectangle|*
%AMROUNDEDRECTD28*
21,1,7.2000,3.5000,0,0,0.0*
21,1,3.5000,7.2000,0,0,0.0*
1,1,3.7000,1.7500,-1.7500*
1,1,3.7000,-1.7500,-1.7500*
1,1,3.7000,-1.7500,1.7500*
1,1,3.7000,1.7500,1.7500*
%
%ADD28ROUNDEDRECTD28*%
D15*
X528000Y379000D02*
D03*
X560000D02*
D03*
X86000Y392000D02*
D03*
X118000D02*
D03*
X539000Y420000D02*
D03*
X571000D02*
D03*
X539000Y461000D02*
D03*
X571000D02*
D03*
D16*
X120000Y465000D02*
D03*
D17*
X145400D02*
D03*
X196200D02*
D03*
X170800D02*
D03*
D18*
X667500Y290900D02*
D03*
Y316300D02*
D03*
Y209100D02*
D03*
Y183700D02*
D03*
D19*
X529600Y294450D02*
D03*
X555000Y281750D02*
D03*
X529600Y269050D02*
D03*
X555000Y256350D02*
D03*
X529600Y243650D02*
D03*
X555000Y230950D02*
D03*
X529600Y218250D02*
D03*
X555000Y205550D02*
D03*
D20*
X618500Y307150D02*
D03*
Y192850D02*
D03*
D21*
X588000Y327450D02*
D03*
Y172550D02*
D03*
D22*
X650000Y450000D02*
D03*
X50000Y50000D02*
D03*
Y450000D02*
D03*
D23*
X377000Y292000D02*
D03*
X423000Y42000D02*
D03*
X412681Y252564D02*
D03*
X455000Y354000D02*
D03*
D24*
X43000Y367000D02*
D03*
D25*
X39600Y301600D02*
D03*
X65000D02*
D03*
X39600Y276200D02*
D03*
X65000D02*
D03*
X39600Y250800D02*
D03*
X65000D02*
D03*
X39600Y225400D02*
D03*
X65000D02*
D03*
X39600Y200000D02*
D03*
D26*
X65000D02*
D03*
D27*
X400000Y350600D02*
D03*
Y399400D02*
D03*
X210000Y125600D02*
D03*
Y174400D02*
D03*
D28*
X650000Y50000D02*
D03*
M02*
