G04*
G04 #@! TF.GenerationSoftware,Altium Limited,Altium Designer,22.11.1 (43)*
G04*
G04 Layer_Color=32896*
%FSLAX44Y44*%
%MOMM*%
G71*
G04*
G04 #@! TF.SameCoordinates,8DE4AF9F-CAA2-4086-90C6-F3C8F64AD1A9*
G04*
G04*
G04 #@! TF.FilePolarity,Positive*
G04*
G01*
G75*
%ADD10C,0.4000*%
%ADD11C,0.2000*%
%ADD12C,0.2500*%
D10*
X365000Y173000D02*
G03*
X365000Y173000I-2000J0D01*
G01*
X280000Y398000D02*
G03*
X280000Y398000I-2000J0D01*
G01*
D11*
X463500Y253000D02*
Y277000D01*
X501500D01*
Y253000D02*
Y277000D01*
X463500Y253000D02*
X501500D01*
X463500Y288000D02*
Y312000D01*
X501500D01*
Y288000D02*
Y312000D01*
X463500Y288000D02*
X501500D01*
X421000Y269000D02*
Y293000D01*
X459000D01*
Y269000D02*
Y293000D01*
X421000Y269000D02*
X459000D01*
Y241000D02*
Y265000D01*
X421000Y241000D02*
X459000D01*
X421000D02*
Y265000D01*
X459000D01*
Y213000D02*
Y237000D01*
X421000Y213000D02*
X459000D01*
X421000D02*
Y237000D01*
X459000D01*
X309000Y119000D02*
Y181000D01*
Y119000D02*
X371000D01*
X309000Y181000D02*
X371000D01*
Y119000D02*
Y181000D01*
X421000Y185000D02*
Y209000D01*
X459000D01*
Y185000D02*
Y209000D01*
X421000Y185000D02*
X459000D01*
X459000Y157000D02*
Y181000D01*
X421000Y157000D02*
X459000D01*
X421000D02*
Y181000D01*
X459000D01*
X501000Y185000D02*
Y209000D01*
X463000Y185000D02*
X501000D01*
X463000D02*
Y209000D01*
X501000D01*
Y157000D02*
Y181000D01*
X463000Y157000D02*
X501000D01*
X463000D02*
Y181000D01*
X501000D01*
Y129000D02*
Y153000D01*
X463000Y129000D02*
X501000D01*
X463000D02*
Y153000D01*
X501000D01*
X538000Y151000D02*
X562000D01*
X538000D02*
Y189000D01*
X562000D01*
Y151000D02*
Y189000D01*
X636000Y333000D02*
Y357000D01*
X674000D01*
Y333000D02*
Y357000D01*
X636000Y333000D02*
X674000D01*
X632000Y351000D02*
Y389000D01*
X608000D02*
X632000D01*
X608000Y351000D02*
Y389000D01*
Y351000D02*
X632000D01*
X604000D02*
Y389000D01*
X580000D02*
X604000D01*
X580000Y351000D02*
Y389000D01*
Y351000D02*
X604000D01*
X545000D02*
X569000D01*
X545000D02*
Y389000D01*
X569000D01*
Y351000D02*
Y389000D01*
X168000Y261000D02*
X192000D01*
X168000D02*
Y299000D01*
X192000D01*
Y261000D02*
Y299000D01*
X210500Y284000D02*
X234500D01*
Y246000D02*
Y284000D01*
X210500Y246000D02*
X234500D01*
X210500D02*
Y284000D01*
X208000Y211000D02*
Y235000D01*
X246000D01*
Y211000D02*
Y235000D01*
X208000Y211000D02*
X246000D01*
X344000Y210000D02*
Y234000D01*
X306000Y210000D02*
X344000D01*
X306000D02*
Y234000D01*
X344000D01*
X319000Y248000D02*
Y272000D01*
X281000Y248000D02*
X319000D01*
X281000D02*
Y272000D01*
X319000D01*
X296000Y312000D02*
X334000D01*
X296000Y288000D02*
Y312000D01*
Y288000D02*
X334000D01*
Y312000D01*
X323000Y369000D02*
X347000D01*
Y331000D02*
Y369000D01*
X323000Y331000D02*
X347000D01*
X323000D02*
Y369000D01*
X363000Y371500D02*
X387000D01*
Y333500D02*
Y371500D01*
X363000Y333500D02*
X387000D01*
X363000D02*
Y371500D01*
Y378500D02*
X387000D01*
X363000D02*
Y416500D01*
X387000D01*
Y378500D02*
Y416500D01*
X346000Y407000D02*
Y431000D01*
X308000Y407000D02*
X346000D01*
X308000D02*
Y431000D01*
X346000D01*
X286000Y314000D02*
Y406000D01*
X194000Y314000D02*
X286000D01*
X194000Y406000D02*
X286000D01*
X194000Y314000D02*
Y406000D01*
X264000Y438000D02*
Y462000D01*
X226000Y438000D02*
X264000D01*
X226000D02*
Y462000D01*
X264000D01*
X166000Y411000D02*
X190000D01*
X166000D02*
Y449000D01*
X190000D01*
Y411000D02*
Y449000D01*
X138000Y411000D02*
X162000D01*
X138000D02*
Y449000D01*
X162000D01*
Y411000D02*
Y449000D01*
X121000Y383000D02*
Y407000D01*
X159000D01*
Y383000D02*
Y407000D01*
X121000Y383000D02*
X159000D01*
X83000Y331000D02*
X107000D01*
X83000D02*
Y369000D01*
X107000D01*
Y331000D02*
Y369000D01*
X123000Y292000D02*
X147000D01*
Y254000D02*
Y292000D01*
X123000Y254000D02*
X147000D01*
X123000D02*
Y292000D01*
Y244000D02*
X147000D01*
Y206000D02*
Y244000D01*
X123000Y206000D02*
X147000D01*
X123000D02*
Y244000D01*
X131000Y173000D02*
Y197000D01*
X169000D01*
Y173000D02*
Y197000D01*
X131000Y173000D02*
X169000D01*
X258000Y108000D02*
X282000D01*
X258000D02*
Y146000D01*
X282000D01*
Y108000D02*
Y146000D01*
X231000Y78000D02*
Y102000D01*
X269000D01*
X231000Y78000D02*
X269000D01*
Y102000D01*
X231000Y40500D02*
Y64500D01*
X269000D01*
X231000Y40500D02*
X269000D01*
Y64500D01*
X300500Y46000D02*
X324500D01*
X300500D02*
Y84000D01*
X324500D01*
Y46000D02*
Y84000D01*
X328000Y46000D02*
X352000D01*
X328000D02*
Y84000D01*
X352000D01*
Y46000D02*
Y84000D01*
X357000Y58000D02*
X381000D01*
X357000D02*
Y96000D01*
X381000D01*
Y58000D02*
Y96000D01*
X413000Y125000D02*
X437000D01*
Y87000D02*
Y125000D01*
X413000Y87000D02*
X437000D01*
X413000D02*
Y125000D01*
X385500Y78500D02*
X409500D01*
X385500D02*
Y116500D01*
X409500D01*
Y78500D02*
Y116500D01*
X273000Y61000D02*
X297000D01*
X273000D02*
Y99000D01*
X297000D01*
Y61000D02*
Y99000D01*
X223000Y146500D02*
X247000D01*
Y108500D02*
Y146500D01*
X223000Y108500D02*
X247000D01*
X223000D02*
Y146500D01*
X178000Y131000D02*
X202000D01*
X178000D02*
Y169000D01*
X202000D01*
Y131000D02*
Y169000D01*
X223000Y153500D02*
X247000D01*
X223000D02*
Y191500D01*
X247000D01*
Y153500D02*
Y191500D01*
X463000Y101000D02*
Y125000D01*
X501000D01*
Y101000D02*
Y125000D01*
X463000Y101000D02*
X501000D01*
X633000Y259000D02*
X657000D01*
Y221000D02*
Y259000D01*
X633000Y221000D02*
X657000D01*
X633000D02*
Y259000D01*
X91039Y281028D02*
X110539D01*
X91039Y248972D02*
X110539D01*
X91039D02*
Y258472D01*
Y271528D02*
Y281028D01*
Y246028D02*
X110539D01*
X91039Y213972D02*
X110539D01*
X91039D02*
Y223472D01*
Y236528D02*
Y246028D01*
X83000Y170000D02*
X107000D01*
X83000D02*
Y208000D01*
X107000D01*
Y170000D02*
Y208000D01*
X116000Y169000D02*
X144000D01*
X116000Y101000D02*
Y169000D01*
X144000Y101000D02*
Y169000D01*
X116000Y101000D02*
X144000D01*
X58000Y126000D02*
X82000D01*
X58000D02*
Y164000D01*
X82000D01*
Y126000D02*
Y164000D01*
X26000Y122000D02*
Y168000D01*
X13660Y115040D02*
X23820D01*
X18740Y109960D02*
Y120120D01*
X54000Y122000D02*
Y168000D01*
X421000Y153000D02*
X459000D01*
X421000Y129000D02*
Y153000D01*
Y129000D02*
X459000D01*
Y153000D01*
X83000Y286000D02*
Y324000D01*
Y286000D02*
X107000D01*
Y324000D01*
X83000D02*
X107000D01*
X602496Y395002D02*
Y404998D01*
X597498D01*
X595831Y403332D01*
Y400000D01*
X597498Y398334D01*
X602496D01*
X599164D02*
X595831Y395002D01*
X592499D02*
X589167D01*
X590833D01*
Y404998D01*
X592499Y403332D01*
X584169D02*
X582502Y404998D01*
X579170D01*
X577504Y403332D01*
Y401666D01*
X579170Y400000D01*
X580836D01*
X579170D01*
X577504Y398334D01*
Y396668D01*
X579170Y395002D01*
X582502D01*
X584169Y396668D01*
X662496Y380002D02*
Y389998D01*
X657498D01*
X655832Y388332D01*
Y385000D01*
X657498Y383334D01*
X662496D01*
X659164D02*
X655832Y380002D01*
X652499D02*
X649167D01*
X650833D01*
Y389998D01*
X652499Y388332D01*
X637504Y380002D02*
X644168D01*
X637504Y386666D01*
Y388332D01*
X639170Y389998D01*
X642502D01*
X644168Y388332D01*
X538331Y365002D02*
Y374998D01*
X533332D01*
X531666Y373332D01*
Y370000D01*
X533332Y368334D01*
X538331D01*
X534998D02*
X531666Y365002D01*
X528334Y373332D02*
X526668Y374998D01*
X523335D01*
X521669Y373332D01*
Y371666D01*
X523335Y370000D01*
X521669Y368334D01*
Y366668D01*
X523335Y365002D01*
X526668D01*
X528334Y366668D01*
Y368334D01*
X526668Y370000D01*
X528334Y371666D01*
Y373332D01*
X526668Y370000D02*
X523335D01*
X126664Y355002D02*
Y364998D01*
X121666D01*
X120000Y363332D01*
Y360000D01*
X121666Y358334D01*
X126664D01*
X123332D02*
X120000Y355002D01*
X116668D02*
X113336D01*
X115002D01*
Y364998D01*
X116668Y363332D01*
X405002Y171671D02*
X414998D01*
Y176669D01*
X413332Y178335D01*
X410000D01*
X408334Y176669D01*
Y171671D01*
Y175003D02*
X405002Y178335D01*
Y188332D02*
Y181668D01*
X411666Y188332D01*
X413332D01*
X414998Y186666D01*
Y183334D01*
X413332Y181668D01*
X405002Y198329D02*
Y191665D01*
X411666Y198329D01*
X413332D01*
X414998Y196663D01*
Y193331D01*
X413332Y191665D01*
X24998Y251671D02*
X18334D01*
X15002Y255003D01*
X18334Y258335D01*
X24998D01*
Y261668D02*
Y268332D01*
Y265000D01*
X15002D01*
Y278329D02*
Y271665D01*
X21666Y278329D01*
X23332D01*
X24998Y276663D01*
Y273331D01*
X23332Y271665D01*
X24998Y218337D02*
X18334D01*
X15002Y221669D01*
X18334Y225002D01*
X24998D01*
Y228334D02*
Y234998D01*
Y231666D01*
X15002D01*
Y238331D02*
Y241663D01*
Y239997D01*
X24998D01*
X23332Y238331D01*
X19998Y133337D02*
X13334D01*
X10002Y136669D01*
X13334Y140002D01*
X19998D01*
Y143334D02*
X10002D01*
Y148332D01*
X11668Y149998D01*
X18332D01*
X19998Y148332D01*
Y143334D01*
X10002Y153331D02*
Y156663D01*
Y154997D01*
X19998D01*
X18332Y153331D01*
X658329Y265002D02*
Y274998D01*
X653331D01*
X651665Y273332D01*
Y270000D01*
X653331Y268334D01*
X658329D01*
X654997D02*
X651665Y265002D01*
X641668D02*
X648332D01*
X641668Y271666D01*
Y273332D01*
X643334Y274998D01*
X646666D01*
X648332Y273332D01*
X638335Y266668D02*
X636669Y265002D01*
X633337D01*
X631671Y266668D01*
Y273332D01*
X633337Y274998D01*
X636669D01*
X638335Y273332D01*
Y271666D01*
X636669Y270000D01*
X631671D01*
X680002Y336671D02*
X689998D01*
Y341669D01*
X688332Y343335D01*
X685000D01*
X683334Y341669D01*
Y336671D01*
Y340003D02*
X680002Y343335D01*
Y353332D02*
Y346668D01*
X686666Y353332D01*
X688332D01*
X689998Y351666D01*
Y348334D01*
X688332Y346668D01*
Y356665D02*
X689998Y358331D01*
Y361663D01*
X688332Y363329D01*
X686666D01*
X685000Y361663D01*
X683334Y363329D01*
X681668D01*
X680002Y361663D01*
Y358331D01*
X681668Y356665D01*
X683334D01*
X685000Y358331D01*
X686666Y356665D01*
X688332D01*
X685000Y358331D02*
Y361663D01*
X496329Y317002D02*
Y326998D01*
X491331D01*
X489664Y325332D01*
Y322000D01*
X491331Y320334D01*
X496329D01*
X492997D02*
X489664Y317002D01*
X479668D02*
X486332D01*
X479668Y323666D01*
Y325332D01*
X481334Y326998D01*
X484666D01*
X486332Y325332D01*
X476335Y326998D02*
X469671D01*
Y325332D01*
X476335Y318668D01*
Y317002D01*
X416329Y283002D02*
Y292998D01*
X411331D01*
X409664Y291332D01*
Y288000D01*
X411331Y286334D01*
X416329D01*
X412997D02*
X409664Y283002D01*
X399668D02*
X406332D01*
X399668Y289666D01*
Y291332D01*
X401334Y292998D01*
X404666D01*
X406332Y291332D01*
X389671Y292998D02*
X393003Y291332D01*
X396335Y288000D01*
Y284668D01*
X394669Y283002D01*
X391337D01*
X389671Y284668D01*
Y286334D01*
X391337Y288000D01*
X396335D01*
X533329Y195002D02*
Y204998D01*
X528331D01*
X526665Y203332D01*
Y200000D01*
X528331Y198334D01*
X533329D01*
X529997D02*
X526665Y195002D01*
X516668D02*
X523332D01*
X516668Y201666D01*
Y203332D01*
X518334Y204998D01*
X521666D01*
X523332Y203332D01*
X506671Y204998D02*
X513335D01*
Y200000D01*
X510003Y201666D01*
X508337D01*
X506671Y200000D01*
Y196668D01*
X508337Y195002D01*
X511669D01*
X513335Y196668D01*
X494329Y86002D02*
Y95998D01*
X489331D01*
X487664Y94332D01*
Y91000D01*
X489331Y89334D01*
X494329D01*
X490997D02*
X487664Y86002D01*
X477668D02*
X484332D01*
X477668Y92666D01*
Y94332D01*
X479334Y95998D01*
X482666D01*
X484332Y94332D01*
X469337Y86002D02*
Y95998D01*
X474336Y91000D01*
X467671D01*
X416329Y202002D02*
Y211998D01*
X411331D01*
X409664Y210332D01*
Y207000D01*
X411331Y205334D01*
X416329D01*
X412997D02*
X409664Y202002D01*
X399668D02*
X406332D01*
X399668Y208666D01*
Y210332D01*
X401334Y211998D01*
X404666D01*
X406332Y210332D01*
X396335D02*
X394669Y211998D01*
X391337D01*
X389671Y210332D01*
Y208666D01*
X391337Y207000D01*
X393003D01*
X391337D01*
X389671Y205334D01*
Y203668D01*
X391337Y202002D01*
X394669D01*
X396335Y203668D01*
X405002Y133337D02*
X414998D01*
Y138336D01*
X413332Y140002D01*
X410000D01*
X408334Y138336D01*
Y133337D01*
Y136669D02*
X405002Y140002D01*
Y149998D02*
Y143334D01*
X411666Y149998D01*
X413332D01*
X414998Y148332D01*
Y145000D01*
X413332Y143334D01*
X405002Y153331D02*
Y156663D01*
Y154997D01*
X414998D01*
X413332Y153331D01*
X415329Y260002D02*
Y269998D01*
X410331D01*
X408665Y268332D01*
Y265000D01*
X410331Y263334D01*
X415329D01*
X411997D02*
X408665Y260002D01*
X398668D02*
X405332D01*
X398668Y266666D01*
Y268332D01*
X400334Y269998D01*
X403666D01*
X405332Y268332D01*
X395336D02*
X393669Y269998D01*
X390337D01*
X388671Y268332D01*
Y261668D01*
X390337Y260002D01*
X393669D01*
X395336Y261668D01*
Y268332D01*
X412204Y231388D02*
Y241385D01*
X407206D01*
X405539Y239718D01*
Y236386D01*
X407206Y234720D01*
X412204D01*
X408872D02*
X405539Y231388D01*
X402207D02*
X398875D01*
X400541D01*
Y241385D01*
X402207Y239718D01*
X393876Y233054D02*
X392210Y231388D01*
X388878D01*
X387212Y233054D01*
Y239718D01*
X388878Y241385D01*
X392210D01*
X393876Y239718D01*
Y238052D01*
X392210Y236386D01*
X387212D01*
X430002Y57504D02*
X439998D01*
Y62502D01*
X438332Y64169D01*
X435000D01*
X433334Y62502D01*
Y57504D01*
Y60836D02*
X430002Y64169D01*
Y67501D02*
Y70833D01*
Y69167D01*
X439998D01*
X438332Y67501D01*
Y75831D02*
X439998Y77498D01*
Y80830D01*
X438332Y82496D01*
X436666D01*
X435000Y80830D01*
X433334Y82496D01*
X431668D01*
X430002Y80830D01*
Y77498D01*
X431668Y75831D01*
X433334D01*
X435000Y77498D01*
X436666Y75831D01*
X438332D01*
X435000Y77498D02*
Y80830D01*
X372496Y230002D02*
Y239998D01*
X367498D01*
X365831Y238332D01*
Y235000D01*
X367498Y233334D01*
X372496D01*
X369164D02*
X365831Y230002D01*
X362499D02*
X359167D01*
X360833D01*
Y239998D01*
X362499Y238332D01*
X354169Y239998D02*
X347504D01*
Y238332D01*
X354169Y231668D01*
Y230002D01*
X349496Y260002D02*
Y269998D01*
X344498D01*
X342831Y268332D01*
Y265000D01*
X344498Y263334D01*
X349496D01*
X346164D02*
X342831Y260002D01*
X339499D02*
X336167D01*
X337833D01*
Y269998D01*
X339499Y268332D01*
X324504Y269998D02*
X327836Y268332D01*
X331169Y265000D01*
Y261668D01*
X329502Y260002D01*
X326170D01*
X324504Y261668D01*
Y263334D01*
X326170Y265000D01*
X331169D01*
X202496Y220002D02*
Y229998D01*
X197498D01*
X195832Y228332D01*
Y225000D01*
X197498Y223334D01*
X202496D01*
X199164D02*
X195832Y220002D01*
X192499D02*
X189167D01*
X190833D01*
Y229998D01*
X192499Y228332D01*
X177504Y229998D02*
X184168D01*
Y225000D01*
X180836Y226666D01*
X179170D01*
X177504Y225000D01*
Y221668D01*
X179170Y220002D01*
X182502D01*
X184168Y221668D01*
X199996Y117502D02*
Y127498D01*
X194998D01*
X193332Y125832D01*
Y122500D01*
X194998Y120834D01*
X199996D01*
X196664D02*
X193332Y117502D01*
X189999D02*
X186667D01*
X188333D01*
Y127498D01*
X189999Y125832D01*
X176670Y117502D02*
Y127498D01*
X181668Y122500D01*
X175004D01*
X240002Y254170D02*
X249998D01*
Y259168D01*
X248332Y260835D01*
X245000D01*
X243334Y259168D01*
Y254170D01*
Y257502D02*
X240002Y260835D01*
Y264167D02*
Y267499D01*
Y265833D01*
X249998D01*
X248332Y264167D01*
X240002Y272498D02*
Y275830D01*
Y274164D01*
X249998D01*
X248332Y272498D01*
X257496Y467002D02*
Y476998D01*
X252498D01*
X250832Y475332D01*
Y472000D01*
X252498Y470334D01*
X257496D01*
X254164D02*
X250832Y467002D01*
X247499D02*
X244167D01*
X245833D01*
Y476998D01*
X247499Y475332D01*
X239168D02*
X237502Y476998D01*
X234170D01*
X232504Y475332D01*
Y468668D01*
X234170Y467002D01*
X237502D01*
X239168Y468668D01*
Y475332D01*
X343331Y375002D02*
Y384998D01*
X338332D01*
X336666Y383332D01*
Y380000D01*
X338332Y378334D01*
X343331D01*
X339998D02*
X336666Y375002D01*
X333334Y376668D02*
X331668Y375002D01*
X328335D01*
X326669Y376668D01*
Y383332D01*
X328335Y384998D01*
X331668D01*
X333334Y383332D01*
Y381666D01*
X331668Y380000D01*
X326669D01*
X153331Y300002D02*
Y309998D01*
X148332D01*
X146666Y308332D01*
Y305000D01*
X148332Y303334D01*
X153331D01*
X149998D02*
X146666Y300002D01*
X143334Y309998D02*
X136669D01*
Y308332D01*
X143334Y301668D01*
Y300002D01*
X168331Y230002D02*
Y239998D01*
X163332D01*
X161666Y238332D01*
Y235000D01*
X163332Y233334D01*
X168331D01*
X164998D02*
X161666Y230002D01*
X151669Y239998D02*
X155002Y238332D01*
X158334Y235000D01*
Y231668D01*
X156668Y230002D01*
X153336D01*
X151669Y231668D01*
Y233334D01*
X153336Y235000D01*
X158334D01*
X128331Y315002D02*
Y324998D01*
X123332D01*
X121666Y323332D01*
Y320000D01*
X123332Y318334D01*
X128331D01*
X124998D02*
X121666Y315002D01*
X111669Y324998D02*
X118334D01*
Y320000D01*
X115002Y321666D01*
X113336D01*
X111669Y320000D01*
Y316668D01*
X113336Y315002D01*
X116668D01*
X118334Y316668D01*
X78331Y175002D02*
Y184998D01*
X73332D01*
X71666Y183332D01*
Y180000D01*
X73332Y178334D01*
X78331D01*
X74998D02*
X71666Y175002D01*
X63335D02*
Y184998D01*
X68334Y180000D01*
X61669D01*
X195002Y431669D02*
X204998D01*
Y436668D01*
X203332Y438334D01*
X200000D01*
X198334Y436668D01*
Y431669D01*
Y435002D02*
X195002Y438334D01*
X203332Y441666D02*
X204998Y443332D01*
Y446665D01*
X203332Y448331D01*
X201666D01*
X200000Y446665D01*
Y444998D01*
Y446665D01*
X198334Y448331D01*
X196668D01*
X195002Y446665D01*
Y443332D01*
X196668Y441666D01*
X133331Y425002D02*
Y434998D01*
X128332D01*
X126666Y433332D01*
Y430000D01*
X128332Y428334D01*
X133331D01*
X129998D02*
X126666Y425002D01*
X116669D02*
X123334D01*
X116669Y431666D01*
Y433332D01*
X118336Y434998D01*
X121668D01*
X123334Y433332D01*
X258331Y34998D02*
Y25002D01*
X251666D01*
X241669D02*
X248334D01*
X241669Y31666D01*
Y33332D01*
X243335Y34998D01*
X246668D01*
X248334Y33332D01*
X226665Y89998D02*
Y80002D01*
X220000D01*
X216668D02*
X213335D01*
X215002D01*
Y89998D01*
X216668Y88332D01*
X378329Y223998D02*
Y214002D01*
X373331D01*
X371665Y215668D01*
Y222332D01*
X373331Y223998D01*
X378329D01*
X368332D02*
Y214002D01*
X363334D01*
X361668Y215668D01*
Y222332D01*
X363334Y223998D01*
X368332D01*
X351671Y214002D02*
X358335D01*
X351671Y220666D01*
Y222332D01*
X353337Y223998D01*
X356669D01*
X358335Y222332D01*
X296663Y439998D02*
Y430002D01*
X291665D01*
X289998Y431668D01*
Y438332D01*
X291665Y439998D01*
X296663D01*
X286666D02*
Y430002D01*
X281668D01*
X280002Y431668D01*
Y438332D01*
X281668Y439998D01*
X286666D01*
X276669Y430002D02*
X273337D01*
X275003D01*
Y439998D01*
X276669Y438332D01*
X141663Y94998D02*
Y85002D01*
X136664D01*
X134998Y86668D01*
Y93332D01*
X136664Y94998D01*
X141663D01*
X131666Y85002D02*
Y91666D01*
X128334Y94998D01*
X125002Y91666D01*
Y85002D01*
Y90000D01*
X131666D01*
X121669Y85002D02*
X118337D01*
X120003D01*
Y94998D01*
X121669Y93332D01*
X586665Y153332D02*
X588331Y154998D01*
X591663D01*
X593329Y153332D01*
Y146668D01*
X591663Y145002D01*
X588331D01*
X586665Y146668D01*
X576668Y145002D02*
X583332D01*
X576668Y151666D01*
Y153332D01*
X578334Y154998D01*
X581666D01*
X583332Y153332D01*
X573335D02*
X571669Y154998D01*
X568337D01*
X566671Y153332D01*
Y146668D01*
X568337Y145002D01*
X571669D01*
X573335Y146668D01*
Y153332D01*
X496832Y247332D02*
X498498Y248998D01*
X501830D01*
X503496Y247332D01*
Y240668D01*
X501830Y239002D01*
X498498D01*
X496832Y240668D01*
X493499Y239002D02*
X490167D01*
X491833D01*
Y248998D01*
X493499Y247332D01*
X485168Y240668D02*
X483502Y239002D01*
X480170D01*
X478504Y240668D01*
Y247332D01*
X480170Y248998D01*
X483502D01*
X485168Y247332D01*
Y245666D01*
X483502Y244000D01*
X478504D01*
X513332Y164168D02*
X514998Y162502D01*
Y159170D01*
X513332Y157504D01*
X506668D01*
X505002Y159170D01*
Y162502D01*
X506668Y164168D01*
X505002Y167501D02*
Y170833D01*
Y169167D01*
X514998D01*
X513332Y167501D01*
Y175831D02*
X514998Y177498D01*
Y180830D01*
X513332Y182496D01*
X511666D01*
X510000Y180830D01*
X508334Y182496D01*
X506668D01*
X505002Y180830D01*
Y177498D01*
X506668Y175831D01*
X508334D01*
X510000Y177498D01*
X511666Y175831D01*
X513332D01*
X510000Y177498D02*
Y180830D01*
X523831Y143332D02*
X525498Y144998D01*
X528830D01*
X530496Y143332D01*
Y136668D01*
X528830Y135002D01*
X525498D01*
X523831Y136668D01*
X520499Y135002D02*
X517167D01*
X518833D01*
Y144998D01*
X520499Y143332D01*
X512169Y144998D02*
X505504D01*
Y143332D01*
X512169Y136668D01*
Y135002D01*
X353332Y24169D02*
X354998Y22502D01*
Y19170D01*
X353332Y17504D01*
X346668D01*
X345002Y19170D01*
Y22502D01*
X346668Y24169D01*
X345002Y27501D02*
Y30833D01*
Y29167D01*
X354998D01*
X353332Y27501D01*
X354998Y42496D02*
X353332Y39164D01*
X350000Y35831D01*
X346668D01*
X345002Y37498D01*
Y40830D01*
X346668Y42496D01*
X348334D01*
X350000Y40830D01*
Y35831D01*
X413332Y54169D02*
X414998Y52502D01*
Y49170D01*
X413332Y47504D01*
X406668D01*
X405002Y49170D01*
Y52502D01*
X406668Y54169D01*
X405002Y57501D02*
Y60833D01*
Y59167D01*
X414998D01*
X413332Y57501D01*
X414998Y72496D02*
Y65831D01*
X410000D01*
X411666Y69164D01*
Y70830D01*
X410000Y72496D01*
X406668D01*
X405002Y70830D01*
Y67498D01*
X406668Y65831D01*
X383332Y34169D02*
X384998Y32502D01*
Y29170D01*
X383332Y27504D01*
X376668D01*
X375002Y29170D01*
Y32502D01*
X376668Y34169D01*
X375002Y37501D02*
Y40833D01*
Y39167D01*
X384998D01*
X383332Y37501D01*
Y45831D02*
X384998Y47498D01*
Y50830D01*
X383332Y52496D01*
X381666D01*
X380000Y50830D01*
Y49164D01*
Y50830D01*
X378334Y52496D01*
X376668D01*
X375002Y50830D01*
Y47498D01*
X376668Y45831D01*
X275832Y158332D02*
X277498Y159998D01*
X280830D01*
X282496Y158332D01*
Y151668D01*
X280830Y150002D01*
X277498D01*
X275832Y151668D01*
X272499Y150002D02*
X269167D01*
X270833D01*
Y159998D01*
X272499Y158332D01*
X259170Y150002D02*
Y159998D01*
X264168Y155000D01*
X257504D01*
X288332Y39169D02*
X289998Y37502D01*
Y34170D01*
X288332Y32504D01*
X281668D01*
X280002Y34170D01*
Y37502D01*
X281668Y39169D01*
X280002Y42501D02*
Y45833D01*
Y44167D01*
X289998D01*
X288332Y42501D01*
X280002Y57496D02*
Y50831D01*
X286666Y57496D01*
X288332D01*
X289998Y55830D01*
Y52498D01*
X288332Y50831D01*
X313332Y25835D02*
X314998Y24169D01*
Y20836D01*
X313332Y19170D01*
X306668D01*
X305002Y20836D01*
Y24169D01*
X306668Y25835D01*
X305002Y29167D02*
Y32499D01*
Y30833D01*
X314998D01*
X313332Y29167D01*
X305002Y37498D02*
Y40830D01*
Y39164D01*
X314998D01*
X313332Y37498D01*
X210832Y193332D02*
X212498Y194998D01*
X215830D01*
X217496Y193332D01*
Y186668D01*
X215830Y185002D01*
X212498D01*
X210832Y186668D01*
X207499Y185002D02*
X204167D01*
X205833D01*
Y194998D01*
X207499Y193332D01*
X199168D02*
X197502Y194998D01*
X194170D01*
X192504Y193332D01*
Y186668D01*
X194170Y185002D01*
X197502D01*
X199168Y186668D01*
Y193332D01*
X211666Y110832D02*
X213332Y112498D01*
X216665D01*
X218331Y110832D01*
Y104168D01*
X216665Y102502D01*
X213332D01*
X211666Y104168D01*
X208334D02*
X206668Y102502D01*
X203335D01*
X201669Y104168D01*
Y110832D01*
X203335Y112498D01*
X206668D01*
X208334Y110832D01*
Y109166D01*
X206668Y107500D01*
X201669D01*
X176666Y313332D02*
X178332Y314998D01*
X181665D01*
X183331Y313332D01*
Y306668D01*
X181665Y305002D01*
X178332D01*
X176666Y306668D01*
X173334Y313332D02*
X171668Y314998D01*
X168335D01*
X166669Y313332D01*
Y311666D01*
X168335Y310000D01*
X166669Y308334D01*
Y306668D01*
X168335Y305002D01*
X171668D01*
X173334Y306668D01*
Y308334D01*
X171668Y310000D01*
X173334Y311666D01*
Y313332D01*
X171668Y310000D02*
X168335D01*
X351666Y308332D02*
X353332Y309998D01*
X356665D01*
X358331Y308332D01*
Y301668D01*
X356665Y300002D01*
X353332D01*
X351666Y301668D01*
X348334Y309998D02*
X341669D01*
Y308332D01*
X348334Y301668D01*
Y300002D01*
X331666Y444332D02*
X333332Y445998D01*
X336665D01*
X338331Y444332D01*
Y437668D01*
X336665Y436002D01*
X333332D01*
X331666Y437668D01*
X321669Y445998D02*
X325002Y444332D01*
X328334Y441000D01*
Y437668D01*
X326668Y436002D01*
X323335D01*
X321669Y437668D01*
Y439334D01*
X323335Y441000D01*
X328334D01*
X391666Y328332D02*
X393332Y329998D01*
X396665D01*
X398331Y328332D01*
Y321668D01*
X396665Y320002D01*
X393332D01*
X391666Y321668D01*
X381669Y329998D02*
X388334D01*
Y325000D01*
X385002Y326666D01*
X383335D01*
X381669Y325000D01*
Y321668D01*
X383335Y320002D01*
X386668D01*
X388334Y321668D01*
X390666Y429332D02*
X392332Y430998D01*
X395664D01*
X397331Y429332D01*
Y422668D01*
X395664Y421002D01*
X392332D01*
X390666Y422668D01*
X382336Y421002D02*
Y430998D01*
X387334Y426000D01*
X380669D01*
X106666Y408332D02*
X108332Y409998D01*
X111664D01*
X113331Y408332D01*
Y401668D01*
X111664Y400002D01*
X108332D01*
X106666Y401668D01*
X103334Y408332D02*
X101668Y409998D01*
X98336D01*
X96669Y408332D01*
Y406666D01*
X98336Y405000D01*
X100002D01*
X98336D01*
X96669Y403334D01*
Y401668D01*
X98336Y400002D01*
X101668D01*
X103334Y401668D01*
X166666Y213332D02*
X168332Y214998D01*
X171665D01*
X173331Y213332D01*
Y206668D01*
X171665Y205002D01*
X168332D01*
X166666Y206668D01*
X156669Y205002D02*
X163334D01*
X156669Y211666D01*
Y213332D01*
X158336Y214998D01*
X161668D01*
X163334Y213332D01*
X60000Y103332D02*
X61666Y104998D01*
X64998D01*
X66665Y103332D01*
Y96668D01*
X64998Y95002D01*
X61666D01*
X60000Y96668D01*
X56668Y95002D02*
X53335D01*
X55002D01*
Y104998D01*
X56668Y103332D01*
D12*
X384250Y184000D02*
G03*
X384250Y184000I-1250J0D01*
G01*
X299250Y404000D02*
G03*
X299250Y404000I-1250J0D01*
G01*
X101250Y101000D02*
G03*
X101250Y101000I-1250J0D01*
G01*
M02*
