G04*
G04 #@! TF.GenerationSoftware,Altium Limited,Altium Designer,22.11.1 (43)*
G04*
G04 Layer_Physical_Order=2*
G04 Layer_Color=16711680*
%FSLAX44Y44*%
%MOMM*%
G71*
G04*
G04 #@! TF.SameCoordinates,4B648768-BFFC-43AD-A596-386A4E8CEC00*
G04*
G04*
G04 #@! TF.FilePolarity,Positive*
G04*
G01*
G75*
%ADD10C,0.4000*%
%ADD20C,1.4000*%
%ADD28C,0.5000*%
%ADD29C,0.3000*%
G04:AMPARAMS|DCode=30|XSize=1.8mm|YSize=1mm|CornerRadius=0.25mm|HoleSize=0mm|Usage=FLASHONLY|Rotation=90.000|XOffset=0mm|YOffset=0mm|HoleType=Round|Shape=RoundedRectangle|*
%AMROUNDEDRECTD30*
21,1,1.8000,0.5000,0,0,90.0*
21,1,1.3000,1.0000,0,0,90.0*
1,1,0.5000,0.2500,0.6500*
1,1,0.5000,0.2500,-0.6500*
1,1,0.5000,-0.2500,-0.6500*
1,1,0.5000,-0.2500,0.6500*
%
%ADD30ROUNDEDRECTD30*%
%ADD31C,0.8000*%
G04:AMPARAMS|DCode=32|XSize=1mm|YSize=1mm|CornerRadius=0mm|HoleSize=0mm|Usage=FLASHONLY|Rotation=90.000|XOffset=0mm|YOffset=0mm|HoleType=Round|Shape=Octagon|*
%AMOCTAGOND32*
4,1,8,0.2500,0.5000,-0.2500,0.5000,-0.5000,0.2500,-0.5000,-0.2500,-0.2500,-0.5000,0.2500,-0.5000,0.5000,-0.2500,0.5000,0.2500,0.2500,0.5000,0.0*
%
%ADD32OCTAGOND32*%

G04:AMPARAMS|DCode=33|XSize=1mm|YSize=1mm|CornerRadius=0mm|HoleSize=0mm|Usage=FLASHONLY|Rotation=0.000|XOffset=0mm|YOffset=0mm|HoleType=Round|Shape=Octagon|*
%AMOCTAGOND33*
4,1,8,0.5000,-0.2500,0.5000,0.2500,0.2500,0.5000,-0.2500,0.5000,-0.5000,0.2500,-0.5000,-0.2500,-0.2500,-0.5000,0.2500,-0.5000,0.5000,-0.2500,0.0*
%
%ADD33OCTAGOND33*%

%ADD34O,2.0000X1.6000*%
G04:AMPARAMS|DCode=35|XSize=1.6mm|YSize=2mm|CornerRadius=0.4mm|HoleSize=0mm|Usage=FLASHONLY|Rotation=90.000|XOffset=0mm|YOffset=0mm|HoleType=Round|Shape=RoundedRectangle|*
%AMROUNDEDRECTD35*
21,1,1.6000,1.2000,0,0,90.0*
21,1,0.8000,2.0000,0,0,90.0*
1,1,0.8000,0.6000,0.4000*
1,1,0.8000,0.6000,-0.4000*
1,1,0.8000,-0.6000,-0.4000*
1,1,0.8000,-0.6000,0.4000*
%
%ADD35ROUNDEDRECTD35*%
%ADD36C,1.2000*%
%ADD37C,2.6000*%
%ADD38C,3.3000*%
%ADD39C,1.8000*%
%ADD40C,2.0000*%
G04:AMPARAMS|DCode=41|XSize=2mm|YSize=2mm|CornerRadius=0.5mm|HoleSize=0mm|Usage=FLASHONLY|Rotation=0.000|XOffset=0mm|YOffset=0mm|HoleType=Round|Shape=RoundedRectangle|*
%AMROUNDEDRECTD41*
21,1,2.0000,1.0000,0,0,0.0*
21,1,1.0000,2.0000,0,0,0.0*
1,1,1.0000,0.5000,-0.5000*
1,1,1.0000,-0.5000,-0.5000*
1,1,1.0000,-0.5000,0.5000*
1,1,1.0000,0.5000,0.5000*
%
%ADD41ROUNDEDRECTD41*%
%ADD42C,7.0000*%
%ADD43C,0.8000*%
G04:AMPARAMS|DCode=44|XSize=1.8mm|YSize=1mm|CornerRadius=0.25mm|HoleSize=0mm|Usage=FLASHONLY|Rotation=0.000|XOffset=0mm|YOffset=0mm|HoleType=Round|Shape=RoundedRectangle|*
%AMROUNDEDRECTD44*
21,1,1.8000,0.5000,0,0,0.0*
21,1,1.3000,1.0000,0,0,0.0*
1,1,0.5000,0.6500,-0.2500*
1,1,0.5000,-0.6500,-0.2500*
1,1,0.5000,-0.6500,0.2500*
1,1,0.5000,0.6500,0.2500*
%
%ADD44ROUNDEDRECTD44*%
G04:AMPARAMS|DCode=45|XSize=0.3mm|YSize=1.6mm|CornerRadius=0.075mm|HoleSize=0mm|Usage=FLASHONLY|Rotation=180.000|XOffset=0mm|YOffset=0mm|HoleType=Round|Shape=RoundedRectangle|*
%AMROUNDEDRECTD45*
21,1,0.3000,1.4500,0,0,180.0*
21,1,0.1500,1.6000,0,0,180.0*
1,1,0.1500,-0.0750,0.7250*
1,1,0.1500,0.0750,0.7250*
1,1,0.1500,0.0750,-0.7250*
1,1,0.1500,-0.0750,-0.7250*
%
%ADD45ROUNDEDRECTD45*%
G04:AMPARAMS|DCode=46|XSize=0.3mm|YSize=1.6mm|CornerRadius=0.075mm|HoleSize=0mm|Usage=FLASHONLY|Rotation=90.000|XOffset=0mm|YOffset=0mm|HoleType=Round|Shape=RoundedRectangle|*
%AMROUNDEDRECTD46*
21,1,0.3000,1.4500,0,0,90.0*
21,1,0.1500,1.6000,0,0,90.0*
1,1,0.1500,0.7250,0.0750*
1,1,0.1500,0.7250,-0.0750*
1,1,0.1500,-0.7250,-0.0750*
1,1,0.1500,-0.7250,0.0750*
%
%ADD46ROUNDEDRECTD46*%
%ADD47O,1.6000X0.3000*%
%ADD48O,0.3000X1.6000*%
G04:AMPARAMS|DCode=49|XSize=0.6mm|YSize=1.1mm|CornerRadius=0.15mm|HoleSize=0mm|Usage=FLASHONLY|Rotation=90.000|XOffset=0mm|YOffset=0mm|HoleType=Round|Shape=RoundedRectangle|*
%AMROUNDEDRECTD49*
21,1,0.6000,0.8000,0,0,90.0*
21,1,0.3000,1.1000,0,0,90.0*
1,1,0.3000,0.4000,0.1500*
1,1,0.3000,0.4000,-0.1500*
1,1,0.3000,-0.4000,-0.1500*
1,1,0.3000,-0.4000,0.1500*
%
%ADD49ROUNDEDRECTD49*%
G04:AMPARAMS|DCode=50|XSize=1.2mm|YSize=2.4mm|CornerRadius=0.3mm|HoleSize=0mm|Usage=FLASHONLY|Rotation=270.000|XOffset=0mm|YOffset=0mm|HoleType=Round|Shape=RoundedRectangle|*
%AMROUNDEDRECTD50*
21,1,1.2000,1.8000,0,0,270.0*
21,1,0.6000,2.4000,0,0,270.0*
1,1,0.6000,-0.9000,-0.3000*
1,1,0.6000,-0.9000,0.3000*
1,1,0.6000,0.9000,0.3000*
1,1,0.6000,0.9000,-0.3000*
%
%ADD50ROUNDEDRECTD50*%
G04:AMPARAMS|DCode=51|XSize=3.6mm|YSize=2.4mm|CornerRadius=0.6mm|HoleSize=0mm|Usage=FLASHONLY|Rotation=270.000|XOffset=0mm|YOffset=0mm|HoleType=Round|Shape=RoundedRectangle|*
%AMROUNDEDRECTD51*
21,1,3.6000,1.2000,0,0,270.0*
21,1,2.4000,2.4000,0,0,270.0*
1,1,1.2000,-0.6000,-1.2000*
1,1,1.2000,-0.6000,1.2000*
1,1,1.2000,0.6000,1.2000*
1,1,1.2000,0.6000,-1.2000*
%
%ADD51ROUNDEDRECTD51*%
G04:AMPARAMS|DCode=52|XSize=2.1mm|YSize=2.9mm|CornerRadius=0.525mm|HoleSize=0mm|Usage=FLASHONLY|Rotation=180.000|XOffset=0mm|YOffset=0mm|HoleType=Round|Shape=RoundedRectangle|*
%AMROUNDEDRECTD52*
21,1,2.1000,1.8500,0,0,180.0*
21,1,1.0500,2.9000,0,0,180.0*
1,1,1.0500,-0.5250,0.9250*
1,1,1.0500,0.5250,0.9250*
1,1,1.0500,0.5250,-0.9250*
1,1,1.0500,-0.5250,-0.9250*
%
%ADD52ROUNDEDRECTD52*%
G36*
X578042Y457357D02*
X577929Y457094D01*
X577828Y456773D01*
X577741Y456393D01*
X577667Y455954D01*
X577560Y454900D01*
X577507Y453611D01*
X577500Y452878D01*
X572500D01*
X572493Y453611D01*
X572333Y455954D01*
X572259Y456393D01*
X572172Y456773D01*
X572071Y457094D01*
X571958Y457357D01*
X571830Y457560D01*
X578170D01*
X578042Y457357D01*
D02*
G37*
G36*
X124996Y455018D02*
X124522Y454967D01*
X124097Y454817D01*
X123723Y454565D01*
X123399Y454213D01*
X123124Y453760D01*
X122899Y453207D01*
X122725Y452553D01*
X122600Y451799D01*
X122525Y450943D01*
X122500Y449988D01*
X117500D01*
X117475Y450943D01*
X117400Y451799D01*
X117275Y452553D01*
X117100Y453207D01*
X116875Y453760D01*
X116600Y454213D01*
X116275Y454565D01*
X115900Y454817D01*
X115475Y454968D01*
X115000Y455018D01*
X124996Y455018D01*
D02*
G37*
G36*
X180500Y451020D02*
X175506Y451000D01*
X180500D01*
X180525Y450048D01*
X180599Y449196D01*
X180723Y448444D01*
X180897Y447792D01*
X181120Y447241D01*
X181394Y446789D01*
X181716Y446439D01*
X182089Y446188D01*
X182511Y446037D01*
X182982Y445987D01*
X173018D01*
X173489Y446037D01*
X173911Y446188D01*
X174284Y446439D01*
X174606Y446789D01*
X174879Y447241D01*
X175103Y447792D01*
X175277Y448444D01*
X175401Y449196D01*
X175475Y450048D01*
X175500Y451000D01*
X175441Y451643D01*
X175263Y452233D01*
X174967Y452771D01*
X174552Y453257D01*
X174018Y453691D01*
X173367Y454072D01*
X172596Y454401D01*
X171707Y454678D01*
X170700Y454903D01*
X169574Y455075D01*
X179911Y460878D01*
X180500Y451020D01*
D02*
G37*
G36*
X154167Y460008D02*
X153817Y458961D01*
X153508Y457840D01*
X153014Y455381D01*
X152829Y454042D01*
X152582Y451146D01*
X152548Y449804D01*
X152600Y449207D01*
X152725Y448452D01*
X152900Y447798D01*
X153125Y447245D01*
X153400Y446792D01*
X153725Y446440D01*
X154100Y446189D01*
X154525Y446038D01*
X155000Y445987D01*
X148897D01*
X147500Y445223D01*
X147440Y445987D01*
X145000D01*
X145475Y446038D01*
X145900Y446189D01*
X146275Y446440D01*
X146600Y446792D01*
X146875Y447245D01*
X147051Y447679D01*
X146746Y448498D01*
X146159Y449651D01*
X145404Y450836D01*
X144482Y452051D01*
X143392Y453297D01*
X142135Y454574D01*
X139117Y457221D01*
X154558Y460983D01*
X154167Y460008D01*
D02*
G37*
G36*
X260037Y441529D02*
X259820Y441300D01*
X259627Y441033D01*
X259461Y440727D01*
X259320Y440382D01*
X259205Y439999D01*
X259115Y439578D01*
X259051Y439118D01*
X259013Y438619D01*
X259000Y438082D01*
X256000Y437982D01*
X255985Y438591D01*
X255940Y439132D01*
X255865Y439605D01*
X255760Y440010D01*
X255625Y440347D01*
X255460Y440616D01*
X255265Y440817D01*
X255040Y440950D01*
X254785Y441015D01*
X254500Y441013D01*
X260280Y441720D01*
X260037Y441529D01*
D02*
G37*
G36*
X186920Y421710D02*
X187014Y421456D01*
X187170Y421232D01*
X187389Y421038D01*
X187671Y420873D01*
X188015Y420739D01*
X188422Y420634D01*
X188891Y420560D01*
X189423Y420515D01*
X190018Y420500D01*
Y417500D01*
X189423Y417485D01*
X188891Y417440D01*
X188422Y417365D01*
X188015Y417261D01*
X187671Y417127D01*
X187389Y416962D01*
X187170Y416768D01*
X187014Y416544D01*
X186920Y416290D01*
X186889Y416006D01*
Y421994D01*
X186920Y421710D01*
D02*
G37*
G36*
X311013Y416000D02*
X310982Y416285D01*
X310891Y416540D01*
X310740Y416765D01*
X310528Y416960D01*
X310255Y417125D01*
X309922Y417260D01*
X309528Y417365D01*
X309073Y417440D01*
X308558Y417485D01*
X307982Y417500D01*
Y420500D01*
X308558Y420515D01*
X309073Y420560D01*
X309528Y420635D01*
X309922Y420740D01*
X310255Y420875D01*
X310528Y421040D01*
X310740Y421235D01*
X310891Y421460D01*
X310982Y421715D01*
X311013Y422000D01*
Y416000D01*
D02*
G37*
G36*
X278998Y421715D02*
X279089Y421460D01*
X279241Y421235D01*
X279453Y421040D01*
X279725Y420875D01*
X280059Y420740D01*
X280453Y420635D01*
X280907Y420560D01*
X281423Y420515D01*
X281998Y420500D01*
Y417500D01*
X281423Y417485D01*
X280907Y417440D01*
X280453Y417365D01*
X280059Y417260D01*
X279725Y417125D01*
X279453Y416960D01*
X279241Y416765D01*
X279089Y416540D01*
X278998Y416285D01*
X278968Y416000D01*
Y422000D01*
X278998Y421715D01*
D02*
G37*
G36*
X201032Y416000D02*
X201002Y416285D01*
X200911Y416540D01*
X200759Y416765D01*
X200547Y416960D01*
X200275Y417125D01*
X199941Y417260D01*
X199547Y417365D01*
X199093Y417440D01*
X198577Y417485D01*
X198002Y417500D01*
Y420500D01*
X198577Y420515D01*
X199093Y420560D01*
X199547Y420635D01*
X199941Y420740D01*
X200275Y420875D01*
X200547Y421040D01*
X200759Y421235D01*
X200911Y421460D01*
X201002Y421715D01*
X201032Y422000D01*
Y416000D01*
D02*
G37*
G36*
X603934Y477354D02*
X603568Y476807D01*
X600466Y470518D01*
X598212Y463876D01*
X596844Y456998D01*
X596385Y450000D01*
X596844Y443002D01*
X598212Y436124D01*
X600466Y429482D01*
X603568Y423193D01*
X607464Y417361D01*
X608139Y416592D01*
X605948Y414540D01*
X585684Y434805D01*
X585508Y434922D01*
X583044Y437924D01*
X581115Y441533D01*
X579928Y445449D01*
X579547Y449314D01*
X579588Y449521D01*
Y454586D01*
X579595Y454755D01*
X579689Y455683D01*
X579742Y455996D01*
X579798Y456240D01*
X579831Y456346D01*
X580087Y456601D01*
X581000Y458806D01*
Y461194D01*
X580087Y463399D01*
X578399Y465087D01*
X576194Y466000D01*
X573806D01*
X571601Y465087D01*
X569913Y463399D01*
X569000Y461194D01*
Y458806D01*
X569913Y456601D01*
X570169Y456346D01*
X570202Y456240D01*
X570258Y455996D01*
X570305Y455715D01*
X570412Y454157D01*
Y449521D01*
X570407D01*
X570777Y444829D01*
X571875Y440253D01*
X573676Y435905D01*
X576136Y431892D01*
X579192Y428313D01*
X579144Y428025D01*
X576193Y426000D01*
X573806D01*
X571601Y425087D01*
X569913Y423399D01*
X569000Y421194D01*
Y418806D01*
X569913Y416601D01*
X570587Y415928D01*
X571774Y412197D01*
X571822Y412110D01*
X572206Y410843D01*
X574417Y406706D01*
X577393Y403080D01*
X577412Y403099D01*
X577413Y403099D01*
X581316Y399195D01*
X581492Y399078D01*
X583956Y396076D01*
X585885Y392467D01*
X586303Y391088D01*
X586046Y390128D01*
X584722Y387934D01*
X583744Y387739D01*
X582256Y386744D01*
X581746Y385982D01*
X578562Y385127D01*
X578186Y385175D01*
X576194Y386000D01*
X573806D01*
X572739Y385558D01*
X572586Y385588D01*
X569737D01*
X569522Y385602D01*
X568898Y385677D01*
X568363Y385776D01*
X567918Y385893D01*
X567567Y386021D01*
X567309Y386147D01*
X567137Y386260D01*
X567037Y386350D01*
X566871Y386557D01*
X566868Y386559D01*
X566744Y386744D01*
X566268Y387063D01*
X566261Y387068D01*
X566258Y387069D01*
X565256Y387739D01*
X563500Y388088D01*
X550500D01*
X548744Y387739D01*
X547256Y386744D01*
X546261Y385256D01*
X545912Y383500D01*
Y378500D01*
X546261Y376744D01*
X546558Y374442D01*
X546116Y373780D01*
X545961Y373000D01*
Y367000D01*
X546056Y366521D01*
X545790Y365706D01*
X544468Y363621D01*
X544104Y363588D01*
X474521D01*
Y363592D01*
X470867Y363305D01*
X470810Y363308D01*
X470693Y363291D01*
X469829Y363223D01*
X469250Y363084D01*
X468216Y362936D01*
X467018Y362827D01*
X466684Y362816D01*
X466500Y363000D01*
X465642D01*
X465629Y363004D01*
X465601Y363000D01*
X459500D01*
X456000Y359500D01*
Y357103D01*
X453313Y354808D01*
X453316Y354805D01*
X388000Y289489D01*
X385000Y290731D01*
Y296000D01*
X381000Y300000D01*
X379500D01*
Y292000D01*
X377000D01*
Y289500D01*
X369000D01*
Y288000D01*
X373000Y284000D01*
X378269D01*
X379511Y281000D01*
X349195Y250684D01*
X349078Y250508D01*
X346076Y248044D01*
X342467Y246115D01*
X338551Y244928D01*
X334686Y244547D01*
X334479Y244588D01*
X315414D01*
X315245Y244595D01*
X314717Y244649D01*
X314679Y244883D01*
X314569Y246277D01*
Y248662D01*
X314585Y248862D01*
X314629Y249136D01*
X315256Y249261D01*
X316744Y250256D01*
X317739Y251744D01*
X318088Y253500D01*
Y266500D01*
X317739Y268256D01*
X316744Y269744D01*
X315256Y270739D01*
X313500Y271088D01*
X308500D01*
X306744Y270739D01*
X304442Y270442D01*
X303780Y270884D01*
X303000Y271039D01*
X297000D01*
X296220Y270884D01*
X295558Y270442D01*
X293256Y270739D01*
X292482Y270893D01*
X292424Y271047D01*
X292337Y271359D01*
X292296Y271556D01*
X292211Y272421D01*
X291067Y276191D01*
X289210Y279665D01*
X286711Y282711D01*
X285832Y283431D01*
X286906Y286431D01*
X290000D01*
Y286387D01*
X293435Y286839D01*
X296635Y288164D01*
X298846Y289861D01*
X299744Y289261D01*
X301500Y288912D01*
X306500D01*
X308256Y289261D01*
X310558Y289558D01*
X311220Y289116D01*
X312000Y288961D01*
X318000D01*
X318780Y289116D01*
X319442Y289558D01*
X321354Y288319D01*
X323500Y287892D01*
Y300000D01*
Y312108D01*
X321354Y311681D01*
X319442Y310442D01*
X318780Y310884D01*
X318000Y311039D01*
X315658D01*
X314240Y314039D01*
X315671Y315783D01*
X317832Y319827D01*
X319163Y324215D01*
X319613Y328778D01*
X319613Y328778D01*
X320306Y331491D01*
X321188Y332812D01*
X323039Y334048D01*
X324528Y334345D01*
X325256Y333256D01*
X326744Y332261D01*
X328500Y331912D01*
X341500D01*
X343256Y332261D01*
X344744Y333256D01*
X345739Y334744D01*
X346088Y336500D01*
Y341500D01*
X345739Y343256D01*
X345442Y345558D01*
X345884Y346220D01*
X346039Y347000D01*
Y353000D01*
X345884Y353780D01*
X345442Y354442D01*
X345739Y356744D01*
X346088Y358500D01*
Y363500D01*
X345739Y365256D01*
X345288Y365931D01*
X346328Y368595D01*
X346616Y368931D01*
X348964D01*
X349059Y368950D01*
X349987Y368766D01*
X352437Y367437D01*
X352437D01*
X356349Y364227D01*
X360813Y361841D01*
X362247Y361406D01*
X362288Y361378D01*
X362386Y361357D01*
X362474Y361309D01*
X362989Y361146D01*
X363380Y360999D01*
X363687Y360858D01*
X363908Y360733D01*
X363974Y360686D01*
X364261Y359244D01*
X364558Y356942D01*
X364116Y356280D01*
X363961Y355500D01*
Y349500D01*
X364116Y348720D01*
X364558Y348058D01*
X363319Y346146D01*
X362892Y344000D01*
X387108D01*
X386681Y346146D01*
X385442Y348058D01*
X385884Y348720D01*
X386039Y349500D01*
Y354330D01*
X388200Y355932D01*
X388981Y356088D01*
X391927Y353671D01*
X392016Y353537D01*
X392402Y353152D01*
X392000Y351653D01*
Y349547D01*
X392545Y347512D01*
X393598Y345688D01*
X395088Y344198D01*
X396912Y343145D01*
X398947Y342600D01*
X401053D01*
X403088Y343145D01*
X404912Y344198D01*
X406402Y345688D01*
X407455Y347512D01*
X408000Y349547D01*
Y351653D01*
X407796Y352414D01*
X407788Y352594D01*
X407504Y353744D01*
X407253Y354987D01*
X408045Y356575D01*
X411131Y357671D01*
X411744Y357261D01*
X413500Y356912D01*
X426500D01*
X428256Y357261D01*
X429744Y358256D01*
X430739Y359744D01*
X431088Y361500D01*
Y366500D01*
X430739Y368256D01*
X430442Y370558D01*
X430884Y371220D01*
X431039Y372000D01*
Y378000D01*
X430884Y378780D01*
X430442Y379442D01*
X430739Y381744D01*
X431088Y383500D01*
Y388500D01*
X430739Y390256D01*
X429744Y391744D01*
X428256Y392739D01*
X426500Y393088D01*
X413500D01*
X411744Y392739D01*
X410256Y391744D01*
X408531Y391908D01*
X407900Y392459D01*
X407613Y392821D01*
X406882Y394357D01*
X406713Y394902D01*
X407006Y395460D01*
X407052Y395615D01*
X407455Y396312D01*
X408000Y398347D01*
Y400453D01*
X407455Y402488D01*
X406402Y404312D01*
X404912Y405802D01*
X403088Y406855D01*
X401053Y407400D01*
X398947D01*
X396912Y406855D01*
X395088Y405802D01*
X393598Y404312D01*
X392545Y402488D01*
X392000Y400453D01*
Y398347D01*
X392402Y396848D01*
X392016Y396463D01*
X391927Y396329D01*
X388981Y393912D01*
X388200Y394068D01*
X386039Y395670D01*
Y400500D01*
X385884Y401280D01*
X385442Y401942D01*
X386681Y403854D01*
X387108Y406000D01*
X375000D01*
X362892D01*
X363319Y403854D01*
X364558Y401942D01*
X364116Y401280D01*
X363961Y400500D01*
Y394500D01*
X364116Y393720D01*
X364558Y393058D01*
X364261Y390756D01*
X363974Y389314D01*
X363908Y389267D01*
X363687Y389142D01*
X363380Y389001D01*
X362989Y388854D01*
X362474Y388691D01*
X362386Y388643D01*
X362288Y388622D01*
X362247Y388594D01*
X360813Y388159D01*
X356349Y385773D01*
X352437Y382563D01*
X352437D01*
X349987Y381234D01*
X349059Y381050D01*
X348964Y381069D01*
X316359D01*
X316194Y384000D01*
X318399Y384913D01*
X320087Y386601D01*
X321000Y388806D01*
Y391194D01*
X320588Y392188D01*
Y406263D01*
X320602Y406478D01*
X320604Y406493D01*
X322654Y407765D01*
X323521Y408056D01*
X324000Y407961D01*
X330000D01*
X330780Y408116D01*
X331442Y408558D01*
X333354Y407319D01*
X335500Y406892D01*
X335500D01*
Y419000D01*
X338000D01*
Y421500D01*
X346108D01*
Y425500D01*
X345681Y427646D01*
X345156Y428431D01*
X346511Y431431D01*
X540000Y431431D01*
X541366Y431703D01*
X541810Y432000D01*
X544193D01*
X546399Y432913D01*
X548087Y434601D01*
X549000Y436806D01*
Y439193D01*
X548087Y441399D01*
X546399Y443087D01*
X544193Y444000D01*
X541806D01*
X539601Y443087D01*
X537914Y441399D01*
X537000Y439193D01*
Y438569D01*
X532906D01*
X530901Y441569D01*
X531000Y441806D01*
Y444193D01*
X530087Y446399D01*
X528399Y448087D01*
X526194Y449000D01*
X523806D01*
X521601Y448087D01*
X519913Y446399D01*
X519000Y444193D01*
Y443569D01*
X282980D01*
X280000Y443569D01*
X279988Y443679D01*
X279985Y443678D01*
X279876Y443569D01*
X275000D01*
Y443577D01*
X271863Y443269D01*
X268848Y442354D01*
X266068Y440868D01*
X265258Y440204D01*
X263493Y441283D01*
X262804Y442070D01*
X263088Y443500D01*
Y456500D01*
X262739Y458256D01*
X261744Y459744D01*
X260256Y460739D01*
X258500Y461088D01*
X253500D01*
X251744Y460739D01*
X249442Y460442D01*
X248780Y460884D01*
X248000Y461039D01*
X242000D01*
X241220Y460884D01*
X240558Y460442D01*
X238646Y461681D01*
X236500Y462108D01*
Y450000D01*
Y437892D01*
X238646Y438319D01*
X240558Y439558D01*
X241220Y439116D01*
X242000Y438961D01*
X248000D01*
X248780Y439116D01*
X249442Y439558D01*
X251744Y439261D01*
X253500Y438912D01*
X253910D01*
X253914Y438887D01*
X253931Y438679D01*
Y430843D01*
X252563Y428191D01*
X251621Y427894D01*
X251134Y427797D01*
X250973Y427689D01*
X249652Y427272D01*
X248866Y427797D01*
X247500Y428069D01*
X246134Y427797D01*
X245000Y427039D01*
X243866Y427797D01*
X242500Y428069D01*
X241134Y427797D01*
X240000Y427039D01*
X238866Y427797D01*
X237500Y428069D01*
X236134Y427797D01*
X235000Y427039D01*
X233866Y427797D01*
X232500Y428069D01*
X231134Y427797D01*
X230000Y427039D01*
X228866Y427797D01*
X227500Y428069D01*
X226134Y427797D01*
X225000Y427039D01*
X223866Y427797D01*
X222500Y428069D01*
X221134Y427797D01*
X220000Y427039D01*
X218866Y427797D01*
X217500Y428069D01*
X216134Y427797D01*
X215000Y427039D01*
X213866Y427797D01*
X212500Y428069D01*
X211134Y427797D01*
X210000Y427039D01*
X208866Y427797D01*
X207500Y428069D01*
X206134Y427797D01*
X205000Y427039D01*
X203866Y427797D01*
X202500Y428069D01*
X201134Y427797D01*
X199977Y427023D01*
X199203Y425866D01*
X198931Y424500D01*
Y422600D01*
X198838Y422585D01*
X198653Y422569D01*
X189337D01*
X189138Y422585D01*
X188684Y423680D01*
X188442Y425558D01*
X188884Y426220D01*
X189039Y427000D01*
Y433000D01*
X188884Y433780D01*
X188442Y434442D01*
X188739Y436744D01*
X189088Y438500D01*
Y443500D01*
X188739Y445256D01*
X187744Y446744D01*
X186256Y447739D01*
X184500Y448088D01*
X182991D01*
X182949Y448157D01*
X182601Y451000D01*
X182601D01*
X182571Y451225D01*
X182370Y453910D01*
X182167Y457305D01*
X185120Y458192D01*
X185797Y457018D01*
X188218Y454597D01*
X191182Y452886D01*
X193700Y452211D01*
Y465000D01*
X196200D01*
Y467500D01*
X208989D01*
X208314Y470018D01*
X206603Y472982D01*
X204182Y475403D01*
X201415Y477000D01*
X201333Y477280D01*
X202762Y480000D01*
X602519D01*
X603934Y477354D01*
D02*
G37*
G36*
X304500Y417500D02*
X303930Y417470D01*
X303420Y417380D01*
X302970Y417230D01*
X302580Y417020D01*
X302250Y416750D01*
X301980Y416420D01*
X301770Y416030D01*
X301620Y415580D01*
X301530Y415070D01*
X301500Y414500D01*
X298500D01*
X298470Y415070D01*
X298380Y415580D01*
X298230Y416030D01*
X298020Y416420D01*
X297750Y416750D01*
X297420Y417020D01*
X297030Y417230D01*
X296580Y417380D01*
X296070Y417470D01*
X295500Y417500D01*
X300000Y420500D01*
X304500Y417500D01*
D02*
G37*
G36*
X578431Y417849D02*
X578302Y417412D01*
X578218Y416957D01*
X578180Y416485D01*
X578187Y415994D01*
X578240Y415486D01*
X578337Y414961D01*
X578480Y414417D01*
X578669Y413856D01*
X578903Y413276D01*
X573717Y412815D01*
X572398Y416962D01*
X578605Y418268D01*
X578431Y417849D01*
D02*
G37*
G36*
X273931Y411500D02*
X274203Y410134D01*
X274976Y408976D01*
X275000Y408960D01*
Y407758D01*
X275744Y408256D01*
X275840Y408400D01*
X276134Y408203D01*
X277500Y407931D01*
X278866Y408203D01*
X280023Y408977D01*
X280797Y410134D01*
X281069Y411500D01*
Y415400D01*
X281162Y415415D01*
X281347Y415431D01*
X295888D01*
X296078Y415398D01*
X296218Y415351D01*
X296281Y415317D01*
X296301Y415301D01*
X296318Y415281D01*
X296351Y415218D01*
X296398Y415078D01*
X296431Y414888D01*
Y401069D01*
X291500D01*
X290134Y400797D01*
X288977Y400023D01*
X288203Y398866D01*
X287931Y397500D01*
X288203Y396134D01*
X288961Y395000D01*
X288203Y393866D01*
X287931Y392500D01*
X288203Y391134D01*
X288961Y390000D01*
X288203Y388866D01*
X287931Y387500D01*
X288203Y386134D01*
X288961Y385000D01*
X288203Y383866D01*
X287931Y382500D01*
X288203Y381134D01*
X288961Y380000D01*
X288203Y378866D01*
X287931Y377500D01*
X288203Y376134D01*
X288961Y375000D01*
X288203Y373866D01*
X287931Y372500D01*
X288203Y371134D01*
X288961Y370000D01*
X288203Y368866D01*
X287931Y367500D01*
X288203Y366134D01*
X288961Y365000D01*
X288203Y363866D01*
X287931Y362500D01*
X288203Y361134D01*
X288961Y360000D01*
X288203Y358866D01*
X287931Y357500D01*
X288203Y356134D01*
X288961Y355000D01*
X288203Y353866D01*
X287931Y352500D01*
X288203Y351134D01*
X288961Y350000D01*
X288203Y348866D01*
X287931Y347500D01*
X288203Y346134D01*
X288400Y345840D01*
X288256Y345744D01*
X287758Y345000D01*
X288960D01*
X288976Y344976D01*
X290134Y344203D01*
X291500Y343931D01*
X298000D01*
Y341069D01*
X291500D01*
X290134Y340797D01*
X288976Y340024D01*
X288960Y340000D01*
X287758D01*
X288256Y339256D01*
X288400Y339160D01*
X288203Y338866D01*
X287931Y337500D01*
X288203Y336134D01*
X288961Y335000D01*
X288203Y333866D01*
X287931Y332500D01*
X288203Y331134D01*
X288961Y330000D01*
X288203Y328866D01*
X287931Y327500D01*
X288203Y326134D01*
X288961Y325000D01*
X288203Y323866D01*
X287931Y322500D01*
X288203Y321134D01*
X288977Y319977D01*
X290134Y319203D01*
X291500Y318931D01*
X302200D01*
X302872Y318189D01*
X303631Y315931D01*
X302702Y314720D01*
X301744Y312409D01*
X301571Y311088D01*
X301500D01*
X299744Y310739D01*
X298256Y309744D01*
X297634Y308814D01*
X297433Y308821D01*
X297122Y308895D01*
X296158Y309188D01*
X295698Y309233D01*
X293802Y309683D01*
X293399Y310087D01*
X291194Y311000D01*
X288806D01*
X286601Y310087D01*
X284914Y308399D01*
X284000Y306194D01*
X281069Y306359D01*
Y308500D01*
X280797Y309866D01*
X280023Y311023D01*
X278866Y311797D01*
X277500Y312069D01*
X276134Y311797D01*
X275840Y311600D01*
X275744Y311744D01*
X275000Y312242D01*
Y311040D01*
X274976Y311024D01*
X274203Y309866D01*
X273931Y308500D01*
Y302000D01*
X271069D01*
Y308500D01*
X270797Y309866D01*
X270024Y311024D01*
X270000Y311040D01*
Y312242D01*
X269256Y311744D01*
X269160Y311600D01*
X268866Y311797D01*
X267500Y312069D01*
X266134Y311797D01*
X265000Y311039D01*
X263866Y311797D01*
X262500Y312069D01*
X261134Y311797D01*
X260000Y311039D01*
X258866Y311797D01*
X257500Y312069D01*
X256134Y311797D01*
X255000Y311039D01*
X253866Y311797D01*
X252500Y312069D01*
X251134Y311797D01*
X250000Y311039D01*
X248866Y311797D01*
X247500Y312069D01*
X246134Y311797D01*
X245000Y311039D01*
X243866Y311797D01*
X242500Y312069D01*
X241134Y311797D01*
X240000Y311039D01*
X238866Y311797D01*
X237500Y312069D01*
X236134Y311797D01*
X235000Y311039D01*
X233866Y311797D01*
X232500Y312069D01*
X231134Y311797D01*
X230000Y311039D01*
X228866Y311797D01*
X227500Y312069D01*
X226134Y311797D01*
X225000Y311039D01*
X223866Y311797D01*
X222500Y312069D01*
X221134Y311797D01*
X220000Y311039D01*
X218866Y311797D01*
X217500Y312069D01*
X216134Y311797D01*
X215000Y311039D01*
X213866Y311797D01*
X212500Y312069D01*
X211134Y311797D01*
X210840Y311600D01*
X210744Y311744D01*
X210000Y312242D01*
Y311040D01*
X209976Y311024D01*
X209203Y309866D01*
X208931Y308500D01*
Y302000D01*
Y295500D01*
X209203Y294134D01*
X209976Y292976D01*
X210000Y292960D01*
Y291758D01*
X210744Y292256D01*
X210840Y292400D01*
X211134Y292203D01*
X212500Y291931D01*
X213866Y292203D01*
X214652Y292728D01*
X215973Y292311D01*
X216134Y292203D01*
X216621Y292106D01*
X217563Y291809D01*
X218931Y289157D01*
Y283366D01*
X218915Y283182D01*
X218900Y283088D01*
X216000D01*
X214244Y282739D01*
X212756Y281744D01*
X211761Y280256D01*
X211412Y278500D01*
Y273500D01*
X211761Y271744D01*
X212058Y269442D01*
X211616Y268780D01*
X211461Y268000D01*
Y262000D01*
X211616Y261220D01*
X212058Y260558D01*
X210819Y258646D01*
X210392Y256500D01*
X222500D01*
Y251500D01*
X210392D01*
X209161Y250000D01*
X180000D01*
Y260892D01*
X186500D01*
X188646Y261319D01*
X190465Y262535D01*
X191681Y264354D01*
X192108Y266500D01*
X180000D01*
Y271500D01*
X192108D01*
Y271500D01*
X191681Y273646D01*
X190442Y275558D01*
X190884Y276220D01*
X191039Y277000D01*
Y283000D01*
X190884Y283780D01*
X190442Y284442D01*
X190739Y286744D01*
X191088Y288500D01*
Y293500D01*
X190950Y294192D01*
X191049Y294336D01*
X192311Y295823D01*
X194416Y297928D01*
X194540Y298042D01*
X195018Y298431D01*
X198653D01*
X198838Y298415D01*
X198931Y298400D01*
Y295500D01*
X199203Y294134D01*
X199977Y292977D01*
X201134Y292203D01*
X202500Y291931D01*
X203866Y292203D01*
X204160Y292400D01*
X204256Y292256D01*
X205000Y291758D01*
Y292960D01*
X205024Y292976D01*
X205797Y294134D01*
X206069Y295500D01*
Y302000D01*
Y308500D01*
X205797Y309866D01*
X205024Y311024D01*
X205000Y311040D01*
Y312242D01*
X204256Y311744D01*
X204160Y311600D01*
X203866Y311797D01*
X202500Y312069D01*
X201134Y311797D01*
X199977Y311023D01*
X198480Y310135D01*
X196534Y310859D01*
X196194Y311000D01*
X193806D01*
X191601Y310087D01*
X189913Y308399D01*
X189000Y306194D01*
Y305832D01*
X188949Y305734D01*
X188816Y305522D01*
X188650Y305290D01*
X187624Y304113D01*
X183452Y299941D01*
X183000Y299545D01*
X182872Y299554D01*
X180804Y300307D01*
X180005Y301047D01*
X180000Y301055D01*
Y318931D01*
X188500D01*
X189866Y319203D01*
X191023Y319977D01*
X191797Y321134D01*
X192069Y322500D01*
X191797Y323866D01*
X191039Y325000D01*
X191797Y326134D01*
X192069Y327500D01*
X191797Y328866D01*
X191039Y330000D01*
X191797Y331134D01*
X192069Y332500D01*
X191797Y333866D01*
X191039Y335000D01*
X191797Y336134D01*
X192069Y337500D01*
X191797Y338866D01*
X191039Y340000D01*
X191797Y341134D01*
X192069Y342500D01*
X191797Y343866D01*
X191039Y345000D01*
X191797Y346134D01*
X192069Y347500D01*
X191797Y348866D01*
X191039Y350000D01*
X191797Y351134D01*
X192069Y352500D01*
X191797Y353866D01*
X191039Y355000D01*
X191797Y356134D01*
X192069Y357500D01*
X191797Y358866D01*
X191039Y360000D01*
X191797Y361134D01*
X192069Y362500D01*
X191797Y363866D01*
X191039Y365000D01*
X191797Y366134D01*
X192069Y367500D01*
X191797Y368866D01*
X191039Y370000D01*
X191797Y371134D01*
X192069Y372500D01*
X191797Y373866D01*
X191039Y375000D01*
X191797Y376134D01*
X192069Y377500D01*
X191797Y378866D01*
X191039Y380000D01*
X191797Y381134D01*
X192069Y382500D01*
X191797Y383866D01*
X191039Y385000D01*
X191797Y386134D01*
X192069Y387500D01*
X191797Y388866D01*
X191600Y389160D01*
X191744Y389256D01*
X192242Y390000D01*
X191040D01*
X191024Y390024D01*
X189866Y390797D01*
X188500Y391069D01*
X182000D01*
Y393931D01*
X188500D01*
X189866Y394203D01*
X191024Y394976D01*
X191040Y395000D01*
X192242D01*
X191744Y395744D01*
X191600Y395840D01*
X191797Y396134D01*
X192069Y397500D01*
X191797Y398866D01*
X191023Y400023D01*
X189866Y400797D01*
X188500Y401069D01*
X172474D01*
X170694Y404069D01*
X171000Y404807D01*
Y407193D01*
X170206Y409110D01*
X171065Y410984D01*
X171816Y411912D01*
X184500D01*
X186256Y412261D01*
X187744Y413256D01*
X188739Y414744D01*
X188864Y415371D01*
X189138Y415415D01*
X189337Y415431D01*
X198653D01*
X198838Y415415D01*
X198931Y415400D01*
Y411500D01*
X199203Y410134D01*
X199977Y408977D01*
X201134Y408203D01*
X202500Y407931D01*
X203866Y408203D01*
X205000Y408961D01*
X206134Y408203D01*
X207500Y407931D01*
X208866Y408203D01*
X210000Y408961D01*
X211134Y408203D01*
X212500Y407931D01*
X213866Y408203D01*
X215000Y408961D01*
X216134Y408203D01*
X217500Y407931D01*
X218866Y408203D01*
X220000Y408961D01*
X221134Y408203D01*
X222500Y407931D01*
X223866Y408203D01*
X225000Y408961D01*
X226134Y408203D01*
X227500Y407931D01*
X228866Y408203D01*
X230000Y408961D01*
X231134Y408203D01*
X232500Y407931D01*
X233866Y408203D01*
X235000Y408961D01*
X236134Y408203D01*
X237500Y407931D01*
X238866Y408203D01*
X240000Y408961D01*
X241134Y408203D01*
X242500Y407931D01*
X243866Y408203D01*
X245000Y408961D01*
X246134Y408203D01*
X247500Y407931D01*
X248866Y408203D01*
X250000Y408961D01*
X251134Y408203D01*
X252500Y407931D01*
X253866Y408203D01*
X255000Y408961D01*
X256134Y408203D01*
X257500Y407931D01*
X258866Y408203D01*
X260000Y408961D01*
X261134Y408203D01*
X262500Y407931D01*
X263866Y408203D01*
X265000Y408961D01*
X266134Y408203D01*
X267500Y407931D01*
X268866Y408203D01*
X269160Y408400D01*
X269256Y408256D01*
X270000Y407758D01*
Y408960D01*
X270024Y408976D01*
X270797Y410134D01*
X271069Y411500D01*
Y418000D01*
X273931D01*
Y411500D01*
D02*
G37*
G36*
X158937Y422062D02*
X159117Y421625D01*
X159366Y421153D01*
X159684Y420647D01*
X160070Y420107D01*
X161050Y418921D01*
X161644Y418276D01*
X163037Y416883D01*
X161806Y412557D01*
X165759Y413137D01*
X167286Y409282D01*
X161237Y407356D01*
X161397Y407875D01*
X161502Y408389D01*
X161553Y408899D01*
X161548Y409404D01*
X161488Y409906D01*
X161374Y410402D01*
X161204Y410895D01*
X161163Y410984D01*
X160272Y411810D01*
X158452Y413314D01*
X157677Y413849D01*
X156993Y414239D01*
X156398Y414483D01*
X155894Y414583D01*
X155480Y414538D01*
X155157Y414348D01*
X154923Y414013D01*
X158826Y422463D01*
X158937Y422062D01*
D02*
G37*
G36*
X319942Y410448D02*
X319639Y410109D01*
X319372Y409704D01*
X319141Y409231D01*
X318945Y408690D01*
X318785Y408083D01*
X318660Y407409D01*
X318571Y406667D01*
X318518Y405858D01*
X318500Y404982D01*
X313500D01*
X313482Y405858D01*
X313340Y407409D01*
X313215Y408083D01*
X313055Y408690D01*
X312859Y409231D01*
X312628Y409704D01*
X312360Y410109D01*
X312058Y410448D01*
X311720Y410720D01*
X320280D01*
X319942Y410448D01*
D02*
G37*
G36*
X149884Y407141D02*
X152490Y404712D01*
X152995Y404341D01*
X153442Y404064D01*
X153830Y403882D01*
X154160Y403795D01*
X154432Y403801D01*
X146101Y401943D01*
X146341Y402027D01*
X146507Y402154D01*
X146598Y402325D01*
X146616Y402540D01*
X146559Y402799D01*
X146429Y403101D01*
X146225Y403448D01*
X145946Y403838D01*
X145594Y404272D01*
X145167Y404749D01*
X149087Y407984D01*
X149884Y407141D01*
D02*
G37*
G36*
X156018Y400215D02*
X156109Y399960D01*
X156260Y399735D01*
X156472Y399540D01*
X156745Y399375D01*
X157078Y399240D01*
X157472Y399135D01*
X157927Y399060D01*
X158133Y399042D01*
X160500Y399000D01*
Y396000D01*
X157377Y395840D01*
X157078Y395760D01*
X156745Y395625D01*
X156472Y395460D01*
X156260Y395265D01*
X156109Y395040D01*
X156018Y394785D01*
X155987Y394500D01*
Y395768D01*
X155267Y395731D01*
Y399269D01*
X155367Y399218D01*
X155562Y399172D01*
X155851Y399132D01*
X155987Y399122D01*
Y400500D01*
X156018Y400215D01*
D02*
G37*
G36*
X114541Y477000D02*
X113173Y476820D01*
X111470Y476115D01*
X110007Y474992D01*
X108885Y473530D01*
X108180Y471827D01*
X107940Y470000D01*
Y460000D01*
X108180Y458173D01*
X108885Y456470D01*
X110007Y455008D01*
X111470Y453885D01*
X113173Y453180D01*
X114987Y452941D01*
X115047Y452841D01*
X115163Y452557D01*
X115279Y452122D01*
X115375Y451542D01*
X115412Y451128D01*
Y429000D01*
X115381D01*
X115855Y424197D01*
X117255Y419579D01*
X119530Y415323D01*
X122592Y411592D01*
X124753Y409819D01*
X124454Y407471D01*
X124075Y406494D01*
X122535Y405465D01*
X121319Y403646D01*
X120892Y401500D01*
Y397500D01*
X129000D01*
Y395000D01*
X131500D01*
Y382892D01*
X133646Y383319D01*
X135558Y384558D01*
X136220Y384116D01*
X137000Y383961D01*
X143000D01*
X143479Y384056D01*
X144294Y383790D01*
X145164Y383238D01*
X145913Y380399D01*
X145000Y378194D01*
Y375807D01*
X145206Y375309D01*
X145000Y375000D01*
X145000D01*
Y295060D01*
X142490Y293277D01*
X141000Y295807D01*
Y298193D01*
X140087Y300399D01*
X138399Y302087D01*
X136194Y303000D01*
X133806D01*
X131601Y302087D01*
X129914Y300399D01*
X129000Y298193D01*
Y295807D01*
X129712Y294088D01*
X128780Y291768D01*
X128486Y291292D01*
X128276Y291111D01*
X128126Y291014D01*
X126744Y290739D01*
X125256Y289744D01*
X124261Y288256D01*
X123912Y286500D01*
Y286247D01*
X123856Y286203D01*
X123632Y286060D01*
X123322Y285896D01*
X122928Y285721D01*
X122411Y285524D01*
X122371Y285499D01*
X122326Y285489D01*
X122188Y285394D01*
X119860Y284430D01*
X115982Y282053D01*
X115205Y281390D01*
X114000Y280546D01*
X113398Y280180D01*
X112853Y279887D01*
X112391Y279678D01*
X112081Y279569D01*
X109000D01*
X107634Y279297D01*
X106477Y278523D01*
X105703Y277366D01*
X105431Y276000D01*
Y275782D01*
X104000Y273039D01*
X96000D01*
X95220Y272884D01*
X92927Y274960D01*
X92641Y275611D01*
X92656Y275729D01*
X93256Y276744D01*
Y276744D01*
X95951Y280029D01*
X97954Y283776D01*
X98254Y284765D01*
X98382Y285061D01*
X98685Y285649D01*
X98976Y286120D01*
X99247Y286474D01*
X99481Y286714D01*
X99666Y286856D01*
X99771Y286912D01*
X101500D01*
X103256Y287261D01*
X104744Y288256D01*
X105739Y289744D01*
X106088Y291500D01*
Y296500D01*
X105739Y298256D01*
X105442Y300558D01*
X105884Y301220D01*
X106039Y302000D01*
Y308000D01*
X105884Y308780D01*
X105442Y309442D01*
X105739Y311744D01*
X106088Y313500D01*
Y318500D01*
X105739Y320256D01*
X104744Y321744D01*
X103256Y322739D01*
X101500Y323088D01*
X99999D01*
X99952Y323164D01*
X99837Y323448D01*
X99721Y323884D01*
X99625Y324463D01*
X99588Y324878D01*
Y330122D01*
X99625Y330537D01*
X99721Y331116D01*
X99837Y331552D01*
X99952Y331836D01*
X99999Y331912D01*
X101500D01*
X103256Y332261D01*
X104744Y333256D01*
X105739Y334744D01*
X106088Y336500D01*
Y341500D01*
X105739Y343256D01*
X105442Y345558D01*
X105884Y346220D01*
X106039Y347000D01*
Y353000D01*
X105884Y353780D01*
X105442Y354442D01*
X105739Y356744D01*
X106088Y358500D01*
Y363500D01*
X105739Y365256D01*
X104744Y366744D01*
X103814Y367366D01*
X103821Y367566D01*
X103896Y367880D01*
X104188Y368842D01*
X104233Y369301D01*
X104683Y371198D01*
X105087Y371601D01*
X106000Y373806D01*
Y376194D01*
X105087Y378399D01*
X103399Y380087D01*
X101194Y381000D01*
X98806D01*
X96601Y380087D01*
X94913Y378399D01*
X94000Y376194D01*
Y373806D01*
X94707Y372099D01*
X94709Y372092D01*
X94715Y372081D01*
X94913Y371601D01*
X94949Y371565D01*
X94960Y371539D01*
X95025Y371289D01*
X95068Y371018D01*
X95086Y370720D01*
X95077Y370426D01*
X94814Y369739D01*
X94541Y369157D01*
X94278Y368705D01*
X94039Y368383D01*
X93843Y368183D01*
X93712Y368088D01*
X88500D01*
X86744Y367739D01*
X85256Y366744D01*
X84261Y365256D01*
X83912Y363500D01*
Y358500D01*
X84261Y356744D01*
X84558Y354442D01*
X84116Y353780D01*
X83961Y353000D01*
Y347000D01*
X84116Y346220D01*
X84558Y345558D01*
X84261Y343256D01*
X83912Y341500D01*
Y336500D01*
X84261Y334744D01*
X85256Y333256D01*
X86744Y332261D01*
X88500Y331912D01*
X90001D01*
X90047Y331836D01*
X90163Y331552D01*
X90279Y331116D01*
X90375Y330537D01*
X90412Y330122D01*
Y324878D01*
X90375Y324463D01*
X90279Y323884D01*
X90163Y323448D01*
X90048Y323164D01*
X90001Y323088D01*
X88500D01*
X86744Y322739D01*
X85742Y322069D01*
X85739Y322068D01*
X85732Y322063D01*
X85256Y321744D01*
X85132Y321559D01*
X85129Y321557D01*
X84963Y321350D01*
X84863Y321260D01*
X84691Y321147D01*
X84433Y321021D01*
X84081Y320893D01*
X83637Y320776D01*
X83129Y320682D01*
X82104Y320588D01*
X80812D01*
X78885Y322067D01*
X76129Y323208D01*
X73172Y323598D01*
Y323588D01*
X40000D01*
Y323606D01*
X35687Y323182D01*
X31540Y321924D01*
X27718Y319881D01*
X24368Y317132D01*
X23000Y315464D01*
X20000Y316538D01*
Y402519D01*
X22646Y403934D01*
X23193Y403568D01*
X29483Y400466D01*
X36123Y398212D01*
X43002Y396844D01*
X50000Y396385D01*
X56998Y396844D01*
X63877Y398212D01*
X70518Y400466D01*
X76807Y403568D01*
X82639Y407464D01*
X87911Y412089D01*
X92535Y417361D01*
X96432Y423193D01*
X99534Y429482D01*
X101788Y436124D01*
X103156Y443002D01*
X103615Y450000D01*
X103156Y456998D01*
X101788Y463876D01*
X99534Y470518D01*
X96432Y476807D01*
X96066Y477354D01*
X97481Y480000D01*
X114345D01*
X114541Y477000D01*
D02*
G37*
G36*
X318500Y395937D02*
X318454Y392017D01*
X312160Y392817D01*
X312415Y393109D01*
X312642Y393445D01*
X312843Y393825D01*
X313018Y394248D01*
X313165Y394715D01*
X313286Y395226D01*
X313379Y395781D01*
X313446Y396380D01*
X313500Y397708D01*
X318500Y395937D01*
D02*
G37*
G36*
X397007Y394265D02*
X405202Y396409D01*
X404820Y395684D01*
X404528Y394991D01*
X404325Y394329D01*
X404211Y393699D01*
X404187Y393101D01*
X404252Y392534D01*
X404406Y392000D01*
X404649Y391497D01*
X404982Y391026D01*
X405404Y390587D01*
X402094Y389695D01*
X401577Y390283D01*
X400025Y391871D01*
X399508Y392341D01*
X397960Y393572D01*
X397445Y393923D01*
X397127Y394122D01*
X397102Y394126D01*
X397026Y394104D01*
X396928Y394053D01*
X396807Y393973D01*
X396663Y393863D01*
X396307Y393557D01*
X395600Y392879D01*
X393479Y395000D01*
X393734Y395259D01*
X394573Y396207D01*
X394653Y396328D01*
X394704Y396426D01*
X394725Y396502D01*
X394718Y396554D01*
X397007Y394265D01*
D02*
G37*
G36*
X411098Y383073D02*
X411071Y383365D01*
X410984Y383646D01*
X410835Y383915D01*
X410625Y384173D01*
X410355Y384420D01*
X410024Y384655D01*
X409632Y384878D01*
X409179Y385089D01*
X408665Y385289D01*
X408091Y385478D01*
X408152Y388720D01*
X408723Y388562D01*
X409233Y388452D01*
X409684Y388391D01*
X410076Y388376D01*
X410408Y388410D01*
X410680Y388491D01*
X410892Y388620D01*
X411045Y388797D01*
X411138Y389021D01*
X411171Y389293D01*
X411098Y383073D01*
D02*
G37*
G36*
X621700Y389991D02*
X621944Y389151D01*
X622217Y388409D01*
X622520Y387767D01*
X622853Y387223D01*
X623216Y386778D01*
X623609Y386432D01*
X624031Y386185D01*
X624483Y386037D01*
X624965Y385987D01*
X614781D01*
X615241Y386036D01*
X615632Y386183D01*
X615954Y386428D01*
X616206Y386771D01*
X616390Y387212D01*
X616504Y387751D01*
X616549Y388388D01*
X616525Y389123D01*
X616431Y389956D01*
X616269Y390887D01*
X621487Y390930D01*
X621700Y389991D01*
D02*
G37*
G36*
X593913Y390014D02*
X594123Y389169D01*
X594366Y388424D01*
X594643Y387777D01*
X594954Y387230D01*
X595298Y386783D01*
X595675Y386435D01*
X596086Y386186D01*
X596531Y386037D01*
X597009Y385987D01*
X586898D01*
X587359Y386037D01*
X587754Y386185D01*
X588085Y386432D01*
X588350Y386778D01*
X588550Y387223D01*
X588685Y387767D01*
X588755Y388410D01*
X588759Y389151D01*
X588698Y389991D01*
X588573Y390930D01*
X593737Y390959D01*
X593913Y390014D01*
D02*
G37*
G36*
X383445Y390298D02*
X383567Y390080D01*
X383751Y389916D01*
X383996Y389807D01*
X384304Y389751D01*
X384673Y389749D01*
X385105Y389801D01*
X385598Y389907D01*
X386153Y390067D01*
X386770Y390281D01*
X386849Y387038D01*
X386278Y386810D01*
X385771Y386574D01*
X385328Y386331D01*
X384947Y386080D01*
X384629Y385822D01*
X384375Y385556D01*
X384183Y385282D01*
X384055Y385001D01*
X383989Y384711D01*
X383987Y384415D01*
X383385Y390570D01*
X383445Y390298D01*
D02*
G37*
G36*
X167883Y390352D02*
X168345Y390069D01*
X168825Y389818D01*
X169324Y389601D01*
X169841Y389417D01*
X170378Y389267D01*
X170932Y389150D01*
X171506Y389067D01*
X172098Y389017D01*
X172708Y389000D01*
Y386000D01*
X172098Y385983D01*
X171506Y385933D01*
X170932Y385850D01*
X170378Y385733D01*
X169841Y385583D01*
X169324Y385399D01*
X168825Y385182D01*
X168345Y384931D01*
X167883Y384648D01*
X167440Y384330D01*
Y390670D01*
X167883Y390352D01*
D02*
G37*
G36*
X366259Y382964D02*
X366218Y383238D01*
X366116Y383465D01*
X365954Y383645D01*
X365731Y383777D01*
X365447Y383861D01*
X365103Y383897D01*
X364698Y383885D01*
X364233Y383826D01*
X363707Y383719D01*
X363120Y383565D01*
X363088Y386746D01*
X363658Y386926D01*
X364166Y387119D01*
X364614Y387324D01*
X365001Y387542D01*
X365326Y387773D01*
X365591Y388016D01*
X365794Y388272D01*
X365936Y388541D01*
X366017Y388822D01*
X366036Y389116D01*
X366259Y382964D01*
D02*
G37*
G36*
X154942Y386448D02*
X154640Y386109D01*
X154372Y385704D01*
X154141Y385231D01*
X153945Y384690D01*
X153785Y384083D01*
X153660Y383409D01*
X153571Y382667D01*
X153564Y382556D01*
X153667Y381046D01*
X153741Y380607D01*
X153828Y380227D01*
X153928Y379906D01*
X154042Y379643D01*
X154170Y379440D01*
X147830D01*
X147958Y379643D01*
X148071Y379906D01*
X148172Y380227D01*
X148259Y380607D01*
X148333Y381046D01*
X148440Y382100D01*
X148446Y382252D01*
X148340Y383409D01*
X148215Y384083D01*
X148055Y384690D01*
X147859Y385231D01*
X147628Y385704D01*
X147360Y386109D01*
X147058Y386448D01*
X146720Y386720D01*
X155280D01*
X154942Y386448D01*
D02*
G37*
G36*
X565552Y384942D02*
X565891Y384640D01*
X566296Y384372D01*
X566769Y384141D01*
X567310Y383945D01*
X567917Y383785D01*
X568591Y383660D01*
X569333Y383571D01*
X570142Y383518D01*
X571018Y383500D01*
Y383469D01*
X572983Y383454D01*
X572183Y377160D01*
X571891Y377415D01*
X571555Y377642D01*
X571175Y377843D01*
X570752Y378018D01*
X570285Y378165D01*
X569774Y378286D01*
X569219Y378379D01*
X569131Y378389D01*
X568591Y378340D01*
X567917Y378215D01*
X567310Y378055D01*
X566769Y377859D01*
X566296Y377628D01*
X565891Y377360D01*
X565552Y377058D01*
X565280Y376720D01*
Y385280D01*
X565552Y384942D01*
D02*
G37*
G36*
X102815Y372158D02*
X101807Y367908D01*
X101793Y367909D01*
X101771Y367278D01*
X101829Y366647D01*
X101970Y366124D01*
X102195Y365706D01*
X102504Y365394D01*
X102896Y365189D01*
X103371Y365090D01*
X93292Y365987D01*
X93799Y365993D01*
X94282Y366103D01*
X94742Y366316D01*
X95179Y366634D01*
X95592Y367055D01*
X95983Y367580D01*
X96349Y368209D01*
X96692Y368942D01*
X97012Y369778D01*
X97084Y370006D01*
X97111Y370241D01*
X97127Y370750D01*
X97098Y371239D01*
X97023Y371710D01*
X96904Y372163D01*
X96739Y372597D01*
X96529Y373012D01*
X102815Y372158D01*
D02*
G37*
G36*
X366036Y360884D02*
X366017Y361178D01*
X365936Y361459D01*
X365794Y361728D01*
X365591Y361984D01*
X365326Y362227D01*
X365001Y362458D01*
X364614Y362676D01*
X364166Y362881D01*
X363658Y363074D01*
X363088Y363254D01*
X363120Y366435D01*
X363707Y366281D01*
X364233Y366174D01*
X364698Y366115D01*
X365103Y366103D01*
X365447Y366140D01*
X365731Y366223D01*
X365954Y366355D01*
X366116Y366535D01*
X366218Y366762D01*
X366259Y367037D01*
X366036Y360884D01*
D02*
G37*
G36*
X326111Y358009D02*
X326082Y358297D01*
X325991Y358571D01*
X325839Y358829D01*
X325625Y359073D01*
X325350Y359301D01*
X325013Y359514D01*
X324615Y359712D01*
X324156Y359895D01*
X323635Y360063D01*
X323053Y360216D01*
X323092Y363390D01*
X323670Y363268D01*
X324187Y363189D01*
X324644Y363155D01*
X325040Y363164D01*
X325375Y363218D01*
X325650Y363315D01*
X325864Y363456D01*
X326017Y363641D01*
X326109Y363870D01*
X326141Y364143D01*
X326111Y358009D01*
D02*
G37*
G36*
X611720Y354720D02*
X611448Y355058D01*
X611109Y355360D01*
X610704Y355628D01*
X610231Y355859D01*
X609690Y356055D01*
X609083Y356215D01*
X608409Y356340D01*
X607667Y356429D01*
X606858Y356482D01*
X606000Y356500D01*
X605142Y356482D01*
X603591Y356340D01*
X602917Y356215D01*
X602310Y356055D01*
X601769Y355859D01*
X601296Y355628D01*
X600891Y355360D01*
X600552Y355058D01*
X600280Y354720D01*
Y363280D01*
X600552Y362942D01*
X600891Y362640D01*
X601296Y362372D01*
X601769Y362141D01*
X602310Y361945D01*
X602917Y361785D01*
X603591Y361660D01*
X604333Y361571D01*
X605142Y361518D01*
X606000Y361500D01*
X606858Y361518D01*
X608409Y361660D01*
X609083Y361785D01*
X609690Y361945D01*
X610231Y362141D01*
X610704Y362372D01*
X611109Y362640D01*
X611448Y362942D01*
X611720Y363280D01*
Y354720D01*
D02*
G37*
G36*
X472878Y356441D02*
X471945Y356267D01*
X470375Y355840D01*
X469737Y355587D01*
X469197Y355307D01*
X468755Y355002D01*
X468411Y354669D01*
X468166Y354311D01*
X468019Y353926D01*
X467970Y353515D01*
X465485Y360970D01*
X465634Y360880D01*
X465874Y360817D01*
X466207Y360782D01*
X466631Y360773D01*
X467146Y360792D01*
X468452Y360910D01*
X471099Y361289D01*
X472878Y356441D01*
D02*
G37*
G36*
X411171Y360707D02*
X411138Y360979D01*
X411045Y361203D01*
X410892Y361380D01*
X410680Y361509D01*
X410408Y361590D01*
X410076Y361624D01*
X409684Y361610D01*
X409233Y361548D01*
X408723Y361438D01*
X408152Y361280D01*
X408091Y364522D01*
X408665Y364711D01*
X409179Y364911D01*
X409632Y365122D01*
X410024Y365345D01*
X410355Y365580D01*
X410625Y365827D01*
X410835Y366085D01*
X410984Y366354D01*
X411071Y366635D01*
X411098Y366927D01*
X411171Y360707D01*
D02*
G37*
G36*
X383989Y365289D02*
X384055Y365000D01*
X384183Y364718D01*
X384375Y364444D01*
X384629Y364178D01*
X384947Y363920D01*
X385328Y363669D01*
X385771Y363426D01*
X386278Y363190D01*
X386849Y362962D01*
X386770Y359719D01*
X386153Y359933D01*
X385598Y360093D01*
X385105Y360199D01*
X384673Y360251D01*
X384304Y360249D01*
X383996Y360193D01*
X383751Y360084D01*
X383567Y359920D01*
X383445Y359702D01*
X383385Y359430D01*
X383987Y365585D01*
X383989Y365289D01*
D02*
G37*
G36*
X405404Y359413D02*
X405191Y359143D01*
X405034Y358771D01*
X404934Y358296D01*
X404889Y357719D01*
X404902Y357039D01*
X404970Y356257D01*
X405095Y355373D01*
X405514Y353297D01*
X405808Y352106D01*
X396998Y355727D01*
X394718Y353446D01*
X394725Y353498D01*
X394704Y353574D01*
X394653Y353672D01*
X394573Y353793D01*
X394463Y353937D01*
X394157Y354293D01*
X393479Y355000D01*
X395600Y357121D01*
X395858Y356866D01*
X396807Y356027D01*
X396928Y355947D01*
X397026Y355896D01*
X397102Y355874D01*
X397127Y355878D01*
X397445Y356077D01*
X398476Y356809D01*
X398992Y357219D01*
X400542Y358629D01*
X401059Y359158D01*
X402094Y360305D01*
X405404Y359413D01*
D02*
G37*
G36*
X583720Y354720D02*
X583448Y355058D01*
X583109Y355360D01*
X582704Y355628D01*
X582231Y355859D01*
X581690Y356055D01*
X581083Y356215D01*
X580409Y356340D01*
X579667Y356429D01*
X578858Y356482D01*
X577982Y356500D01*
Y361500D01*
X578858Y361518D01*
X580409Y361660D01*
X581083Y361785D01*
X581690Y361945D01*
X582231Y362141D01*
X582704Y362372D01*
X583109Y362640D01*
X583448Y362942D01*
X583720Y363280D01*
Y354720D01*
D02*
G37*
G36*
X565552Y362942D02*
X565891Y362640D01*
X566296Y362372D01*
X566769Y362141D01*
X567310Y361945D01*
X567917Y361785D01*
X568591Y361660D01*
X569333Y361571D01*
X570142Y361518D01*
X571018Y361500D01*
Y356500D01*
X570142Y356482D01*
X568591Y356340D01*
X567917Y356215D01*
X567310Y356055D01*
X566769Y355859D01*
X566296Y355628D01*
X565891Y355360D01*
X565552Y355058D01*
X565280Y354720D01*
Y363280D01*
X565552Y362942D01*
D02*
G37*
G36*
X548720Y354720D02*
X548448Y355058D01*
X548109Y355360D01*
X547704Y355628D01*
X547231Y355859D01*
X546690Y356055D01*
X546083Y356215D01*
X545409Y356340D01*
X544667Y356429D01*
X543858Y356482D01*
X542982Y356500D01*
Y361500D01*
X543858Y361518D01*
X545409Y361660D01*
X546083Y361785D01*
X546690Y361945D01*
X547231Y362141D01*
X547704Y362372D01*
X548109Y362640D01*
X548448Y362942D01*
X548720Y363280D01*
Y354720D01*
D02*
G37*
G36*
X628960Y361981D02*
X629169Y361502D01*
X629453Y361027D01*
X629811Y360555D01*
X630245Y360087D01*
X630753Y359623D01*
X631337Y359163D01*
X631995Y358707D01*
X632729Y358254D01*
X633537Y357805D01*
X632700Y352382D01*
X631937Y352768D01*
X630507Y353391D01*
X629839Y353626D01*
X629203Y353811D01*
X628599Y353946D01*
X628027Y354031D01*
X627486Y354065D01*
X626977Y354049D01*
X626500Y353982D01*
X628826Y362463D01*
X628960Y361981D01*
D02*
G37*
G36*
X623193Y403568D02*
X629482Y400466D01*
X636124Y398212D01*
X643002Y396844D01*
X650000Y396385D01*
X656998Y396844D01*
X663876Y398212D01*
X670518Y400466D01*
X676807Y403568D01*
X677354Y403934D01*
X680000Y402519D01*
Y350000D01*
X673088D01*
Y351500D01*
X672739Y353256D01*
X671744Y354744D01*
X670256Y355739D01*
X668500Y356088D01*
X663500D01*
X661744Y355739D01*
X659442Y355442D01*
X658780Y355884D01*
X658000Y356039D01*
X652000D01*
X651220Y355884D01*
X650558Y355442D01*
X648256Y355739D01*
X646500Y356088D01*
X641500D01*
X639744Y355739D01*
X639693Y355705D01*
X636888Y358102D01*
X634732Y359422D01*
X634595Y359548D01*
X634558Y359561D01*
X634527Y359587D01*
X633839Y359969D01*
X633094Y360426D01*
X632550Y360803D01*
X632074Y361179D01*
X631682Y361536D01*
X631374Y361869D01*
X631145Y362170D01*
X630986Y362436D01*
X630887Y362664D01*
X630791Y363008D01*
X630786Y363020D01*
X630739Y363256D01*
X630442Y365558D01*
X630884Y366220D01*
X631039Y367000D01*
Y373000D01*
X630884Y373780D01*
X630442Y374442D01*
X630739Y376744D01*
X631088Y378500D01*
Y383500D01*
X630739Y385256D01*
X629744Y386744D01*
X628256Y387739D01*
X626500Y388088D01*
X624816D01*
X624809Y388092D01*
X624690Y388197D01*
X624521Y388405D01*
X624317Y388737D01*
X624100Y389198D01*
X623882Y389788D01*
X623675Y390502D01*
X623475Y391382D01*
X623426Y391493D01*
X623125Y392747D01*
X621324Y397095D01*
X618864Y401108D01*
X615808Y404687D01*
X615826Y404883D01*
X618973Y406388D01*
X623193Y403568D01*
D02*
G37*
G36*
X460093Y351496D02*
X460080Y351466D01*
X460032Y351405D01*
X459947Y351313D01*
X459241Y350631D01*
X458328Y349793D01*
X454793Y353328D01*
X458061Y356172D01*
X460093Y351496D01*
D02*
G37*
G36*
X318170Y353560D02*
X318042Y353357D01*
X317929Y353094D01*
X317828Y352773D01*
X317741Y352393D01*
X317667Y351954D01*
X317560Y350900D01*
X317507Y349611D01*
X317500Y348877D01*
X312500D01*
X312493Y349611D01*
X312333Y351954D01*
X312259Y352393D01*
X312172Y352773D01*
X312071Y353094D01*
X311958Y353357D01*
X311830Y353560D01*
X318170Y353560D01*
D02*
G37*
G36*
X638993Y353546D02*
X639361Y353222D01*
X639452Y353157D01*
X639528Y353114D01*
X639588Y353092D01*
X639632Y353092D01*
X639661Y353114D01*
X639674Y353157D01*
X639013Y346196D01*
X638981Y346276D01*
X638877Y346424D01*
X638701Y346638D01*
X637739Y347684D01*
X635447Y350018D01*
X638839Y353697D01*
X638993Y353546D01*
D02*
G37*
G36*
X648574Y337116D02*
X648349Y336648D01*
X648150Y336132D01*
X647977Y335570D01*
X647832Y334959D01*
X647712Y334302D01*
X647553Y332845D01*
X647513Y332045D01*
X647500Y331198D01*
X642500Y330982D01*
X642475Y332091D01*
X642401Y333078D01*
X642277Y333941D01*
X642103Y334683D01*
X641879Y335302D01*
X641606Y335798D01*
X641283Y336172D01*
X640911Y336423D01*
X640489Y336552D01*
X640017Y336558D01*
X648826Y337537D01*
X648574Y337116D01*
D02*
G37*
G36*
X316337Y330891D02*
X312651Y329634D01*
X312770Y330022D01*
X312844Y330408D01*
X312873Y330791D01*
X312856Y331173D01*
X312794Y331553D01*
X312687Y331931D01*
X312535Y332307D01*
X312338Y332681D01*
X312095Y333054D01*
X311807Y333424D01*
X315111Y333923D01*
X316337Y330891D01*
D02*
G37*
G36*
X99525Y333962D02*
X99100Y333811D01*
X98725Y333560D01*
X98400Y333208D01*
X98125Y332755D01*
X97900Y332202D01*
X97725Y331548D01*
X97600Y330793D01*
X97525Y329938D01*
X97500Y328982D01*
X92500D01*
X92475Y329938D01*
X92400Y330793D01*
X92275Y331548D01*
X92100Y332202D01*
X91875Y332755D01*
X91600Y333208D01*
X91275Y333560D01*
X90900Y333811D01*
X90475Y333962D01*
X90000Y334013D01*
X100000D01*
X99525Y333962D01*
D02*
G37*
G36*
X669942Y336448D02*
X669640Y336109D01*
X669372Y335704D01*
X669141Y335231D01*
X668945Y334690D01*
X668785Y334083D01*
X668660Y333409D01*
X668593Y332852D01*
X668726Y331950D01*
X669008Y330788D01*
X669404Y329615D01*
X669913Y328433D01*
X670534Y327239D01*
X671269Y326036D01*
X672116Y324822D01*
X673077Y323598D01*
X674150Y322364D01*
X659932Y321171D01*
X660610Y322291D01*
X661216Y323433D01*
X661752Y324596D01*
X662215Y325783D01*
X662608Y326991D01*
X662929Y328221D01*
X663179Y329473D01*
X663357Y330747D01*
X663464Y332044D01*
X663465Y332051D01*
X663340Y333409D01*
X663215Y334083D01*
X663055Y334690D01*
X662859Y335231D01*
X662628Y335704D01*
X662361Y336109D01*
X662058Y336448D01*
X661720Y336720D01*
X670280D01*
X669942Y336448D01*
D02*
G37*
G36*
X97525Y325062D02*
X97600Y324207D01*
X97725Y323452D01*
X97900Y322798D01*
X98125Y322245D01*
X98400Y321792D01*
X98725Y321440D01*
X99100Y321189D01*
X99525Y321038D01*
X100000Y320987D01*
X90000D01*
X90475Y321038D01*
X90900Y321189D01*
X91275Y321440D01*
X91600Y321792D01*
X91875Y322245D01*
X92100Y322798D01*
X92275Y323452D01*
X92400Y324207D01*
X92475Y325062D01*
X92500Y326018D01*
X97500D01*
X97525Y325062D01*
D02*
G37*
G36*
X86720Y311720D02*
X86448Y312058D01*
X86109Y312360D01*
X85704Y312628D01*
X85231Y312859D01*
X84690Y313055D01*
X84083Y313215D01*
X83409Y313340D01*
X82667Y313429D01*
X81858Y313482D01*
X80982Y313500D01*
Y318500D01*
X81858Y318518D01*
X83409Y318660D01*
X84083Y318785D01*
X84690Y318945D01*
X85231Y319141D01*
X85704Y319372D01*
X86109Y319639D01*
X86448Y319942D01*
X86720Y320280D01*
Y311720D01*
D02*
G37*
G36*
X299059Y298817D02*
X299882Y291648D01*
X299823Y291990D01*
X299733Y292259D01*
X299611Y292455D01*
X299459Y292577D01*
X299275Y292626D01*
X299060Y292601D01*
X298814Y292503D01*
X298537Y292331D01*
X298229Y292086D01*
X297889Y291768D01*
X296861Y294982D01*
X297308Y295451D01*
X298049Y296358D01*
X298341Y296797D01*
X298582Y297226D01*
X298772Y297646D01*
X298909Y298055D01*
X298995Y298455D01*
X299009Y298609D01*
X299007Y298799D01*
X298897Y299282D01*
X298684Y299742D01*
X298366Y300179D01*
X297945Y300592D01*
X297420Y300982D01*
X296791Y301349D01*
X296058Y301693D01*
X295222Y302012D01*
X294994Y302084D01*
X294759Y302111D01*
X294251Y302127D01*
X293761Y302098D01*
X293290Y302023D01*
X292837Y301904D01*
X292403Y301739D01*
X291988Y301529D01*
X292842Y307815D01*
X297092Y306807D01*
X297092Y306793D01*
X297722Y306771D01*
X298353Y306829D01*
X298876Y306970D01*
X299294Y307195D01*
X299606Y307504D01*
X299811Y307896D01*
X299910Y308371D01*
X299059Y298817D01*
D02*
G37*
G36*
X198886Y306269D02*
X199267Y305688D01*
X199654Y305175D01*
X200045Y304731D01*
X200442Y304355D01*
X200686Y304167D01*
X200759Y304235D01*
X200911Y304460D01*
X201002Y304715D01*
X201032Y305000D01*
Y303936D01*
X201250Y303808D01*
X201661Y303637D01*
X202078Y303534D01*
X202500Y303500D01*
X201646Y300500D01*
X201032Y300564D01*
Y299000D01*
X201002Y299285D01*
X200911Y299540D01*
X200759Y299765D01*
X200547Y299960D01*
X200275Y300125D01*
X199941Y300260D01*
X199547Y300365D01*
X199093Y300440D01*
X198577Y300485D01*
X198002Y300500D01*
Y300879D01*
X195883Y301099D01*
X198510Y306919D01*
X198886Y306269D01*
D02*
G37*
G36*
X195516Y301033D02*
X195282Y300979D01*
X195016Y300875D01*
X194718Y300719D01*
X194388Y300511D01*
X194025Y300253D01*
X193204Y299584D01*
X192255Y298710D01*
X191927Y298388D01*
X191002Y297432D01*
X189429Y295578D01*
X188883Y294787D01*
X188498Y294087D01*
X188275Y293477D01*
X188212Y292959D01*
X188309Y292531D01*
X188568Y292193D01*
X188987Y291947D01*
X178947Y295987D01*
X179467Y295842D01*
X180030Y295808D01*
X180633Y295886D01*
X181278Y296075D01*
X181964Y296376D01*
X182692Y296788D01*
X183461Y297312D01*
X184272Y297948D01*
X185124Y298695D01*
X186018Y299553D01*
X191304Y298623D01*
X188196Y301731D01*
X188710Y302255D01*
X190253Y304025D01*
X190511Y304388D01*
X190718Y304718D01*
X190875Y305016D01*
X190979Y305282D01*
X191033Y305516D01*
X195516Y301033D01*
D02*
G37*
G36*
X466513Y295000D02*
X466462Y295475D01*
X466311Y295900D01*
X466060Y296275D01*
X465708Y296600D01*
X465255Y296875D01*
X464702Y297100D01*
X464048Y297275D01*
X463293Y297400D01*
X462438Y297475D01*
X461482Y297500D01*
Y302500D01*
X462438Y302525D01*
X463293Y302600D01*
X464048Y302725D01*
X464702Y302900D01*
X465255Y303125D01*
X465708Y303400D01*
X466060Y303725D01*
X466311Y304100D01*
X466462Y304525D01*
X466513Y305000D01*
Y295000D01*
D02*
G37*
G36*
X268797Y297354D02*
X268688Y297021D01*
X268642Y296637D01*
X268657Y296200D01*
X268735Y295712D01*
X268874Y295173D01*
X269076Y294581D01*
X269340Y293938D01*
X270054Y292496D01*
X267958Y290350D01*
X267471Y291260D01*
X266155Y294139D01*
X266115Y294381D01*
X266149Y294512D01*
X266258Y294532D01*
X266441Y294441D01*
X268968Y297635D01*
X268797Y297354D01*
D02*
G37*
G36*
X74569Y300374D02*
X74408Y300000D01*
X74412Y299621D01*
X74581Y299239D01*
X74914Y298853D01*
X75412Y298463D01*
X76074Y298069D01*
X76901Y297672D01*
X77892Y297270D01*
X79048Y296865D01*
X75224Y292641D01*
X74400Y292894D01*
X72753Y293296D01*
X71930Y293444D01*
X70286Y293634D01*
X69464Y293676D01*
X67821Y293655D01*
X67000Y293592D01*
X74893Y300745D01*
X74569Y300374D01*
D02*
G37*
G36*
X86084Y291145D02*
X86054Y291212D01*
X85965Y291273D01*
X85817Y291326D01*
X85610Y291372D01*
X85343Y291411D01*
X84632Y291468D01*
X83121Y291500D01*
Y296500D01*
X83684Y296504D01*
X85610Y296628D01*
X85817Y296674D01*
X85965Y296727D01*
X86054Y296788D01*
X86084Y296855D01*
Y291145D01*
D02*
G37*
G36*
X42100Y290571D02*
X44472Y290883D01*
X47147Y291992D01*
X49445Y293755D01*
X51209Y296053D01*
X51218Y296075D01*
X53046Y296364D01*
X54524Y296219D01*
X55868Y294468D01*
X57957Y292865D01*
X60389Y291857D01*
X63000Y291514D01*
X67000D01*
X67604Y291593D01*
X67913Y291617D01*
X69424Y291636D01*
X70116Y291601D01*
X71633Y291425D01*
X72331Y291300D01*
X73540Y291005D01*
X73853Y290875D01*
X78429Y289777D01*
X83121Y289408D01*
Y289408D01*
X85560Y288053D01*
X86491Y287430D01*
X86844Y286818D01*
X87466Y284059D01*
X86931Y283362D01*
X86756Y283244D01*
X86661Y283102D01*
X84925Y280988D01*
X83556Y278426D01*
X82713Y275647D01*
X82445Y272925D01*
X82412Y272757D01*
Y271546D01*
X82383Y271180D01*
X82295Y270585D01*
X82186Y270133D01*
X82097Y269889D01*
X81634Y269797D01*
X80477Y269023D01*
X79703Y267866D01*
X79431Y266500D01*
Y263500D01*
X79703Y262134D01*
X80477Y260977D01*
X81634Y260203D01*
X83000Y259931D01*
X91000D01*
X91861Y259660D01*
X93988Y258301D01*
X94326Y257905D01*
X94558Y257558D01*
X95220Y257116D01*
X96000Y256961D01*
X104000D01*
X105431Y254218D01*
Y254000D01*
X105703Y252634D01*
X106477Y251477D01*
X107634Y250703D01*
X109000Y250431D01*
X117000D01*
X118366Y250703D01*
X119523Y251477D01*
X119961Y252132D01*
X120327Y252180D01*
X122030Y252885D01*
X123492Y254008D01*
X123540Y254069D01*
X124637Y255468D01*
X126744Y255261D01*
X128236Y254964D01*
X128883Y253975D01*
X129712Y251912D01*
X129000Y250194D01*
Y247806D01*
X129712Y246088D01*
X128780Y243768D01*
X128486Y243292D01*
X128276Y243111D01*
X128126Y243014D01*
X127809Y242951D01*
X126550Y243075D01*
Y243069D01*
X120752D01*
X120674Y243074D01*
X120346Y243113D01*
X120080Y243162D01*
X119878Y243214D01*
X119743Y243263D01*
X119686Y243291D01*
X119649Y243337D01*
X119647Y243339D01*
X119523Y243523D01*
X119045Y243843D01*
X119039Y243848D01*
X119036Y243849D01*
X118366Y244297D01*
X117000Y244569D01*
X109000D01*
X107634Y244297D01*
X106477Y243523D01*
X105703Y242366D01*
X105431Y241000D01*
Y240782D01*
X104000Y238039D01*
X96000D01*
X95220Y237884D01*
X94558Y237442D01*
X94326Y237095D01*
X93988Y236699D01*
X91861Y235340D01*
X91000Y235069D01*
X83000D01*
X81634Y234797D01*
X80477Y234023D01*
X79703Y232866D01*
X79431Y231500D01*
Y229358D01*
X76431Y228762D01*
X75735Y230443D01*
X74132Y232532D01*
X72043Y234135D01*
X69611Y235143D01*
X67000Y235486D01*
X63000D01*
X60389Y235143D01*
X57957Y234135D01*
X55868Y232532D01*
X54265Y230443D01*
X53924Y229619D01*
X50676D01*
X50335Y230443D01*
X48732Y232532D01*
X46643Y234135D01*
X44211Y235143D01*
X41600Y235486D01*
X37600D01*
X34990Y235143D01*
X32557Y234135D01*
X30468Y232532D01*
X30088Y232037D01*
X27088Y233055D01*
Y241502D01*
X28729Y242396D01*
X30088Y242699D01*
X32053Y241192D01*
X34728Y240083D01*
X37100Y239771D01*
Y250800D01*
Y261829D01*
X34728Y261517D01*
X32053Y260408D01*
X30088Y258901D01*
X28729Y259204D01*
X27088Y260098D01*
Y266902D01*
X28729Y267796D01*
X30088Y268099D01*
X32053Y266591D01*
X34728Y265483D01*
X37100Y265171D01*
Y276200D01*
Y287229D01*
X34728Y286917D01*
X32053Y285809D01*
X30088Y284301D01*
X28729Y284604D01*
X27088Y285498D01*
Y292302D01*
X28729Y293196D01*
X30088Y293499D01*
X32053Y291992D01*
X34728Y290883D01*
X37100Y290571D01*
Y301600D01*
X42100D01*
Y290571D01*
D02*
G37*
G36*
X137852Y294117D02*
X137569Y293655D01*
X137318Y293175D01*
X137101Y292676D01*
X136917Y292159D01*
X136767Y291622D01*
X136650Y291068D01*
X136597Y290702D01*
X136635Y290472D01*
X136740Y290078D01*
X136875Y289745D01*
X137040Y289472D01*
X137235Y289260D01*
X137460Y289109D01*
X137715Y289018D01*
X138000Y288987D01*
X132000D01*
X132285Y289018D01*
X132540Y289109D01*
X132765Y289260D01*
X132960Y289472D01*
X133125Y289745D01*
X133260Y290078D01*
X133365Y290472D01*
X133403Y290702D01*
X133350Y291068D01*
X133233Y291622D01*
X133083Y292159D01*
X132899Y292676D01*
X132682Y293175D01*
X132431Y293655D01*
X132148Y294117D01*
X131830Y294560D01*
X138170D01*
X137852Y294117D01*
D02*
G37*
G36*
X433537Y294520D02*
X433192Y293413D01*
X432746Y291535D01*
X432645Y290766D01*
X432626Y290110D01*
X432689Y289566D01*
X432832Y289135D01*
X433058Y288817D01*
X433364Y288611D01*
X433753Y288519D01*
X424720Y289280D01*
X425043Y289531D01*
X425363Y289849D01*
X425681Y290235D01*
X425995Y290688D01*
X426306Y291208D01*
X426615Y291796D01*
X427223Y293174D01*
X427523Y293964D01*
X427820Y294821D01*
X433537Y294520D01*
D02*
G37*
G36*
X497247Y291595D02*
X496939Y291455D01*
X496688Y291225D01*
X496496Y290904D01*
X496361Y290493D01*
X496284Y289991D01*
X496264Y289399D01*
X496303Y288717D01*
X496399Y287943D01*
X496553Y287080D01*
X492401Y287053D01*
X492208Y287913D01*
X491758Y289361D01*
X491501Y289948D01*
X491223Y290444D01*
X490923Y290849D01*
X490602Y291164D01*
X490260Y291387D01*
X489897Y291520D01*
X489512Y291561D01*
X497613Y291645D01*
X497247Y291595D01*
D02*
G37*
G36*
X99491Y288964D02*
X99018Y288820D01*
X98562Y288579D01*
X98123Y288242D01*
X97701Y287809D01*
X97296Y287279D01*
X96908Y286654D01*
X96537Y285932D01*
X96183Y285113D01*
X95847Y284199D01*
X90299Y284371D01*
X90576Y285253D01*
X90772Y286042D01*
X90888Y286738D01*
X90923Y287342D01*
X90879Y287852D01*
X90754Y288270D01*
X90550Y288595D01*
X90265Y288827D01*
X89900Y288966D01*
X89455Y289013D01*
X99982D01*
X99491Y288964D01*
D02*
G37*
G36*
X224015Y283442D02*
X224060Y282927D01*
X224135Y282472D01*
X224240Y282078D01*
X224375Y281745D01*
X224540Y281472D01*
X224735Y281260D01*
X224960Y281109D01*
X225215Y281018D01*
X225500Y280987D01*
X219500D01*
X219785Y281018D01*
X220040Y281109D01*
X220265Y281260D01*
X220460Y281472D01*
X220625Y281745D01*
X220760Y282078D01*
X220865Y282472D01*
X220940Y282927D01*
X220985Y283442D01*
X221000Y284018D01*
X224000D01*
X224015Y283442D01*
D02*
G37*
G36*
X126547Y280033D02*
X126490Y280305D01*
X126371Y280525D01*
X126190Y280691D01*
X125948Y280805D01*
X125643Y280867D01*
X125276Y280876D01*
X124847Y280832D01*
X124356Y280735D01*
X123804Y280586D01*
X123189Y280384D01*
X123136Y283618D01*
X123706Y283835D01*
X124214Y284061D01*
X124658Y284296D01*
X125040Y284539D01*
X125359Y284791D01*
X125615Y285053D01*
X125809Y285322D01*
X125939Y285601D01*
X126007Y285889D01*
X126013Y286185D01*
X126547Y280033D01*
D02*
G37*
G36*
X263695Y284461D02*
X264107Y284034D01*
X264534Y283642D01*
X264975Y283286D01*
X265430Y282965D01*
X265899Y282680D01*
X266382Y282430D01*
X266880Y282215D01*
X267391Y282037D01*
X267917Y281893D01*
X263001Y277891D01*
X262968Y278435D01*
X262896Y278972D01*
X262787Y279503D01*
X262641Y280026D01*
X262456Y280544D01*
X262234Y281054D01*
X261975Y281558D01*
X261677Y282056D01*
X261343Y282546D01*
X260970Y283030D01*
X263296Y284924D01*
X263695Y284461D01*
D02*
G37*
G36*
X120379Y278882D02*
X119979Y278550D01*
X119320Y277914D01*
X119061Y277611D01*
X118849Y277318D01*
X118685Y277035D01*
X118568Y276761D01*
X118497Y276498D01*
X118474Y276244D01*
X118498Y276000D01*
X111238Y277468D01*
X111641Y277430D01*
X112095Y277470D01*
X112598Y277589D01*
X113153Y277784D01*
X113757Y278058D01*
X114411Y278409D01*
X115116Y278839D01*
X116676Y279930D01*
X117531Y280593D01*
X120379Y278882D01*
D02*
G37*
G36*
X463037Y295375D02*
X463616Y295279D01*
X464052Y295163D01*
X464336Y295047D01*
X464412Y295001D01*
Y293500D01*
X464761Y291744D01*
X465756Y290256D01*
X467244Y289261D01*
X469000Y288912D01*
X474000D01*
X475756Y289261D01*
X475756Y289261D01*
X478058Y289558D01*
X478720Y289116D01*
X479500Y288961D01*
X485500D01*
X486280Y289116D01*
X489884Y286927D01*
X490498Y286378D01*
X490522Y286261D01*
X490531Y286248D01*
X490853Y284908D01*
X491911Y282352D01*
X489732Y277258D01*
X486280Y275884D01*
X485500Y276039D01*
X479500D01*
X478720Y275884D01*
X478058Y275442D01*
X476146Y276681D01*
X474000Y277108D01*
X474000D01*
Y265000D01*
X471500D01*
Y262500D01*
X463392D01*
Y258500D01*
X463819Y256354D01*
X465035Y254535D01*
X464550Y250644D01*
X462621Y248752D01*
X461108Y248729D01*
X458783Y249563D01*
X458088Y249933D01*
Y259500D01*
X457739Y261256D01*
X456744Y262744D01*
X455256Y263739D01*
X454629Y263864D01*
X454585Y264137D01*
X454569Y264337D01*
Y269663D01*
X454585Y269862D01*
X454629Y270136D01*
X455256Y270261D01*
X456744Y271256D01*
X457739Y272744D01*
X458088Y274500D01*
Y287500D01*
X457739Y289256D01*
X456966Y290412D01*
X457352Y292152D01*
X458759Y295412D01*
X462622D01*
X463037Y295375D01*
D02*
G37*
G36*
X424056Y274286D02*
X424015Y274715D01*
X423894Y275048D01*
X423695Y275286D01*
X423417Y275428D01*
X423060Y275474D01*
X422624Y275425D01*
X422109Y275280D01*
X421515Y275040D01*
X420842Y274703D01*
X420090Y274271D01*
X419520Y280505D01*
X420376Y281050D01*
X421815Y282136D01*
X422400Y282677D01*
X422894Y283216D01*
X423298Y283753D01*
X423612Y284289D01*
X423836Y284823D01*
X423969Y285355D01*
X424013Y285886D01*
X424056Y274286D01*
D02*
G37*
G36*
X503626Y276219D02*
X504571Y275406D01*
X505027Y275067D01*
X505470Y274772D01*
X505902Y274521D01*
X506323Y274316D01*
X506732Y274155D01*
X507130Y274038D01*
X507516Y273967D01*
X504397Y270848D01*
X505093Y266484D01*
X504556Y266749D01*
X504020Y266964D01*
X503485Y267127D01*
X502951Y267239D01*
X502417Y267300D01*
X501884Y267309D01*
X501353Y267268D01*
X501205Y267242D01*
X500879Y267106D01*
X500307Y266816D01*
X499813Y266509D01*
X499397Y266183D01*
X499058Y265839D01*
X498798Y265478D01*
X498617Y265098D01*
X498513Y264701D01*
X498487Y264286D01*
X498224Y272561D01*
X498278Y272169D01*
X498411Y271846D01*
X498625Y271591D01*
X498919Y271405D01*
X499292Y271287D01*
X499746Y271238D01*
X500155Y271253D01*
X501957Y271938D01*
X501934Y271973D01*
X501594Y272429D01*
X500781Y273374D01*
X500308Y273864D01*
X503136Y276692D01*
X503626Y276219D01*
D02*
G37*
G36*
X453710Y272080D02*
X453456Y271986D01*
X453232Y271830D01*
X453038Y271611D01*
X452873Y271329D01*
X452739Y270985D01*
X452635Y270578D01*
X452560Y270109D01*
X452515Y269577D01*
X452500Y268982D01*
X449500D01*
X449485Y269577D01*
X449440Y270109D01*
X449366Y270578D01*
X449261Y270985D01*
X449127Y271329D01*
X448962Y271611D01*
X448768Y271830D01*
X448544Y271986D01*
X448290Y272080D01*
X448006Y272111D01*
X453994D01*
X453710Y272080D01*
D02*
G37*
G36*
X290245Y271404D02*
X290354Y270875D01*
X290485Y270409D01*
X290639Y270004D01*
X290814Y269662D01*
X291010Y269382D01*
X291229Y269164D01*
X291470Y269009D01*
X291733Y268915D01*
X292017Y268884D01*
X285992Y268886D01*
X286269Y268917D01*
X286509Y269010D01*
X286712Y269165D01*
X286877Y269382D01*
X287006Y269660D01*
X287097Y270002D01*
X287151Y270405D01*
X287167Y270870D01*
X287147Y271397D01*
X287089Y271986D01*
X290157Y271996D01*
X290245Y271404D01*
D02*
G37*
G36*
X89522Y271803D02*
X89590Y270949D01*
X89702Y270196D01*
X89859Y269543D01*
X90061Y268990D01*
X90307Y268538D01*
X90599Y268187D01*
X90935Y267936D01*
X91316Y267785D01*
X91742Y267735D01*
X82258D01*
X82684Y267785D01*
X83065Y267936D01*
X83401Y268187D01*
X83693Y268538D01*
X83940Y268990D01*
X84141Y269543D01*
X84298Y270196D01*
X84410Y270949D01*
X84478Y271803D01*
X84500Y272757D01*
X89500D01*
X89522Y271803D01*
D02*
G37*
G36*
X452515Y264423D02*
X452560Y263891D01*
X452635Y263422D01*
X452739Y263015D01*
X452873Y262671D01*
X453038Y262389D01*
X453232Y262170D01*
X453456Y262014D01*
X453710Y261920D01*
X453994Y261889D01*
X448006D01*
X448290Y261920D01*
X448544Y262014D01*
X448768Y262170D01*
X448962Y262389D01*
X449127Y262671D01*
X449261Y263015D01*
X449366Y263422D01*
X449440Y263891D01*
X449485Y264423D01*
X449500Y265018D01*
X452500D01*
X452515Y264423D01*
D02*
G37*
G36*
X530346Y262090D02*
X529046Y261929D01*
X526692Y261502D01*
X525637Y261236D01*
X524664Y260935D01*
X523774Y260600D01*
X522965Y260229D01*
X522238Y259824D01*
X521592Y259384D01*
X521029Y258909D01*
X518971Y261091D01*
X519479Y261626D01*
X519956Y262244D01*
X520404Y262946D01*
X520821Y263732D01*
X521209Y264601D01*
X521566Y265554D01*
X521894Y266591D01*
X522458Y268916D01*
X522696Y270205D01*
X530346Y262090D01*
D02*
G37*
G36*
X143829Y265200D02*
X143914Y265004D01*
X144053Y264861D01*
X144247Y264772D01*
X144496Y264737D01*
X144799Y264755D01*
X145157Y264828D01*
X145570Y264953D01*
X146037Y265133D01*
X146558Y265366D01*
X146801Y261803D01*
X146241Y261522D01*
X145299Y260955D01*
X144917Y260669D01*
X144594Y260380D01*
X144330Y260090D01*
X144126Y259797D01*
X143981Y259503D01*
X143896Y259207D01*
X143869Y258908D01*
X143799Y265450D01*
X143829Y265200D01*
D02*
G37*
G36*
X417500Y260199D02*
X417650Y255049D01*
X410022Y257316D01*
X410493Y257235D01*
X410914Y257289D01*
X411286Y257476D01*
X411608Y257797D01*
X411880Y258252D01*
X412104Y258841D01*
X412277Y259563D01*
X412401Y260419D01*
X412475Y261409D01*
X412500Y262533D01*
X417500Y260199D01*
D02*
G37*
G36*
X647525Y260062D02*
X647600Y259207D01*
X647725Y258452D01*
X647900Y257798D01*
X648125Y257245D01*
X648400Y256792D01*
X648725Y256440D01*
X649100Y256189D01*
X649525Y256038D01*
X650000Y255987D01*
X640000D01*
X640475Y256038D01*
X640900Y256189D01*
X641275Y256440D01*
X641600Y256792D01*
X641875Y257245D01*
X642100Y257798D01*
X642275Y258452D01*
X642400Y259207D01*
X642475Y260062D01*
X642500Y261018D01*
X647500D01*
X647525Y260062D01*
D02*
G37*
G36*
X313710Y251080D02*
X313456Y250986D01*
X313232Y250830D01*
X313038Y250611D01*
X312873Y250329D01*
X312739Y249985D01*
X312635Y249578D01*
X312560Y249109D01*
X312515Y248577D01*
X312500Y247982D01*
X309500D01*
X309485Y248577D01*
X309440Y249109D01*
X309366Y249578D01*
X309261Y249985D01*
X309126Y250329D01*
X308962Y250611D01*
X308768Y250830D01*
X308544Y250986D01*
X308290Y251080D01*
X308006Y251112D01*
X313994D01*
X313710Y251080D01*
D02*
G37*
G36*
X291710D02*
X291456Y250986D01*
X291232Y250830D01*
X291038Y250611D01*
X290874Y250329D01*
X290739Y249985D01*
X290634Y249578D01*
X290560Y249109D01*
X290515Y248577D01*
X290500Y247982D01*
X287500D01*
X287485Y248577D01*
X287440Y249109D01*
X287365Y249578D01*
X287261Y249985D01*
X287127Y250329D01*
X286962Y250611D01*
X286768Y250830D01*
X286544Y250986D01*
X286290Y251080D01*
X286006Y251112D01*
X291994D01*
X291710Y251080D01*
D02*
G37*
G36*
X561756Y254361D02*
X561757Y253953D01*
X561820Y253531D01*
X561944Y253096D01*
X562129Y252648D01*
X562375Y252186D01*
X562683Y251711D01*
X563052Y251222D01*
X563483Y250720D01*
X563975Y250204D01*
X561146Y247375D01*
X560631Y247867D01*
X560128Y248298D01*
X559639Y248667D01*
X559164Y248975D01*
X558702Y249221D01*
X558254Y249406D01*
X557819Y249530D01*
X557397Y249593D01*
X556989Y249594D01*
X556595Y249534D01*
X561816Y254755D01*
X561756Y254361D01*
D02*
G37*
G36*
X270879Y252951D02*
X270866Y252699D01*
X270868Y252394D01*
X270921Y251620D01*
X271120Y250053D01*
X271332Y248738D01*
X268498Y246933D01*
X268461Y247373D01*
X268368Y247788D01*
X268219Y248180D01*
X268013Y248548D01*
X267752Y248892D01*
X267435Y249211D01*
X267061Y249507D01*
X266632Y249779D01*
X266146Y250027D01*
X265604Y250251D01*
X270908Y253148D01*
X270879Y252951D01*
D02*
G37*
G36*
X312500Y247122D02*
X312510Y246446D01*
X312653Y244639D01*
X312738Y244110D01*
X312967Y243163D01*
X313065Y242879D01*
X313227Y242828D01*
X313607Y242741D01*
X314046Y242667D01*
X315100Y242560D01*
X316389Y242507D01*
X317122Y242500D01*
Y237500D01*
X316389Y237493D01*
X314046Y237333D01*
X313607Y237259D01*
X313227Y237172D01*
X312906Y237071D01*
X312643Y236958D01*
X312440Y236830D01*
Y241735D01*
X312360Y240826D01*
X308916Y242253D01*
X309027Y242305D01*
X309354Y242434D01*
X309407Y242446D01*
X309447Y242450D01*
X309477Y242446D01*
X309494Y242434D01*
X309500Y242414D01*
X310329D01*
X307160Y242817D01*
X307605Y243293D01*
X308002Y243778D01*
X308353Y244271D01*
X308658Y244774D01*
X308915Y245284D01*
X309126Y245804D01*
X309289Y246332D01*
X309406Y246869D01*
X309477Y247414D01*
X309500Y247969D01*
X312500Y247122D01*
D02*
G37*
G36*
X456001Y246337D02*
X456008Y246145D01*
X456040Y245924D01*
X456097Y245675D01*
X456179Y245397D01*
X456417Y244755D01*
X456754Y243998D01*
X456959Y243576D01*
X454838Y241455D01*
X454545Y242024D01*
X453773Y243314D01*
X453552Y243604D01*
X453348Y243825D01*
X453163Y243977D01*
X452995Y244058D01*
X452845Y244070D01*
X452713Y244013D01*
X456018Y246500D01*
X456001Y246337D01*
D02*
G37*
G36*
X428960Y244013D02*
X428895Y243992D01*
X428805Y243919D01*
X428689Y243794D01*
X428548Y243617D01*
X428188Y243105D01*
X427162Y241455D01*
X425041Y243576D01*
X425129Y243729D01*
X425259Y243988D01*
X425302Y244094D01*
X425330Y244184D01*
X425342Y244260D01*
X425340Y244320D01*
X425323Y244364D01*
X425290Y244393D01*
X425243Y244407D01*
X428960Y244013D01*
D02*
G37*
G36*
X137852Y246117D02*
X137569Y245655D01*
X137318Y245175D01*
X137101Y244676D01*
X136917Y244158D01*
X136767Y243622D01*
X136650Y243068D01*
X136597Y242702D01*
X136635Y242472D01*
X136740Y242078D01*
X136875Y241745D01*
X137040Y241472D01*
X137235Y241260D01*
X137460Y241109D01*
X137715Y241018D01*
X138000Y240987D01*
X132000D01*
X132285Y241018D01*
X132540Y241109D01*
X132765Y241260D01*
X132960Y241472D01*
X133125Y241745D01*
X133260Y242078D01*
X133365Y242472D01*
X133403Y242702D01*
X133350Y243068D01*
X133233Y243622D01*
X133083Y244158D01*
X132899Y244676D01*
X132682Y245175D01*
X132431Y245655D01*
X132148Y246117D01*
X131830Y246560D01*
X138170D01*
X137852Y246117D01*
D02*
G37*
G36*
X467523Y240193D02*
X464740Y240000D01*
X460877Y243000D01*
X461357Y243032D01*
X461832Y243128D01*
X462301Y243288D01*
X462763Y243513D01*
X463220Y243801D01*
X463670Y244154D01*
X464115Y244571D01*
X464554Y245051D01*
X464986Y245596D01*
X465413Y246205D01*
X467523Y240193D01*
D02*
G37*
G36*
X467412Y237490D02*
X467523Y237807D01*
X467643Y237844D01*
X467764Y237877D01*
X468129Y237952D01*
X468252Y237969D01*
X468625Y237998D01*
X468750Y238000D01*
X467412Y237490D01*
D02*
G37*
G36*
X118221Y241858D02*
X118424Y241678D01*
X118666Y241519D01*
X118949Y241381D01*
X119273Y241265D01*
X119637Y241169D01*
X120042Y241095D01*
X120487Y241042D01*
X120972Y241011D01*
X121498Y241000D01*
Y238000D01*
X120972Y237989D01*
X120042Y237905D01*
X119637Y237831D01*
X119273Y237735D01*
X118949Y237619D01*
X118666Y237481D01*
X118424Y237322D01*
X118221Y237142D01*
X118060Y236940D01*
Y242059D01*
X118221Y241858D01*
D02*
G37*
G36*
X332393Y240009D02*
X331893Y236684D01*
X331492Y237004D01*
X331091Y237275D01*
X330690Y237496D01*
X330288Y237667D01*
X329886Y237789D01*
X329484Y237862D01*
X329081Y237885D01*
X328679Y237858D01*
X328275Y237782D01*
X327872Y237657D01*
X329135Y241300D01*
X332393Y240009D01*
D02*
G37*
G36*
X127536Y240826D02*
X126013Y236500D01*
X126077Y236785D01*
X126060Y237040D01*
X125962Y237265D01*
X125781Y237460D01*
X125519Y237625D01*
X125175Y237760D01*
X124750Y237865D01*
X124242Y237940D01*
X123653Y237985D01*
X122982Y238000D01*
X123198Y241000D01*
X127536Y240826D01*
D02*
G37*
G36*
X456959Y234424D02*
X456754Y234002D01*
X456179Y232603D01*
X456097Y232325D01*
X456040Y232076D01*
X456008Y231855D01*
X456001Y231663D01*
X456018Y231500D01*
X452713Y233987D01*
X452845Y233930D01*
X452995Y233942D01*
X453162Y234023D01*
X453348Y234175D01*
X453552Y234396D01*
X453773Y234686D01*
X454012Y235046D01*
X454545Y235976D01*
X454838Y236545D01*
X456959Y234424D01*
D02*
G37*
G36*
X427457Y236054D02*
X428805Y234081D01*
X428895Y234008D01*
X428960Y233987D01*
X425243Y233593D01*
X425290Y233607D01*
X425323Y233636D01*
X425340Y233680D01*
X425342Y233740D01*
X425330Y233815D01*
X425302Y233906D01*
X425259Y234012D01*
X425201Y234134D01*
X425041Y234424D01*
X427162Y236545D01*
X427457Y236054D01*
D02*
G37*
G36*
X165000Y363931D02*
X170177D01*
X171931Y362500D01*
X172203Y361134D01*
X172961Y360000D01*
X172203Y358866D01*
X171931Y357500D01*
X172203Y356134D01*
X172961Y355000D01*
X172203Y353866D01*
X171931Y352500D01*
X172203Y351134D01*
X172961Y350000D01*
X172203Y348866D01*
X171931Y347500D01*
X172203Y346134D01*
X172961Y345000D01*
X172203Y343866D01*
X171931Y342500D01*
X172203Y341134D01*
X172961Y340000D01*
X172203Y338866D01*
X171931Y337500D01*
X172203Y336134D01*
X172961Y335000D01*
X172203Y333866D01*
X171931Y332500D01*
X172203Y331134D01*
X172961Y330000D01*
X172203Y328866D01*
X171931Y327500D01*
X172203Y326134D01*
X172961Y325000D01*
X172203Y323866D01*
X171931Y322500D01*
X172203Y321134D01*
X172977Y319977D01*
X174134Y319203D01*
X175000Y319031D01*
Y299108D01*
X173500D01*
X171354Y298681D01*
X169535Y297465D01*
X168319Y295646D01*
X167892Y293500D01*
D01*
X180000D01*
Y288500D01*
X167892D01*
X168319Y286354D01*
X168474Y286123D01*
X169558Y284442D01*
X169116Y283780D01*
X168961Y283000D01*
Y277000D01*
X169116Y276220D01*
X169558Y275558D01*
X169360Y273403D01*
X169261Y273256D01*
X168912Y271500D01*
Y266500D01*
X169261Y264744D01*
X170256Y263256D01*
X171744Y262261D01*
X173500Y261912D01*
X175000D01*
Y244000D01*
X226000D01*
X230000Y240000D01*
Y234039D01*
X224000D01*
X223220Y233884D01*
X222558Y233442D01*
X220877Y234526D01*
X220646Y234681D01*
X218500Y235108D01*
Y223000D01*
Y210892D01*
X220646Y211319D01*
X220877Y211474D01*
X222558Y212558D01*
X223220Y212116D01*
X224000Y211961D01*
X230000D01*
Y205500D01*
X175000D01*
Y153340D01*
X173000Y152662D01*
X172419Y153419D01*
X170539Y154861D01*
X168349Y155768D01*
X166000Y156078D01*
X162500D01*
Y135000D01*
Y113922D01*
X166000D01*
X168349Y114232D01*
X170539Y115139D01*
X172419Y116581D01*
X173000Y117338D01*
X175000Y116660D01*
Y100000D01*
X230002D01*
X231191Y98000D01*
X230892Y96500D01*
Y92500D01*
X239000D01*
Y90000D01*
X241500D01*
Y77892D01*
X241500D01*
X243000Y78191D01*
X245000Y77002D01*
Y64479D01*
X243604Y63487D01*
X243000Y63290D01*
X241500Y63588D01*
X236500D01*
X234744Y63239D01*
X233256Y62244D01*
X232261Y60756D01*
X231912Y59000D01*
Y57906D01*
X230072Y57113D01*
X229317Y57189D01*
X229004Y57242D01*
X228760Y57298D01*
X228654Y57331D01*
X228399Y57586D01*
X226194Y58500D01*
X223806D01*
X221601Y57586D01*
X219914Y55899D01*
X219000Y53693D01*
Y51307D01*
X219914Y49101D01*
X221601Y47413D01*
X223806Y46500D01*
X226194D01*
X228399Y47413D01*
X228654Y47669D01*
X228760Y47702D01*
X229004Y47758D01*
X229285Y47805D01*
X230060Y47858D01*
X231912Y46553D01*
Y46000D01*
X232261Y44244D01*
X233256Y42756D01*
X234744Y41761D01*
X236500Y41412D01*
X241500D01*
X243000Y41710D01*
X243604Y41513D01*
X245000Y40521D01*
Y20000D01*
X100000D01*
Y30856D01*
X101788Y36123D01*
X103156Y43002D01*
X103615Y50000D01*
X103156Y56998D01*
X101788Y63877D01*
X100000Y69144D01*
Y85000D01*
X125000D01*
Y125000D01*
X112923D01*
X112317Y127000D01*
X113326Y127674D01*
X114652Y129659D01*
X115118Y132000D01*
Y132500D01*
X100000D01*
Y137500D01*
X115118D01*
Y138000D01*
X114652Y140341D01*
X113326Y142326D01*
X112317Y143000D01*
X112923Y145000D01*
X125000D01*
Y175000D01*
X133638D01*
X134744Y174261D01*
X136500Y173912D01*
X141500D01*
X143256Y174261D01*
X143494Y174420D01*
X145558Y174558D01*
X146220Y174116D01*
X147000Y173961D01*
X153000D01*
X153780Y174116D01*
X154442Y174558D01*
X156123Y173474D01*
X156354Y173319D01*
X158500Y172892D01*
D01*
Y185000D01*
Y197108D01*
X156354Y196681D01*
X156123Y196526D01*
X154442Y195442D01*
X153780Y195884D01*
X153000Y196039D01*
X150000D01*
Y211791D01*
X151313Y212334D01*
X154341Y214659D01*
X156666Y217687D01*
X158127Y221215D01*
X158625Y225000D01*
X158569D01*
Y357500D01*
X158535Y357667D01*
X158997Y359987D01*
X160405Y362095D01*
X162513Y363503D01*
X164833Y363965D01*
X165000Y363931D01*
D02*
G37*
G36*
X254563Y237007D02*
X255260Y235212D01*
X255499Y234710D01*
X255984Y233850D01*
X256230Y233493D01*
X256480Y233183D01*
X256733Y232921D01*
X250475Y231890D01*
X250779Y232500D01*
X251034Y233097D01*
X251238Y233683D01*
X251392Y234258D01*
X251495Y234821D01*
X251548Y235372D01*
X251550Y235912D01*
X251503Y236439D01*
X251405Y236956D01*
X251256Y237461D01*
X254336Y237702D01*
X254563Y237007D01*
D02*
G37*
G36*
X465413Y231795D02*
X464986Y232404D01*
X464554Y232949D01*
X464115Y233430D01*
X463670Y233846D01*
X463220Y234199D01*
X462763Y234487D01*
X462301Y234711D01*
X461832Y234872D01*
X461357Y234968D01*
X460877Y235000D01*
X467412Y237490D01*
X465413Y231795D01*
D02*
G37*
G36*
X239015Y234433D02*
X239060Y233910D01*
X239135Y233451D01*
X239239Y233053D01*
X239373Y232719D01*
X239538Y232447D01*
X239732Y232239D01*
X239956Y232092D01*
X240210Y232009D01*
X240494Y231988D01*
X234517Y231777D01*
X234799Y231818D01*
X235051Y231923D01*
X235273Y232090D01*
X235466Y232320D01*
X235629Y232613D01*
X235763Y232969D01*
X235867Y233387D01*
X235941Y233868D01*
X235985Y234412D01*
X236000Y235018D01*
X239000D01*
X239015Y234433D01*
D02*
G37*
G36*
X337184Y233388D02*
X337317Y232862D01*
X337468Y232397D01*
X337638Y231995D01*
X337826Y231654D01*
X338032Y231376D01*
X338257Y231159D01*
X338500Y231003D01*
X338762Y230910D01*
X339042Y230879D01*
X332994Y230886D01*
X333260Y230916D01*
X333487Y231008D01*
X333675Y231160D01*
X333824Y231374D01*
X333934Y231648D01*
X334005Y231984D01*
X334038Y232380D01*
X334031Y232838D01*
X333985Y233357D01*
X333901Y233937D01*
X337069Y233976D01*
X337184Y233388D01*
D02*
G37*
G36*
X550730Y225403D02*
X549688Y226172D01*
X547661Y227467D01*
X546676Y227993D01*
X545710Y228438D01*
X544762Y228803D01*
X543834Y229086D01*
X542925Y229288D01*
X542034Y229410D01*
X541163Y229450D01*
Y232450D01*
X542034Y232491D01*
X542925Y232612D01*
X543834Y232814D01*
X544762Y233097D01*
X545710Y233462D01*
X546676Y233907D01*
X547661Y234433D01*
X548665Y235040D01*
X550730Y236497D01*
Y225403D01*
D02*
G37*
G36*
X303063Y232618D02*
X303343Y232415D01*
X303680Y232207D01*
X304074Y231993D01*
X305036Y231549D01*
X306228Y231084D01*
X307561Y230627D01*
X308090Y230500D01*
X308520Y230440D01*
X308923Y230416D01*
X309299Y230427D01*
X309649Y230473D01*
X309972Y230555D01*
X310267Y230673D01*
X310536Y230826D01*
X309013Y225299D01*
X309057Y225590D01*
X309030Y225874D01*
X308929Y226152D01*
X308756Y226422D01*
X308511Y226686D01*
X308193Y226943D01*
X307802Y227194D01*
X307338Y227438D01*
X306863Y227648D01*
X306567Y227707D01*
X306054Y227752D01*
X305524Y227742D01*
X304977Y227677D01*
X304413Y227557D01*
X303832Y227382D01*
X303235Y227153D01*
X302620Y226868D01*
X301988Y226529D01*
X302842Y232815D01*
X303063Y232618D01*
D02*
G37*
G36*
X264017Y227097D02*
X264067Y226506D01*
X264150Y225932D01*
X264267Y225378D01*
X264417Y224841D01*
X264601Y224324D01*
X264818Y223825D01*
X265068Y223345D01*
X265352Y222883D01*
X265670Y222440D01*
X259330D01*
X259648Y222883D01*
X259931Y223345D01*
X260182Y223825D01*
X260399Y224324D01*
X260583Y224841D01*
X260733Y225378D01*
X260850Y225932D01*
X260933Y226506D01*
X260983Y227097D01*
X261000Y227708D01*
X264000D01*
X264017Y227097D01*
D02*
G37*
G36*
X91316Y227215D02*
X90935Y227064D01*
X90599Y226813D01*
X90307Y226462D01*
X90061Y226010D01*
X89859Y225457D01*
X89702Y224804D01*
X89590Y224051D01*
X89522Y223197D01*
X89500Y222243D01*
X84500D01*
X84478Y223197D01*
X84410Y224051D01*
X84298Y224804D01*
X84141Y225457D01*
X83940Y226010D01*
X83693Y226462D01*
X83401Y226813D01*
X83065Y227064D01*
X82684Y227215D01*
X82258Y227265D01*
X91742D01*
X91316Y227215D01*
D02*
G37*
G36*
X243012Y224319D02*
X243087Y224101D01*
X243212Y223862D01*
X243387Y223603D01*
X243612Y223323D01*
X243887Y223022D01*
X244586Y222360D01*
X245010Y221999D01*
X245485Y221617D01*
X243766Y219113D01*
X243618Y219218D01*
X243486Y219291D01*
X243369Y219330D01*
X243268Y219335D01*
X243182Y219308D01*
X243112Y219247D01*
X243057Y219153D01*
X243019Y219025D01*
X242995Y218864D01*
X242987Y218670D01*
Y224518D01*
X243012Y224319D01*
D02*
G37*
G36*
X649525Y223962D02*
X649100Y223811D01*
X648725Y223560D01*
X648400Y223208D01*
X648125Y222755D01*
X647900Y222202D01*
X647725Y221548D01*
X647600Y220793D01*
X647525Y219938D01*
X647500Y218982D01*
X642500D01*
X642475Y219938D01*
X642400Y220793D01*
X642275Y221548D01*
X642100Y222202D01*
X641875Y222755D01*
X641600Y223208D01*
X641275Y223560D01*
X640900Y223811D01*
X640475Y223962D01*
X640000Y224013D01*
X650000D01*
X649525Y223962D01*
D02*
G37*
G36*
X418042Y223357D02*
X417929Y223094D01*
X417828Y222773D01*
X417741Y222393D01*
X417667Y221954D01*
X417560Y220900D01*
X417507Y219611D01*
X417500Y218878D01*
X412500D01*
X412493Y219611D01*
X412333Y221954D01*
X412259Y222393D01*
X412172Y222773D01*
X412071Y223094D01*
X411958Y223357D01*
X411830Y223560D01*
X418170D01*
X418042Y223357D01*
D02*
G37*
G36*
X315500Y213013D02*
X315215Y213015D01*
X314960Y212950D01*
X314735Y212817D01*
X314540Y212616D01*
X314375Y212347D01*
X314240Y212010D01*
X314135Y211605D01*
X314060Y211132D01*
X314015Y210591D01*
X314000Y209982D01*
X311000Y210082D01*
X310987Y210619D01*
X310949Y211117D01*
X310885Y211578D01*
X310795Y211999D01*
X310680Y212382D01*
X310539Y212727D01*
X310373Y213033D01*
X310181Y213300D01*
X309963Y213529D01*
X309720Y213720D01*
X315500Y213013D01*
D02*
G37*
G36*
X453710Y216080D02*
X453456Y215986D01*
X453232Y215830D01*
X453038Y215611D01*
X452873Y215329D01*
X452739Y214985D01*
X452635Y214578D01*
X452560Y214109D01*
X452515Y213577D01*
X452500Y212982D01*
X449500D01*
X449485Y213577D01*
X449440Y214109D01*
X449366Y214578D01*
X449261Y214985D01*
X449127Y215329D01*
X448962Y215611D01*
X448768Y215830D01*
X448544Y215986D01*
X448290Y216080D01*
X448006Y216112D01*
X453994D01*
X453710Y216080D01*
D02*
G37*
G36*
X284919Y216490D02*
X284269Y216112D01*
X283688Y215724D01*
X283175Y215327D01*
X282731Y214921D01*
X282355Y214506D01*
X282047Y214082D01*
X281808Y213648D01*
X281637Y213205D01*
X281534Y212753D01*
X281500Y212292D01*
X278500Y213354D01*
X279099Y219117D01*
X284919Y216490D01*
D02*
G37*
G36*
X143918Y216728D02*
X144010Y216494D01*
X144164Y216297D01*
X144380Y216139D01*
X144657Y216017D01*
X144996Y215934D01*
X145396Y215888D01*
X145858Y215879D01*
X146382Y215909D01*
X146967Y215975D01*
X146989Y212863D01*
X146399Y212766D01*
X145871Y212649D01*
X145405Y212511D01*
X145001Y212353D01*
X144659Y212174D01*
X144380Y211975D01*
X144162Y211755D01*
X144007Y211514D01*
X143913Y211253D01*
X143882Y210972D01*
X143888Y216999D01*
X143918Y216728D01*
D02*
G37*
G36*
X124508Y217846D02*
X125224Y217431D01*
X125515Y217304D01*
X125763Y217229D01*
X125966Y217208D01*
X126125Y217240D01*
X126241Y217326D01*
X126312Y217464D01*
X126339Y217656D01*
X126174Y210536D01*
X126081Y210897D01*
X125946Y211256D01*
X125768Y211613D01*
X125548Y211970D01*
X125285Y212325D01*
X124980Y212680D01*
X124633Y213032D01*
X124244Y213384D01*
X123812Y213735D01*
X123337Y214084D01*
X124085Y218133D01*
X124508Y217846D01*
D02*
G37*
G36*
X339787Y213549D02*
X339580Y213432D01*
X339432Y213257D01*
X339344Y213023D01*
X339316Y212731D01*
X339347Y212379D01*
X339439Y211968D01*
X339591Y211499D01*
X339802Y210970D01*
X340073Y210383D01*
X336643Y210239D01*
X336357Y210792D01*
X336069Y211283D01*
X335780Y211713D01*
X335488Y212082D01*
X335194Y212390D01*
X334899Y212637D01*
X334601Y212823D01*
X334302Y212947D01*
X334000Y213010D01*
X333697Y213013D01*
X340055Y213606D01*
X339787Y213549D01*
D02*
G37*
G36*
X452515Y208423D02*
X452560Y207891D01*
X452635Y207422D01*
X452739Y207015D01*
X452873Y206671D01*
X453038Y206389D01*
X453232Y206170D01*
X453456Y206014D01*
X453710Y205920D01*
X453994Y205889D01*
X448006D01*
X448290Y205920D01*
X448544Y206014D01*
X448768Y206170D01*
X448962Y206389D01*
X449127Y206671D01*
X449261Y207015D01*
X449366Y207422D01*
X449440Y207891D01*
X449485Y208423D01*
X449500Y209018D01*
X452500D01*
X452515Y208423D01*
D02*
G37*
G36*
X495947Y211236D02*
X495749Y210873D01*
X495573Y210470D01*
X495421Y210027D01*
X495292Y209544D01*
X495187Y209022D01*
X495105Y208460D01*
X495092Y208283D01*
X495178Y207684D01*
X495317Y207090D01*
X495496Y206586D01*
X495714Y206175D01*
X495972Y205854D01*
X496269Y205625D01*
X496606Y205488D01*
X496983Y205442D01*
X489017D01*
X489394Y205488D01*
X489731Y205625D01*
X490028Y205854D01*
X490286Y206175D01*
X490504Y206586D01*
X490683Y207090D01*
X490821Y207684D01*
X490908Y208283D01*
X490895Y208460D01*
X490813Y209022D01*
X490708Y209544D01*
X490579Y210027D01*
X490427Y210470D01*
X490251Y210873D01*
X490053Y211236D01*
X489830Y211560D01*
X496170D01*
X495947Y211236D01*
D02*
G37*
G36*
X96509Y208940D02*
X96812Y208111D01*
X97137Y207379D01*
X97485Y206744D01*
X97854Y206208D01*
X98247Y205768D01*
X98661Y205427D01*
X99099Y205183D01*
X99558Y205036D01*
X100040Y204987D01*
X89704D01*
X90149Y205035D01*
X90520Y205178D01*
X90817Y205416D01*
X91039Y205749D01*
X91187Y206178D01*
X91260Y206701D01*
X91258Y207320D01*
X91182Y208034D01*
X91031Y208843D01*
X90806Y209748D01*
X96229Y209868D01*
X96509Y208940D01*
D02*
G37*
G36*
X32748Y210414D02*
X34241Y209131D01*
X34907Y208649D01*
X35520Y208272D01*
X36080Y208001D01*
X36586Y207837D01*
X37039Y207778D01*
X37439Y207825D01*
X37785Y207978D01*
X30278Y203142D01*
X30546Y203376D01*
X30708Y203664D01*
X30764Y204005D01*
X30713Y204400D01*
X30555Y204848D01*
X30292Y205350D01*
X29921Y205905D01*
X29445Y206514D01*
X28861Y207177D01*
X28172Y207893D01*
X31922Y211214D01*
X32748Y210414D01*
D02*
G37*
G36*
X86720Y195720D02*
X86448Y196058D01*
X86109Y196360D01*
X85704Y196628D01*
X85231Y196859D01*
X84690Y197055D01*
X84083Y197215D01*
X83409Y197340D01*
X82667Y197429D01*
X81858Y197482D01*
X80982Y197500D01*
Y202500D01*
X81858Y202518D01*
X83409Y202660D01*
X84083Y202785D01*
X84690Y202945D01*
X85231Y203141D01*
X85704Y203372D01*
X86109Y203640D01*
X86448Y203942D01*
X86720Y204280D01*
Y195720D01*
D02*
G37*
G36*
X74893Y204522D02*
X75048Y204097D01*
X75307Y203723D01*
X75668Y203399D01*
X76132Y203124D01*
X76700Y202899D01*
X77371Y202725D01*
X78145Y202600D01*
X79023Y202525D01*
X80004Y202500D01*
Y197500D01*
X79023Y197475D01*
X78145Y197400D01*
X77371Y197275D01*
X76700Y197101D01*
X76132Y196876D01*
X75668Y196601D01*
X75307Y196277D01*
X75048Y195903D01*
X74893Y195478D01*
X74842Y195004D01*
Y204996D01*
X74893Y204522D01*
D02*
G37*
G36*
X351047Y194547D02*
X351408Y194515D01*
X351984Y194500D01*
Y191500D01*
X351408Y191485D01*
X351047Y191453D01*
Y190000D01*
X351017Y190285D01*
X350926Y190540D01*
X350774Y190765D01*
X350562Y190960D01*
X350289Y191125D01*
X350000Y191242D01*
X349711Y191125D01*
X349438Y190960D01*
X349226Y190765D01*
X349074Y190540D01*
X348983Y190285D01*
X348953Y190000D01*
Y191453D01*
X348592Y191485D01*
X348016Y191500D01*
Y194500D01*
X348592Y194515D01*
X348953Y194547D01*
Y196000D01*
X348983Y195715D01*
X349074Y195460D01*
X349226Y195235D01*
X349438Y195040D01*
X349711Y194875D01*
X350000Y194758D01*
X350289Y194875D01*
X350562Y195040D01*
X350774Y195235D01*
X350926Y195460D01*
X351017Y195715D01*
X351047Y196000D01*
Y194547D01*
D02*
G37*
G36*
X346047D02*
X346408Y194515D01*
X346984Y194500D01*
Y191500D01*
X346408Y191485D01*
X346047Y191453D01*
Y190000D01*
X346017Y190285D01*
X345926Y190540D01*
X345774Y190765D01*
X345562Y190960D01*
X345289Y191125D01*
X345000Y191242D01*
X344711Y191125D01*
X344438Y190960D01*
X344226Y190765D01*
X344074Y190540D01*
X343983Y190285D01*
X343953Y190000D01*
Y191453D01*
X343592Y191485D01*
X343016Y191500D01*
Y194500D01*
X343592Y194515D01*
X343953Y194547D01*
Y196000D01*
X343983Y195715D01*
X344074Y195460D01*
X344226Y195235D01*
X344438Y195040D01*
X344711Y194875D01*
X345000Y194758D01*
X345289Y194875D01*
X345562Y195040D01*
X345774Y195235D01*
X345926Y195460D01*
X346017Y195715D01*
X346047Y196000D01*
Y194547D01*
D02*
G37*
G36*
X424013Y191864D02*
X423967Y192250D01*
X423831Y192568D01*
X423603Y192817D01*
X423285Y192999D01*
X422876Y193112D01*
X422376Y193158D01*
X421785Y193135D01*
X421103Y193044D01*
X420330Y192885D01*
X419466Y192658D01*
X419140Y198423D01*
X420066Y198712D01*
X420894Y199019D01*
X421625Y199345D01*
X422258Y199689D01*
X422794Y200051D01*
X423233Y200431D01*
X423574Y200830D01*
X423818Y201247D01*
X423964Y201682D01*
X424013Y202136D01*
Y191864D01*
D02*
G37*
G36*
X238613Y202237D02*
X241368Y200764D01*
X243683Y198864D01*
X243756Y198756D01*
X243864Y198683D01*
X245764Y196368D01*
X247237Y193613D01*
X247807Y191734D01*
X246322Y190612D01*
X245143Y190181D01*
X243646Y191181D01*
X241500Y191608D01*
X237500D01*
Y183500D01*
X235000D01*
Y181000D01*
X222892D01*
X223319Y178854D01*
X224558Y176942D01*
X224116Y176280D01*
X223961Y175500D01*
Y170670D01*
X221800Y169068D01*
X221019Y168911D01*
X218073Y171329D01*
X217984Y171463D01*
X217598Y171848D01*
X218000Y173347D01*
Y175453D01*
X217455Y177488D01*
X216402Y179312D01*
X214912Y180802D01*
X213088Y181855D01*
X211053Y182400D01*
X208947D01*
X206912Y181855D01*
X205088Y180802D01*
X203598Y179312D01*
X202545Y177488D01*
X202000Y175453D01*
Y173347D01*
X202545Y171312D01*
X202948Y170614D01*
X202994Y170460D01*
X203287Y169902D01*
X203118Y169357D01*
X202387Y167821D01*
X202100Y167459D01*
X201469Y166908D01*
X199744Y166744D01*
X198256Y167739D01*
X196500Y168088D01*
X183500D01*
X183000Y167989D01*
X180361Y169676D01*
X180000Y170182D01*
Y200000D01*
X235000D01*
Y200198D01*
X238000Y202423D01*
X238613Y202237D01*
D02*
G37*
G36*
X134013Y181426D02*
X133962Y181901D01*
X133811Y182326D01*
X133560Y182701D01*
X133208Y183026D01*
X132755Y183301D01*
X132202Y183526D01*
X131548Y183701D01*
X130793Y183826D01*
X130549Y183847D01*
X128320Y183712D01*
X128204Y183662D01*
X128661Y189987D01*
X128923Y189785D01*
X129235Y189605D01*
X129597Y189446D01*
X130007Y189308D01*
X130467Y189191D01*
X130976Y189096D01*
X131108Y189078D01*
X131548Y189151D01*
X132202Y189326D01*
X132755Y189551D01*
X133208Y189826D01*
X133560Y190151D01*
X133811Y190526D01*
X133962Y190951D01*
X134013Y191426D01*
Y181426D01*
D02*
G37*
G36*
X562924Y186095D02*
X561969Y185112D01*
X560433Y183353D01*
X559852Y182576D01*
X559396Y181868D01*
X559065Y181229D01*
X558858Y180659D01*
X558777Y180158D01*
X558820Y179725D01*
X558987Y179361D01*
X554361Y185987D01*
X554626Y185720D01*
X554958Y185578D01*
X555360Y185560D01*
X555831Y185666D01*
X556370Y185898D01*
X556978Y186254D01*
X557654Y186734D01*
X558399Y187339D01*
X560095Y188924D01*
X562924Y186095D01*
D02*
G37*
G36*
X473710Y188080D02*
X473456Y187986D01*
X473232Y187830D01*
X473038Y187611D01*
X472873Y187329D01*
X472739Y186985D01*
X472635Y186578D01*
X472560Y186109D01*
X472515Y185577D01*
X472500Y184982D01*
X469500D01*
X469485Y185577D01*
X469440Y186109D01*
X469366Y186578D01*
X469261Y186985D01*
X469127Y187329D01*
X468962Y187611D01*
X468768Y187830D01*
X468544Y187986D01*
X468290Y188080D01*
X468006Y188111D01*
X473994D01*
X473710Y188080D01*
D02*
G37*
G36*
X541558Y177017D02*
X541512Y177394D01*
X541375Y177731D01*
X541146Y178028D01*
X540826Y178286D01*
X540414Y178504D01*
X539910Y178683D01*
X539316Y178822D01*
X538629Y178921D01*
X537851Y178980D01*
X537189Y178995D01*
X536783Y178988D01*
X535540Y178895D01*
X534978Y178813D01*
X534456Y178708D01*
X533973Y178579D01*
X533530Y178427D01*
X533127Y178251D01*
X532882Y178118D01*
X532749Y177873D01*
X532573Y177470D01*
X532421Y177027D01*
X532292Y176544D01*
X532187Y176022D01*
X532105Y175460D01*
X532012Y174217D01*
X532000Y173536D01*
X528000D01*
X527988Y174217D01*
X527895Y175460D01*
X527813Y176022D01*
X527708Y176544D01*
X527579Y177027D01*
X527427Y177470D01*
X527251Y177873D01*
X527053Y178236D01*
X526830Y178560D01*
X532440D01*
Y184170D01*
X532764Y183947D01*
X533127Y183749D01*
X533530Y183573D01*
X533973Y183421D01*
X534456Y183292D01*
X534978Y183187D01*
X535540Y183105D01*
X536783Y183012D01*
X537189Y183005D01*
X537851Y183020D01*
X538629Y183079D01*
X539316Y183179D01*
X539910Y183317D01*
X540414Y183496D01*
X540826Y183714D01*
X541146Y183972D01*
X541375Y184269D01*
X541512Y184606D01*
X541558Y184983D01*
Y177017D01*
D02*
G37*
G36*
X657690Y197111D02*
X658654Y196343D01*
X659682Y195643D01*
X660773Y195010D01*
X661928Y194445D01*
X663147Y193946D01*
X664430Y193515D01*
X665777Y193151D01*
X667187Y192854D01*
X668661Y192625D01*
X658575Y182539D01*
X658346Y184013D01*
X658049Y185424D01*
X657685Y186770D01*
X657254Y188053D01*
X656755Y189272D01*
X656190Y190427D01*
X655557Y191518D01*
X654857Y192546D01*
X654089Y193510D01*
X653255Y194410D01*
X656790Y197945D01*
X657690Y197111D01*
D02*
G37*
G36*
X298515Y181408D02*
X298560Y180893D01*
X298635Y180438D01*
X298740Y180044D01*
X298875Y179711D01*
X299040Y179438D01*
X299235Y179226D01*
X299460Y179074D01*
X299715Y178983D01*
X300000Y178953D01*
X294000D01*
X294285Y178983D01*
X294540Y179074D01*
X294765Y179226D01*
X294960Y179438D01*
X295125Y179711D01*
X295260Y180044D01*
X295365Y180438D01*
X295440Y180893D01*
X295485Y181408D01*
X295500Y181984D01*
X298500D01*
X298515Y181408D01*
D02*
G37*
G36*
X472515Y180423D02*
X472560Y179891D01*
X472635Y179422D01*
X472739Y179015D01*
X472873Y178671D01*
X473038Y178389D01*
X473232Y178170D01*
X473456Y178014D01*
X473710Y177920D01*
X473994Y177889D01*
X468006D01*
X468290Y177920D01*
X468544Y178014D01*
X468768Y178170D01*
X468962Y178389D01*
X469127Y178671D01*
X469261Y179015D01*
X469366Y179422D01*
X469440Y179891D01*
X469485Y180423D01*
X469500Y181018D01*
X472500D01*
X472515Y180423D01*
D02*
G37*
G36*
X255507Y173389D02*
X255667Y171046D01*
X255741Y170607D01*
X255828Y170227D01*
X255928Y169906D01*
X256042Y169643D01*
X256170Y169440D01*
X249830D01*
X249958Y169643D01*
X250072Y169906D01*
X250172Y170227D01*
X250259Y170607D01*
X250333Y171046D01*
X250440Y172100D01*
X250493Y173389D01*
X250500Y174123D01*
X255500D01*
X255507Y173389D01*
D02*
G37*
G36*
X215275Y171502D02*
X215296Y171426D01*
X215347Y171328D01*
X215427Y171207D01*
X215537Y171063D01*
X215843Y170707D01*
X216521Y170000D01*
X214400Y167879D01*
X214142Y168134D01*
X213193Y168973D01*
X213072Y169053D01*
X212974Y169104D01*
X212899Y169125D01*
X212873Y169122D01*
X212555Y168923D01*
X211524Y168191D01*
X211008Y167781D01*
X209458Y166371D01*
X208941Y165842D01*
X207906Y164694D01*
X204596Y165587D01*
X205018Y166026D01*
X205351Y166497D01*
X205594Y167000D01*
X205748Y167535D01*
X205813Y168101D01*
X205789Y168699D01*
X205675Y169329D01*
X205472Y169991D01*
X205180Y170684D01*
X204798Y171409D01*
X212993Y169265D01*
X215282Y171554D01*
X215275Y171502D01*
D02*
G37*
G36*
X226013Y159415D02*
X226010Y159711D01*
X225945Y160001D01*
X225817Y160282D01*
X225625Y160556D01*
X225371Y160822D01*
X225053Y161080D01*
X224672Y161331D01*
X224228Y161574D01*
X223722Y161810D01*
X223151Y162038D01*
X223230Y165282D01*
X223847Y165067D01*
X224402Y164907D01*
X224895Y164801D01*
X225327Y164749D01*
X225696Y164751D01*
X226004Y164807D01*
X226249Y164916D01*
X226433Y165080D01*
X226555Y165298D01*
X226616Y165570D01*
X226013Y159415D01*
D02*
G37*
G36*
X403834Y163506D02*
X400571Y161972D01*
X399451Y164755D01*
X399780Y164900D01*
X400084Y165058D01*
X400364Y165230D01*
X400620Y165416D01*
X400851Y165616D01*
X401058Y165830D01*
X401240Y166058D01*
X401398Y166299D01*
X401531Y166555D01*
X401640Y166825D01*
X403834Y163506D01*
D02*
G37*
G36*
X243983Y163822D02*
X244064Y163541D01*
X244206Y163272D01*
X244409Y163016D01*
X244674Y162773D01*
X244999Y162542D01*
X245386Y162324D01*
X245833Y162119D01*
X246342Y161926D01*
X246912Y161746D01*
X246880Y158565D01*
X246293Y158719D01*
X245767Y158826D01*
X245301Y158885D01*
X244897Y158897D01*
X244553Y158861D01*
X244269Y158777D01*
X244046Y158645D01*
X243884Y158465D01*
X243782Y158238D01*
X243741Y157964D01*
X243964Y164116D01*
X243983Y163822D01*
D02*
G37*
G36*
X198862Y164021D02*
X198955Y163797D01*
X199108Y163620D01*
X199320Y163491D01*
X199592Y163410D01*
X199924Y163376D01*
X200315Y163391D01*
X200767Y163452D01*
X201277Y163562D01*
X201848Y163720D01*
X201909Y160478D01*
X201335Y160289D01*
X200821Y160089D01*
X200368Y159878D01*
X199976Y159655D01*
X199645Y159420D01*
X199375Y159173D01*
X199165Y158916D01*
X199016Y158646D01*
X198929Y158365D01*
X198902Y158073D01*
X198829Y164293D01*
X198862Y164021D01*
D02*
G37*
G36*
X497432Y161052D02*
X497399Y160992D01*
X497389Y160906D01*
X497401Y160794D01*
X497437Y160657D01*
X497496Y160493D01*
X497577Y160303D01*
X497809Y159845D01*
X497959Y159576D01*
X495838Y157455D01*
X495544Y157959D01*
X494431Y159653D01*
X494281Y159825D01*
X494154Y159943D01*
X494051Y160005D01*
X493972Y160013D01*
X497488Y161085D01*
X497432Y161052D01*
D02*
G37*
G36*
X470028Y160013D02*
X469949Y160005D01*
X469846Y159943D01*
X469719Y159825D01*
X469568Y159653D01*
X469394Y159424D01*
X468973Y158802D01*
X468162Y157455D01*
X466041Y159576D01*
X466191Y159845D01*
X466504Y160493D01*
X466563Y160657D01*
X466599Y160794D01*
X466611Y160906D01*
X466601Y160992D01*
X466568Y161052D01*
X466512Y161085D01*
X470028Y160013D01*
D02*
G37*
G36*
X428028D02*
X427949Y160005D01*
X427846Y159943D01*
X427719Y159825D01*
X427568Y159653D01*
X427394Y159424D01*
X426973Y158802D01*
X426162Y157455D01*
X424041Y159576D01*
X424191Y159845D01*
X424504Y160493D01*
X424563Y160657D01*
X424599Y160794D01*
X424611Y160906D01*
X424601Y160992D01*
X424568Y161052D01*
X424512Y161085D01*
X428028Y160013D01*
D02*
G37*
G36*
X455432Y161052D02*
X455399Y160992D01*
X455389Y160906D01*
X455401Y160795D01*
X455437Y160657D01*
X455496Y160493D01*
X455577Y160303D01*
X455809Y159845D01*
X455959Y159576D01*
X453838Y157455D01*
X453544Y157959D01*
X452431Y159653D01*
X452281Y159825D01*
X452154Y159943D01*
X452051Y160005D01*
X451972Y160013D01*
X455488Y161085D01*
X455432Y161052D01*
D02*
G37*
G36*
X579783Y340000D02*
X578438Y339101D01*
X576349Y337012D01*
X574707Y334555D01*
X573577Y331825D01*
X573000Y328927D01*
Y325973D01*
X573577Y323075D01*
X574707Y320345D01*
X576349Y317888D01*
X578438Y315799D01*
X580895Y314157D01*
X583625Y313027D01*
X586523Y312450D01*
X589477D01*
X592375Y313027D01*
X595105Y314157D01*
X596296Y314953D01*
X599397Y313262D01*
X600612Y312049D01*
X600000Y308972D01*
Y305328D01*
X600711Y301754D01*
X602105Y298387D01*
X604130Y295357D01*
X606707Y292780D01*
X609737Y290756D01*
X613104Y289361D01*
X616678Y288650D01*
X620322D01*
X623896Y289361D01*
X627263Y290756D01*
X630293Y292780D01*
X632870Y295357D01*
X634894Y298387D01*
X635412Y299636D01*
X640412Y298641D01*
Y259878D01*
X640376Y259463D01*
X640279Y258883D01*
X640163Y258449D01*
X640047Y258164D01*
X640001Y258088D01*
X638500D01*
X636744Y257739D01*
X635256Y256744D01*
X634261Y255256D01*
X633912Y253500D01*
Y248500D01*
X634261Y246744D01*
X634261Y246744D01*
X634558Y244442D01*
X634116Y243780D01*
X633961Y243000D01*
Y237000D01*
X634116Y236220D01*
X634558Y235558D01*
X634261Y233256D01*
X634261Y233256D01*
X633912Y231500D01*
Y226500D01*
X634261Y224744D01*
X635256Y223256D01*
X636744Y222261D01*
X638500Y221912D01*
X640001D01*
X640048Y221836D01*
X640163Y221551D01*
X640407Y216721D01*
X640777Y212029D01*
X640811Y211886D01*
X641876Y207453D01*
X643677Y203105D01*
X646059Y199217D01*
X646136Y199092D01*
X649192Y195513D01*
X652709Y191970D01*
X653214Y191335D01*
X653830Y190431D01*
X654390Y189466D01*
X654894Y188436D01*
X655342Y187341D01*
X655732Y186178D01*
X656065Y184947D01*
X656339Y183646D01*
X656500Y182612D01*
Y182252D01*
X657250Y179454D01*
X658698Y176946D01*
X660746Y174898D01*
X663254Y173450D01*
X666052Y172700D01*
X668948D01*
X671746Y173450D01*
X674254Y174898D01*
X675000Y175644D01*
X680000Y173802D01*
Y99797D01*
X675000Y97323D01*
X670518Y99534D01*
X663876Y101788D01*
X656998Y103156D01*
X650000Y103615D01*
X643002Y103156D01*
X636124Y101788D01*
X629482Y99534D01*
X623193Y96432D01*
X617361Y92535D01*
X612089Y87911D01*
X607464Y82639D01*
X603568Y76807D01*
X600466Y70518D01*
X598212Y63877D01*
X596844Y56998D01*
X596385Y50000D01*
X596844Y43002D01*
X598212Y36123D01*
X600466Y29483D01*
X602677Y25000D01*
X600203Y20000D01*
X250000D01*
Y40507D01*
X254816Y41816D01*
X256354Y40819D01*
X258500Y40392D01*
D01*
Y52500D01*
Y64608D01*
X256354Y64181D01*
X254816Y63184D01*
X250000Y64493D01*
Y78288D01*
X252614Y78961D01*
X253000D01*
X253780Y79116D01*
X254133Y79352D01*
X254770Y79516D01*
X256744Y79261D01*
X256744Y79261D01*
X258500Y78912D01*
X263500D01*
X265256Y79261D01*
X266744Y80256D01*
X267586Y81516D01*
X269450Y81837D01*
X269637Y81777D01*
X273961Y77438D01*
Y77000D01*
X274116Y76220D01*
X274558Y75558D01*
X273319Y73646D01*
X272892Y71500D01*
Y71500D01*
X285000D01*
Y69000D01*
X287500D01*
Y60892D01*
X291500D01*
X293646Y61319D01*
X294391Y61817D01*
X298672Y61091D01*
X300088Y60454D01*
X300819Y58646D01*
X300392Y56500D01*
X312500D01*
Y54000D01*
X315000D01*
Y45892D01*
X319000D01*
X321146Y46319D01*
X322965Y47535D01*
X323472Y48293D01*
X325307Y48695D01*
X327193D01*
X329028Y48293D01*
X329535Y47535D01*
X331354Y46319D01*
X333500Y45892D01*
X337500D01*
Y54000D01*
X340000D01*
Y56500D01*
X352108D01*
X351681Y58646D01*
X350442Y60558D01*
X350884Y61220D01*
X351039Y62000D01*
Y68000D01*
X350884Y68780D01*
X350442Y69442D01*
X350739Y71744D01*
X350739Y71744D01*
X351088Y73500D01*
Y78500D01*
X354122Y83508D01*
X354455Y83555D01*
X354750Y83257D01*
X357961Y79627D01*
Y74000D01*
X358116Y73220D01*
X358558Y72558D01*
X357319Y70646D01*
X356892Y68500D01*
D01*
X369000D01*
X381108D01*
X380681Y70646D01*
X379442Y72558D01*
X379884Y73220D01*
X380039Y74000D01*
Y80000D01*
X379884Y80780D01*
X379442Y81442D01*
X379739Y83744D01*
X379739Y83744D01*
X379985Y84980D01*
X380310Y85658D01*
X380392Y85717D01*
X383445Y84668D01*
X385542Y83246D01*
X385819Y81854D01*
X387035Y80035D01*
X388854Y78819D01*
X391000Y78392D01*
X395000D01*
Y86500D01*
X400000D01*
Y78392D01*
X404000D01*
X406146Y78819D01*
X407965Y80035D01*
X409181Y81854D01*
X409608Y84000D01*
Y86909D01*
X414535Y88535D01*
X416354Y87319D01*
X418500Y86892D01*
X422500D01*
Y95000D01*
X425000D01*
Y97500D01*
X437108D01*
X436681Y99646D01*
X435442Y101558D01*
X435884Y102220D01*
X436039Y103000D01*
Y109000D01*
X435884Y109780D01*
X435442Y110442D01*
X435739Y112744D01*
X435739Y112744D01*
X436088Y114500D01*
Y119500D01*
X435739Y121256D01*
X434744Y122744D01*
X433256Y123739D01*
X431500Y124088D01*
X423513D01*
X423392Y124129D01*
X423147Y124239D01*
X423098Y124267D01*
X419478Y127599D01*
X416018Y130553D01*
X415759Y130712D01*
X412140Y132930D01*
X407937Y134670D01*
X407768Y134711D01*
X406952Y136046D01*
X405612Y140371D01*
X406000Y141306D01*
Y143694D01*
X405901Y143931D01*
X408399Y148582D01*
X408830Y148932D01*
X420737D01*
X421912Y147500D01*
Y134500D01*
X422261Y132744D01*
X423256Y131256D01*
X424744Y130261D01*
X426500Y129912D01*
X431500D01*
X433256Y130261D01*
X433256Y130261D01*
X435558Y130558D01*
X436220Y130116D01*
X437000Y129961D01*
X443000D01*
X443780Y130116D01*
X444442Y130558D01*
X446744Y130261D01*
X446744Y130261D01*
X448500Y129912D01*
X453500D01*
X455256Y130261D01*
X456744Y131256D01*
X457739Y132744D01*
X458088Y134500D01*
Y147500D01*
X458275Y147728D01*
X459006D01*
X463912Y142805D01*
Y134500D01*
X464261Y132744D01*
X465256Y131256D01*
X466744Y130261D01*
X467371Y130136D01*
X467415Y129862D01*
X467431Y129663D01*
Y124337D01*
X467415Y124138D01*
X467371Y123864D01*
X466744Y123739D01*
X465256Y122744D01*
X464261Y121256D01*
X463912Y119500D01*
Y106500D01*
X464261Y104744D01*
X465256Y103256D01*
X466744Y102261D01*
X468500Y101912D01*
X473500D01*
X475256Y102261D01*
X475256Y102261D01*
X477558Y102558D01*
X478220Y102116D01*
X479000Y101961D01*
X485000D01*
X485780Y102116D01*
X486442Y102558D01*
X488744Y102261D01*
X488744Y102261D01*
X490500Y101912D01*
X495500D01*
X497256Y102261D01*
X498744Y103256D01*
X499739Y104744D01*
X500088Y106500D01*
Y113457D01*
X500163Y113687D01*
X500331Y114063D01*
X500570Y114487D01*
X500866Y114930D01*
X501623Y115856D01*
X521909Y136141D01*
X525453Y139668D01*
X528459Y143187D01*
X528577Y143379D01*
X530877Y147132D01*
X532648Y151408D01*
X533282Y154050D01*
X537511Y154305D01*
X538450Y154158D01*
X539535Y152535D01*
X541354Y151319D01*
X543500Y150892D01*
X547500D01*
Y159000D01*
X550000D01*
Y161500D01*
X562108D01*
Y161500D01*
X561681Y163646D01*
X560442Y165558D01*
X560884Y166220D01*
X561039Y167000D01*
Y173000D01*
X560884Y173780D01*
X560442Y174442D01*
X560739Y176744D01*
X560739Y176744D01*
X561088Y178500D01*
Y180701D01*
X561163Y180845D01*
X561528Y181412D01*
X562020Y182070D01*
X562033Y182085D01*
X565453Y185668D01*
X568459Y189187D01*
X568577Y189379D01*
X570877Y193132D01*
X572648Y197408D01*
X573675Y201688D01*
X573728Y201908D01*
X574091Y206521D01*
X574078D01*
Y230829D01*
X574091D01*
X573728Y235442D01*
X573675Y235662D01*
X572648Y239942D01*
X570877Y244218D01*
X568577Y247971D01*
X568459Y248163D01*
X565453Y251682D01*
X564000Y256080D01*
Y257535D01*
X563387Y259824D01*
X562202Y261876D01*
X560526Y263552D01*
X558474Y264737D01*
X556185Y265350D01*
X553815D01*
X551526Y264737D01*
X549474Y263552D01*
X547798Y261876D01*
X546613Y259824D01*
X546000Y257535D01*
Y255165D01*
X546613Y252876D01*
X547798Y250824D01*
X549474Y249148D01*
X551526Y247963D01*
X553815Y247350D01*
X556185D01*
X556403Y247408D01*
X559215Y244779D01*
X559903Y243963D01*
X556677Y240481D01*
X555640Y239950D01*
X553815D01*
X551526Y239337D01*
X549474Y238152D01*
X549319Y237997D01*
X547548Y236748D01*
X546653Y236206D01*
X545768Y235734D01*
X544916Y235341D01*
X544098Y235027D01*
X543315Y234788D01*
X542565Y234621D01*
X541849Y234523D01*
X541748Y234519D01*
X540267D01*
X539250Y235577D01*
X537607Y239519D01*
X537987Y240176D01*
X538600Y242465D01*
Y244835D01*
X537987Y247124D01*
X536802Y249176D01*
X535126Y250852D01*
X533074Y252037D01*
X530785Y252650D01*
X528415D01*
X526126Y252037D01*
X524074Y250852D01*
X522398Y249176D01*
X521213Y247124D01*
X520600Y244835D01*
Y242465D01*
X521213Y240176D01*
X521633Y239449D01*
X520250Y234176D01*
X518415Y233312D01*
X513568Y236129D01*
Y240893D01*
X513548Y240995D01*
X513893Y244492D01*
X514942Y247953D01*
X516647Y251142D01*
X518876Y253858D01*
X518963Y253916D01*
X522486Y257440D01*
X522793Y257728D01*
X522827Y257758D01*
X523311Y258088D01*
X523887Y258409D01*
X524559Y258717D01*
X525325Y259005D01*
X526188Y259272D01*
X527123Y259508D01*
X529353Y259912D01*
X530467Y260050D01*
X530785D01*
X533074Y260663D01*
X535126Y261848D01*
X536802Y263524D01*
X537987Y265576D01*
X538600Y267865D01*
Y270235D01*
X537987Y272524D01*
X536802Y274576D01*
X535126Y276252D01*
X533074Y277437D01*
X530785Y278050D01*
X528415D01*
X526126Y277437D01*
X524074Y276252D01*
X522398Y274576D01*
X521213Y272524D01*
X520692Y270578D01*
X520690Y270574D01*
X520689Y270568D01*
X520600Y270235D01*
Y270084D01*
X520463Y269342D01*
X519928Y267139D01*
X519638Y266220D01*
X519321Y265375D01*
X518987Y264626D01*
X518641Y263974D01*
X518286Y263418D01*
X517928Y262955D01*
X517897Y262922D01*
X517552Y262597D01*
X517521Y262553D01*
X517477Y262523D01*
X513955Y259002D01*
X513877Y259002D01*
X513877Y259002D01*
X510693Y255121D01*
X508326Y250693D01*
X506869Y245889D01*
X506377Y240893D01*
X506431D01*
Y180000D01*
X506431Y167606D01*
X503456Y165085D01*
X500853Y164966D01*
X500088Y165657D01*
Y175500D01*
X499739Y177256D01*
X498744Y178744D01*
X497256Y179739D01*
X495500Y180088D01*
X490500D01*
X488744Y179739D01*
X488744Y179739D01*
X486442Y179442D01*
X485780Y179884D01*
X485000Y180039D01*
X483988D01*
X479000Y185027D01*
Y185931D01*
X479030Y185961D01*
X485000D01*
X485780Y186116D01*
X486442Y186558D01*
X488744Y186261D01*
X488744Y186261D01*
X490500Y185912D01*
X495500D01*
X497256Y186261D01*
X498744Y187256D01*
X499739Y188744D01*
X500088Y190500D01*
Y203500D01*
X499739Y205256D01*
X498744Y206744D01*
X498087Y210601D01*
X499000Y212806D01*
Y215194D01*
X498087Y217399D01*
X496399Y219087D01*
X494193Y220000D01*
X491806D01*
X489601Y219087D01*
X487914Y217399D01*
X487000Y215194D01*
Y212806D01*
X487104Y212555D01*
X486357Y210953D01*
X484002Y208111D01*
X483913Y208073D01*
X483819Y208039D01*
X479000D01*
X478220Y207884D01*
X477558Y207442D01*
X475256Y207739D01*
X475256Y207739D01*
X473500Y208088D01*
X468500D01*
X466744Y207739D01*
X465256Y206744D01*
X464261Y205256D01*
X463912Y203500D01*
Y190500D01*
X464261Y188744D01*
X465256Y187256D01*
X466744Y186261D01*
X467371Y186136D01*
X467415Y185862D01*
X467431Y185663D01*
Y180337D01*
X467415Y180138D01*
X467371Y179863D01*
X466744Y179739D01*
X465256Y178744D01*
X464261Y177256D01*
X463912Y175500D01*
Y162500D01*
X463725Y162272D01*
X462994D01*
X458088Y167195D01*
Y175500D01*
X457739Y177256D01*
X456744Y178744D01*
X455256Y179739D01*
X453500Y180088D01*
X448500D01*
X446744Y179739D01*
X446744Y179739D01*
X444442Y179442D01*
X443780Y179884D01*
X443000Y180039D01*
X437000D01*
X436220Y179884D01*
X435558Y179442D01*
X433256Y179739D01*
X433256Y179739D01*
X431500Y180088D01*
X426500D01*
X425595Y179908D01*
X421486Y182091D01*
X420780Y183283D01*
X420860Y183575D01*
X424744Y186261D01*
X426500Y185912D01*
X431500D01*
X433256Y186261D01*
X433256Y186261D01*
X435558Y186558D01*
X436220Y186116D01*
X437000Y185961D01*
X443000D01*
X443780Y186116D01*
X444442Y186558D01*
X446744Y186261D01*
X446744Y186261D01*
X448500Y185912D01*
X453500D01*
X455256Y186261D01*
X456744Y187256D01*
X457739Y188744D01*
X458088Y190500D01*
Y203500D01*
X457739Y205256D01*
X456744Y206744D01*
X455256Y207739D01*
X454629Y207864D01*
X454585Y208138D01*
X454569Y208337D01*
Y213662D01*
X454585Y213862D01*
X454629Y214136D01*
X455256Y214261D01*
X456744Y215256D01*
X457739Y216744D01*
X458088Y218500D01*
Y228188D01*
X458237Y229317D01*
X458882Y230073D01*
X462616Y230303D01*
X463908Y230357D01*
X465351Y228913D01*
X467556Y228000D01*
X469944D01*
X472149Y228913D01*
X473837Y230601D01*
X474750Y232806D01*
Y235194D01*
X473837Y237399D01*
X472235Y239000D01*
X473837Y240601D01*
X474750Y242806D01*
Y245194D01*
X473837Y247399D01*
X474892Y252251D01*
X478720Y254116D01*
X479500Y253961D01*
X485500D01*
X486280Y254116D01*
X486942Y254558D01*
X489244Y254261D01*
X489244Y254261D01*
X491000Y253912D01*
X496000D01*
X497756Y254261D01*
X499244Y255256D01*
X500239Y256744D01*
X500588Y258500D01*
Y260822D01*
X500783Y261332D01*
X500850Y261473D01*
X500878Y261523D01*
X501393Y262164D01*
X505588Y264090D01*
X505807Y264000D01*
X508194D01*
X510399Y264913D01*
X512087Y266601D01*
X513000Y268806D01*
Y271194D01*
X512087Y273399D01*
X510399Y275086D01*
X508194Y276000D01*
X507735D01*
X507604Y276024D01*
X507393Y276086D01*
X507146Y276184D01*
X506862Y276322D01*
X506546Y276505D01*
X506201Y276734D01*
X505847Y276998D01*
X505291Y277476D01*
X503823Y278944D01*
X503669Y279048D01*
X501127Y282145D01*
X499151Y285841D01*
X498413Y288275D01*
X498335Y288900D01*
X498306Y289424D01*
X498312Y289633D01*
X499244Y290256D01*
X500239Y291744D01*
X500588Y293500D01*
Y306500D01*
X500239Y308256D01*
X499244Y309744D01*
X497756Y310739D01*
X496000Y311088D01*
X491000D01*
X489244Y310739D01*
X489244Y310739D01*
X486942Y310442D01*
X486280Y310884D01*
X485500Y311039D01*
X479500D01*
X478720Y310884D01*
X478058Y310442D01*
X475756Y310739D01*
X475756Y310739D01*
X474000Y311088D01*
X469000D01*
X467244Y310739D01*
X465756Y309744D01*
X464761Y308256D01*
X464412Y306500D01*
Y304999D01*
X464336Y304953D01*
X464052Y304837D01*
X463616Y304721D01*
X463037Y304625D01*
X462622Y304588D01*
X440000D01*
X439869Y304562D01*
X436962Y304276D01*
X434040Y303389D01*
X431347Y301950D01*
X428987Y300013D01*
X427050Y297653D01*
X426073Y295825D01*
X425979Y295700D01*
X425955Y295605D01*
X425895Y295493D01*
X425893Y295488D01*
X425892Y295487D01*
X425611Y294960D01*
X425232Y293713D01*
X424777Y292683D01*
X424527Y292206D01*
X424281Y291794D01*
X424053Y291466D01*
X423854Y291224D01*
X423694Y291066D01*
X423470Y290892D01*
X423461Y290881D01*
X423256Y290744D01*
X422967Y290313D01*
X422948Y290291D01*
X422944Y290278D01*
X422261Y289256D01*
X421912Y287500D01*
Y285533D01*
X421895Y285468D01*
X421784Y285202D01*
X421598Y284885D01*
X421324Y284521D01*
X420954Y284117D01*
X420506Y283703D01*
X419295Y282790D01*
X418672Y282457D01*
X415855Y280145D01*
X413543Y277328D01*
X411825Y274114D01*
X411098Y271716D01*
X410768Y270627D01*
X410410Y267000D01*
X410412D01*
Y261164D01*
X410373Y260642D01*
X410272Y259948D01*
X410180Y259564D01*
X409181D01*
X405681Y256064D01*
Y249064D01*
X406669Y248075D01*
X406678Y248055D01*
X405614Y242059D01*
X405114Y241792D01*
X402145Y239355D01*
X399708Y236386D01*
X397897Y232998D01*
X397060Y230240D01*
X396782Y229323D01*
X396406Y225500D01*
X396431D01*
Y185000D01*
X394673Y182827D01*
X392500Y181069D01*
X383000D01*
X382926Y181054D01*
X375750D01*
X375618Y181028D01*
X373188Y183093D01*
X371925Y185003D01*
X372074Y185750D01*
Y190500D01*
X370000D01*
Y181412D01*
X370907Y180812D01*
X372972Y178382D01*
X372946Y178250D01*
Y176750D01*
X373160Y175677D01*
X373123Y174137D01*
X372946Y173250D01*
Y171750D01*
X373053Y171215D01*
X373046Y170954D01*
X372409Y170000D01*
X373611D01*
X373767Y169767D01*
X374677Y169159D01*
X375750Y168946D01*
X382926D01*
X383000Y168931D01*
Y166069D01*
X382926Y166054D01*
X375750D01*
X374677Y165841D01*
X373767Y165233D01*
X373611Y165000D01*
X372409D01*
X373046Y164046D01*
X373098Y164012D01*
X372946Y163250D01*
Y161750D01*
X373160Y160677D01*
X373612Y160000D01*
X373160Y159323D01*
X372946Y158250D01*
Y156750D01*
X373160Y155677D01*
X373612Y155000D01*
X373160Y154323D01*
X372946Y153250D01*
Y151750D01*
X373160Y150677D01*
X373612Y150000D01*
X373160Y149323D01*
X372946Y148250D01*
Y146750D01*
X373160Y145677D01*
X373612Y145000D01*
X373160Y144323D01*
X372946Y143250D01*
Y141750D01*
X373098Y140988D01*
X373046Y140954D01*
X372409Y140000D01*
X373611D01*
X373767Y139767D01*
X374677Y139159D01*
X375750Y138946D01*
X382926D01*
X383000Y138931D01*
Y136069D01*
X382926Y136054D01*
X375750D01*
X374677Y135841D01*
X373767Y135233D01*
X373611Y135000D01*
X372409D01*
X373046Y134046D01*
X373098Y134012D01*
X372946Y133250D01*
Y131750D01*
X373160Y130677D01*
X373612Y130000D01*
X373160Y129323D01*
X372946Y128250D01*
Y126750D01*
X373160Y125677D01*
X373612Y125000D01*
X373322Y124566D01*
X373159Y124323D01*
X373160Y124323D01*
X372946Y123250D01*
X372946Y123250D01*
Y121750D01*
X373160Y120677D01*
X373767Y119768D01*
Y119767D01*
X374677Y119160D01*
X374677Y119159D01*
X375750Y118946D01*
X381934D01*
X382798Y118436D01*
X385557Y113946D01*
X385061Y112429D01*
X384516Y112208D01*
X383347Y111854D01*
X382839Y111582D01*
X382798Y111572D01*
X382740Y111529D01*
X380568Y110368D01*
X378132Y108369D01*
X376132Y105932D01*
X376054Y105786D01*
X371054Y107038D01*
Y114250D01*
X370840Y115323D01*
X370233Y116233D01*
X369323Y116840D01*
X368250Y117054D01*
X366750D01*
X365988Y116902D01*
X365954Y116954D01*
X365000Y117591D01*
Y116389D01*
X364767Y116233D01*
X364159Y115323D01*
X363946Y114250D01*
Y107000D01*
X361069D01*
X361054Y107074D01*
Y114250D01*
X360841Y115323D01*
X360233Y116233D01*
X360000Y116389D01*
Y117591D01*
X359046Y116954D01*
X358754D01*
X358250Y117054D01*
X356750D01*
X356246Y116954D01*
X355954D01*
X355000Y117591D01*
Y116389D01*
X354767Y116233D01*
X354159Y115323D01*
X353946Y114250D01*
Y107074D01*
X353931Y107000D01*
X351069D01*
X351054Y107074D01*
Y114250D01*
X350841Y115323D01*
X350233Y116233D01*
X350000Y116389D01*
Y117591D01*
X349046Y116954D01*
X349012Y116902D01*
X348250Y117054D01*
X346750D01*
X345677Y116840D01*
X345000Y116388D01*
X344323Y116840D01*
X343250Y117054D01*
X341750D01*
X340988Y116902D01*
X340954Y116954D01*
X340000Y117591D01*
Y116389D01*
X339767Y116233D01*
X339159Y115323D01*
X338946Y114250D01*
Y107000D01*
X336069D01*
X336054Y107074D01*
Y114250D01*
X335841Y115323D01*
X335233Y116233D01*
X335000Y116389D01*
Y117591D01*
X334046Y116954D01*
X334012Y116902D01*
X333250Y117054D01*
X331750D01*
X330677Y116840D01*
X330000Y116388D01*
X329323Y116840D01*
X328250Y117054D01*
X326750D01*
X325677Y116840D01*
X325000Y116388D01*
X324323Y116840D01*
X323250Y117054D01*
X321750D01*
X320677Y116840D01*
X320000Y116388D01*
X319323Y116840D01*
X318250Y117054D01*
X316750D01*
X315677Y116840D01*
X315203Y116523D01*
X314615Y116645D01*
X314323Y116840D01*
X314323D01*
X313250Y117054D01*
X312641D01*
X310518Y117494D01*
X308890Y121890D01*
X355000Y168000D01*
Y178196D01*
X356089Y181151D01*
X360677Y183160D01*
X361750Y182946D01*
X363250D01*
X364012Y183098D01*
X364046Y183046D01*
X365000Y182409D01*
Y183611D01*
X365233Y183767D01*
X365841Y184677D01*
X366054Y185750D01*
Y193000D01*
Y200250D01*
X365841Y201323D01*
X365233Y202233D01*
X365000Y202389D01*
Y203591D01*
X364046Y202954D01*
X364012Y202902D01*
X363250Y203054D01*
X361750D01*
X360677Y202840D01*
X360000Y202388D01*
X359323Y202840D01*
X358250Y203054D01*
X355339Y206882D01*
X355000Y207804D01*
Y238000D01*
X462000Y345000D01*
X578619D01*
X579783Y340000D01*
D02*
G37*
G36*
X27076Y203337D02*
X26883Y202872D01*
X26834Y202500D01*
X39600D01*
Y200000D01*
X42100D01*
Y188971D01*
X44472Y189283D01*
X47147Y190392D01*
X49445Y192155D01*
X51163Y194393D01*
X51427Y194421D01*
X53250Y194154D01*
X53348Y193659D01*
X54674Y191674D01*
X55000Y191457D01*
Y190000D01*
X58409D01*
X59000Y189883D01*
X71000D01*
X71591Y190000D01*
X83961D01*
Y186000D01*
X84116Y185220D01*
X84558Y184558D01*
X83474Y182877D01*
X83319Y182646D01*
X82892Y180500D01*
Y180500D01*
X95000D01*
X107108D01*
Y180500D01*
X106681Y182646D01*
X106526Y182877D01*
X105442Y184558D01*
X105884Y185220D01*
X106039Y186000D01*
Y190000D01*
X120000D01*
Y150000D01*
X115281D01*
X114212Y152000D01*
X114652Y152659D01*
X115118Y155000D01*
Y155500D01*
X100000D01*
X84882D01*
Y155000D01*
X85348Y152659D01*
X85788Y152000D01*
X84834Y150215D01*
X82882Y150196D01*
X81809Y152000D01*
X82108Y153500D01*
Y153500D01*
X70000D01*
X57892D01*
Y153500D01*
X58191Y152000D01*
X57002Y150000D01*
X54627D01*
X53370Y152000D01*
X53571Y153530D01*
Y160280D01*
X40000D01*
X26429D01*
Y153530D01*
X26630Y152000D01*
X25373Y150000D01*
X20000D01*
Y205000D01*
X25965D01*
X27076Y203337D01*
D02*
G37*
G36*
X497959Y150424D02*
X497809Y150155D01*
X497496Y149507D01*
X497437Y149343D01*
X497401Y149206D01*
X497389Y149094D01*
X497399Y149008D01*
X497432Y148948D01*
X497488Y148915D01*
X493972Y149987D01*
X494051Y149994D01*
X494154Y150057D01*
X494281Y150175D01*
X494431Y150347D01*
X494606Y150576D01*
X495027Y151198D01*
X495838Y152545D01*
X497959Y150424D01*
D02*
G37*
G36*
X468456Y152041D02*
X469568Y150347D01*
X469719Y150175D01*
X469846Y150057D01*
X469949Y149994D01*
X470028Y149987D01*
X466512Y148915D01*
X466568Y148948D01*
X466601Y149008D01*
X466611Y149094D01*
X466599Y149206D01*
X466563Y149343D01*
X466504Y149507D01*
X466423Y149697D01*
X466191Y150155D01*
X466041Y150424D01*
X468162Y152545D01*
X468456Y152041D01*
D02*
G37*
G36*
X426456D02*
X427568Y150347D01*
X427719Y150175D01*
X427846Y150057D01*
X427949Y149994D01*
X428028Y149987D01*
X424512Y148915D01*
X424568Y148948D01*
X424601Y149008D01*
X424611Y149094D01*
X424599Y149206D01*
X424563Y149343D01*
X424504Y149507D01*
X424423Y149697D01*
X424191Y150155D01*
X424041Y150424D01*
X426162Y152545D01*
X426456Y152041D01*
D02*
G37*
G36*
X455959Y150424D02*
X455809Y150155D01*
X455496Y149507D01*
X455437Y149343D01*
X455401Y149206D01*
X455389Y149094D01*
X455399Y149008D01*
X455432Y148948D01*
X455488Y148915D01*
X451972Y149987D01*
X452051Y149994D01*
X452154Y150057D01*
X452281Y150175D01*
X452431Y150347D01*
X452606Y150576D01*
X453027Y151198D01*
X453838Y152545D01*
X455959Y150424D01*
D02*
G37*
G36*
X216381Y163447D02*
X220260Y161070D01*
X222181Y160275D01*
X222325Y160173D01*
X222363Y160165D01*
X222395Y160144D01*
X222913Y159937D01*
X223308Y159753D01*
X223620Y159583D01*
X223846Y159434D01*
X223912Y159380D01*
Y159000D01*
X224261Y157244D01*
X225256Y155756D01*
X226744Y154761D01*
X228500Y154412D01*
X241500D01*
X243256Y154761D01*
X244744Y155756D01*
X245449Y156810D01*
X245803Y156738D01*
X246447Y156543D01*
X249672Y154819D01*
X250239Y154353D01*
X252452Y152452D01*
X253137Y150000D01*
X252452Y147548D01*
X250239Y145647D01*
X249672Y145181D01*
X246447Y143457D01*
X245803Y143262D01*
X245449Y143190D01*
X244744Y144244D01*
X243256Y145239D01*
X241500Y145588D01*
X228500D01*
X226744Y145239D01*
X225256Y144244D01*
X224261Y142756D01*
X223912Y141000D01*
Y140620D01*
X223846Y140566D01*
X223620Y140417D01*
X223309Y140247D01*
X222913Y140063D01*
X222395Y139856D01*
X222363Y139835D01*
X222325Y139827D01*
X222181Y139725D01*
X220260Y138930D01*
X216382Y136553D01*
X212922Y133599D01*
X212412Y133994D01*
X210604Y135403D01*
X209919Y136104D01*
X209436Y136652D01*
X209317Y136744D01*
X208608Y137608D01*
X206035Y139720D01*
X203099Y141289D01*
X202555Y141454D01*
X202545Y141460D01*
X202023Y141631D01*
X201623Y141786D01*
X201306Y141935D01*
X201073Y142067D01*
X200959Y142148D01*
X200739Y143256D01*
X200442Y145558D01*
X200884Y146220D01*
X201039Y147000D01*
Y153000D01*
X200884Y153780D01*
X200442Y154442D01*
X200739Y156744D01*
X200959Y157852D01*
X201073Y157933D01*
X201306Y158065D01*
X201623Y158214D01*
X202023Y158369D01*
X202545Y158540D01*
X202555Y158546D01*
X203099Y158711D01*
X206035Y160280D01*
X208608Y162392D01*
X209309Y163246D01*
X209419Y163328D01*
X210427Y164446D01*
X210590Y164611D01*
X212457Y166047D01*
X212922Y166401D01*
X216381Y163447D01*
D02*
G37*
G36*
X397560Y139330D02*
X397117Y139648D01*
X396655Y139931D01*
X396175Y140182D01*
X395676Y140399D01*
X395159Y140583D01*
X394622Y140733D01*
X394068Y140850D01*
X393494Y140933D01*
X392902Y140983D01*
X392292Y141000D01*
Y144000D01*
X392902Y144017D01*
X393494Y144067D01*
X394068Y144150D01*
X394622Y144267D01*
X395159Y144417D01*
X395676Y144601D01*
X396175Y144818D01*
X396655Y145069D01*
X397117Y145352D01*
X397560Y145670D01*
Y139330D01*
D02*
G37*
G36*
X261272Y134444D02*
X261232Y134716D01*
X261131Y134938D01*
X260972Y135109D01*
X260752Y135230D01*
X260473Y135300D01*
X260134Y135320D01*
X259735Y135289D01*
X259277Y135207D01*
X259260Y135203D01*
X259121Y135110D01*
X258717Y134769D01*
X258334Y134374D01*
X257972Y133923D01*
X257632Y133418D01*
X257312Y132858D01*
X257014Y132242D01*
X256737Y131572D01*
X253416Y136978D01*
X253691Y136968D01*
X254018Y136989D01*
X254397Y137043D01*
X254828Y137127D01*
X255846Y137392D01*
X257072Y137783D01*
X258505Y138301D01*
X258510Y138294D01*
X258687Y138360D01*
X259193Y138578D01*
X259637Y138806D01*
X260021Y139045D01*
X260344Y139292D01*
X260606Y139550D01*
X260808Y139817D01*
X260949Y140093D01*
X261029Y140380D01*
X261048Y140676D01*
X261272Y134444D01*
D02*
G37*
G36*
X198929Y141635D02*
X199016Y141354D01*
X199165Y141084D01*
X199375Y140827D01*
X199645Y140580D01*
X199976Y140345D01*
X200368Y140122D01*
X200821Y139911D01*
X201335Y139711D01*
X201909Y139522D01*
X201848Y136280D01*
X201277Y136438D01*
X200767Y136548D01*
X200315Y136610D01*
X199924Y136624D01*
X199592Y136590D01*
X199320Y136509D01*
X199108Y136380D01*
X198955Y136203D01*
X198862Y135979D01*
X198829Y135707D01*
X198902Y141927D01*
X198929Y141635D01*
D02*
G37*
G36*
X243782Y141762D02*
X243884Y141535D01*
X244046Y141355D01*
X244269Y141223D01*
X244553Y141139D01*
X244897Y141103D01*
X245301Y141115D01*
X245767Y141174D01*
X246293Y141281D01*
X246880Y141435D01*
X246912Y138254D01*
X246342Y138074D01*
X245833Y137881D01*
X245386Y137676D01*
X244999Y137458D01*
X244674Y137227D01*
X244409Y136984D01*
X244206Y136728D01*
X244064Y136459D01*
X243983Y136178D01*
X243964Y135884D01*
X243741Y142036D01*
X243782Y141762D01*
D02*
G37*
G36*
X279008Y140215D02*
X279092Y139960D01*
X279238Y139735D01*
X279447Y139540D01*
X279719Y139375D01*
X280053Y139240D01*
X280450Y139135D01*
X280910Y139060D01*
X281433Y139015D01*
X282018Y139000D01*
Y136000D01*
X281411Y135985D01*
X280868Y135941D01*
X280387Y135866D01*
X279968Y135763D01*
X279613Y135629D01*
X279320Y135466D01*
X279090Y135273D01*
X278923Y135051D01*
X278818Y134799D01*
X278776Y134517D01*
X278987Y140500D01*
X279008Y140215D01*
D02*
G37*
G36*
X226615Y134430D02*
X226555Y134702D01*
X226433Y134920D01*
X226249Y135084D01*
X226004Y135193D01*
X225696Y135249D01*
X225327Y135251D01*
X224895Y135199D01*
X224402Y135093D01*
X223847Y134933D01*
X223230Y134719D01*
X223151Y137963D01*
X223722Y138190D01*
X224228Y138426D01*
X224672Y138669D01*
X225053Y138920D01*
X225371Y139178D01*
X225625Y139444D01*
X225817Y139718D01*
X225945Y140000D01*
X226010Y140289D01*
X226013Y140585D01*
X226615Y134430D01*
D02*
G37*
G36*
X201846Y131413D02*
X202724Y129989D01*
X202491Y128726D01*
X202212Y127594D01*
X202204Y127414D01*
X202000Y126653D01*
Y124547D01*
X202545Y122512D01*
X203598Y120688D01*
X205088Y119198D01*
X206912Y118145D01*
X208947Y117600D01*
X211053D01*
X213088Y118145D01*
X214912Y119198D01*
X216402Y120688D01*
X217455Y122512D01*
X218000Y124547D01*
Y126653D01*
X217598Y128152D01*
X217984Y128537D01*
X218073Y128671D01*
X221019Y131088D01*
X221800Y130932D01*
X223961Y129330D01*
Y124500D01*
X224116Y123720D01*
X224558Y123058D01*
X223319Y121146D01*
X222892Y119000D01*
X247108D01*
X246681Y121146D01*
X245442Y123058D01*
X245884Y123720D01*
X246039Y124500D01*
Y127233D01*
X249039Y128476D01*
X249601Y127913D01*
X251807Y127000D01*
X254193D01*
X255961Y127732D01*
X257737Y127036D01*
X258961Y126233D01*
Y124000D01*
X259116Y123220D01*
X259558Y122558D01*
X258319Y120646D01*
X257892Y118500D01*
D01*
X270000D01*
Y113500D01*
X257892D01*
X258319Y111354D01*
X259535Y109535D01*
X261354Y108319D01*
X262959Y108000D01*
X262663Y105000D01*
X180000D01*
Y129818D01*
X180361Y130324D01*
X183000Y132011D01*
X183500Y131912D01*
X196500D01*
X198256Y132261D01*
X201846Y131413D01*
D02*
G37*
G36*
X305871Y224413D02*
X306242Y224133D01*
X306505Y223846D01*
X306676Y223586D01*
X306912Y223092D01*
Y215500D01*
X307261Y213744D01*
X307941Y212727D01*
X307944Y212717D01*
X307960Y212698D01*
X308102Y212486D01*
X308113Y212463D01*
X308122Y212456D01*
X308256Y212256D01*
X308456Y212122D01*
X308463Y212114D01*
X308588Y212015D01*
X308606Y211997D01*
X308642Y211947D01*
X308694Y211851D01*
X308755Y211701D01*
X308818Y211493D01*
X308875Y211225D01*
X308920Y210898D01*
X308931Y210756D01*
Y193000D01*
X308946Y192926D01*
Y185750D01*
X309160Y184677D01*
X309767Y183767D01*
X310677Y183160D01*
X311750Y182946D01*
X313250D01*
X314323Y183160D01*
X315000Y183612D01*
X315677Y183160D01*
X316750Y182946D01*
X318250D01*
X319323Y183160D01*
X320000Y183612D01*
X320677Y183160D01*
X321750Y182946D01*
X323250D01*
X324323Y183160D01*
X325000Y183612D01*
X325677Y183160D01*
X326750Y182946D01*
X328250D01*
X329323Y183160D01*
X330000Y183612D01*
X330677Y183160D01*
X331750Y182946D01*
X333250D01*
X334323Y183160D01*
X335000Y183612D01*
X335677Y183160D01*
X336750Y182946D01*
X338250D01*
X339323Y183160D01*
X340000Y183612D01*
X340677Y183160D01*
X341750Y182946D01*
X343250D01*
X344323Y183160D01*
X345000Y183612D01*
X345677Y183160D01*
X346750Y182946D01*
X348250D01*
X350000Y180278D01*
Y170000D01*
X309804Y129804D01*
X309298Y129721D01*
X307360Y131430D01*
X307054Y131750D01*
Y133250D01*
X306840Y134323D01*
X306388Y135000D01*
X306840Y135677D01*
X307054Y136750D01*
Y138250D01*
X306902Y139012D01*
X306954Y139046D01*
X307591Y140000D01*
X306389D01*
X306233Y140233D01*
X305323Y140841D01*
X304250Y141054D01*
X297074D01*
X297000Y141069D01*
Y143931D01*
X297074Y143946D01*
X304250D01*
X305323Y144159D01*
X306233Y144767D01*
X306389Y145000D01*
X307591D01*
X306954Y145954D01*
X306902Y145988D01*
X307054Y146750D01*
Y148250D01*
X306840Y149323D01*
X306388Y150000D01*
X306840Y150677D01*
X307054Y151750D01*
Y153250D01*
X306840Y154323D01*
X306388Y155000D01*
X306840Y155677D01*
X307054Y156750D01*
Y158250D01*
X306840Y159323D01*
X306388Y160000D01*
X306840Y160677D01*
X307054Y161750D01*
Y163250D01*
X306840Y164323D01*
X306388Y165000D01*
X306840Y165677D01*
X307054Y166750D01*
Y168250D01*
X306840Y169323D01*
X306388Y170000D01*
X306840Y170677D01*
X307054Y171750D01*
Y173250D01*
X306840Y174323D01*
X306388Y175000D01*
X306840Y175677D01*
X307054Y176750D01*
Y178250D01*
X306840Y179323D01*
X306233Y180233D01*
X305323Y180840D01*
X304250Y181054D01*
X300600D01*
X300585Y181148D01*
X300569Y181332D01*
Y211259D01*
X300612D01*
X300165Y215798D01*
X298841Y220164D01*
X298276Y221220D01*
X300192Y224000D01*
X301194D01*
X303399Y224913D01*
X303525Y225040D01*
X303531Y225043D01*
X304029Y225273D01*
X305871Y224413D01*
D02*
G37*
G36*
X58961Y142000D02*
X59116Y141220D01*
X59558Y140558D01*
X58474Y138877D01*
X58319Y138646D01*
X57892Y136500D01*
Y136500D01*
X70000D01*
Y134000D01*
X72500D01*
Y125892D01*
X76500D01*
X78000Y126191D01*
X80000Y125002D01*
Y120000D01*
X84719D01*
X85788Y118000D01*
X85348Y117341D01*
X84882Y115000D01*
Y114500D01*
X100000D01*
X115118D01*
Y115000D01*
X114652Y117341D01*
X114212Y118000D01*
X115281Y120000D01*
X120000D01*
Y90000D01*
X85530D01*
X82639Y92535D01*
X76807Y96432D01*
X70518Y99534D01*
X63877Y101788D01*
X56998Y103156D01*
X50000Y103615D01*
X43002Y103156D01*
X36123Y101788D01*
X29483Y99534D01*
X23193Y96432D01*
X21764Y95477D01*
X20000Y96420D01*
Y145000D01*
X29029D01*
X29708Y143000D01*
X28866Y142354D01*
X27544Y140631D01*
X26712Y138624D01*
X26429Y136470D01*
Y129720D01*
X40000D01*
X53571D01*
Y136470D01*
X53288Y138624D01*
X52456Y140631D01*
X51134Y142354D01*
X50292Y143000D01*
X50971Y145000D01*
X58961D01*
Y142000D01*
D02*
G37*
G36*
X473710Y132080D02*
X473456Y131986D01*
X473232Y131830D01*
X473038Y131611D01*
X472873Y131329D01*
X472739Y130985D01*
X472635Y130578D01*
X472560Y130109D01*
X472515Y129577D01*
X472500Y128982D01*
X469500D01*
X469485Y129577D01*
X469440Y130109D01*
X469366Y130578D01*
X469261Y130985D01*
X469127Y131329D01*
X468962Y131611D01*
X468768Y131830D01*
X468544Y131986D01*
X468290Y132080D01*
X468006Y132112D01*
X473994D01*
X473710Y132080D01*
D02*
G37*
G36*
X208423Y134717D02*
X209975Y133129D01*
X210492Y132659D01*
X212040Y131428D01*
X212555Y131076D01*
X212873Y130878D01*
X212899Y130875D01*
X212974Y130896D01*
X213072Y130947D01*
X213193Y131027D01*
X213337Y131137D01*
X213693Y131443D01*
X214400Y132121D01*
X216521Y130000D01*
X216266Y129741D01*
X215427Y128793D01*
X215347Y128672D01*
X215296Y128574D01*
X215275Y128498D01*
X215282Y128446D01*
X213002Y130727D01*
X204192Y127106D01*
X204486Y128297D01*
X205030Y131257D01*
X205098Y132039D01*
X205111Y132718D01*
X205067Y133296D01*
X204966Y133771D01*
X204809Y134143D01*
X204596Y134413D01*
X207906Y135306D01*
X208423Y134717D01*
D02*
G37*
G36*
X399059Y127545D02*
X399086Y127556D01*
X399104Y127512D01*
X400560Y126461D01*
X399861Y125761D01*
X400192Y124993D01*
X397500Y122471D01*
X397471Y123105D01*
X397442Y123342D01*
X396039Y121939D01*
X395926Y122711D01*
X395389Y125350D01*
X395289Y125635D01*
X395190Y125838D01*
X395094Y125959D01*
X395000Y126000D01*
X398251Y128129D01*
X399059Y127545D01*
D02*
G37*
G36*
X472515Y124423D02*
X472560Y123891D01*
X472635Y123422D01*
X472739Y123015D01*
X472873Y122671D01*
X473038Y122389D01*
X473232Y122170D01*
X473456Y122014D01*
X473710Y121920D01*
X473994Y121889D01*
X468006D01*
X468290Y121920D01*
X468544Y122014D01*
X468768Y122170D01*
X468962Y122389D01*
X469127Y122671D01*
X469261Y123015D01*
X469366Y123422D01*
X469440Y123891D01*
X469485Y124423D01*
X469500Y125018D01*
X472500D01*
X472515Y124423D01*
D02*
G37*
G36*
X500846Y118018D02*
X500233Y117377D01*
X499225Y116145D01*
X498830Y115554D01*
X498508Y114980D01*
X498259Y114423D01*
X498082Y113882D01*
X497978Y113358D01*
X497946Y112851D01*
X497987Y112361D01*
X496464Y121826D01*
X496778Y121659D01*
X497114Y121565D01*
X497472Y121542D01*
X497851Y121592D01*
X498252Y121714D01*
X498674Y121908D01*
X499118Y122174D01*
X499583Y122513D01*
X500070Y122924D01*
X500578Y123406D01*
X500846Y118018D01*
D02*
G37*
G36*
X420451Y123692D02*
X421358Y122951D01*
X421797Y122659D01*
X422226Y122418D01*
X422646Y122228D01*
X423055Y122091D01*
X423455Y122005D01*
X423845Y121970D01*
X424225Y121987D01*
X416648Y121118D01*
X416981Y121186D01*
X417224Y121303D01*
X417375Y121469D01*
X417435Y121684D01*
X417403Y121947D01*
X417281Y122260D01*
X417067Y122621D01*
X416762Y123032D01*
X416366Y123491D01*
X415879Y124000D01*
X419982Y124139D01*
X420451Y123692D01*
D02*
G37*
G36*
X403044Y119858D02*
X402929Y119595D01*
X402829Y119274D01*
X402742Y118893D01*
X402668Y118454D01*
X402560Y117400D01*
X402507Y116110D01*
X402500Y115378D01*
X397500D01*
X397493Y116110D01*
X397332Y118454D01*
X397258Y118893D01*
X397171Y119274D01*
X397071Y119595D01*
X396956Y119858D01*
X396829Y120062D01*
X403171D01*
X403044Y119858D01*
D02*
G37*
G36*
X299715Y121017D02*
X299460Y120926D01*
X299235Y120774D01*
X299040Y120562D01*
X298875Y120289D01*
X298740Y119956D01*
X298635Y119562D01*
X298560Y119107D01*
X298516Y118599D01*
X298523Y118414D01*
X298594Y117869D01*
X298711Y117332D01*
X298874Y116804D01*
X299085Y116284D01*
X299342Y115773D01*
X299647Y115271D01*
X299998Y114778D01*
X300395Y114293D01*
X300840Y113817D01*
X294546Y113018D01*
X294727Y113363D01*
X294890Y113744D01*
X295033Y114163D01*
X295157Y114618D01*
X295261Y115110D01*
X295414Y116205D01*
X295462Y116807D01*
X295499Y118072D01*
X295485Y118592D01*
X295440Y119107D01*
X295365Y119562D01*
X295260Y119956D01*
X295125Y120289D01*
X294960Y120562D01*
X294765Y120774D01*
X294540Y120926D01*
X294285Y121017D01*
X294000Y121047D01*
X300000D01*
X299715Y121017D01*
D02*
G37*
G36*
X286542Y111720D02*
X286649Y111371D01*
X286822Y111021D01*
X287062Y110669D01*
X287369Y110315D01*
X287742Y109959D01*
X288182Y109602D01*
X288688Y109243D01*
X289261Y108882D01*
X289900Y108520D01*
X284092Y105851D01*
X284121Y106049D01*
X284134Y106300D01*
X284132Y106606D01*
X284079Y107380D01*
X283880Y108947D01*
X283668Y110262D01*
X286502Y112067D01*
X286542Y111720D01*
D02*
G37*
G36*
X389982Y103747D02*
X389889Y104141D01*
X389682Y104456D01*
X389360Y104689D01*
X388926Y104842D01*
X388377Y104915D01*
X387715Y104907D01*
X386939Y104818D01*
X386049Y104648D01*
X385045Y104398D01*
X383928Y104068D01*
X383665Y109726D01*
X384522Y110010D01*
X386692Y110890D01*
X387281Y111193D01*
X387803Y111501D01*
X388257Y111814D01*
X388645Y112131D01*
X388966Y112453D01*
X389220Y112780D01*
X389982Y103747D01*
D02*
G37*
G36*
X380280Y94966D02*
X379900Y93864D01*
X378514Y90540D01*
X378339Y90312D01*
X378198Y90229D01*
X378091Y90292D01*
X378018Y90500D01*
X371929Y92987D01*
X372315Y92884D01*
X372695Y92893D01*
X373068Y93014D01*
X373435Y93247D01*
X373795Y93593D01*
X374149Y94050D01*
X374497Y94619D01*
X374838Y95301D01*
X375172Y96094D01*
X375500Y97000D01*
X380280Y94966D01*
D02*
G37*
G36*
X349017Y97098D02*
X349067Y96506D01*
X349150Y95932D01*
X349267Y95378D01*
X349417Y94841D01*
X349601Y94324D01*
X349818Y93825D01*
X350069Y93345D01*
X350352Y92883D01*
X350670Y92440D01*
X349234D01*
X349269Y91767D01*
X345731D01*
X345782Y91868D01*
X345828Y92062D01*
X345868Y92351D01*
X345875Y92440D01*
X344330D01*
X344648Y92883D01*
X344931Y93345D01*
X345182Y93825D01*
X345399Y94324D01*
X345583Y94841D01*
X345733Y95378D01*
X345850Y95932D01*
X345933Y96506D01*
X345983Y97098D01*
X346000Y97708D01*
X349000D01*
X349017Y97098D01*
D02*
G37*
G36*
X265762Y97657D02*
X266331Y97100D01*
X266987Y96607D01*
X267731Y96181D01*
X268561Y95820D01*
X269478Y95525D01*
X270482Y95295D01*
X271574Y95131D01*
X271732Y95118D01*
X276207Y95405D01*
X276781Y95529D01*
X277224Y95669D01*
X277537Y95826D01*
Y86174D01*
X277224Y86331D01*
X276781Y86471D01*
X276207Y86595D01*
X275502Y86702D01*
X273701Y86868D01*
X272025Y86924D01*
X271040Y86840D01*
X269805Y86641D01*
X268739Y86361D01*
X267841Y86002D01*
X267113Y85562D01*
X266553Y85043D01*
X266163Y84444D01*
X265941Y83765D01*
X265889Y83006D01*
X265280Y98280D01*
X265762Y97657D01*
D02*
G37*
G36*
X293050Y95479D02*
X293716Y95169D01*
X294462Y94895D01*
X295288Y94657D01*
X296194Y94457D01*
X297179Y94292D01*
X299389Y94073D01*
X300614Y94018D01*
X301918Y94000D01*
X299590Y86000D01*
X292463Y86174D01*
Y95826D01*
X293050Y95479D01*
D02*
G37*
G36*
X357145Y92512D02*
X361394Y92764D01*
X361536Y92826D01*
X360112Y85006D01*
X360142Y85480D01*
X360052Y85904D01*
X359841Y86278D01*
X359509Y86602D01*
X359056Y86876D01*
X358483Y87101D01*
X357789Y87275D01*
X356974Y87400D01*
X356039Y87475D01*
X354982Y87500D01*
X355480Y89834D01*
X352821Y92494D01*
X353425Y92555D01*
X353965Y92647D01*
X354442Y92770D01*
X354855Y92924D01*
X355205Y93109D01*
X355491Y93326D01*
X355714Y93573D01*
X355873Y93851D01*
X355968Y94160D01*
X356000Y94500D01*
X357145Y92512D01*
D02*
G37*
G36*
X321490Y83082D02*
X321391Y82497D01*
X321178Y80652D01*
X321170Y80315D01*
X321182Y80028D01*
X321211Y79790D01*
X321260Y79602D01*
X321326Y79464D01*
X316887Y80987D01*
X317101Y80945D01*
X317303Y80967D01*
X317493Y81055D01*
X317672Y81208D01*
X317839Y81427D01*
X317995Y81711D01*
X318139Y82060D01*
X318271Y82475D01*
X318391Y82955D01*
X318500Y83500D01*
X321490Y83082D01*
D02*
G37*
G36*
X336515Y83418D02*
X336560Y82883D01*
X336635Y82415D01*
X336740Y82013D01*
X336875Y81677D01*
X337040Y81407D01*
X337235Y81203D01*
X337460Y81065D01*
X337715Y80993D01*
X338000Y80987D01*
X332017Y80442D01*
X332299Y80503D01*
X332551Y80629D01*
X332773Y80821D01*
X332966Y81079D01*
X333129Y81404D01*
X333263Y81794D01*
X333367Y82251D01*
X333441Y82774D01*
X333485Y83363D01*
X333500Y84018D01*
X336500D01*
X336515Y83418D01*
D02*
G37*
G36*
X234013Y47500D02*
X233962Y47975D01*
X233811Y48400D01*
X233560Y48775D01*
X233208Y49100D01*
X232755Y49375D01*
X232202Y49600D01*
X231548Y49775D01*
X230793Y49900D01*
X230458Y49929D01*
X229046Y49833D01*
X228607Y49759D01*
X228227Y49672D01*
X227906Y49571D01*
X227643Y49458D01*
X227440Y49330D01*
Y55670D01*
X227643Y55542D01*
X227906Y55429D01*
X228227Y55328D01*
X228607Y55241D01*
X229046Y55167D01*
X230100Y55060D01*
X230263Y55054D01*
X230793Y55100D01*
X231548Y55225D01*
X232202Y55400D01*
X232755Y55625D01*
X233208Y55900D01*
X233560Y56225D01*
X233811Y56600D01*
X233962Y57025D01*
X234013Y57500D01*
Y47500D01*
D02*
G37*
%LPC*%
G36*
X231500Y462108D02*
X231500D01*
X229354Y461681D01*
X227535Y460465D01*
X226319Y458646D01*
X225892Y456500D01*
Y452500D01*
X231500D01*
Y462108D01*
D02*
G37*
G36*
X208989Y462500D02*
X198700D01*
Y452211D01*
X201218Y452886D01*
X204182Y454597D01*
X206603Y457018D01*
X208314Y459982D01*
X208989Y462500D01*
D02*
G37*
G36*
X231500Y447500D02*
X225892D01*
Y443500D01*
X226319Y441354D01*
X227535Y439535D01*
X229354Y438319D01*
X231500Y437892D01*
X231500D01*
Y447500D01*
D02*
G37*
G36*
X381500Y416608D02*
X377500D01*
Y411000D01*
X387108D01*
Y411000D01*
X386681Y413146D01*
X385465Y414965D01*
X383646Y416181D01*
X381500Y416608D01*
D02*
G37*
G36*
X372500D02*
X368500D01*
X366354Y416181D01*
X364535Y414965D01*
X363319Y413146D01*
X362892Y411000D01*
Y411000D01*
X372500D01*
Y416608D01*
D02*
G37*
G36*
X346108Y416500D02*
X340500D01*
Y406892D01*
X342646Y407319D01*
X344465Y408535D01*
X345681Y410354D01*
X346108Y412500D01*
Y416500D01*
D02*
G37*
G36*
X387108Y339000D02*
X377500D01*
Y333392D01*
X381500D01*
X383646Y333819D01*
X385465Y335035D01*
X386681Y336854D01*
X387108Y339000D01*
D02*
G37*
G36*
X372500D02*
X362892D01*
X363319Y336854D01*
X364535Y335035D01*
X366354Y333819D01*
X368500Y333392D01*
X372500D01*
Y339000D01*
D02*
G37*
G36*
X328500Y312108D02*
X328500D01*
Y302500D01*
X334108D01*
Y306500D01*
X333681Y308646D01*
X332465Y310465D01*
X330646Y311681D01*
X328500Y312108D01*
D02*
G37*
G36*
X374500Y300000D02*
X373000D01*
X369000Y296000D01*
Y294500D01*
X374500D01*
Y300000D01*
D02*
G37*
G36*
X334108Y297500D02*
X328500D01*
Y287892D01*
X328500D01*
X330646Y288319D01*
X332465Y289535D01*
X333681Y291354D01*
X334108Y293500D01*
Y297500D01*
D02*
G37*
G36*
X126500Y392500D02*
X120892D01*
Y388500D01*
X121319Y386354D01*
X122535Y384535D01*
X124354Y383319D01*
X126500Y382892D01*
D01*
Y392500D01*
D02*
G37*
G36*
X42100Y287229D02*
Y276200D01*
Y265171D01*
X44472Y265483D01*
X47147Y266591D01*
X49445Y268355D01*
X51209Y270653D01*
X51218Y270675D01*
X53046Y270964D01*
X54524Y270819D01*
X55868Y269068D01*
X57957Y267465D01*
X60389Y266457D01*
X63000Y266114D01*
X67000D01*
X69611Y266457D01*
X72043Y267465D01*
X74132Y269068D01*
X75735Y271157D01*
X76743Y273589D01*
X77086Y276200D01*
X76743Y278811D01*
X75735Y281243D01*
X74132Y283332D01*
X72043Y284935D01*
X69611Y285943D01*
X67000Y286286D01*
X63000D01*
X60389Y285943D01*
X57957Y284935D01*
X55868Y283332D01*
X54524Y281581D01*
X53046Y281436D01*
X51218Y281725D01*
X51209Y281747D01*
X49445Y284045D01*
X47147Y285809D01*
X44472Y286917D01*
X42100Y287229D01*
D02*
G37*
G36*
Y261829D02*
Y250800D01*
Y239771D01*
X44472Y240083D01*
X47147Y241192D01*
X49445Y242955D01*
X51209Y245253D01*
X51218Y245275D01*
X53046Y245564D01*
X54524Y245419D01*
X55868Y243668D01*
X57957Y242065D01*
X60389Y241057D01*
X63000Y240714D01*
X67000D01*
X69611Y241057D01*
X72043Y242065D01*
X74132Y243668D01*
X75735Y245757D01*
X76743Y248190D01*
X77086Y250800D01*
X76743Y253410D01*
X75735Y255843D01*
X74132Y257932D01*
X72043Y259535D01*
X69611Y260543D01*
X67000Y260886D01*
X63000D01*
X60389Y260543D01*
X57957Y259535D01*
X55868Y257932D01*
X54524Y256181D01*
X53046Y256036D01*
X51218Y256325D01*
X51209Y256347D01*
X49445Y258645D01*
X47147Y260408D01*
X44472Y261517D01*
X42100Y261829D01*
D02*
G37*
G36*
X469000Y277108D02*
X466854Y276681D01*
X465035Y275465D01*
X463819Y273646D01*
X463392Y271500D01*
Y267500D01*
X469000D01*
Y277108D01*
D02*
G37*
G36*
X213500Y235108D02*
X213500D01*
X211354Y234681D01*
X209535Y233465D01*
X208319Y231646D01*
X207892Y229500D01*
Y225500D01*
X213500D01*
Y235108D01*
D02*
G37*
G36*
Y220500D02*
X207892D01*
Y216500D01*
X208319Y214354D01*
X209535Y212535D01*
X211354Y211319D01*
X213500Y210892D01*
X213500D01*
Y220500D01*
D02*
G37*
G36*
X163500Y197108D02*
D01*
Y187500D01*
X169108D01*
Y191500D01*
X168681Y193646D01*
X167465Y195465D01*
X165646Y196681D01*
X163500Y197108D01*
D02*
G37*
G36*
X169108Y182500D02*
X163500D01*
Y172892D01*
X165646Y173319D01*
X167465Y174535D01*
X168681Y176354D01*
X169108Y178500D01*
Y182500D01*
D02*
G37*
G36*
X157500Y156078D02*
X154000D01*
X151650Y155768D01*
X149461Y154861D01*
X147581Y153419D01*
X146138Y151539D01*
X145232Y149349D01*
X144922Y147000D01*
Y137500D01*
X157500D01*
Y156078D01*
D02*
G37*
G36*
Y132500D02*
X144922D01*
Y123000D01*
X145232Y120651D01*
X146138Y118461D01*
X147581Y116581D01*
X149461Y115139D01*
X151650Y114232D01*
X154000Y113922D01*
X157500D01*
Y132500D01*
D02*
G37*
G36*
X236500Y87500D02*
X230892D01*
Y83500D01*
X231319Y81354D01*
X232535Y79535D01*
X234354Y78319D01*
X236500Y77892D01*
Y87500D01*
D02*
G37*
G36*
X232500Y191608D02*
X228500D01*
X226354Y191181D01*
X224535Y189965D01*
X223319Y188146D01*
X222892Y186000D01*
Y186000D01*
X232500D01*
Y191608D01*
D02*
G37*
G36*
X548500Y332108D02*
X546354Y331681D01*
X544442Y330442D01*
X543780Y330884D01*
X543000Y331039D01*
X537000D01*
X536220Y330884D01*
X535558Y330442D01*
X533256Y330739D01*
X533256Y330739D01*
X531500Y331088D01*
X526500D01*
X524744Y330739D01*
X523256Y329744D01*
X522261Y328256D01*
X521912Y326500D01*
Y313500D01*
X522261Y311744D01*
X522931Y310742D01*
X522932Y310739D01*
X522937Y310732D01*
X523256Y310256D01*
X523441Y310132D01*
X523443Y310129D01*
X523650Y309963D01*
X523740Y309863D01*
X523853Y309691D01*
X523979Y309433D01*
X524107Y309081D01*
X524224Y308637D01*
X524318Y308129D01*
X524412Y307104D01*
Y306414D01*
X524366Y305799D01*
X524249Y304896D01*
X524087Y304035D01*
X523881Y303214D01*
X523632Y302431D01*
X523340Y301685D01*
X523005Y300974D01*
X522627Y300297D01*
X522454Y300032D01*
X522398Y299976D01*
X522249Y299718D01*
X522167Y299592D01*
X522145Y299538D01*
X521213Y297924D01*
X520600Y295635D01*
Y293265D01*
X521213Y290976D01*
X522398Y288924D01*
X524074Y287248D01*
X526126Y286063D01*
X528415Y285450D01*
X530785D01*
X533074Y286063D01*
X535126Y287248D01*
X536802Y288924D01*
X537987Y290976D01*
X538600Y293265D01*
Y295635D01*
X537987Y297924D01*
X536802Y299976D01*
X536555Y300223D01*
X535944Y300998D01*
X535432Y301740D01*
X534984Y302494D01*
X534600Y303258D01*
X534276Y304036D01*
X534012Y304828D01*
X534007Y304846D01*
X534474Y305747D01*
X535734Y307350D01*
X536918Y308403D01*
X537857Y308961D01*
X543000D01*
X543780Y309116D01*
X544442Y309558D01*
X546354Y308319D01*
X548500Y307892D01*
D01*
Y320000D01*
Y332108D01*
D02*
G37*
G36*
X553500D02*
D01*
Y322500D01*
X559108D01*
Y326500D01*
X558681Y328646D01*
X557465Y330465D01*
X555646Y331681D01*
X553500Y332108D01*
D02*
G37*
G36*
X559108Y317500D02*
X553500D01*
Y307892D01*
X555646Y308319D01*
X557465Y309535D01*
X558681Y311354D01*
X559108Y313500D01*
Y317500D01*
D02*
G37*
G36*
X556185Y290750D02*
X553815D01*
X551526Y290137D01*
X549474Y288952D01*
X547798Y287276D01*
X546613Y285224D01*
X546000Y282935D01*
Y280565D01*
X546613Y278276D01*
X547798Y276224D01*
X549474Y274548D01*
X551526Y273363D01*
X553815Y272750D01*
X556185D01*
X558474Y273363D01*
X560526Y274548D01*
X562202Y276224D01*
X563387Y278276D01*
X564000Y280565D01*
Y282935D01*
X563387Y285224D01*
X562202Y287276D01*
X560526Y288952D01*
X558474Y290137D01*
X556185Y290750D01*
D02*
G37*
G36*
X370000Y203591D02*
Y195500D01*
X372074D01*
Y200250D01*
X371782Y201713D01*
X370954Y202954D01*
X370000Y203591D01*
D02*
G37*
G36*
X620322Y211350D02*
X616678D01*
X613104Y210639D01*
X609737Y209244D01*
X606707Y207220D01*
X604130Y204643D01*
X602105Y201613D01*
X600711Y198246D01*
X600000Y194672D01*
Y191028D01*
X600612Y187951D01*
X599397Y186738D01*
X596296Y185047D01*
X595105Y185843D01*
X592375Y186973D01*
X589477Y187550D01*
X586523D01*
X583625Y186973D01*
X580895Y185843D01*
X578438Y184201D01*
X576349Y182112D01*
X574707Y179655D01*
X573577Y176925D01*
X573000Y174027D01*
Y171073D01*
X573577Y168175D01*
X574707Y165445D01*
X576349Y162988D01*
X578438Y160899D01*
X580895Y159257D01*
X583625Y158126D01*
X586523Y157550D01*
X589477D01*
X592375Y158126D01*
X595105Y159257D01*
X597562Y160899D01*
X599651Y162988D01*
X601293Y165445D01*
X602424Y168175D01*
X603000Y171073D01*
Y174027D01*
X602730Y175386D01*
X605579Y177603D01*
X607129Y178198D01*
X609737Y176455D01*
X613104Y175061D01*
X616678Y174350D01*
X620322D01*
X623896Y175061D01*
X627263Y176455D01*
X630293Y178480D01*
X632870Y181057D01*
X634894Y184087D01*
X636289Y187454D01*
X637000Y191028D01*
Y194672D01*
X636289Y198246D01*
X634894Y201613D01*
X632870Y204643D01*
X630293Y207220D01*
X627263Y209244D01*
X623896Y210639D01*
X620322Y211350D01*
D02*
G37*
G36*
X562108Y156500D02*
X552500D01*
Y150892D01*
X556500D01*
X558646Y151319D01*
X560465Y152535D01*
X561681Y154354D01*
X562108Y156500D01*
D02*
G37*
G36*
X437108Y92500D02*
X427500D01*
Y86892D01*
X431500D01*
X433646Y87319D01*
X435465Y88535D01*
X436681Y90354D01*
X437108Y92500D01*
D02*
G37*
G36*
X282500Y66500D02*
X272892D01*
X273319Y64354D01*
X274535Y62535D01*
X276354Y61319D01*
X278500Y60892D01*
X282500D01*
Y66500D01*
D02*
G37*
G36*
X381108Y63500D02*
X371500D01*
Y57892D01*
X375500D01*
X377646Y58319D01*
X379465Y59535D01*
X380681Y61354D01*
X381108Y63500D01*
D01*
D02*
G37*
G36*
X366500D02*
X356892D01*
X357319Y61354D01*
X358535Y59535D01*
X360354Y58319D01*
X362500Y57892D01*
X366500D01*
Y63500D01*
D02*
G37*
G36*
X263500Y64608D02*
D01*
Y55000D01*
X269108D01*
Y59000D01*
X268681Y61146D01*
X267465Y62965D01*
X265646Y64181D01*
X263500Y64608D01*
D02*
G37*
G36*
X352108Y51500D02*
X342500D01*
Y45892D01*
X346500D01*
X348646Y46319D01*
X350465Y47535D01*
X351681Y49354D01*
X352108Y51500D01*
Y51500D01*
D02*
G37*
G36*
X310000D02*
X300392D01*
Y51500D01*
X300819Y49354D01*
X302035Y47535D01*
X303854Y46319D01*
X306000Y45892D01*
X310000D01*
Y51500D01*
D02*
G37*
G36*
X427000Y50000D02*
X425500D01*
Y44500D01*
X431000D01*
Y46000D01*
X427000Y50000D01*
D02*
G37*
G36*
X420500D02*
X419000D01*
X415000Y46000D01*
Y44500D01*
X420500D01*
Y50000D01*
D02*
G37*
G36*
X269108Y50000D02*
X263500D01*
Y40392D01*
X265646Y40819D01*
X267465Y42035D01*
X268681Y43854D01*
X269108Y46000D01*
Y50000D01*
D02*
G37*
G36*
X431000Y39500D02*
X425500D01*
Y34000D01*
X427000D01*
X431000Y38000D01*
Y39500D01*
D02*
G37*
G36*
X420500D02*
X415000D01*
Y38000D01*
X419000Y34000D01*
X420500D01*
Y39500D01*
D02*
G37*
%LPD*%
G36*
X532942Y311448D02*
X532640Y311109D01*
X532372Y310704D01*
X532141Y310231D01*
X531945Y309690D01*
X531785Y309083D01*
X531660Y308409D01*
X531571Y307667D01*
X531537Y307150D01*
X531638Y306180D01*
X531811Y305207D01*
X532053Y304253D01*
X532365Y303320D01*
X532745Y302407D01*
X533195Y301513D01*
X533714Y300640D01*
X534302Y299787D01*
X534959Y298953D01*
X523875Y298477D01*
X524373Y299242D01*
X524820Y300042D01*
X525214Y300877D01*
X525555Y301749D01*
X525844Y302656D01*
X526080Y303598D01*
X526264Y304577D01*
X526395Y305591D01*
X526474Y306641D01*
X526480Y306886D01*
X526340Y308409D01*
X526215Y309083D01*
X526055Y309690D01*
X525859Y310231D01*
X525628Y310704D01*
X525360Y311109D01*
X525058Y311448D01*
X524720Y311720D01*
X533280D01*
X532942Y311448D01*
D02*
G37*
%LPC*%
G36*
X37100Y197500D02*
X26834D01*
X26883Y197128D01*
X27991Y194453D01*
X29755Y192155D01*
X32053Y190392D01*
X34728Y189283D01*
X37100Y188971D01*
Y197500D01*
D02*
G37*
G36*
X107108Y175500D02*
X97500D01*
Y169892D01*
X101500D01*
X103646Y170319D01*
X105465Y171535D01*
X106681Y173354D01*
X107108Y175500D01*
D02*
G37*
G36*
X92500D02*
X82892D01*
X83319Y173354D01*
X84535Y171535D01*
X86354Y170319D01*
X88500Y169892D01*
X92500D01*
Y175500D01*
D02*
G37*
G36*
X45250Y180351D02*
X42500D01*
Y165280D01*
X53571D01*
Y172030D01*
X53288Y174184D01*
X52456Y176191D01*
X51134Y177914D01*
X49411Y179236D01*
X47404Y180068D01*
X45250Y180351D01*
D02*
G37*
G36*
X37500D02*
X34750D01*
X32596Y180068D01*
X30589Y179236D01*
X28866Y177914D01*
X27544Y176191D01*
X26712Y174184D01*
X26429Y172030D01*
Y165280D01*
X37500D01*
Y180351D01*
D02*
G37*
G36*
X109000Y167118D02*
X102500D01*
Y160500D01*
X115118D01*
Y161000D01*
X114652Y163341D01*
X113326Y165326D01*
X111341Y166652D01*
X109000Y167118D01*
D02*
G37*
G36*
X97500D02*
X91000D01*
X88659Y166652D01*
X86674Y165326D01*
X85348Y163341D01*
X84882Y161000D01*
Y160500D01*
X97500D01*
Y167118D01*
D02*
G37*
G36*
X76500Y164108D02*
X72500D01*
Y158500D01*
X82108D01*
X81681Y160646D01*
X80465Y162465D01*
X78646Y163681D01*
X76500Y164108D01*
D02*
G37*
G36*
X67500D02*
X63500D01*
X61354Y163681D01*
X59535Y162465D01*
X58319Y160646D01*
X57892Y158500D01*
X67500D01*
Y164108D01*
D02*
G37*
G36*
X247108Y114000D02*
X237500D01*
Y108392D01*
X241500D01*
X243646Y108819D01*
X245465Y110035D01*
X246681Y111854D01*
X247108Y114000D01*
D02*
G37*
G36*
X232500D02*
X222892D01*
X223319Y111854D01*
X224535Y110035D01*
X226354Y108819D01*
X228500Y108392D01*
X232500D01*
Y114000D01*
D02*
G37*
G36*
X67500Y131500D02*
X57892D01*
X58319Y129354D01*
X59535Y127535D01*
X61354Y126319D01*
X63500Y125892D01*
X67500D01*
Y131500D01*
D02*
G37*
G36*
X53571Y124720D02*
X42500D01*
Y109649D01*
X45250D01*
X47404Y109932D01*
X49411Y110764D01*
X51134Y112086D01*
X52456Y113809D01*
X53288Y115816D01*
X53571Y117970D01*
Y124720D01*
D02*
G37*
G36*
X37500D02*
X26429D01*
Y117970D01*
X26712Y115816D01*
X27544Y113809D01*
X28866Y112086D01*
X30589Y110764D01*
X32596Y109932D01*
X34750Y109649D01*
X37500D01*
Y124720D01*
D02*
G37*
G36*
X115118Y109500D02*
X102500D01*
Y102882D01*
X109000D01*
X111341Y103348D01*
X113326Y104674D01*
X114652Y106659D01*
X115118Y109000D01*
Y109500D01*
D02*
G37*
G36*
X97500D02*
X84882D01*
Y109000D01*
X85348Y106659D01*
X86674Y104674D01*
X88659Y103348D01*
X91000Y102882D01*
X97500D01*
Y109500D01*
D02*
G37*
%LPD*%
D10*
X562561Y188561D02*
G03*
X570000Y206521I-17960J17960D01*
G01*
X550000Y181000D02*
G03*
X558535Y184536I0J12071D01*
G01*
X505571Y270000D02*
G03*
X493500Y265000I0J-17071D01*
G01*
Y294021D02*
G03*
X500939Y276061I25400J0D01*
G01*
X570000Y230829D02*
G03*
X562561Y248790I-25400J0D01*
G01*
X522561Y142561D02*
G03*
X530000Y160521I-17960J17960D01*
G01*
X558536Y184536D02*
X562561Y188561D01*
X530000Y181000D02*
X550000D01*
X530000Y160521D02*
Y181000D01*
X500939Y276061D02*
X507000Y270000D01*
X505571D02*
X507000D01*
X493500Y294021D02*
Y300000D01*
X493000Y197000D02*
Y214000D01*
X570000Y206521D02*
Y230829D01*
X555000Y256350D02*
X562561Y248790D01*
X493000Y113000D02*
X522561Y142561D01*
X555000Y256350D02*
Y256729D01*
D20*
Y205550D02*
D03*
X529600Y218250D02*
D03*
X555000Y230950D02*
D03*
X529600Y243650D02*
D03*
X555000Y256350D02*
D03*
X529600Y269050D02*
D03*
X555000Y281750D02*
D03*
X529600Y294450D02*
D03*
D28*
X315000Y390000D02*
G03*
X316000Y391000I0J1000D01*
G01*
X178000Y451000D02*
G03*
X173731Y457577I-7200J0D01*
G01*
X171184Y460207D02*
G03*
X173731Y457577I4616J1921D01*
G01*
X440000Y300000D02*
G03*
X429000Y289000I0J-11000D01*
G01*
Y281000D02*
G03*
X415000Y267000I0J-14000D01*
G01*
X424000Y197000D02*
G03*
X415000Y188000I0J-9000D01*
G01*
X407561Y169561D02*
G03*
X415000Y187521I-17960J17960D01*
G01*
X397500Y108500D02*
G03*
X400000Y114536I-6036J6036D01*
G01*
X389500Y108500D02*
G03*
X378000Y97000I0J-11500D01*
G01*
X371000Y90000D02*
G03*
X378000Y97000I0J7000D01*
G01*
X666000Y317800D02*
G03*
X667500Y316300I1500J0D01*
G01*
X334479Y240000D02*
G03*
X352439Y247439I0J25400D01*
G01*
X645000Y342586D02*
G03*
X644000Y345000I-3414J0D01*
G01*
X637071Y351929D02*
G03*
X620000Y359000I-17071J-17071D01*
G01*
X575000Y380000D02*
G03*
X572586Y381000I-2414J-2414D01*
G01*
X592000Y384479D02*
G03*
X584561Y402439I-25400J0D01*
G01*
X575000Y420000D02*
G03*
X580657Y406343I19314J0D01*
G01*
X620000Y383479D02*
G03*
X612561Y401440I-25400J0D01*
G01*
X575000Y449521D02*
G03*
X582439Y431561I25400J0D01*
G01*
X474521Y359000D02*
G03*
X456561Y351561I0J-25400D01*
G01*
X325222Y339000D02*
G03*
X315000Y328778I0J-10222D01*
G01*
X309500Y315500D02*
G03*
X315000Y328778I-13278J13278D01*
G01*
X307460Y313460D02*
G03*
X306000Y309929I3540J-3532D01*
G01*
X304000Y300000D02*
G03*
X306000Y302000I0J2000D01*
G01*
X304000Y300000D02*
G03*
X291929Y305000I-12071J-12071D01*
G01*
X150414Y401541D02*
G03*
X150429Y401500I4251J1476D01*
G01*
X142977Y408589D02*
G03*
X140000Y409000I-2977J-10589D01*
G01*
X120000Y429000D02*
G03*
X140000Y409000I20000J0D01*
G01*
X253000Y187515D02*
G03*
X247000Y202000I-20485J0D01*
G01*
D02*
G03*
X232515Y208000I-14485J-14485D01*
G01*
X150000Y460400D02*
G03*
X145400Y465000I-4600J0D01*
G01*
X165000Y406000D02*
G03*
X152000Y419000I-13000J0D01*
G01*
X146204Y407159D02*
G03*
X146686Y406734I3540J3531D01*
G01*
X146204Y407159D02*
G03*
X143604Y408459I-3204J-3159D01*
G01*
X142977Y408589D02*
G03*
X143604Y408459I1328J4820D01*
G01*
X150414Y401541D02*
G03*
X146686Y406734I-10414J-3541D01*
G01*
X40000Y319000D02*
G03*
X22500Y301500I0J-17500D01*
G01*
X78000Y317000D02*
G03*
X73172Y319000I-4828J-4828D01*
G01*
X78000Y317000D02*
G03*
X80414Y316000I2414J2414D01*
G01*
X22500Y227621D02*
G03*
X29939Y209660I25400J0D01*
G01*
X95000Y361000D02*
G03*
X100000Y373071I-12071J12071D01*
G01*
X645000Y216721D02*
G03*
X652439Y198761I25400J0D01*
G01*
X65160Y301439D02*
G03*
X83121Y294000I17960J17960D01*
G01*
X90000Y280000D02*
G03*
X95000Y292071I-12071J12071D01*
G01*
X90000Y280000D02*
G03*
X87000Y272757I7243J-7243D01*
G01*
Y222243D02*
G03*
X90000Y215000I10243J0D01*
G01*
X95000Y202929D02*
G03*
X90000Y215000I-17071J0D01*
G01*
X529000Y295050D02*
X529600Y294450D01*
X529000Y295050D02*
Y320000D01*
X316000Y391000D02*
Y418000D01*
X170800Y461129D02*
X171184Y460207D01*
X170800Y462128D02*
Y465000D01*
X178000Y441000D02*
Y451000D01*
X170800Y462128D02*
X170800Y461129D01*
X440000Y300000D02*
X471500D01*
X429000Y281000D02*
Y289000D01*
X424000Y197000D02*
X429000D01*
X415000Y252282D02*
Y267000D01*
Y187521D02*
Y188000D01*
Y226000D01*
X404000Y166000D02*
X407561Y169561D01*
X400000Y114536D02*
Y122500D01*
X389500Y108500D02*
X397500D01*
X353000Y90000D02*
X371000D01*
X347500D02*
X353000D01*
X137574Y186426D02*
X139000Y185000D01*
X126000Y187000D02*
X126574Y186426D01*
X137574D01*
X225000Y52500D02*
X239000D01*
X180000Y291000D02*
X183934Y293500D01*
Y293934D02*
X194996Y304996D01*
X183934Y293500D02*
Y293934D01*
X666000Y317800D02*
Y345000D01*
X352439Y247439D02*
X456561Y351561D01*
X327000Y240000D02*
X334479D01*
X310000D02*
X327000D01*
X637071Y351929D02*
X644000Y345000D01*
X645000Y251000D02*
Y342586D01*
X575000Y449521D02*
Y460000D01*
X557000Y381000D02*
X572586D01*
X580657Y406343D02*
X584561Y402439D01*
X592000Y381000D02*
Y384479D01*
X582439Y431561D02*
X612561Y401440D01*
X620000Y381000D02*
Y383479D01*
X474521Y359000D02*
X557000D01*
X613000D01*
X325222Y339000D02*
X335000D01*
X315000Y328778D02*
Y346260D01*
X307460Y313461D02*
X309500Y315500D01*
X290000Y305000D02*
X291929D01*
X306000Y302000D02*
Y309929D01*
X120000Y429000D02*
Y465000D01*
X150429Y401500D02*
X153500D01*
X150429D02*
X150429D01*
X253000Y167000D02*
Y187515D01*
X216000Y208000D02*
X232515D01*
X315000Y346260D02*
X315000Y356000D01*
X150000Y441000D02*
Y460400D01*
Y419000D02*
X152000D01*
X151000Y398000D02*
X153500Y401500D01*
X151000Y395000D02*
Y398000D01*
Y377000D02*
Y395000D01*
X153500Y397500D02*
X153500Y397500D01*
X151000Y395000D02*
X153500Y397500D01*
X40000Y319000D02*
X73172D01*
X22500Y227621D02*
Y301500D01*
X80414Y316000D02*
X95000D01*
X29939Y209660D02*
X39600Y200000D01*
X100000Y373071D02*
Y375000D01*
X95000Y316000D02*
Y339000D01*
X645000Y216721D02*
Y229000D01*
X652439Y198761D02*
X667500Y183700D01*
X65000Y301600D02*
X65160Y301439D01*
X83121Y294000D02*
X95000D01*
X87000Y265000D02*
Y272757D01*
X95000Y292071D02*
Y294000D01*
X87000Y222243D02*
Y230000D01*
X95000Y200000D02*
Y202929D01*
X65000Y200000D02*
X95000D01*
D29*
X413400Y364000D02*
G03*
X400000Y350600I0J-13400D01*
G01*
Y399400D02*
G03*
X413400Y386000I13400J0D01*
G01*
X118826Y255515D02*
G03*
X122000Y259000I-326J3485D01*
G01*
X118500Y255500D02*
G03*
X118826Y255515I0J3500D01*
G01*
X125000Y262000D02*
G03*
X122000Y259000I0J-3000D01*
G01*
X119479Y220499D02*
G03*
X119411Y220500I-68J-3529D01*
G01*
X122424Y218808D02*
G03*
X119479Y220499I-3014J-1837D01*
G01*
X122940Y216971D02*
G03*
X122424Y218808I-3529J0D01*
G01*
D02*
G03*
X127699Y214000I5275J490D01*
G01*
X316000Y418000D02*
G03*
X315000Y419000I-1000J0D01*
G01*
X262500Y429132D02*
G03*
X262715Y429807I-2731J1241D01*
G01*
X275000Y440000D02*
G03*
X262715Y429807I0J-12500D01*
G01*
X279988Y440000D02*
G03*
X280000Y440000I0J3000D01*
G01*
X275000Y435000D02*
G03*
X267500Y427500I0J-7500D01*
G01*
X400011Y163364D02*
G03*
X404000Y166000I-4460J11086D01*
G01*
X395550Y162500D02*
G03*
X400011Y163364I0J11950D01*
G01*
X400000Y122500D02*
G03*
X395000Y127500I-5000J0D01*
G01*
X353000Y90000D02*
G03*
X357500Y94500I0J4500D01*
G01*
X416940Y125061D02*
G03*
X398979Y132500I-17960J-17960D01*
G01*
X135000Y236000D02*
G03*
X126550Y239500I-8450J-8450D01*
G01*
X133021Y284000D02*
G03*
X115061Y276560I0J-25400D01*
G01*
X165000Y372500D02*
G03*
X150000Y357500I0J-15000D01*
G01*
X142000Y262000D02*
G03*
X150000Y270000I0J8000D01*
G01*
X195000Y305000D02*
G03*
X194996Y304996I4827J-4830D01*
G01*
X288500Y132500D02*
G03*
X285000Y129000I0J-3500D01*
G01*
Y112243D02*
G03*
X288000Y105000I10243J0D01*
G01*
X297000Y113414D02*
G03*
X298000Y111000I3414J0D01*
G01*
X392500Y172500D02*
G03*
X405000Y185000I0J12500D01*
G01*
X392500Y177500D02*
G03*
X400000Y185000I0J7500D01*
G01*
X336000Y231000D02*
G03*
X327000Y240000I-9000J0D01*
G01*
X310000D02*
G03*
X311000Y241000I-0J1000D01*
G01*
X310000Y240000D02*
G03*
X311000Y242414I-2414J2414D01*
G01*
X278500Y419000D02*
G03*
X277500Y418000I0J-1000D01*
G01*
X315000Y328778D02*
G03*
X306278Y337500I-8722J0D01*
G01*
X336000Y218635D02*
G03*
X338883Y209467I16017J0D01*
G01*
X342500Y202942D02*
G03*
X340691Y207309I-6175J0D01*
G01*
X338883Y209467D02*
G03*
X340691Y207309I13135J9167D01*
G01*
X290000Y290000D02*
G03*
X296828Y292828I0J9657D01*
G01*
X267500Y295000D02*
G03*
X272500Y290000I5000J0D01*
G01*
X270000Y138000D02*
G03*
X271207Y137500I1207J1207D01*
G01*
X265071Y138000D02*
G03*
X253008Y133008I0J-17071D01*
G01*
X298000Y397500D02*
G03*
X300000Y399500I0J2000D01*
G01*
X202500Y418000D02*
G03*
X201500Y419000I-1000J0D01*
G01*
X265000Y192929D02*
G03*
X260000Y205000I-17071J0D01*
G01*
X265000Y178500D02*
G03*
X286000Y157500I21000J0D01*
G01*
X244826Y220174D02*
G03*
X238000Y223000I-6826J-6830D01*
G01*
X244828Y220172D02*
G03*
X244826Y220174I-6828J-6828D01*
G01*
X289000Y232657D02*
G03*
X291242Y225159I13657J0D01*
G01*
X293395Y222605D02*
G03*
X291242Y225159I-16053J-11346D01*
G01*
X297000Y211259D02*
G03*
X293395Y222605I-19658J0D01*
G01*
X262500Y295000D02*
G03*
X272500Y285000I10000J0D01*
G01*
X272541Y285000D02*
G03*
X272500Y285000I-41J-16500D01*
G01*
X289000Y268500D02*
G03*
X272541Y285000I-16500J0D01*
G01*
X262500Y301988D02*
G03*
X262500Y302000I-3000J0D01*
G01*
X262500Y232979D02*
G03*
X256402Y249489I-25400J0D01*
G01*
X247500Y268912D02*
G03*
X254939Y250952I25400J0D01*
G01*
X242500Y257864D02*
G03*
X247000Y247000I15364J0D01*
G01*
X254000Y230100D02*
G03*
X247000Y247000I-23900J0D01*
G01*
X252500Y291021D02*
G03*
X259939Y273060I25400J0D01*
G01*
X314000Y225000D02*
G03*
X301929Y230000I-12071J-12071D01*
G01*
X314000Y225000D02*
G03*
X312500Y221379I3621J-3621D01*
G01*
X280000Y180000D02*
G03*
X287500Y172500I7500J0D01*
G01*
X270000Y246757D02*
G03*
X267000Y254000I-10243J0D01*
G01*
X275000Y180000D02*
G03*
X287500Y167500I12500J0D01*
G01*
X275000Y253757D02*
G03*
X272000Y261000I-10243J0D01*
G01*
X270000Y180000D02*
G03*
X287500Y162500I17500J0D01*
G01*
X257500Y294999D02*
G03*
X260988Y285384I15000J1D01*
G01*
X253008Y133008D02*
G03*
X253000Y133000I12063J-12079D01*
G01*
X239308Y138500D02*
G03*
X255000Y145000I0J22192D01*
G01*
X261036Y147500D02*
G03*
X255000Y145000I0J-8536D01*
G01*
Y155000D02*
G03*
X239308Y161500I-15692J-15692D01*
G01*
X255000Y155000D02*
G03*
X261036Y152500I6036J6036D01*
G01*
X210000Y125600D02*
G03*
X196600Y139000I-13400J0D01*
G01*
Y161000D02*
G03*
X210000Y174400I0J13400D01*
G01*
X215460Y168939D02*
G03*
X233421Y161500I17960J17960D01*
G01*
X233421Y138500D02*
G03*
X215461Y131060I0J-25400D01*
G01*
X318000Y365000D02*
G03*
X327657Y361000I9657J9657D01*
G01*
X318000Y365000D02*
G03*
X311964Y367500I-6036J-6036D01*
G01*
X394539Y356061D02*
G03*
X376579Y363500I-17960J-17960D01*
G01*
X355000Y370000D02*
G03*
X370692Y363500I15692J15692D01*
G01*
X355000Y370000D02*
G03*
X348964Y372500I-6036J-6036D01*
G01*
X376579Y386500D02*
G03*
X394539Y393940I0J25400D01*
G01*
X370692Y386500D02*
G03*
X355000Y380000I0J-22192D01*
G01*
X348964Y377500D02*
G03*
X355000Y380000I0J8536D01*
G01*
X338011Y76412D02*
G03*
X340000Y76000I1989J4588D01*
G01*
X335412Y79011D02*
G03*
X338011Y76412I4588J1989D01*
G01*
X335000Y81000D02*
G03*
X335412Y79011I5000J0D01*
G01*
X335000Y90000D02*
G03*
X332803Y95303I-7500J0D01*
G01*
X312500Y76000D02*
G03*
X320000Y83500I0J7500D01*
G01*
X322197Y95303D02*
G03*
X322500Y96606I-2697J1315D01*
G01*
X322197Y95303D02*
G03*
X320000Y90000I5303J-5303D01*
G01*
X332500Y96618D02*
G03*
X332803Y95303I3000J0D01*
G01*
X426117Y149032D02*
G03*
X425102Y151484I-3468J0D01*
G01*
X426117Y147176D02*
G03*
X428446Y141554I7950J0D01*
G01*
X425102Y151484D02*
G03*
X422649Y152500I-2452J-2452D01*
G01*
X428446Y168446D02*
G03*
X426117Y162824I5621J-5621D01*
G01*
X427117Y233032D02*
G03*
X426102Y235484I-3468J0D01*
G01*
D02*
G03*
X423649Y236500I-2452J-2452D01*
G01*
X427117Y231176D02*
G03*
X429446Y225554I7950J0D01*
G01*
X416000Y236500D02*
G03*
X405000Y225500I0J-11000D01*
G01*
X429446Y252446D02*
G03*
X427117Y246824I5621J-5621D01*
G01*
X416000Y241500D02*
G03*
X400000Y225500I0J-16000D01*
G01*
X454883Y246824D02*
G03*
X452554Y252446I-7950J0D01*
G01*
Y225554D02*
G03*
X454883Y231176I-5621J5621D01*
G01*
X468117Y147176D02*
G03*
X470446Y141554I7950J0D01*
G01*
Y168446D02*
G03*
X468117Y162824I5621J-5621D01*
G01*
X453883Y160968D02*
G03*
X454898Y158516I3468J0D01*
G01*
D02*
G03*
X457351Y157500I2452J2452D01*
G01*
X464649D02*
G03*
X467102Y158516I0J3468D01*
G01*
X457351Y152500D02*
G03*
X454898Y151484I0J-3468D01*
G01*
D02*
G03*
X453883Y149032I2452J-2452D01*
G01*
X467102Y151484D02*
G03*
X464649Y152500I-2452J-2452D01*
G01*
X468117Y149032D02*
G03*
X467102Y151484I-3468J0D01*
G01*
X451554Y141554D02*
G03*
X453883Y147176I-5621J5621D01*
G01*
Y162824D02*
G03*
X451554Y168446I-7950J0D01*
G01*
X467102Y158516D02*
G03*
X468117Y160968I-2452J2452D01*
G01*
X458351Y236500D02*
G03*
X455899Y235484I0J-3468D01*
G01*
D02*
G03*
X454883Y233032I2452J-2452D01*
G01*
X455899Y242516D02*
G03*
X458351Y241500I2452J2452D01*
G01*
X454883Y244968D02*
G03*
X455899Y242516I3468J0D01*
G01*
X426102D02*
G03*
X427117Y244968I-2452J2452D01*
G01*
X423649Y241500D02*
G03*
X426102Y242516I0J3468D01*
G01*
X528450Y230950D02*
G03*
X515000Y217500I0J-13450D01*
G01*
X505000Y152500D02*
G03*
X515000Y162500I0J10000D01*
G01*
X499351Y152500D02*
G03*
X496898Y151484I0J-3468D01*
G01*
D02*
G03*
X495883Y149032I2452J-2452D01*
G01*
X493554Y141554D02*
G03*
X495883Y147176I-5621J5621D01*
G01*
X516440Y256439D02*
G03*
X510000Y240893I15546J-15546D01*
G01*
X495883Y162824D02*
G03*
X493554Y168446I-7950J0D01*
G01*
X496898Y158516D02*
G03*
X499351Y157500I2452J2452D01*
G01*
X495883Y160968D02*
G03*
X496898Y158516I3468J0D01*
G01*
X505000Y157500D02*
G03*
X510000Y162500I0J5000D01*
G01*
X425102Y158516D02*
G03*
X426117Y160968I-2452J2452D01*
G01*
X422649Y157500D02*
G03*
X425102Y158516I0J3468D01*
G01*
X165000Y367500D02*
G03*
X155000Y357500I0J-10000D01*
G01*
X144000Y214000D02*
G03*
X155000Y225000I0J11000D01*
G01*
X413400Y386000D02*
X420000D01*
X413400Y364000D02*
X420000D01*
X113000Y255500D02*
X118500D01*
X135000Y262000D02*
X142000D01*
X125000D02*
X135000D01*
X113000Y220500D02*
X119411D01*
X135000Y214000D02*
X144000D01*
X127699D02*
X135000D01*
X278500Y419000D02*
X300000D01*
X315000D01*
X257500Y444000D02*
X257500Y444000D01*
Y418000D02*
Y444000D01*
X262500Y418000D02*
Y429132D01*
X280000Y440000D02*
X522000D01*
X275000Y440000D02*
X279988D01*
X275000Y435000D02*
X295000D01*
Y435000D02*
Y435000D01*
X267500Y418000D02*
Y427500D01*
X295000Y435000D02*
X540000Y435000D01*
X543000Y438000D01*
X383000Y162500D02*
X395550D01*
X383000Y127500D02*
X395000D01*
X416940Y125061D02*
X425000Y117000D01*
X383000Y132500D02*
X398979D01*
X347500Y90000D02*
Y107000D01*
X222500Y276000D02*
Y302000D01*
X135000Y236000D02*
Y249000D01*
X133021Y284000D02*
X135000D01*
Y297000D01*
X113000Y274500D02*
X115061Y276560D01*
X165000Y372500D02*
X182000D01*
X150000Y270000D02*
Y357500D01*
X194828Y302000D02*
X202500D01*
X288500Y132500D02*
X297000D01*
X285000Y112243D02*
Y129000D01*
X297000Y113414D02*
Y122500D01*
X357500Y94500D02*
Y107000D01*
X429446Y225554D02*
X430000Y225000D01*
X429446Y252446D02*
X430000Y253000D01*
X400000Y185000D02*
Y225500D01*
X311000Y242414D02*
Y260000D01*
X522000Y440000D02*
X525000Y443000D01*
X298000Y337500D02*
X306278D01*
X336000Y218635D02*
Y222000D01*
Y231000D01*
X342500Y193000D02*
Y202942D01*
X296828Y292828D02*
X304000Y300000D01*
X272500Y290000D02*
X290000D01*
X271207Y137500D02*
X297000D01*
X267500Y295000D02*
Y302000D01*
X265071Y138000D02*
X270000D01*
X113000Y239500D02*
X126550D01*
X311000Y241000D02*
Y242414D01*
X300000Y399500D02*
Y419000D01*
X178000D02*
X201500D01*
X153500Y397500D02*
X182000D01*
X347500Y193000D02*
X352500D01*
X342500D02*
X347500D01*
X265000Y178500D02*
Y192929D01*
X244828Y220172D02*
X260000Y205000D01*
X244826Y220174D02*
X244828Y220172D01*
X286000Y157500D02*
X297000D01*
X237500Y227000D02*
Y302000D01*
X297000Y177500D02*
Y211259D01*
X289000Y232657D02*
Y260000D01*
Y268500D01*
X262500Y295000D02*
Y301988D01*
X262500Y302000D02*
Y302000D01*
X280000Y180000D02*
Y219757D01*
X262500Y220000D02*
Y232979D01*
X256402Y249489D02*
X256402Y249489D01*
X254939Y250952D02*
X256402Y249489D01*
X247500Y268912D02*
Y302000D01*
X242500Y257864D02*
Y302000D01*
X254000Y230000D02*
Y230100D01*
X259939Y273060D02*
X272000Y261000D01*
X300000Y230000D02*
X301929D01*
X312500Y193000D02*
Y221379D01*
X287500Y172500D02*
X297000D01*
X270000Y243000D02*
Y246757D01*
X252500Y291021D02*
Y302000D01*
X275000Y180000D02*
Y253757D01*
X287500Y167500D02*
X297000D01*
X270000Y243000D02*
X270000Y180000D01*
Y180000D02*
Y180000D01*
X287500Y162500D02*
X297000Y162500D01*
X287500Y162500D02*
X287500D01*
X257500Y295500D02*
X257500Y294999D01*
X260988Y285384D02*
X260988Y285383D01*
X267000Y278000D01*
X257500Y295500D02*
Y302000D01*
X261036Y147500D02*
X297000D01*
X190000Y139000D02*
X196600D01*
X210000Y125600D02*
X215461Y131060D01*
X210000Y174400D02*
X215460Y168939D01*
X190000Y161000D02*
X196600D01*
X235000Y138500D02*
X239308D01*
X235000Y161500D02*
X239308D01*
X261036Y152500D02*
X297000D01*
X327657Y361000D02*
X335000D01*
X298000Y367500D02*
X311964D01*
X375000Y363500D02*
X376579D01*
X370692Y363500D02*
X375000D01*
X394539Y356061D02*
X400000Y350600D01*
X375000Y386500D02*
X376579D01*
X370692D02*
X375000D01*
X298000Y372500D02*
X348964D01*
X394539Y393940D02*
X400000Y399400D01*
X347500Y107000D02*
X347500D01*
X335000Y81000D02*
Y85000D01*
X335000D02*
Y90000D01*
Y85000D02*
X335000D01*
X320000Y83500D02*
Y90000D01*
X322500Y96606D02*
Y107000D01*
Y96606D02*
Y96606D01*
X332500Y96618D02*
Y97500D01*
X332500Y107000D01*
Y107000D01*
X327500Y90000D02*
Y107000D01*
X383000Y142500D02*
Y142500D01*
Y142500D02*
X400000D01*
X426117Y147176D02*
Y149032D01*
X428446Y141554D02*
X429000Y141000D01*
X383000Y152500D02*
X422649D01*
X428446Y168446D02*
X429000Y169000D01*
X426117Y160968D02*
Y162824D01*
X427117Y231176D02*
Y233032D01*
X416000Y236500D02*
X423649D01*
X405000Y185000D02*
Y225500D01*
X383000Y172500D02*
X392500D01*
X427117Y244968D02*
Y246824D01*
X416000Y241500D02*
X423649D01*
X383000Y177500D02*
X392500D01*
X451000Y253000D02*
Y281000D01*
Y197000D02*
Y225000D01*
X470446Y141554D02*
X471000Y141000D01*
Y113000D02*
Y141000D01*
X470446Y168446D02*
X471000Y169000D01*
Y197000D01*
X453883Y160968D02*
Y162824D01*
X468117Y160968D02*
Y162824D01*
X457351Y157500D02*
X464649D01*
X453883Y147176D02*
Y149032D01*
X468117Y147176D02*
Y149032D01*
X457351Y152500D02*
X464649D01*
X451000Y141000D02*
X451554Y141554D01*
X451000Y169000D02*
X451554Y168446D01*
X458351Y236500D02*
X468750D01*
X454883Y231176D02*
Y233032D01*
Y244968D02*
Y246824D01*
X458351Y241500D02*
X468750D01*
X528450Y230950D02*
X555000D01*
X515000Y217500D02*
X515000Y182071D01*
X499351Y152500D02*
X505000D01*
X495883Y147176D02*
Y149032D01*
X493000Y141000D02*
X493554Y141554D01*
X510000Y180000D02*
Y240893D01*
X495883Y160968D02*
Y162824D01*
X493000Y169000D02*
X493554Y168446D01*
X499351Y157500D02*
X505000D01*
X520000Y260000D02*
X529600Y269050D01*
X516440Y256439D02*
X520000Y260000D01*
X510000Y180000D02*
X510000Y165000D01*
X515000Y182071D02*
X515000D01*
X510000Y162500D02*
Y165000D01*
X515000Y162500D02*
Y182071D01*
X383000Y157500D02*
X422649D01*
X298000Y377500D02*
X348964D01*
X165000Y387500D02*
X182000D01*
X165000Y367500D02*
X182000D01*
X155000Y225000D02*
Y357500D01*
D30*
X551000Y320000D02*
D03*
X529000D02*
D03*
X471500Y265000D02*
D03*
X493500D02*
D03*
X471500Y300000D02*
D03*
X493500D02*
D03*
X429000Y281000D02*
D03*
X451000D02*
D03*
Y253000D02*
D03*
X429000D02*
D03*
X451000Y225000D02*
D03*
X429000D02*
D03*
Y197000D02*
D03*
X451000D02*
D03*
X451000Y169000D02*
D03*
X429000D02*
D03*
X493000Y197000D02*
D03*
X471000D02*
D03*
X493000Y169000D02*
D03*
X471000D02*
D03*
X493000Y141000D02*
D03*
X471000D02*
D03*
X644000Y345000D02*
D03*
X666000D02*
D03*
X216000Y223000D02*
D03*
X238000D02*
D03*
X336000Y222000D02*
D03*
X314000D02*
D03*
X311000Y260000D02*
D03*
X289000D02*
D03*
X304000Y300000D02*
D03*
X326000D02*
D03*
X338000Y419000D02*
D03*
X316000D02*
D03*
X256000Y450000D02*
D03*
X234000D02*
D03*
X129000Y395000D02*
D03*
X151000D02*
D03*
X139000Y185000D02*
D03*
X161000D02*
D03*
X239000Y90000D02*
D03*
X261000D02*
D03*
X239000Y52500D02*
D03*
X261000D02*
D03*
X471000Y113000D02*
D03*
X493000D02*
D03*
X429000Y141000D02*
D03*
X451000D02*
D03*
D31*
X262000Y91000D02*
G03*
X261000Y90000I0J-1000D01*
G01*
X285000Y91000D02*
G03*
X286000Y90000I1000J0D01*
G01*
X262000Y91000D02*
X285000D01*
X286000Y90000D02*
X312500D01*
D32*
X377000Y292000D02*
D03*
X423000Y42000D02*
D03*
X412681Y252564D02*
D03*
X463000Y356000D02*
D03*
D33*
X115000Y178000D02*
D03*
D34*
X39600Y301600D02*
D03*
X65000D02*
D03*
X39600Y276200D02*
D03*
X65000D02*
D03*
X39600Y250800D02*
D03*
X65000D02*
D03*
X39600Y225400D02*
D03*
X65000D02*
D03*
X39600Y200000D02*
D03*
D35*
X65000D02*
D03*
D36*
X400000Y350600D02*
D03*
Y399400D02*
D03*
X210000Y125600D02*
D03*
Y174400D02*
D03*
D37*
X588000Y172550D02*
D03*
Y327450D02*
D03*
D38*
X618500Y192850D02*
D03*
Y307150D02*
D03*
D39*
X667500Y183700D02*
D03*
Y209100D02*
D03*
Y316300D02*
D03*
Y290900D02*
D03*
D40*
X170800Y465000D02*
D03*
X196200D02*
D03*
X145400D02*
D03*
D41*
X120000D02*
D03*
D42*
X650000Y50000D02*
D03*
Y450000D02*
D03*
X50000Y50000D02*
D03*
Y450000D02*
D03*
D43*
X85000Y247500D02*
D03*
X525000Y460000D02*
D03*
X570000Y432500D02*
D03*
X572500Y395000D02*
D03*
X592500Y435000D02*
D03*
X627500Y395000D02*
D03*
X565000Y315000D02*
D03*
X373000Y449000D02*
D03*
X278000D02*
D03*
X315000D02*
D03*
X291000Y410000D02*
D03*
X220000Y446000D02*
D03*
X315000Y390000D02*
D03*
X126000Y187000D02*
D03*
X555000Y439000D02*
D03*
X393000Y412000D02*
D03*
Y337000D02*
D03*
X505000Y317000D02*
D03*
X458000Y311000D02*
D03*
X191000Y180000D02*
D03*
X195000Y110000D02*
D03*
X355000Y355000D02*
D03*
X325000Y325000D02*
D03*
X330000Y280000D02*
D03*
X295000D02*
D03*
X395000Y305000D02*
D03*
X360000Y270000D02*
D03*
X324865Y251756D02*
D03*
X590000Y465000D02*
D03*
X640000Y365000D02*
D03*
X674174Y393773D02*
D03*
X675000Y365000D02*
D03*
X435000Y345000D02*
D03*
X483000Y426000D02*
D03*
X431000D02*
D03*
X482804Y449207D02*
D03*
X405832Y475967D02*
D03*
X330000Y475000D02*
D03*
X475000D02*
D03*
X430000Y449000D02*
D03*
X352000Y419000D02*
D03*
X345000Y390000D02*
D03*
X176000Y405000D02*
D03*
X113160Y287220D02*
D03*
X140000Y315000D02*
D03*
X115000Y350000D02*
D03*
X140000Y365000D02*
D03*
X90000Y405000D02*
D03*
X110000Y435000D02*
D03*
X25000Y365000D02*
D03*
X75000Y330000D02*
D03*
X25000D02*
D03*
X590000Y305000D02*
D03*
X595000Y195000D02*
D03*
X580000Y220000D02*
D03*
X570000Y255000D02*
D03*
X545000Y245000D02*
D03*
X507023Y283864D02*
D03*
X490000Y225000D02*
D03*
X465000Y215000D02*
D03*
X517770Y339972D02*
D03*
X275000Y53000D02*
D03*
X265000Y35000D02*
D03*
Y70000D02*
D03*
X390000Y40000D02*
D03*
X482000D02*
D03*
X630000Y215000D02*
D03*
X632000Y165000D02*
D03*
X620000Y126000D02*
D03*
X575000Y81000D02*
D03*
X530000Y40000D02*
D03*
X509000Y115000D02*
D03*
X457000Y121000D02*
D03*
X443000D02*
D03*
X550000Y145000D02*
D03*
X568000Y162000D02*
D03*
X635000Y288000D02*
D03*
X572000Y340000D02*
D03*
X464000D02*
D03*
X434000Y310000D02*
D03*
X400000Y276000D02*
D03*
X371000Y247000D02*
D03*
X398000D02*
D03*
X392000Y219000D02*
D03*
X315000Y175000D02*
D03*
X304517Y204614D02*
D03*
X360000Y209000D02*
D03*
X389600Y187521D02*
D03*
X378000Y192000D02*
D03*
X351000Y157000D02*
D03*
X335000Y141000D02*
D03*
X365000Y165000D02*
D03*
Y138000D02*
D03*
Y125000D02*
D03*
X352000D02*
D03*
X337000D02*
D03*
X319000D02*
D03*
X225000Y52500D02*
D03*
X487500Y282500D02*
D03*
X208000Y320000D02*
D03*
X198000Y269000D02*
D03*
X205000Y287000D02*
D03*
X204000Y255000D02*
D03*
X185000D02*
D03*
X277000Y474000D02*
D03*
X269000Y400000D02*
D03*
X200000Y392000D02*
D03*
X272000Y320000D02*
D03*
X280000Y342000D02*
D03*
X212000Y141000D02*
D03*
Y160000D02*
D03*
X330000Y157000D02*
D03*
X345000Y172000D02*
D03*
X315000Y142000D02*
D03*
X163000Y249000D02*
D03*
Y297000D02*
D03*
X135000Y249000D02*
D03*
Y297000D02*
D03*
X321000Y40000D02*
D03*
X404000Y166000D02*
D03*
X530000Y181000D02*
D03*
X543000Y399000D02*
D03*
X575000Y460000D02*
D03*
Y420000D02*
D03*
Y380000D02*
D03*
X339000Y300000D02*
D03*
X374000Y423000D02*
D03*
X372000Y328000D02*
D03*
X543000Y438000D02*
D03*
X525000Y443000D02*
D03*
X165000Y406000D02*
D03*
X237000Y197000D02*
D03*
X226000Y240000D02*
D03*
X267000Y278000D02*
D03*
X310000Y240000D02*
D03*
X262500Y220000D02*
D03*
X254000Y230000D02*
D03*
X300000D02*
D03*
X283000Y220000D02*
D03*
X267000Y254000D02*
D03*
X195000Y305000D02*
D03*
X151000Y377000D02*
D03*
X163254Y359001D02*
D03*
X288000Y105000D02*
D03*
X253000Y167000D02*
D03*
Y116000D02*
D03*
Y133000D02*
D03*
X298000Y111000D02*
D03*
X315000Y356000D02*
D03*
X64000Y368000D02*
D03*
X100000Y375000D02*
D03*
X507000Y270000D02*
D03*
X470000Y282500D02*
D03*
X369000Y52000D02*
D03*
X340000Y40000D02*
D03*
X312500Y90000D02*
D03*
X327500D02*
D03*
X347500D02*
D03*
X425000Y81000D02*
D03*
X397500Y72500D02*
D03*
X400000Y122500D02*
D03*
Y142500D02*
D03*
X415000Y226000D02*
D03*
X468750Y244000D02*
D03*
Y234000D02*
D03*
X493000Y214000D02*
D03*
X290000Y305000D02*
D03*
X115000Y395000D02*
D03*
X165000Y387500D02*
D03*
X58000Y113000D02*
D03*
X25000Y105000D02*
D03*
X81000Y100000D02*
D03*
X96000Y95000D02*
D03*
X115000D02*
D03*
X79000Y114000D02*
D03*
D44*
X420000Y364000D02*
D03*
Y386000D02*
D03*
X550000Y159000D02*
D03*
Y181000D02*
D03*
X620000Y381000D02*
D03*
Y359000D02*
D03*
X592000Y381000D02*
D03*
Y359000D02*
D03*
X557000D02*
D03*
Y381000D02*
D03*
X180000Y269000D02*
D03*
Y291000D02*
D03*
X222500Y276000D02*
D03*
Y254000D02*
D03*
X335000Y361000D02*
D03*
Y339000D02*
D03*
X375000Y363500D02*
D03*
Y341500D02*
D03*
Y386500D02*
D03*
Y408500D02*
D03*
X178000Y419000D02*
D03*
Y441000D02*
D03*
X150000Y419000D02*
D03*
Y441000D02*
D03*
X95000Y339000D02*
D03*
Y361000D02*
D03*
X135000Y284000D02*
D03*
Y262000D02*
D03*
Y236000D02*
D03*
Y214000D02*
D03*
X270000Y116000D02*
D03*
Y138000D02*
D03*
X312500Y54000D02*
D03*
Y76000D02*
D03*
X340000Y54000D02*
D03*
Y76000D02*
D03*
X369000Y66000D02*
D03*
Y88000D02*
D03*
X425000Y117000D02*
D03*
Y95000D02*
D03*
X397500Y86500D02*
D03*
Y108500D02*
D03*
X285000Y69000D02*
D03*
Y91000D02*
D03*
X235000Y138500D02*
D03*
Y116500D02*
D03*
X190000Y139000D02*
D03*
Y161000D02*
D03*
X235000Y161500D02*
D03*
Y183500D02*
D03*
X645000Y251000D02*
D03*
Y229000D02*
D03*
X95000Y178000D02*
D03*
Y200000D02*
D03*
X70000Y134000D02*
D03*
Y156000D02*
D03*
X95000Y294000D02*
D03*
Y316000D02*
D03*
D45*
X367500Y193000D02*
D03*
X362500D02*
D03*
X357500D02*
D03*
X352500D02*
D03*
X347500D02*
D03*
X342500D02*
D03*
X337500D02*
D03*
X332500D02*
D03*
X327500D02*
D03*
X322500D02*
D03*
X317500D02*
D03*
X312500D02*
D03*
Y107000D02*
D03*
X317500D02*
D03*
X322500D02*
D03*
X327500D02*
D03*
X332500D02*
D03*
X337500D02*
D03*
X342500D02*
D03*
X347500D02*
D03*
X352500D02*
D03*
X357500D02*
D03*
X362500D02*
D03*
X367500D02*
D03*
D46*
X383000Y122500D02*
D03*
Y127500D02*
D03*
Y132500D02*
D03*
Y137500D02*
D03*
Y142500D02*
D03*
Y147500D02*
D03*
Y152500D02*
D03*
Y157500D02*
D03*
Y162500D02*
D03*
Y167500D02*
D03*
Y172500D02*
D03*
Y177500D02*
D03*
X297000D02*
D03*
Y172500D02*
D03*
Y167500D02*
D03*
Y162500D02*
D03*
Y157500D02*
D03*
Y152500D02*
D03*
Y147500D02*
D03*
Y142500D02*
D03*
Y137500D02*
D03*
Y132500D02*
D03*
Y127500D02*
D03*
Y122500D02*
D03*
D47*
X298000Y332500D02*
D03*
Y337500D02*
D03*
Y322500D02*
D03*
Y327500D02*
D03*
Y352500D02*
D03*
Y342500D02*
D03*
Y347500D02*
D03*
Y357500D02*
D03*
Y372500D02*
D03*
Y362500D02*
D03*
Y367500D02*
D03*
Y377500D02*
D03*
Y392500D02*
D03*
Y397500D02*
D03*
Y382500D02*
D03*
Y387500D02*
D03*
X182000Y322500D02*
D03*
Y327500D02*
D03*
Y332500D02*
D03*
Y337500D02*
D03*
Y342500D02*
D03*
Y347500D02*
D03*
Y357500D02*
D03*
Y352500D02*
D03*
Y372500D02*
D03*
Y362500D02*
D03*
Y367500D02*
D03*
Y387500D02*
D03*
Y392500D02*
D03*
Y377500D02*
D03*
Y382500D02*
D03*
Y397500D02*
D03*
D48*
X272500Y302000D02*
D03*
X277500D02*
D03*
X267500D02*
D03*
X252500D02*
D03*
X257500D02*
D03*
X242500D02*
D03*
X247500D02*
D03*
X262500D02*
D03*
X277500Y418000D02*
D03*
X267500D02*
D03*
X272500D02*
D03*
X252500D02*
D03*
X257500D02*
D03*
X242500D02*
D03*
X247500D02*
D03*
X262500D02*
D03*
X237500Y302000D02*
D03*
X232500D02*
D03*
X217500D02*
D03*
X222500D02*
D03*
X207500D02*
D03*
X212500D02*
D03*
X227500D02*
D03*
X202500D02*
D03*
X237500Y418000D02*
D03*
X227500D02*
D03*
X232500D02*
D03*
X217500D02*
D03*
X222500D02*
D03*
X207500D02*
D03*
X212500D02*
D03*
X202500D02*
D03*
D49*
X113000Y255500D02*
D03*
Y274500D02*
D03*
X87000Y265000D02*
D03*
X113000Y220500D02*
D03*
Y239500D02*
D03*
X87000Y230000D02*
D03*
D50*
X100000Y158000D02*
D03*
Y135000D02*
D03*
Y112000D02*
D03*
D51*
X160000Y135000D02*
D03*
D52*
X40000Y162780D02*
D03*
Y127220D02*
D03*
M02*
