G04 Layer_Color=16711935*
%FSLAX25Y25*%
%MOIN*%
G70*
G01*
G75*
%ADD56R,0.07087X0.07087*%
%ADD57C,0.07087*%
%ADD63C,0.09842*%
%ADD91C,0.09449*%
%ADD92R,0.07087X0.07087*%
%ADD93R,0.08661X0.08661*%
%ADD94C,0.08661*%
%ADD95C,0.10236*%
%ADD96R,0.10236X0.10236*%
%ADD97C,0.14961*%
%ADD98R,0.09842X0.09842*%
%ADD99C,0.11417*%
%ADD100C,0.07874*%
%ADD101C,0.07480*%
%ADD102C,0.14370*%
%ADD103C,0.01575*%
%ADD104C,0.00063*%
%ADD105R,0.04331X0.06299*%
D56*
X468504Y113189D02*
D03*
X594488D02*
D03*
X681102D02*
D03*
X1098425D02*
D03*
X82677Y164370D02*
D03*
X114173D02*
D03*
X468504Y300197D02*
D03*
X594488D02*
D03*
X618110D02*
D03*
X744095D02*
D03*
X303150D02*
D03*
X807087D02*
D03*
X153543Y113189D02*
D03*
X61221Y259055D02*
D03*
X279528Y113189D02*
D03*
X240158D02*
D03*
X216535D02*
D03*
X342520D02*
D03*
X366142D02*
D03*
X303150D02*
D03*
X492126D02*
D03*
X429134D02*
D03*
X618110D02*
D03*
X555118D02*
D03*
X720472D02*
D03*
X744095D02*
D03*
X846457D02*
D03*
X807087D02*
D03*
X972441D02*
D03*
X933071D02*
D03*
X909449D02*
D03*
X1059055D02*
D03*
X1035433D02*
D03*
X153543Y300197D02*
D03*
X216535D02*
D03*
X240158D02*
D03*
X279528D02*
D03*
X342520D02*
D03*
X366142D02*
D03*
X429134D02*
D03*
X492126D02*
D03*
X555118D02*
D03*
X681102D02*
D03*
X720472D02*
D03*
X846457D02*
D03*
X909449D02*
D03*
X933071D02*
D03*
X972441D02*
D03*
X1035433D02*
D03*
X1059055D02*
D03*
X1098425D02*
D03*
X177165D02*
D03*
X783465D02*
D03*
X870079D02*
D03*
X996063D02*
D03*
X1122047D02*
D03*
X177165Y113189D02*
D03*
X405512D02*
D03*
X870079D02*
D03*
X657480D02*
D03*
X783465D02*
D03*
X531496D02*
D03*
X1122047D02*
D03*
X996063D02*
D03*
X405512Y300197D02*
D03*
X531496D02*
D03*
X657480D02*
D03*
X468504Y428150D02*
D03*
X594488D02*
D03*
X681102D02*
D03*
X1098425D02*
D03*
X82677Y479331D02*
D03*
X114173D02*
D03*
X468504Y615158D02*
D03*
X594488D02*
D03*
X618110D02*
D03*
X744095D02*
D03*
X303150D02*
D03*
X807087D02*
D03*
X153543Y428150D02*
D03*
X61221Y574016D02*
D03*
X279528Y428150D02*
D03*
X240158D02*
D03*
X216535D02*
D03*
X342520D02*
D03*
X366142D02*
D03*
X303150D02*
D03*
X492126D02*
D03*
X429134D02*
D03*
X618110D02*
D03*
X555118D02*
D03*
X720472D02*
D03*
X744095D02*
D03*
X846457D02*
D03*
X807087D02*
D03*
X972441D02*
D03*
X933071D02*
D03*
X909449D02*
D03*
X1059055D02*
D03*
X1035433D02*
D03*
X153543Y615158D02*
D03*
X216535D02*
D03*
X240158D02*
D03*
X279528D02*
D03*
X342520D02*
D03*
X366142D02*
D03*
X429134D02*
D03*
X492126D02*
D03*
X555118D02*
D03*
X681102D02*
D03*
X720472D02*
D03*
X846457D02*
D03*
X909449D02*
D03*
X933071D02*
D03*
X972441D02*
D03*
X1035433D02*
D03*
X1059055D02*
D03*
X1098425D02*
D03*
X177165D02*
D03*
X783465D02*
D03*
X870079D02*
D03*
X996063D02*
D03*
X1122047D02*
D03*
X177165Y428150D02*
D03*
X405512D02*
D03*
X870079D02*
D03*
X657480D02*
D03*
X783465D02*
D03*
X531496D02*
D03*
X1122047D02*
D03*
X996063D02*
D03*
X405512Y615158D02*
D03*
X531496D02*
D03*
X657480D02*
D03*
X468504Y743110D02*
D03*
X594488D02*
D03*
X681102D02*
D03*
X1098425D02*
D03*
X82677Y794291D02*
D03*
X114173D02*
D03*
X468504Y930118D02*
D03*
X594488D02*
D03*
X618110D02*
D03*
X744095D02*
D03*
X303150D02*
D03*
X807087D02*
D03*
X153543Y743110D02*
D03*
X61221Y888976D02*
D03*
X279528Y743110D02*
D03*
X240158D02*
D03*
X216535D02*
D03*
X342520D02*
D03*
X366142D02*
D03*
X303150D02*
D03*
X492126D02*
D03*
X429134D02*
D03*
X618110D02*
D03*
X555118D02*
D03*
X720472D02*
D03*
X744095D02*
D03*
X846457D02*
D03*
X807087D02*
D03*
X972441D02*
D03*
X933071D02*
D03*
X909449D02*
D03*
X1059055D02*
D03*
X1035433D02*
D03*
X153543Y930118D02*
D03*
X216535D02*
D03*
X240158D02*
D03*
X279528D02*
D03*
X342520D02*
D03*
X366142D02*
D03*
X429134D02*
D03*
X492126D02*
D03*
X555118D02*
D03*
X681102D02*
D03*
X720472D02*
D03*
X846457D02*
D03*
X909449D02*
D03*
X933071D02*
D03*
X972441D02*
D03*
X1035433D02*
D03*
X1059055D02*
D03*
X1098425D02*
D03*
X177165D02*
D03*
X783465D02*
D03*
X870079D02*
D03*
X996063D02*
D03*
X1122047D02*
D03*
X177165Y743110D02*
D03*
X405512D02*
D03*
X870079D02*
D03*
X657480D02*
D03*
X783465D02*
D03*
X531496D02*
D03*
X1122047D02*
D03*
X996063D02*
D03*
X405512Y930118D02*
D03*
X531496D02*
D03*
X657480D02*
D03*
D57*
X169095Y33858D02*
D03*
X169291Y93898D02*
D03*
X468504Y123031D02*
D03*
X594488D02*
D03*
X681102D02*
D03*
X1098425D02*
D03*
X82677Y174213D02*
D03*
X114173D02*
D03*
X468504Y290354D02*
D03*
X594488D02*
D03*
X618110D02*
D03*
X744095D02*
D03*
X303150D02*
D03*
X807087D02*
D03*
X153543Y123031D02*
D03*
X71063Y259055D02*
D03*
X268701Y82874D02*
D03*
X279528Y123031D02*
D03*
X240158D02*
D03*
X216535D02*
D03*
X342520D02*
D03*
X366142D02*
D03*
X303150D02*
D03*
X492126D02*
D03*
X429134D02*
D03*
X618110D02*
D03*
X555118D02*
D03*
X720472D02*
D03*
X744095D02*
D03*
X846457D02*
D03*
X807087D02*
D03*
X972441D02*
D03*
X933071D02*
D03*
X909449D02*
D03*
X1059055D02*
D03*
X1035433D02*
D03*
X1157480Y253937D02*
D03*
Y234252D02*
D03*
X1220472Y253937D02*
D03*
Y234252D02*
D03*
X153543Y290354D02*
D03*
X216535D02*
D03*
X240158D02*
D03*
X279528D02*
D03*
X342520D02*
D03*
X366142D02*
D03*
X429134D02*
D03*
X492126D02*
D03*
X555118D02*
D03*
X681102D02*
D03*
X720472D02*
D03*
X846457D02*
D03*
X909449D02*
D03*
X933071D02*
D03*
X972441D02*
D03*
X1035433D02*
D03*
X1059055D02*
D03*
X1098425D02*
D03*
X1200630Y145669D02*
D03*
X1190630D02*
D03*
Y175669D02*
D03*
X1200630D02*
D03*
X1180630Y145669D02*
D03*
X1210630Y175669D02*
D03*
X1180630D02*
D03*
X177165Y290354D02*
D03*
X783465D02*
D03*
X870079D02*
D03*
X996063D02*
D03*
X1122047D02*
D03*
X177165Y123031D02*
D03*
X405512D02*
D03*
X870079D02*
D03*
X657480D02*
D03*
X783465D02*
D03*
X531496D02*
D03*
X1122047D02*
D03*
X996063D02*
D03*
X405512Y290354D02*
D03*
X89173Y93898D02*
D03*
X99173D02*
D03*
Y33898D02*
D03*
X89173D02*
D03*
X159173Y93898D02*
D03*
Y33898D02*
D03*
X179173Y93898D02*
D03*
Y33898D02*
D03*
X531496Y290354D02*
D03*
X657480D02*
D03*
X169095Y348819D02*
D03*
X169291Y408858D02*
D03*
X468504Y437992D02*
D03*
X594488D02*
D03*
X681102D02*
D03*
X1098425D02*
D03*
X82677Y489173D02*
D03*
X114173D02*
D03*
X468504Y605315D02*
D03*
X594488D02*
D03*
X618110D02*
D03*
X744095D02*
D03*
X303150D02*
D03*
X807087D02*
D03*
X153543Y437992D02*
D03*
X71063Y574016D02*
D03*
X268701Y397835D02*
D03*
X279528Y437992D02*
D03*
X240158D02*
D03*
X216535D02*
D03*
X342520D02*
D03*
X366142D02*
D03*
X303150D02*
D03*
X492126D02*
D03*
X429134D02*
D03*
X618110D02*
D03*
X555118D02*
D03*
X720472D02*
D03*
X744095D02*
D03*
X846457D02*
D03*
X807087D02*
D03*
X972441D02*
D03*
X933071D02*
D03*
X909449D02*
D03*
X1059055D02*
D03*
X1035433D02*
D03*
X1157480Y568898D02*
D03*
Y549213D02*
D03*
X1220472Y568898D02*
D03*
Y549213D02*
D03*
X153543Y605315D02*
D03*
X216535D02*
D03*
X240158D02*
D03*
X279528D02*
D03*
X342520D02*
D03*
X366142D02*
D03*
X429134D02*
D03*
X492126D02*
D03*
X555118D02*
D03*
X681102D02*
D03*
X720472D02*
D03*
X846457D02*
D03*
X909449D02*
D03*
X933071D02*
D03*
X972441D02*
D03*
X1035433D02*
D03*
X1059055D02*
D03*
X1098425D02*
D03*
X1200630Y460630D02*
D03*
X1190630D02*
D03*
Y490630D02*
D03*
X1200630D02*
D03*
X1180630Y460630D02*
D03*
X1210630Y490630D02*
D03*
X1180630D02*
D03*
X177165Y605315D02*
D03*
X783465D02*
D03*
X870079D02*
D03*
X996063D02*
D03*
X1122047D02*
D03*
X177165Y437992D02*
D03*
X405512D02*
D03*
X870079D02*
D03*
X657480D02*
D03*
X783465D02*
D03*
X531496D02*
D03*
X1122047D02*
D03*
X996063D02*
D03*
X405512Y605315D02*
D03*
X89173Y408858D02*
D03*
X99173D02*
D03*
Y348858D02*
D03*
X89173D02*
D03*
X159173Y408858D02*
D03*
Y348858D02*
D03*
X179173Y408858D02*
D03*
Y348858D02*
D03*
X531496Y605315D02*
D03*
X657480D02*
D03*
X169095Y663779D02*
D03*
X169291Y723819D02*
D03*
X468504Y752953D02*
D03*
X594488D02*
D03*
X681102D02*
D03*
X1098425D02*
D03*
X82677Y804134D02*
D03*
X114173D02*
D03*
X468504Y920276D02*
D03*
X594488D02*
D03*
X618110D02*
D03*
X744095D02*
D03*
X303150D02*
D03*
X807087D02*
D03*
X153543Y752953D02*
D03*
X71063Y888976D02*
D03*
X268701Y712795D02*
D03*
X279528Y752953D02*
D03*
X240158D02*
D03*
X216535D02*
D03*
X342520D02*
D03*
X366142D02*
D03*
X303150D02*
D03*
X492126D02*
D03*
X429134D02*
D03*
X618110D02*
D03*
X555118D02*
D03*
X720472D02*
D03*
X744095D02*
D03*
X846457D02*
D03*
X807087D02*
D03*
X972441D02*
D03*
X933071D02*
D03*
X909449D02*
D03*
X1059055D02*
D03*
X1035433D02*
D03*
X1157480Y883858D02*
D03*
Y864173D02*
D03*
X1220472Y883858D02*
D03*
Y864173D02*
D03*
X153543Y920276D02*
D03*
X216535D02*
D03*
X240158D02*
D03*
X279528D02*
D03*
X342520D02*
D03*
X366142D02*
D03*
X429134D02*
D03*
X492126D02*
D03*
X555118D02*
D03*
X681102D02*
D03*
X720472D02*
D03*
X846457D02*
D03*
X909449D02*
D03*
X933071D02*
D03*
X972441D02*
D03*
X1035433D02*
D03*
X1059055D02*
D03*
X1098425D02*
D03*
X1200630Y775591D02*
D03*
X1190630D02*
D03*
Y805591D02*
D03*
X1200630D02*
D03*
X1180630Y775591D02*
D03*
X1210630Y805591D02*
D03*
X1180630D02*
D03*
X177165Y920276D02*
D03*
X783465D02*
D03*
X870079D02*
D03*
X996063D02*
D03*
X1122047D02*
D03*
X177165Y752953D02*
D03*
X405512D02*
D03*
X870079D02*
D03*
X657480D02*
D03*
X783465D02*
D03*
X531496D02*
D03*
X1122047D02*
D03*
X996063D02*
D03*
X405512Y920276D02*
D03*
X89173Y723819D02*
D03*
X99173D02*
D03*
Y663819D02*
D03*
X89173D02*
D03*
X159173Y723819D02*
D03*
Y663819D02*
D03*
X179173Y723819D02*
D03*
Y663819D02*
D03*
X531496Y920276D02*
D03*
X657480D02*
D03*
D63*
X108465Y233465D02*
D03*
Y548425D02*
D03*
Y863386D02*
D03*
D91*
X123031Y117126D02*
D03*
X105315D02*
D03*
X123031Y142717D02*
D03*
X105315D02*
D03*
X91535Y117126D02*
D03*
X73819D02*
D03*
X91535Y142717D02*
D03*
X73819D02*
D03*
X197835Y325787D02*
D03*
X180118D02*
D03*
X123031Y432087D02*
D03*
X105315D02*
D03*
X123031Y457677D02*
D03*
X105315D02*
D03*
X91535Y432087D02*
D03*
X73819D02*
D03*
X91535Y457677D02*
D03*
X73819D02*
D03*
X197835Y640748D02*
D03*
X180118D02*
D03*
X123031Y747047D02*
D03*
X105315D02*
D03*
X123031Y772638D02*
D03*
X105315D02*
D03*
X91535Y747047D02*
D03*
X73819D02*
D03*
X91535Y772638D02*
D03*
X73819D02*
D03*
X197835Y955709D02*
D03*
X180118D02*
D03*
D92*
X268701Y90748D02*
D03*
X1210630Y145669D02*
D03*
X268701Y405709D02*
D03*
X1210630Y460630D02*
D03*
X268701Y720669D02*
D03*
X1210630Y775591D02*
D03*
D93*
X1089035Y157535D02*
D03*
X167323Y216535D02*
D03*
X1137795Y309055D02*
D03*
Y279055D02*
D03*
X1089035Y472496D02*
D03*
X167323Y531496D02*
D03*
X1137795Y624016D02*
D03*
Y594016D02*
D03*
X1089035Y787457D02*
D03*
X167323Y846457D02*
D03*
X1137795Y938976D02*
D03*
Y908976D02*
D03*
D94*
X1099035Y157535D02*
D03*
X157323Y226535D02*
D03*
X147323D02*
D03*
X157323Y216535D02*
D03*
X147323D02*
D03*
X167323Y226535D02*
D03*
X137323D02*
D03*
Y216535D02*
D03*
X291748Y40728D02*
D03*
X301748D02*
D03*
Y50728D02*
D03*
X321748Y40728D02*
D03*
X331748D02*
D03*
X321748Y50728D02*
D03*
X331748D02*
D03*
X351748Y40728D02*
D03*
X361748D02*
D03*
X351748Y50728D02*
D03*
X361748D02*
D03*
X381748Y40728D02*
D03*
X391748D02*
D03*
X381748Y50728D02*
D03*
X391748D02*
D03*
X411748Y40728D02*
D03*
Y50728D02*
D03*
X311748Y40728D02*
D03*
X341748D02*
D03*
X371748D02*
D03*
X401748D02*
D03*
X311748Y50728D02*
D03*
X341748D02*
D03*
X371748D02*
D03*
X401748D02*
D03*
X1157795Y309055D02*
D03*
Y279055D02*
D03*
X1177795Y309055D02*
D03*
Y279055D02*
D03*
X1099035Y472496D02*
D03*
X157323Y541496D02*
D03*
X147323D02*
D03*
X157323Y531496D02*
D03*
X147323D02*
D03*
X167323Y541496D02*
D03*
X137323D02*
D03*
Y531496D02*
D03*
X291748Y355689D02*
D03*
X301748D02*
D03*
Y365689D02*
D03*
X321748Y355689D02*
D03*
X331748D02*
D03*
X321748Y365689D02*
D03*
X331748D02*
D03*
X351748Y355689D02*
D03*
X361748D02*
D03*
X351748Y365689D02*
D03*
X361748D02*
D03*
X381748Y355689D02*
D03*
X391748D02*
D03*
X381748Y365689D02*
D03*
X391748D02*
D03*
X411748Y355689D02*
D03*
Y365689D02*
D03*
X311748Y355689D02*
D03*
X341748D02*
D03*
X371748D02*
D03*
X401748D02*
D03*
X311748Y365689D02*
D03*
X341748D02*
D03*
X371748D02*
D03*
X401748D02*
D03*
X1157795Y624016D02*
D03*
Y594016D02*
D03*
X1177795Y624016D02*
D03*
Y594016D02*
D03*
X1099035Y787457D02*
D03*
X157323Y856457D02*
D03*
X147323D02*
D03*
X157323Y846457D02*
D03*
X147323D02*
D03*
X167323Y856457D02*
D03*
X137323D02*
D03*
Y846457D02*
D03*
X291748Y670650D02*
D03*
X301748D02*
D03*
Y680650D02*
D03*
X321748Y670650D02*
D03*
X331748D02*
D03*
X321748Y680650D02*
D03*
X331748D02*
D03*
X351748Y670650D02*
D03*
X361748D02*
D03*
X351748Y680650D02*
D03*
X361748D02*
D03*
X381748Y670650D02*
D03*
X391748D02*
D03*
X381748Y680650D02*
D03*
X391748D02*
D03*
X411748Y670650D02*
D03*
Y680650D02*
D03*
X311748Y670650D02*
D03*
X341748D02*
D03*
X371748D02*
D03*
X401748D02*
D03*
X311748Y680650D02*
D03*
X341748D02*
D03*
X371748D02*
D03*
X401748D02*
D03*
X1157795Y938976D02*
D03*
Y908976D02*
D03*
X1177795Y938976D02*
D03*
Y908976D02*
D03*
D95*
X82480Y312480D02*
D03*
X102480D02*
D03*
Y282480D02*
D03*
X122480Y312480D02*
D03*
Y282480D02*
D03*
X242717Y35551D02*
D03*
X222716D02*
D03*
Y65551D02*
D03*
X314803Y269843D02*
D03*
X304803D02*
D03*
X284803D02*
D03*
X314803Y259842D02*
D03*
X304803D02*
D03*
X284803D02*
D03*
X324803Y269843D02*
D03*
X294803D02*
D03*
Y259842D02*
D03*
X194724Y269843D02*
D03*
X184724D02*
D03*
X164724D02*
D03*
X194724Y259842D02*
D03*
X184724D02*
D03*
X164724D02*
D03*
X204724Y269843D02*
D03*
X174724D02*
D03*
Y259842D02*
D03*
X82480Y627441D02*
D03*
X102480D02*
D03*
Y597441D02*
D03*
X122480Y627441D02*
D03*
Y597441D02*
D03*
X242717Y350512D02*
D03*
X222716D02*
D03*
Y380512D02*
D03*
X314803Y584803D02*
D03*
X304803D02*
D03*
X284803D02*
D03*
X314803Y574803D02*
D03*
X304803D02*
D03*
X284803D02*
D03*
X324803Y584803D02*
D03*
X294803D02*
D03*
Y574803D02*
D03*
X194724Y584803D02*
D03*
X184724D02*
D03*
X164724D02*
D03*
X194724Y574803D02*
D03*
X184724D02*
D03*
X164724D02*
D03*
X204724Y584803D02*
D03*
X174724D02*
D03*
Y574803D02*
D03*
X82480Y942402D02*
D03*
X102480D02*
D03*
Y912402D02*
D03*
X122480Y942402D02*
D03*
Y912402D02*
D03*
X242717Y665472D02*
D03*
X222716D02*
D03*
Y695472D02*
D03*
X314803Y899764D02*
D03*
X304803D02*
D03*
X284803D02*
D03*
X314803Y889764D02*
D03*
X304803D02*
D03*
X284803D02*
D03*
X324803Y899764D02*
D03*
X294803D02*
D03*
Y889764D02*
D03*
X194724Y899764D02*
D03*
X184724D02*
D03*
X164724D02*
D03*
X194724Y889764D02*
D03*
X184724D02*
D03*
X164724D02*
D03*
X204724Y899764D02*
D03*
X174724D02*
D03*
Y889764D02*
D03*
D96*
X82480Y282480D02*
D03*
X242717Y65551D02*
D03*
X324803Y259842D02*
D03*
X204724D02*
D03*
X291748Y50728D02*
D03*
X82480Y597441D02*
D03*
X242717Y380512D02*
D03*
X324803Y574803D02*
D03*
X204724D02*
D03*
X291748Y365689D02*
D03*
X82480Y912402D02*
D03*
X242717Y695472D02*
D03*
X324803Y889764D02*
D03*
X204724D02*
D03*
X291748Y680650D02*
D03*
D97*
X452756Y314961D02*
D03*
Y39370D02*
D03*
X826772Y314961D02*
D03*
Y39370D02*
D03*
X1220472D02*
D03*
Y314961D02*
D03*
X39370Y39370D02*
D03*
Y314961D02*
D03*
X452756Y629921D02*
D03*
Y354331D02*
D03*
X826772Y629921D02*
D03*
Y354331D02*
D03*
X1220472D02*
D03*
Y629921D02*
D03*
X39370Y354331D02*
D03*
Y629921D02*
D03*
X452756Y944882D02*
D03*
Y669291D02*
D03*
X826772Y944882D02*
D03*
Y669291D02*
D03*
X1220472D02*
D03*
Y944882D02*
D03*
X39370Y669291D02*
D03*
Y944882D02*
D03*
D98*
X29724Y233465D02*
D03*
Y548425D02*
D03*
Y863386D02*
D03*
D99*
X175197Y315945D02*
D03*
X202756D02*
D03*
X1177685Y126130D02*
D03*
Y62941D02*
D03*
X175197Y630905D02*
D03*
X202756D02*
D03*
X1177685Y441090D02*
D03*
Y377902D02*
D03*
X175197Y945866D02*
D03*
X202756D02*
D03*
X1177685Y756051D02*
D03*
Y692862D02*
D03*
D100*
X1089905Y213035D02*
D03*
X1050535D02*
D03*
X1089905Y527996D02*
D03*
X1050535D02*
D03*
X1089905Y842957D02*
D03*
X1050535D02*
D03*
D101*
X1199535Y82035D02*
D03*
Y102035D02*
D03*
Y112035D02*
D03*
Y92035D02*
D03*
X1189535Y77035D02*
D03*
Y97035D02*
D03*
Y107035D02*
D03*
Y87035D02*
D03*
X1199535Y396996D02*
D03*
Y416996D02*
D03*
Y426996D02*
D03*
Y406996D02*
D03*
X1189535Y391996D02*
D03*
Y411996D02*
D03*
Y421996D02*
D03*
Y401996D02*
D03*
X1199535Y711957D02*
D03*
Y731957D02*
D03*
Y741957D02*
D03*
Y721957D02*
D03*
X1189535Y706957D02*
D03*
Y726957D02*
D03*
Y736957D02*
D03*
Y716957D02*
D03*
D102*
X1224535Y118748D02*
D03*
Y70323D02*
D03*
Y433709D02*
D03*
Y385283D02*
D03*
Y748669D02*
D03*
Y700244D02*
D03*
D103*
X191929Y134843D02*
D03*
X531496D02*
D03*
X856299D02*
D03*
X925197D02*
D03*
X275394D02*
D03*
X693748Y134728D02*
D03*
X787402Y134843D02*
D03*
X319291Y135039D02*
D03*
X386614Y133071D02*
D03*
X433071Y134646D02*
D03*
X992126Y135039D02*
D03*
X191929Y449803D02*
D03*
X531496D02*
D03*
X856299D02*
D03*
X925197D02*
D03*
X275394D02*
D03*
X693748Y449689D02*
D03*
X787402Y449803D02*
D03*
X319291Y450000D02*
D03*
X386614Y448032D02*
D03*
X433071Y449606D02*
D03*
X992126Y450000D02*
D03*
X191929Y764764D02*
D03*
X531496D02*
D03*
X856299D02*
D03*
X925197D02*
D03*
X275394D02*
D03*
X693748Y764650D02*
D03*
X787402Y764764D02*
D03*
X319291Y764961D02*
D03*
X386614Y762992D02*
D03*
X433071Y764567D02*
D03*
X992126Y764961D02*
D03*
D104*
X1082535Y108535D02*
D03*
X1090035Y116035D02*
D03*
X1127535Y241535D02*
D03*
X1161035Y87035D02*
D03*
X1150535Y90535D02*
D03*
X1093035Y188035D02*
D03*
X1141035Y158535D02*
D03*
X1083535Y143535D02*
D03*
X1174535Y77535D02*
D03*
X1148035Y166535D02*
D03*
X1115354Y150787D02*
D03*
X1218504Y108268D02*
D03*
X1082535Y423496D02*
D03*
X1090035Y430996D02*
D03*
X1127535Y556496D02*
D03*
X1161035Y401996D02*
D03*
X1150535Y405496D02*
D03*
X1093035Y502996D02*
D03*
X1141035Y473496D02*
D03*
X1083535Y458496D02*
D03*
X1174535Y392496D02*
D03*
X1148035Y481496D02*
D03*
X1115354Y465748D02*
D03*
X1218504Y423228D02*
D03*
X1082535Y738457D02*
D03*
X1090035Y745957D02*
D03*
X1127535Y871457D02*
D03*
X1161035Y716957D02*
D03*
X1150535Y720457D02*
D03*
X1093035Y817957D02*
D03*
X1141035Y788457D02*
D03*
X1083535Y773457D02*
D03*
X1174535Y707457D02*
D03*
X1148035Y796457D02*
D03*
X1115354Y780709D02*
D03*
X1218504Y738189D02*
D03*
D105*
X642248Y27941D02*
D03*
X652248D02*
D03*
X662248D02*
D03*
X672248D02*
D03*
X682248D02*
D03*
X692248D02*
D03*
X702248D02*
D03*
X712248D02*
D03*
X642248Y63728D02*
D03*
X652248D02*
D03*
X662248D02*
D03*
X672248D02*
D03*
X682248D02*
D03*
X692248D02*
D03*
X702248D02*
D03*
X712248D02*
D03*
X495248Y26941D02*
D03*
X505248D02*
D03*
X515248D02*
D03*
X525248D02*
D03*
X535248D02*
D03*
X545248D02*
D03*
X555248D02*
D03*
X565248D02*
D03*
X495248Y62728D02*
D03*
X505248D02*
D03*
X515248D02*
D03*
X525248D02*
D03*
X535248D02*
D03*
X545248D02*
D03*
X555248D02*
D03*
X565248D02*
D03*
X642248Y342902D02*
D03*
X652248D02*
D03*
X662248D02*
D03*
X672248D02*
D03*
X682248D02*
D03*
X692248D02*
D03*
X702248D02*
D03*
X712248D02*
D03*
X642248Y378689D02*
D03*
X652248D02*
D03*
X662248D02*
D03*
X672248D02*
D03*
X682248D02*
D03*
X692248D02*
D03*
X702248D02*
D03*
X712248D02*
D03*
X495248Y341902D02*
D03*
X505248D02*
D03*
X515248D02*
D03*
X525248D02*
D03*
X535248D02*
D03*
X545248D02*
D03*
X555248D02*
D03*
X565248D02*
D03*
X495248Y377689D02*
D03*
X505248D02*
D03*
X515248D02*
D03*
X525248D02*
D03*
X535248D02*
D03*
X545248D02*
D03*
X555248D02*
D03*
X565248D02*
D03*
X642248Y657862D02*
D03*
X652248D02*
D03*
X662248D02*
D03*
X672248D02*
D03*
X682248D02*
D03*
X692248D02*
D03*
X702248D02*
D03*
X712248D02*
D03*
X642248Y693650D02*
D03*
X652248D02*
D03*
X662248D02*
D03*
X672248D02*
D03*
X682248D02*
D03*
X692248D02*
D03*
X702248D02*
D03*
X712248D02*
D03*
X495248Y656862D02*
D03*
X505248D02*
D03*
X515248D02*
D03*
X525248D02*
D03*
X535248D02*
D03*
X545248D02*
D03*
X555248D02*
D03*
X565248D02*
D03*
X495248Y692650D02*
D03*
X505248D02*
D03*
X515248D02*
D03*
X525248D02*
D03*
X535248D02*
D03*
X545248D02*
D03*
X555248D02*
D03*
X565248D02*
D03*
M02*
