M48
;Layer_Color=9474304
;FILE_FORMAT=2:5
INCH,LZ
;TYPE=NON_PLATED
T10F00S00C0.12795
T11F00S00C0.13386
%
T10
X1224535Y0070323
Y0118748
Y0385283
Y0433709
Y0700244
Y0748669
T11
X003937Y003937
X0452756
X0826772
X1220472
X003937Y0314961
Y0354331
X0452756
Y0314961
X0826772
Y0354331
X1220472
Y0314961
X003937Y0629921
Y0669291
X0452756
Y0629921
X0826772
Y0669291
X1220472
Y0629921
X003937Y0944882
X0452756
X0826772
X1220472
M30
