M48
;Layer_Color=9474304
;FILE_FORMAT=2:5
INCH,LZ
;TYPE=PLATED
T1F00S00C0.01800
T2F00S00C0.01968
T3F00S00C0.03150
T4F00S00C0.03543
T5F00S00C0.03937
T6F00S00C0.04724
T7F00S00C0.05118
T8F00S00C0.05906
T9F00S00C0.06299
%
T01
X1150535Y0090535
X1161035Y0087035
X1174535Y0077535
X1218504Y0108268
X1141035Y0158535
X1148035Y0166535
X1115354Y0150787
X1083535Y0143535
X1090035Y0116035
X1082535Y0108535
X1093035Y0188035
X1127535Y0241535
X1150535Y0405496
X1161035Y0401996
X1174535Y0392496
X1218504Y0423228
X1141035Y0473496
X1148035Y0481496
X1115354Y0465748
X1083535Y0458496
X1090035Y0430996
X1082535Y0423496
X1093035Y0502996
X1127535Y0556496
X1150535Y0720457
X1161035Y0716957
X1174535Y0707457
X1218504Y0738189
X1141035Y0788457
X1148035Y0796457
X1115354Y0780709
X1083535Y0773457
X1090035Y0745957
X1082535Y0738457
X1093035Y0817957
X1127535Y0871457
T02
X0495248Y0032228
X0505248
X0515248
X0525248
X0535248
X0544748Y0032728
X0555248
X0565248
X0586811Y0055315
X0593248Y0052728
X0646063Y0037402
X0652362Y0036449
X0662362Y0036488
X0672126Y0036449
X0682362Y0036646
X0692362Y0036449
X0702362Y0036488
X0712248Y0036728
X0781496Y0050787
X0971063Y0047047
X1015158Y0051378
X1088583Y0050197
X1082638Y0080709
X1050827Y0095906
X1027913Y0092598
X1021063Y0087992
X1010709Y0097323
X0999213Y0097638
X1001378Y0074803
X1044173Y0061024
X1048622Y0145866
X1030906Y0144291
X1075535Y0143535
X0985394Y0154882
X098063Y0159882
X0985394Y0164882
X098063Y0169882
X0985394Y0174882
X098063Y0179882
X0985394Y0184882
Y0191614
X0989055Y0203937
X0977559
X0960827Y0212402
X0916496Y0191614
Y0184882
X0911732Y0179882
X0916496Y0174882
X0911732Y0169882
X0916496Y0164882
X0911732Y0159882
X0916496Y0154882
X0898661Y0145158
X0902795Y0100118
X0904921Y008248
X0896496Y008437
X0891299Y0088976
X0884921Y0091102
X0867323Y0095669
X0863386Y0103543
X0873228
X0913937Y0084567
X0945984Y0080709
X095748Y0086614
X0964409Y0092165
X0934331Y0104331
X0969449Y014437
X0847598Y0154882
X0842835Y0159882
X0847598Y0164882
X0842835Y0169882
X0847598Y0174882
X0842835Y0179882
X0847598Y0184882
Y0191614
X0888386Y0207677
X0895079Y0203346
X0823189Y0211299
X0778748Y0191228
X0778701Y0184882
X0775748Y0179728
X0778701Y0174882
X0775748Y0169728
X0778701Y0164882
X0775748Y0159728
X0779248Y0154728
X0780248Y0144728
X0771748Y0150228
X0745472Y0161614
X0740748Y0172228
X0729248
Y0177728
Y0166728
Y0157728
X0733248Y0194728
X0736748Y0204728
X0746748Y0206728
X0752748Y0207228
X0751248Y0180228
X0715748Y0204228
X0704748Y0199228
X0690248Y0166728
X0681248Y0155228
X0697748Y0108728
X0714248
X0739748Y0106728
X0746748Y0104228
X0760709Y0106496
X0766142Y0097362
X0772874Y0094528
X077437Y0104095
X0787008Y0087598
X0783748Y0059228
X0763748Y0063228
X0760248Y0058228
X0754748Y0063728
X0731748Y0062728
X0810157Y0106378
X0828583Y0105787
X0828504Y0144567
X0665748Y0150728
X0587248Y0143228
X0578937Y0169882
X0575984Y0179606
X0575787Y0185236
X0578504Y0198307
X0591142Y0181299
X0596654Y018563
X0531496Y0202716
X0548248Y0106728
X0613386Y0102126
X0613189Y0063583
X0622248Y0061728
X0628748Y0061228
X0633248Y0057228
Y0068228
X0604134Y0066732
X0576968Y0062795
X0581299Y0058071
X0493248Y0068728
X0485157Y0113937
X0509016Y0115591
X0513661Y0147913
X0522795Y015185
X0517126Y0161221
X0512047Y018374
X0516181Y019374
X0514016Y0200591
X0519252Y0204921
X0504173Y0192756
X0474748Y0196728
X0479528Y0201969
X0466248Y0209728
X0445079Y0204528
X0433819Y0197402
X0430276Y0188268
X0427598Y0176732
X0430276Y0170551
X0430512Y0164764
X0430315Y0151772
X0418347Y0158386
X0408661Y0157953
X0413228Y0144016
X0408858Y0106496
X043189Y0099252
X0414748Y0065228
X0419882Y0059646
X0371063Y009941
X0370197Y0162087
X0369882Y0173425
X0372244Y0187835
X0371811Y0205472
X0379606Y0205433
X0400984Y0205315
X041559Y0200827
X0475Y0183661
X0466748Y0175228
X0470248Y0165228
X0467717Y0160472
X0467748Y0155228
X0475248Y0148228
X0478748Y0159228
X035626Y0156339
X0350433Y0149252
X0349016Y0175787
X0340827Y0188268
X0339921Y0204173
X0299213Y019685
X0292748Y0207228
X0283748Y0210728
X0279748Y0191228
X0288748Y0189228
X0283748Y0179728
X0288248Y0175228
X0278748Y0169728
X0269248Y0167228
X0260039Y0177756
X0257283Y0184055
X0255748Y0189728
Y0196228
X0250197Y0195591
X0244685Y0175
X0223248Y0174228
X0232087Y0187598
X0226575Y0210827
X0216248Y0201228
X0219248Y0106728
X0242748Y0101728
X0237205Y0085236
X0229724Y0079331
X0285236Y0073425
X0296248Y0075228
Y0091228
X0303748
X0310248
X0319764Y0106378
X0344748Y0106228
X0338248Y0072228
X0353748
X0311248Y0059728
X0306248Y0064728
X0296748Y0058728
X0282248Y0106728
X0281693Y0143898
X0310118Y0162008
X0305118Y0171142
X0310197Y0180433
X0198748Y0184728
X0198248Y0190728
X0201142Y0171181
X0205039Y0159646
X0180512Y0163583
X0173425Y0163976
X0169882Y017815
X0177756Y0177756
X0176575Y0194685
X0181299Y0202559
X0185748Y0210728
X0163748Y0198228
X0140748Y0170276
X0142717Y015689
X0147835Y0154528
X0152165Y0147441
X0165945Y0144291
X0177008Y0148543
X0170748Y0103228
X0156102Y010689
X014311Y0110433
X0134843Y0077756
X0193504Y0105709
X0098622Y0186811
X0134843Y0262008
X0163779Y0241732
X0173031Y0247047
X0178748Y0237228
X0180905Y0231299
X0185787Y0225512
X0202748Y0225728
X0201248Y0217228
X019685Y0299213
X0170472Y0298819
X0221248Y0259228
X0229748
X0238248Y0239228
X0243583Y0235787
X0238898Y0219291
X0248622Y0219094
X0279248Y0220728
X0282248Y0216228
X0275394Y0225
X0293779Y0234095
X0301417Y0228661
X0309842Y022126
X0348819Y0220866
X0348248Y0230228
X0363748Y0234728
X0366248Y0221228
X0345472Y0266339
X0342248Y0275728
X0350472Y0276024
X0337205Y0310039
X0328622Y0310118
X0329567Y0303386
X032248Y0321654
X0312992Y0317087
X0298937Y0315276
X0260827Y0309252
X0267748Y0252228
X0379134Y0245276
X0386772Y0245709
X0415118Y0244016
X0412677Y0234842
X0429331Y0238779
X0429291Y0228858
X0428937Y0216732
X0470748Y0215228
X0469488Y0235079
X0487677Y0227795
X0496811Y0232205
X0504055
X0505433Y0219094
X0508465Y0213976
X0521969Y0218071
X0514764Y0227795
X0504055Y0247205
X0496811Y0242756
X0513748Y0259228
X0516535Y0284764
X0515248Y0347189
X0505248
X0495248
X0388228Y0317087
Y028189
X0395866Y0280315
X0416929Y0282165
X0369748Y0216228
X0545039Y022378
X0540197Y022878
X0581732Y0217795
X059189Y0227795
X0588031Y0237795
X060689Y0237598
X0624606Y0226969
X0640354Y0217913
X0628248Y0265728
X0620748Y0265228
X0648748Y0281728
X0674528Y0278425
X0672126Y035141
X0662362Y0351449
X0652362Y035141
X0646063Y0352362
X0593248Y0367689
X0565248Y0347689
X0555248
X0544748
X0535248Y0347189
X0525248
X0576748Y0259228
X0720748Y0256728
X0727248Y0253228
X0731748Y0245228
X0737248Y0249228
X0762748Y0248728
X0766748Y0252728
X0770748Y0256228
X0778701Y025378
X0775437Y024878
X0778701Y0243779
X0775437Y0238779
X0778701Y023378
X0775437Y022878
X0778701Y022378
X0743248Y0223728
X0737748Y0221728
X0731748
X0746248Y0228728
X0750248Y0233728
X0754248Y0239228
X0758248Y0243728
X0739055Y031374
X0784685Y0310157
X0790748Y0315669
X0781496Y0365748
X0712248Y0351689
X0702362Y0351449
X0692362Y035141
X0682362Y0351606
X0827756Y0269094
X0834055Y027185
X0836102Y0260315
X0842835Y025878
X0847598Y025378
X0842835Y024878
X0847598Y0243779
X0842835Y0238779
X0847598Y023378
X0842835Y022878
X0847598Y022378
X0879724Y0219882
X0916496Y022378
X0911732Y022878
X0916496Y023378
X0911732Y0238779
X0916496Y0243779
X0911732Y024878
X0916496Y025378
X0911732Y025878
X088126Y0273071
X0873465Y027185
X0844291Y0267913
X0900984Y0309252
X0963976Y0304921
X0971614Y0277323
X0983465Y0268898
X0990748Y0273543
X098063Y025878
X0985394Y025378
X098063Y024878
X0985394Y0243779
X098063Y0238779
X0985394Y023378
X098063Y022878
X0985394Y022378
X0949803Y0282087
X0971063Y0362008
X1015158Y0366339
X1013268Y0302402
X1012795Y0282087
X0996535Y0277992
X1019685Y0218504
X1088583Y0365158
X1082638Y0395669
X1050827Y0410866
X1027913Y0407559
X1021063Y0402953
X1010709Y0412284
X0999213Y0412598
X1001378Y0389764
X1044173Y0375984
X1048622Y0460827
X1030906Y0459252
X1075535Y0458496
X0985394Y0469842
X098063Y0474843
X0985394Y0479843
X098063Y0484842
X0985394Y0489843
X098063Y0494842
X0985394Y0499843
Y0506575
X0989055Y0518898
X0977559
X0969449Y0459331
X0964409Y0407126
X095748Y0401575
X0945984Y0395669
X0934331Y0419291
X0902795Y0415079
X0904921Y0397441
X0896496Y0399331
X0891299Y0403937
X0884921Y0406063
X0867323Y041063
X0863386Y0418504
X0873228
X0913937Y0399528
X0916496Y0469842
X0911732Y0474843
X0916496Y0479843
X0911732Y0484842
X0916496Y0489843
X0911732Y0494842
X0916496Y0499843
Y0506575
X0895079Y0518307
X0888386Y0522638
X0847598Y0506575
Y0499843
X0842835Y0494842
X0847598Y0489843
X0842835Y0484842
X0847598Y0479843
X0842835Y0474843
X0847598Y0469842
X0898661Y0460118
X0828504Y0459528
X0828583Y0420748
X0810157Y0421339
X077437Y0419055
X0772874Y0409488
X0766142Y0412323
X0760709Y0421457
X0746748Y0419189
X0739748Y0421689
X0714248Y0423689
X0697748
X0681248Y0470189
X0690248Y0481689
X0729248
Y0487189
Y0492689
X0740748Y0487189
X0745472Y0476575
X0729248Y0472689
X0733248Y0509689
X0736748Y0519689
X0746748Y0521689
X0752748Y0522189
X0751248Y0495189
X0775748Y0494689
X0778701Y0489843
X0775748Y0484689
X0778701Y0479843
X0775748Y0474689
X0779248Y0469689
X0780248Y0459689
X0771748Y0465189
X0778701Y0499843
X0778748Y0506189
X0715748Y0519189
X0704748Y0514189
X0731748Y0377689
X0754748Y0378689
X0763748Y0378189
X0760248Y0373189
X0783748Y0374189
X0787008Y0402559
X0633248Y0383189
Y0372189
X0628748Y0376189
X0622248Y0376689
X0613189Y0378543
X0604134Y0381693
X0586811Y0370276
X0581299Y0373031
X0576968Y0377756
X0548248Y0421689
X0613386Y0417087
X0587248Y0458189
X0578937Y0484842
X0575984Y0494567
X0575787Y0500197
X0578504Y0513268
X0591142Y049626
X0596654Y0500591
X0531496Y0517677
X0665748Y0465689
X0522795Y0466811
X0513661Y0462874
X0517126Y0476181
X0512047Y0498701
X0516181Y0508701
X0514016Y0515551
X0519252Y0519882
X0504173Y0507717
X0474748Y0511689
X0479528Y0516929
X0466248Y0524689
X0445079Y0519488
X0433819Y0512362
X0430276Y0503228
X0427598Y0491693
X0430276Y0485512
X0430512Y0479724
X0430315Y0466732
X0418347Y0473347
X0408661Y0472913
X0413228Y0458976
X0408858Y0421457
X043189Y0414213
X0414748Y0380189
X0419882Y0374606
X0493248Y0383689
X0485157Y0428898
X0509016Y0430551
X0475248Y0463189
X0478748Y0474189
X0467717Y0475433
X0467748Y0470189
X0470248Y0480189
X0466748Y0490189
X0475Y0498622
X041559Y0515787
X0400984Y0520276
X0379606Y0520394
X0371811Y0520433
X0372244Y0502795
X0369882Y0488386
X0370197Y0477047
X0371063Y041437
X0344748Y0421189
X0319764Y0421339
X0310248Y0406189
X0303748
X0296248
Y0390189
X0285236Y0388386
X0296748Y0373689
X0311248Y0374689
X0306248Y0379689
X0338248Y0387189
X0353748
X0350433Y0464213
X035626Y0471299
X0349016Y0490748
X0340827Y0503228
X0339921Y0519134
X0299213Y0511811
X0292748Y0522189
X0288748Y0504189
X0279748Y0506189
X0283748Y0494689
X0288248Y0490189
X0278748Y0484689
X0269248Y0482189
X0260039Y0492717
X0257283Y0499016
X0255748Y0504689
Y0511189
X0250197Y0510551
X0244685Y0489961
X0223248Y0489189
X0232087Y0502559
X0216248Y0516189
X0219248Y0421689
X0242748Y0416689
X0237205Y0400197
X0229724Y0394291
X0282248Y0421689
X0281693Y0458858
X0310118Y0476968
X0305118Y0486102
X0310197Y0495394
X0198748Y0499689
X0198248Y0505689
X0201142Y0486142
X0205039Y0474606
X0180512Y0478543
X0173425Y0478937
X0169882Y049311
X0177756Y0492717
X0176575Y0509646
X0181299Y051752
X0163748Y0513189
X0140748Y0485236
X0142717Y047185
X0147835Y0469488
X0152165Y0462402
X0165945Y0459252
X0177008Y0463504
X0170748Y0418189
X0156102Y042185
X014311Y0425394
X0134843Y0392717
X0193504Y0420669
X0098622Y0501772
X0185748Y0525689
X0185787Y0540472
X0180905Y054626
X0178748Y0552189
X0173031Y0562008
X0163779Y0556693
X0134843Y0576968
X0170472Y0613779
X019685Y0614173
X0202748Y0540689
X0201248Y0532189
X0226575Y0525787
X0238898Y0534252
X0248622Y0534055
X0243583Y0550748
X0238248Y0554189
X0229748Y0574189
X0221248
X0267748Y0567189
X0275394Y0539961
X0279248Y0535689
X0282248Y0531189
X0283748Y0525689
X0293779Y0549055
X0301417Y0543622
X0309842Y0536221
X0348819Y0535827
X0348248Y0545189
X0363748Y0549689
X0366248Y0536189
X0345472Y0581299
X0342248Y0590689
X0350472Y0590984
X0337205Y0625
X0328622Y0625079
X0329567Y0618347
X032248Y0636614
X0312992Y0632047
X0298937Y0630236
X0260827Y0624213
X0388228Y0632047
Y059685
X0395866Y0595276
X0416929Y0597126
X0415118Y0558976
X0412677Y0549803
X0429331Y055374
X0429291Y0543819
X0428937Y0531693
X0470748Y0530189
X0469488Y0550039
X0487677Y0542756
X0496811Y0547165
X0504055
X0505433Y0534055
X0508465Y0528937
X0521969Y0533032
X0514764Y0542756
X0504055Y0562165
X0496811Y0557717
X0513748Y0574189
X0516535Y0599724
X0515248Y066215
X0505248
X0495248
X0386772Y0560669
X0379134Y0560236
X0369748Y0531189
X0545039Y053874
X0540197Y054374
X0581732Y0532756
X059189Y0542756
X0588031Y0552756
X060689Y0552559
X0624606Y0541929
X0640354Y0532874
X0628248Y0580689
X0620748Y0580189
X0648748Y0596689
X0674528Y0593386
X0672126Y066637
X0662362Y0666409
X0652362Y066637
X0646063Y0667323
X0565248Y066265
X0555248
X0544748
X0535248Y066215
X0525248
X0576748Y0574189
X0720748Y0571689
X0727248Y0568189
X0731748Y0560189
X0737248Y0564189
X0762748Y0563689
X0766748Y0567689
X0770748Y0571189
X0778701Y056874
X0775437Y056374
X0778701Y055874
X0775437Y055374
X0778701Y054874
X0775437Y054374
X0778701Y053874
X0743248Y0538689
X0737748Y0536689
X0731748
X0746248Y0543689
X0750248Y0548689
X0754248Y0554189
X0758248Y0558689
X0739055Y0628701
X0784685Y0625118
X0790748Y063063
X0781496Y0680709
X0712248Y066665
X0702362Y0666409
X0692362Y066637
X0682362Y0666567
X0827756Y0584055
X0834055Y0586811
X0836102Y0575276
X0823189Y052626
X0847598Y053874
X0842835Y054374
X0847598Y054874
X0842835Y055374
X0847598Y055874
X0842835Y056374
X0847598Y056874
X0842835Y057374
X0844291Y0582874
X0873465Y0586811
X088126Y0588031
X0911732Y057374
X0916496Y056874
X0911732Y056374
X0916496Y055874
X0911732Y055374
X0916496Y054874
X0911732Y054374
X0916496Y053874
X0879724Y0534842
X0960827Y0527362
X0985394Y053874
X098063Y054374
X0985394Y054874
X098063Y055374
X0985394Y055874
X098063Y056374
X0985394Y056874
X098063Y057374
X0983465Y0583858
X0990748Y0588504
X0971614Y0592283
X0949803Y0597047
X0963976Y0619882
X0971063Y0676968
X0900984Y0624213
X1013268Y0617362
X1012795Y0597047
X0996535Y0592953
X1019685Y0533465
X1088583Y0680118
X1082638Y071063
X1050827Y0725827
X1027913Y072252
X1021063Y0717913
X1010709Y0727244
X0999213Y0727559
X1001378Y0704724
X1015158Y0681299
X1044173Y0690945
X1048622Y0775787
X1030906Y0774213
X1075535Y0773457
X0985394Y0784803
X098063Y0789803
X0985394Y0794803
X098063Y0799803
X0985394Y0804803
X098063Y0809803
X0985394Y0814803
Y0821535
X0989055Y0833858
X0977559
X0969449Y0774291
X0964409Y0722087
X095748Y0716535
X0945984Y071063
X0934331Y0734252
X0902795Y0730039
X0904921Y0712402
X0896496Y0714291
X0891299Y0718898
X0884921Y0721024
X0867323Y0725591
X0863386Y0733465
X0873228
X0913937Y0714488
X0916496Y0784803
X0911732Y0789803
X0916496Y0794803
X0911732Y0799803
X0916496Y0804803
X0911732Y0809803
X0916496Y0814803
Y0821535
X0895079Y0833268
X0847598Y0821535
Y0814803
X0842835Y0809803
X0847598Y0804803
X0842835Y0799803
X0847598Y0794803
X0842835Y0789803
X0847598Y0784803
X0898661Y0775079
X0828504Y0774488
X0828583Y0735709
X0810157Y0736299
X077437Y0734016
X0772874Y0724449
X0766142Y0727283
X0760709Y0736417
X0746748Y073415
X0739748Y073665
X0714248Y073865
X0697748
X0681248Y078515
X0690248Y079665
X0729248
Y080215
Y080765
X0740748Y080215
X0745472Y0791535
X0729248Y078765
X0733248Y082465
X0736748Y083465
X0746748Y083665
X0752748Y083715
X0751248Y081015
X0775748Y080965
X0778701Y0804803
X0775748Y079965
X0778701Y0794803
X0775748Y078965
X0779248Y078465
X0780248Y077465
X0771748Y078015
X0778701Y0814803
X0778748Y082115
X0715748Y083415
X0704748Y082915
X0731748Y069265
X0754748Y069365
X0763748Y069315
X0760248Y068815
X0783748Y068915
X0787008Y071752
X0633248Y069815
Y068715
X0628748Y069115
X0622248Y069165
X0613189Y0693504
X0604134Y0696654
X0593248Y068265
X0586811Y0685236
X0581299Y0687992
X0576968Y0692717
X0548248Y073665
X0613386Y0732047
X0587248Y077315
X0578937Y0799803
X0575984Y0809528
X0575787Y0815158
X0578504Y0828228
X0591142Y081122
X0596654Y0815551
X0531496Y0832638
X0665748Y078065
X0522795Y0781772
X0513661Y0777835
X0517126Y0791142
X0512047Y0813661
X0516181Y0823661
X0514016Y0830512
X0519252Y0834842
X0504173Y0822677
X0474748Y082665
X0479528Y083189
X0475Y0813583
X0466748Y080515
X0470248Y079515
X0467717Y0790394
X0467748Y078515
X0475248Y077815
X0478748Y078915
X0485157Y0743858
X0509016Y0745512
X0493248Y069865
X0414748Y069515
X0419882Y0689567
X043189Y0729173
X0408858Y0736417
X0413228Y0773937
X0408661Y0787874
X0418347Y0788307
X0430512Y0794685
X0430276Y0800472
X0427598Y0806653
X0430276Y0818189
X0433819Y0827323
X0445079Y0834449
X041559Y0830748
X0400984Y0835236
X0379606Y0835354
X0371811Y0835394
X0372244Y0817756
X0369882Y0803347
X0370197Y0792008
X0371063Y0729331
X0430315Y0781693
X035626Y078626
X0350433Y0779173
X0349016Y0805709
X0340827Y0818189
X0339921Y0834095
X0299213Y0826772
X0292748Y083715
X0288748Y081915
X0279748Y082115
X0283748Y080965
X0288248Y080515
X0278748Y079965
X0269248Y079715
X0260039Y0807677
X0257283Y0813976
X0255748Y081965
Y082615
X0250197Y0825512
X0244685Y0804921
X0223248Y080415
X0232087Y081752
X0216248Y083115
X0219248Y073665
X0242748Y073165
X0237205Y0715158
X0229724Y0709252
X0285236Y0703346
X0296248Y070515
Y072115
X0303748
X0310248
X0319764Y0736299
X0344748Y073615
X0338248Y070215
X0353748
X0311248Y068965
X0306248Y069465
X0296748Y068865
X0282248Y073665
X0281693Y0773819
X0310118Y0791929
X0305118Y0801063
X0310197Y0810354
X0198748Y081465
X0198248Y082065
X0201142Y0801102
X0205039Y0789567
X0180512Y0793504
X0173425Y0793898
X0169882Y0808071
X0177756Y0807677
X0176575Y0824606
X0181299Y083248
X0163748Y082815
X0140748Y0800197
X0142717Y0786811
X0147835Y0784449
X0152165Y0777362
X0165945Y0774213
X0177008Y0778465
X0170748Y073315
X0156102Y0736811
X014311Y0740354
X0134843Y0707677
X0193504Y073563
X0098622Y0816732
X0185748Y084065
X0185787Y0855433
X0180905Y086122
X0178748Y086715
X0173031Y0876968
X0163779Y0871653
X0134843Y0891929
X0170472Y092874
X019685Y0929134
X0202748Y085565
X0201248Y084715
X0226575Y0840748
X0238898Y0849213
X0248622Y0849016
X0243583Y0865709
X0238248Y086915
X0229748Y088915
X0221248
X0267748Y088215
X0275394Y0854921
X0279248Y085065
X0282248Y084615
X0283748Y084065
X0293779Y0864016
X0301417Y0858583
X0309842Y0851181
X0348819Y0850787
X0348248Y086015
X0363748Y086465
X0366248Y085115
X0345472Y089626
X0342248Y090565
X0350472Y0905945
X0337205Y0939961
X0328622Y0940039
X0329567Y0933307
X032248Y0951575
X0312992Y0947008
X0298937Y0945197
X0260827Y0939173
X0388228Y0947008
Y0911811
X0395866Y0910236
X0416929Y0912087
X0415118Y0873937
X0412677Y0864764
X0429331Y0868701
X0429291Y085878
X0428937Y0846653
X0470748Y084515
X0466248Y083965
X0469488Y0865
X0487677Y0857716
X0496811Y0862126
X0504055
X0505433Y0849016
X0508465Y0843898
X0521969Y0847992
X0514764Y0857716
X0504055Y0877126
X0496811Y0872677
X0513748Y088915
X0516535Y0914685
X0386772Y087563
X0379134Y0875197
X0369748Y084615
X0545039Y0853701
X0540197Y0858701
X0581732Y0847717
X059189Y0857716
X0588031Y0867717
X060689Y086752
X0624606Y085689
X0640354Y0847835
X0628248Y089565
X0620748Y089515
X0648748Y091165
X0674528Y0908346
X0576748Y088915
X0720748Y088665
X0727248Y088315
X0731748Y087515
X0737248Y087915
X0762748Y087865
X0766748Y088265
X0770748Y088615
X0778701Y0883701
X0775437Y0878701
X0778701Y0873701
X0775437Y0868701
X0778701Y0863701
X0775437Y0858701
X0778701Y0853701
X0743248Y085365
X0737748Y085165
X0731748
X0746248Y085865
X0750248Y086365
X0754248Y086915
X0758248Y087365
X0739055Y0943661
X0784685Y0940079
X0790748Y0945591
X0827756Y0899016
X0834055Y0901772
X0836102Y0890236
X0823189Y084122
X0847598Y0853701
X0842835Y0858701
X0847598Y0863701
X0842835Y0868701
X0847598Y0873701
X0842835Y0878701
X0847598Y0883701
X0842835Y0888701
X0844291Y0897835
X0873465Y0901772
X088126Y0902992
X0911732Y0888701
X0916496Y0883701
X0911732Y0878701
X0916496Y0873701
X0911732Y0868701
X0916496Y0863701
X0911732Y0858701
X0916496Y0853701
X0879724Y0849803
X0888386Y0837598
X0960827Y0842323
X0985394Y0853701
X098063Y0858701
X0985394Y0863701
X098063Y0868701
X0985394Y0873701
X098063Y0878701
X0985394Y0883701
X098063Y0888701
X0983465Y0898819
X0990748Y0903465
X0971614Y0907244
X0949803Y0912008
X0963976Y0934842
X0900984Y0939173
X1013268Y0932323
X1012795Y0912008
X0996535Y0907913
X1019685Y0848425
T03
X0089173Y0033898
X0099173
X0159173
X0169095Y0033858
X0179173Y0033898
X118063Y0145669
X119063
X120063
X121063
Y0175669
X120063
X119063
X118063
X1122047Y0123031
Y0113189
X1098425
Y0123031
X1059055
Y0113189
X1035433
Y0123031
X0996063
Y0113189
X0972441
Y0123031
X0992126Y0135039
X0925197Y0134843
X0933071Y0123031
Y0113189
X0909449
Y0123031
X0870079
Y0113189
X0846457
Y0123031
X0856299Y0134843
X0807087Y0123031
Y0113189
X0783465
Y0123031
X0787402Y0134843
X0744095Y0123031
Y0113189
X0720472
Y0123031
X0693748Y0134728
X0681102Y0123031
Y0113189
X065748
Y0123031
X061811
Y0113189
X0594488
Y0123031
X0555118
Y0113189
X0531496
Y0123031
Y0134843
X0492126Y0123031
Y0113189
X0468504
Y0123031
X0429134
Y0113189
X0405512
Y0123031
X0386614Y0133071
X0433071Y0134646
X0366142Y0123031
Y0113189
X034252
Y0123031
X0319291Y0135039
X030315Y0123031
Y0113189
X0279528
Y0123031
X0275394Y0134843
X0240158Y0123031
Y0113189
X0216535
Y0123031
X0268701Y0090748
Y0082874
X0179173Y0093898
X0169291
X0159173
X0153543Y0113189
Y0123031
X0177165
Y0113189
X0191929Y0134843
X0114173Y016437
Y0174213
X0082677
Y016437
X0089173Y0093898
X0099173
X0071063Y0259055
X0061221
X0089173Y0348858
X0099173
X0159173
X0169095Y0348819
X0179173Y0348858
X0177165Y0300197
Y0290354
X0153543
Y0300197
X0216535
Y0290354
X0240158
Y0300197
X0279528
Y0290354
X030315
Y0300197
X034252
Y0290354
X0366142
Y0300197
X0405512
Y0290354
X0429134
Y0300197
X0468504
Y0290354
X0492126
Y0300197
X0531496
Y0290354
X0555118
Y0300197
X0594488
Y0290354
X061811
Y0300197
X065748
Y0290354
X0681102
Y0300197
X0720472
Y0290354
X0744095
Y0300197
X0783465
Y0290354
X0807087
Y0300197
X0846457
Y0290354
X0870079
Y0300197
X0909449
Y0290354
X0933071
Y0300197
X0972441
Y0290354
X0996063
Y0300197
X1035433
Y0290354
X1059055
Y0300197
X1098425
Y0290354
X1122047
Y0300197
X115748Y0253937
Y0234252
X1220472
Y0253937
X121063Y046063
X120063
X119063
X118063
Y049063
X119063
X120063
X121063
X1122047Y0437992
Y042815
X1098425
Y0437992
X1059055
Y042815
X1035433
Y0437992
X0996063
Y042815
X0972441
Y0437992
X0992126Y045
X0925197Y0449803
X0933071Y0437992
Y042815
X0909449
Y0437992
X0870079
Y042815
X0846457
Y0437992
X0856299Y0449803
X0807087Y0437992
Y042815
X0783465
Y0437992
X0787402Y0449803
X0744095Y0437992
Y042815
X0720472
Y0437992
X0693748Y0449689
X0681102Y0437992
Y042815
X065748
Y0437992
X061811
Y042815
X0594488
Y0437992
X0555118
Y042815
X0531496
Y0437992
Y0449803
X0492126Y0437992
Y042815
X0468504
Y0437992
X0429134
Y042815
X0405512
Y0437992
X0386614Y0448032
X0433071Y0449606
X0366142Y0437992
Y042815
X034252
Y0437992
X0319291Y045
X030315Y0437992
Y042815
X0279528
Y0437992
X0275394Y0449803
X0240158Y0437992
Y042815
X0216535
Y0437992
X0268701Y0405709
Y0397835
X0179173Y0408858
X0169291
X0159173
X0153543Y042815
Y0437992
X0177165
Y042815
X0191929Y0449803
X0114173Y0479331
Y0489173
X0082677
Y0479331
X0089173Y0408858
X0099173
X0071063Y0574016
X0061221
X0089173Y0663819
X0099173
X0159173
X0169095Y0663779
X0179173Y0663819
X0177165Y0615158
Y0605315
X0153543
Y0615158
X0216535
Y0605315
X0240158
Y0615158
X0279528
Y0605315
X030315
Y0615158
X034252
Y0605315
X0366142
Y0615158
X0405512
Y0605315
X0429134
Y0615158
X0468504
Y0605315
X0492126
Y0615158
X0531496
Y0605315
X0555118
Y0615158
X0594488
Y0605315
X061811
Y0615158
X065748
Y0605315
X0681102
Y0615158
X0720472
Y0605315
X0744095
Y0615158
X0783465
Y0605315
X0807087
Y0615158
X0846457
Y0605315
X0870079
Y0615158
X0909449
Y0605315
X0933071
Y0615158
X0972441
Y0605315
X0996063
Y0615158
X1035433
Y0605315
X1059055
Y0615158
X1098425
Y0605315
X1122047
Y0615158
X115748Y0568898
Y0549213
X1220472
Y0568898
X121063Y0775591
X120063
X119063
X118063
Y0805591
X119063
X120063
X121063
X1122047Y0752953
Y074311
X1098425
Y0752953
X1059055
Y074311
X1035433
Y0752953
X0996063
Y074311
X0972441
Y0752953
X0992126Y0764961
X0925197Y0764764
X0933071Y0752953
Y074311
X0909449
Y0752953
X0870079
Y074311
X0846457
Y0752953
X0856299Y0764764
X0807087Y0752953
Y074311
X0783465
Y0752953
X0787402Y0764764
X0744095Y0752953
Y074311
X0720472
Y0752953
X0693748Y076465
X0681102Y0752953
Y074311
X065748
Y0752953
X061811
Y074311
X0594488
Y0752953
X0555118
Y074311
X0531496
Y0752953
Y0764764
X0492126Y0752953
Y074311
X0468504
Y0752953
X0429134
Y074311
X0405512
Y0752953
X0386614Y0762992
X0433071Y0764567
X0366142Y0752953
Y074311
X034252
Y0752953
X0319291Y0764961
X030315Y0752953
Y074311
X0279528
Y0752953
X0275394Y0764764
X0240158Y0752953
Y074311
X0216535
Y0752953
X0268701Y0720669
Y0712795
X0179173Y0723819
X0169291
X0159173
X0153543Y074311
Y0752953
X0177165
Y074311
X0191929Y0764764
X0114173Y0794291
Y0804134
X0082677
Y0794291
X0089173Y0723819
X0099173
X0071063Y0888976
X0061221
X0153543Y0920276
Y0930118
X0177165
Y0920276
X0216535
Y0930118
X0240158
Y0920276
X0279528
Y0930118
X030315
Y0920276
X034252
Y0930118
X0366142
Y0920276
X0405512
Y0930118
X0429134
Y0920276
X0468504
Y0930118
X0492126
Y0920276
X0531496
Y0930118
X0555118
Y0920276
X0594488
Y0930118
X061811
Y0920276
X065748
Y0930118
X0681102
Y0920276
X0720472
Y0930118
X0744095
Y0920276
X0783465
Y0930118
X0807087
Y0920276
X0846457
Y0930118
X0870079
Y0920276
X0909449
Y0930118
X0933071
Y0920276
X0972441
Y0930118
X0996063
Y0920276
X1035433
Y0930118
X1059055
Y0920276
X1098425
Y0930118
X1122047
Y0920276
X115748Y0883858
Y0864173
X1220472
Y0883858
T04
X1189535Y0077035
Y0087035
Y0097035
Y0107035
X1199535Y0102035
Y0112035
Y0092035
Y0082035
Y0396996
Y0406996
Y0416996
Y0426996
X1189535Y0421996
Y0411996
Y0401996
Y0391996
Y0706957
Y0716957
Y0726957
Y0736957
X1199535Y0731957
Y0741957
Y0721957
Y0711957
T05
X0073819Y0117126
X0091535
X0105315
X0123031
Y0142717
X0105315
X0091535
X0073819
X0180118Y0325787
X0197835
X1050535Y0213035
X1089905
X0123031Y0432087
X0105315
X0091535
X0073819
Y0457677
X0091535
X0105315
X0123031
X0180118Y0640748
X0197835
X1050535Y0527996
X1089905
X0123031Y0747047
X0105315
X0091535
X0073819
Y0772638
X0091535
X0105315
X0123031
X0180118Y0955709
X0197835
X1050535Y0842957
X1089905
T06
X0222716Y0035551
X0242717
X0291748Y0040728
X0301748
Y0050728
X0291748
X0311748
X0321748
Y0040728
X0331748
Y0050728
X0341748
X0351748
Y0040728
X0361748
Y0050728
X0341748Y0040728
X0311748
X0371748
X0381748
X0391748
Y0050728
X0381748
X0371748
X0401748
X0411748
Y0040728
X0401748
X1089035Y0157535
X1099035
X0222716Y0065551
X0167323Y0216535
X0157323
Y0226535
X0147323
Y0216535
X0137323
Y0226535
X0167323
X0164724Y0259842
Y0269843
X0174724
X0184724
X0194724
Y0259842
X0184724
X0174724
X0204724
Y0269843
X012248Y028248
X010248
Y031248
X008248
X012248
X0222716Y0350512
X0242717
X0291748Y0355689
X0301748
Y0365689
X0291748
X0311748
X0321748
Y0355689
X0331748
Y0365689
X0341748
X0351748
Y0355689
X0361748
Y0365689
X0341748Y0355689
X0311748
X0314803Y0269843
X0304803
Y0259842
X0314803
X0324803
Y0269843
X0294803
X0284803
Y0259842
X0294803
X0371748Y0355689
X0381748
X0391748
Y0365689
X0381748
X0371748
X0401748
X0411748
Y0355689
X0401748
X1137795Y0309055
Y0279055
X1157795
X1177795
Y0309055
X1157795
X1099035Y0472496
X1089035
X0222716Y0380512
X0167323Y0531496
X0157323
Y0541496
X0147323
Y0531496
X0137323
Y0541496
X0167323
X0164724Y0574803
Y0584803
X0174724
X0184724
X0194724
Y0574803
X0184724
X0174724
X0204724
Y0584803
X012248Y0597441
X010248
Y0627441
X008248
X012248
X0222716Y0665472
X0242717
X0291748Y067065
X0301748
Y068065
X0291748
X0311748
X0321748
Y067065
X0331748
Y068065
X0341748
X0351748
Y067065
X0361748
Y068065
X0341748Y067065
X0311748
X0314803Y0584803
X0304803
Y0574803
X0314803
X0324803
Y0584803
X0294803
X0284803
Y0574803
X0294803
X0371748Y067065
X0381748
X0391748
Y068065
X0381748
X0371748
X0401748
X0411748
Y067065
X0401748
X1137795Y0624016
Y0594016
X1157795
X1177795
Y0624016
X1157795
X1099035Y0787457
X1089035
X0222716Y0695472
X0167323Y0846457
X0157323
Y0856457
X0147323
Y0846457
X0137323
Y0856457
X0167323
X0164724Y0889764
Y0899764
X0174724
X0184724
X0194724
Y0889764
X0184724
X0174724
X0204724
Y0899764
X012248Y0912402
X010248
Y0942402
X008248
X012248
X0284803Y0899764
Y0889764
X0294803
X0304803
Y0899764
X0314803
Y0889764
X0324803
Y0899764
X0294803
X1137795Y0908976
Y0938976
X1157795
X1177795
Y0908976
X1157795
T07
X0242717Y0065551
X008248Y028248
X0242717Y0380512
X008248Y0597441
X0242717Y0695472
X008248Y0912402
T08
X0029724Y0233465
X0108465
X0175197Y0315945
X0202756
X0029724Y0548425
X0108465
X0175197Y0630905
X0202756
X0029724Y0863386
X0108465
X0175197Y0945866
X0202756
T09
X1177685Y0062941
Y012613
Y0377902
Y044109
Y0692862
Y0756051
M30
