G04 Layer_Color=8388736*
%FSLAX25Y25*%
%MOIN*%
G70*
G01*
G75*
%ADD53R,0.05512X0.05512*%
%ADD55R,0.05512X0.05512*%
%ADD56R,0.07087X0.07087*%
%ADD57C,0.07087*%
%ADD63C,0.09842*%
%ADD73C,0.14764*%
%ADD74R,0.08575X0.14175*%
%ADD75R,0.07175X0.07575*%
%ADD76R,0.07575X0.07175*%
%ADD77R,0.07975X0.07975*%
%ADD78R,0.23228X0.09449*%
%ADD79R,0.11024X0.03937*%
%ADD80R,0.09449X0.07874*%
%ADD81R,0.07874X0.09449*%
%ADD82R,0.06575X0.11575*%
%ADD83R,0.46575X0.31575*%
%ADD84R,0.07975X0.07975*%
%ADD85R,0.14567X0.09449*%
%ADD86R,0.03347X0.08661*%
%ADD87R,0.08661X0.03347*%
%ADD88R,0.13386X0.06299*%
%ADD89R,0.11575X0.09075*%
%ADD90R,0.19291X0.03937*%
%ADD91C,0.09449*%
%ADD92R,0.07087X0.07087*%
%ADD93R,0.08661X0.08661*%
%ADD94C,0.08661*%
%ADD95C,0.10236*%
%ADD96R,0.10236X0.10236*%
%ADD97C,0.14961*%
%ADD98R,0.09842X0.09842*%
%ADD99C,0.11417*%
%ADD100C,0.07874*%
%ADD101C,0.07480*%
%ADD102C,0.14370*%
%ADD103C,0.01575*%
%ADD104C,0.00063*%
D53*
X990158Y47244D02*
D03*
X994158Y55944D02*
D03*
X998032Y47244D02*
D03*
X1033465D02*
D03*
X1037465Y55944D02*
D03*
X1041339Y47244D02*
D03*
X990158Y362205D02*
D03*
X994158Y370905D02*
D03*
X998032Y362205D02*
D03*
X1033465D02*
D03*
X1037465Y370905D02*
D03*
X1041339Y362205D02*
D03*
X990158Y677165D02*
D03*
X994158Y685865D02*
D03*
X998032Y677165D02*
D03*
X1033465D02*
D03*
X1037465Y685865D02*
D03*
X1041339Y677165D02*
D03*
D55*
X1219535Y93035D02*
D03*
Y100535D02*
D03*
X1210673Y96866D02*
D03*
X1219535Y407996D02*
D03*
Y415496D02*
D03*
X1210673Y411827D02*
D03*
X1219535Y722957D02*
D03*
Y730457D02*
D03*
X1210673Y726787D02*
D03*
D56*
X468504Y113189D02*
D03*
X594488D02*
D03*
X681102D02*
D03*
X1098425D02*
D03*
X82677Y164370D02*
D03*
X114173D02*
D03*
X468504Y300197D02*
D03*
X594488D02*
D03*
X618110D02*
D03*
X744095D02*
D03*
X303150D02*
D03*
X807087D02*
D03*
X153543Y113189D02*
D03*
X61221Y259055D02*
D03*
X279528Y113189D02*
D03*
X240158D02*
D03*
X216535D02*
D03*
X342520D02*
D03*
X366142D02*
D03*
X303150D02*
D03*
X492126D02*
D03*
X429134D02*
D03*
X618110D02*
D03*
X555118D02*
D03*
X720472D02*
D03*
X744095D02*
D03*
X846457D02*
D03*
X807087D02*
D03*
X972441D02*
D03*
X933071D02*
D03*
X909449D02*
D03*
X1059055D02*
D03*
X1035433D02*
D03*
X153543Y300197D02*
D03*
X216535D02*
D03*
X240158D02*
D03*
X279528D02*
D03*
X342520D02*
D03*
X366142D02*
D03*
X429134D02*
D03*
X492126D02*
D03*
X555118D02*
D03*
X681102D02*
D03*
X720472D02*
D03*
X846457D02*
D03*
X909449D02*
D03*
X933071D02*
D03*
X972441D02*
D03*
X1035433D02*
D03*
X1059055D02*
D03*
X1098425D02*
D03*
X177165D02*
D03*
X783465D02*
D03*
X870079D02*
D03*
X996063D02*
D03*
X1122047D02*
D03*
X177165Y113189D02*
D03*
X405512D02*
D03*
X870079D02*
D03*
X657480D02*
D03*
X783465D02*
D03*
X531496D02*
D03*
X1122047D02*
D03*
X996063D02*
D03*
X405512Y300197D02*
D03*
X531496D02*
D03*
X657480D02*
D03*
X468504Y428150D02*
D03*
X594488D02*
D03*
X681102D02*
D03*
X1098425D02*
D03*
X82677Y479331D02*
D03*
X114173D02*
D03*
X468504Y615158D02*
D03*
X594488D02*
D03*
X618110D02*
D03*
X744095D02*
D03*
X303150D02*
D03*
X807087D02*
D03*
X153543Y428150D02*
D03*
X61221Y574016D02*
D03*
X279528Y428150D02*
D03*
X240158D02*
D03*
X216535D02*
D03*
X342520D02*
D03*
X366142D02*
D03*
X303150D02*
D03*
X492126D02*
D03*
X429134D02*
D03*
X618110D02*
D03*
X555118D02*
D03*
X720472D02*
D03*
X744095D02*
D03*
X846457D02*
D03*
X807087D02*
D03*
X972441D02*
D03*
X933071D02*
D03*
X909449D02*
D03*
X1059055D02*
D03*
X1035433D02*
D03*
X153543Y615158D02*
D03*
X216535D02*
D03*
X240158D02*
D03*
X279528D02*
D03*
X342520D02*
D03*
X366142D02*
D03*
X429134D02*
D03*
X492126D02*
D03*
X555118D02*
D03*
X681102D02*
D03*
X720472D02*
D03*
X846457D02*
D03*
X909449D02*
D03*
X933071D02*
D03*
X972441D02*
D03*
X1035433D02*
D03*
X1059055D02*
D03*
X1098425D02*
D03*
X177165D02*
D03*
X783465D02*
D03*
X870079D02*
D03*
X996063D02*
D03*
X1122047D02*
D03*
X177165Y428150D02*
D03*
X405512D02*
D03*
X870079D02*
D03*
X657480D02*
D03*
X783465D02*
D03*
X531496D02*
D03*
X1122047D02*
D03*
X996063D02*
D03*
X405512Y615158D02*
D03*
X531496D02*
D03*
X657480D02*
D03*
X468504Y743110D02*
D03*
X594488D02*
D03*
X681102D02*
D03*
X1098425D02*
D03*
X82677Y794291D02*
D03*
X114173D02*
D03*
X468504Y930118D02*
D03*
X594488D02*
D03*
X618110D02*
D03*
X744095D02*
D03*
X303150D02*
D03*
X807087D02*
D03*
X153543Y743110D02*
D03*
X61221Y888976D02*
D03*
X279528Y743110D02*
D03*
X240158D02*
D03*
X216535D02*
D03*
X342520D02*
D03*
X366142D02*
D03*
X303150D02*
D03*
X492126D02*
D03*
X429134D02*
D03*
X618110D02*
D03*
X555118D02*
D03*
X720472D02*
D03*
X744095D02*
D03*
X846457D02*
D03*
X807087D02*
D03*
X972441D02*
D03*
X933071D02*
D03*
X909449D02*
D03*
X1059055D02*
D03*
X1035433D02*
D03*
X153543Y930118D02*
D03*
X216535D02*
D03*
X240158D02*
D03*
X279528D02*
D03*
X342520D02*
D03*
X366142D02*
D03*
X429134D02*
D03*
X492126D02*
D03*
X555118D02*
D03*
X681102D02*
D03*
X720472D02*
D03*
X846457D02*
D03*
X909449D02*
D03*
X933071D02*
D03*
X972441D02*
D03*
X1035433D02*
D03*
X1059055D02*
D03*
X1098425D02*
D03*
X177165D02*
D03*
X783465D02*
D03*
X870079D02*
D03*
X996063D02*
D03*
X1122047D02*
D03*
X177165Y743110D02*
D03*
X405512D02*
D03*
X870079D02*
D03*
X657480D02*
D03*
X783465D02*
D03*
X531496D02*
D03*
X1122047D02*
D03*
X996063D02*
D03*
X405512Y930118D02*
D03*
X531496D02*
D03*
X657480D02*
D03*
D57*
X169095Y33858D02*
D03*
X169291Y93898D02*
D03*
X468504Y123031D02*
D03*
X594488D02*
D03*
X681102D02*
D03*
X1098425D02*
D03*
X82677Y174213D02*
D03*
X114173D02*
D03*
X468504Y290354D02*
D03*
X594488D02*
D03*
X618110D02*
D03*
X744095D02*
D03*
X303150D02*
D03*
X807087D02*
D03*
X153543Y123031D02*
D03*
X71063Y259055D02*
D03*
X268701Y82874D02*
D03*
X279528Y123031D02*
D03*
X240158D02*
D03*
X216535D02*
D03*
X342520D02*
D03*
X366142D02*
D03*
X303150D02*
D03*
X492126D02*
D03*
X429134D02*
D03*
X618110D02*
D03*
X555118D02*
D03*
X720472D02*
D03*
X744095D02*
D03*
X846457D02*
D03*
X807087D02*
D03*
X972441D02*
D03*
X933071D02*
D03*
X909449D02*
D03*
X1059055D02*
D03*
X1035433D02*
D03*
X1157480Y253937D02*
D03*
Y234252D02*
D03*
X1220472Y253937D02*
D03*
Y234252D02*
D03*
X153543Y290354D02*
D03*
X216535D02*
D03*
X240158D02*
D03*
X279528D02*
D03*
X342520D02*
D03*
X366142D02*
D03*
X429134D02*
D03*
X492126D02*
D03*
X555118D02*
D03*
X681102D02*
D03*
X720472D02*
D03*
X846457D02*
D03*
X909449D02*
D03*
X933071D02*
D03*
X972441D02*
D03*
X1035433D02*
D03*
X1059055D02*
D03*
X1098425D02*
D03*
X1200630Y145669D02*
D03*
X1190630D02*
D03*
Y175669D02*
D03*
X1200630D02*
D03*
X1180630Y145669D02*
D03*
X1210630Y175669D02*
D03*
X1180630D02*
D03*
X177165Y290354D02*
D03*
X783465D02*
D03*
X870079D02*
D03*
X996063D02*
D03*
X1122047D02*
D03*
X177165Y123031D02*
D03*
X405512D02*
D03*
X870079D02*
D03*
X657480D02*
D03*
X783465D02*
D03*
X531496D02*
D03*
X1122047D02*
D03*
X996063D02*
D03*
X405512Y290354D02*
D03*
X89173Y93898D02*
D03*
X99173D02*
D03*
Y33898D02*
D03*
X89173D02*
D03*
X159173Y93898D02*
D03*
Y33898D02*
D03*
X179173Y93898D02*
D03*
Y33898D02*
D03*
X531496Y290354D02*
D03*
X657480D02*
D03*
X169095Y348819D02*
D03*
X169291Y408858D02*
D03*
X468504Y437992D02*
D03*
X594488D02*
D03*
X681102D02*
D03*
X1098425D02*
D03*
X82677Y489173D02*
D03*
X114173D02*
D03*
X468504Y605315D02*
D03*
X594488D02*
D03*
X618110D02*
D03*
X744095D02*
D03*
X303150D02*
D03*
X807087D02*
D03*
X153543Y437992D02*
D03*
X71063Y574016D02*
D03*
X268701Y397835D02*
D03*
X279528Y437992D02*
D03*
X240158D02*
D03*
X216535D02*
D03*
X342520D02*
D03*
X366142D02*
D03*
X303150D02*
D03*
X492126D02*
D03*
X429134D02*
D03*
X618110D02*
D03*
X555118D02*
D03*
X720472D02*
D03*
X744095D02*
D03*
X846457D02*
D03*
X807087D02*
D03*
X972441D02*
D03*
X933071D02*
D03*
X909449D02*
D03*
X1059055D02*
D03*
X1035433D02*
D03*
X1157480Y568898D02*
D03*
Y549213D02*
D03*
X1220472Y568898D02*
D03*
Y549213D02*
D03*
X153543Y605315D02*
D03*
X216535D02*
D03*
X240158D02*
D03*
X279528D02*
D03*
X342520D02*
D03*
X366142D02*
D03*
X429134D02*
D03*
X492126D02*
D03*
X555118D02*
D03*
X681102D02*
D03*
X720472D02*
D03*
X846457D02*
D03*
X909449D02*
D03*
X933071D02*
D03*
X972441D02*
D03*
X1035433D02*
D03*
X1059055D02*
D03*
X1098425D02*
D03*
X1200630Y460630D02*
D03*
X1190630D02*
D03*
Y490630D02*
D03*
X1200630D02*
D03*
X1180630Y460630D02*
D03*
X1210630Y490630D02*
D03*
X1180630D02*
D03*
X177165Y605315D02*
D03*
X783465D02*
D03*
X870079D02*
D03*
X996063D02*
D03*
X1122047D02*
D03*
X177165Y437992D02*
D03*
X405512D02*
D03*
X870079D02*
D03*
X657480D02*
D03*
X783465D02*
D03*
X531496D02*
D03*
X1122047D02*
D03*
X996063D02*
D03*
X405512Y605315D02*
D03*
X89173Y408858D02*
D03*
X99173D02*
D03*
Y348858D02*
D03*
X89173D02*
D03*
X159173Y408858D02*
D03*
Y348858D02*
D03*
X179173Y408858D02*
D03*
Y348858D02*
D03*
X531496Y605315D02*
D03*
X657480D02*
D03*
X169095Y663779D02*
D03*
X169291Y723819D02*
D03*
X468504Y752953D02*
D03*
X594488D02*
D03*
X681102D02*
D03*
X1098425D02*
D03*
X82677Y804134D02*
D03*
X114173D02*
D03*
X468504Y920276D02*
D03*
X594488D02*
D03*
X618110D02*
D03*
X744095D02*
D03*
X303150D02*
D03*
X807087D02*
D03*
X153543Y752953D02*
D03*
X71063Y888976D02*
D03*
X268701Y712795D02*
D03*
X279528Y752953D02*
D03*
X240158D02*
D03*
X216535D02*
D03*
X342520D02*
D03*
X366142D02*
D03*
X303150D02*
D03*
X492126D02*
D03*
X429134D02*
D03*
X618110D02*
D03*
X555118D02*
D03*
X720472D02*
D03*
X744095D02*
D03*
X846457D02*
D03*
X807087D02*
D03*
X972441D02*
D03*
X933071D02*
D03*
X909449D02*
D03*
X1059055D02*
D03*
X1035433D02*
D03*
X1157480Y883858D02*
D03*
Y864173D02*
D03*
X1220472Y883858D02*
D03*
Y864173D02*
D03*
X153543Y920276D02*
D03*
X216535D02*
D03*
X240158D02*
D03*
X279528D02*
D03*
X342520D02*
D03*
X366142D02*
D03*
X429134D02*
D03*
X492126D02*
D03*
X555118D02*
D03*
X681102D02*
D03*
X720472D02*
D03*
X846457D02*
D03*
X909449D02*
D03*
X933071D02*
D03*
X972441D02*
D03*
X1035433D02*
D03*
X1059055D02*
D03*
X1098425D02*
D03*
X1200630Y775591D02*
D03*
X1190630D02*
D03*
Y805591D02*
D03*
X1200630D02*
D03*
X1180630Y775591D02*
D03*
X1210630Y805591D02*
D03*
X1180630D02*
D03*
X177165Y920276D02*
D03*
X783465D02*
D03*
X870079D02*
D03*
X996063D02*
D03*
X1122047D02*
D03*
X177165Y752953D02*
D03*
X405512D02*
D03*
X870079D02*
D03*
X657480D02*
D03*
X783465D02*
D03*
X531496D02*
D03*
X1122047D02*
D03*
X996063D02*
D03*
X405512Y920276D02*
D03*
X89173Y723819D02*
D03*
X99173D02*
D03*
Y663819D02*
D03*
X89173D02*
D03*
X159173Y723819D02*
D03*
Y663819D02*
D03*
X179173Y723819D02*
D03*
Y663819D02*
D03*
X531496Y920276D02*
D03*
X657480D02*
D03*
D63*
X108465Y233465D02*
D03*
Y548425D02*
D03*
Y863386D02*
D03*
D73*
X1206594Y29331D02*
G03*
X1206594Y29331I-1476J0D01*
G01*
X1203839Y324410D02*
G03*
X1203839Y324410I-1476J0D01*
G01*
X55020Y314370D02*
G03*
X55020Y314370I-1476J0D01*
G01*
X56201Y33465D02*
G03*
X56201Y33465I-1476J0D01*
G01*
X1206594Y344291D02*
G03*
X1206594Y344291I-1476J0D01*
G01*
X1203839Y639370D02*
G03*
X1203839Y639370I-1476J0D01*
G01*
X55020Y629331D02*
G03*
X55020Y629331I-1476J0D01*
G01*
X56201Y348425D02*
G03*
X56201Y348425I-1476J0D01*
G01*
X1206594Y659252D02*
G03*
X1206594Y659252I-1476J0D01*
G01*
X1203839Y954331D02*
G03*
X1203839Y954331I-1476J0D01*
G01*
X55020Y944291D02*
G03*
X55020Y944291I-1476J0D01*
G01*
X56201Y663386D02*
G03*
X56201Y663386I-1476J0D01*
G01*
D74*
X102165Y265551D02*
D03*
X122165D02*
D03*
X112795Y297441D02*
D03*
X92795D02*
D03*
X1210630Y196850D02*
D03*
X1230630D02*
D03*
X1147638D02*
D03*
X1167638D02*
D03*
X1147638Y218504D02*
D03*
X1167638D02*
D03*
X1230315D02*
D03*
X1210315D02*
D03*
X102165Y580512D02*
D03*
X122165D02*
D03*
X112795Y612402D02*
D03*
X92795D02*
D03*
X1210630Y511811D02*
D03*
X1230630D02*
D03*
X1147638D02*
D03*
X1167638D02*
D03*
X1147638Y533465D02*
D03*
X1167638D02*
D03*
X1230315D02*
D03*
X1210315D02*
D03*
X102165Y895472D02*
D03*
X122165D02*
D03*
X112795Y927362D02*
D03*
X92795D02*
D03*
X1210630Y826772D02*
D03*
X1230630D02*
D03*
X1147638D02*
D03*
X1167638D02*
D03*
X1147638Y848425D02*
D03*
X1167638D02*
D03*
X1230315D02*
D03*
X1210315D02*
D03*
D75*
X312992Y113331D02*
D03*
Y104331D02*
D03*
X375984Y113331D02*
D03*
Y104331D02*
D03*
X438976Y113331D02*
D03*
Y104331D02*
D03*
X501968Y113331D02*
D03*
Y104331D02*
D03*
X942913Y113331D02*
D03*
Y104331D02*
D03*
X1005906Y113331D02*
D03*
Y104331D02*
D03*
X1075787Y59197D02*
D03*
Y50197D02*
D03*
X1068898Y113331D02*
D03*
Y104331D02*
D03*
X1131890Y113331D02*
D03*
Y104331D02*
D03*
X1137795Y256748D02*
D03*
Y265748D02*
D03*
X202756Y128795D02*
D03*
Y137795D02*
D03*
X226378Y113331D02*
D03*
Y104331D02*
D03*
X228346Y248173D02*
D03*
Y239173D02*
D03*
X226378Y300055D02*
D03*
Y309055D02*
D03*
X289370Y300055D02*
D03*
Y309055D02*
D03*
X352362Y113331D02*
D03*
Y104331D02*
D03*
Y300055D02*
D03*
Y309055D02*
D03*
X415354Y113331D02*
D03*
Y104331D02*
D03*
X419291Y300055D02*
D03*
Y309055D02*
D03*
X478346Y113331D02*
D03*
Y104331D02*
D03*
X501968Y300055D02*
D03*
Y309055D02*
D03*
X541339Y113331D02*
D03*
Y104331D02*
D03*
X564961Y300055D02*
D03*
Y309055D02*
D03*
X627953Y300055D02*
D03*
Y309055D02*
D03*
X773622Y300055D02*
D03*
Y309055D02*
D03*
X796260Y300055D02*
D03*
Y309055D02*
D03*
X856299Y300055D02*
D03*
Y309055D02*
D03*
X919291Y300055D02*
D03*
Y309055D02*
D03*
X982283Y113331D02*
D03*
Y104331D02*
D03*
Y300055D02*
D03*
Y309055D02*
D03*
X1015158Y44630D02*
D03*
Y35630D02*
D03*
X1005906Y300055D02*
D03*
Y309055D02*
D03*
X1045276Y113331D02*
D03*
Y104331D02*
D03*
Y300055D02*
D03*
Y309055D02*
D03*
X1075787Y77898D02*
D03*
Y68898D02*
D03*
X1068898Y300055D02*
D03*
Y309055D02*
D03*
X1108268Y300055D02*
D03*
Y309055D02*
D03*
X1122047Y309898D02*
D03*
Y318898D02*
D03*
X312992Y300055D02*
D03*
Y309055D02*
D03*
X493748Y54728D02*
D03*
Y45728D02*
D03*
X504000Y55134D02*
D03*
Y46134D02*
D03*
X536480Y55134D02*
D03*
Y46134D02*
D03*
X525654Y55134D02*
D03*
Y46134D02*
D03*
X568961Y55134D02*
D03*
Y46134D02*
D03*
X558134Y55134D02*
D03*
Y46134D02*
D03*
X651752Y55134D02*
D03*
Y46134D02*
D03*
X683248Y55228D02*
D03*
Y46228D02*
D03*
X673406Y55134D02*
D03*
Y46134D02*
D03*
X703248Y55228D02*
D03*
Y46228D02*
D03*
X714248Y56228D02*
D03*
Y47228D02*
D03*
X1226173Y163240D02*
D03*
Y172240D02*
D03*
X187008Y113331D02*
D03*
Y104331D02*
D03*
X564961Y113331D02*
D03*
Y104331D02*
D03*
X627953Y113331D02*
D03*
Y104331D02*
D03*
X690945Y113331D02*
D03*
Y104331D02*
D03*
X753937Y113331D02*
D03*
Y104331D02*
D03*
X816929Y113331D02*
D03*
Y104331D02*
D03*
X1065945Y86756D02*
D03*
Y77756D02*
D03*
X163386Y113331D02*
D03*
Y104331D02*
D03*
Y300055D02*
D03*
Y309055D02*
D03*
X250000Y113331D02*
D03*
Y104331D02*
D03*
Y300055D02*
D03*
Y309055D02*
D03*
X187008Y300055D02*
D03*
Y309055D02*
D03*
X394685Y300055D02*
D03*
Y309055D02*
D03*
X375984Y300055D02*
D03*
Y309055D02*
D03*
X478346Y300055D02*
D03*
Y309055D02*
D03*
X604331Y113331D02*
D03*
Y104331D02*
D03*
Y300055D02*
D03*
Y309055D02*
D03*
X541339Y300055D02*
D03*
Y309055D02*
D03*
X667323Y113331D02*
D03*
Y104331D02*
D03*
X730315Y113331D02*
D03*
Y104331D02*
D03*
X753937Y300055D02*
D03*
Y309055D02*
D03*
X730315Y300055D02*
D03*
Y309055D02*
D03*
X690945Y300055D02*
D03*
Y309055D02*
D03*
X667323Y300055D02*
D03*
Y309055D02*
D03*
X793307Y113331D02*
D03*
Y104331D02*
D03*
X856299Y113331D02*
D03*
Y104331D02*
D03*
X879921Y300055D02*
D03*
Y309055D02*
D03*
X977362Y35291D02*
D03*
Y44291D02*
D03*
X994094Y74945D02*
D03*
Y65945D02*
D03*
X919291Y113331D02*
D03*
Y104331D02*
D03*
X942913Y300055D02*
D03*
Y309055D02*
D03*
X1051181Y44433D02*
D03*
Y35433D02*
D03*
X1065945Y58913D02*
D03*
Y67913D02*
D03*
X1037402Y74945D02*
D03*
Y65945D02*
D03*
X1108268Y113331D02*
D03*
Y104331D02*
D03*
X1228898Y103831D02*
D03*
Y94831D02*
D03*
X187008Y290496D02*
D03*
Y281496D02*
D03*
X514827Y55134D02*
D03*
Y46134D02*
D03*
X640925Y55134D02*
D03*
Y46134D02*
D03*
X547307Y55134D02*
D03*
Y46134D02*
D03*
X693248Y55228D02*
D03*
Y46228D02*
D03*
X662579Y55134D02*
D03*
Y46134D02*
D03*
X879921Y113331D02*
D03*
Y104331D02*
D03*
X289370Y113331D02*
D03*
Y104331D02*
D03*
X1131890Y132032D02*
D03*
Y123031D02*
D03*
X312992Y428291D02*
D03*
Y419291D02*
D03*
X375984Y428291D02*
D03*
Y419291D02*
D03*
X438976Y428291D02*
D03*
Y419291D02*
D03*
X501968Y428291D02*
D03*
Y419291D02*
D03*
X942913Y428291D02*
D03*
Y419291D02*
D03*
X1005906Y428291D02*
D03*
Y419291D02*
D03*
X1075787Y374158D02*
D03*
Y365158D02*
D03*
X1068898Y428291D02*
D03*
Y419291D02*
D03*
X1131890Y428291D02*
D03*
Y419291D02*
D03*
X1137795Y571709D02*
D03*
Y580709D02*
D03*
X202756Y443756D02*
D03*
Y452756D02*
D03*
X226378Y428291D02*
D03*
Y419291D02*
D03*
X228346Y563134D02*
D03*
Y554134D02*
D03*
X226378Y615016D02*
D03*
Y624016D02*
D03*
X289370Y615016D02*
D03*
Y624016D02*
D03*
X352362Y428291D02*
D03*
Y419291D02*
D03*
Y615016D02*
D03*
Y624016D02*
D03*
X415354Y428291D02*
D03*
Y419291D02*
D03*
X419291Y615016D02*
D03*
Y624016D02*
D03*
X478346Y428291D02*
D03*
Y419291D02*
D03*
X501968Y615016D02*
D03*
Y624016D02*
D03*
X541339Y428291D02*
D03*
Y419291D02*
D03*
X564961Y615016D02*
D03*
Y624016D02*
D03*
X627953Y615016D02*
D03*
Y624016D02*
D03*
X773622Y615016D02*
D03*
Y624016D02*
D03*
X796260Y615016D02*
D03*
Y624016D02*
D03*
X856299Y615016D02*
D03*
Y624016D02*
D03*
X919291Y615016D02*
D03*
Y624016D02*
D03*
X982283Y428291D02*
D03*
Y419291D02*
D03*
Y615016D02*
D03*
Y624016D02*
D03*
X1015158Y359591D02*
D03*
Y350590D02*
D03*
X1005906Y615016D02*
D03*
Y624016D02*
D03*
X1045276Y428291D02*
D03*
Y419291D02*
D03*
Y615016D02*
D03*
Y624016D02*
D03*
X1075787Y392858D02*
D03*
Y383858D02*
D03*
X1068898Y615016D02*
D03*
Y624016D02*
D03*
X1108268Y615016D02*
D03*
Y624016D02*
D03*
X1122047Y624858D02*
D03*
Y633858D02*
D03*
X312992Y615016D02*
D03*
Y624016D02*
D03*
X493748Y369689D02*
D03*
Y360689D02*
D03*
X504000Y370094D02*
D03*
Y361094D02*
D03*
X536480Y370094D02*
D03*
Y361094D02*
D03*
X525654Y370094D02*
D03*
Y361094D02*
D03*
X568961Y370094D02*
D03*
Y361094D02*
D03*
X558134Y370094D02*
D03*
Y361094D02*
D03*
X651752Y370094D02*
D03*
Y361094D02*
D03*
X683248Y370189D02*
D03*
Y361189D02*
D03*
X673406Y370094D02*
D03*
Y361094D02*
D03*
X703248Y370189D02*
D03*
Y361189D02*
D03*
X714248Y371189D02*
D03*
Y362189D02*
D03*
X1226173Y478201D02*
D03*
Y487201D02*
D03*
X187008Y428291D02*
D03*
Y419291D02*
D03*
X564961Y428291D02*
D03*
Y419291D02*
D03*
X627953Y428291D02*
D03*
Y419291D02*
D03*
X690945Y428291D02*
D03*
Y419291D02*
D03*
X753937Y428291D02*
D03*
Y419291D02*
D03*
X816929Y428291D02*
D03*
Y419291D02*
D03*
X1065945Y401717D02*
D03*
Y392717D02*
D03*
X163386Y428291D02*
D03*
Y419291D02*
D03*
Y615016D02*
D03*
Y624016D02*
D03*
X250000Y428291D02*
D03*
Y419291D02*
D03*
Y615016D02*
D03*
Y624016D02*
D03*
X187008Y615016D02*
D03*
Y624016D02*
D03*
X394685Y615016D02*
D03*
Y624016D02*
D03*
X375984Y615016D02*
D03*
Y624016D02*
D03*
X478346Y615016D02*
D03*
Y624016D02*
D03*
X604331Y428291D02*
D03*
Y419291D02*
D03*
Y615016D02*
D03*
Y624016D02*
D03*
X541339Y615016D02*
D03*
Y624016D02*
D03*
X667323Y428291D02*
D03*
Y419291D02*
D03*
X730315Y428291D02*
D03*
Y419291D02*
D03*
X753937Y615016D02*
D03*
Y624016D02*
D03*
X730315Y615016D02*
D03*
Y624016D02*
D03*
X690945Y615016D02*
D03*
Y624016D02*
D03*
X667323Y615016D02*
D03*
Y624016D02*
D03*
X793307Y428291D02*
D03*
Y419291D02*
D03*
X856299Y428291D02*
D03*
Y419291D02*
D03*
X879921Y615016D02*
D03*
Y624016D02*
D03*
X977362Y350252D02*
D03*
Y359252D02*
D03*
X994094Y389906D02*
D03*
Y380906D02*
D03*
X919291Y428291D02*
D03*
Y419291D02*
D03*
X942913Y615016D02*
D03*
Y624016D02*
D03*
X1051181Y359394D02*
D03*
Y350394D02*
D03*
X1065945Y373874D02*
D03*
Y382874D02*
D03*
X1037402Y389906D02*
D03*
Y380906D02*
D03*
X1108268Y428291D02*
D03*
Y419291D02*
D03*
X1228898Y418791D02*
D03*
Y409791D02*
D03*
X187008Y605457D02*
D03*
Y596457D02*
D03*
X514827Y370094D02*
D03*
Y361094D02*
D03*
X640925Y370094D02*
D03*
Y361094D02*
D03*
X547307Y370094D02*
D03*
Y361094D02*
D03*
X693248Y370189D02*
D03*
Y361189D02*
D03*
X662579Y370094D02*
D03*
Y361094D02*
D03*
X879921Y428291D02*
D03*
Y419291D02*
D03*
X289370Y428291D02*
D03*
Y419291D02*
D03*
X1131890Y446992D02*
D03*
Y437992D02*
D03*
X312992Y743252D02*
D03*
Y734252D02*
D03*
X375984Y743252D02*
D03*
Y734252D02*
D03*
X438976Y743252D02*
D03*
Y734252D02*
D03*
X501968Y743252D02*
D03*
Y734252D02*
D03*
X942913Y743252D02*
D03*
Y734252D02*
D03*
X1005906Y743252D02*
D03*
Y734252D02*
D03*
X1075787Y689118D02*
D03*
Y680118D02*
D03*
X1068898Y743252D02*
D03*
Y734252D02*
D03*
X1131890Y743252D02*
D03*
Y734252D02*
D03*
X1137795Y886669D02*
D03*
Y895669D02*
D03*
X202756Y758716D02*
D03*
Y767717D02*
D03*
X226378Y743252D02*
D03*
Y734252D02*
D03*
X228346Y878094D02*
D03*
Y869094D02*
D03*
X226378Y929976D02*
D03*
Y938976D02*
D03*
X289370Y929976D02*
D03*
Y938976D02*
D03*
X352362Y743252D02*
D03*
Y734252D02*
D03*
Y929976D02*
D03*
Y938976D02*
D03*
X415354Y743252D02*
D03*
Y734252D02*
D03*
X419291Y929976D02*
D03*
Y938976D02*
D03*
X478346Y743252D02*
D03*
Y734252D02*
D03*
X501968Y929976D02*
D03*
Y938976D02*
D03*
X541339Y743252D02*
D03*
Y734252D02*
D03*
X564961Y929976D02*
D03*
Y938976D02*
D03*
X627953Y929976D02*
D03*
Y938976D02*
D03*
X773622Y929976D02*
D03*
Y938976D02*
D03*
X796260Y929976D02*
D03*
Y938976D02*
D03*
X856299Y929976D02*
D03*
Y938976D02*
D03*
X919291Y929976D02*
D03*
Y938976D02*
D03*
X982283Y743252D02*
D03*
Y734252D02*
D03*
Y929976D02*
D03*
Y938976D02*
D03*
X1015158Y674551D02*
D03*
Y665551D02*
D03*
X1005906Y929976D02*
D03*
Y938976D02*
D03*
X1045276Y743252D02*
D03*
Y734252D02*
D03*
Y929976D02*
D03*
Y938976D02*
D03*
X1075787Y707819D02*
D03*
Y698819D02*
D03*
X1068898Y929976D02*
D03*
Y938976D02*
D03*
X1108268Y929976D02*
D03*
Y938976D02*
D03*
X1122047Y939819D02*
D03*
Y948819D02*
D03*
X312992Y929976D02*
D03*
Y938976D02*
D03*
X493748Y684650D02*
D03*
Y675650D02*
D03*
X504000Y685055D02*
D03*
Y676055D02*
D03*
X536480Y685055D02*
D03*
Y676055D02*
D03*
X525654Y685055D02*
D03*
Y676055D02*
D03*
X568961Y685055D02*
D03*
Y676055D02*
D03*
X558134Y685055D02*
D03*
Y676055D02*
D03*
X651752Y685055D02*
D03*
Y676055D02*
D03*
X683248Y685150D02*
D03*
Y676150D02*
D03*
X673406Y685055D02*
D03*
Y676055D02*
D03*
X703248Y685150D02*
D03*
Y676150D02*
D03*
X714248Y686150D02*
D03*
Y677150D02*
D03*
X1226173Y793161D02*
D03*
Y802161D02*
D03*
X187008Y743252D02*
D03*
Y734252D02*
D03*
X564961Y743252D02*
D03*
Y734252D02*
D03*
X627953Y743252D02*
D03*
Y734252D02*
D03*
X690945Y743252D02*
D03*
Y734252D02*
D03*
X753937Y743252D02*
D03*
Y734252D02*
D03*
X816929Y743252D02*
D03*
Y734252D02*
D03*
X1065945Y716677D02*
D03*
Y707677D02*
D03*
X163386Y743252D02*
D03*
Y734252D02*
D03*
Y929976D02*
D03*
Y938976D02*
D03*
X250000Y743252D02*
D03*
Y734252D02*
D03*
Y929976D02*
D03*
Y938976D02*
D03*
X187008Y929976D02*
D03*
Y938976D02*
D03*
X394685Y929976D02*
D03*
Y938976D02*
D03*
X375984Y929976D02*
D03*
Y938976D02*
D03*
X478346Y929976D02*
D03*
Y938976D02*
D03*
X604331Y743252D02*
D03*
Y734252D02*
D03*
Y929976D02*
D03*
Y938976D02*
D03*
X541339Y929976D02*
D03*
Y938976D02*
D03*
X667323Y743252D02*
D03*
Y734252D02*
D03*
X730315Y743252D02*
D03*
Y734252D02*
D03*
X753937Y929976D02*
D03*
Y938976D02*
D03*
X730315Y929976D02*
D03*
Y938976D02*
D03*
X690945Y929976D02*
D03*
Y938976D02*
D03*
X667323Y929976D02*
D03*
Y938976D02*
D03*
X793307Y743252D02*
D03*
Y734252D02*
D03*
X856299Y743252D02*
D03*
Y734252D02*
D03*
X879921Y929976D02*
D03*
Y938976D02*
D03*
X977362Y665213D02*
D03*
Y674213D02*
D03*
X994094Y704866D02*
D03*
Y695866D02*
D03*
X919291Y743252D02*
D03*
Y734252D02*
D03*
X942913Y929976D02*
D03*
Y938976D02*
D03*
X1051181Y674354D02*
D03*
Y665354D02*
D03*
X1065945Y688835D02*
D03*
Y697835D02*
D03*
X1037402Y704866D02*
D03*
Y695866D02*
D03*
X1108268Y743252D02*
D03*
Y734252D02*
D03*
X1228898Y733752D02*
D03*
Y724752D02*
D03*
X187008Y920417D02*
D03*
Y911417D02*
D03*
X514827Y685055D02*
D03*
Y676055D02*
D03*
X640925Y685055D02*
D03*
Y676055D02*
D03*
X547307Y685055D02*
D03*
Y676055D02*
D03*
X693248Y685150D02*
D03*
Y676150D02*
D03*
X662579Y685055D02*
D03*
Y676055D02*
D03*
X879921Y743252D02*
D03*
Y734252D02*
D03*
X289370Y743252D02*
D03*
Y734252D02*
D03*
X1131890Y761953D02*
D03*
Y752953D02*
D03*
D76*
X344346Y195866D02*
D03*
X353346D02*
D03*
X174945Y71063D02*
D03*
X165945D02*
D03*
X205654Y70669D02*
D03*
X196653D02*
D03*
X264315Y124606D02*
D03*
X255315D02*
D03*
X362347Y185039D02*
D03*
X353346D02*
D03*
X1031748Y35630D02*
D03*
X1040748D02*
D03*
X149465Y180118D02*
D03*
X158465D02*
D03*
X70024Y270669D02*
D03*
X61024D02*
D03*
X395220Y140748D02*
D03*
X386221D02*
D03*
X336756Y134843D02*
D03*
X327756D02*
D03*
X333803Y195866D02*
D03*
X324803D02*
D03*
X393843D02*
D03*
X384842D02*
D03*
X372189D02*
D03*
X363189D02*
D03*
X450929Y136811D02*
D03*
X441929D02*
D03*
X452898Y197835D02*
D03*
X443898D02*
D03*
X550339Y135827D02*
D03*
X541339D02*
D03*
X550339Y205709D02*
D03*
X541339D02*
D03*
X710248Y134728D02*
D03*
X701248D02*
D03*
X804472Y137795D02*
D03*
X795472D02*
D03*
X806244Y206693D02*
D03*
X797244D02*
D03*
X944039Y137795D02*
D03*
X935039D02*
D03*
X944039Y206693D02*
D03*
X935039D02*
D03*
X1099551Y31496D02*
D03*
X1090551D02*
D03*
X124858Y163386D02*
D03*
X133858D02*
D03*
X82535Y154528D02*
D03*
X91535D02*
D03*
X222299D02*
D03*
X231299D02*
D03*
X208520Y239173D02*
D03*
X217520D02*
D03*
X259984Y240158D02*
D03*
X250984D02*
D03*
X998173Y35433D02*
D03*
X989173D02*
D03*
X1099551Y41339D02*
D03*
X1090551D02*
D03*
X1194039Y161417D02*
D03*
X1185039D02*
D03*
X1198740Y62398D02*
D03*
X1207740D02*
D03*
X174551Y59646D02*
D03*
X165551D02*
D03*
X174551Y46260D02*
D03*
X165551D02*
D03*
X149465Y171260D02*
D03*
X158465D02*
D03*
X874158Y137598D02*
D03*
X865158D02*
D03*
X875142Y206693D02*
D03*
X866142D02*
D03*
X1009197Y137205D02*
D03*
X1000197D02*
D03*
X1012937Y206693D02*
D03*
X1003937D02*
D03*
X344346Y510827D02*
D03*
X353346D02*
D03*
X174945Y386024D02*
D03*
X165945D02*
D03*
X205654Y385630D02*
D03*
X196653D02*
D03*
X264315Y439567D02*
D03*
X255315D02*
D03*
X362347Y500000D02*
D03*
X353346D02*
D03*
X1031748Y350590D02*
D03*
X1040748D02*
D03*
X149465Y495079D02*
D03*
X158465D02*
D03*
X70024Y585630D02*
D03*
X61024D02*
D03*
X395220Y455709D02*
D03*
X386221D02*
D03*
X336756Y449803D02*
D03*
X327756D02*
D03*
X333803Y510827D02*
D03*
X324803D02*
D03*
X393843D02*
D03*
X384842D02*
D03*
X372189D02*
D03*
X363189D02*
D03*
X450929Y451772D02*
D03*
X441929D02*
D03*
X452898Y512795D02*
D03*
X443898D02*
D03*
X550339Y450787D02*
D03*
X541339D02*
D03*
X550339Y520669D02*
D03*
X541339D02*
D03*
X710248Y449689D02*
D03*
X701248D02*
D03*
X804472Y452756D02*
D03*
X795472D02*
D03*
X806244Y521654D02*
D03*
X797244D02*
D03*
X944039Y452756D02*
D03*
X935039D02*
D03*
X944039Y521654D02*
D03*
X935039D02*
D03*
X1099551Y346457D02*
D03*
X1090551D02*
D03*
X124858Y478346D02*
D03*
X133858D02*
D03*
X82535Y469488D02*
D03*
X91535D02*
D03*
X222299D02*
D03*
X231299D02*
D03*
X208520Y554134D02*
D03*
X217520D02*
D03*
X259984Y555118D02*
D03*
X250984D02*
D03*
X998173Y350394D02*
D03*
X989173D02*
D03*
X1099551Y356299D02*
D03*
X1090551D02*
D03*
X1194039Y476378D02*
D03*
X1185039D02*
D03*
X1198740Y377358D02*
D03*
X1207740D02*
D03*
X174551Y374606D02*
D03*
X165551D02*
D03*
X174551Y361221D02*
D03*
X165551D02*
D03*
X149465Y486221D02*
D03*
X158465D02*
D03*
X874158Y452559D02*
D03*
X865158D02*
D03*
X875142Y521654D02*
D03*
X866142D02*
D03*
X1009197Y452165D02*
D03*
X1000197D02*
D03*
X1012937Y521654D02*
D03*
X1003937D02*
D03*
X344346Y825787D02*
D03*
X353346D02*
D03*
X174945Y700984D02*
D03*
X165945D02*
D03*
X205654Y700591D02*
D03*
X196653D02*
D03*
X264315Y754528D02*
D03*
X255315D02*
D03*
X362347Y814961D02*
D03*
X353346D02*
D03*
X1031748Y665551D02*
D03*
X1040748D02*
D03*
X149465Y810039D02*
D03*
X158465D02*
D03*
X70024Y900591D02*
D03*
X61024D02*
D03*
X395220Y770669D02*
D03*
X386221D02*
D03*
X336756Y764764D02*
D03*
X327756D02*
D03*
X333803Y825787D02*
D03*
X324803D02*
D03*
X393843D02*
D03*
X384842D02*
D03*
X372189D02*
D03*
X363189D02*
D03*
X450929Y766732D02*
D03*
X441929D02*
D03*
X452898Y827756D02*
D03*
X443898D02*
D03*
X550339Y765748D02*
D03*
X541339D02*
D03*
X550339Y835630D02*
D03*
X541339D02*
D03*
X710248Y764650D02*
D03*
X701248D02*
D03*
X804472Y767717D02*
D03*
X795472D02*
D03*
X806244Y836614D02*
D03*
X797244D02*
D03*
X944039Y767717D02*
D03*
X935039D02*
D03*
X944039Y836614D02*
D03*
X935039D02*
D03*
X1099551Y661417D02*
D03*
X1090551D02*
D03*
X124858Y793307D02*
D03*
X133858D02*
D03*
X82535Y784449D02*
D03*
X91535D02*
D03*
X222299D02*
D03*
X231299D02*
D03*
X208520Y869094D02*
D03*
X217520D02*
D03*
X259984Y870079D02*
D03*
X250984D02*
D03*
X998173Y665354D02*
D03*
X989173D02*
D03*
X1099551Y671260D02*
D03*
X1090551D02*
D03*
X1194039Y791339D02*
D03*
X1185039D02*
D03*
X1198740Y692319D02*
D03*
X1207740D02*
D03*
X174551Y689567D02*
D03*
X165551D02*
D03*
X174551Y676181D02*
D03*
X165551D02*
D03*
X149465Y801181D02*
D03*
X158465D02*
D03*
X874158Y767520D02*
D03*
X865158D02*
D03*
X875142Y836614D02*
D03*
X866142D02*
D03*
X1009197Y767126D02*
D03*
X1000197D02*
D03*
X1012937Y836614D02*
D03*
X1003937D02*
D03*
D77*
X149606Y190945D02*
D03*
X163006D02*
D03*
X149606Y505905D02*
D03*
X163006D02*
D03*
X149606Y820866D02*
D03*
X163006D02*
D03*
D78*
X257874Y139764D02*
D03*
X220472D02*
D03*
X257874Y454724D02*
D03*
X220472D02*
D03*
X257874Y769685D02*
D03*
X220472D02*
D03*
D79*
X318898Y235157D02*
D03*
Y230157D02*
D03*
Y240158D02*
D03*
Y225157D02*
D03*
X339913Y240158D02*
D03*
Y235157D02*
D03*
Y230157D02*
D03*
Y225157D02*
D03*
X318898Y215158D02*
D03*
Y210157D02*
D03*
X339913Y215158D02*
D03*
Y210157D02*
D03*
X318898Y220158D02*
D03*
X339913D02*
D03*
X378937Y236142D02*
D03*
Y231142D02*
D03*
Y241142D02*
D03*
Y226142D02*
D03*
X399953Y241142D02*
D03*
Y236142D02*
D03*
Y231142D02*
D03*
Y226142D02*
D03*
X378937Y216142D02*
D03*
Y211142D02*
D03*
X399953Y216142D02*
D03*
Y211142D02*
D03*
X378937Y221142D02*
D03*
X399953D02*
D03*
X437992Y240079D02*
D03*
Y245079D02*
D03*
Y230079D02*
D03*
Y225079D02*
D03*
Y235079D02*
D03*
Y215079D02*
D03*
Y210079D02*
D03*
X458024Y245079D02*
D03*
Y240079D02*
D03*
Y230079D02*
D03*
Y225079D02*
D03*
Y235079D02*
D03*
Y215079D02*
D03*
Y210079D02*
D03*
X437992Y220079D02*
D03*
X458024D02*
D03*
X787402Y258780D02*
D03*
Y253780D02*
D03*
Y248780D02*
D03*
Y263779D02*
D03*
X823181D02*
D03*
Y258780D02*
D03*
Y253780D02*
D03*
Y248780D02*
D03*
X787402Y238779D02*
D03*
Y223780D02*
D03*
Y218779D02*
D03*
Y233780D02*
D03*
Y228780D02*
D03*
X823181Y238779D02*
D03*
Y223780D02*
D03*
Y228780D02*
D03*
Y233780D02*
D03*
Y218779D02*
D03*
X787402Y243779D02*
D03*
X823181D02*
D03*
X925197Y258780D02*
D03*
Y253780D02*
D03*
Y248780D02*
D03*
Y263779D02*
D03*
X960976D02*
D03*
Y258780D02*
D03*
Y253780D02*
D03*
Y248780D02*
D03*
X925197Y238779D02*
D03*
Y223780D02*
D03*
Y218779D02*
D03*
Y233780D02*
D03*
Y228780D02*
D03*
X960976Y238779D02*
D03*
Y223780D02*
D03*
Y228780D02*
D03*
Y233780D02*
D03*
Y218779D02*
D03*
X925197Y243779D02*
D03*
X960976D02*
D03*
X318898Y176102D02*
D03*
Y171102D02*
D03*
Y181102D02*
D03*
Y166102D02*
D03*
X339913Y181102D02*
D03*
Y176102D02*
D03*
Y171102D02*
D03*
Y166102D02*
D03*
X318898Y156102D02*
D03*
Y151102D02*
D03*
X339913Y156102D02*
D03*
Y151102D02*
D03*
X318898Y161102D02*
D03*
X339913D02*
D03*
X378937Y177087D02*
D03*
Y172087D02*
D03*
Y182087D02*
D03*
Y167087D02*
D03*
X399953Y182087D02*
D03*
Y177087D02*
D03*
Y172087D02*
D03*
Y167087D02*
D03*
X378937Y157087D02*
D03*
Y152087D02*
D03*
X399953Y157087D02*
D03*
Y152087D02*
D03*
X378937Y162087D02*
D03*
X399953D02*
D03*
X438976Y180039D02*
D03*
Y185039D02*
D03*
Y170039D02*
D03*
Y165039D02*
D03*
Y175039D02*
D03*
Y155039D02*
D03*
Y150039D02*
D03*
X459008Y185039D02*
D03*
Y180039D02*
D03*
Y170039D02*
D03*
Y165039D02*
D03*
Y175039D02*
D03*
Y155039D02*
D03*
Y150039D02*
D03*
X438976Y160039D02*
D03*
X459008D02*
D03*
X698748Y177728D02*
D03*
Y172728D02*
D03*
Y182728D02*
D03*
Y167728D02*
D03*
X719764Y182728D02*
D03*
Y177728D02*
D03*
Y172728D02*
D03*
Y167728D02*
D03*
X698748Y157728D02*
D03*
Y152728D02*
D03*
X719764Y157728D02*
D03*
Y152728D02*
D03*
X698748Y162728D02*
D03*
X719764D02*
D03*
X925197Y189882D02*
D03*
Y184882D02*
D03*
Y179882D02*
D03*
Y194882D02*
D03*
X960976D02*
D03*
Y189882D02*
D03*
Y184882D02*
D03*
Y179882D02*
D03*
X925197Y169882D02*
D03*
Y154882D02*
D03*
Y149882D02*
D03*
Y164882D02*
D03*
Y159882D02*
D03*
X960976Y169882D02*
D03*
Y154882D02*
D03*
Y159882D02*
D03*
Y164882D02*
D03*
Y149882D02*
D03*
X925197Y174882D02*
D03*
X960976D02*
D03*
X531496Y257795D02*
D03*
Y252795D02*
D03*
Y247795D02*
D03*
Y262795D02*
D03*
X567276D02*
D03*
Y257795D02*
D03*
Y252795D02*
D03*
Y247795D02*
D03*
X531496Y237795D02*
D03*
Y222795D02*
D03*
Y217795D02*
D03*
Y232795D02*
D03*
Y227795D02*
D03*
X567276Y237795D02*
D03*
Y222795D02*
D03*
Y227795D02*
D03*
Y232795D02*
D03*
Y217795D02*
D03*
X531496Y242795D02*
D03*
X567276D02*
D03*
X856299Y258780D02*
D03*
Y253780D02*
D03*
Y248780D02*
D03*
Y263779D02*
D03*
X892079D02*
D03*
Y258780D02*
D03*
Y253780D02*
D03*
Y248780D02*
D03*
X856299Y238779D02*
D03*
Y223780D02*
D03*
Y218779D02*
D03*
Y233780D02*
D03*
Y228780D02*
D03*
X892079Y238779D02*
D03*
Y223780D02*
D03*
Y228780D02*
D03*
Y233780D02*
D03*
Y218779D02*
D03*
X856299Y243779D02*
D03*
X892079D02*
D03*
X994094Y258780D02*
D03*
Y253780D02*
D03*
Y248780D02*
D03*
Y263779D02*
D03*
X1029874D02*
D03*
Y258780D02*
D03*
Y253780D02*
D03*
Y248780D02*
D03*
X994094Y238779D02*
D03*
Y223780D02*
D03*
Y218779D02*
D03*
Y233780D02*
D03*
Y228780D02*
D03*
X1029874Y238779D02*
D03*
Y223780D02*
D03*
Y228780D02*
D03*
Y233780D02*
D03*
Y218779D02*
D03*
X994094Y243779D02*
D03*
X1029874D02*
D03*
X856299Y189882D02*
D03*
Y184882D02*
D03*
Y179882D02*
D03*
Y194882D02*
D03*
X892079D02*
D03*
Y189882D02*
D03*
Y184882D02*
D03*
Y179882D02*
D03*
X856299Y169882D02*
D03*
Y154882D02*
D03*
Y149882D02*
D03*
Y164882D02*
D03*
Y159882D02*
D03*
X892079Y169882D02*
D03*
Y154882D02*
D03*
Y159882D02*
D03*
Y164882D02*
D03*
Y149882D02*
D03*
X856299Y174882D02*
D03*
X892079D02*
D03*
X787402Y189882D02*
D03*
Y184882D02*
D03*
Y179882D02*
D03*
Y194882D02*
D03*
X823181D02*
D03*
Y189882D02*
D03*
Y184882D02*
D03*
Y179882D02*
D03*
X787402Y169882D02*
D03*
Y154882D02*
D03*
Y149882D02*
D03*
Y164882D02*
D03*
Y159882D02*
D03*
X823181Y169882D02*
D03*
Y154882D02*
D03*
Y159882D02*
D03*
Y164882D02*
D03*
Y149882D02*
D03*
X787402Y174882D02*
D03*
X823181D02*
D03*
X531496Y189882D02*
D03*
Y184882D02*
D03*
Y179882D02*
D03*
Y194882D02*
D03*
X567276D02*
D03*
Y189882D02*
D03*
Y184882D02*
D03*
Y179882D02*
D03*
X531496Y169882D02*
D03*
Y154882D02*
D03*
Y149882D02*
D03*
Y164882D02*
D03*
Y159882D02*
D03*
X567276Y169882D02*
D03*
Y154882D02*
D03*
Y159882D02*
D03*
Y164882D02*
D03*
Y149882D02*
D03*
X531496Y174882D02*
D03*
X567276D02*
D03*
X994094Y189882D02*
D03*
Y184882D02*
D03*
Y179882D02*
D03*
Y194882D02*
D03*
X1029874D02*
D03*
Y189882D02*
D03*
Y184882D02*
D03*
Y179882D02*
D03*
X994094Y169882D02*
D03*
Y154882D02*
D03*
Y149882D02*
D03*
Y164882D02*
D03*
Y159882D02*
D03*
X1029874Y169882D02*
D03*
Y154882D02*
D03*
Y159882D02*
D03*
Y164882D02*
D03*
Y149882D02*
D03*
X994094Y174882D02*
D03*
X1029874D02*
D03*
X318898Y550118D02*
D03*
Y545118D02*
D03*
Y555118D02*
D03*
Y540118D02*
D03*
X339913Y555118D02*
D03*
Y550118D02*
D03*
Y545118D02*
D03*
Y540118D02*
D03*
X318898Y530118D02*
D03*
Y525118D02*
D03*
X339913Y530118D02*
D03*
Y525118D02*
D03*
X318898Y535118D02*
D03*
X339913D02*
D03*
X378937Y551102D02*
D03*
Y546102D02*
D03*
Y556102D02*
D03*
Y541102D02*
D03*
X399953Y556102D02*
D03*
Y551102D02*
D03*
Y546102D02*
D03*
Y541102D02*
D03*
X378937Y531102D02*
D03*
Y526102D02*
D03*
X399953Y531102D02*
D03*
Y526102D02*
D03*
X378937Y536102D02*
D03*
X399953D02*
D03*
X437992Y555039D02*
D03*
Y560039D02*
D03*
Y545039D02*
D03*
Y540039D02*
D03*
Y550039D02*
D03*
Y530039D02*
D03*
Y525039D02*
D03*
X458024Y560039D02*
D03*
Y555039D02*
D03*
Y545039D02*
D03*
Y540039D02*
D03*
Y550039D02*
D03*
Y530039D02*
D03*
Y525039D02*
D03*
X437992Y535039D02*
D03*
X458024D02*
D03*
X787402Y573740D02*
D03*
Y568740D02*
D03*
Y563740D02*
D03*
Y578740D02*
D03*
X823181D02*
D03*
Y573740D02*
D03*
Y568740D02*
D03*
Y563740D02*
D03*
X787402Y553740D02*
D03*
Y538740D02*
D03*
Y533740D02*
D03*
Y548740D02*
D03*
Y543740D02*
D03*
X823181Y553740D02*
D03*
Y538740D02*
D03*
Y543740D02*
D03*
Y548740D02*
D03*
Y533740D02*
D03*
X787402Y558740D02*
D03*
X823181D02*
D03*
X925197Y573740D02*
D03*
Y568740D02*
D03*
Y563740D02*
D03*
Y578740D02*
D03*
X960976D02*
D03*
Y573740D02*
D03*
Y568740D02*
D03*
Y563740D02*
D03*
X925197Y553740D02*
D03*
Y538740D02*
D03*
Y533740D02*
D03*
Y548740D02*
D03*
Y543740D02*
D03*
X960976Y553740D02*
D03*
Y538740D02*
D03*
Y543740D02*
D03*
Y548740D02*
D03*
Y533740D02*
D03*
X925197Y558740D02*
D03*
X960976D02*
D03*
X318898Y491063D02*
D03*
Y486063D02*
D03*
Y496063D02*
D03*
Y481063D02*
D03*
X339913Y496063D02*
D03*
Y491063D02*
D03*
Y486063D02*
D03*
Y481063D02*
D03*
X318898Y471063D02*
D03*
Y466063D02*
D03*
X339913Y471063D02*
D03*
Y466063D02*
D03*
X318898Y476063D02*
D03*
X339913D02*
D03*
X378937Y492047D02*
D03*
Y487047D02*
D03*
Y497047D02*
D03*
Y482047D02*
D03*
X399953Y497047D02*
D03*
Y492047D02*
D03*
Y487047D02*
D03*
Y482047D02*
D03*
X378937Y472047D02*
D03*
Y467047D02*
D03*
X399953Y472047D02*
D03*
Y467047D02*
D03*
X378937Y477047D02*
D03*
X399953D02*
D03*
X438976Y495000D02*
D03*
Y500000D02*
D03*
Y485000D02*
D03*
Y480000D02*
D03*
Y490000D02*
D03*
Y470000D02*
D03*
Y465000D02*
D03*
X459008Y500000D02*
D03*
Y495000D02*
D03*
Y485000D02*
D03*
Y480000D02*
D03*
Y490000D02*
D03*
Y470000D02*
D03*
Y465000D02*
D03*
X438976Y475000D02*
D03*
X459008D02*
D03*
X698748Y492689D02*
D03*
Y487689D02*
D03*
Y497689D02*
D03*
Y482689D02*
D03*
X719764Y497689D02*
D03*
Y492689D02*
D03*
Y487689D02*
D03*
Y482689D02*
D03*
X698748Y472689D02*
D03*
Y467689D02*
D03*
X719764Y472689D02*
D03*
Y467689D02*
D03*
X698748Y477689D02*
D03*
X719764D02*
D03*
X925197Y504843D02*
D03*
Y499843D02*
D03*
Y494842D02*
D03*
Y509842D02*
D03*
X960976D02*
D03*
Y504843D02*
D03*
Y499843D02*
D03*
Y494842D02*
D03*
X925197Y484842D02*
D03*
Y469842D02*
D03*
Y464843D02*
D03*
Y479843D02*
D03*
Y474843D02*
D03*
X960976Y484842D02*
D03*
Y469842D02*
D03*
Y474843D02*
D03*
Y479843D02*
D03*
Y464843D02*
D03*
X925197Y489843D02*
D03*
X960976D02*
D03*
X531496Y572756D02*
D03*
Y567756D02*
D03*
Y562756D02*
D03*
Y577756D02*
D03*
X567276D02*
D03*
Y572756D02*
D03*
Y567756D02*
D03*
Y562756D02*
D03*
X531496Y552756D02*
D03*
Y537756D02*
D03*
Y532756D02*
D03*
Y547756D02*
D03*
Y542756D02*
D03*
X567276Y552756D02*
D03*
Y537756D02*
D03*
Y542756D02*
D03*
Y547756D02*
D03*
Y532756D02*
D03*
X531496Y557756D02*
D03*
X567276D02*
D03*
X856299Y573740D02*
D03*
Y568740D02*
D03*
Y563740D02*
D03*
Y578740D02*
D03*
X892079D02*
D03*
Y573740D02*
D03*
Y568740D02*
D03*
Y563740D02*
D03*
X856299Y553740D02*
D03*
Y538740D02*
D03*
Y533740D02*
D03*
Y548740D02*
D03*
Y543740D02*
D03*
X892079Y553740D02*
D03*
Y538740D02*
D03*
Y543740D02*
D03*
Y548740D02*
D03*
Y533740D02*
D03*
X856299Y558740D02*
D03*
X892079D02*
D03*
X994094Y573740D02*
D03*
Y568740D02*
D03*
Y563740D02*
D03*
Y578740D02*
D03*
X1029874D02*
D03*
Y573740D02*
D03*
Y568740D02*
D03*
Y563740D02*
D03*
X994094Y553740D02*
D03*
Y538740D02*
D03*
Y533740D02*
D03*
Y548740D02*
D03*
Y543740D02*
D03*
X1029874Y553740D02*
D03*
Y538740D02*
D03*
Y543740D02*
D03*
Y548740D02*
D03*
Y533740D02*
D03*
X994094Y558740D02*
D03*
X1029874D02*
D03*
X856299Y504843D02*
D03*
Y499843D02*
D03*
Y494842D02*
D03*
Y509842D02*
D03*
X892079D02*
D03*
Y504843D02*
D03*
Y499843D02*
D03*
Y494842D02*
D03*
X856299Y484842D02*
D03*
Y469842D02*
D03*
Y464843D02*
D03*
Y479843D02*
D03*
Y474843D02*
D03*
X892079Y484842D02*
D03*
Y469842D02*
D03*
Y474843D02*
D03*
Y479843D02*
D03*
Y464843D02*
D03*
X856299Y489843D02*
D03*
X892079D02*
D03*
X787402Y504843D02*
D03*
Y499843D02*
D03*
Y494842D02*
D03*
Y509842D02*
D03*
X823181D02*
D03*
Y504843D02*
D03*
Y499843D02*
D03*
Y494842D02*
D03*
X787402Y484842D02*
D03*
Y469842D02*
D03*
Y464843D02*
D03*
Y479843D02*
D03*
Y474843D02*
D03*
X823181Y484842D02*
D03*
Y469842D02*
D03*
Y474843D02*
D03*
Y479843D02*
D03*
Y464843D02*
D03*
X787402Y489843D02*
D03*
X823181D02*
D03*
X531496Y504843D02*
D03*
Y499843D02*
D03*
Y494842D02*
D03*
Y509842D02*
D03*
X567276D02*
D03*
Y504843D02*
D03*
Y499843D02*
D03*
Y494842D02*
D03*
X531496Y484842D02*
D03*
Y469842D02*
D03*
Y464843D02*
D03*
Y479843D02*
D03*
Y474843D02*
D03*
X567276Y484842D02*
D03*
Y469842D02*
D03*
Y474843D02*
D03*
Y479843D02*
D03*
Y464843D02*
D03*
X531496Y489843D02*
D03*
X567276D02*
D03*
X994094Y504843D02*
D03*
Y499843D02*
D03*
Y494842D02*
D03*
Y509842D02*
D03*
X1029874D02*
D03*
Y504843D02*
D03*
Y499843D02*
D03*
Y494842D02*
D03*
X994094Y484842D02*
D03*
Y469842D02*
D03*
Y464843D02*
D03*
Y479843D02*
D03*
Y474843D02*
D03*
X1029874Y484842D02*
D03*
Y469842D02*
D03*
Y474843D02*
D03*
Y479843D02*
D03*
Y464843D02*
D03*
X994094Y489843D02*
D03*
X1029874D02*
D03*
X318898Y865079D02*
D03*
Y860079D02*
D03*
Y870079D02*
D03*
Y855079D02*
D03*
X339913Y870079D02*
D03*
Y865079D02*
D03*
Y860079D02*
D03*
Y855079D02*
D03*
X318898Y845079D02*
D03*
Y840079D02*
D03*
X339913Y845079D02*
D03*
Y840079D02*
D03*
X318898Y850079D02*
D03*
X339913D02*
D03*
X378937Y866063D02*
D03*
Y861063D02*
D03*
Y871063D02*
D03*
Y856063D02*
D03*
X399953Y871063D02*
D03*
Y866063D02*
D03*
Y861063D02*
D03*
Y856063D02*
D03*
X378937Y846063D02*
D03*
Y841063D02*
D03*
X399953Y846063D02*
D03*
Y841063D02*
D03*
X378937Y851063D02*
D03*
X399953D02*
D03*
X437992Y870000D02*
D03*
Y875000D02*
D03*
Y860000D02*
D03*
Y855000D02*
D03*
Y865000D02*
D03*
Y845000D02*
D03*
Y840000D02*
D03*
X458024Y875000D02*
D03*
Y870000D02*
D03*
Y860000D02*
D03*
Y855000D02*
D03*
Y865000D02*
D03*
Y845000D02*
D03*
Y840000D02*
D03*
X437992Y850000D02*
D03*
X458024D02*
D03*
X787402Y888701D02*
D03*
Y883701D02*
D03*
Y878701D02*
D03*
Y893701D02*
D03*
X823181D02*
D03*
Y888701D02*
D03*
Y883701D02*
D03*
Y878701D02*
D03*
X787402Y868701D02*
D03*
Y853701D02*
D03*
Y848701D02*
D03*
Y863701D02*
D03*
Y858701D02*
D03*
X823181Y868701D02*
D03*
Y853701D02*
D03*
Y858701D02*
D03*
Y863701D02*
D03*
Y848701D02*
D03*
X787402Y873701D02*
D03*
X823181D02*
D03*
X925197Y888701D02*
D03*
Y883701D02*
D03*
Y878701D02*
D03*
Y893701D02*
D03*
X960976D02*
D03*
Y888701D02*
D03*
Y883701D02*
D03*
Y878701D02*
D03*
X925197Y868701D02*
D03*
Y853701D02*
D03*
Y848701D02*
D03*
Y863701D02*
D03*
Y858701D02*
D03*
X960976Y868701D02*
D03*
Y853701D02*
D03*
Y858701D02*
D03*
Y863701D02*
D03*
Y848701D02*
D03*
X925197Y873701D02*
D03*
X960976D02*
D03*
X318898Y806024D02*
D03*
Y801024D02*
D03*
Y811024D02*
D03*
Y796024D02*
D03*
X339913Y811024D02*
D03*
Y806024D02*
D03*
Y801024D02*
D03*
Y796024D02*
D03*
X318898Y786024D02*
D03*
Y781024D02*
D03*
X339913Y786024D02*
D03*
Y781024D02*
D03*
X318898Y791024D02*
D03*
X339913D02*
D03*
X378937Y807008D02*
D03*
Y802008D02*
D03*
Y812008D02*
D03*
Y797008D02*
D03*
X399953Y812008D02*
D03*
Y807008D02*
D03*
Y802008D02*
D03*
Y797008D02*
D03*
X378937Y787008D02*
D03*
Y782008D02*
D03*
X399953Y787008D02*
D03*
Y782008D02*
D03*
X378937Y792008D02*
D03*
X399953D02*
D03*
X438976Y809961D02*
D03*
Y814961D02*
D03*
Y799961D02*
D03*
Y794961D02*
D03*
Y804961D02*
D03*
Y784961D02*
D03*
Y779961D02*
D03*
X459008Y814961D02*
D03*
Y809961D02*
D03*
Y799961D02*
D03*
Y794961D02*
D03*
Y804961D02*
D03*
Y784961D02*
D03*
Y779961D02*
D03*
X438976Y789961D02*
D03*
X459008D02*
D03*
X698748Y807650D02*
D03*
Y802650D02*
D03*
Y812650D02*
D03*
Y797650D02*
D03*
X719764Y812650D02*
D03*
Y807650D02*
D03*
Y802650D02*
D03*
Y797650D02*
D03*
X698748Y787650D02*
D03*
Y782650D02*
D03*
X719764Y787650D02*
D03*
Y782650D02*
D03*
X698748Y792650D02*
D03*
X719764D02*
D03*
X925197Y819803D02*
D03*
Y814803D02*
D03*
Y809803D02*
D03*
Y824803D02*
D03*
X960976D02*
D03*
Y819803D02*
D03*
Y814803D02*
D03*
Y809803D02*
D03*
X925197Y799803D02*
D03*
Y784803D02*
D03*
Y779803D02*
D03*
Y794803D02*
D03*
Y789803D02*
D03*
X960976Y799803D02*
D03*
Y784803D02*
D03*
Y789803D02*
D03*
Y794803D02*
D03*
Y779803D02*
D03*
X925197Y804803D02*
D03*
X960976D02*
D03*
X531496Y887716D02*
D03*
Y882716D02*
D03*
Y877717D02*
D03*
Y892717D02*
D03*
X567276D02*
D03*
Y887716D02*
D03*
Y882716D02*
D03*
Y877717D02*
D03*
X531496Y867717D02*
D03*
Y852717D02*
D03*
Y847717D02*
D03*
Y862716D02*
D03*
Y857716D02*
D03*
X567276Y867717D02*
D03*
Y852717D02*
D03*
Y857716D02*
D03*
Y862716D02*
D03*
Y847717D02*
D03*
X531496Y872717D02*
D03*
X567276D02*
D03*
X856299Y888701D02*
D03*
Y883701D02*
D03*
Y878701D02*
D03*
Y893701D02*
D03*
X892079D02*
D03*
Y888701D02*
D03*
Y883701D02*
D03*
Y878701D02*
D03*
X856299Y868701D02*
D03*
Y853701D02*
D03*
Y848701D02*
D03*
Y863701D02*
D03*
Y858701D02*
D03*
X892079Y868701D02*
D03*
Y853701D02*
D03*
Y858701D02*
D03*
Y863701D02*
D03*
Y848701D02*
D03*
X856299Y873701D02*
D03*
X892079D02*
D03*
X994094Y888701D02*
D03*
Y883701D02*
D03*
Y878701D02*
D03*
Y893701D02*
D03*
X1029874D02*
D03*
Y888701D02*
D03*
Y883701D02*
D03*
Y878701D02*
D03*
X994094Y868701D02*
D03*
Y853701D02*
D03*
Y848701D02*
D03*
Y863701D02*
D03*
Y858701D02*
D03*
X1029874Y868701D02*
D03*
Y853701D02*
D03*
Y858701D02*
D03*
Y863701D02*
D03*
Y848701D02*
D03*
X994094Y873701D02*
D03*
X1029874D02*
D03*
X856299Y819803D02*
D03*
Y814803D02*
D03*
Y809803D02*
D03*
Y824803D02*
D03*
X892079D02*
D03*
Y819803D02*
D03*
Y814803D02*
D03*
Y809803D02*
D03*
X856299Y799803D02*
D03*
Y784803D02*
D03*
Y779803D02*
D03*
Y794803D02*
D03*
Y789803D02*
D03*
X892079Y799803D02*
D03*
Y784803D02*
D03*
Y789803D02*
D03*
Y794803D02*
D03*
Y779803D02*
D03*
X856299Y804803D02*
D03*
X892079D02*
D03*
X787402Y819803D02*
D03*
Y814803D02*
D03*
Y809803D02*
D03*
Y824803D02*
D03*
X823181D02*
D03*
Y819803D02*
D03*
Y814803D02*
D03*
Y809803D02*
D03*
X787402Y799803D02*
D03*
Y784803D02*
D03*
Y779803D02*
D03*
Y794803D02*
D03*
Y789803D02*
D03*
X823181Y799803D02*
D03*
Y784803D02*
D03*
Y789803D02*
D03*
Y794803D02*
D03*
Y779803D02*
D03*
X787402Y804803D02*
D03*
X823181D02*
D03*
X531496Y819803D02*
D03*
Y814803D02*
D03*
Y809803D02*
D03*
Y824803D02*
D03*
X567276D02*
D03*
Y819803D02*
D03*
Y814803D02*
D03*
Y809803D02*
D03*
X531496Y799803D02*
D03*
Y784803D02*
D03*
Y779803D02*
D03*
Y794803D02*
D03*
Y789803D02*
D03*
X567276Y799803D02*
D03*
Y784803D02*
D03*
Y789803D02*
D03*
Y794803D02*
D03*
Y779803D02*
D03*
X531496Y804803D02*
D03*
X567276D02*
D03*
X994094Y819803D02*
D03*
Y814803D02*
D03*
Y809803D02*
D03*
Y824803D02*
D03*
X1029874D02*
D03*
Y819803D02*
D03*
Y814803D02*
D03*
Y809803D02*
D03*
X994094Y799803D02*
D03*
Y784803D02*
D03*
Y779803D02*
D03*
Y794803D02*
D03*
Y789803D02*
D03*
X1029874Y799803D02*
D03*
Y784803D02*
D03*
Y789803D02*
D03*
Y794803D02*
D03*
Y779803D02*
D03*
X994094Y804803D02*
D03*
X1029874D02*
D03*
D80*
X1115035Y236535D02*
D03*
Y249035D02*
D03*
Y551496D02*
D03*
Y563996D02*
D03*
Y866457D02*
D03*
Y878957D02*
D03*
D81*
X1064035Y188035D02*
D03*
X1076535D02*
D03*
X1064035Y502996D02*
D03*
X1076535D02*
D03*
X1064035Y817957D02*
D03*
X1076535D02*
D03*
D82*
X1060535Y211535D02*
D03*
X1080535D02*
D03*
X1070535D02*
D03*
X1060535Y526496D02*
D03*
X1080535D02*
D03*
X1070535D02*
D03*
X1060535Y841457D02*
D03*
X1080535D02*
D03*
X1070535D02*
D03*
D83*
Y249035D02*
D03*
Y563996D02*
D03*
Y878957D02*
D03*
D84*
X1150445Y79465D02*
D03*
Y66065D02*
D03*
Y394425D02*
D03*
Y381025D02*
D03*
Y709386D02*
D03*
Y695986D02*
D03*
D85*
X1188976Y218504D02*
D03*
Y194095D02*
D03*
X1125984Y218504D02*
D03*
Y194095D02*
D03*
X1188976Y533465D02*
D03*
Y509055D02*
D03*
X1125984Y533465D02*
D03*
Y509055D02*
D03*
X1188976Y848425D02*
D03*
Y824016D02*
D03*
X1125984Y848425D02*
D03*
Y824016D02*
D03*
D86*
X216535Y164961D02*
D03*
X219685D02*
D03*
X225984D02*
D03*
X222835D02*
D03*
X229134D02*
D03*
X232283D02*
D03*
X238583D02*
D03*
X235433D02*
D03*
X216535Y227953D02*
D03*
X219685D02*
D03*
X225984D02*
D03*
X222835D02*
D03*
X229134D02*
D03*
X232283D02*
D03*
X238583D02*
D03*
X235433D02*
D03*
X248031Y164961D02*
D03*
X260630D02*
D03*
X263779D02*
D03*
X257480D02*
D03*
X254331D02*
D03*
X251181D02*
D03*
X244882D02*
D03*
X248031Y227953D02*
D03*
X260630D02*
D03*
X263779D02*
D03*
X257480D02*
D03*
X254331D02*
D03*
X251181D02*
D03*
X244882D02*
D03*
X241732Y164961D02*
D03*
Y227953D02*
D03*
X216535Y479921D02*
D03*
X219685D02*
D03*
X225984D02*
D03*
X222835D02*
D03*
X229134D02*
D03*
X232283D02*
D03*
X238583D02*
D03*
X235433D02*
D03*
X216535Y542913D02*
D03*
X219685D02*
D03*
X225984D02*
D03*
X222835D02*
D03*
X229134D02*
D03*
X232283D02*
D03*
X238583D02*
D03*
X235433D02*
D03*
X248031Y479921D02*
D03*
X260630D02*
D03*
X263779D02*
D03*
X257480D02*
D03*
X254331D02*
D03*
X251181D02*
D03*
X244882D02*
D03*
X248031Y542913D02*
D03*
X260630D02*
D03*
X263779D02*
D03*
X257480D02*
D03*
X254331D02*
D03*
X251181D02*
D03*
X244882D02*
D03*
X241732Y479921D02*
D03*
Y542913D02*
D03*
X216535Y794882D02*
D03*
X219685D02*
D03*
X225984D02*
D03*
X222835D02*
D03*
X229134D02*
D03*
X232283D02*
D03*
X238583D02*
D03*
X235433D02*
D03*
X216535Y857874D02*
D03*
X219685D02*
D03*
X225984D02*
D03*
X222835D02*
D03*
X229134D02*
D03*
X232283D02*
D03*
X238583D02*
D03*
X235433D02*
D03*
X248031Y794882D02*
D03*
X260630D02*
D03*
X263779D02*
D03*
X257480D02*
D03*
X254331D02*
D03*
X251181D02*
D03*
X244882D02*
D03*
X248031Y857874D02*
D03*
X260630D02*
D03*
X263779D02*
D03*
X257480D02*
D03*
X254331D02*
D03*
X251181D02*
D03*
X244882D02*
D03*
X241732Y794882D02*
D03*
Y857874D02*
D03*
D87*
X208661Y173228D02*
D03*
Y198425D02*
D03*
Y201575D02*
D03*
Y188976D02*
D03*
Y192126D02*
D03*
Y195276D02*
D03*
Y179528D02*
D03*
Y182677D02*
D03*
Y185827D02*
D03*
Y217323D02*
D03*
Y220472D02*
D03*
Y207874D02*
D03*
Y211024D02*
D03*
Y214173D02*
D03*
X271654Y173228D02*
D03*
Y198425D02*
D03*
Y201575D02*
D03*
Y188976D02*
D03*
Y192126D02*
D03*
Y195276D02*
D03*
Y179528D02*
D03*
Y182677D02*
D03*
Y185827D02*
D03*
Y217323D02*
D03*
Y220472D02*
D03*
Y207874D02*
D03*
Y211024D02*
D03*
Y214173D02*
D03*
X208661Y204724D02*
D03*
Y176378D02*
D03*
X271654Y204724D02*
D03*
Y176378D02*
D03*
X208661Y488189D02*
D03*
Y513386D02*
D03*
Y516535D02*
D03*
Y503937D02*
D03*
Y507087D02*
D03*
Y510236D02*
D03*
Y494488D02*
D03*
Y497638D02*
D03*
Y500787D02*
D03*
Y532283D02*
D03*
Y535433D02*
D03*
Y522835D02*
D03*
Y525984D02*
D03*
Y529134D02*
D03*
X271654Y488189D02*
D03*
Y513386D02*
D03*
Y516535D02*
D03*
Y503937D02*
D03*
Y507087D02*
D03*
Y510236D02*
D03*
Y494488D02*
D03*
Y497638D02*
D03*
Y500787D02*
D03*
Y532283D02*
D03*
Y535433D02*
D03*
Y522835D02*
D03*
Y525984D02*
D03*
Y529134D02*
D03*
X208661Y519685D02*
D03*
Y491339D02*
D03*
X271654Y519685D02*
D03*
Y491339D02*
D03*
X208661Y803150D02*
D03*
Y828347D02*
D03*
Y831496D02*
D03*
Y818898D02*
D03*
Y822047D02*
D03*
Y825197D02*
D03*
Y809449D02*
D03*
Y812598D02*
D03*
Y815748D02*
D03*
Y847244D02*
D03*
Y850394D02*
D03*
Y837795D02*
D03*
Y840945D02*
D03*
Y844094D02*
D03*
X271654Y803150D02*
D03*
Y828347D02*
D03*
Y831496D02*
D03*
Y818898D02*
D03*
Y822047D02*
D03*
Y825197D02*
D03*
Y809449D02*
D03*
Y812598D02*
D03*
Y815748D02*
D03*
Y847244D02*
D03*
Y850394D02*
D03*
Y837795D02*
D03*
Y840945D02*
D03*
Y844094D02*
D03*
X208661Y834646D02*
D03*
Y806299D02*
D03*
X271654Y834646D02*
D03*
Y806299D02*
D03*
D88*
X1131299Y31496D02*
D03*
Y40551D02*
D03*
X1112795Y35827D02*
D03*
X1131299Y346457D02*
D03*
Y355512D02*
D03*
X1112795Y350787D02*
D03*
X1131299Y661417D02*
D03*
Y670472D02*
D03*
X1112795Y665748D02*
D03*
D89*
X41535Y270630D02*
D03*
Y285630D02*
D03*
Y585591D02*
D03*
Y600591D02*
D03*
Y900551D02*
D03*
Y915551D02*
D03*
D90*
X1095472Y90551D02*
D03*
Y85551D02*
D03*
X1123378Y90551D02*
D03*
Y85551D02*
D03*
X1095472Y70551D02*
D03*
Y55551D02*
D03*
Y60551D02*
D03*
Y65551D02*
D03*
Y75551D02*
D03*
X1123378D02*
D03*
Y65551D02*
D03*
Y55551D02*
D03*
Y60551D02*
D03*
Y70551D02*
D03*
X1095472Y80551D02*
D03*
X1123378D02*
D03*
X1095472Y405512D02*
D03*
Y400512D02*
D03*
X1123378Y405512D02*
D03*
Y400512D02*
D03*
X1095472Y385512D02*
D03*
Y370512D02*
D03*
Y375512D02*
D03*
Y380512D02*
D03*
Y390512D02*
D03*
X1123378D02*
D03*
Y380512D02*
D03*
Y370512D02*
D03*
Y375512D02*
D03*
Y385512D02*
D03*
X1095472Y395512D02*
D03*
X1123378D02*
D03*
X1095472Y720472D02*
D03*
Y715472D02*
D03*
X1123378Y720472D02*
D03*
Y715472D02*
D03*
X1095472Y700472D02*
D03*
Y685472D02*
D03*
Y690472D02*
D03*
Y695472D02*
D03*
Y705472D02*
D03*
X1123378D02*
D03*
Y695472D02*
D03*
Y685472D02*
D03*
Y690472D02*
D03*
Y700472D02*
D03*
X1095472Y710472D02*
D03*
X1123378D02*
D03*
D91*
X123031Y117126D02*
D03*
X105315D02*
D03*
X123031Y142717D02*
D03*
X105315D02*
D03*
X91535Y117126D02*
D03*
X73819D02*
D03*
X91535Y142717D02*
D03*
X73819D02*
D03*
X197835Y325787D02*
D03*
X180118D02*
D03*
X123031Y432087D02*
D03*
X105315D02*
D03*
X123031Y457677D02*
D03*
X105315D02*
D03*
X91535Y432087D02*
D03*
X73819D02*
D03*
X91535Y457677D02*
D03*
X73819D02*
D03*
X197835Y640748D02*
D03*
X180118D02*
D03*
X123031Y747047D02*
D03*
X105315D02*
D03*
X123031Y772638D02*
D03*
X105315D02*
D03*
X91535Y747047D02*
D03*
X73819D02*
D03*
X91535Y772638D02*
D03*
X73819D02*
D03*
X197835Y955709D02*
D03*
X180118D02*
D03*
D92*
X268701Y90748D02*
D03*
X1210630Y145669D02*
D03*
X268701Y405709D02*
D03*
X1210630Y460630D02*
D03*
X268701Y720669D02*
D03*
X1210630Y775591D02*
D03*
D93*
X1089035Y157535D02*
D03*
X167323Y216535D02*
D03*
X1137795Y309055D02*
D03*
Y279055D02*
D03*
X1089035Y472496D02*
D03*
X167323Y531496D02*
D03*
X1137795Y624016D02*
D03*
Y594016D02*
D03*
X1089035Y787457D02*
D03*
X167323Y846457D02*
D03*
X1137795Y938976D02*
D03*
Y908976D02*
D03*
D94*
X1099035Y157535D02*
D03*
X157323Y226535D02*
D03*
X147323D02*
D03*
X157323Y216535D02*
D03*
X147323D02*
D03*
X167323Y226535D02*
D03*
X137323D02*
D03*
Y216535D02*
D03*
X291748Y40728D02*
D03*
X301748D02*
D03*
Y50728D02*
D03*
X321748Y40728D02*
D03*
X331748D02*
D03*
X321748Y50728D02*
D03*
X331748D02*
D03*
X351748Y40728D02*
D03*
X361748D02*
D03*
X351748Y50728D02*
D03*
X361748D02*
D03*
X381748Y40728D02*
D03*
X391748D02*
D03*
X381748Y50728D02*
D03*
X391748D02*
D03*
X411748Y40728D02*
D03*
Y50728D02*
D03*
X311748Y40728D02*
D03*
X341748D02*
D03*
X371748D02*
D03*
X401748D02*
D03*
X311748Y50728D02*
D03*
X341748D02*
D03*
X371748D02*
D03*
X401748D02*
D03*
X1157795Y309055D02*
D03*
Y279055D02*
D03*
X1177795Y309055D02*
D03*
Y279055D02*
D03*
X1099035Y472496D02*
D03*
X157323Y541496D02*
D03*
X147323D02*
D03*
X157323Y531496D02*
D03*
X147323D02*
D03*
X167323Y541496D02*
D03*
X137323D02*
D03*
Y531496D02*
D03*
X291748Y355689D02*
D03*
X301748D02*
D03*
Y365689D02*
D03*
X321748Y355689D02*
D03*
X331748D02*
D03*
X321748Y365689D02*
D03*
X331748D02*
D03*
X351748Y355689D02*
D03*
X361748D02*
D03*
X351748Y365689D02*
D03*
X361748D02*
D03*
X381748Y355689D02*
D03*
X391748D02*
D03*
X381748Y365689D02*
D03*
X391748D02*
D03*
X411748Y355689D02*
D03*
Y365689D02*
D03*
X311748Y355689D02*
D03*
X341748D02*
D03*
X371748D02*
D03*
X401748D02*
D03*
X311748Y365689D02*
D03*
X341748D02*
D03*
X371748D02*
D03*
X401748D02*
D03*
X1157795Y624016D02*
D03*
Y594016D02*
D03*
X1177795Y624016D02*
D03*
Y594016D02*
D03*
X1099035Y787457D02*
D03*
X157323Y856457D02*
D03*
X147323D02*
D03*
X157323Y846457D02*
D03*
X147323D02*
D03*
X167323Y856457D02*
D03*
X137323D02*
D03*
Y846457D02*
D03*
X291748Y670650D02*
D03*
X301748D02*
D03*
Y680650D02*
D03*
X321748Y670650D02*
D03*
X331748D02*
D03*
X321748Y680650D02*
D03*
X331748D02*
D03*
X351748Y670650D02*
D03*
X361748D02*
D03*
X351748Y680650D02*
D03*
X361748D02*
D03*
X381748Y670650D02*
D03*
X391748D02*
D03*
X381748Y680650D02*
D03*
X391748D02*
D03*
X411748Y670650D02*
D03*
Y680650D02*
D03*
X311748Y670650D02*
D03*
X341748D02*
D03*
X371748D02*
D03*
X401748D02*
D03*
X311748Y680650D02*
D03*
X341748D02*
D03*
X371748D02*
D03*
X401748D02*
D03*
X1157795Y938976D02*
D03*
Y908976D02*
D03*
X1177795Y938976D02*
D03*
Y908976D02*
D03*
D95*
X82480Y312480D02*
D03*
X102480D02*
D03*
Y282480D02*
D03*
X122480Y312480D02*
D03*
Y282480D02*
D03*
X242717Y35551D02*
D03*
X222716D02*
D03*
Y65551D02*
D03*
X314803Y269843D02*
D03*
X304803D02*
D03*
X284803D02*
D03*
X314803Y259842D02*
D03*
X304803D02*
D03*
X284803D02*
D03*
X324803Y269843D02*
D03*
X294803D02*
D03*
Y259842D02*
D03*
X194724Y269843D02*
D03*
X184724D02*
D03*
X164724D02*
D03*
X194724Y259842D02*
D03*
X184724D02*
D03*
X164724D02*
D03*
X204724Y269843D02*
D03*
X174724D02*
D03*
Y259842D02*
D03*
X82480Y627441D02*
D03*
X102480D02*
D03*
Y597441D02*
D03*
X122480Y627441D02*
D03*
Y597441D02*
D03*
X242717Y350512D02*
D03*
X222716D02*
D03*
Y380512D02*
D03*
X314803Y584803D02*
D03*
X304803D02*
D03*
X284803D02*
D03*
X314803Y574803D02*
D03*
X304803D02*
D03*
X284803D02*
D03*
X324803Y584803D02*
D03*
X294803D02*
D03*
Y574803D02*
D03*
X194724Y584803D02*
D03*
X184724D02*
D03*
X164724D02*
D03*
X194724Y574803D02*
D03*
X184724D02*
D03*
X164724D02*
D03*
X204724Y584803D02*
D03*
X174724D02*
D03*
Y574803D02*
D03*
X82480Y942402D02*
D03*
X102480D02*
D03*
Y912402D02*
D03*
X122480Y942402D02*
D03*
Y912402D02*
D03*
X242717Y665472D02*
D03*
X222716D02*
D03*
Y695472D02*
D03*
X314803Y899764D02*
D03*
X304803D02*
D03*
X284803D02*
D03*
X314803Y889764D02*
D03*
X304803D02*
D03*
X284803D02*
D03*
X324803Y899764D02*
D03*
X294803D02*
D03*
Y889764D02*
D03*
X194724Y899764D02*
D03*
X184724D02*
D03*
X164724D02*
D03*
X194724Y889764D02*
D03*
X184724D02*
D03*
X164724D02*
D03*
X204724Y899764D02*
D03*
X174724D02*
D03*
Y889764D02*
D03*
D96*
X82480Y282480D02*
D03*
X242717Y65551D02*
D03*
X324803Y259842D02*
D03*
X204724D02*
D03*
X291748Y50728D02*
D03*
X82480Y597441D02*
D03*
X242717Y380512D02*
D03*
X324803Y574803D02*
D03*
X204724D02*
D03*
X291748Y365689D02*
D03*
X82480Y912402D02*
D03*
X242717Y695472D02*
D03*
X324803Y889764D02*
D03*
X204724D02*
D03*
X291748Y680650D02*
D03*
D97*
X452756Y314961D02*
D03*
Y39370D02*
D03*
X826772Y314961D02*
D03*
Y39370D02*
D03*
X1220472D02*
D03*
Y314961D02*
D03*
X39370Y39370D02*
D03*
Y314961D02*
D03*
X452756Y629921D02*
D03*
Y354331D02*
D03*
X826772Y629921D02*
D03*
Y354331D02*
D03*
X1220472D02*
D03*
Y629921D02*
D03*
X39370Y354331D02*
D03*
Y629921D02*
D03*
X452756Y944882D02*
D03*
Y669291D02*
D03*
X826772Y944882D02*
D03*
Y669291D02*
D03*
X1220472D02*
D03*
Y944882D02*
D03*
X39370Y669291D02*
D03*
Y944882D02*
D03*
D98*
X29724Y233465D02*
D03*
Y548425D02*
D03*
Y863386D02*
D03*
D99*
X175197Y315945D02*
D03*
X202756D02*
D03*
X1177685Y126130D02*
D03*
Y62941D02*
D03*
X175197Y630905D02*
D03*
X202756D02*
D03*
X1177685Y441090D02*
D03*
Y377902D02*
D03*
X175197Y945866D02*
D03*
X202756D02*
D03*
X1177685Y756051D02*
D03*
Y692862D02*
D03*
D100*
X1089905Y213035D02*
D03*
X1050535D02*
D03*
X1089905Y527996D02*
D03*
X1050535D02*
D03*
X1089905Y842957D02*
D03*
X1050535D02*
D03*
D101*
X1199535Y82035D02*
D03*
Y102035D02*
D03*
Y112035D02*
D03*
Y92035D02*
D03*
X1189535Y77035D02*
D03*
Y97035D02*
D03*
Y107035D02*
D03*
Y87035D02*
D03*
X1199535Y396996D02*
D03*
Y416996D02*
D03*
Y426996D02*
D03*
Y406996D02*
D03*
X1189535Y391996D02*
D03*
Y411996D02*
D03*
Y421996D02*
D03*
Y401996D02*
D03*
X1199535Y711957D02*
D03*
Y731957D02*
D03*
Y741957D02*
D03*
Y721957D02*
D03*
X1189535Y706957D02*
D03*
Y726957D02*
D03*
Y736957D02*
D03*
Y716957D02*
D03*
D102*
X1224535Y118748D02*
D03*
Y70323D02*
D03*
Y433709D02*
D03*
Y385283D02*
D03*
Y748669D02*
D03*
Y700244D02*
D03*
D103*
X191929Y134843D02*
D03*
X531496D02*
D03*
X856299D02*
D03*
X925197D02*
D03*
X275394D02*
D03*
X693748Y134728D02*
D03*
X787402Y134843D02*
D03*
X319291Y135039D02*
D03*
X386614Y133071D02*
D03*
X433071Y134646D02*
D03*
X992126Y135039D02*
D03*
X191929Y449803D02*
D03*
X531496D02*
D03*
X856299D02*
D03*
X925197D02*
D03*
X275394D02*
D03*
X693748Y449689D02*
D03*
X787402Y449803D02*
D03*
X319291Y450000D02*
D03*
X386614Y448032D02*
D03*
X433071Y449606D02*
D03*
X992126Y450000D02*
D03*
X191929Y764764D02*
D03*
X531496D02*
D03*
X856299D02*
D03*
X925197D02*
D03*
X275394D02*
D03*
X693748Y764650D02*
D03*
X787402Y764764D02*
D03*
X319291Y764961D02*
D03*
X386614Y762992D02*
D03*
X433071Y764567D02*
D03*
X992126Y764961D02*
D03*
D104*
X1082535Y108535D02*
D03*
X1090035Y116035D02*
D03*
X1127535Y241535D02*
D03*
X1161035Y87035D02*
D03*
X1150535Y90535D02*
D03*
X1093035Y188035D02*
D03*
X1141035Y158535D02*
D03*
X1083535Y143535D02*
D03*
X1174535Y77535D02*
D03*
X1148035Y166535D02*
D03*
X1115354Y150787D02*
D03*
X1218504Y108268D02*
D03*
X1082535Y423496D02*
D03*
X1090035Y430996D02*
D03*
X1127535Y556496D02*
D03*
X1161035Y401996D02*
D03*
X1150535Y405496D02*
D03*
X1093035Y502996D02*
D03*
X1141035Y473496D02*
D03*
X1083535Y458496D02*
D03*
X1174535Y392496D02*
D03*
X1148035Y481496D02*
D03*
X1115354Y465748D02*
D03*
X1218504Y423228D02*
D03*
X1082535Y738457D02*
D03*
X1090035Y745957D02*
D03*
X1127535Y871457D02*
D03*
X1161035Y716957D02*
D03*
X1150535Y720457D02*
D03*
X1093035Y817957D02*
D03*
X1141035Y788457D02*
D03*
X1083535Y773457D02*
D03*
X1174535Y707457D02*
D03*
X1148035Y796457D02*
D03*
X1115354Y780709D02*
D03*
X1218504Y738189D02*
D03*
M02*
