G04 Layer_Physical_Order=2*
G04 Layer_Color=16711680*
%FSLAX25Y25*%
%MOIN*%
G70*
G01*
G75*
%ADD30C,0.05905*%
%ADD31C,0.07874*%
%ADD32C,0.01181*%
%ADD33C,0.05512*%
%ADD37C,0.03937*%
%ADD40C,0.07087*%
%ADD43C,0.02362*%
%ADD51C,0.09842*%
%ADD52C,0.05512*%
%ADD53R,0.05512X0.05512*%
%ADD54C,0.07874*%
%ADD55R,0.05512X0.05512*%
%ADD56R,0.07087X0.07087*%
%ADD57C,0.07087*%
%ADD58C,0.08661*%
%ADD59R,0.08661X0.08661*%
%ADD60C,0.13386*%
%ADD61R,0.08268X0.08268*%
%ADD62C,0.08268*%
%ADD63C,0.09842*%
%ADD64C,0.06299*%
%ADD65C,0.05905*%
%ADD66C,0.12795*%
%ADD67C,0.03937*%
%ADD68C,0.04000*%
%ADD69R,0.02756X0.04724*%
%ADD70C,0.08268*%
D30*
X137795Y226378D02*
Y230315D01*
X137638Y226535D02*
X137795Y226378D01*
X137323Y226535D02*
X137638D01*
X159606Y269843D02*
X164724D01*
X159606D02*
Y271153D01*
X284803Y269843D02*
X285433Y270472D01*
X324748Y269728D02*
Y269787D01*
X324803Y269843D01*
X324748Y269728D02*
X324748Y269788D01*
X870079Y290354D02*
Y290512D01*
X1122047Y123031D02*
X1138780D01*
X91535Y117126D02*
Y142717D01*
X123031Y117126D02*
Y142717D01*
X159606Y271153D02*
X168965Y280512D01*
X285433Y270472D02*
Y280512D01*
X321850D02*
X324803Y277559D01*
X324748Y269788D02*
X324803Y277559D01*
X155591Y265827D02*
X159606Y269843D01*
X184449Y270118D02*
X184724Y269843D01*
X184449Y280512D02*
X285433D01*
X468504Y123031D02*
X492126D01*
X429134D02*
X468504D01*
X555118D02*
X594488D01*
X618110D01*
X720472D02*
X744095D01*
X681102D02*
X720472D01*
X657480D02*
X681102D01*
X783465D02*
X807087D01*
X846457D01*
X870079D01*
X909449D02*
X933071D01*
X972441D01*
X996063D01*
X909449Y290354D02*
Y290512D01*
X1035433Y123031D02*
X1059055D01*
X1098425D01*
X1122047D01*
X1177165Y161417D02*
X1203740D01*
X1210630Y168307D01*
X155591Y248465D02*
Y265827D01*
X154528Y247402D02*
X155591Y248465D01*
X154528Y247047D02*
Y247402D01*
X137795Y230315D02*
X154528Y247047D01*
X184449Y270118D02*
Y280512D01*
X1138780Y123031D02*
X1177165Y161417D01*
X405512Y123031D02*
X429134D01*
X285433Y280512D02*
X321850D01*
X168965D02*
X184449D01*
X531496Y123031D02*
X555118D01*
X744095D02*
X783465D01*
X492126D02*
X531496D01*
X618110D02*
X657480D01*
X996063D02*
X1035433D01*
X1093035Y188035D02*
X1115354Y165717D01*
Y150787D02*
Y165717D01*
X137795Y541339D02*
Y545276D01*
X137638Y541496D02*
X137795Y541339D01*
X137323Y541496D02*
X137638D01*
X159606Y584803D02*
X164724D01*
X159606D02*
Y586114D01*
X284803Y584803D02*
X285433Y585433D01*
X324748Y584689D02*
Y584748D01*
X324803Y584803D01*
X324748Y584689D02*
X324748Y584749D01*
X870079Y605315D02*
Y605472D01*
X1122047Y437992D02*
X1138780D01*
X91535Y432087D02*
Y457677D01*
X123031Y432087D02*
Y457677D01*
X159606Y586114D02*
X168965Y595472D01*
X285433Y585433D02*
Y595472D01*
X321850D02*
X324803Y592520D01*
X324748Y584749D02*
X324803Y592520D01*
X155591Y580787D02*
X159606Y584803D01*
X184449Y585079D02*
X184724Y584803D01*
X184449Y595472D02*
X285433D01*
X468504Y437992D02*
X492126D01*
X429134D02*
X468504D01*
X555118D02*
X594488D01*
X618110D01*
X720472D02*
X744095D01*
X681102D02*
X720472D01*
X657480D02*
X681102D01*
X783465D02*
X807087D01*
X846457D01*
X870079D01*
X909449D02*
X933071D01*
X972441D01*
X996063D01*
X909449Y605315D02*
Y605472D01*
X1035433Y437992D02*
X1059055D01*
X1098425D01*
X1122047D01*
X1177165Y476378D02*
X1203740D01*
X1210630Y483268D01*
X155591Y563425D02*
Y580787D01*
X154528Y562362D02*
X155591Y563425D01*
X154528Y562008D02*
Y562362D01*
X137795Y545276D02*
X154528Y562008D01*
X184449Y585079D02*
Y595472D01*
X1138780Y437992D02*
X1177165Y476378D01*
X405512Y437992D02*
X429134D01*
X285433Y595472D02*
X321850D01*
X168965D02*
X184449D01*
X531496Y437992D02*
X555118D01*
X744095D02*
X783465D01*
X492126D02*
X531496D01*
X618110D02*
X657480D01*
X996063D02*
X1035433D01*
X1093035Y502996D02*
X1115354Y480677D01*
Y465748D02*
Y480677D01*
X137795Y856299D02*
Y860236D01*
X137638Y856457D02*
X137795Y856299D01*
X137323Y856457D02*
X137638D01*
X159606Y899764D02*
X164724D01*
X159606D02*
Y901075D01*
X284803Y899764D02*
X285433Y900394D01*
X324748Y899650D02*
Y899709D01*
X324803Y899764D01*
X324748Y899650D02*
X324748Y899709D01*
X870079Y920276D02*
Y920433D01*
X1122047Y752953D02*
X1138780D01*
X91535Y747047D02*
Y772638D01*
X123031Y747047D02*
Y772638D01*
X159606Y901075D02*
X168965Y910433D01*
X285433Y900394D02*
Y910433D01*
X321850D02*
X324803Y907480D01*
X324748Y899709D02*
X324803Y907480D01*
X155591Y895748D02*
X159606Y899764D01*
X184449Y900039D02*
X184724Y899764D01*
X184449Y910433D02*
X285433D01*
X468504Y752953D02*
X492126D01*
X429134D02*
X468504D01*
X555118D02*
X594488D01*
X618110D01*
X720472D02*
X744095D01*
X681102D02*
X720472D01*
X657480D02*
X681102D01*
X783465D02*
X807087D01*
X846457D01*
X870079D01*
X909449D02*
X933071D01*
X972441D01*
X996063D01*
X909449Y920276D02*
Y920433D01*
X1035433Y752953D02*
X1059055D01*
X1098425D01*
X1122047D01*
X1177165Y791339D02*
X1203740D01*
X1210630Y798228D01*
X155591Y878386D02*
Y895748D01*
X154528Y877323D02*
X155591Y878386D01*
X154528Y876968D02*
Y877323D01*
X137795Y860236D02*
X154528Y876968D01*
X184449Y900039D02*
Y910433D01*
X1138780Y752953D02*
X1177165Y791339D01*
X405512Y752953D02*
X429134D01*
X285433Y910433D02*
X321850D01*
X168965D02*
X184449D01*
X531496Y752953D02*
X555118D01*
X744095D02*
X783465D01*
X492126D02*
X531496D01*
X618110D02*
X657480D01*
X996063D02*
X1035433D01*
X1093035Y817957D02*
X1115354Y795638D01*
Y780709D02*
Y795638D01*
D31*
X104921Y143110D02*
X105315Y142717D01*
Y143504D01*
X134449Y78150D02*
X134843Y77756D01*
X179173Y44842D02*
X179331Y45000D01*
Y59646D01*
X180118Y320866D02*
Y325787D01*
X175197Y315945D02*
X180118Y320866D01*
X492126Y290354D02*
X508622D01*
X510472Y292205D01*
Y292913D01*
X527047Y290354D02*
X531496D01*
X524488Y292913D02*
X527047Y290354D01*
X140354Y122638D02*
X152362D01*
X134449Y114764D02*
X140354Y122638D01*
X134449Y78150D02*
Y114764D01*
X179173Y33898D02*
Y44842D01*
X102480Y282480D02*
Y312480D01*
X240158Y290354D02*
X279528D01*
X177165D02*
X216535D01*
X240158D01*
X366142D02*
X405512D01*
X342520D02*
X366142D01*
X303150D02*
X342520D01*
X468504D02*
X492126D01*
X429134D02*
X468504D01*
X510472Y292913D02*
X524488D01*
X594488Y290354D02*
X618110D01*
X555118D02*
X594488D01*
X681102D02*
X720472D01*
X657480D02*
X681102D01*
X720472D02*
X744095D01*
X783465D02*
X807087D01*
X846457D02*
X870079D01*
X807087D02*
X846457D01*
X909449D02*
X933071D01*
X972441D02*
X996063D01*
X933071D02*
X972441D01*
X1035433D02*
X1059055D01*
X1098425D01*
X1122047D01*
X153150Y122638D02*
X153543Y123031D01*
X152756D02*
X153150Y122638D01*
X152362D02*
X152756Y123031D01*
X89173Y93898D02*
X99173D01*
X134843Y77756D02*
X152953Y59646D01*
X216535Y123031D02*
X240158D01*
X177165D02*
X216535D01*
X240158D02*
X279528D01*
X303150D02*
X342520D01*
X366142D01*
X405512D01*
X152953Y59646D02*
X179331D01*
X279528Y290354D02*
X303150D01*
X405512D02*
X429134D01*
X870079Y290512D02*
X909449D01*
X618110Y290354D02*
X657480D01*
X744095D02*
X783465D01*
X531496D02*
X555118D01*
X996063D02*
X1035433D01*
X279528Y123031D02*
X303150D01*
X153543D02*
X177165D01*
X56102Y110236D02*
Y181102D01*
Y110236D02*
X72441Y93898D01*
X89173D01*
X104921Y458071D02*
X105315Y457677D01*
Y458465D01*
X134449Y393110D02*
X134843Y392717D01*
X179173Y359803D02*
X179331Y359961D01*
Y374606D01*
X180118Y635827D02*
Y640748D01*
X175197Y630905D02*
X180118Y635827D01*
X492126Y605315D02*
X508622D01*
X510472Y607165D01*
Y607874D01*
X527047Y605315D02*
X531496D01*
X524488Y607874D02*
X527047Y605315D01*
X140354Y437598D02*
X152362D01*
X134449Y429724D02*
X140354Y437598D01*
X134449Y393110D02*
Y429724D01*
X179173Y348858D02*
Y359803D01*
X102480Y597441D02*
Y627441D01*
X240158Y605315D02*
X279528D01*
X177165D02*
X216535D01*
X240158D01*
X366142D02*
X405512D01*
X342520D02*
X366142D01*
X303150D02*
X342520D01*
X468504D02*
X492126D01*
X429134D02*
X468504D01*
X510472Y607874D02*
X524488D01*
X594488Y605315D02*
X618110D01*
X555118D02*
X594488D01*
X681102D02*
X720472D01*
X657480D02*
X681102D01*
X720472D02*
X744095D01*
X783465D02*
X807087D01*
X846457D02*
X870079D01*
X807087D02*
X846457D01*
X909449D02*
X933071D01*
X972441D02*
X996063D01*
X933071D02*
X972441D01*
X1035433D02*
X1059055D01*
X1098425D01*
X1122047D01*
X153150Y437598D02*
X153543Y437992D01*
X152756D02*
X153150Y437598D01*
X152362D02*
X152756Y437992D01*
X89173Y408858D02*
X99173D01*
X134843Y392717D02*
X152953Y374606D01*
X216535Y437992D02*
X240158D01*
X177165D02*
X216535D01*
X240158D02*
X279528D01*
X303150D02*
X342520D01*
X366142D01*
X405512D01*
X152953Y374606D02*
X179331D01*
X279528Y605315D02*
X303150D01*
X405512D02*
X429134D01*
X870079Y605472D02*
X909449D01*
X618110Y605315D02*
X657480D01*
X744095D02*
X783465D01*
X531496D02*
X555118D01*
X996063D02*
X1035433D01*
X279528Y437992D02*
X303150D01*
X153543D02*
X177165D01*
X56102Y425197D02*
Y496063D01*
Y425197D02*
X72441Y408858D01*
X89173D01*
X104921Y773032D02*
X105315Y772638D01*
Y773425D01*
X134449Y708071D02*
X134843Y707677D01*
X179173Y674764D02*
X179331Y674921D01*
Y689567D01*
X180118Y950787D02*
Y955709D01*
X175197Y945866D02*
X180118Y950787D01*
X492126Y920276D02*
X508622D01*
X510472Y922126D01*
Y922835D01*
X527047Y920276D02*
X531496D01*
X524488Y922835D02*
X527047Y920276D01*
X140354Y752559D02*
X152362D01*
X134449Y744685D02*
X140354Y752559D01*
X134449Y708071D02*
Y744685D01*
X179173Y663819D02*
Y674764D01*
X102480Y912402D02*
Y942402D01*
X240158Y920276D02*
X279528D01*
X177165D02*
X216535D01*
X240158D01*
X366142D02*
X405512D01*
X342520D02*
X366142D01*
X303150D02*
X342520D01*
X468504D02*
X492126D01*
X429134D02*
X468504D01*
X510472Y922835D02*
X524488D01*
X594488Y920276D02*
X618110D01*
X555118D02*
X594488D01*
X681102D02*
X720472D01*
X657480D02*
X681102D01*
X720472D02*
X744095D01*
X783465D02*
X807087D01*
X846457D02*
X870079D01*
X807087D02*
X846457D01*
X909449D02*
X933071D01*
X972441D02*
X996063D01*
X933071D02*
X972441D01*
X1035433D02*
X1059055D01*
X1098425D01*
X1122047D01*
X153150Y752559D02*
X153543Y752953D01*
X152756D02*
X153150Y752559D01*
X152362D02*
X152756Y752953D01*
X89173Y723819D02*
X99173D01*
X134843Y707677D02*
X152953Y689567D01*
X216535Y752953D02*
X240158D01*
X177165D02*
X216535D01*
X240158D02*
X279528D01*
X303150D02*
X342520D01*
X366142D01*
X405512D01*
X152953Y689567D02*
X179331D01*
X279528Y920276D02*
X303150D01*
X405512D02*
X429134D01*
X870079Y920433D02*
X909449D01*
X618110Y920276D02*
X657480D01*
X744095D02*
X783465D01*
X531496D02*
X555118D01*
X996063D02*
X1035433D01*
X279528Y752953D02*
X303150D01*
X153543D02*
X177165D01*
X56102Y740158D02*
Y811024D01*
Y740158D02*
X72441Y723819D01*
X89173D01*
D32*
X143110Y110433D02*
X154921Y98622D01*
X147835Y154528D02*
X148602Y155295D01*
X170748Y103228D02*
X172598Y101378D01*
X184843D01*
X177008Y148543D02*
X178504D01*
Y147638D02*
Y148543D01*
X167165Y144291D02*
X167480Y143976D01*
X165945Y144291D02*
X167165D01*
X160945Y147441D02*
X166004Y152500D01*
X179508D01*
X181968Y150039D01*
X180098Y155295D02*
X182953Y152441D01*
X179921Y164173D02*
X180512Y163583D01*
X177756Y177756D02*
X179921Y175591D01*
Y164173D02*
Y175591D01*
X169882Y178150D02*
X173425Y174606D01*
Y163976D02*
Y174606D01*
X163748Y198228D02*
X166732D01*
X172990Y204486D01*
X180433Y203043D02*
X180917Y202559D01*
X181299D01*
X176575Y236811D02*
X177205Y237441D01*
X185748Y225472D02*
X185787Y225512D01*
X177205Y237441D02*
X177417Y237228D01*
X178748D01*
X180433Y230827D02*
X180905Y231299D01*
X184724Y252441D02*
Y259842D01*
X163779D02*
X164724D01*
X173031Y250866D02*
X174724Y252559D01*
Y259842D01*
X196653Y109646D02*
X203571Y102728D01*
X191142Y109646D02*
X196653D01*
X193504Y105709D02*
X201378Y97835D01*
X188779Y107283D02*
X191142Y109646D01*
X198748Y184728D02*
Y184984D01*
X201142Y171181D02*
X204189Y174228D01*
X197136Y191841D02*
X198248Y190728D01*
X202992Y189228D02*
Y215484D01*
X202748Y225520D02*
Y225728D01*
X197835Y325787D02*
X198083Y326035D01*
X229724Y79331D02*
X245276D01*
X242748Y101728D02*
X244248Y103228D01*
X219248Y106728D02*
X220748Y108228D01*
X234055Y102728D02*
X237075Y105748D01*
X244685Y171102D02*
Y175000D01*
X226575Y210827D02*
X227118Y210283D01*
X236968Y214724D02*
X240787D01*
X235984Y212323D02*
X241772D01*
X245630Y190354D02*
Y198346D01*
X242795Y189488D02*
Y198898D01*
X235000Y209921D02*
X245866D01*
X238248Y239228D02*
X238748Y239728D01*
X243583Y235787D02*
X243937Y235433D01*
Y217874D02*
Y235433D01*
X234055Y224134D02*
X238898Y219291D01*
X234055Y224134D02*
Y240728D01*
X237185Y243858D01*
X231653Y220039D02*
Y242728D01*
X228872Y219435D02*
Y245144D01*
X221248Y252980D02*
Y259228D01*
X229748Y252819D02*
Y259228D01*
X225807Y248878D02*
X229748Y252819D01*
X269248Y165673D02*
Y167228D01*
Y165673D02*
X272913Y162008D01*
X273941Y168035D02*
Y173303D01*
X257283Y184055D02*
X263189D01*
X273941Y173303D01*
X260039Y168307D02*
Y177756D01*
X250197Y170039D02*
Y182087D01*
X252953Y167913D02*
Y183031D01*
X250197Y195591D02*
Y198386D01*
X258539Y206728D01*
X255748Y196228D02*
X267787D01*
X255748Y189728D02*
X269878D01*
X265472Y221575D02*
Y228465D01*
X248504Y219055D02*
X248543Y219094D01*
X248622D01*
X260827Y230945D02*
X265118Y235236D01*
X265472Y228465D02*
X268898Y231890D01*
X267874Y220590D02*
Y227402D01*
X269803Y229331D01*
X275394Y225000D02*
X275748D01*
X260827Y224882D02*
Y230945D01*
X289567Y35236D02*
X296256D01*
X285236Y45866D02*
Y55709D01*
X288256Y58728D01*
X296748D01*
X290374Y40728D02*
X291748D01*
X285236Y45866D02*
X290374Y40728D01*
X282480Y56890D02*
X288386Y62795D01*
X282480Y42323D02*
Y56890D01*
X279724Y57677D02*
X287276Y65228D01*
X279724Y41535D02*
Y57677D01*
X302681Y62795D02*
X305748Y59728D01*
X288386Y62795D02*
X302681D01*
X287276Y65228D02*
X305748D01*
X296248Y91228D02*
X305248Y82228D01*
X296248Y75228D02*
X296748Y74728D01*
X285236Y73425D02*
X287433Y71228D01*
X297990Y79486D02*
X300248Y77228D01*
X299847Y82130D02*
X302248Y79728D01*
X284886Y82130D02*
X299847D01*
X279331Y76575D02*
X284886Y82130D01*
X285785Y79486D02*
X297990D01*
X278937Y72638D02*
X285785Y79486D01*
X282248Y106728D02*
X304748D01*
X279748Y100228D02*
X305248D01*
X280748Y102728D02*
X304248D01*
X284248Y175228D02*
X288248D01*
X278748Y169728D02*
X284248Y175228D01*
X296532Y179728D02*
X305118Y171142D01*
X283748Y179728D02*
X296532D01*
X287563Y193543D02*
X291748D01*
X293248Y195945D02*
X296465Y192728D01*
X291748Y193543D02*
X295488Y189803D01*
X288748Y189228D02*
X290575Y187402D01*
X285248Y206728D02*
X289740Y211221D01*
X283748Y210728D02*
X286707Y213687D01*
X284465Y195945D02*
X293248D01*
X279748Y191228D02*
X284465Y195945D01*
X281248Y187228D02*
X287563Y193543D01*
X289531Y239728D02*
X291260Y241457D01*
X288425Y235236D02*
X288504Y235315D01*
X288543D01*
X292284Y239055D01*
X291575Y231890D02*
X293779Y234095D01*
X279248Y220728D02*
X303602D01*
X300748Y229331D02*
X301417Y228661D01*
X303228Y259842D02*
X304803D01*
X304410D02*
X304803D01*
X304410Y253701D02*
Y259842D01*
X298937Y315276D02*
Y315748D01*
X311748Y38228D02*
Y40728D01*
X321748Y37496D02*
Y40728D01*
Y50728D02*
X322748Y51728D01*
Y62228D01*
X310248Y91228D02*
X314248Y87228D01*
X313748Y115728D02*
X329748D01*
X319764Y106378D02*
X328598D01*
X315248Y110228D02*
X328248D01*
X314248Y112728D02*
X329248D01*
X307126Y169134D02*
X317795D01*
X310197Y180433D02*
X321575Y169055D01*
X317795Y169134D02*
X320276Y166654D01*
X310118Y162008D02*
X311221Y160906D01*
X313701Y165945D02*
X315413Y164232D01*
X322673Y184728D02*
X335591Y171811D01*
X315315Y235827D02*
X320346D01*
X315945Y233071D02*
X321665D01*
X314779Y221260D02*
X328248Y234728D01*
X309842Y221260D02*
X314779D01*
X314803Y255984D02*
Y259842D01*
X318661Y314685D02*
X331968D01*
X316496Y312520D02*
X318661Y314685D01*
X310039Y312520D02*
X316496D01*
X327756Y309252D02*
X328622Y310118D01*
X324535Y326035D02*
X329035Y321535D01*
X361748Y50728D02*
Y56728D01*
X355748Y62728D02*
X361748Y56728D01*
X353748Y72228D02*
X355748Y70228D01*
X338248Y72228D02*
X342748Y67728D01*
X340248Y94728D02*
X364748D01*
X357748Y77228D02*
X362248Y72728D01*
X358748Y79728D02*
X363248Y75228D01*
X359748Y82228D02*
X364248Y77728D01*
X360748Y84728D02*
X365248Y80228D01*
X338248Y89728D02*
X362748D01*
X339248Y92228D02*
X363748D01*
X344748Y106228D02*
X346748Y108228D01*
X346248Y102228D02*
X349748Y105728D01*
X343248Y102228D02*
X346248D01*
X347248Y99728D02*
X350748Y103228D01*
X342248Y99728D02*
X347248D01*
X341248Y97228D02*
X365748D01*
X350433Y149252D02*
X351102Y148583D01*
X349016Y175787D02*
X351417Y178189D01*
X340000Y175787D02*
X349016D01*
X365591Y202598D02*
Y208701D01*
X340815Y192728D02*
X340827Y192717D01*
Y188268D02*
Y192717D01*
X348819Y220866D02*
Y221260D01*
X345472Y265787D02*
Y266339D01*
X342248Y275728D02*
X342264D01*
X347756Y270236D01*
X381748Y50728D02*
Y63728D01*
X380248Y65228D02*
X381748Y63728D01*
X371063Y98378D02*
Y99410D01*
X368051Y164232D02*
X370197Y162087D01*
X368189Y171811D02*
X369016Y172638D01*
X369803Y173425D01*
X369882D01*
X370197Y162087D02*
X370630Y162520D01*
X371575Y205472D02*
X371811D01*
X371575D02*
X378465Y212362D01*
X379606Y205433D02*
X383902Y209728D01*
X367284Y230228D02*
X368748Y231693D01*
X419882Y37598D02*
Y53740D01*
X417126Y38386D02*
Y52953D01*
X414748Y58874D02*
Y65228D01*
Y58874D02*
X419882Y53740D01*
Y59646D02*
X422638Y56890D01*
X399748Y108228D02*
X405248Y102728D01*
X411748D01*
X417248Y108228D01*
X398748Y105728D02*
X404248Y100228D01*
X412748D01*
X418248Y105728D01*
X397748Y103228D02*
X403248Y97728D01*
X416248D01*
X421748Y103228D01*
X408858Y106496D02*
X411811D01*
X423071Y117756D01*
X401850Y154882D02*
X405138Y151594D01*
X406043Y154075D02*
X420571D01*
X405138Y151594D02*
X424035D01*
X409213Y162520D02*
X423425Y176732D01*
X418347Y158386D02*
X424724Y164764D01*
X408661Y157953D02*
X420748Y170039D01*
X409016Y166654D02*
X423661Y181299D01*
X408032Y169055D02*
X422677Y183701D01*
X400984Y205315D02*
X402441Y206772D01*
X412441Y234606D02*
X412677Y234842D01*
X412205D02*
X412677D01*
X412205D02*
X412441Y234606D01*
X407638Y239409D02*
Y239646D01*
X401142Y236496D02*
Y236835D01*
X403622Y237402D02*
Y239173D01*
Y237402D02*
X416811Y224213D01*
X401142Y236496D02*
X415827Y221811D01*
X412441Y234606D02*
X418189Y228858D01*
X407638Y239409D02*
X412205Y234842D01*
X415118Y244016D02*
X420354Y238779D01*
X416929Y282165D02*
X418866Y280228D01*
X431890Y99252D02*
X433413Y97728D01*
X430315Y151772D02*
X430617Y151469D01*
X430276Y170039D02*
Y170551D01*
X452402Y181299D02*
X454095Y179606D01*
X439173Y204370D02*
X443819Y199724D01*
X436260Y201969D02*
X440906Y197323D01*
X427402Y201969D02*
X436260D01*
X431535Y212362D02*
X434402Y215228D01*
X430276Y188268D02*
Y189055D01*
X442835Y206772D02*
X445079Y204528D01*
X485157Y113937D02*
Y114638D01*
X461748Y108228D02*
X464748Y105228D01*
X459795Y105728D02*
X462795Y102728D01*
X458614Y103228D02*
X461614Y100228D01*
X475248Y148228D02*
X476941Y149921D01*
X467748Y155228D02*
X469248D01*
X469489Y151469D02*
X473335Y155315D01*
X467583Y146063D02*
X474433Y152913D01*
X478748Y159228D02*
X480740Y161221D01*
X475000Y183661D02*
X475079Y183740D01*
X466748Y175228D02*
X467465Y175945D01*
X471102Y160472D02*
X478543Y167913D01*
X467717Y160472D02*
X471102D01*
X470248Y165228D02*
X475689Y170669D01*
X467126Y197323D02*
X479252Y209449D01*
X464724Y199724D02*
X479016Y214016D01*
X479055Y213976D01*
X469488Y235079D02*
X485472Y219094D01*
X495248Y26941D02*
Y32228D01*
X505248Y26941D02*
Y32228D01*
X515248Y26941D02*
Y32228D01*
X495248Y62728D02*
X505248D01*
X515248D01*
X493248Y64728D02*
X495248Y62728D01*
X502248Y95228D02*
X509748Y87728D01*
X501248Y92728D02*
X508748Y85228D01*
X497882D02*
X505382Y77728D01*
X499248Y87728D02*
X506748Y80228D01*
X500248Y90228D02*
X507748Y82728D01*
X509016Y115591D02*
X511654Y118228D01*
X488551Y118032D02*
X500445D01*
X515748Y102728D01*
X507248Y107728D02*
X514748Y100228D01*
X506248Y105228D02*
X513748Y97728D01*
X491063Y152913D02*
X493032Y154882D01*
X509094Y152480D02*
X515709D01*
X506535Y149921D02*
X509094Y152480D01*
X514016Y200591D02*
X514055Y200551D01*
X506890Y196728D02*
X509878Y193740D01*
X504095Y192835D02*
X504173Y192756D01*
X496811Y232205D02*
Y242756D01*
X514606Y227638D02*
X514764Y227795D01*
X487677D02*
X487835Y227638D01*
X514606D01*
X525248Y26941D02*
Y32228D01*
X535248Y26941D02*
Y32228D01*
X544748Y27441D02*
Y32728D01*
Y27441D02*
X545248Y26941D01*
X525248Y62728D02*
X535248D01*
X545248D01*
X522795Y151850D02*
Y154882D01*
X521850Y200551D02*
Y200591D01*
X534646Y223228D02*
X540197Y228780D01*
X545146Y233728D01*
X517717Y223228D02*
X534646D01*
X555248Y26941D02*
Y32728D01*
X565248Y26941D02*
Y32728D01*
X555248Y62728D02*
X565248D01*
X561850Y144882D02*
X563996Y147028D01*
X558268Y147283D02*
X561713Y150728D01*
X563209Y165177D02*
X568307Y160079D01*
X565158Y167913D02*
X570590Y162480D01*
X565906Y170669D02*
X571693Y164882D01*
X571614Y175945D02*
X572520Y175039D01*
X567646Y173425D02*
X571189Y169882D01*
X549213Y185236D02*
X575787D01*
X586811Y55315D02*
X587992Y56496D01*
X581299Y58071D02*
X582091D01*
X583248Y59228D01*
X593248Y52728D02*
X594248Y53728D01*
X593748Y77728D02*
X600748Y70728D01*
X594748Y80228D02*
X601748Y73228D01*
X595748Y82728D02*
X602748Y75728D01*
X596748Y85228D02*
X603748Y78228D01*
X597748Y87728D02*
X604748Y80728D01*
X598748Y90228D02*
X605748Y83228D01*
X589748Y181728D02*
X590177Y181299D01*
X591142D01*
X584842Y185630D02*
X596654D01*
X578819Y179606D02*
X584842Y185630D01*
X591890Y227795D02*
X592457Y227228D01*
X592717Y226969D01*
X587047Y223780D02*
X588819Y222008D01*
X581732Y217795D02*
X581850Y217913D01*
X588965Y237728D02*
X589094Y237598D01*
X588465Y238228D02*
X588965Y237728D01*
X588031Y237795D02*
X588465Y238228D01*
X612402Y62795D02*
X613189Y63583D01*
X613748Y38228D02*
X616748Y41228D01*
X612748Y40728D02*
X615748Y43728D01*
X611998Y43478D02*
X614748Y46228D01*
X619748Y59228D02*
X622248Y61728D01*
X624016Y56496D02*
X628748Y61228D01*
X629748Y53728D02*
X633248Y57228D01*
X610248Y48728D02*
X612748Y51228D01*
X611248Y46228D02*
X613748Y48728D01*
X618248Y90728D02*
X622248Y94728D01*
X619248Y88228D02*
X623248Y92228D01*
X620248Y85728D02*
X624248Y89728D01*
X621248Y83228D02*
X625248Y87228D01*
X622248Y80728D02*
X626248Y84728D01*
X623248Y78228D02*
X627248Y82228D01*
X610748Y95728D02*
X616248D01*
X609748Y93228D02*
X617248D01*
X608748Y90728D02*
X618248D01*
X607748Y88228D02*
X619248D01*
X633248Y68228D02*
X634748Y69728D01*
X624248Y75728D02*
X628248Y79728D01*
X626539Y67520D02*
X631248Y72228D01*
X626248Y70728D02*
X630248Y74728D01*
X625248Y73228D02*
X629248Y77228D01*
X613386Y102126D02*
X615988Y104728D01*
X615248Y98228D02*
X619248Y102228D01*
X611748Y98228D02*
X615248D01*
X652248Y27941D02*
X652362Y28055D01*
X662248Y27941D02*
X662362Y28055D01*
X642248Y63728D02*
X652248D01*
X662248D01*
X648748Y281728D02*
X651469Y284449D01*
X672126Y28063D02*
X672248Y27941D01*
Y63728D02*
X682248D01*
X692248D01*
X667618Y154882D02*
X678272Y144228D01*
X681937Y175039D02*
X690248Y166728D01*
X681606Y169882D02*
X689748Y161740D01*
X680905Y164882D02*
X688059Y157728D01*
X674528Y278150D02*
Y278425D01*
X712248Y27941D02*
X712362Y28055D01*
X712248Y28169D02*
X712362Y28055D01*
X702248Y63728D02*
X712248D01*
X713248Y62728D01*
X714248Y108728D02*
X714748D01*
X697748D02*
X714248D01*
X754748Y63728D02*
Y64728D01*
X737748Y104728D02*
X739748Y106728D01*
X744748Y102228D02*
X746748Y104228D01*
X747441Y149728D02*
X750591Y152878D01*
X750087Y147067D02*
X753333Y150313D01*
X729248Y172228D02*
X740748D01*
X744248Y181728D02*
X751094Y174882D01*
X745472Y161614D02*
Y161740D01*
X729248Y177728D02*
X743110D01*
X753333Y167506D01*
X729248Y166728D02*
X748228D01*
X750591Y164366D01*
X733248Y194728D02*
X735163Y196644D01*
X746748Y206728D02*
X750248Y203228D01*
X736748Y204728D02*
X743263Y211244D01*
X741248Y233728D02*
X746248Y228728D01*
X736772Y230205D02*
X743248Y223728D01*
X739055Y313740D02*
Y314843D01*
X733035Y315535D02*
X738035Y320535D01*
X760248Y58228D02*
X763248Y55228D01*
X770575Y92228D02*
X772874Y94528D01*
X766142Y104095D02*
X774370D01*
X759276Y97228D02*
X766142Y104095D01*
X771661Y150228D02*
X771748Y150315D01*
X771661Y150228D02*
X771748D01*
X774413Y181063D02*
X775748Y179728D01*
X773579Y180228D02*
X774413Y181063D01*
X777953Y185630D02*
X778701Y184882D01*
X775748Y169228D02*
Y169728D01*
X774902Y164882D02*
X778701D01*
X778248Y190728D02*
X778748Y191228D01*
X779134Y191614D01*
X774988Y239228D02*
X775437Y238779D01*
X778650Y233728D02*
X778701Y233780D01*
X775386Y228728D02*
X775437Y228780D01*
X778650Y223728D02*
X778701Y223780D01*
X778650Y243728D02*
X778701Y243779D01*
X758248Y243728D02*
X778650D01*
X772748Y258228D02*
X777248D01*
X774748Y253780D02*
X778701D01*
X773197Y252228D02*
X774748Y253780D01*
X767248Y252228D02*
X773197D01*
X775386Y248728D02*
X775437Y248780D01*
X762748Y248728D02*
X775386D01*
X766748Y252728D02*
X767248Y252228D01*
X770748Y256228D02*
X772748Y258228D01*
X780000Y314843D02*
X784685Y310157D01*
X788748Y59228D02*
X788748Y59228D01*
X789748Y67228D02*
X802748Y80228D01*
X788748Y69728D02*
X801748Y82728D01*
X787748Y72228D02*
X800748Y85228D01*
X810118Y106378D02*
X814095Y110354D01*
X810118Y106378D02*
X810157D01*
X801260Y305157D02*
X810197D01*
X841220Y110354D02*
X843110Y108465D01*
X823486Y100691D02*
X828583Y105787D01*
X828343Y144728D02*
X828504Y144567D01*
X842402Y180315D02*
X842835Y179882D01*
X842315Y180228D02*
X842402Y180315D01*
X841815Y179728D02*
X842315Y180228D01*
X842681Y169728D02*
X842835Y169882D01*
X842681Y159728D02*
X842835Y159882D01*
X827362Y215158D02*
X830118Y212402D01*
X784845Y215158D02*
X827362D01*
X823133Y211244D02*
X823189Y211299D01*
X828937Y220669D02*
X829724Y219882D01*
X840610Y256555D02*
X842835Y258780D01*
X819331Y258347D02*
X821122Y256555D01*
X840610D01*
X839701Y264228D02*
X843386Y267913D01*
X844291D01*
X834689Y261728D02*
X836102Y260315D01*
X821248Y269228D02*
X825445Y273425D01*
X831299D01*
X832874Y271850D01*
X834055D01*
X825784Y266728D02*
X827756Y268701D01*
Y269094D01*
X834842Y296654D02*
X843347Y305157D01*
X818701Y296654D02*
X834842D01*
X819449Y278150D02*
X822992Y281693D01*
X847445Y154728D02*
X847598Y154882D01*
Y223780D02*
X847638Y223819D01*
X873425Y271850D02*
X873465D01*
X889551Y87228D02*
X891299Y88976D01*
X904409Y82480D02*
X904921D01*
X902157Y80228D02*
X904409Y82480D01*
X884685Y118228D02*
X902795Y100118D01*
X893504Y150315D02*
X898661Y145158D01*
X752748Y207228D02*
X888386D01*
Y207677D01*
X894961Y203228D02*
X895079Y203346D01*
X887937Y207228D02*
X888386Y207677D01*
X896260Y223780D02*
Y223819D01*
X894535Y309535D02*
X898535Y313535D01*
X946653Y92165D02*
X964409D01*
X944488Y86614D02*
X957480D01*
X956909Y217500D02*
X957323Y217913D01*
X956909Y217146D02*
Y217500D01*
X963740Y305157D02*
X963976Y304921D01*
X969882Y48228D02*
X971063Y47047D01*
X969449Y144370D02*
X980591D01*
X991929Y155709D01*
X971614Y277323D02*
X972283Y277992D01*
X1027756Y92441D02*
X1027913Y92598D01*
X1153035Y93035D02*
X1164535D01*
X1150535Y90535D02*
X1153035Y93035D01*
X1180035Y77535D02*
X1189535Y87035D01*
X1190630Y145669D02*
Y149252D01*
X1188307Y151575D02*
X1190630Y149252D01*
X1180079Y151575D02*
X1188307D01*
X1180630Y145158D02*
Y145669D01*
X1215535Y137035D02*
X1221035Y142535D01*
X1208535Y137035D02*
X1215535D01*
X142717Y156890D02*
X144291Y158465D01*
X134843Y292795D02*
X150354Y308307D01*
X180945Y158465D02*
X184567Y154842D01*
X163779Y241732D02*
Y259842D01*
X185748Y210728D02*
Y225472D01*
X172990Y204486D02*
Y240707D01*
X184724Y252441D01*
X176575Y194685D02*
Y236811D01*
X180433Y203043D02*
Y230827D01*
X173031Y247047D02*
Y250866D01*
X201248Y217228D02*
X202992Y215484D01*
X197136Y191841D02*
Y228868D01*
X198748Y184984D02*
X202992Y189228D01*
X217480Y154842D02*
X227118Y164480D01*
X218622Y152441D02*
X232087Y165905D01*
X225807Y219114D02*
X235000Y209921D01*
X231653Y220039D02*
X236968Y214724D01*
X240787D02*
X243937Y217874D01*
X228872Y219435D02*
X235984Y212323D01*
X231653Y242728D02*
X235185Y246260D01*
X228872Y245144D02*
X235957Y252228D01*
X225807Y219114D02*
Y248878D01*
X256299Y61417D02*
Y68307D01*
X260039Y168307D02*
X271339Y157008D01*
X269878Y189728D02*
X274878Y184728D01*
X282480Y42323D02*
X289567Y35236D01*
X296256D02*
X301748Y40728D01*
X279724Y41535D02*
X288531Y32728D01*
X296969Y246260D02*
X304410Y253701D01*
X282248Y216228D02*
X282870Y216850D01*
X313976Y29724D02*
X321748Y37496D01*
X316248Y68728D02*
X322748Y62228D01*
X324425Y71228D02*
X332925Y62728D01*
X325000Y74728D02*
X334500Y65228D01*
X330157Y189803D02*
X335512Y184449D01*
X341748Y40728D02*
X355508Y26969D01*
X351748Y40728D02*
X362752Y29724D01*
X356260Y154882D02*
Y156339D01*
X342677Y157008D02*
X350433Y149252D01*
X350472Y276024D02*
X353858Y272638D01*
X353569Y213687D02*
X356110Y216228D01*
X352244Y216850D02*
X356622Y221228D01*
X381748Y40728D02*
X387240Y35236D01*
X371063Y98378D02*
X374213Y95228D01*
X368858Y184449D02*
X372244Y187835D01*
X388228Y281890D02*
X394890Y275228D01*
X368748Y231693D02*
Y248669D01*
X413976Y35236D02*
X417126Y38386D01*
X414764Y32480D02*
X419882Y37598D01*
X415551Y29724D02*
X422638Y36811D01*
X416339Y26969D02*
X425394Y36024D01*
X402350Y67728D02*
X417126Y52953D01*
X420571Y154075D02*
X422835Y156339D01*
X402598Y157520D02*
X406043Y154075D01*
X420323Y70228D02*
X425394Y65158D01*
X400577Y258557D02*
X415118Y244016D01*
X409016Y173425D02*
X424646Y189055D01*
X410394Y178189D02*
X425039Y192835D01*
X433535Y309035D02*
X443535Y299035D01*
X469248Y155228D02*
X479197Y165177D01*
X493248Y64728D02*
Y68728D01*
X505248Y102728D02*
X512748Y95228D01*
X504248Y100228D02*
X511748Y92728D01*
X503248Y97728D02*
X510748Y90228D01*
X487480Y155315D02*
X489449Y157283D01*
X504055Y232205D02*
Y247205D01*
X521850Y200591D02*
X545039Y223780D01*
X604134Y66732D02*
X604921Y67520D01*
X616248Y95728D02*
X620248Y99728D01*
X617248Y93228D02*
X621248Y97228D01*
X652362Y28055D02*
Y36449D01*
X662362Y28055D02*
Y36488D01*
X672126Y28063D02*
Y36449D01*
X682248Y36531D02*
X682362Y36646D01*
X682248Y27941D02*
Y36531D01*
X692248Y36335D02*
X692362Y36449D01*
X692248Y27941D02*
Y36335D01*
X673996Y162480D02*
X681248Y155228D01*
X669031Y157283D02*
X679248Y147067D01*
X670461Y160079D02*
X680811Y149728D01*
X702248Y36374D02*
X702362Y36488D01*
X702248Y27941D02*
Y36374D01*
X712248Y28169D02*
Y36728D01*
X750591Y152878D02*
Y164366D01*
X753333Y150313D02*
Y167506D01*
X733035Y307035D02*
Y315535D01*
X763508Y94728D02*
X766142Y97362D01*
X788748Y59228D02*
X804748Y75228D01*
X788248Y55228D02*
X805748Y72728D01*
X789248Y63228D02*
X803748Y77728D01*
X790748Y315669D02*
X801260Y305157D01*
X827795Y218268D02*
X830118Y215945D01*
X819248Y274228D02*
X823957Y278937D01*
X820248Y271728D02*
X824701Y276181D01*
X869094D02*
X873425Y271850D01*
X941732Y96260D02*
X947047Y101575D01*
X955709Y215945D02*
X956909Y217146D01*
X1006417Y309252D02*
X1013268Y302402D01*
X1042402Y104331D02*
X1050827Y95906D01*
X1030906Y144291D02*
Y159252D01*
X134843Y262008D02*
Y292795D01*
X232087Y165905D02*
Y187598D01*
X227118Y164480D02*
Y210283D01*
X223622Y150039D02*
X244685Y171102D01*
X422638Y36811D02*
Y56890D01*
X425394Y36024D02*
Y65158D01*
X991929Y155709D02*
Y193504D01*
X156102Y106890D02*
X156496Y107283D01*
X152165Y147441D02*
X160945D01*
X245276Y79331D02*
X256299Y68307D01*
X237205Y85236D02*
X246260D01*
X262795Y72638D02*
X278937D01*
X263583Y76575D02*
X279331D01*
X246260Y85236D02*
X262768Y68728D01*
X245079Y95079D02*
X263583Y76575D01*
X191142Y95079D02*
X245079D01*
X190354Y92323D02*
X243110D01*
X262795Y72638D01*
X274228Y105748D02*
X279748Y100228D01*
X273248Y103228D02*
X278748Y97728D01*
X244248Y103228D02*
X273248D01*
X275248Y108228D02*
X280748Y102728D01*
X220748Y108228D02*
X275248D01*
X203571Y102728D02*
X234055D01*
X237075Y105748D02*
X274228D01*
X201378Y97835D02*
X274756D01*
X178504Y147638D02*
X227795D01*
X184567Y154842D02*
X217480D01*
X182953Y152441D02*
X218622D01*
X181968Y150039D02*
X223622D01*
X204189Y174228D02*
X223248D01*
X273941Y168035D02*
X276031Y165945D01*
X216248Y201228D02*
Y212020D01*
X258539Y206728D02*
X285248D01*
X267787Y196228D02*
X276787Y187228D01*
X281248D01*
X265118Y235236D02*
X288425D01*
X238748Y239728D02*
X289531D01*
X275748Y225000D02*
X275945Y224803D01*
X235957Y252228D02*
X267748D01*
X173346Y305472D02*
X206890D01*
X180354Y308307D02*
X197835Y325787D01*
X332925Y62728D02*
X355748D01*
X334500Y65228D02*
X380248D01*
X305748D02*
X306248Y64728D01*
X305748Y59728D02*
X311248D01*
X303748Y91228D02*
X310248Y84728D01*
X342748Y67728D02*
X402350D01*
X296748Y74728D02*
X325000D01*
X300248Y77228D02*
X357748D01*
X302248Y79728D02*
X358748D01*
X305248Y82228D02*
X359748D01*
X310248Y84728D02*
X360748D01*
X314248Y87228D02*
X361748D01*
X366248Y82728D01*
X332748Y95228D02*
X338248Y89728D01*
X362748D02*
X367248Y85228D01*
X363748Y92228D02*
X368248Y87728D01*
X364748Y94728D02*
X369248Y90228D01*
X346748Y108228D02*
X399748D01*
X349748Y105728D02*
X398748D01*
X350748Y103228D02*
X397748D01*
X304748Y106728D02*
X313748Y115728D01*
X304248Y102728D02*
X314248Y112728D01*
X305248Y100228D02*
X315248Y110228D01*
X329748Y115728D02*
X343248Y102228D01*
X329248Y112728D02*
X342248Y99728D01*
X328248Y110228D02*
X341248Y97228D01*
X356260Y154882D02*
X401850D01*
X362559Y160906D02*
X365945Y157520D01*
X335591Y171811D02*
X368189D01*
X305118Y171142D02*
X307126Y169134D01*
X315413Y164232D02*
X368051D01*
X311221Y160906D02*
X362559D01*
X335512Y184449D02*
X368858D01*
X370630Y162520D02*
X409213D01*
X365945Y157520D02*
X402598D01*
X351417Y178189D02*
X410394D01*
X369882Y173425D02*
X409016D01*
X321575Y169055D02*
X408032D01*
X320276Y166654D02*
X409016D01*
X366929Y210039D02*
X369843D01*
X365591Y208701D02*
X366929Y210039D01*
X365591Y202598D02*
X367362Y200827D01*
X295488Y189803D02*
X330157D01*
X296465Y192728D02*
X340815D01*
X332874Y211221D02*
X339921Y204173D01*
X292284Y239055D02*
X318740D01*
X328248Y234728D02*
X363748D01*
X348248Y230228D02*
X367284D01*
X356622Y221228D02*
X366248D01*
X303602Y220728D02*
X315945Y233071D01*
X304291Y224803D02*
X315315Y235827D01*
X343077Y258557D02*
X400577D01*
X344476Y255882D02*
X391402D01*
X395866Y280315D02*
X398453Y277728D01*
X306811Y315748D02*
X310039Y312520D01*
X298937Y315748D02*
X306811D01*
X312992Y317087D02*
X388228D01*
X336614Y310039D02*
X337205D01*
X331968Y314685D02*
X336614Y310039D01*
X329035Y321535D02*
X391035D01*
X403535Y309035D01*
X515248Y62728D02*
X525248D01*
X485157Y114638D02*
X488551Y118032D01*
X423071Y117756D02*
X455721D01*
X465748Y107728D01*
X507248D01*
X464748Y105228D02*
X506248D01*
X433413Y97728D02*
X503248D01*
X417248Y108228D02*
X461748D01*
X462795Y102728D02*
X505248D01*
X418248Y105728D02*
X459795D01*
X461614Y100228D02*
X504248D01*
X421748Y103228D02*
X458614D01*
X513661Y147913D02*
X516693Y144882D01*
X515709Y152480D02*
X520905Y147283D01*
X493032Y154882D02*
X522795D01*
X476941Y149921D02*
X506535D01*
X474433Y152913D02*
X491063D01*
X473335Y155315D02*
X487480D01*
X430617Y151469D02*
X469489D01*
X423425Y176732D02*
X427598D01*
X424724Y164764D02*
X430512D01*
X480740Y161221D02*
X517126D01*
X420748Y170039D02*
X430276D01*
X475079Y183740D02*
X512047D01*
X423661Y181299D02*
X452402D01*
X422677Y183701D02*
X452126D01*
X434402Y215228D02*
X470748D01*
X440906Y197323D02*
X467126D01*
X443819Y199724D02*
X464724D01*
X479055Y213976D02*
X508465D01*
X514055Y200551D02*
X521850D01*
X479252Y209449D02*
X513346D01*
X474748Y196728D02*
X506890D01*
X509878Y193740D02*
X516181D01*
X426221Y197402D02*
X433819D01*
X424646Y189055D02*
X430276D01*
X425039Y192835D02*
X504095D01*
X416653Y187835D02*
X426221Y197402D01*
X418150Y192717D02*
X427402Y201969D01*
X425906Y204370D02*
X439173D01*
X485472Y219094D02*
X505433D01*
X415827Y221811D02*
X433386D01*
X416811Y224213D02*
X432402D01*
X418189Y228858D02*
X429291D01*
X420354Y238779D02*
X429331D01*
X516535Y284764D02*
X518571Y282728D01*
X443535Y299035D02*
X456535D01*
X545248Y62728D02*
X555248D01*
X578815Y62795D02*
X612402D01*
X576968D02*
X578815D01*
X583248Y59228D02*
X619748D01*
X587992Y56496D02*
X624016D01*
X594248Y53728D02*
X629748D01*
X606748Y85728D02*
X620248D01*
X605748Y83228D02*
X621248D01*
X604748Y80728D02*
X622248D01*
X603748Y78228D02*
X623248D01*
X601748Y73228D02*
X625248D01*
X599748Y92728D02*
X606748Y85728D01*
X600748Y95228D02*
X607748Y88228D01*
X604921Y67520D02*
X626539D01*
X602748Y75728D02*
X624248D01*
X600748Y70728D02*
X626248D01*
X603248Y106728D02*
X611748Y98228D01*
X548248Y106728D02*
X603248D01*
X571189Y169882D02*
X578937D01*
X575984Y179606D02*
X578819D01*
X575787Y185236D02*
X576201D01*
X574094Y202716D02*
X578504Y198307D01*
X592717Y226969D02*
X624606D01*
X545039Y223780D02*
X587047D01*
X581850Y217913D02*
X640354D01*
X589094Y237598D02*
X606890D01*
X576748Y259228D02*
X577937D01*
X631839Y272638D02*
X640248Y264228D01*
X632748Y275228D02*
X641248Y266728D01*
X630709Y270236D02*
X639217Y261728D01*
X662248Y63728D02*
X672248D01*
X692248D02*
X702248D01*
X713248Y62728D02*
X731748D01*
X753941Y99728D02*
X760709Y106496D01*
X679248Y147067D02*
X750087D01*
X680811Y149728D02*
X747441D01*
X663949Y147028D02*
X669248Y141728D01*
X678272Y144228D02*
X750748D01*
X669248Y141728D02*
X751748D01*
X689748Y161740D02*
X745472D01*
X688059Y157728D02*
X729248D01*
X726748Y252728D02*
X727248Y253228D01*
X783748Y59228D02*
X788748D01*
X784748Y79728D02*
X797748Y92728D01*
X786748Y74728D02*
X799748Y87728D01*
X785748Y77228D02*
X798748Y90228D01*
X781638Y82228D02*
X787008Y87598D01*
X777748Y84728D02*
X788833Y95813D01*
X814095Y110354D02*
X841220D01*
X786711Y100691D02*
X823486D01*
X779248Y154728D02*
X847445D01*
X780248Y144728D02*
X828343D01*
X778701Y164882D02*
X847598D01*
X778701Y174882D02*
X847598D01*
X778701Y184882D02*
X847598D01*
X775748Y179728D02*
X841815D01*
X775748Y169728D02*
X842681D01*
X775748Y159728D02*
X842681D01*
X779134Y191614D02*
X847598D01*
X817214Y196644D02*
X881837Y196577D01*
X778701Y233780D02*
X847598D01*
X778701Y243779D02*
X847598D01*
X775437Y228780D02*
X842835D01*
X775437Y238779D02*
X842835D01*
X778701Y223780D02*
X847598D01*
X783622Y220669D02*
X828937D01*
X829724Y219882D02*
X879724D01*
X775437Y248780D02*
X842835D01*
X777248Y258228D02*
X819331Y258347D01*
X778701Y253780D02*
X847598D01*
X810197Y305157D02*
X818701Y296654D01*
X823957Y278937D02*
X875394D01*
X907098Y77728D02*
X913937Y84567D01*
X929716Y75228D02*
X946653Y92165D01*
X935504Y70228D02*
X945984Y80709D01*
X916496Y154882D02*
X985394D01*
X911732Y159882D02*
X980630D01*
X916496Y164882D02*
X985394D01*
X911732Y169882D02*
X980630D01*
X916496Y174882D02*
X985394D01*
X911732Y179882D02*
X980630D01*
X916496Y184882D02*
X985394D01*
X916496Y191614D02*
X985394D01*
X916496Y223780D02*
X985394D01*
X896260D02*
X916496D01*
X911732Y228780D02*
X980630D01*
X916496Y233780D02*
X985394D01*
X911732Y238779D02*
X980630D01*
X916496Y243779D02*
X985394D01*
X911732Y248780D02*
X980630D01*
X916496Y253780D02*
X985394D01*
X911732Y258780D02*
X980630D01*
X941496Y273543D02*
X990748D01*
X972283Y277992D02*
X996535D01*
X900984Y309252D02*
X1006417D01*
X1174535Y77535D02*
X1180035D01*
X274756Y97835D02*
X277362Y95228D01*
X184843Y101378D02*
X191142Y95079D01*
X184055Y98622D02*
X190354Y92323D01*
X229016Y143976D02*
X252953Y167913D01*
X227795Y147638D02*
X250197Y170039D01*
X241772Y212323D02*
X248504Y219055D01*
X202748Y225520D02*
X216248Y212020D01*
X242795Y198898D02*
X265472Y221575D01*
X197136Y228868D02*
X221248Y252980D01*
X245630Y198346D02*
X267874Y220590D01*
X245630Y190354D02*
X252953Y183031D01*
X242795Y189488D02*
X250197Y182087D01*
X245866Y209921D02*
X260827Y224882D01*
X206890Y305472D02*
X223071Y321654D01*
X306248Y32728D02*
X311748Y38228D01*
X361748Y40728D02*
X369996Y32480D01*
X365748Y97228D02*
X370248Y92728D01*
X328598Y106378D02*
X340248Y94728D01*
X333748Y97728D02*
X339248Y92228D01*
X302677Y243858D02*
X314803Y255984D01*
X306417Y241457D02*
X324803Y259842D01*
X391402Y255882D02*
X407638Y239646D01*
X318740Y239055D02*
X345472Y265787D01*
X328386Y187402D02*
X340000Y175787D01*
X320346Y235827D02*
X343077Y258557D01*
X321665Y233071D02*
X344476Y255882D01*
X356110Y216228D02*
X369748D01*
X422835Y156339D02*
X453358D01*
X415748Y216732D02*
X428937D01*
X508465Y213976D02*
X517717Y223228D01*
X513346Y209449D02*
X521969Y218071D01*
X452126Y183701D02*
X456614Y188189D01*
X432402Y224213D02*
X461917Y253728D01*
X433386Y221811D02*
X462803Y251228D01*
X456535Y299035D02*
X464535Y307035D01*
X601748Y97728D02*
X608748Y90728D01*
X602748Y100228D02*
X609748Y93228D01*
X603748Y102728D02*
X610748Y95728D01*
X576201Y185236D02*
X581693Y190728D01*
X546260Y188189D02*
X549213Y185236D01*
X633748Y277728D02*
X642248Y269228D01*
X634748Y280228D02*
X643248Y271728D01*
X635748Y282728D02*
X644248Y274228D01*
X754748Y64728D02*
X757248Y67228D01*
X775748Y89728D02*
X786711Y100691D01*
X776748Y87228D02*
X787748Y98228D01*
X875394Y278937D02*
X881260Y273071D01*
X824701Y276181D02*
X869094D01*
X930591Y284449D02*
X941496Y273543D01*
X929134Y281693D02*
X942717Y268110D01*
X1071850Y84173D02*
X1091476Y103799D01*
X1072638Y81299D02*
X1092756Y101417D01*
X1073610Y78728D02*
X1093898Y99016D01*
X1132303Y103799D02*
X1180079Y151575D01*
X1136890Y101417D02*
X1180630Y145158D01*
X1163976Y99016D02*
X1210630Y145669D01*
X1164535Y93035D02*
X1208535Y137035D01*
X256299Y61417D02*
X287992Y29724D01*
X453358Y156339D02*
X470445Y173425D01*
X464248Y72728D02*
X498748Y38228D01*
X465748Y75228D02*
X500248Y40728D01*
X466760Y77728D02*
X501010Y43478D01*
X467803Y80228D02*
X501803Y46228D01*
X468748Y82728D02*
X502748Y48728D01*
X355508Y26969D02*
X416339D01*
X362752Y29724D02*
X415551D01*
X369996Y32480D02*
X414764D01*
X387240Y35236D02*
X413976D01*
X287992Y29724D02*
X313976D01*
X288531Y32728D02*
X306248D01*
X262768Y68728D02*
X316248D01*
X287433Y71228D02*
X324425D01*
X277362Y95228D02*
X332748D01*
X355748Y70228D02*
X420323D01*
X362248Y72728D02*
X464248D01*
X363248Y75228D02*
X465748D01*
X364248Y77728D02*
X466760D01*
X365248Y80228D02*
X467803D01*
X366248Y82728D02*
X468748D01*
X154921Y98622D02*
X184055D01*
X278748Y97728D02*
X333748D01*
X156496Y107283D02*
X188779D01*
X167480Y143976D02*
X229016D01*
X148602Y155295D02*
X180098D01*
X351102Y148583D02*
X422087D01*
X281693Y143898D02*
X413228Y144016D01*
X276031Y165945D02*
X313701D01*
X272913Y162008D02*
X310118D01*
X144291Y158465D02*
X180945D01*
X274878Y184728D02*
X322673D01*
X367362Y200827D02*
X415590D01*
X290575Y187402D02*
X328386D01*
X378465Y212362D02*
X431535D01*
X383902Y209728D02*
X466248D01*
X340827Y192717D02*
X418150D01*
X372244Y187835D02*
X416653D01*
X402441Y206772D02*
X442835D01*
X286707Y213687D02*
X353569D01*
X289740Y211221D02*
X332874D01*
X291260Y241457D02*
X306417D01*
X269803Y229331D02*
X300748D01*
X268898Y231890D02*
X291575D01*
X237185Y243858D02*
X302677D01*
X275945Y224803D02*
X304291D01*
X150354Y308307D02*
X180354D01*
X223071Y321654D02*
X322480D01*
X260827Y309252D02*
X327756D01*
X198083Y326035D02*
X324535D01*
X403535Y309035D02*
X433535D01*
X500248Y40728D02*
X612748D01*
X501010Y43478D02*
X611998D01*
X501803Y46228D02*
X611248D01*
X615748Y43728D02*
X768748D01*
X612748Y51228D02*
X771748D01*
X502748Y48728D02*
X610248D01*
X613748D02*
X770748D01*
X614748Y46228D02*
X769748D01*
X616748Y41228D02*
X767433D01*
X763748Y63228D02*
X789248D01*
X498748Y38228D02*
X613748D01*
X625248Y87228D02*
X776748D01*
X622248Y94728D02*
X763508D01*
X623248Y92228D02*
X770575D01*
X626248Y84728D02*
X777748D01*
X512748Y95228D02*
X600748D01*
X511748Y92728D02*
X599748D01*
X510748Y90228D02*
X598748D01*
X509748Y87728D02*
X597748D01*
X507748Y82728D02*
X595748D01*
X757248Y67228D02*
X789748D01*
X634748Y69728D02*
X788748D01*
X631248Y72228D02*
X787748D01*
X630248Y74728D02*
X786748D01*
X629248Y77228D02*
X785748D01*
X628248Y79728D02*
X784748D01*
X627248Y82228D02*
X781638D01*
X624248Y89728D02*
X775748D01*
X888759Y93879D02*
X943091D01*
X508748Y85228D02*
X596748D01*
X505382Y77728D02*
X593748D01*
X506748Y80228D02*
X594748D01*
X511654Y118228D02*
X884685D01*
X615988Y104728D02*
X737748D01*
X619248Y102228D02*
X744748D01*
X620248Y99728D02*
X753941D01*
X621248Y97228D02*
X759276D01*
X515748Y102728D02*
X603748D01*
X514748Y100228D02*
X602748D01*
X513748Y97728D02*
X601748D01*
X520905Y147283D02*
X558268D01*
X847598Y154882D02*
X916496D01*
X516693Y144882D02*
X561850D01*
X563996Y147028D02*
X663949D01*
X561713Y150728D02*
X665748D01*
X522795Y154882D02*
X667618D01*
X771748Y150315D02*
X893504D01*
X842835Y159882D02*
X911732D01*
X847598Y164882D02*
X916496D01*
X842835Y169882D02*
X911732D01*
X847598Y174882D02*
X916496D01*
X842835Y179882D02*
X911732D01*
X847598Y184882D02*
X916496D01*
X572520Y175039D02*
X681937D01*
X751248Y180228D02*
X773579D01*
X751094Y174882D02*
X778701D01*
X589748Y181728D02*
X744248D01*
X596654Y185630D02*
X777953D01*
X578937Y169882D02*
X681606D01*
X479197Y165177D02*
X563209D01*
X571693Y164882D02*
X680905D01*
X489449Y157283D02*
X669031D01*
X568307Y160079D02*
X670461D01*
X570590Y162480D02*
X673996D01*
X478543Y167913D02*
X565158D01*
X475689Y170669D02*
X565906D01*
X847598Y191614D02*
X916496D01*
X581693Y190728D02*
X778248D01*
X735163Y196644D02*
X817214D01*
X750248Y203228D02*
X894961D01*
X743263Y211244D02*
X823133D01*
X531496Y202716D02*
X574094D01*
X847598Y233780D02*
X916496D01*
X842835Y238779D02*
X911732D01*
X847598Y243779D02*
X916496D01*
X754248Y239228D02*
X774988D01*
X750248Y233728D02*
X778650D01*
X746248Y228728D02*
X775386D01*
X743248Y223728D02*
X778650D01*
X545146Y233728D02*
X741248D01*
X842835Y228780D02*
X911732D01*
X847638Y223819D02*
X896260D01*
X842835Y248780D02*
X911732D01*
X847598Y253780D02*
X916496D01*
X842835Y258780D02*
X911732D01*
X513748Y259228D02*
X576748D01*
X642248Y269228D02*
X821248D01*
X639217Y261728D02*
X834689D01*
X640248Y264228D02*
X839701D01*
X641248Y266728D02*
X825784D01*
X643248Y271728D02*
X820248D01*
X644248Y274228D02*
X819248D01*
X651469Y284449D02*
X930591D01*
X822992Y281693D02*
X929134D01*
X674528Y278150D02*
X819449D01*
X518571Y282728D02*
X635748D01*
X739055Y314843D02*
X780000D01*
X843535Y309535D02*
X894535D01*
X1091476Y103799D02*
X1132303D01*
X1092756Y101417D02*
X1136890D01*
X1093898Y99016D02*
X1163976D01*
X271339Y157008D02*
X342677D01*
X386772Y245709D02*
X415748Y216732D01*
X235185Y246260D02*
X296969D01*
X282870Y216850D02*
X352244D01*
X751748Y141728D02*
X774902Y164882D01*
X750748Y144228D02*
X775748Y169228D01*
X890354Y96260D02*
X941732D01*
X990929Y199228D02*
X1030906Y159252D01*
X374213Y95228D02*
X502248D01*
X367248Y85228D02*
X497882D01*
X368248Y87728D02*
X499248D01*
X369248Y90228D02*
X500248D01*
X370248Y92728D02*
X501248D01*
X934331Y104331D02*
X1042402D01*
X454095Y179606D02*
X575984D01*
X467465Y175945D02*
X571614D01*
X470445Y173425D02*
X567646D01*
X456614Y188189D02*
X546260D01*
X704748Y199228D02*
X990929D01*
X830118Y212402D02*
X960827D01*
X394890Y275228D02*
X632748D01*
X347756Y270236D02*
X630709D01*
X353858Y272638D02*
X631839D01*
X398453Y277728D02*
X633748D01*
X418866Y280228D02*
X634748D01*
X843347Y305157D02*
X963740D01*
X949803Y282087D02*
X1012795D01*
X898535Y313535D02*
X1120535D01*
X830118Y215945D02*
X955709D01*
X464535Y307035D02*
X733035D01*
X479528Y201969D02*
X482480Y204921D01*
X519252D01*
X389846Y252949D02*
X403622Y239173D01*
X368748Y248669D02*
X373028Y252949D01*
X387748Y250228D02*
X401142Y236835D01*
X371535Y247016D02*
X374748Y250228D01*
X373028Y252949D02*
X389846D01*
X374748Y250228D02*
X387748D01*
X379134Y219331D02*
Y245276D01*
X369843Y210039D02*
X379134Y219331D01*
X930484Y72609D02*
X944488Y86614D01*
X811248Y57228D02*
X842772D01*
X851772Y48228D01*
X969882D01*
X810748Y60228D02*
X843709D01*
X852559Y51378D01*
X1015158D01*
X809748Y62728D02*
X845146D01*
X850216Y57657D01*
X808748Y65228D02*
X846583D01*
X851583Y60228D01*
X807748Y67728D02*
X848020D01*
X853020Y62728D01*
X806748Y70228D02*
X849457D01*
X854457Y65228D01*
X805748Y72728D02*
X850894D01*
X855894Y67728D01*
X803748Y77728D02*
X853768D01*
X858887Y72609D01*
X930484D01*
X804748Y75228D02*
X852331D01*
X857331Y70228D01*
X935504D01*
X802748Y80228D02*
X855205D01*
X860205Y75228D01*
X929716D01*
X801748Y82728D02*
X856642D01*
X861642Y77728D01*
X907098D01*
X800748Y85228D02*
X858079D01*
X863079Y80228D01*
X902157D01*
X799748Y87728D02*
X859516D01*
X862874Y84370D01*
X896496D01*
X863953Y87228D02*
X889551D01*
X788833Y95813D02*
X868333D01*
X868189Y95669D02*
X868333Y95813D01*
X798748Y90228D02*
X860953D01*
X863953Y87228D01*
X797748Y92728D02*
X862390D01*
X864016Y91102D01*
X884921D01*
X867323Y95669D02*
X868189D01*
X843110Y108465D02*
X866339D01*
X868307Y106496D01*
Y101575D02*
Y106496D01*
X787748Y98228D02*
X858071D01*
X863386Y103543D01*
X873228D02*
X883071D01*
X890354Y96260D01*
X868307Y101575D02*
X872244Y97638D01*
X885000D01*
X888759Y93879D01*
X946850Y97638D02*
X999213D01*
X943091Y93879D02*
X946850Y97638D01*
X947047Y101575D02*
X1003150D01*
X1007402Y97323D01*
X1010709D01*
X942717Y268110D02*
X943898Y266929D01*
X945866Y268898D01*
X983465D01*
X881837Y196577D02*
X988856D01*
X991929Y193504D01*
X989055Y203937D02*
X993307D01*
X1048622Y148622D01*
Y145866D02*
Y148622D01*
X977559Y203937D02*
X983465Y209842D01*
X993307D01*
X737748Y221728D02*
X739791Y219685D01*
X782638D01*
X783622Y220669D01*
X731748Y221728D02*
X736172Y217304D01*
X783624D02*
X784588Y218268D01*
X827795D01*
X736172Y217304D02*
X783624D01*
X726442Y214923D02*
X784610D01*
X784845Y215158D01*
X715748Y204228D02*
X726442Y214923D01*
X633248Y252728D02*
X726748D01*
X833213Y299213D02*
X843535Y309535D01*
X820858Y299213D02*
X833213D01*
X738035Y320535D02*
X799535D01*
X820858Y299213D01*
X348819Y221260D02*
X353937Y226378D01*
X369098D01*
X371535Y228815D01*
Y247016D01*
X586500Y142480D02*
X587248Y143228D01*
X424035Y151594D02*
X429567Y146063D01*
X467583D01*
X422087Y148583D02*
X428189Y142480D01*
X586500D01*
X1199535Y92035D02*
X1215768Y108268D01*
X1218504D01*
X196850Y299213D02*
X206614D01*
X212520Y305118D01*
X327835D01*
X329567Y303386D01*
X170472Y302598D02*
X173346Y305472D01*
X170472Y298819D02*
Y302598D01*
X292748Y203315D02*
Y207228D01*
Y203315D02*
X299213Y196850D01*
X418386D02*
X425906Y204370D01*
X299213Y196850D02*
X418386D01*
X642248Y27941D02*
Y33587D01*
X646063Y37402D01*
X763248Y55228D02*
X788248D01*
X787307Y50787D02*
X806748Y70228D01*
X781496Y50787D02*
X787307D01*
X771748Y51228D02*
X776126Y46850D01*
X786870D01*
X807748Y67728D01*
X770748Y48728D02*
X775382Y44094D01*
X787614D01*
X808748Y65228D01*
X769748Y46228D02*
X774638Y41339D01*
X788358D01*
X809748Y62728D01*
X768748Y43728D02*
X773894Y38583D01*
X789102D01*
X810748Y60228D01*
X767433Y41228D02*
X772835Y35827D01*
X789847D01*
X811248Y57228D01*
X1221035Y142535D02*
Y179555D01*
X1147035Y229933D02*
Y287035D01*
Y229933D02*
X1191929Y185039D01*
X1215551D01*
X1221035Y179555D01*
X1120535Y313535D02*
X1147035Y287035D01*
X993307Y209842D02*
X1059614Y143535D01*
X1075535D01*
X855894Y67728D02*
X953555D01*
X978268Y92441D01*
X1027756D01*
X854457Y65228D02*
X955976D01*
X978740Y87992D01*
X1021063D01*
X853020Y62728D02*
X958398D01*
X979842Y84173D01*
X1071850D01*
X851583Y60228D02*
X960819D01*
X981890Y81299D01*
X1072638D01*
X850216Y57657D02*
X963169D01*
X984240Y78728D01*
X1073610D01*
X1020394Y218504D02*
X1020984Y217913D01*
X1019685Y218504D02*
X1020394D01*
X957323Y217913D02*
X1020984D01*
X588819Y222008D02*
X627520D01*
X635716Y230205D01*
X736772D01*
X462803Y251228D02*
X617866D01*
X623866Y245228D01*
X731748D01*
X461917Y253728D02*
X621272D01*
X625772Y249228D01*
X737248D01*
X620748Y265228D02*
X633248Y252728D01*
X628248Y265728D02*
X637248Y256728D01*
X720748D01*
X143110Y425394D02*
X154921Y413583D01*
X147835Y469488D02*
X148602Y470256D01*
X170748Y418189D02*
X172598Y416339D01*
X184843D01*
X177008Y463504D02*
X178504D01*
Y462598D02*
Y463504D01*
X167165Y459252D02*
X167480Y458937D01*
X165945Y459252D02*
X167165D01*
X160945Y462402D02*
X166004Y467461D01*
X179508D01*
X181968Y465000D01*
X180098Y470256D02*
X182953Y467402D01*
X179921Y479134D02*
X180512Y478543D01*
X177756Y492717D02*
X179921Y490551D01*
Y479134D02*
Y490551D01*
X169882Y493110D02*
X173425Y489567D01*
Y478937D02*
Y489567D01*
X163748Y513189D02*
X166732D01*
X172990Y519447D01*
X180433Y518004D02*
X180917Y517520D01*
X181299D01*
X176575Y551772D02*
X177205Y552402D01*
X185748Y540433D02*
X185787Y540472D01*
X177205Y552402D02*
X177417Y552189D01*
X178748D01*
X180433Y545787D02*
X180905Y546260D01*
X184724Y567402D02*
Y574803D01*
X163779D02*
X164724D01*
X173031Y565827D02*
X174724Y567520D01*
Y574803D01*
X196653Y424606D02*
X203571Y417689D01*
X191142Y424606D02*
X196653D01*
X193504Y420669D02*
X201378Y412795D01*
X188779Y422244D02*
X191142Y424606D01*
X198748Y499689D02*
Y499945D01*
X201142Y486142D02*
X204189Y489189D01*
X197136Y506801D02*
X198248Y505689D01*
X202992Y504189D02*
Y530445D01*
X202748Y540480D02*
Y540689D01*
X197835Y640748D02*
X198083Y640996D01*
X229724Y394291D02*
X245276D01*
X242748Y416689D02*
X244248Y418189D01*
X219248Y421689D02*
X220748Y423189D01*
X234055Y417689D02*
X237075Y420709D01*
X244685Y486063D02*
Y489961D01*
X226575Y525787D02*
X227118Y525244D01*
X236968Y529685D02*
X240787D01*
X235984Y527283D02*
X241772D01*
X245630Y505315D02*
Y513307D01*
X242795Y504449D02*
Y513858D01*
X235000Y524882D02*
X245866D01*
X238248Y554189D02*
X238748Y554689D01*
X243583Y550748D02*
X243937Y550394D01*
Y532835D02*
Y550394D01*
X234055Y539094D02*
X238898Y534252D01*
X234055Y539094D02*
Y555689D01*
X237185Y558819D01*
X231653Y535000D02*
Y557689D01*
X228872Y534396D02*
Y560104D01*
X221248Y567941D02*
Y574189D01*
X229748Y567779D02*
Y574189D01*
X225807Y563839D02*
X229748Y567779D01*
X269248Y480634D02*
Y482189D01*
Y480634D02*
X272913Y476968D01*
X273941Y482996D02*
Y488264D01*
X257283Y499016D02*
X263189D01*
X273941Y488264D01*
X260039Y483268D02*
Y492717D01*
X250197Y485000D02*
Y497047D01*
X252953Y482874D02*
Y497992D01*
X250197Y510551D02*
Y513346D01*
X258539Y521689D01*
X255748Y511189D02*
X267787D01*
X255748Y504689D02*
X269878D01*
X265472Y536535D02*
Y543425D01*
X248504Y534016D02*
X248543Y534055D01*
X248622D01*
X260827Y545905D02*
X265118Y550197D01*
X265472Y543425D02*
X268898Y546850D01*
X267874Y535551D02*
Y542362D01*
X269803Y544291D01*
X275394Y539961D02*
X275748D01*
X260827Y539843D02*
Y545905D01*
X289567Y350197D02*
X296256D01*
X285236Y360827D02*
Y370669D01*
X288256Y373689D01*
X296748D01*
X290374Y355689D02*
X291748D01*
X285236Y360827D02*
X290374Y355689D01*
X282480Y371850D02*
X288386Y377756D01*
X282480Y357283D02*
Y371850D01*
X279724Y372638D02*
X287276Y380189D01*
X279724Y356496D02*
Y372638D01*
X302681Y377756D02*
X305748Y374689D01*
X288386Y377756D02*
X302681D01*
X287276Y380189D02*
X305748D01*
X296248Y406189D02*
X305248Y397189D01*
X296248Y390189D02*
X296748Y389689D01*
X285236Y388386D02*
X287433Y386189D01*
X297990Y394447D02*
X300248Y392189D01*
X299847Y397091D02*
X302248Y394689D01*
X284886Y397091D02*
X299847D01*
X279331Y391535D02*
X284886Y397091D01*
X285785Y394447D02*
X297990D01*
X278937Y387598D02*
X285785Y394447D01*
X282248Y421689D02*
X304748D01*
X279748Y415189D02*
X305248D01*
X280748Y417689D02*
X304248D01*
X284248Y490189D02*
X288248D01*
X278748Y484689D02*
X284248Y490189D01*
X296532Y494689D02*
X305118Y486102D01*
X283748Y494689D02*
X296532D01*
X287563Y508504D02*
X291748D01*
X293248Y510906D02*
X296465Y507689D01*
X291748Y508504D02*
X295488Y504764D01*
X288748Y504189D02*
X290575Y502362D01*
X285248Y521689D02*
X289740Y526181D01*
X283748Y525689D02*
X286707Y528648D01*
X284465Y510906D02*
X293248D01*
X279748Y506189D02*
X284465Y510906D01*
X281248Y502189D02*
X287563Y508504D01*
X289531Y554689D02*
X291260Y556417D01*
X288425Y550197D02*
X288504Y550276D01*
X288543D01*
X292284Y554016D01*
X291575Y546850D02*
X293779Y549055D01*
X279248Y535689D02*
X303602D01*
X300748Y544291D02*
X301417Y543622D01*
X303228Y574803D02*
X304803D01*
X304410D02*
X304803D01*
X304410Y568661D02*
Y574803D01*
X298937Y630236D02*
Y630709D01*
X311748Y353189D02*
Y355689D01*
X321748Y352457D02*
Y355689D01*
Y365689D02*
X322748Y366689D01*
Y377189D01*
X310248Y406189D02*
X314248Y402189D01*
X313748Y430689D02*
X329748D01*
X319764Y421339D02*
X328598D01*
X315248Y425189D02*
X328248D01*
X314248Y427689D02*
X329248D01*
X307126Y484094D02*
X317795D01*
X310197Y495394D02*
X321575Y484016D01*
X317795Y484094D02*
X320276Y481614D01*
X310118Y476968D02*
X311221Y475866D01*
X313701Y480905D02*
X315413Y479193D01*
X322673Y499689D02*
X335591Y486772D01*
X315315Y550787D02*
X320346D01*
X315945Y548032D02*
X321665D01*
X314779Y536221D02*
X328248Y549689D01*
X309842Y536221D02*
X314779D01*
X314803Y570945D02*
Y574803D01*
X318661Y629646D02*
X331968D01*
X316496Y627480D02*
X318661Y629646D01*
X310039Y627480D02*
X316496D01*
X327756Y624213D02*
X328622Y625079D01*
X324535Y640996D02*
X329035Y636496D01*
X361748Y365689D02*
Y371689D01*
X355748Y377689D02*
X361748Y371689D01*
X353748Y387189D02*
X355748Y385189D01*
X338248Y387189D02*
X342748Y382689D01*
X340248Y409689D02*
X364748D01*
X357748Y392189D02*
X362248Y387689D01*
X358748Y394689D02*
X363248Y390189D01*
X359748Y397189D02*
X364248Y392689D01*
X360748Y399689D02*
X365248Y395189D01*
X338248Y404689D02*
X362748D01*
X339248Y407189D02*
X363748D01*
X344748Y421189D02*
X346748Y423189D01*
X346248Y417189D02*
X349748Y420689D01*
X343248Y417189D02*
X346248D01*
X347248Y414689D02*
X350748Y418189D01*
X342248Y414689D02*
X347248D01*
X341248Y412189D02*
X365748D01*
X350433Y464213D02*
X351102Y463543D01*
X349016Y490748D02*
X351417Y493150D01*
X340000Y490748D02*
X349016D01*
X365591Y517559D02*
Y523661D01*
X340815Y507689D02*
X340827Y507677D01*
Y503228D02*
Y507677D01*
X348819Y535827D02*
Y536221D01*
X345472Y580748D02*
Y581299D01*
X342248Y590689D02*
X342264D01*
X347756Y585197D01*
X381748Y365689D02*
Y378689D01*
X380248Y380189D02*
X381748Y378689D01*
X371063Y413339D02*
Y414370D01*
X368051Y479193D02*
X370197Y477047D01*
X368189Y486772D02*
X369016Y487598D01*
X369803Y488386D01*
X369882D01*
X370197Y477047D02*
X370630Y477480D01*
X371575Y520433D02*
X371811D01*
X371575D02*
X378465Y527323D01*
X379606Y520394D02*
X383902Y524689D01*
X367284Y545189D02*
X368748Y546654D01*
X419882Y352559D02*
Y368701D01*
X417126Y353346D02*
Y367913D01*
X414748Y373835D02*
Y380189D01*
Y373835D02*
X419882Y368701D01*
Y374606D02*
X422638Y371850D01*
X399748Y423189D02*
X405248Y417689D01*
X411748D01*
X417248Y423189D01*
X398748Y420689D02*
X404248Y415189D01*
X412748D01*
X418248Y420689D01*
X397748Y418189D02*
X403248Y412689D01*
X416248D01*
X421748Y418189D01*
X408858Y421457D02*
X411811D01*
X423071Y432717D01*
X401850Y469842D02*
X405138Y466555D01*
X406043Y469035D02*
X420571D01*
X405138Y466555D02*
X424035D01*
X409213Y477480D02*
X423425Y491693D01*
X418347Y473347D02*
X424724Y479724D01*
X408661Y472913D02*
X420748Y485000D01*
X409016Y481614D02*
X423661Y496260D01*
X408032Y484016D02*
X422677Y498661D01*
X400984Y520276D02*
X402441Y521732D01*
X412441Y549567D02*
X412677Y549803D01*
X412205D02*
X412677D01*
X412205D02*
X412441Y549567D01*
X407638Y554370D02*
Y554606D01*
X401142Y551457D02*
Y551795D01*
X403622Y552362D02*
Y554134D01*
Y552362D02*
X416811Y539173D01*
X401142Y551457D02*
X415827Y536772D01*
X412441Y549567D02*
X418189Y543819D01*
X407638Y554370D02*
X412205Y549803D01*
X415118Y558976D02*
X420354Y553740D01*
X416929Y597126D02*
X418866Y595189D01*
X431890Y414213D02*
X433413Y412689D01*
X430315Y466732D02*
X430617Y466430D01*
X430276Y485000D02*
Y485512D01*
X452402Y496260D02*
X454095Y494567D01*
X439173Y519331D02*
X443819Y514685D01*
X436260Y516929D02*
X440906Y512284D01*
X427402Y516929D02*
X436260D01*
X431535Y527323D02*
X434402Y530189D01*
X430276Y503228D02*
Y504016D01*
X442835Y521732D02*
X445079Y519488D01*
X485157Y428898D02*
Y429598D01*
X461748Y423189D02*
X464748Y420189D01*
X459795Y420689D02*
X462795Y417689D01*
X458614Y418189D02*
X461614Y415189D01*
X475248Y463189D02*
X476941Y464882D01*
X467748Y470189D02*
X469248D01*
X469489Y466430D02*
X473335Y470276D01*
X467583Y461024D02*
X474433Y467874D01*
X478748Y474189D02*
X480740Y476181D01*
X475000Y498622D02*
X475079Y498701D01*
X466748Y490189D02*
X467465Y490906D01*
X471102Y475433D02*
X478543Y482874D01*
X467717Y475433D02*
X471102D01*
X470248Y480189D02*
X475689Y485630D01*
X467126Y512284D02*
X479252Y524409D01*
X464724Y514685D02*
X479016Y528976D01*
X479055Y528937D01*
X469488Y550039D02*
X485472Y534055D01*
X495248Y341902D02*
Y347189D01*
X505248Y341902D02*
Y347189D01*
X515248Y341902D02*
Y347189D01*
X495248Y377689D02*
X505248D01*
X515248D01*
X493248Y379689D02*
X495248Y377689D01*
X502248Y410189D02*
X509748Y402689D01*
X501248Y407689D02*
X508748Y400189D01*
X497882D02*
X505382Y392689D01*
X499248Y402689D02*
X506748Y395189D01*
X500248Y405189D02*
X507748Y397689D01*
X509016Y430551D02*
X511654Y433189D01*
X488551Y432992D02*
X500445D01*
X515748Y417689D01*
X507248Y422689D02*
X514748Y415189D01*
X506248Y420189D02*
X513748Y412689D01*
X491063Y467874D02*
X493032Y469842D01*
X509094Y467441D02*
X515709D01*
X506535Y464882D02*
X509094Y467441D01*
X514016Y515551D02*
X514055Y515512D01*
X506890Y511689D02*
X509878Y508701D01*
X504095Y507795D02*
X504173Y507717D01*
X496811Y547165D02*
Y557717D01*
X514606Y542598D02*
X514764Y542756D01*
X487677D02*
X487835Y542598D01*
X514606D01*
X525248Y341902D02*
Y347189D01*
X535248Y341902D02*
Y347189D01*
X544748Y342402D02*
Y347689D01*
Y342402D02*
X545248Y341902D01*
X525248Y377689D02*
X535248D01*
X545248D01*
X522795Y466811D02*
Y469842D01*
X521850Y515512D02*
Y515551D01*
X534646Y538189D02*
X540197Y543740D01*
X545146Y548689D01*
X517717Y538189D02*
X534646D01*
X555248Y341902D02*
Y347689D01*
X565248Y341902D02*
Y347689D01*
X555248Y377689D02*
X565248D01*
X561850Y459842D02*
X563996Y461988D01*
X558268Y462244D02*
X561713Y465689D01*
X563209Y480138D02*
X568307Y475039D01*
X565158Y482874D02*
X570590Y477441D01*
X565906Y485630D02*
X571693Y479843D01*
X571614Y490906D02*
X572520Y490000D01*
X567646Y488386D02*
X571189Y484842D01*
X549213Y500197D02*
X575787D01*
X586811Y370276D02*
X587992Y371457D01*
X581299Y373031D02*
X582091D01*
X583248Y374189D01*
X593248Y367689D02*
X594248Y368689D01*
X593748Y392689D02*
X600748Y385689D01*
X594748Y395189D02*
X601748Y388189D01*
X595748Y397689D02*
X602748Y390689D01*
X596748Y400189D02*
X603748Y393189D01*
X597748Y402689D02*
X604748Y395689D01*
X598748Y405189D02*
X605748Y398189D01*
X589748Y496689D02*
X590177Y496260D01*
X591142D01*
X584842Y500591D02*
X596654D01*
X578819Y494567D02*
X584842Y500591D01*
X591890Y542756D02*
X592457Y542189D01*
X592717Y541929D01*
X587047Y538740D02*
X588819Y536969D01*
X581732Y532756D02*
X581850Y532874D01*
X588965Y552689D02*
X589094Y552559D01*
X588465Y553189D02*
X588965Y552689D01*
X588031Y552756D02*
X588465Y553189D01*
X612402Y377756D02*
X613189Y378543D01*
X613748Y353189D02*
X616748Y356189D01*
X612748Y355689D02*
X615748Y358689D01*
X611998Y358439D02*
X614748Y361189D01*
X619748Y374189D02*
X622248Y376689D01*
X624016Y371457D02*
X628748Y376189D01*
X629748Y368689D02*
X633248Y372189D01*
X610248Y363689D02*
X612748Y366189D01*
X611248Y361189D02*
X613748Y363689D01*
X618248Y405689D02*
X622248Y409689D01*
X619248Y403189D02*
X623248Y407189D01*
X620248Y400689D02*
X624248Y404689D01*
X621248Y398189D02*
X625248Y402189D01*
X622248Y395689D02*
X626248Y399689D01*
X623248Y393189D02*
X627248Y397189D01*
X610748Y410689D02*
X616248D01*
X609748Y408189D02*
X617248D01*
X608748Y405689D02*
X618248D01*
X607748Y403189D02*
X619248D01*
X633248Y383189D02*
X634748Y384689D01*
X624248Y390689D02*
X628248Y394689D01*
X626539Y382480D02*
X631248Y387189D01*
X626248Y385689D02*
X630248Y389689D01*
X625248Y388189D02*
X629248Y392189D01*
X613386Y417087D02*
X615988Y419689D01*
X615248Y413189D02*
X619248Y417189D01*
X611748Y413189D02*
X615248D01*
X652248Y342902D02*
X652362Y343016D01*
X662248Y342902D02*
X662362Y343016D01*
X642248Y378689D02*
X652248D01*
X662248D01*
X648748Y596689D02*
X651469Y599409D01*
X672126Y343024D02*
X672248Y342902D01*
Y378689D02*
X682248D01*
X692248D01*
X667618Y469842D02*
X678272Y459189D01*
X681937Y490000D02*
X690248Y481689D01*
X681606Y484842D02*
X689748Y476701D01*
X680905Y479843D02*
X688059Y472689D01*
X674528Y593110D02*
Y593386D01*
X712248Y342902D02*
X712362Y343016D01*
X712248Y343130D02*
X712362Y343016D01*
X702248Y378689D02*
X712248D01*
X713248Y377689D01*
X714248Y423689D02*
X714748D01*
X697748D02*
X714248D01*
X754748Y378689D02*
Y379689D01*
X737748Y419689D02*
X739748Y421689D01*
X744748Y417189D02*
X746748Y419189D01*
X747441Y464689D02*
X750591Y467839D01*
X750087Y462028D02*
X753333Y465274D01*
X729248Y487189D02*
X740748D01*
X744248Y496689D02*
X751094Y489843D01*
X745472Y476575D02*
Y476701D01*
X729248Y492689D02*
X743110D01*
X753333Y482467D01*
X729248Y481689D02*
X748228D01*
X750591Y479327D01*
X733248Y509689D02*
X735163Y511604D01*
X746748Y521689D02*
X750248Y518189D01*
X736748Y519689D02*
X743263Y526204D01*
X741248Y548689D02*
X746248Y543689D01*
X736772Y545165D02*
X743248Y538689D01*
X739055Y628701D02*
Y629803D01*
X733035Y630496D02*
X738035Y635496D01*
X760248Y373189D02*
X763248Y370189D01*
X770575Y407189D02*
X772874Y409488D01*
X766142Y419055D02*
X774370D01*
X759276Y412189D02*
X766142Y419055D01*
X771661Y465189D02*
X771748Y465276D01*
X771661Y465189D02*
X771748D01*
X774413Y496024D02*
X775748Y494689D01*
X773579Y495189D02*
X774413Y496024D01*
X777953Y500591D02*
X778701Y499843D01*
X775748Y484189D02*
Y484689D01*
X774902Y479843D02*
X778701D01*
X778248Y505689D02*
X778748Y506189D01*
X779134Y506575D01*
X774988Y554189D02*
X775437Y553740D01*
X778650Y548689D02*
X778701Y548740D01*
X775386Y543689D02*
X775437Y543740D01*
X778650Y538689D02*
X778701Y538740D01*
X778650Y558689D02*
X778701Y558740D01*
X758248Y558689D02*
X778650D01*
X772748Y573189D02*
X777248D01*
X774748Y568740D02*
X778701D01*
X773197Y567189D02*
X774748Y568740D01*
X767248Y567189D02*
X773197D01*
X775386Y563689D02*
X775437Y563740D01*
X762748Y563689D02*
X775386D01*
X766748Y567689D02*
X767248Y567189D01*
X770748Y571189D02*
X772748Y573189D01*
X780000Y629803D02*
X784685Y625118D01*
X788748Y374189D02*
X788748Y374189D01*
X789748Y382189D02*
X802748Y395189D01*
X788748Y384689D02*
X801748Y397689D01*
X787748Y387189D02*
X800748Y400189D01*
X810118Y421339D02*
X814095Y425315D01*
X810118Y421339D02*
X810157D01*
X801260Y620118D02*
X810197D01*
X841220Y425315D02*
X843110Y423425D01*
X823486Y415652D02*
X828583Y420748D01*
X828343Y459689D02*
X828504Y459528D01*
X842402Y495276D02*
X842835Y494842D01*
X842315Y495189D02*
X842402Y495276D01*
X841815Y494689D02*
X842315Y495189D01*
X842681Y484689D02*
X842835Y484842D01*
X842681Y474689D02*
X842835Y474843D01*
X827362Y530118D02*
X830118Y527362D01*
X784845Y530118D02*
X827362D01*
X823133Y526204D02*
X823189Y526260D01*
X828937Y535630D02*
X829724Y534842D01*
X840610Y571516D02*
X842835Y573740D01*
X819331Y573307D02*
X821122Y571516D01*
X840610D01*
X839701Y579189D02*
X843386Y582874D01*
X844291D01*
X834689Y576689D02*
X836102Y575276D01*
X821248Y584189D02*
X825445Y588386D01*
X831299D01*
X832874Y586811D01*
X834055D01*
X825784Y581689D02*
X827756Y583661D01*
Y584055D01*
X834842Y611614D02*
X843347Y620118D01*
X818701Y611614D02*
X834842D01*
X819449Y593110D02*
X822992Y596654D01*
X847445Y469689D02*
X847598Y469842D01*
Y538740D02*
X847638Y538779D01*
X873425Y586811D02*
X873465D01*
X889551Y402189D02*
X891299Y403937D01*
X904409Y397441D02*
X904921D01*
X902157Y395189D02*
X904409Y397441D01*
X884685Y433189D02*
X902795Y415079D01*
X893504Y465276D02*
X898661Y460118D01*
X752748Y522189D02*
X888386D01*
Y522638D01*
X894961Y518189D02*
X895079Y518307D01*
X887937Y522189D02*
X888386Y522638D01*
X896260Y538740D02*
Y538779D01*
X894535Y624496D02*
X898535Y628496D01*
X946653Y407126D02*
X964409D01*
X944488Y401575D02*
X957480D01*
X956909Y532461D02*
X957323Y532874D01*
X956909Y532106D02*
Y532461D01*
X963740Y620118D02*
X963976Y619882D01*
X969882Y363189D02*
X971063Y362008D01*
X969449Y459331D02*
X980591D01*
X991929Y470669D01*
X971614Y592283D02*
X972283Y592953D01*
X1027756Y407402D02*
X1027913Y407559D01*
X1153035Y407996D02*
X1164535D01*
X1150535Y405496D02*
X1153035Y407996D01*
X1180035Y392496D02*
X1189535Y401996D01*
X1190630Y460630D02*
Y464213D01*
X1188307Y466535D02*
X1190630Y464213D01*
X1180079Y466535D02*
X1188307D01*
X1180630Y460118D02*
Y460630D01*
X1215535Y451996D02*
X1221035Y457496D01*
X1208535Y451996D02*
X1215535D01*
X142717Y471850D02*
X144291Y473425D01*
X134843Y607756D02*
X150354Y623268D01*
X180945Y473425D02*
X184567Y469803D01*
X163779Y556693D02*
Y574803D01*
X185748Y525689D02*
Y540433D01*
X172990Y519447D02*
Y555667D01*
X184724Y567402D01*
X176575Y509646D02*
Y551772D01*
X180433Y518004D02*
Y545787D01*
X173031Y562008D02*
Y565827D01*
X201248Y532189D02*
X202992Y530445D01*
X197136Y506801D02*
Y543829D01*
X198748Y499945D02*
X202992Y504189D01*
X217480Y469803D02*
X227118Y479441D01*
X218622Y467402D02*
X232087Y480866D01*
X225807Y534075D02*
X235000Y524882D01*
X231653Y535000D02*
X236968Y529685D01*
X240787D02*
X243937Y532835D01*
X228872Y534396D02*
X235984Y527283D01*
X231653Y557689D02*
X235185Y561221D01*
X228872Y560104D02*
X235957Y567189D01*
X225807Y534075D02*
Y563839D01*
X256299Y376378D02*
Y383268D01*
X260039Y483268D02*
X271339Y471969D01*
X269878Y504689D02*
X274878Y499689D01*
X282480Y357283D02*
X289567Y350197D01*
X296256D02*
X301748Y355689D01*
X279724Y356496D02*
X288531Y347689D01*
X296969Y561221D02*
X304410Y568661D01*
X282248Y531189D02*
X282870Y531811D01*
X313976Y344685D02*
X321748Y352457D01*
X316248Y383689D02*
X322748Y377189D01*
X324425Y386189D02*
X332925Y377689D01*
X325000Y389689D02*
X334500Y380189D01*
X330157Y504764D02*
X335512Y499409D01*
X341748Y355689D02*
X355508Y341929D01*
X351748Y355689D02*
X362752Y344685D01*
X356260Y469842D02*
Y471299D01*
X342677Y471969D02*
X350433Y464213D01*
X350472Y590984D02*
X353858Y587598D01*
X353569Y528648D02*
X356110Y531189D01*
X352244Y531811D02*
X356622Y536189D01*
X381748Y355689D02*
X387240Y350197D01*
X371063Y413339D02*
X374213Y410189D01*
X368858Y499409D02*
X372244Y502795D01*
X388228Y596850D02*
X394890Y590189D01*
X368748Y546654D02*
Y563630D01*
X413976Y350197D02*
X417126Y353346D01*
X414764Y347441D02*
X419882Y352559D01*
X415551Y344685D02*
X422638Y351772D01*
X416339Y341929D02*
X425394Y350984D01*
X402350Y382689D02*
X417126Y367913D01*
X420571Y469035D02*
X422835Y471299D01*
X402598Y472480D02*
X406043Y469035D01*
X420323Y385189D02*
X425394Y380118D01*
X400577Y573518D02*
X415118Y558976D01*
X409016Y488386D02*
X424646Y504016D01*
X410394Y493150D02*
X425039Y507795D01*
X433535Y623996D02*
X443535Y613996D01*
X469248Y470189D02*
X479197Y480138D01*
X493248Y379689D02*
Y383689D01*
X505248Y417689D02*
X512748Y410189D01*
X504248Y415189D02*
X511748Y407689D01*
X503248Y412689D02*
X510748Y405189D01*
X487480Y470276D02*
X489449Y472244D01*
X504055Y547165D02*
Y562165D01*
X521850Y515551D02*
X545039Y538740D01*
X604134Y381693D02*
X604921Y382480D01*
X616248Y410689D02*
X620248Y414689D01*
X617248Y408189D02*
X621248Y412189D01*
X652362Y343016D02*
Y351410D01*
X662362Y343016D02*
Y351449D01*
X672126Y343024D02*
Y351410D01*
X682248Y351492D02*
X682362Y351606D01*
X682248Y342902D02*
Y351492D01*
X692248Y351295D02*
X692362Y351410D01*
X692248Y342902D02*
Y351295D01*
X673996Y477441D02*
X681248Y470189D01*
X669031Y472244D02*
X679248Y462028D01*
X670461Y475039D02*
X680811Y464689D01*
X702248Y351335D02*
X702362Y351449D01*
X702248Y342902D02*
Y351335D01*
X712248Y343130D02*
Y351689D01*
X750591Y467839D02*
Y479327D01*
X753333Y465274D02*
Y482467D01*
X733035Y621996D02*
Y630496D01*
X763508Y409689D02*
X766142Y412323D01*
X788748Y374189D02*
X804748Y390189D01*
X788248Y370189D02*
X805748Y387689D01*
X789248Y378189D02*
X803748Y392689D01*
X790748Y630630D02*
X801260Y620118D01*
X827795Y533228D02*
X830118Y530905D01*
X819248Y589189D02*
X823957Y593898D01*
X820248Y586689D02*
X824701Y591142D01*
X869094D02*
X873425Y586811D01*
X941732Y411221D02*
X947047Y416535D01*
X955709Y530905D02*
X956909Y532106D01*
X1006417Y624213D02*
X1013268Y617362D01*
X1042402Y419291D02*
X1050827Y410866D01*
X1030906Y459252D02*
Y474213D01*
X134843Y576968D02*
Y607756D01*
X232087Y480866D02*
Y502559D01*
X227118Y479441D02*
Y525244D01*
X223622Y465000D02*
X244685Y486063D01*
X422638Y351772D02*
Y371850D01*
X425394Y350984D02*
Y380118D01*
X991929Y470669D02*
Y508465D01*
X156102Y421850D02*
X156496Y422244D01*
X152165Y462402D02*
X160945D01*
X245276Y394291D02*
X256299Y383268D01*
X237205Y400197D02*
X246260D01*
X262795Y387598D02*
X278937D01*
X263583Y391535D02*
X279331D01*
X246260Y400197D02*
X262768Y383689D01*
X245079Y410039D02*
X263583Y391535D01*
X191142Y410039D02*
X245079D01*
X190354Y407283D02*
X243110D01*
X262795Y387598D01*
X274228Y420709D02*
X279748Y415189D01*
X273248Y418189D02*
X278748Y412689D01*
X244248Y418189D02*
X273248D01*
X275248Y423189D02*
X280748Y417689D01*
X220748Y423189D02*
X275248D01*
X203571Y417689D02*
X234055D01*
X237075Y420709D02*
X274228D01*
X201378Y412795D02*
X274756D01*
X178504Y462598D02*
X227795D01*
X184567Y469803D02*
X217480D01*
X182953Y467402D02*
X218622D01*
X181968Y465000D02*
X223622D01*
X204189Y489189D02*
X223248D01*
X273941Y482996D02*
X276031Y480905D01*
X216248Y516189D02*
Y526980D01*
X258539Y521689D02*
X285248D01*
X267787Y511189D02*
X276787Y502189D01*
X281248D01*
X265118Y550197D02*
X288425D01*
X238748Y554689D02*
X289531D01*
X275748Y539961D02*
X275945Y539764D01*
X235957Y567189D02*
X267748D01*
X173346Y620433D02*
X206890D01*
X180354Y623268D02*
X197835Y640748D01*
X332925Y377689D02*
X355748D01*
X334500Y380189D02*
X380248D01*
X305748D02*
X306248Y379689D01*
X305748Y374689D02*
X311248D01*
X303748Y406189D02*
X310248Y399689D01*
X342748Y382689D02*
X402350D01*
X296748Y389689D02*
X325000D01*
X300248Y392189D02*
X357748D01*
X302248Y394689D02*
X358748D01*
X305248Y397189D02*
X359748D01*
X310248Y399689D02*
X360748D01*
X314248Y402189D02*
X361748D01*
X366248Y397689D01*
X332748Y410189D02*
X338248Y404689D01*
X362748D02*
X367248Y400189D01*
X363748Y407189D02*
X368248Y402689D01*
X364748Y409689D02*
X369248Y405189D01*
X346748Y423189D02*
X399748D01*
X349748Y420689D02*
X398748D01*
X350748Y418189D02*
X397748D01*
X304748Y421689D02*
X313748Y430689D01*
X304248Y417689D02*
X314248Y427689D01*
X305248Y415189D02*
X315248Y425189D01*
X329748Y430689D02*
X343248Y417189D01*
X329248Y427689D02*
X342248Y414689D01*
X328248Y425189D02*
X341248Y412189D01*
X356260Y469842D02*
X401850D01*
X362559Y475866D02*
X365945Y472480D01*
X335591Y486772D02*
X368189D01*
X305118Y486102D02*
X307126Y484094D01*
X315413Y479193D02*
X368051D01*
X311221Y475866D02*
X362559D01*
X335512Y499409D02*
X368858D01*
X370630Y477480D02*
X409213D01*
X365945Y472480D02*
X402598D01*
X351417Y493150D02*
X410394D01*
X369882Y488386D02*
X409016D01*
X321575Y484016D02*
X408032D01*
X320276Y481614D02*
X409016D01*
X366929Y525000D02*
X369843D01*
X365591Y523661D02*
X366929Y525000D01*
X365591Y517559D02*
X367362Y515787D01*
X295488Y504764D02*
X330157D01*
X296465Y507689D02*
X340815D01*
X332874Y526181D02*
X339921Y519134D01*
X292284Y554016D02*
X318740D01*
X328248Y549689D02*
X363748D01*
X348248Y545189D02*
X367284D01*
X356622Y536189D02*
X366248D01*
X303602Y535689D02*
X315945Y548032D01*
X304291Y539764D02*
X315315Y550787D01*
X343077Y573518D02*
X400577D01*
X344476Y570843D02*
X391402D01*
X395866Y595276D02*
X398453Y592689D01*
X306811Y630709D02*
X310039Y627480D01*
X298937Y630709D02*
X306811D01*
X312992Y632047D02*
X388228D01*
X336614Y625000D02*
X337205D01*
X331968Y629646D02*
X336614Y625000D01*
X329035Y636496D02*
X391035D01*
X403535Y623996D01*
X515248Y377689D02*
X525248D01*
X485157Y429598D02*
X488551Y432992D01*
X423071Y432717D02*
X455721D01*
X465748Y422689D01*
X507248D01*
X464748Y420189D02*
X506248D01*
X433413Y412689D02*
X503248D01*
X417248Y423189D02*
X461748D01*
X462795Y417689D02*
X505248D01*
X418248Y420689D02*
X459795D01*
X461614Y415189D02*
X504248D01*
X421748Y418189D02*
X458614D01*
X513661Y462874D02*
X516693Y459842D01*
X515709Y467441D02*
X520905Y462244D01*
X493032Y469842D02*
X522795D01*
X476941Y464882D02*
X506535D01*
X474433Y467874D02*
X491063D01*
X473335Y470276D02*
X487480D01*
X430617Y466430D02*
X469489D01*
X423425Y491693D02*
X427598D01*
X424724Y479724D02*
X430512D01*
X480740Y476181D02*
X517126D01*
X420748Y485000D02*
X430276D01*
X475079Y498701D02*
X512047D01*
X423661Y496260D02*
X452402D01*
X422677Y498661D02*
X452126D01*
X434402Y530189D02*
X470748D01*
X440906Y512284D02*
X467126D01*
X443819Y514685D02*
X464724D01*
X479055Y528937D02*
X508465D01*
X514055Y515512D02*
X521850D01*
X479252Y524409D02*
X513346D01*
X474748Y511689D02*
X506890D01*
X509878Y508701D02*
X516181D01*
X426221Y512362D02*
X433819D01*
X424646Y504016D02*
X430276D01*
X425039Y507795D02*
X504095D01*
X416653Y502795D02*
X426221Y512362D01*
X418150Y507677D02*
X427402Y516929D01*
X425906Y519331D02*
X439173D01*
X485472Y534055D02*
X505433D01*
X415827Y536772D02*
X433386D01*
X416811Y539173D02*
X432402D01*
X418189Y543819D02*
X429291D01*
X420354Y553740D02*
X429331D01*
X516535Y599724D02*
X518571Y597689D01*
X443535Y613996D02*
X456535D01*
X545248Y377689D02*
X555248D01*
X578815Y377756D02*
X612402D01*
X576968D02*
X578815D01*
X583248Y374189D02*
X619748D01*
X587992Y371457D02*
X624016D01*
X594248Y368689D02*
X629748D01*
X606748Y400689D02*
X620248D01*
X605748Y398189D02*
X621248D01*
X604748Y395689D02*
X622248D01*
X603748Y393189D02*
X623248D01*
X601748Y388189D02*
X625248D01*
X599748Y407689D02*
X606748Y400689D01*
X600748Y410189D02*
X607748Y403189D01*
X604921Y382480D02*
X626539D01*
X602748Y390689D02*
X624248D01*
X600748Y385689D02*
X626248D01*
X603248Y421689D02*
X611748Y413189D01*
X548248Y421689D02*
X603248D01*
X571189Y484842D02*
X578937D01*
X575984Y494567D02*
X578819D01*
X575787Y500197D02*
X576201D01*
X574094Y517677D02*
X578504Y513268D01*
X592717Y541929D02*
X624606D01*
X545039Y538740D02*
X587047D01*
X581850Y532874D02*
X640354D01*
X589094Y552559D02*
X606890D01*
X576748Y574189D02*
X577937D01*
X631839Y587598D02*
X640248Y579189D01*
X632748Y590189D02*
X641248Y581689D01*
X630709Y585197D02*
X639217Y576689D01*
X662248Y378689D02*
X672248D01*
X692248D02*
X702248D01*
X713248Y377689D02*
X731748D01*
X753941Y414689D02*
X760709Y421457D01*
X679248Y462028D02*
X750087D01*
X680811Y464689D02*
X747441D01*
X663949Y461988D02*
X669248Y456689D01*
X678272Y459189D02*
X750748D01*
X669248Y456689D02*
X751748D01*
X689748Y476701D02*
X745472D01*
X688059Y472689D02*
X729248D01*
X726748Y567689D02*
X727248Y568189D01*
X783748Y374189D02*
X788748D01*
X784748Y394689D02*
X797748Y407689D01*
X786748Y389689D02*
X799748Y402689D01*
X785748Y392189D02*
X798748Y405189D01*
X781638Y397189D02*
X787008Y402559D01*
X777748Y399689D02*
X788833Y410774D01*
X814095Y425315D02*
X841220D01*
X786711Y415652D02*
X823486D01*
X779248Y469689D02*
X847445D01*
X780248Y459689D02*
X828343D01*
X778701Y479843D02*
X847598D01*
X778701Y489843D02*
X847598D01*
X778701Y499843D02*
X847598D01*
X775748Y494689D02*
X841815D01*
X775748Y484689D02*
X842681D01*
X775748Y474689D02*
X842681D01*
X779134Y506575D02*
X847598D01*
X817214Y511604D02*
X881837Y511538D01*
X778701Y548740D02*
X847598D01*
X778701Y558740D02*
X847598D01*
X775437Y543740D02*
X842835D01*
X775437Y553740D02*
X842835D01*
X778701Y538740D02*
X847598D01*
X783622Y535630D02*
X828937D01*
X829724Y534842D02*
X879724D01*
X775437Y563740D02*
X842835D01*
X777248Y573189D02*
X819331Y573307D01*
X778701Y568740D02*
X847598D01*
X810197Y620118D02*
X818701Y611614D01*
X823957Y593898D02*
X875394D01*
X907098Y392689D02*
X913937Y399528D01*
X929716Y390189D02*
X946653Y407126D01*
X935504Y385189D02*
X945984Y395669D01*
X916496Y469842D02*
X985394D01*
X911732Y474843D02*
X980630D01*
X916496Y479843D02*
X985394D01*
X911732Y484842D02*
X980630D01*
X916496Y489843D02*
X985394D01*
X911732Y494842D02*
X980630D01*
X916496Y499843D02*
X985394D01*
X916496Y506575D02*
X985394D01*
X916496Y538740D02*
X985394D01*
X896260D02*
X916496D01*
X911732Y543740D02*
X980630D01*
X916496Y548740D02*
X985394D01*
X911732Y553740D02*
X980630D01*
X916496Y558740D02*
X985394D01*
X911732Y563740D02*
X980630D01*
X916496Y568740D02*
X985394D01*
X911732Y573740D02*
X980630D01*
X941496Y588504D02*
X990748D01*
X972283Y592953D02*
X996535D01*
X900984Y624213D02*
X1006417D01*
X1174535Y392496D02*
X1180035D01*
X274756Y412795D02*
X277362Y410189D01*
X184843Y416339D02*
X191142Y410039D01*
X184055Y413583D02*
X190354Y407283D01*
X229016Y458937D02*
X252953Y482874D01*
X227795Y462598D02*
X250197Y485000D01*
X241772Y527283D02*
X248504Y534016D01*
X202748Y540480D02*
X216248Y526980D01*
X242795Y513858D02*
X265472Y536535D01*
X197136Y543829D02*
X221248Y567941D01*
X245630Y513307D02*
X267874Y535551D01*
X245630Y505315D02*
X252953Y497992D01*
X242795Y504449D02*
X250197Y497047D01*
X245866Y524882D02*
X260827Y539843D01*
X206890Y620433D02*
X223071Y636614D01*
X306248Y347689D02*
X311748Y353189D01*
X361748Y355689D02*
X369996Y347441D01*
X365748Y412189D02*
X370248Y407689D01*
X328598Y421339D02*
X340248Y409689D01*
X333748Y412689D02*
X339248Y407189D01*
X302677Y558819D02*
X314803Y570945D01*
X306417Y556417D02*
X324803Y574803D01*
X391402Y570843D02*
X407638Y554606D01*
X318740Y554016D02*
X345472Y580748D01*
X328386Y502362D02*
X340000Y490748D01*
X320346Y550787D02*
X343077Y573518D01*
X321665Y548032D02*
X344476Y570843D01*
X356110Y531189D02*
X369748D01*
X422835Y471299D02*
X453358D01*
X415748Y531693D02*
X428937D01*
X508465Y528937D02*
X517717Y538189D01*
X513346Y524409D02*
X521969Y533032D01*
X452126Y498661D02*
X456614Y503150D01*
X432402Y539173D02*
X461917Y568689D01*
X433386Y536772D02*
X462803Y566189D01*
X456535Y613996D02*
X464535Y621996D01*
X601748Y412689D02*
X608748Y405689D01*
X602748Y415189D02*
X609748Y408189D01*
X603748Y417689D02*
X610748Y410689D01*
X576201Y500197D02*
X581693Y505689D01*
X546260Y503150D02*
X549213Y500197D01*
X633748Y592689D02*
X642248Y584189D01*
X634748Y595189D02*
X643248Y586689D01*
X635748Y597689D02*
X644248Y589189D01*
X754748Y379689D02*
X757248Y382189D01*
X775748Y404689D02*
X786711Y415652D01*
X776748Y402189D02*
X787748Y413189D01*
X875394Y593898D02*
X881260Y588031D01*
X824701Y591142D02*
X869094D01*
X930591Y599409D02*
X941496Y588504D01*
X929134Y596654D02*
X942717Y583071D01*
X1071850Y399134D02*
X1091476Y418760D01*
X1072638Y396260D02*
X1092756Y416378D01*
X1073610Y393689D02*
X1093898Y413976D01*
X1132303Y418760D02*
X1180079Y466535D01*
X1136890Y416378D02*
X1180630Y460118D01*
X1163976Y413976D02*
X1210630Y460630D01*
X1164535Y407996D02*
X1208535Y451996D01*
X256299Y376378D02*
X287992Y344685D01*
X453358Y471299D02*
X470445Y488386D01*
X464248Y387689D02*
X498748Y353189D01*
X465748Y390189D02*
X500248Y355689D01*
X466760Y392689D02*
X501010Y358439D01*
X467803Y395189D02*
X501803Y361189D01*
X468748Y397689D02*
X502748Y363689D01*
X355508Y341929D02*
X416339D01*
X362752Y344685D02*
X415551D01*
X369996Y347441D02*
X414764D01*
X387240Y350197D02*
X413976D01*
X287992Y344685D02*
X313976D01*
X288531Y347689D02*
X306248D01*
X262768Y383689D02*
X316248D01*
X287433Y386189D02*
X324425D01*
X277362Y410189D02*
X332748D01*
X355748Y385189D02*
X420323D01*
X362248Y387689D02*
X464248D01*
X363248Y390189D02*
X465748D01*
X364248Y392689D02*
X466760D01*
X365248Y395189D02*
X467803D01*
X366248Y397689D02*
X468748D01*
X154921Y413583D02*
X184055D01*
X278748Y412689D02*
X333748D01*
X156496Y422244D02*
X188779D01*
X167480Y458937D02*
X229016D01*
X148602Y470256D02*
X180098D01*
X351102Y463543D02*
X422087D01*
X281693Y458858D02*
X413228Y458976D01*
X276031Y480905D02*
X313701D01*
X272913Y476968D02*
X310118D01*
X144291Y473425D02*
X180945D01*
X274878Y499689D02*
X322673D01*
X367362Y515787D02*
X415590D01*
X290575Y502362D02*
X328386D01*
X378465Y527323D02*
X431535D01*
X383902Y524689D02*
X466248D01*
X340827Y507677D02*
X418150D01*
X372244Y502795D02*
X416653D01*
X402441Y521732D02*
X442835D01*
X286707Y528648D02*
X353569D01*
X289740Y526181D02*
X332874D01*
X291260Y556417D02*
X306417D01*
X269803Y544291D02*
X300748D01*
X268898Y546850D02*
X291575D01*
X237185Y558819D02*
X302677D01*
X275945Y539764D02*
X304291D01*
X150354Y623268D02*
X180354D01*
X223071Y636614D02*
X322480D01*
X260827Y624213D02*
X327756D01*
X198083Y640996D02*
X324535D01*
X403535Y623996D02*
X433535D01*
X500248Y355689D02*
X612748D01*
X501010Y358439D02*
X611998D01*
X501803Y361189D02*
X611248D01*
X615748Y358689D02*
X768748D01*
X612748Y366189D02*
X771748D01*
X502748Y363689D02*
X610248D01*
X613748D02*
X770748D01*
X614748Y361189D02*
X769748D01*
X616748Y356189D02*
X767433D01*
X763748Y378189D02*
X789248D01*
X498748Y353189D02*
X613748D01*
X625248Y402189D02*
X776748D01*
X622248Y409689D02*
X763508D01*
X623248Y407189D02*
X770575D01*
X626248Y399689D02*
X777748D01*
X512748Y410189D02*
X600748D01*
X511748Y407689D02*
X599748D01*
X510748Y405189D02*
X598748D01*
X509748Y402689D02*
X597748D01*
X507748Y397689D02*
X595748D01*
X757248Y382189D02*
X789748D01*
X634748Y384689D02*
X788748D01*
X631248Y387189D02*
X787748D01*
X630248Y389689D02*
X786748D01*
X629248Y392189D02*
X785748D01*
X628248Y394689D02*
X784748D01*
X627248Y397189D02*
X781638D01*
X624248Y404689D02*
X775748D01*
X888759Y408839D02*
X943091D01*
X508748Y400189D02*
X596748D01*
X505382Y392689D02*
X593748D01*
X506748Y395189D02*
X594748D01*
X511654Y433189D02*
X884685D01*
X615988Y419689D02*
X737748D01*
X619248Y417189D02*
X744748D01*
X620248Y414689D02*
X753941D01*
X621248Y412189D02*
X759276D01*
X515748Y417689D02*
X603748D01*
X514748Y415189D02*
X602748D01*
X513748Y412689D02*
X601748D01*
X520905Y462244D02*
X558268D01*
X847598Y469842D02*
X916496D01*
X516693Y459842D02*
X561850D01*
X563996Y461988D02*
X663949D01*
X561713Y465689D02*
X665748D01*
X522795Y469842D02*
X667618D01*
X771748Y465276D02*
X893504D01*
X842835Y474843D02*
X911732D01*
X847598Y479843D02*
X916496D01*
X842835Y484842D02*
X911732D01*
X847598Y489843D02*
X916496D01*
X842835Y494842D02*
X911732D01*
X847598Y499843D02*
X916496D01*
X572520Y490000D02*
X681937D01*
X751248Y495189D02*
X773579D01*
X751094Y489843D02*
X778701D01*
X589748Y496689D02*
X744248D01*
X596654Y500591D02*
X777953D01*
X578937Y484842D02*
X681606D01*
X479197Y480138D02*
X563209D01*
X571693Y479843D02*
X680905D01*
X489449Y472244D02*
X669031D01*
X568307Y475039D02*
X670461D01*
X570590Y477441D02*
X673996D01*
X478543Y482874D02*
X565158D01*
X475689Y485630D02*
X565906D01*
X847598Y506575D02*
X916496D01*
X581693Y505689D02*
X778248D01*
X735163Y511604D02*
X817214D01*
X750248Y518189D02*
X894961D01*
X743263Y526204D02*
X823133D01*
X531496Y517677D02*
X574094D01*
X847598Y548740D02*
X916496D01*
X842835Y553740D02*
X911732D01*
X847598Y558740D02*
X916496D01*
X754248Y554189D02*
X774988D01*
X750248Y548689D02*
X778650D01*
X746248Y543689D02*
X775386D01*
X743248Y538689D02*
X778650D01*
X545146Y548689D02*
X741248D01*
X842835Y543740D02*
X911732D01*
X847638Y538779D02*
X896260D01*
X842835Y563740D02*
X911732D01*
X847598Y568740D02*
X916496D01*
X842835Y573740D02*
X911732D01*
X513748Y574189D02*
X576748D01*
X642248Y584189D02*
X821248D01*
X639217Y576689D02*
X834689D01*
X640248Y579189D02*
X839701D01*
X641248Y581689D02*
X825784D01*
X643248Y586689D02*
X820248D01*
X644248Y589189D02*
X819248D01*
X651469Y599409D02*
X930591D01*
X822992Y596654D02*
X929134D01*
X674528Y593110D02*
X819449D01*
X518571Y597689D02*
X635748D01*
X739055Y629803D02*
X780000D01*
X843535Y624496D02*
X894535D01*
X1091476Y418760D02*
X1132303D01*
X1092756Y416378D02*
X1136890D01*
X1093898Y413976D02*
X1163976D01*
X271339Y471969D02*
X342677D01*
X386772Y560669D02*
X415748Y531693D01*
X235185Y561221D02*
X296969D01*
X282870Y531811D02*
X352244D01*
X751748Y456689D02*
X774902Y479843D01*
X750748Y459189D02*
X775748Y484189D01*
X890354Y411221D02*
X941732D01*
X990929Y514189D02*
X1030906Y474213D01*
X374213Y410189D02*
X502248D01*
X367248Y400189D02*
X497882D01*
X368248Y402689D02*
X499248D01*
X369248Y405189D02*
X500248D01*
X370248Y407689D02*
X501248D01*
X934331Y419291D02*
X1042402D01*
X454095Y494567D02*
X575984D01*
X467465Y490906D02*
X571614D01*
X470445Y488386D02*
X567646D01*
X456614Y503150D02*
X546260D01*
X704748Y514189D02*
X990929D01*
X830118Y527362D02*
X960827D01*
X394890Y590189D02*
X632748D01*
X347756Y585197D02*
X630709D01*
X353858Y587598D02*
X631839D01*
X398453Y592689D02*
X633748D01*
X418866Y595189D02*
X634748D01*
X843347Y620118D02*
X963740D01*
X949803Y597047D02*
X1012795D01*
X898535Y628496D02*
X1120535D01*
X830118Y530905D02*
X955709D01*
X464535Y621996D02*
X733035D01*
X479528Y516929D02*
X482480Y519882D01*
X519252D01*
X389846Y567909D02*
X403622Y554134D01*
X368748Y563630D02*
X373028Y567909D01*
X387748Y565189D02*
X401142Y551795D01*
X371535Y561976D02*
X374748Y565189D01*
X373028Y567909D02*
X389846D01*
X374748Y565189D02*
X387748D01*
X379134Y534291D02*
Y560236D01*
X369843Y525000D02*
X379134Y534291D01*
X930484Y387570D02*
X944488Y401575D01*
X811248Y372189D02*
X842772D01*
X851772Y363189D01*
X969882D01*
X810748Y375189D02*
X843709D01*
X852559Y366339D01*
X1015158D01*
X809748Y377689D02*
X845146D01*
X850216Y372618D01*
X808748Y380189D02*
X846583D01*
X851583Y375189D01*
X807748Y382689D02*
X848020D01*
X853020Y377689D01*
X806748Y385189D02*
X849457D01*
X854457Y380189D01*
X805748Y387689D02*
X850894D01*
X855894Y382689D01*
X803748Y392689D02*
X853768D01*
X858887Y387570D01*
X930484D01*
X804748Y390189D02*
X852331D01*
X857331Y385189D01*
X935504D01*
X802748Y395189D02*
X855205D01*
X860205Y390189D01*
X929716D01*
X801748Y397689D02*
X856642D01*
X861642Y392689D01*
X907098D01*
X800748Y400189D02*
X858079D01*
X863079Y395189D01*
X902157D01*
X799748Y402689D02*
X859516D01*
X862874Y399331D01*
X896496D01*
X863953Y402189D02*
X889551D01*
X788833Y410774D02*
X868333D01*
X868189Y410630D02*
X868333Y410774D01*
X798748Y405189D02*
X860953D01*
X863953Y402189D01*
X797748Y407689D02*
X862390D01*
X864016Y406063D01*
X884921D01*
X867323Y410630D02*
X868189D01*
X843110Y423425D02*
X866339D01*
X868307Y421457D01*
Y416535D02*
Y421457D01*
X787748Y413189D02*
X858071D01*
X863386Y418504D01*
X873228D02*
X883071D01*
X890354Y411221D01*
X868307Y416535D02*
X872244Y412598D01*
X885000D01*
X888759Y408839D01*
X946850Y412598D02*
X999213D01*
X943091Y408839D02*
X946850Y412598D01*
X947047Y416535D02*
X1003150D01*
X1007402Y412284D01*
X1010709D01*
X942717Y583071D02*
X943898Y581890D01*
X945866Y583858D01*
X983465D01*
X881837Y511538D02*
X988856D01*
X991929Y508465D01*
X989055Y518898D02*
X993307D01*
X1048622Y463583D01*
Y460827D02*
Y463583D01*
X977559Y518898D02*
X983465Y524803D01*
X993307D01*
X737748Y536689D02*
X739791Y534646D01*
X782638D01*
X783622Y535630D01*
X731748Y536689D02*
X736172Y532265D01*
X783624D02*
X784588Y533228D01*
X827795D01*
X736172Y532265D02*
X783624D01*
X726442Y529883D02*
X784610D01*
X784845Y530118D01*
X715748Y519189D02*
X726442Y529883D01*
X633248Y567689D02*
X726748D01*
X833213Y614173D02*
X843535Y624496D01*
X820858Y614173D02*
X833213D01*
X738035Y635496D02*
X799535D01*
X820858Y614173D01*
X348819Y536221D02*
X353937Y541339D01*
X369098D01*
X371535Y543776D01*
Y561976D01*
X586500Y457441D02*
X587248Y458189D01*
X424035Y466555D02*
X429567Y461024D01*
X467583D01*
X422087Y463543D02*
X428189Y457441D01*
X586500D01*
X1199535Y406996D02*
X1215768Y423228D01*
X1218504D01*
X196850Y614173D02*
X206614D01*
X212520Y620079D01*
X327835D01*
X329567Y618347D01*
X170472Y617559D02*
X173346Y620433D01*
X170472Y613779D02*
Y617559D01*
X292748Y518276D02*
Y522189D01*
Y518276D02*
X299213Y511811D01*
X418386D02*
X425906Y519331D01*
X299213Y511811D02*
X418386D01*
X642248Y342902D02*
Y348547D01*
X646063Y352362D01*
X763248Y370189D02*
X788248D01*
X787307Y365748D02*
X806748Y385189D01*
X781496Y365748D02*
X787307D01*
X771748Y366189D02*
X776126Y361811D01*
X786870D01*
X807748Y382689D01*
X770748Y363689D02*
X775382Y359055D01*
X787614D01*
X808748Y380189D01*
X769748Y361189D02*
X774638Y356299D01*
X788358D01*
X809748Y377689D01*
X768748Y358689D02*
X773894Y353543D01*
X789102D01*
X810748Y375189D01*
X767433Y356189D02*
X772835Y350787D01*
X789847D01*
X811248Y372189D01*
X1221035Y457496D02*
Y494516D01*
X1147035Y544894D02*
Y601996D01*
Y544894D02*
X1191929Y500000D01*
X1215551D01*
X1221035Y494516D01*
X1120535Y628496D02*
X1147035Y601996D01*
X993307Y524803D02*
X1059614Y458496D01*
X1075535D01*
X855894Y382689D02*
X953555D01*
X978268Y407402D01*
X1027756D01*
X854457Y380189D02*
X955976D01*
X978740Y402953D01*
X1021063D01*
X853020Y377689D02*
X958398D01*
X979842Y399134D01*
X1071850D01*
X851583Y375189D02*
X960819D01*
X981890Y396260D01*
X1072638D01*
X850216Y372618D02*
X963169D01*
X984240Y393689D01*
X1073610D01*
X1020394Y533465D02*
X1020984Y532874D01*
X1019685Y533465D02*
X1020394D01*
X957323Y532874D02*
X1020984D01*
X588819Y536969D02*
X627520D01*
X635716Y545165D01*
X736772D01*
X462803Y566189D02*
X617866D01*
X623866Y560189D01*
X731748D01*
X461917Y568689D02*
X621272D01*
X625772Y564189D01*
X737248D01*
X620748Y580189D02*
X633248Y567689D01*
X628248Y580689D02*
X637248Y571689D01*
X720748D01*
X143110Y740354D02*
X154921Y728543D01*
X147835Y784449D02*
X148602Y785217D01*
X170748Y733150D02*
X172598Y731299D01*
X184843D01*
X177008Y778465D02*
X178504D01*
Y777559D02*
Y778465D01*
X167165Y774213D02*
X167480Y773898D01*
X165945Y774213D02*
X167165D01*
X160945Y777362D02*
X166004Y782421D01*
X179508D01*
X181968Y779961D01*
X180098Y785217D02*
X182953Y782362D01*
X179921Y794095D02*
X180512Y793504D01*
X177756Y807677D02*
X179921Y805512D01*
Y794095D02*
Y805512D01*
X169882Y808071D02*
X173425Y804528D01*
Y793898D02*
Y804528D01*
X163748Y828150D02*
X166732D01*
X172990Y834408D01*
X180433Y832965D02*
X180917Y832480D01*
X181299D01*
X176575Y866732D02*
X177205Y867362D01*
X185748Y855394D02*
X185787Y855433D01*
X177205Y867362D02*
X177417Y867150D01*
X178748D01*
X180433Y860748D02*
X180905Y861220D01*
X184724Y882362D02*
Y889764D01*
X163779D02*
X164724D01*
X173031Y880787D02*
X174724Y882480D01*
Y889764D01*
X196653Y739567D02*
X203571Y732650D01*
X191142Y739567D02*
X196653D01*
X193504Y735630D02*
X201378Y727756D01*
X188779Y737205D02*
X191142Y739567D01*
X198748Y814650D02*
Y814905D01*
X201142Y801102D02*
X204189Y804150D01*
X197136Y821762D02*
X198248Y820650D01*
X202992Y819150D02*
Y845405D01*
X202748Y855441D02*
Y855650D01*
X197835Y955709D02*
X198083Y955957D01*
X229724Y709252D02*
X245276D01*
X242748Y731650D02*
X244248Y733150D01*
X219248Y736650D02*
X220748Y738150D01*
X234055Y732650D02*
X237075Y735669D01*
X244685Y801024D02*
Y804921D01*
X226575Y840748D02*
X227118Y840205D01*
X236968Y844646D02*
X240787D01*
X235984Y842244D02*
X241772D01*
X245630Y820276D02*
Y828268D01*
X242795Y819409D02*
Y828819D01*
X235000Y839843D02*
X245866D01*
X238248Y869150D02*
X238748Y869650D01*
X243583Y865709D02*
X243937Y865354D01*
Y847795D02*
Y865354D01*
X234055Y854055D02*
X238898Y849213D01*
X234055Y854055D02*
Y870650D01*
X237185Y873779D01*
X231653Y849961D02*
Y872650D01*
X228872Y849356D02*
Y875065D01*
X221248Y882902D02*
Y889150D01*
X229748Y882740D02*
Y889150D01*
X225807Y878799D02*
X229748Y882740D01*
X269248Y795595D02*
Y797150D01*
Y795595D02*
X272913Y791929D01*
X273941Y797957D02*
Y803224D01*
X257283Y813976D02*
X263189D01*
X273941Y803224D01*
X260039Y798228D02*
Y807677D01*
X250197Y799961D02*
Y812008D01*
X252953Y797835D02*
Y812953D01*
X250197Y825512D02*
Y828307D01*
X258539Y836650D01*
X255748Y826150D02*
X267787D01*
X255748Y819650D02*
X269878D01*
X265472Y851496D02*
Y858386D01*
X248504Y848976D02*
X248543Y849016D01*
X248622D01*
X260827Y860866D02*
X265118Y865158D01*
X265472Y858386D02*
X268898Y861811D01*
X267874Y850512D02*
Y857323D01*
X269803Y859252D01*
X275394Y854921D02*
X275748D01*
X260827Y854803D02*
Y860866D01*
X289567Y665158D02*
X296256D01*
X285236Y675787D02*
Y685630D01*
X288256Y688650D01*
X296748D01*
X290374Y670650D02*
X291748D01*
X285236Y675787D02*
X290374Y670650D01*
X282480Y686811D02*
X288386Y692717D01*
X282480Y672244D02*
Y686811D01*
X279724Y687598D02*
X287276Y695150D01*
X279724Y671457D02*
Y687598D01*
X302681Y692717D02*
X305748Y689650D01*
X288386Y692717D02*
X302681D01*
X287276Y695150D02*
X305748D01*
X296248Y721150D02*
X305248Y712150D01*
X296248Y705150D02*
X296748Y704650D01*
X285236Y703346D02*
X287433Y701150D01*
X297990Y709408D02*
X300248Y707150D01*
X299847Y712051D02*
X302248Y709650D01*
X284886Y712051D02*
X299847D01*
X279331Y706496D02*
X284886Y712051D01*
X285785Y709408D02*
X297990D01*
X278937Y702559D02*
X285785Y709408D01*
X282248Y736650D02*
X304748D01*
X279748Y730150D02*
X305248D01*
X280748Y732650D02*
X304248D01*
X284248Y805150D02*
X288248D01*
X278748Y799650D02*
X284248Y805150D01*
X296532Y809650D02*
X305118Y801063D01*
X283748Y809650D02*
X296532D01*
X287563Y823465D02*
X291748D01*
X293248Y825866D02*
X296465Y822650D01*
X291748Y823465D02*
X295488Y819724D01*
X288748Y819150D02*
X290575Y817323D01*
X285248Y836650D02*
X289740Y841142D01*
X283748Y840650D02*
X286707Y843608D01*
X284465Y825866D02*
X293248D01*
X279748Y821150D02*
X284465Y825866D01*
X281248Y817150D02*
X287563Y823465D01*
X289531Y869650D02*
X291260Y871378D01*
X288425Y865158D02*
X288504Y865236D01*
X288543D01*
X292284Y868976D01*
X291575Y861811D02*
X293779Y864016D01*
X279248Y850650D02*
X303602D01*
X300748Y859252D02*
X301417Y858583D01*
X303228Y889764D02*
X304803D01*
X304410D02*
X304803D01*
X304410Y883622D02*
Y889764D01*
X298937Y945197D02*
Y945669D01*
X311748Y668150D02*
Y670650D01*
X321748Y667417D02*
Y670650D01*
Y680650D02*
X322748Y681650D01*
Y692150D01*
X310248Y721150D02*
X314248Y717150D01*
X313748Y745650D02*
X329748D01*
X319764Y736299D02*
X328598D01*
X315248Y740150D02*
X328248D01*
X314248Y742650D02*
X329248D01*
X307126Y799055D02*
X317795D01*
X310197Y810354D02*
X321575Y798976D01*
X317795Y799055D02*
X320276Y796575D01*
X310118Y791929D02*
X311221Y790827D01*
X313701Y795866D02*
X315413Y794153D01*
X322673Y814650D02*
X335591Y801732D01*
X315315Y865748D02*
X320346D01*
X315945Y862992D02*
X321665D01*
X314779Y851181D02*
X328248Y864650D01*
X309842Y851181D02*
X314779D01*
X314803Y885905D02*
Y889764D01*
X318661Y944606D02*
X331968D01*
X316496Y942441D02*
X318661Y944606D01*
X310039Y942441D02*
X316496D01*
X327756Y939173D02*
X328622Y940039D01*
X324535Y955957D02*
X329035Y951457D01*
X361748Y680650D02*
Y686650D01*
X355748Y692650D02*
X361748Y686650D01*
X353748Y702150D02*
X355748Y700150D01*
X338248Y702150D02*
X342748Y697650D01*
X340248Y724650D02*
X364748D01*
X357748Y707150D02*
X362248Y702650D01*
X358748Y709650D02*
X363248Y705150D01*
X359748Y712150D02*
X364248Y707650D01*
X360748Y714650D02*
X365248Y710150D01*
X338248Y719650D02*
X362748D01*
X339248Y722150D02*
X363748D01*
X344748Y736150D02*
X346748Y738150D01*
X346248Y732150D02*
X349748Y735650D01*
X343248Y732150D02*
X346248D01*
X347248Y729650D02*
X350748Y733150D01*
X342248Y729650D02*
X347248D01*
X341248Y727150D02*
X365748D01*
X350433Y779173D02*
X351102Y778504D01*
X349016Y805709D02*
X351417Y808110D01*
X340000Y805709D02*
X349016D01*
X365591Y832520D02*
Y838622D01*
X340815Y822650D02*
X340827Y822638D01*
Y818189D02*
Y822638D01*
X348819Y850787D02*
Y851181D01*
X345472Y895709D02*
Y896260D01*
X342248Y905650D02*
X342264D01*
X347756Y900158D01*
X381748Y680650D02*
Y693650D01*
X380248Y695150D02*
X381748Y693650D01*
X371063Y728299D02*
Y729331D01*
X368051Y794153D02*
X370197Y792008D01*
X368189Y801732D02*
X369016Y802559D01*
X369803Y803347D01*
X369882D01*
X370197Y792008D02*
X370630Y792441D01*
X371575Y835394D02*
X371811D01*
X371575D02*
X378465Y842284D01*
X379606Y835354D02*
X383902Y839650D01*
X367284Y860150D02*
X368748Y861614D01*
X419882Y667520D02*
Y683661D01*
X417126Y668307D02*
Y682874D01*
X414748Y688795D02*
Y695150D01*
Y688795D02*
X419882Y683661D01*
Y689567D02*
X422638Y686811D01*
X399748Y738150D02*
X405248Y732650D01*
X411748D01*
X417248Y738150D01*
X398748Y735650D02*
X404248Y730150D01*
X412748D01*
X418248Y735650D01*
X397748Y733150D02*
X403248Y727650D01*
X416248D01*
X421748Y733150D01*
X408858Y736417D02*
X411811D01*
X423071Y747677D01*
X401850Y784803D02*
X405138Y781516D01*
X406043Y783996D02*
X420571D01*
X405138Y781516D02*
X424035D01*
X409213Y792441D02*
X423425Y806653D01*
X418347Y788307D02*
X424724Y794685D01*
X408661Y787874D02*
X420748Y799961D01*
X409016Y796575D02*
X423661Y811220D01*
X408032Y798976D02*
X422677Y813622D01*
X400984Y835236D02*
X402441Y836693D01*
X412441Y864528D02*
X412677Y864764D01*
X412205D02*
X412677D01*
X412205D02*
X412441Y864528D01*
X407638Y869331D02*
Y869567D01*
X401142Y866417D02*
Y866756D01*
X403622Y867323D02*
Y869094D01*
Y867323D02*
X416811Y854134D01*
X401142Y866417D02*
X415827Y851732D01*
X412441Y864528D02*
X418189Y858780D01*
X407638Y869331D02*
X412205Y864764D01*
X415118Y873937D02*
X420354Y868701D01*
X416929Y912087D02*
X418866Y910150D01*
X431890Y729173D02*
X433413Y727650D01*
X430315Y781693D02*
X430617Y781390D01*
X430276Y799961D02*
Y800472D01*
X452402Y811220D02*
X454095Y809528D01*
X439173Y834291D02*
X443819Y829646D01*
X436260Y831890D02*
X440906Y827244D01*
X427402Y831890D02*
X436260D01*
X431535Y842284D02*
X434402Y845150D01*
X430276Y818189D02*
Y818976D01*
X442835Y836693D02*
X445079Y834449D01*
X485157Y743858D02*
Y744559D01*
X461748Y738150D02*
X464748Y735150D01*
X459795Y735650D02*
X462795Y732650D01*
X458614Y733150D02*
X461614Y730150D01*
X475248Y778150D02*
X476941Y779843D01*
X467748Y785150D02*
X469248D01*
X469489Y781390D02*
X473335Y785236D01*
X467583Y775984D02*
X474433Y782835D01*
X478748Y789150D02*
X480740Y791142D01*
X475000Y813583D02*
X475079Y813661D01*
X466748Y805150D02*
X467465Y805866D01*
X471102Y790394D02*
X478543Y797835D01*
X467717Y790394D02*
X471102D01*
X470248Y795150D02*
X475689Y800591D01*
X467126Y827244D02*
X479252Y839370D01*
X464724Y829646D02*
X479016Y843937D01*
X479055Y843898D01*
X469488Y865000D02*
X485472Y849016D01*
X495248Y656862D02*
Y662150D01*
X505248Y656862D02*
Y662150D01*
X515248Y656862D02*
Y662150D01*
X495248Y692650D02*
X505248D01*
X515248D01*
X493248Y694650D02*
X495248Y692650D01*
X502248Y725150D02*
X509748Y717650D01*
X501248Y722650D02*
X508748Y715150D01*
X497882D02*
X505382Y707650D01*
X499248Y717650D02*
X506748Y710150D01*
X500248Y720150D02*
X507748Y712650D01*
X509016Y745512D02*
X511654Y748150D01*
X488551Y747953D02*
X500445D01*
X515748Y732650D01*
X507248Y737650D02*
X514748Y730150D01*
X506248Y735150D02*
X513748Y727650D01*
X491063Y782835D02*
X493032Y784803D01*
X509094Y782402D02*
X515709D01*
X506535Y779843D02*
X509094Y782402D01*
X514016Y830512D02*
X514055Y830472D01*
X506890Y826650D02*
X509878Y823661D01*
X504095Y822756D02*
X504173Y822677D01*
X496811Y862126D02*
Y872677D01*
X514606Y857559D02*
X514764Y857716D01*
X487677D02*
X487835Y857559D01*
X514606D01*
X525248Y656862D02*
Y662150D01*
X535248Y656862D02*
Y662150D01*
X544748Y657362D02*
Y662650D01*
Y657362D02*
X545248Y656862D01*
X525248Y692650D02*
X535248D01*
X545248D01*
X522795Y781772D02*
Y784803D01*
X521850Y830472D02*
Y830512D01*
X534646Y853150D02*
X540197Y858701D01*
X545146Y863650D01*
X517717Y853150D02*
X534646D01*
X555248Y656862D02*
Y662650D01*
X565248Y656862D02*
Y662650D01*
X555248Y692650D02*
X565248D01*
X561850Y774803D02*
X563996Y776949D01*
X558268Y777205D02*
X561713Y780650D01*
X563209Y795098D02*
X568307Y790000D01*
X565158Y797835D02*
X570590Y792402D01*
X565906Y800591D02*
X571693Y794803D01*
X571614Y805866D02*
X572520Y804961D01*
X567646Y803347D02*
X571189Y799803D01*
X549213Y815158D02*
X575787D01*
X586811Y685236D02*
X587992Y686417D01*
X581299Y687992D02*
X582091D01*
X583248Y689150D01*
X593248Y682650D02*
X594248Y683650D01*
X593748Y707650D02*
X600748Y700650D01*
X594748Y710150D02*
X601748Y703150D01*
X595748Y712650D02*
X602748Y705650D01*
X596748Y715150D02*
X603748Y708150D01*
X597748Y717650D02*
X604748Y710650D01*
X598748Y720150D02*
X605748Y713150D01*
X589748Y811650D02*
X590177Y811220D01*
X591142D01*
X584842Y815551D02*
X596654D01*
X578819Y809528D02*
X584842Y815551D01*
X591890Y857716D02*
X592457Y857150D01*
X592717Y856890D01*
X587047Y853701D02*
X588819Y851929D01*
X581732Y847717D02*
X581850Y847835D01*
X588965Y867650D02*
X589094Y867520D01*
X588465Y868150D02*
X588965Y867650D01*
X588031Y867717D02*
X588465Y868150D01*
X612402Y692717D02*
X613189Y693504D01*
X613748Y668150D02*
X616748Y671150D01*
X612748Y670650D02*
X615748Y673650D01*
X611998Y673400D02*
X614748Y676150D01*
X619748Y689150D02*
X622248Y691650D01*
X624016Y686417D02*
X628748Y691150D01*
X629748Y683650D02*
X633248Y687150D01*
X610248Y678650D02*
X612748Y681150D01*
X611248Y676150D02*
X613748Y678650D01*
X618248Y720650D02*
X622248Y724650D01*
X619248Y718150D02*
X623248Y722150D01*
X620248Y715650D02*
X624248Y719650D01*
X621248Y713150D02*
X625248Y717150D01*
X622248Y710650D02*
X626248Y714650D01*
X623248Y708150D02*
X627248Y712150D01*
X610748Y725650D02*
X616248D01*
X609748Y723150D02*
X617248D01*
X608748Y720650D02*
X618248D01*
X607748Y718150D02*
X619248D01*
X633248Y698150D02*
X634748Y699650D01*
X624248Y705650D02*
X628248Y709650D01*
X626539Y697441D02*
X631248Y702150D01*
X626248Y700650D02*
X630248Y704650D01*
X625248Y703150D02*
X629248Y707150D01*
X613386Y732047D02*
X615988Y734650D01*
X615248Y728150D02*
X619248Y732150D01*
X611748Y728150D02*
X615248D01*
X652248Y657862D02*
X652362Y657976D01*
X662248Y657862D02*
X662362Y657976D01*
X642248Y693650D02*
X652248D01*
X662248D01*
X648748Y911650D02*
X651469Y914370D01*
X672126Y657984D02*
X672248Y657862D01*
Y693650D02*
X682248D01*
X692248D01*
X667618Y784803D02*
X678272Y774150D01*
X681937Y804961D02*
X690248Y796650D01*
X681606Y799803D02*
X689748Y791661D01*
X680905Y794803D02*
X688059Y787650D01*
X674528Y908071D02*
Y908346D01*
X712248Y657862D02*
X712362Y657976D01*
X712248Y658090D02*
X712362Y657976D01*
X702248Y693650D02*
X712248D01*
X713248Y692650D01*
X714248Y738650D02*
X714748D01*
X697748D02*
X714248D01*
X754748Y693650D02*
Y694650D01*
X737748Y734650D02*
X739748Y736650D01*
X744748Y732150D02*
X746748Y734150D01*
X747441Y779650D02*
X750591Y782799D01*
X750087Y776988D02*
X753333Y780234D01*
X729248Y802150D02*
X740748D01*
X744248Y811650D02*
X751094Y804803D01*
X745472Y791535D02*
Y791661D01*
X729248Y807650D02*
X743110D01*
X753333Y797427D01*
X729248Y796650D02*
X748228D01*
X750591Y794287D01*
X733248Y824650D02*
X735163Y826565D01*
X746748Y836650D02*
X750248Y833150D01*
X736748Y834650D02*
X743263Y841165D01*
X741248Y863650D02*
X746248Y858650D01*
X736772Y860126D02*
X743248Y853650D01*
X739055Y943661D02*
Y944764D01*
X733035Y945457D02*
X738035Y950457D01*
X760248Y688150D02*
X763248Y685150D01*
X770575Y722150D02*
X772874Y724449D01*
X766142Y734016D02*
X774370D01*
X759276Y727150D02*
X766142Y734016D01*
X771661Y780150D02*
X771748Y780236D01*
X771661Y780150D02*
X771748D01*
X774413Y810984D02*
X775748Y809650D01*
X773579Y810150D02*
X774413Y810984D01*
X777953Y815551D02*
X778701Y814803D01*
X775748Y799150D02*
Y799650D01*
X774902Y794803D02*
X778701D01*
X778248Y820650D02*
X778748Y821150D01*
X779134Y821535D01*
X774988Y869150D02*
X775437Y868701D01*
X778650Y863650D02*
X778701Y863701D01*
X775386Y858650D02*
X775437Y858701D01*
X778650Y853650D02*
X778701Y853701D01*
X778650Y873650D02*
X778701Y873701D01*
X758248Y873650D02*
X778650D01*
X772748Y888150D02*
X777248D01*
X774748Y883701D02*
X778701D01*
X773197Y882150D02*
X774748Y883701D01*
X767248Y882150D02*
X773197D01*
X775386Y878650D02*
X775437Y878701D01*
X762748Y878650D02*
X775386D01*
X766748Y882650D02*
X767248Y882150D01*
X770748Y886150D02*
X772748Y888150D01*
X780000Y944764D02*
X784685Y940079D01*
X788748Y689150D02*
X788748Y689150D01*
X789748Y697150D02*
X802748Y710150D01*
X788748Y699650D02*
X801748Y712650D01*
X787748Y702150D02*
X800748Y715150D01*
X810118Y736299D02*
X814095Y740276D01*
X810118Y736299D02*
X810157D01*
X801260Y935079D02*
X810197D01*
X841220Y740276D02*
X843110Y738386D01*
X823486Y730612D02*
X828583Y735709D01*
X828343Y774650D02*
X828504Y774488D01*
X842402Y810236D02*
X842835Y809803D01*
X842315Y810150D02*
X842402Y810236D01*
X841815Y809650D02*
X842315Y810150D01*
X842681Y799650D02*
X842835Y799803D01*
X842681Y789650D02*
X842835Y789803D01*
X827362Y845079D02*
X830118Y842323D01*
X784845Y845079D02*
X827362D01*
X823133Y841165D02*
X823189Y841220D01*
X828937Y850591D02*
X829724Y849803D01*
X840610Y886476D02*
X842835Y888701D01*
X819331Y888268D02*
X821122Y886476D01*
X840610D01*
X839701Y894150D02*
X843386Y897835D01*
X844291D01*
X834689Y891650D02*
X836102Y890236D01*
X821248Y899150D02*
X825445Y903347D01*
X831299D01*
X832874Y901772D01*
X834055D01*
X825784Y896650D02*
X827756Y898622D01*
Y899016D01*
X834842Y926575D02*
X843347Y935079D01*
X818701Y926575D02*
X834842D01*
X819449Y908071D02*
X822992Y911614D01*
X847445Y784650D02*
X847598Y784803D01*
Y853701D02*
X847638Y853740D01*
X873425Y901772D02*
X873465D01*
X889551Y717150D02*
X891299Y718898D01*
X904409Y712402D02*
X904921D01*
X902157Y710150D02*
X904409Y712402D01*
X884685Y748150D02*
X902795Y730039D01*
X893504Y780236D02*
X898661Y775079D01*
X752748Y837150D02*
X888386D01*
Y837598D01*
X894961Y833150D02*
X895079Y833268D01*
X887937Y837150D02*
X888386Y837598D01*
X896260Y853701D02*
Y853740D01*
X894535Y939457D02*
X898535Y943457D01*
X946653Y722087D02*
X964409D01*
X944488Y716535D02*
X957480D01*
X956909Y847421D02*
X957323Y847835D01*
X956909Y847067D02*
Y847421D01*
X963740Y935079D02*
X963976Y934842D01*
X969882Y678150D02*
X971063Y676968D01*
X969449Y774291D02*
X980591D01*
X991929Y785630D01*
X971614Y907244D02*
X972283Y907913D01*
X1027756Y722362D02*
X1027913Y722520D01*
X1153035Y722957D02*
X1164535D01*
X1150535Y720457D02*
X1153035Y722957D01*
X1180035Y707457D02*
X1189535Y716957D01*
X1190630Y775591D02*
Y779173D01*
X1188307Y781496D02*
X1190630Y779173D01*
X1180079Y781496D02*
X1188307D01*
X1180630Y775079D02*
Y775591D01*
X1215535Y766957D02*
X1221035Y772457D01*
X1208535Y766957D02*
X1215535D01*
X142717Y786811D02*
X144291Y788386D01*
X134843Y922717D02*
X150354Y938228D01*
X180945Y788386D02*
X184567Y784764D01*
X163779Y871653D02*
Y889764D01*
X185748Y840650D02*
Y855394D01*
X172990Y834408D02*
Y870628D01*
X184724Y882362D01*
X176575Y824606D02*
Y866732D01*
X180433Y832965D02*
Y860748D01*
X173031Y876968D02*
Y880787D01*
X201248Y847150D02*
X202992Y845405D01*
X197136Y821762D02*
Y858789D01*
X198748Y814905D02*
X202992Y819150D01*
X217480Y784764D02*
X227118Y794402D01*
X218622Y782362D02*
X232087Y795827D01*
X225807Y849035D02*
X235000Y839843D01*
X231653Y849961D02*
X236968Y844646D01*
X240787D02*
X243937Y847795D01*
X228872Y849356D02*
X235984Y842244D01*
X231653Y872650D02*
X235185Y876181D01*
X228872Y875065D02*
X235957Y882150D01*
X225807Y849035D02*
Y878799D01*
X256299Y691339D02*
Y698228D01*
X260039Y798228D02*
X271339Y786929D01*
X269878Y819650D02*
X274878Y814650D01*
X282480Y672244D02*
X289567Y665158D01*
X296256D02*
X301748Y670650D01*
X279724Y671457D02*
X288531Y662650D01*
X296969Y876181D02*
X304410Y883622D01*
X282248Y846150D02*
X282870Y846772D01*
X313976Y659646D02*
X321748Y667417D01*
X316248Y698650D02*
X322748Y692150D01*
X324425Y701150D02*
X332925Y692650D01*
X325000Y704650D02*
X334500Y695150D01*
X330157Y819724D02*
X335512Y814370D01*
X341748Y670650D02*
X355508Y656890D01*
X351748Y670650D02*
X362752Y659646D01*
X356260Y784803D02*
Y786260D01*
X342677Y786929D02*
X350433Y779173D01*
X350472Y905945D02*
X353858Y902559D01*
X353569Y843608D02*
X356110Y846150D01*
X352244Y846772D02*
X356622Y851150D01*
X381748Y670650D02*
X387240Y665158D01*
X371063Y728299D02*
X374213Y725150D01*
X368858Y814370D02*
X372244Y817756D01*
X388228Y911811D02*
X394890Y905150D01*
X368748Y861614D02*
Y878591D01*
X413976Y665158D02*
X417126Y668307D01*
X414764Y662402D02*
X419882Y667520D01*
X415551Y659646D02*
X422638Y666732D01*
X416339Y656890D02*
X425394Y665945D01*
X402350Y697650D02*
X417126Y682874D01*
X420571Y783996D02*
X422835Y786260D01*
X402598Y787441D02*
X406043Y783996D01*
X420323Y700150D02*
X425394Y695079D01*
X400577Y888478D02*
X415118Y873937D01*
X409016Y803347D02*
X424646Y818976D01*
X410394Y808110D02*
X425039Y822756D01*
X433535Y938957D02*
X443535Y928957D01*
X469248Y785150D02*
X479197Y795098D01*
X493248Y694650D02*
Y698650D01*
X505248Y732650D02*
X512748Y725150D01*
X504248Y730150D02*
X511748Y722650D01*
X503248Y727650D02*
X510748Y720150D01*
X487480Y785236D02*
X489449Y787205D01*
X504055Y862126D02*
Y877126D01*
X521850Y830512D02*
X545039Y853701D01*
X604134Y696654D02*
X604921Y697441D01*
X616248Y725650D02*
X620248Y729650D01*
X617248Y723150D02*
X621248Y727150D01*
X652362Y657976D02*
Y666370D01*
X662362Y657976D02*
Y666409D01*
X672126Y657984D02*
Y666370D01*
X682248Y666453D02*
X682362Y666567D01*
X682248Y657862D02*
Y666453D01*
X692248Y666256D02*
X692362Y666370D01*
X692248Y657862D02*
Y666256D01*
X673996Y792402D02*
X681248Y785150D01*
X669031Y787205D02*
X679248Y776988D01*
X670461Y790000D02*
X680811Y779650D01*
X702248Y666295D02*
X702362Y666409D01*
X702248Y657862D02*
Y666295D01*
X712248Y658090D02*
Y666650D01*
X750591Y782799D02*
Y794287D01*
X753333Y780234D02*
Y797427D01*
X733035Y936957D02*
Y945457D01*
X763508Y724650D02*
X766142Y727283D01*
X788748Y689150D02*
X804748Y705150D01*
X788248Y685150D02*
X805748Y702650D01*
X789248Y693150D02*
X803748Y707650D01*
X790748Y945591D02*
X801260Y935079D01*
X827795Y848189D02*
X830118Y845866D01*
X819248Y904150D02*
X823957Y908858D01*
X820248Y901650D02*
X824701Y906102D01*
X869094D02*
X873425Y901772D01*
X941732Y726181D02*
X947047Y731496D01*
X955709Y845866D02*
X956909Y847067D01*
X1006417Y939173D02*
X1013268Y932323D01*
X1042402Y734252D02*
X1050827Y725827D01*
X1030906Y774213D02*
Y789173D01*
X134843Y891929D02*
Y922717D01*
X232087Y795827D02*
Y817520D01*
X227118Y794402D02*
Y840205D01*
X223622Y779961D02*
X244685Y801024D01*
X422638Y666732D02*
Y686811D01*
X425394Y665945D02*
Y695079D01*
X991929Y785630D02*
Y823425D01*
X156102Y736811D02*
X156496Y737205D01*
X152165Y777362D02*
X160945D01*
X245276Y709252D02*
X256299Y698228D01*
X237205Y715158D02*
X246260D01*
X262795Y702559D02*
X278937D01*
X263583Y706496D02*
X279331D01*
X246260Y715158D02*
X262768Y698650D01*
X245079Y725000D02*
X263583Y706496D01*
X191142Y725000D02*
X245079D01*
X190354Y722244D02*
X243110D01*
X262795Y702559D01*
X274228Y735669D02*
X279748Y730150D01*
X273248Y733150D02*
X278748Y727650D01*
X244248Y733150D02*
X273248D01*
X275248Y738150D02*
X280748Y732650D01*
X220748Y738150D02*
X275248D01*
X203571Y732650D02*
X234055D01*
X237075Y735669D02*
X274228D01*
X201378Y727756D02*
X274756D01*
X178504Y777559D02*
X227795D01*
X184567Y784764D02*
X217480D01*
X182953Y782362D02*
X218622D01*
X181968Y779961D02*
X223622D01*
X204189Y804150D02*
X223248D01*
X273941Y797957D02*
X276031Y795866D01*
X216248Y831150D02*
Y841941D01*
X258539Y836650D02*
X285248D01*
X267787Y826150D02*
X276787Y817150D01*
X281248D01*
X265118Y865158D02*
X288425D01*
X238748Y869650D02*
X289531D01*
X275748Y854921D02*
X275945Y854724D01*
X235957Y882150D02*
X267748D01*
X173346Y935394D02*
X206890D01*
X180354Y938228D02*
X197835Y955709D01*
X332925Y692650D02*
X355748D01*
X334500Y695150D02*
X380248D01*
X305748D02*
X306248Y694650D01*
X305748Y689650D02*
X311248D01*
X303748Y721150D02*
X310248Y714650D01*
X342748Y697650D02*
X402350D01*
X296748Y704650D02*
X325000D01*
X300248Y707150D02*
X357748D01*
X302248Y709650D02*
X358748D01*
X305248Y712150D02*
X359748D01*
X310248Y714650D02*
X360748D01*
X314248Y717150D02*
X361748D01*
X366248Y712650D01*
X332748Y725150D02*
X338248Y719650D01*
X362748D02*
X367248Y715150D01*
X363748Y722150D02*
X368248Y717650D01*
X364748Y724650D02*
X369248Y720150D01*
X346748Y738150D02*
X399748D01*
X349748Y735650D02*
X398748D01*
X350748Y733150D02*
X397748D01*
X304748Y736650D02*
X313748Y745650D01*
X304248Y732650D02*
X314248Y742650D01*
X305248Y730150D02*
X315248Y740150D01*
X329748Y745650D02*
X343248Y732150D01*
X329248Y742650D02*
X342248Y729650D01*
X328248Y740150D02*
X341248Y727150D01*
X356260Y784803D02*
X401850D01*
X362559Y790827D02*
X365945Y787441D01*
X335591Y801732D02*
X368189D01*
X305118Y801063D02*
X307126Y799055D01*
X315413Y794153D02*
X368051D01*
X311221Y790827D02*
X362559D01*
X335512Y814370D02*
X368858D01*
X370630Y792441D02*
X409213D01*
X365945Y787441D02*
X402598D01*
X351417Y808110D02*
X410394D01*
X369882Y803347D02*
X409016D01*
X321575Y798976D02*
X408032D01*
X320276Y796575D02*
X409016D01*
X366929Y839961D02*
X369843D01*
X365591Y838622D02*
X366929Y839961D01*
X365591Y832520D02*
X367362Y830748D01*
X295488Y819724D02*
X330157D01*
X296465Y822650D02*
X340815D01*
X332874Y841142D02*
X339921Y834095D01*
X292284Y868976D02*
X318740D01*
X328248Y864650D02*
X363748D01*
X348248Y860150D02*
X367284D01*
X356622Y851150D02*
X366248D01*
X303602Y850650D02*
X315945Y862992D01*
X304291Y854724D02*
X315315Y865748D01*
X343077Y888478D02*
X400577D01*
X344476Y885803D02*
X391402D01*
X395866Y910236D02*
X398453Y907650D01*
X306811Y945669D02*
X310039Y942441D01*
X298937Y945669D02*
X306811D01*
X312992Y947008D02*
X388228D01*
X336614Y939961D02*
X337205D01*
X331968Y944606D02*
X336614Y939961D01*
X329035Y951457D02*
X391035D01*
X403535Y938957D01*
X515248Y692650D02*
X525248D01*
X485157Y744559D02*
X488551Y747953D01*
X423071Y747677D02*
X455721D01*
X465748Y737650D01*
X507248D01*
X464748Y735150D02*
X506248D01*
X433413Y727650D02*
X503248D01*
X417248Y738150D02*
X461748D01*
X462795Y732650D02*
X505248D01*
X418248Y735650D02*
X459795D01*
X461614Y730150D02*
X504248D01*
X421748Y733150D02*
X458614D01*
X513661Y777835D02*
X516693Y774803D01*
X515709Y782402D02*
X520905Y777205D01*
X493032Y784803D02*
X522795D01*
X476941Y779843D02*
X506535D01*
X474433Y782835D02*
X491063D01*
X473335Y785236D02*
X487480D01*
X430617Y781390D02*
X469489D01*
X423425Y806653D02*
X427598D01*
X424724Y794685D02*
X430512D01*
X480740Y791142D02*
X517126D01*
X420748Y799961D02*
X430276D01*
X475079Y813661D02*
X512047D01*
X423661Y811220D02*
X452402D01*
X422677Y813622D02*
X452126D01*
X434402Y845150D02*
X470748D01*
X440906Y827244D02*
X467126D01*
X443819Y829646D02*
X464724D01*
X479055Y843898D02*
X508465D01*
X514055Y830472D02*
X521850D01*
X479252Y839370D02*
X513346D01*
X474748Y826650D02*
X506890D01*
X509878Y823661D02*
X516181D01*
X426221Y827323D02*
X433819D01*
X424646Y818976D02*
X430276D01*
X425039Y822756D02*
X504095D01*
X416653Y817756D02*
X426221Y827323D01*
X418150Y822638D02*
X427402Y831890D01*
X425906Y834291D02*
X439173D01*
X485472Y849016D02*
X505433D01*
X415827Y851732D02*
X433386D01*
X416811Y854134D02*
X432402D01*
X418189Y858780D02*
X429291D01*
X420354Y868701D02*
X429331D01*
X516535Y914685D02*
X518571Y912650D01*
X443535Y928957D02*
X456535D01*
X545248Y692650D02*
X555248D01*
X578815Y692717D02*
X612402D01*
X576968D02*
X578815D01*
X583248Y689150D02*
X619748D01*
X587992Y686417D02*
X624016D01*
X594248Y683650D02*
X629748D01*
X606748Y715650D02*
X620248D01*
X605748Y713150D02*
X621248D01*
X604748Y710650D02*
X622248D01*
X603748Y708150D02*
X623248D01*
X601748Y703150D02*
X625248D01*
X599748Y722650D02*
X606748Y715650D01*
X600748Y725150D02*
X607748Y718150D01*
X604921Y697441D02*
X626539D01*
X602748Y705650D02*
X624248D01*
X600748Y700650D02*
X626248D01*
X603248Y736650D02*
X611748Y728150D01*
X548248Y736650D02*
X603248D01*
X571189Y799803D02*
X578937D01*
X575984Y809528D02*
X578819D01*
X575787Y815158D02*
X576201D01*
X574094Y832638D02*
X578504Y828228D01*
X592717Y856890D02*
X624606D01*
X545039Y853701D02*
X587047D01*
X581850Y847835D02*
X640354D01*
X589094Y867520D02*
X606890D01*
X576748Y889150D02*
X577937D01*
X631839Y902559D02*
X640248Y894150D01*
X632748Y905150D02*
X641248Y896650D01*
X630709Y900158D02*
X639217Y891650D01*
X662248Y693650D02*
X672248D01*
X692248D02*
X702248D01*
X713248Y692650D02*
X731748D01*
X753941Y729650D02*
X760709Y736417D01*
X679248Y776988D02*
X750087D01*
X680811Y779650D02*
X747441D01*
X663949Y776949D02*
X669248Y771650D01*
X678272Y774150D02*
X750748D01*
X669248Y771650D02*
X751748D01*
X689748Y791661D02*
X745472D01*
X688059Y787650D02*
X729248D01*
X726748Y882650D02*
X727248Y883150D01*
X783748Y689150D02*
X788748D01*
X784748Y709650D02*
X797748Y722650D01*
X786748Y704650D02*
X799748Y717650D01*
X785748Y707150D02*
X798748Y720150D01*
X781638Y712150D02*
X787008Y717520D01*
X777748Y714650D02*
X788833Y725734D01*
X814095Y740276D02*
X841220D01*
X786711Y730612D02*
X823486D01*
X779248Y784650D02*
X847445D01*
X780248Y774650D02*
X828343D01*
X778701Y794803D02*
X847598D01*
X778701Y804803D02*
X847598D01*
X778701Y814803D02*
X847598D01*
X775748Y809650D02*
X841815D01*
X775748Y799650D02*
X842681D01*
X775748Y789650D02*
X842681D01*
X779134Y821535D02*
X847598D01*
X817214Y826565D02*
X881837Y826499D01*
X778701Y863701D02*
X847598D01*
X778701Y873701D02*
X847598D01*
X775437Y858701D02*
X842835D01*
X775437Y868701D02*
X842835D01*
X778701Y853701D02*
X847598D01*
X783622Y850591D02*
X828937D01*
X829724Y849803D02*
X879724D01*
X775437Y878701D02*
X842835D01*
X777248Y888150D02*
X819331Y888268D01*
X778701Y883701D02*
X847598D01*
X810197Y935079D02*
X818701Y926575D01*
X823957Y908858D02*
X875394D01*
X907098Y707650D02*
X913937Y714488D01*
X929716Y705150D02*
X946653Y722087D01*
X935504Y700150D02*
X945984Y710630D01*
X916496Y784803D02*
X985394D01*
X911732Y789803D02*
X980630D01*
X916496Y794803D02*
X985394D01*
X911732Y799803D02*
X980630D01*
X916496Y804803D02*
X985394D01*
X911732Y809803D02*
X980630D01*
X916496Y814803D02*
X985394D01*
X916496Y821535D02*
X985394D01*
X916496Y853701D02*
X985394D01*
X896260D02*
X916496D01*
X911732Y858701D02*
X980630D01*
X916496Y863701D02*
X985394D01*
X911732Y868701D02*
X980630D01*
X916496Y873701D02*
X985394D01*
X911732Y878701D02*
X980630D01*
X916496Y883701D02*
X985394D01*
X911732Y888701D02*
X980630D01*
X941496Y903465D02*
X990748D01*
X972283Y907913D02*
X996535D01*
X900984Y939173D02*
X1006417D01*
X1174535Y707457D02*
X1180035D01*
X274756Y727756D02*
X277362Y725150D01*
X184843Y731299D02*
X191142Y725000D01*
X184055Y728543D02*
X190354Y722244D01*
X229016Y773898D02*
X252953Y797835D01*
X227795Y777559D02*
X250197Y799961D01*
X241772Y842244D02*
X248504Y848976D01*
X202748Y855441D02*
X216248Y841941D01*
X242795Y828819D02*
X265472Y851496D01*
X197136Y858789D02*
X221248Y882902D01*
X245630Y828268D02*
X267874Y850512D01*
X245630Y820276D02*
X252953Y812953D01*
X242795Y819409D02*
X250197Y812008D01*
X245866Y839843D02*
X260827Y854803D01*
X206890Y935394D02*
X223071Y951575D01*
X306248Y662650D02*
X311748Y668150D01*
X361748Y670650D02*
X369996Y662402D01*
X365748Y727150D02*
X370248Y722650D01*
X328598Y736299D02*
X340248Y724650D01*
X333748Y727650D02*
X339248Y722150D01*
X302677Y873779D02*
X314803Y885905D01*
X306417Y871378D02*
X324803Y889764D01*
X391402Y885803D02*
X407638Y869567D01*
X318740Y868976D02*
X345472Y895709D01*
X328386Y817323D02*
X340000Y805709D01*
X320346Y865748D02*
X343077Y888478D01*
X321665Y862992D02*
X344476Y885803D01*
X356110Y846150D02*
X369748D01*
X422835Y786260D02*
X453358D01*
X415748Y846653D02*
X428937D01*
X508465Y843898D02*
X517717Y853150D01*
X513346Y839370D02*
X521969Y847992D01*
X452126Y813622D02*
X456614Y818110D01*
X432402Y854134D02*
X461917Y883650D01*
X433386Y851732D02*
X462803Y881150D01*
X456535Y928957D02*
X464535Y936957D01*
X601748Y727650D02*
X608748Y720650D01*
X602748Y730150D02*
X609748Y723150D01*
X603748Y732650D02*
X610748Y725650D01*
X576201Y815158D02*
X581693Y820650D01*
X546260Y818110D02*
X549213Y815158D01*
X633748Y907650D02*
X642248Y899150D01*
X634748Y910150D02*
X643248Y901650D01*
X635748Y912650D02*
X644248Y904150D01*
X754748Y694650D02*
X757248Y697150D01*
X775748Y719650D02*
X786711Y730612D01*
X776748Y717150D02*
X787748Y728150D01*
X875394Y908858D02*
X881260Y902992D01*
X824701Y906102D02*
X869094D01*
X930591Y914370D02*
X941496Y903465D01*
X929134Y911614D02*
X942717Y898032D01*
X1071850Y714094D02*
X1091476Y733720D01*
X1072638Y711221D02*
X1092756Y731339D01*
X1073610Y708650D02*
X1093898Y728937D01*
X1132303Y733720D02*
X1180079Y781496D01*
X1136890Y731339D02*
X1180630Y775079D01*
X1163976Y728937D02*
X1210630Y775591D01*
X1164535Y722957D02*
X1208535Y766957D01*
X256299Y691339D02*
X287992Y659646D01*
X453358Y786260D02*
X470445Y803347D01*
X464248Y702650D02*
X498748Y668150D01*
X465748Y705150D02*
X500248Y670650D01*
X466760Y707650D02*
X501010Y673400D01*
X467803Y710150D02*
X501803Y676150D01*
X468748Y712650D02*
X502748Y678650D01*
X355508Y656890D02*
X416339D01*
X362752Y659646D02*
X415551D01*
X369996Y662402D02*
X414764D01*
X387240Y665158D02*
X413976D01*
X287992Y659646D02*
X313976D01*
X288531Y662650D02*
X306248D01*
X262768Y698650D02*
X316248D01*
X287433Y701150D02*
X324425D01*
X277362Y725150D02*
X332748D01*
X355748Y700150D02*
X420323D01*
X362248Y702650D02*
X464248D01*
X363248Y705150D02*
X465748D01*
X364248Y707650D02*
X466760D01*
X365248Y710150D02*
X467803D01*
X366248Y712650D02*
X468748D01*
X154921Y728543D02*
X184055D01*
X278748Y727650D02*
X333748D01*
X156496Y737205D02*
X188779D01*
X167480Y773898D02*
X229016D01*
X148602Y785217D02*
X180098D01*
X351102Y778504D02*
X422087D01*
X281693Y773819D02*
X413228Y773937D01*
X276031Y795866D02*
X313701D01*
X272913Y791929D02*
X310118D01*
X144291Y788386D02*
X180945D01*
X274878Y814650D02*
X322673D01*
X367362Y830748D02*
X415590D01*
X290575Y817323D02*
X328386D01*
X378465Y842284D02*
X431535D01*
X383902Y839650D02*
X466248D01*
X340827Y822638D02*
X418150D01*
X372244Y817756D02*
X416653D01*
X402441Y836693D02*
X442835D01*
X286707Y843608D02*
X353569D01*
X289740Y841142D02*
X332874D01*
X291260Y871378D02*
X306417D01*
X269803Y859252D02*
X300748D01*
X268898Y861811D02*
X291575D01*
X237185Y873779D02*
X302677D01*
X275945Y854724D02*
X304291D01*
X150354Y938228D02*
X180354D01*
X223071Y951575D02*
X322480D01*
X260827Y939173D02*
X327756D01*
X198083Y955957D02*
X324535D01*
X403535Y938957D02*
X433535D01*
X500248Y670650D02*
X612748D01*
X501010Y673400D02*
X611998D01*
X501803Y676150D02*
X611248D01*
X615748Y673650D02*
X768748D01*
X612748Y681150D02*
X771748D01*
X502748Y678650D02*
X610248D01*
X613748D02*
X770748D01*
X614748Y676150D02*
X769748D01*
X616748Y671150D02*
X767433D01*
X763748Y693150D02*
X789248D01*
X498748Y668150D02*
X613748D01*
X625248Y717150D02*
X776748D01*
X622248Y724650D02*
X763508D01*
X623248Y722150D02*
X770575D01*
X626248Y714650D02*
X777748D01*
X512748Y725150D02*
X600748D01*
X511748Y722650D02*
X599748D01*
X510748Y720150D02*
X598748D01*
X509748Y717650D02*
X597748D01*
X507748Y712650D02*
X595748D01*
X757248Y697150D02*
X789748D01*
X634748Y699650D02*
X788748D01*
X631248Y702150D02*
X787748D01*
X630248Y704650D02*
X786748D01*
X629248Y707150D02*
X785748D01*
X628248Y709650D02*
X784748D01*
X627248Y712150D02*
X781638D01*
X624248Y719650D02*
X775748D01*
X888759Y723800D02*
X943091D01*
X508748Y715150D02*
X596748D01*
X505382Y707650D02*
X593748D01*
X506748Y710150D02*
X594748D01*
X511654Y748150D02*
X884685D01*
X615988Y734650D02*
X737748D01*
X619248Y732150D02*
X744748D01*
X620248Y729650D02*
X753941D01*
X621248Y727150D02*
X759276D01*
X515748Y732650D02*
X603748D01*
X514748Y730150D02*
X602748D01*
X513748Y727650D02*
X601748D01*
X520905Y777205D02*
X558268D01*
X847598Y784803D02*
X916496D01*
X516693Y774803D02*
X561850D01*
X563996Y776949D02*
X663949D01*
X561713Y780650D02*
X665748D01*
X522795Y784803D02*
X667618D01*
X771748Y780236D02*
X893504D01*
X842835Y789803D02*
X911732D01*
X847598Y794803D02*
X916496D01*
X842835Y799803D02*
X911732D01*
X847598Y804803D02*
X916496D01*
X842835Y809803D02*
X911732D01*
X847598Y814803D02*
X916496D01*
X572520Y804961D02*
X681937D01*
X751248Y810150D02*
X773579D01*
X751094Y804803D02*
X778701D01*
X589748Y811650D02*
X744248D01*
X596654Y815551D02*
X777953D01*
X578937Y799803D02*
X681606D01*
X479197Y795098D02*
X563209D01*
X571693Y794803D02*
X680905D01*
X489449Y787205D02*
X669031D01*
X568307Y790000D02*
X670461D01*
X570590Y792402D02*
X673996D01*
X478543Y797835D02*
X565158D01*
X475689Y800591D02*
X565906D01*
X847598Y821535D02*
X916496D01*
X581693Y820650D02*
X778248D01*
X735163Y826565D02*
X817214D01*
X750248Y833150D02*
X894961D01*
X743263Y841165D02*
X823133D01*
X531496Y832638D02*
X574094D01*
X847598Y863701D02*
X916496D01*
X842835Y868701D02*
X911732D01*
X847598Y873701D02*
X916496D01*
X754248Y869150D02*
X774988D01*
X750248Y863650D02*
X778650D01*
X746248Y858650D02*
X775386D01*
X743248Y853650D02*
X778650D01*
X545146Y863650D02*
X741248D01*
X842835Y858701D02*
X911732D01*
X847638Y853740D02*
X896260D01*
X842835Y878701D02*
X911732D01*
X847598Y883701D02*
X916496D01*
X842835Y888701D02*
X911732D01*
X513748Y889150D02*
X576748D01*
X642248Y899150D02*
X821248D01*
X639217Y891650D02*
X834689D01*
X640248Y894150D02*
X839701D01*
X641248Y896650D02*
X825784D01*
X643248Y901650D02*
X820248D01*
X644248Y904150D02*
X819248D01*
X651469Y914370D02*
X930591D01*
X822992Y911614D02*
X929134D01*
X674528Y908071D02*
X819449D01*
X518571Y912650D02*
X635748D01*
X739055Y944764D02*
X780000D01*
X843535Y939457D02*
X894535D01*
X1091476Y733720D02*
X1132303D01*
X1092756Y731339D02*
X1136890D01*
X1093898Y728937D02*
X1163976D01*
X271339Y786929D02*
X342677D01*
X386772Y875630D02*
X415748Y846653D01*
X235185Y876181D02*
X296969D01*
X282870Y846772D02*
X352244D01*
X751748Y771650D02*
X774902Y794803D01*
X750748Y774150D02*
X775748Y799150D01*
X890354Y726181D02*
X941732D01*
X990929Y829150D02*
X1030906Y789173D01*
X374213Y725150D02*
X502248D01*
X367248Y715150D02*
X497882D01*
X368248Y717650D02*
X499248D01*
X369248Y720150D02*
X500248D01*
X370248Y722650D02*
X501248D01*
X934331Y734252D02*
X1042402D01*
X454095Y809528D02*
X575984D01*
X467465Y805866D02*
X571614D01*
X470445Y803347D02*
X567646D01*
X456614Y818110D02*
X546260D01*
X704748Y829150D02*
X990929D01*
X830118Y842323D02*
X960827D01*
X394890Y905150D02*
X632748D01*
X347756Y900158D02*
X630709D01*
X353858Y902559D02*
X631839D01*
X398453Y907650D02*
X633748D01*
X418866Y910150D02*
X634748D01*
X843347Y935079D02*
X963740D01*
X949803Y912008D02*
X1012795D01*
X898535Y943457D02*
X1120535D01*
X830118Y845866D02*
X955709D01*
X464535Y936957D02*
X733035D01*
X479528Y831890D02*
X482480Y834842D01*
X519252D01*
X389846Y882870D02*
X403622Y869094D01*
X368748Y878591D02*
X373028Y882870D01*
X387748Y880150D02*
X401142Y866756D01*
X371535Y876937D02*
X374748Y880150D01*
X373028Y882870D02*
X389846D01*
X374748Y880150D02*
X387748D01*
X379134Y849252D02*
Y875197D01*
X369843Y839961D02*
X379134Y849252D01*
X930484Y702531D02*
X944488Y716535D01*
X811248Y687150D02*
X842772D01*
X851772Y678150D01*
X969882D01*
X810748Y690150D02*
X843709D01*
X852559Y681299D01*
X1015158D01*
X809748Y692650D02*
X845146D01*
X850216Y687579D01*
X808748Y695150D02*
X846583D01*
X851583Y690150D01*
X807748Y697650D02*
X848020D01*
X853020Y692650D01*
X806748Y700150D02*
X849457D01*
X854457Y695150D01*
X805748Y702650D02*
X850894D01*
X855894Y697650D01*
X803748Y707650D02*
X853768D01*
X858887Y702531D01*
X930484D01*
X804748Y705150D02*
X852331D01*
X857331Y700150D01*
X935504D01*
X802748Y710150D02*
X855205D01*
X860205Y705150D01*
X929716D01*
X801748Y712650D02*
X856642D01*
X861642Y707650D01*
X907098D01*
X800748Y715150D02*
X858079D01*
X863079Y710150D01*
X902157D01*
X799748Y717650D02*
X859516D01*
X862874Y714291D01*
X896496D01*
X863953Y717150D02*
X889551D01*
X788833Y725734D02*
X868333D01*
X868189Y725591D02*
X868333Y725734D01*
X798748Y720150D02*
X860953D01*
X863953Y717150D01*
X797748Y722650D02*
X862390D01*
X864016Y721024D01*
X884921D01*
X867323Y725591D02*
X868189D01*
X843110Y738386D02*
X866339D01*
X868307Y736417D01*
Y731496D02*
Y736417D01*
X787748Y728150D02*
X858071D01*
X863386Y733465D01*
X873228D02*
X883071D01*
X890354Y726181D01*
X868307Y731496D02*
X872244Y727559D01*
X885000D01*
X888759Y723800D01*
X946850Y727559D02*
X999213D01*
X943091Y723800D02*
X946850Y727559D01*
X947047Y731496D02*
X1003150D01*
X1007402Y727244D01*
X1010709D01*
X942717Y898032D02*
X943898Y896850D01*
X945866Y898819D01*
X983465D01*
X881837Y826499D02*
X988856D01*
X991929Y823425D01*
X989055Y833858D02*
X993307D01*
X1048622Y778543D01*
Y775787D02*
Y778543D01*
X977559Y833858D02*
X983465Y839764D01*
X993307D01*
X737748Y851650D02*
X739791Y849606D01*
X782638D01*
X783622Y850591D01*
X731748Y851650D02*
X736172Y847225D01*
X783624D02*
X784588Y848189D01*
X827795D01*
X736172Y847225D02*
X783624D01*
X726442Y844844D02*
X784610D01*
X784845Y845079D01*
X715748Y834150D02*
X726442Y844844D01*
X633248Y882650D02*
X726748D01*
X833213Y929134D02*
X843535Y939457D01*
X820858Y929134D02*
X833213D01*
X738035Y950457D02*
X799535D01*
X820858Y929134D01*
X348819Y851181D02*
X353937Y856299D01*
X369098D01*
X371535Y858736D01*
Y876937D01*
X586500Y772402D02*
X587248Y773150D01*
X424035Y781516D02*
X429567Y775984D01*
X467583D01*
X422087Y778504D02*
X428189Y772402D01*
X586500D01*
X1199535Y721957D02*
X1215768Y738189D01*
X1218504D01*
X196850Y929134D02*
X206614D01*
X212520Y935039D01*
X327835D01*
X329567Y933307D01*
X170472Y932520D02*
X173346Y935394D01*
X170472Y928740D02*
Y932520D01*
X292748Y833236D02*
Y837150D01*
Y833236D02*
X299213Y826772D01*
X418386D02*
X425906Y834291D01*
X299213Y826772D02*
X418386D01*
X642248Y657862D02*
Y663508D01*
X646063Y667323D01*
X763248Y685150D02*
X788248D01*
X787307Y680709D02*
X806748Y700150D01*
X781496Y680709D02*
X787307D01*
X771748Y681150D02*
X776126Y676772D01*
X786870D01*
X807748Y697650D01*
X770748Y678650D02*
X775382Y674016D01*
X787614D01*
X808748Y695150D01*
X769748Y676150D02*
X774638Y671260D01*
X788358D01*
X809748Y692650D01*
X768748Y673650D02*
X773894Y668504D01*
X789102D01*
X810748Y690150D01*
X767433Y671150D02*
X772835Y665748D01*
X789847D01*
X811248Y687150D01*
X1221035Y772457D02*
Y809476D01*
X1147035Y859854D02*
Y916957D01*
Y859854D02*
X1191929Y814961D01*
X1215551D01*
X1221035Y809476D01*
X1120535Y943457D02*
X1147035Y916957D01*
X993307Y839764D02*
X1059614Y773457D01*
X1075535D01*
X855894Y697650D02*
X953555D01*
X978268Y722362D01*
X1027756D01*
X854457Y695150D02*
X955976D01*
X978740Y717913D01*
X1021063D01*
X853020Y692650D02*
X958398D01*
X979842Y714094D01*
X1071850D01*
X851583Y690150D02*
X960819D01*
X981890Y711221D01*
X1072638D01*
X850216Y687579D02*
X963169D01*
X984240Y708650D01*
X1073610D01*
X1020394Y848425D02*
X1020984Y847835D01*
X1019685Y848425D02*
X1020394D01*
X957323Y847835D02*
X1020984D01*
X588819Y851929D02*
X627520D01*
X635716Y860126D01*
X736772D01*
X462803Y881150D02*
X617866D01*
X623866Y875150D01*
X731748D01*
X461917Y883650D02*
X621272D01*
X625772Y879150D01*
X737248D01*
X620748Y895150D02*
X633248Y882650D01*
X628248Y895650D02*
X637248Y886650D01*
X720748D01*
D33*
X1210630Y168307D02*
Y175669D01*
X870079Y123031D02*
X909449D01*
X320866Y135039D02*
X321063Y134843D01*
X319291Y135039D02*
X320866D01*
X1210630Y483268D02*
Y490630D01*
X870079Y437992D02*
X909449D01*
X320866Y450000D02*
X321063Y449803D01*
X319291Y450000D02*
X320866D01*
X1210630Y798228D02*
Y805591D01*
X870079Y752953D02*
X909449D01*
X320866Y764961D02*
X321063Y764764D01*
X319291Y764961D02*
X320866D01*
D37*
X132067Y161594D02*
X140748Y170276D01*
X203189Y159646D02*
X205039D01*
X191732Y171102D02*
X203189Y159646D01*
X204724Y269843D02*
X205110Y270228D01*
X212402D02*
X212460Y270286D01*
X205110Y270228D02*
X212402D01*
X294748Y259787D02*
X294803Y259842D01*
X294748Y252425D02*
Y259787D01*
X282205Y250039D02*
X292362D01*
X294748Y252425D01*
X132067Y153555D02*
Y161594D01*
X191732Y171102D02*
Y233661D01*
X242717Y35551D02*
Y65551D01*
X214748Y256677D02*
Y270228D01*
X231272Y270286D01*
X261958D02*
X282205Y250039D01*
X212402Y270228D02*
X214748D01*
X231272Y270286D02*
X261958D01*
X212460D02*
X231272D01*
X191732Y233661D02*
X214748Y256677D01*
X1182638Y51535D02*
X1199535Y68433D01*
Y82035D01*
X1161035Y62587D02*
Y87035D01*
Y62587D02*
X1172087Y51535D01*
X1182638D01*
X1127535Y187035D02*
Y241535D01*
Y187035D02*
X1148035Y166535D01*
X132067Y476555D02*
X140748Y485236D01*
X203189Y474606D02*
X205039D01*
X191732Y486063D02*
X203189Y474606D01*
X204724Y584803D02*
X205110Y585189D01*
X212402D02*
X212460Y585247D01*
X205110Y585189D02*
X212402D01*
X294748Y574748D02*
X294803Y574803D01*
X294748Y567386D02*
Y574748D01*
X282205Y565000D02*
X292362D01*
X294748Y567386D01*
X132067Y468516D02*
Y476555D01*
X191732Y486063D02*
Y548622D01*
X242717Y350512D02*
Y380512D01*
X214748Y571638D02*
Y585189D01*
X231272Y585247D01*
X261958D02*
X282205Y565000D01*
X212402Y585189D02*
X214748D01*
X231272Y585247D02*
X261958D01*
X212460D02*
X231272D01*
X191732Y548622D02*
X214748Y571638D01*
X1182638Y366496D02*
X1199535Y383394D01*
Y396996D01*
X1161035Y377547D02*
Y401996D01*
Y377547D02*
X1172087Y366496D01*
X1182638D01*
X1127535Y501996D02*
Y556496D01*
Y501996D02*
X1148035Y481496D01*
X132067Y791516D02*
X140748Y800197D01*
X203189Y789567D02*
X205039D01*
X191732Y801024D02*
X203189Y789567D01*
X204724Y899764D02*
X205110Y900150D01*
X212402D02*
X212460Y900208D01*
X205110Y900150D02*
X212402D01*
X294748Y889709D02*
X294803Y889764D01*
X294748Y882347D02*
Y889709D01*
X282205Y879961D02*
X292362D01*
X294748Y882347D01*
X132067Y783476D02*
Y791516D01*
X191732Y801024D02*
Y863583D01*
X242717Y665472D02*
Y695472D01*
X214748Y886598D02*
Y900150D01*
X231272Y900208D01*
X261958D02*
X282205Y879961D01*
X212402Y900150D02*
X214748D01*
X231272Y900208D02*
X261958D01*
X212460D02*
X231272D01*
X191732Y863583D02*
X214748Y886598D01*
X1182638Y681457D02*
X1199535Y698354D01*
Y711957D01*
X1161035Y692508D02*
Y716957D01*
Y692508D02*
X1172087Y681457D01*
X1182638D01*
X1127535Y816957D02*
Y871457D01*
Y816957D02*
X1148035Y796457D01*
D40*
X145079Y283661D02*
X151772Y290354D01*
X153543D02*
X177165D01*
X145079Y254134D02*
Y283661D01*
X151772Y290354D02*
X153543D01*
X129921Y216535D02*
X137323D01*
X126969Y219882D02*
X129921Y216535D01*
X126969Y219882D02*
Y236024D01*
X145079Y254134D01*
Y598622D02*
X151772Y605315D01*
X153543D02*
X177165D01*
X145079Y569095D02*
Y598622D01*
X151772Y605315D02*
X153543D01*
X129921Y531496D02*
X137323D01*
X126969Y534842D02*
X129921Y531496D01*
X126969Y534842D02*
Y550984D01*
X145079Y569095D01*
Y913583D02*
X151772Y920276D01*
X153543D02*
X177165D01*
X145079Y884055D02*
Y913583D01*
X151772Y920276D02*
X153543D01*
X129921Y846457D02*
X137323D01*
X126969Y849803D02*
X129921Y846457D01*
X126969Y849803D02*
Y865945D01*
X145079Y884055D01*
D43*
X1044173Y61024D02*
X1055000Y50197D01*
X1076732Y74803D02*
X1082638Y80709D01*
X1055000Y50197D02*
X1088583D01*
X1082535Y108535D02*
X1090035Y116035D01*
X1001378Y74803D02*
X1076732D01*
X1050535Y196035D02*
Y213035D01*
Y196035D02*
X1089035Y157535D01*
X1089905Y209665D02*
Y213035D01*
Y209665D02*
X1141035Y158535D01*
X1083535Y143535D02*
X1089402D01*
X1099035Y153169D01*
Y157535D01*
X1044173Y375984D02*
X1055000Y365158D01*
X1076732Y389764D02*
X1082638Y395669D01*
X1055000Y365158D02*
X1088583D01*
X1082535Y423496D02*
X1090035Y430996D01*
X1001378Y389764D02*
X1076732D01*
X1050535Y510996D02*
Y527996D01*
Y510996D02*
X1089035Y472496D01*
X1089905Y524626D02*
Y527996D01*
Y524626D02*
X1141035Y473496D01*
X1083535Y458496D02*
X1089402D01*
X1099035Y468130D01*
Y472496D01*
X1044173Y690945D02*
X1055000Y680118D01*
X1076732Y704724D02*
X1082638Y710630D01*
X1055000Y680118D02*
X1088583D01*
X1082535Y738457D02*
X1090035Y745957D01*
X1001378Y704724D02*
X1076732D01*
X1050535Y825957D02*
Y842957D01*
Y825957D02*
X1089035Y787457D01*
X1089905Y839587D02*
Y842957D01*
Y839587D02*
X1141035Y788457D01*
X1083535Y773457D02*
X1089402D01*
X1099035Y783090D01*
Y787457D01*
D51*
X561890Y134843D02*
X561929Y134803D01*
X73819Y117126D02*
Y152559D01*
X76181Y154921D01*
X105315Y117126D02*
Y142717D01*
Y143504D02*
Y154921D01*
X117913Y69488D02*
X118307Y69882D01*
X132067Y153555D02*
X150591Y134843D01*
X132067Y153555D02*
Y153559D01*
X132063D02*
X132067D01*
X191929Y134843D02*
X275394D01*
X579724D02*
X579839Y134728D01*
X579685Y134803D02*
X579724Y134843D01*
X561929Y134803D02*
X579685D01*
X787402Y134843D02*
X856299D01*
X787287Y134728D02*
X787402Y134843D01*
X1172717Y175669D02*
X1180630D01*
X130905Y154528D02*
X132063Y153559D01*
X130512Y154921D02*
X130905Y154528D01*
X105315Y154921D02*
X130512D01*
X76181D02*
X98622D01*
X105315D01*
X150591Y134843D02*
X191929D01*
X275394D02*
X321063D01*
X856299D02*
X925197D01*
X579839Y134728D02*
X693748D01*
X531496Y134843D02*
X561890D01*
X693748Y134728D02*
X787287D01*
X925197Y134843D02*
X1131890D01*
X1172717Y175669D01*
X117913Y69488D02*
X153586Y33816D01*
X159173Y33898D01*
X117913Y70276D02*
X118307Y69882D01*
X105315Y113583D02*
Y117126D01*
Y113583D02*
X117913Y100984D01*
Y70276D02*
Y100984D01*
X321063Y134843D02*
X531496D01*
X561890Y449803D02*
X561929Y449764D01*
X73819Y432087D02*
Y467520D01*
X76181Y469882D01*
X105315Y432087D02*
Y457677D01*
Y458465D02*
Y469882D01*
X117913Y384449D02*
X118307Y384842D01*
X132067Y468516D02*
X150591Y449803D01*
X132067Y468516D02*
Y468520D01*
X132063D02*
X132067D01*
X191929Y449803D02*
X275394D01*
X579724D02*
X579839Y449689D01*
X579685Y449764D02*
X579724Y449803D01*
X561929Y449764D02*
X579685D01*
X787402Y449803D02*
X856299D01*
X787287Y449689D02*
X787402Y449803D01*
X1172717Y490630D02*
X1180630D01*
X130905Y469488D02*
X132063Y468520D01*
X130512Y469882D02*
X130905Y469488D01*
X105315Y469882D02*
X130512D01*
X76181D02*
X98622D01*
X105315D01*
X150591Y449803D02*
X191929D01*
X275394D02*
X321063D01*
X856299D02*
X925197D01*
X579839Y449689D02*
X693748D01*
X531496Y449803D02*
X561890D01*
X693748Y449689D02*
X787287D01*
X925197Y449803D02*
X1131890D01*
X1172717Y490630D01*
X117913Y384449D02*
X153586Y348776D01*
X159173Y348858D01*
X117913Y385236D02*
X118307Y384842D01*
X105315Y428543D02*
Y432087D01*
Y428543D02*
X117913Y415945D01*
Y385236D02*
Y415945D01*
X321063Y449803D02*
X531496D01*
X561890Y764764D02*
X561929Y764724D01*
X73819Y747047D02*
Y782480D01*
X76181Y784842D01*
X105315Y747047D02*
Y772638D01*
Y773425D02*
Y784842D01*
X117913Y699409D02*
X118307Y699803D01*
X132067Y783476D02*
X150591Y764764D01*
X132067Y783476D02*
Y783480D01*
X132063D02*
X132067D01*
X191929Y764764D02*
X275394D01*
X579724D02*
X579839Y764650D01*
X579685Y764724D02*
X579724Y764764D01*
X561929Y764724D02*
X579685D01*
X787402Y764764D02*
X856299D01*
X787287Y764650D02*
X787402Y764764D01*
X1172717Y805591D02*
X1180630D01*
X130905Y784449D02*
X132063Y783480D01*
X130512Y784842D02*
X130905Y784449D01*
X105315Y784842D02*
X130512D01*
X76181D02*
X98622D01*
X105315D01*
X150591Y764764D02*
X191929D01*
X275394D02*
X321063D01*
X856299D02*
X925197D01*
X579839Y764650D02*
X693748D01*
X531496Y764764D02*
X561890D01*
X693748Y764650D02*
X787287D01*
X925197Y764764D02*
X1131890D01*
X1172717Y805591D01*
X117913Y699409D02*
X153586Y663737D01*
X159173Y663819D01*
X117913Y700197D02*
X118307Y699803D01*
X105315Y743504D02*
Y747047D01*
Y743504D02*
X117913Y730905D01*
Y700197D02*
Y730905D01*
X321063Y764764D02*
X531496D01*
D52*
X169095Y33858D02*
D03*
X169291Y93898D02*
D03*
X468504Y123031D02*
D03*
X594488D02*
D03*
X681102D02*
D03*
X1098425D02*
D03*
X82677Y174213D02*
D03*
X114173D02*
D03*
X468504Y290354D02*
D03*
X594488D02*
D03*
X618110D02*
D03*
X744095D02*
D03*
X303150D02*
D03*
X807087D02*
D03*
X153543Y123031D02*
D03*
X71063Y259055D02*
D03*
X268701Y82874D02*
D03*
X279528Y123031D02*
D03*
X240158D02*
D03*
X216535D02*
D03*
X342520D02*
D03*
X366142D02*
D03*
X303150D02*
D03*
X492126D02*
D03*
X429134D02*
D03*
X618110D02*
D03*
X555118D02*
D03*
X720472D02*
D03*
X744095D02*
D03*
X846457D02*
D03*
X807087D02*
D03*
X972441D02*
D03*
X933071D02*
D03*
X909449D02*
D03*
X1059055D02*
D03*
X1035433D02*
D03*
X1157480Y253937D02*
D03*
Y234252D02*
D03*
X1220472Y253937D02*
D03*
Y234252D02*
D03*
X153543Y290354D02*
D03*
X216535D02*
D03*
X240158D02*
D03*
X279528D02*
D03*
X342520D02*
D03*
X366142D02*
D03*
X429134D02*
D03*
X492126D02*
D03*
X555118D02*
D03*
X681102D02*
D03*
X720472D02*
D03*
X846457D02*
D03*
X909449D02*
D03*
X933071D02*
D03*
X972441D02*
D03*
X1035433D02*
D03*
X1059055D02*
D03*
X1098425D02*
D03*
X1200630Y145669D02*
D03*
X1190630D02*
D03*
Y175669D02*
D03*
X1200630D02*
D03*
X1180630Y145669D02*
D03*
X1210630Y175669D02*
D03*
X1180630D02*
D03*
X177165Y290354D02*
D03*
X783465D02*
D03*
X870079D02*
D03*
X996063D02*
D03*
X1122047D02*
D03*
X177165Y123031D02*
D03*
X405512D02*
D03*
X870079D02*
D03*
X657480D02*
D03*
X783465D02*
D03*
X531496D02*
D03*
X1122047D02*
D03*
X996063D02*
D03*
X405512Y290354D02*
D03*
X89173Y93898D02*
D03*
X99173D02*
D03*
Y33898D02*
D03*
X89173D02*
D03*
X159173Y93898D02*
D03*
Y33898D02*
D03*
X179173Y93898D02*
D03*
Y33898D02*
D03*
X531496Y290354D02*
D03*
X657480D02*
D03*
X191929Y134843D02*
D03*
X531496D02*
D03*
X856299D02*
D03*
X925197D02*
D03*
X275394D02*
D03*
X693748Y134728D02*
D03*
X787402Y134843D02*
D03*
X319291Y135039D02*
D03*
X386614Y133071D02*
D03*
X433071Y134646D02*
D03*
X992126Y135039D02*
D03*
X169095Y348819D02*
D03*
X169291Y408858D02*
D03*
X468504Y437992D02*
D03*
X594488D02*
D03*
X681102D02*
D03*
X1098425D02*
D03*
X82677Y489173D02*
D03*
X114173D02*
D03*
X468504Y605315D02*
D03*
X594488D02*
D03*
X618110D02*
D03*
X744095D02*
D03*
X303150D02*
D03*
X807087D02*
D03*
X153543Y437992D02*
D03*
X71063Y574016D02*
D03*
X268701Y397835D02*
D03*
X279528Y437992D02*
D03*
X240158D02*
D03*
X216535D02*
D03*
X342520D02*
D03*
X366142D02*
D03*
X303150D02*
D03*
X492126D02*
D03*
X429134D02*
D03*
X618110D02*
D03*
X555118D02*
D03*
X720472D02*
D03*
X744095D02*
D03*
X846457D02*
D03*
X807087D02*
D03*
X972441D02*
D03*
X933071D02*
D03*
X909449D02*
D03*
X1059055D02*
D03*
X1035433D02*
D03*
X1157480Y568898D02*
D03*
Y549213D02*
D03*
X1220472Y568898D02*
D03*
Y549213D02*
D03*
X153543Y605315D02*
D03*
X216535D02*
D03*
X240158D02*
D03*
X279528D02*
D03*
X342520D02*
D03*
X366142D02*
D03*
X429134D02*
D03*
X492126D02*
D03*
X555118D02*
D03*
X681102D02*
D03*
X720472D02*
D03*
X846457D02*
D03*
X909449D02*
D03*
X933071D02*
D03*
X972441D02*
D03*
X1035433D02*
D03*
X1059055D02*
D03*
X1098425D02*
D03*
X1200630Y460630D02*
D03*
X1190630D02*
D03*
Y490630D02*
D03*
X1200630D02*
D03*
X1180630Y460630D02*
D03*
X1210630Y490630D02*
D03*
X1180630D02*
D03*
X177165Y605315D02*
D03*
X783465D02*
D03*
X870079D02*
D03*
X996063D02*
D03*
X1122047D02*
D03*
X177165Y437992D02*
D03*
X405512D02*
D03*
X870079D02*
D03*
X657480D02*
D03*
X783465D02*
D03*
X531496D02*
D03*
X1122047D02*
D03*
X996063D02*
D03*
X405512Y605315D02*
D03*
X89173Y408858D02*
D03*
X99173D02*
D03*
Y348858D02*
D03*
X89173D02*
D03*
X159173Y408858D02*
D03*
Y348858D02*
D03*
X179173Y408858D02*
D03*
Y348858D02*
D03*
X531496Y605315D02*
D03*
X657480D02*
D03*
X191929Y449803D02*
D03*
X531496D02*
D03*
X856299D02*
D03*
X925197D02*
D03*
X275394D02*
D03*
X693748Y449689D02*
D03*
X787402Y449803D02*
D03*
X319291Y450000D02*
D03*
X386614Y448032D02*
D03*
X433071Y449606D02*
D03*
X992126Y450000D02*
D03*
X169095Y663779D02*
D03*
X169291Y723819D02*
D03*
X468504Y752953D02*
D03*
X594488D02*
D03*
X681102D02*
D03*
X1098425D02*
D03*
X82677Y804134D02*
D03*
X114173D02*
D03*
X468504Y920276D02*
D03*
X594488D02*
D03*
X618110D02*
D03*
X744095D02*
D03*
X303150D02*
D03*
X807087D02*
D03*
X153543Y752953D02*
D03*
X71063Y888976D02*
D03*
X268701Y712795D02*
D03*
X279528Y752953D02*
D03*
X240158D02*
D03*
X216535D02*
D03*
X342520D02*
D03*
X366142D02*
D03*
X303150D02*
D03*
X492126D02*
D03*
X429134D02*
D03*
X618110D02*
D03*
X555118D02*
D03*
X720472D02*
D03*
X744095D02*
D03*
X846457D02*
D03*
X807087D02*
D03*
X972441D02*
D03*
X933071D02*
D03*
X909449D02*
D03*
X1059055D02*
D03*
X1035433D02*
D03*
X1157480Y883858D02*
D03*
Y864173D02*
D03*
X1220472Y883858D02*
D03*
Y864173D02*
D03*
X153543Y920276D02*
D03*
X216535D02*
D03*
X240158D02*
D03*
X279528D02*
D03*
X342520D02*
D03*
X366142D02*
D03*
X429134D02*
D03*
X492126D02*
D03*
X555118D02*
D03*
X681102D02*
D03*
X720472D02*
D03*
X846457D02*
D03*
X909449D02*
D03*
X933071D02*
D03*
X972441D02*
D03*
X1035433D02*
D03*
X1059055D02*
D03*
X1098425D02*
D03*
X1200630Y775591D02*
D03*
X1190630D02*
D03*
Y805591D02*
D03*
X1200630D02*
D03*
X1180630Y775591D02*
D03*
X1210630Y805591D02*
D03*
X1180630D02*
D03*
X177165Y920276D02*
D03*
X783465D02*
D03*
X870079D02*
D03*
X996063D02*
D03*
X1122047D02*
D03*
X177165Y752953D02*
D03*
X405512D02*
D03*
X870079D02*
D03*
X657480D02*
D03*
X783465D02*
D03*
X531496D02*
D03*
X1122047D02*
D03*
X996063D02*
D03*
X405512Y920276D02*
D03*
X89173Y723819D02*
D03*
X99173D02*
D03*
Y663819D02*
D03*
X89173D02*
D03*
X159173Y723819D02*
D03*
Y663819D02*
D03*
X179173Y723819D02*
D03*
Y663819D02*
D03*
X531496Y920276D02*
D03*
X657480D02*
D03*
X191929Y764764D02*
D03*
X531496D02*
D03*
X856299D02*
D03*
X925197D02*
D03*
X275394D02*
D03*
X693748Y764650D02*
D03*
X787402Y764764D02*
D03*
X319291Y764961D02*
D03*
X386614Y762992D02*
D03*
X433071Y764567D02*
D03*
X992126Y764961D02*
D03*
D53*
X468504Y113189D02*
D03*
X594488D02*
D03*
X681102D02*
D03*
X1098425D02*
D03*
X82677Y164370D02*
D03*
X114173D02*
D03*
X468504Y300197D02*
D03*
X594488D02*
D03*
X618110D02*
D03*
X744095D02*
D03*
X303150D02*
D03*
X807087D02*
D03*
X153543Y113189D02*
D03*
X61221Y259055D02*
D03*
X279528Y113189D02*
D03*
X240158D02*
D03*
X216535D02*
D03*
X342520D02*
D03*
X366142D02*
D03*
X303150D02*
D03*
X492126D02*
D03*
X429134D02*
D03*
X618110D02*
D03*
X555118D02*
D03*
X720472D02*
D03*
X744095D02*
D03*
X846457D02*
D03*
X807087D02*
D03*
X972441D02*
D03*
X933071D02*
D03*
X909449D02*
D03*
X1059055D02*
D03*
X1035433D02*
D03*
X153543Y300197D02*
D03*
X216535D02*
D03*
X240158D02*
D03*
X279528D02*
D03*
X342520D02*
D03*
X366142D02*
D03*
X429134D02*
D03*
X492126D02*
D03*
X555118D02*
D03*
X681102D02*
D03*
X720472D02*
D03*
X846457D02*
D03*
X909449D02*
D03*
X933071D02*
D03*
X972441D02*
D03*
X1035433D02*
D03*
X1059055D02*
D03*
X1098425D02*
D03*
X177165D02*
D03*
X783465D02*
D03*
X870079D02*
D03*
X996063D02*
D03*
X1122047D02*
D03*
X177165Y113189D02*
D03*
X405512D02*
D03*
X870079D02*
D03*
X657480D02*
D03*
X783465D02*
D03*
X531496D02*
D03*
X1122047D02*
D03*
X996063D02*
D03*
X405512Y300197D02*
D03*
X531496D02*
D03*
X657480D02*
D03*
X468504Y428150D02*
D03*
X594488D02*
D03*
X681102D02*
D03*
X1098425D02*
D03*
X82677Y479331D02*
D03*
X114173D02*
D03*
X468504Y615158D02*
D03*
X594488D02*
D03*
X618110D02*
D03*
X744095D02*
D03*
X303150D02*
D03*
X807087D02*
D03*
X153543Y428150D02*
D03*
X61221Y574016D02*
D03*
X279528Y428150D02*
D03*
X240158D02*
D03*
X216535D02*
D03*
X342520D02*
D03*
X366142D02*
D03*
X303150D02*
D03*
X492126D02*
D03*
X429134D02*
D03*
X618110D02*
D03*
X555118D02*
D03*
X720472D02*
D03*
X744095D02*
D03*
X846457D02*
D03*
X807087D02*
D03*
X972441D02*
D03*
X933071D02*
D03*
X909449D02*
D03*
X1059055D02*
D03*
X1035433D02*
D03*
X153543Y615158D02*
D03*
X216535D02*
D03*
X240158D02*
D03*
X279528D02*
D03*
X342520D02*
D03*
X366142D02*
D03*
X429134D02*
D03*
X492126D02*
D03*
X555118D02*
D03*
X681102D02*
D03*
X720472D02*
D03*
X846457D02*
D03*
X909449D02*
D03*
X933071D02*
D03*
X972441D02*
D03*
X1035433D02*
D03*
X1059055D02*
D03*
X1098425D02*
D03*
X177165D02*
D03*
X783465D02*
D03*
X870079D02*
D03*
X996063D02*
D03*
X1122047D02*
D03*
X177165Y428150D02*
D03*
X405512D02*
D03*
X870079D02*
D03*
X657480D02*
D03*
X783465D02*
D03*
X531496D02*
D03*
X1122047D02*
D03*
X996063D02*
D03*
X405512Y615158D02*
D03*
X531496D02*
D03*
X657480D02*
D03*
X468504Y743110D02*
D03*
X594488D02*
D03*
X681102D02*
D03*
X1098425D02*
D03*
X82677Y794291D02*
D03*
X114173D02*
D03*
X468504Y930118D02*
D03*
X594488D02*
D03*
X618110D02*
D03*
X744095D02*
D03*
X303150D02*
D03*
X807087D02*
D03*
X153543Y743110D02*
D03*
X61221Y888976D02*
D03*
X279528Y743110D02*
D03*
X240158D02*
D03*
X216535D02*
D03*
X342520D02*
D03*
X366142D02*
D03*
X303150D02*
D03*
X492126D02*
D03*
X429134D02*
D03*
X618110D02*
D03*
X555118D02*
D03*
X720472D02*
D03*
X744095D02*
D03*
X846457D02*
D03*
X807087D02*
D03*
X972441D02*
D03*
X933071D02*
D03*
X909449D02*
D03*
X1059055D02*
D03*
X1035433D02*
D03*
X153543Y930118D02*
D03*
X216535D02*
D03*
X240158D02*
D03*
X279528D02*
D03*
X342520D02*
D03*
X366142D02*
D03*
X429134D02*
D03*
X492126D02*
D03*
X555118D02*
D03*
X681102D02*
D03*
X720472D02*
D03*
X846457D02*
D03*
X909449D02*
D03*
X933071D02*
D03*
X972441D02*
D03*
X1035433D02*
D03*
X1059055D02*
D03*
X1098425D02*
D03*
X177165D02*
D03*
X783465D02*
D03*
X870079D02*
D03*
X996063D02*
D03*
X1122047D02*
D03*
X177165Y743110D02*
D03*
X405512D02*
D03*
X870079D02*
D03*
X657480D02*
D03*
X783465D02*
D03*
X531496D02*
D03*
X1122047D02*
D03*
X996063D02*
D03*
X405512Y930118D02*
D03*
X531496D02*
D03*
X657480D02*
D03*
D54*
X123031Y117126D02*
D03*
X105315D02*
D03*
X123031Y142717D02*
D03*
X105315D02*
D03*
X91535Y117126D02*
D03*
X73819D02*
D03*
X91535Y142717D02*
D03*
X73819D02*
D03*
X197835Y325787D02*
D03*
X180118D02*
D03*
X123031Y432087D02*
D03*
X105315D02*
D03*
X123031Y457677D02*
D03*
X105315D02*
D03*
X91535Y432087D02*
D03*
X73819D02*
D03*
X91535Y457677D02*
D03*
X73819D02*
D03*
X197835Y640748D02*
D03*
X180118D02*
D03*
X123031Y747047D02*
D03*
X105315D02*
D03*
X123031Y772638D02*
D03*
X105315D02*
D03*
X91535Y747047D02*
D03*
X73819D02*
D03*
X91535Y772638D02*
D03*
X73819D02*
D03*
X197835Y955709D02*
D03*
X180118D02*
D03*
D55*
X268701Y90748D02*
D03*
X1210630Y145669D02*
D03*
X268701Y405709D02*
D03*
X1210630Y460630D02*
D03*
X268701Y720669D02*
D03*
X1210630Y775591D02*
D03*
D56*
X1089035Y157535D02*
D03*
X167323Y216535D02*
D03*
X1137795Y309055D02*
D03*
Y279055D02*
D03*
X1089035Y472496D02*
D03*
X167323Y531496D02*
D03*
X1137795Y624016D02*
D03*
Y594016D02*
D03*
X1089035Y787457D02*
D03*
X167323Y846457D02*
D03*
X1137795Y938976D02*
D03*
Y908976D02*
D03*
D57*
X1099035Y157535D02*
D03*
X157323Y226535D02*
D03*
X147323D02*
D03*
X157323Y216535D02*
D03*
X147323D02*
D03*
X167323Y226535D02*
D03*
X137323D02*
D03*
Y216535D02*
D03*
X291748Y40728D02*
D03*
X301748D02*
D03*
Y50728D02*
D03*
X321748Y40728D02*
D03*
X331748D02*
D03*
X321748Y50728D02*
D03*
X331748D02*
D03*
X351748Y40728D02*
D03*
X361748D02*
D03*
X351748Y50728D02*
D03*
X361748D02*
D03*
X381748Y40728D02*
D03*
X391748D02*
D03*
X381748Y50728D02*
D03*
X391748D02*
D03*
X411748Y40728D02*
D03*
Y50728D02*
D03*
X311748Y40728D02*
D03*
X341748D02*
D03*
X371748D02*
D03*
X401748D02*
D03*
X311748Y50728D02*
D03*
X341748D02*
D03*
X371748D02*
D03*
X401748D02*
D03*
X1157795Y309055D02*
D03*
Y279055D02*
D03*
X1177795Y309055D02*
D03*
Y279055D02*
D03*
X1099035Y472496D02*
D03*
X157323Y541496D02*
D03*
X147323D02*
D03*
X157323Y531496D02*
D03*
X147323D02*
D03*
X167323Y541496D02*
D03*
X137323D02*
D03*
Y531496D02*
D03*
X291748Y355689D02*
D03*
X301748D02*
D03*
Y365689D02*
D03*
X321748Y355689D02*
D03*
X331748D02*
D03*
X321748Y365689D02*
D03*
X331748D02*
D03*
X351748Y355689D02*
D03*
X361748D02*
D03*
X351748Y365689D02*
D03*
X361748D02*
D03*
X381748Y355689D02*
D03*
X391748D02*
D03*
X381748Y365689D02*
D03*
X391748D02*
D03*
X411748Y355689D02*
D03*
Y365689D02*
D03*
X311748Y355689D02*
D03*
X341748D02*
D03*
X371748D02*
D03*
X401748D02*
D03*
X311748Y365689D02*
D03*
X341748D02*
D03*
X371748D02*
D03*
X401748D02*
D03*
X1157795Y624016D02*
D03*
Y594016D02*
D03*
X1177795Y624016D02*
D03*
Y594016D02*
D03*
X1099035Y787457D02*
D03*
X157323Y856457D02*
D03*
X147323D02*
D03*
X157323Y846457D02*
D03*
X147323D02*
D03*
X167323Y856457D02*
D03*
X137323D02*
D03*
Y846457D02*
D03*
X291748Y670650D02*
D03*
X301748D02*
D03*
Y680650D02*
D03*
X321748Y670650D02*
D03*
X331748D02*
D03*
X321748Y680650D02*
D03*
X331748D02*
D03*
X351748Y670650D02*
D03*
X361748D02*
D03*
X351748Y680650D02*
D03*
X361748D02*
D03*
X381748Y670650D02*
D03*
X391748D02*
D03*
X381748Y680650D02*
D03*
X391748D02*
D03*
X411748Y670650D02*
D03*
Y680650D02*
D03*
X311748Y670650D02*
D03*
X341748D02*
D03*
X371748D02*
D03*
X401748D02*
D03*
X311748Y680650D02*
D03*
X341748D02*
D03*
X371748D02*
D03*
X401748D02*
D03*
X1157795Y938976D02*
D03*
Y908976D02*
D03*
X1177795Y938976D02*
D03*
Y908976D02*
D03*
D58*
X82480Y312480D02*
D03*
X102480D02*
D03*
Y282480D02*
D03*
X122480Y312480D02*
D03*
Y282480D02*
D03*
X242717Y35551D02*
D03*
X222716D02*
D03*
Y65551D02*
D03*
X314803Y269843D02*
D03*
X304803D02*
D03*
X284803D02*
D03*
X314803Y259842D02*
D03*
X304803D02*
D03*
X284803D02*
D03*
X324803Y269843D02*
D03*
X294803D02*
D03*
Y259842D02*
D03*
X194724Y269843D02*
D03*
X184724D02*
D03*
X164724D02*
D03*
X194724Y259842D02*
D03*
X184724D02*
D03*
X164724D02*
D03*
X204724Y269843D02*
D03*
X174724D02*
D03*
Y259842D02*
D03*
X82480Y627441D02*
D03*
X102480D02*
D03*
Y597441D02*
D03*
X122480Y627441D02*
D03*
Y597441D02*
D03*
X242717Y350512D02*
D03*
X222716D02*
D03*
Y380512D02*
D03*
X314803Y584803D02*
D03*
X304803D02*
D03*
X284803D02*
D03*
X314803Y574803D02*
D03*
X304803D02*
D03*
X284803D02*
D03*
X324803Y584803D02*
D03*
X294803D02*
D03*
Y574803D02*
D03*
X194724Y584803D02*
D03*
X184724D02*
D03*
X164724D02*
D03*
X194724Y574803D02*
D03*
X184724D02*
D03*
X164724D02*
D03*
X204724Y584803D02*
D03*
X174724D02*
D03*
Y574803D02*
D03*
X82480Y942402D02*
D03*
X102480D02*
D03*
Y912402D02*
D03*
X122480Y942402D02*
D03*
Y912402D02*
D03*
X242717Y665472D02*
D03*
X222716D02*
D03*
Y695472D02*
D03*
X314803Y899764D02*
D03*
X304803D02*
D03*
X284803D02*
D03*
X314803Y889764D02*
D03*
X304803D02*
D03*
X284803D02*
D03*
X324803Y899764D02*
D03*
X294803D02*
D03*
Y889764D02*
D03*
X194724Y899764D02*
D03*
X184724D02*
D03*
X164724D02*
D03*
X194724Y889764D02*
D03*
X184724D02*
D03*
X164724D02*
D03*
X204724Y899764D02*
D03*
X174724D02*
D03*
Y889764D02*
D03*
D59*
X82480Y282480D02*
D03*
X242717Y65551D02*
D03*
X324803Y259842D02*
D03*
X204724D02*
D03*
X291748Y50728D02*
D03*
X82480Y597441D02*
D03*
X242717Y380512D02*
D03*
X324803Y574803D02*
D03*
X204724D02*
D03*
X291748Y365689D02*
D03*
X82480Y912402D02*
D03*
X242717Y695472D02*
D03*
X324803Y889764D02*
D03*
X204724D02*
D03*
X291748Y680650D02*
D03*
D60*
X452756Y314961D02*
D03*
Y39370D02*
D03*
X826772Y314961D02*
D03*
Y39370D02*
D03*
X1220472D02*
D03*
Y314961D02*
D03*
X39370Y39370D02*
D03*
Y314961D02*
D03*
X452756Y629921D02*
D03*
Y354331D02*
D03*
X826772Y629921D02*
D03*
Y354331D02*
D03*
X1220472D02*
D03*
Y629921D02*
D03*
X39370Y354331D02*
D03*
Y629921D02*
D03*
X452756Y944882D02*
D03*
Y669291D02*
D03*
X826772Y944882D02*
D03*
Y669291D02*
D03*
X1220472D02*
D03*
Y944882D02*
D03*
X39370Y669291D02*
D03*
Y944882D02*
D03*
D61*
X29724Y233465D02*
D03*
Y548425D02*
D03*
Y863386D02*
D03*
D62*
X108465Y233465D02*
D03*
Y548425D02*
D03*
Y863386D02*
D03*
D63*
X175197Y315945D02*
D03*
X202756D02*
D03*
X1177685Y126130D02*
D03*
Y62941D02*
D03*
X175197Y630905D02*
D03*
X202756D02*
D03*
X1177685Y441090D02*
D03*
Y377902D02*
D03*
X175197Y945866D02*
D03*
X202756D02*
D03*
X1177685Y756051D02*
D03*
Y692862D02*
D03*
D64*
X1089905Y213035D02*
D03*
X1050535D02*
D03*
X1089905Y527996D02*
D03*
X1050535D02*
D03*
X1089905Y842957D02*
D03*
X1050535D02*
D03*
D65*
X1199535Y82035D02*
D03*
Y102035D02*
D03*
Y112035D02*
D03*
Y92035D02*
D03*
X1189535Y77035D02*
D03*
Y97035D02*
D03*
Y107035D02*
D03*
Y87035D02*
D03*
X1199535Y396996D02*
D03*
Y416996D02*
D03*
Y426996D02*
D03*
Y406996D02*
D03*
X1189535Y391996D02*
D03*
Y411996D02*
D03*
Y421996D02*
D03*
Y401996D02*
D03*
X1199535Y711957D02*
D03*
Y731957D02*
D03*
Y741957D02*
D03*
Y721957D02*
D03*
X1189535Y706957D02*
D03*
Y726957D02*
D03*
Y736957D02*
D03*
Y716957D02*
D03*
D66*
X1224535Y118748D02*
D03*
Y70323D02*
D03*
Y433709D02*
D03*
Y385283D02*
D03*
Y748669D02*
D03*
Y700244D02*
D03*
D67*
X134843Y77756D02*
D03*
X143110Y110433D02*
D03*
X152165Y147441D02*
D03*
X140748Y170276D02*
D03*
X134843Y262008D02*
D03*
X170748Y103228D02*
D03*
X177008Y148543D02*
D03*
X165945Y144291D02*
D03*
X173425Y163976D02*
D03*
X180512Y163583D02*
D03*
X177756Y177756D02*
D03*
X169882Y178150D02*
D03*
X163748Y198228D02*
D03*
X181299Y202559D02*
D03*
X176575Y194685D02*
D03*
X178748Y237228D02*
D03*
X163779Y241732D02*
D03*
X180905Y231299D02*
D03*
X193504Y105709D02*
D03*
X201142Y171181D02*
D03*
X205039Y159646D02*
D03*
X198248Y190728D02*
D03*
X202748Y225728D02*
D03*
X229724Y79331D02*
D03*
X237205Y85236D02*
D03*
X242748Y101728D02*
D03*
X223248Y174228D02*
D03*
X226575Y210827D02*
D03*
X238898Y219291D02*
D03*
X238248Y239228D02*
D03*
X243583Y235787D02*
D03*
X229748Y259228D02*
D03*
X221248D02*
D03*
X269248Y167228D02*
D03*
X260039Y177756D02*
D03*
X250197Y195591D02*
D03*
X255748Y196228D02*
D03*
Y189728D02*
D03*
X267748Y252228D02*
D03*
X296748Y58728D02*
D03*
X303748Y91228D02*
D03*
X296248D02*
D03*
Y75228D02*
D03*
X285236Y73425D02*
D03*
X282248Y106728D02*
D03*
X281693Y143898D02*
D03*
X283748Y179728D02*
D03*
X288248Y175228D02*
D03*
X283748Y210728D02*
D03*
X292748Y207228D02*
D03*
X279748Y191228D02*
D03*
X293779Y234095D02*
D03*
X301417Y228661D02*
D03*
X298937Y315276D02*
D03*
X311248Y59728D02*
D03*
X310248Y91228D02*
D03*
X319764Y106378D02*
D03*
X310118Y162008D02*
D03*
X310197Y180433D02*
D03*
X309842Y221260D02*
D03*
X329567Y303386D02*
D03*
X322480Y321654D02*
D03*
X328622Y310118D02*
D03*
X312992Y317087D02*
D03*
X353748Y72228D02*
D03*
X344748Y106228D02*
D03*
X350433Y149252D02*
D03*
X349016Y175787D02*
D03*
X339921Y204173D02*
D03*
X348248Y230228D02*
D03*
X363748Y234728D02*
D03*
X348819Y220866D02*
D03*
X345472Y266339D02*
D03*
X371063Y99410D02*
D03*
X370197Y162087D02*
D03*
X369882Y173425D02*
D03*
X371811Y205472D02*
D03*
X379606Y205433D02*
D03*
X388228Y281890D02*
D03*
Y317087D02*
D03*
X419882Y59646D02*
D03*
X408858Y106496D02*
D03*
X413228Y144016D02*
D03*
X415590Y200827D02*
D03*
X400984Y205315D02*
D03*
X412677Y234842D02*
D03*
X416929Y282165D02*
D03*
X430315Y151772D02*
D03*
X430276Y170551D02*
D03*
X430512Y164764D02*
D03*
X433819Y197402D02*
D03*
X445079Y204528D02*
D03*
X429291Y228858D02*
D03*
X429331Y238779D02*
D03*
X475248Y148228D02*
D03*
X466748Y175228D02*
D03*
X475000Y183661D02*
D03*
X470248Y165228D02*
D03*
X467717Y160472D02*
D03*
X466248Y209728D02*
D03*
X474748Y196728D02*
D03*
X469488Y235079D02*
D03*
X495248Y32228D02*
D03*
X505248D02*
D03*
X509016Y115591D02*
D03*
X513661Y147913D02*
D03*
X512047Y183740D02*
D03*
X504173Y192756D02*
D03*
X496811Y242756D02*
D03*
Y232205D02*
D03*
X504055D02*
D03*
X513748Y259228D02*
D03*
X525248Y32228D02*
D03*
X535248D02*
D03*
X522795Y151850D02*
D03*
X531496Y202716D02*
D03*
X540197Y228780D02*
D03*
X555248Y32728D02*
D03*
X565248D02*
D03*
X593248Y52728D02*
D03*
X581299Y58071D02*
D03*
X586811Y55315D02*
D03*
X587248Y143228D02*
D03*
X591142Y181299D02*
D03*
X591890Y227795D02*
D03*
X588031Y237795D02*
D03*
X633248Y57228D02*
D03*
X622248Y61728D02*
D03*
X613189Y63583D02*
D03*
X628748Y61228D02*
D03*
X613386Y102126D02*
D03*
X624606Y226969D02*
D03*
X628248Y265728D02*
D03*
X620748Y265228D02*
D03*
X648748Y281728D02*
D03*
X690248Y166728D02*
D03*
X714248Y108728D02*
D03*
X715748Y204228D02*
D03*
X704748Y199228D02*
D03*
X720748Y256728D02*
D03*
X731748Y62728D02*
D03*
X746748Y104228D02*
D03*
X739748Y106728D02*
D03*
X751248Y180228D02*
D03*
X740748Y172228D02*
D03*
X745472Y161614D02*
D03*
X752748Y207228D02*
D03*
X746748Y206728D02*
D03*
X733248Y194728D02*
D03*
X736748Y204728D02*
D03*
X750248Y233728D02*
D03*
X746248Y228728D02*
D03*
X743248Y223728D02*
D03*
X737748Y221728D02*
D03*
X731748D02*
D03*
X739055Y313740D02*
D03*
X783748Y59228D02*
D03*
X760248Y58228D02*
D03*
X763748Y63228D02*
D03*
X774370Y104095D02*
D03*
X760709Y106496D02*
D03*
X771748Y150228D02*
D03*
X780248Y144728D02*
D03*
X778701Y164882D02*
D03*
Y174882D02*
D03*
X775748Y179728D02*
D03*
Y169728D02*
D03*
Y159728D02*
D03*
X778748Y191228D02*
D03*
X778701Y223780D02*
D03*
Y233780D02*
D03*
X775437Y228780D02*
D03*
Y238779D02*
D03*
X778701Y253780D02*
D03*
X770748Y256228D02*
D03*
X766748Y252728D02*
D03*
X810157Y106378D02*
D03*
X790748Y315669D02*
D03*
X828583Y105787D02*
D03*
X828504Y144567D02*
D03*
X842835Y169882D02*
D03*
Y179882D02*
D03*
Y159882D02*
D03*
X823189Y211299D02*
D03*
X842835Y228780D02*
D03*
Y238779D02*
D03*
Y258780D02*
D03*
X836102Y260315D02*
D03*
X834055Y271850D02*
D03*
X827756Y269094D02*
D03*
X873465Y271850D02*
D03*
X891299Y88976D02*
D03*
X896496Y84370D02*
D03*
X902795Y100118D02*
D03*
X898661Y145158D02*
D03*
X895079Y203346D02*
D03*
X888386Y207677D02*
D03*
X879724Y219882D02*
D03*
X881260Y273071D02*
D03*
X913937Y84567D02*
D03*
X916496Y164882D02*
D03*
X911732Y169882D02*
D03*
X916496Y174882D02*
D03*
X911732Y179882D02*
D03*
Y159882D02*
D03*
X916496Y191614D02*
D03*
Y223780D02*
D03*
X911732Y228780D02*
D03*
X916496Y233780D02*
D03*
X911732Y238779D02*
D03*
X916496Y253780D02*
D03*
X911732Y258780D02*
D03*
X957480Y86614D02*
D03*
X945984Y80709D02*
D03*
X960827Y212402D02*
D03*
X949803Y282087D02*
D03*
X971063Y47047D02*
D03*
X969449Y144370D02*
D03*
X985394Y164882D02*
D03*
X980630Y169882D02*
D03*
X985394Y174882D02*
D03*
X980630Y179882D02*
D03*
Y159882D02*
D03*
X985394Y191614D02*
D03*
Y223780D02*
D03*
X980630Y228780D02*
D03*
X985394Y233780D02*
D03*
X980630Y238779D02*
D03*
X985394Y253780D02*
D03*
X980630Y258780D02*
D03*
X990748Y273543D02*
D03*
X1015158Y51378D02*
D03*
X1001378Y74803D02*
D03*
X1021063Y87992D02*
D03*
X1013268Y302402D02*
D03*
X1012795Y282087D02*
D03*
X1044173Y61024D02*
D03*
X1030906Y144291D02*
D03*
X1048622Y145866D02*
D03*
X1082638Y80709D02*
D03*
X1075535Y143535D02*
D03*
X142717Y156890D02*
D03*
X147835Y154528D02*
D03*
X173031Y247047D02*
D03*
X201248Y217228D02*
D03*
X198748Y184728D02*
D03*
X232087Y187598D02*
D03*
X257283Y184055D02*
D03*
X260827Y309252D02*
D03*
X282248Y216228D02*
D03*
X288748Y189228D02*
D03*
X356260Y156339D02*
D03*
X350472Y276024D02*
D03*
X340827Y188268D02*
D03*
X342248Y275728D02*
D03*
X386772Y245709D02*
D03*
X372244Y187835D02*
D03*
X369748Y216228D02*
D03*
X418347Y158386D02*
D03*
X408661Y157953D02*
D03*
X414748Y65228D02*
D03*
X415118Y244016D02*
D03*
X431890Y99252D02*
D03*
X430276Y188268D02*
D03*
X478748Y159228D02*
D03*
X467748Y155228D02*
D03*
X470748Y215228D02*
D03*
X493248Y68728D02*
D03*
X505433Y219094D02*
D03*
X504055Y247205D02*
D03*
X508465Y213976D02*
D03*
X521969Y218071D02*
D03*
X581732Y217795D02*
D03*
X596654Y185630D02*
D03*
X633248Y68228D02*
D03*
X662362Y36488D02*
D03*
X652362Y36449D02*
D03*
X640354Y217913D02*
D03*
X692362Y36449D02*
D03*
X672126D02*
D03*
X682362Y36646D02*
D03*
X681248Y155228D02*
D03*
X674528Y278425D02*
D03*
X702362Y36488D02*
D03*
X712248Y36728D02*
D03*
X731748Y245228D02*
D03*
X737248Y249228D02*
D03*
X772874Y94528D02*
D03*
X766142Y97362D02*
D03*
X779248Y154728D02*
D03*
X778701Y243779D02*
D03*
Y184882D02*
D03*
X775437Y248780D02*
D03*
X762748Y248728D02*
D03*
X842835Y248780D02*
D03*
X900984Y309252D02*
D03*
X916496Y154882D02*
D03*
Y243779D02*
D03*
X911732Y248780D02*
D03*
X916496Y184882D02*
D03*
X985394Y154882D02*
D03*
X971614Y277323D02*
D03*
X985394Y243779D02*
D03*
X980630Y248780D02*
D03*
X985394Y184882D02*
D03*
X1010709Y97323D02*
D03*
X1050827Y95906D02*
D03*
X156102Y106890D02*
D03*
X219248Y106728D02*
D03*
X278748Y169728D02*
D03*
X244685Y175000D02*
D03*
X185748Y210728D02*
D03*
X216248Y201228D02*
D03*
X185787Y225512D02*
D03*
X279248Y220728D02*
D03*
X275394Y225000D02*
D03*
X338248Y72228D02*
D03*
X305118Y171142D02*
D03*
X366248Y221228D02*
D03*
X395866Y280315D02*
D03*
X337205Y310039D02*
D03*
X515248Y32228D02*
D03*
X485157Y113937D02*
D03*
X427598Y176732D02*
D03*
X517126Y161221D02*
D03*
X516181Y193740D02*
D03*
X519252Y204921D02*
D03*
X514016Y200591D02*
D03*
X514764Y227795D02*
D03*
X487677D02*
D03*
X516535Y284764D02*
D03*
X544748Y32728D02*
D03*
X576968Y62795D02*
D03*
X548248Y106728D02*
D03*
X575984Y179606D02*
D03*
X578937Y169882D02*
D03*
X578504Y198307D02*
D03*
X545039Y223780D02*
D03*
X606890Y237598D02*
D03*
X576748Y259228D02*
D03*
X754748Y63728D02*
D03*
X697748Y108728D02*
D03*
X665748Y150728D02*
D03*
X729248Y172228D02*
D03*
Y177728D02*
D03*
Y166728D02*
D03*
X754248Y239228D02*
D03*
X758248Y243728D02*
D03*
X727248Y253228D02*
D03*
X787008Y87598D02*
D03*
X847598Y164882D02*
D03*
Y174882D02*
D03*
Y191614D02*
D03*
Y223780D02*
D03*
Y233780D02*
D03*
Y253780D02*
D03*
X844291Y267913D02*
D03*
X784685Y310157D02*
D03*
X964409Y92165D02*
D03*
X904921Y82480D02*
D03*
X934331Y104331D02*
D03*
X1088583Y50197D02*
D03*
X1027913Y92598D02*
D03*
X98622Y186811D02*
D03*
X248622Y219094D02*
D03*
X306248Y64728D02*
D03*
X428937Y216732D02*
D03*
X604134Y66732D02*
D03*
X575787Y185236D02*
D03*
X729248Y157728D02*
D03*
X847598Y154882D02*
D03*
Y243779D02*
D03*
Y184882D02*
D03*
X996535Y277992D02*
D03*
X963976Y304921D02*
D03*
X479528Y201969D02*
D03*
X379134Y245276D02*
D03*
X884921Y91102D02*
D03*
X867323Y95669D02*
D03*
X873228Y103543D02*
D03*
X863386D02*
D03*
X999213Y97638D02*
D03*
X983465Y268898D02*
D03*
X977559Y203937D02*
D03*
X989055D02*
D03*
X196850Y299213D02*
D03*
X170472Y298819D02*
D03*
X299213Y196850D02*
D03*
X646063Y37402D02*
D03*
X781496Y50787D02*
D03*
X1019685Y218504D02*
D03*
X134843Y392717D02*
D03*
X143110Y425394D02*
D03*
X152165Y462402D02*
D03*
X140748Y485236D02*
D03*
X134843Y576968D02*
D03*
X170748Y418189D02*
D03*
X177008Y463504D02*
D03*
X165945Y459252D02*
D03*
X173425Y478937D02*
D03*
X180512Y478543D02*
D03*
X177756Y492717D02*
D03*
X169882Y493110D02*
D03*
X163748Y513189D02*
D03*
X181299Y517520D02*
D03*
X176575Y509646D02*
D03*
X178748Y552189D02*
D03*
X163779Y556693D02*
D03*
X180905Y546260D02*
D03*
X193504Y420669D02*
D03*
X201142Y486142D02*
D03*
X205039Y474606D02*
D03*
X198248Y505689D02*
D03*
X202748Y540689D02*
D03*
X229724Y394291D02*
D03*
X237205Y400197D02*
D03*
X242748Y416689D02*
D03*
X223248Y489189D02*
D03*
X226575Y525787D02*
D03*
X238898Y534252D02*
D03*
X238248Y554189D02*
D03*
X243583Y550748D02*
D03*
X229748Y574189D02*
D03*
X221248D02*
D03*
X269248Y482189D02*
D03*
X260039Y492717D02*
D03*
X250197Y510551D02*
D03*
X255748Y511189D02*
D03*
Y504689D02*
D03*
X267748Y567189D02*
D03*
X296748Y373689D02*
D03*
X303748Y406189D02*
D03*
X296248D02*
D03*
Y390189D02*
D03*
X285236Y388386D02*
D03*
X282248Y421689D02*
D03*
X281693Y458858D02*
D03*
X283748Y494689D02*
D03*
X288248Y490189D02*
D03*
X283748Y525689D02*
D03*
X292748Y522189D02*
D03*
X279748Y506189D02*
D03*
X293779Y549055D02*
D03*
X301417Y543622D02*
D03*
X298937Y630236D02*
D03*
X311248Y374689D02*
D03*
X310248Y406189D02*
D03*
X319764Y421339D02*
D03*
X310118Y476968D02*
D03*
X310197Y495394D02*
D03*
X309842Y536221D02*
D03*
X329567Y618347D02*
D03*
X322480Y636614D02*
D03*
X328622Y625079D02*
D03*
X312992Y632047D02*
D03*
X353748Y387189D02*
D03*
X344748Y421189D02*
D03*
X350433Y464213D02*
D03*
X349016Y490748D02*
D03*
X339921Y519134D02*
D03*
X348248Y545189D02*
D03*
X363748Y549689D02*
D03*
X348819Y535827D02*
D03*
X345472Y581299D02*
D03*
X371063Y414370D02*
D03*
X370197Y477047D02*
D03*
X369882Y488386D02*
D03*
X371811Y520433D02*
D03*
X379606Y520394D02*
D03*
X388228Y596850D02*
D03*
Y632047D02*
D03*
X419882Y374606D02*
D03*
X408858Y421457D02*
D03*
X413228Y458976D02*
D03*
X415590Y515787D02*
D03*
X400984Y520276D02*
D03*
X412677Y549803D02*
D03*
X416929Y597126D02*
D03*
X430315Y466732D02*
D03*
X430276Y485512D02*
D03*
X430512Y479724D02*
D03*
X433819Y512362D02*
D03*
X445079Y519488D02*
D03*
X429291Y543819D02*
D03*
X429331Y553740D02*
D03*
X475248Y463189D02*
D03*
X466748Y490189D02*
D03*
X475000Y498622D02*
D03*
X470248Y480189D02*
D03*
X467717Y475433D02*
D03*
X466248Y524689D02*
D03*
X474748Y511689D02*
D03*
X469488Y550039D02*
D03*
X495248Y347189D02*
D03*
X505248D02*
D03*
X509016Y430551D02*
D03*
X513661Y462874D02*
D03*
X512047Y498701D02*
D03*
X504173Y507717D02*
D03*
X496811Y557717D02*
D03*
Y547165D02*
D03*
X504055D02*
D03*
X513748Y574189D02*
D03*
X525248Y347189D02*
D03*
X535248D02*
D03*
X522795Y466811D02*
D03*
X531496Y517677D02*
D03*
X540197Y543740D02*
D03*
X555248Y347689D02*
D03*
X565248D02*
D03*
X593248Y367689D02*
D03*
X581299Y373031D02*
D03*
X586811Y370276D02*
D03*
X587248Y458189D02*
D03*
X591142Y496260D02*
D03*
X591890Y542756D02*
D03*
X588031Y552756D02*
D03*
X633248Y372189D02*
D03*
X622248Y376689D02*
D03*
X613189Y378543D02*
D03*
X628748Y376189D02*
D03*
X613386Y417087D02*
D03*
X624606Y541929D02*
D03*
X628248Y580689D02*
D03*
X620748Y580189D02*
D03*
X648748Y596689D02*
D03*
X690248Y481689D02*
D03*
X714248Y423689D02*
D03*
X715748Y519189D02*
D03*
X704748Y514189D02*
D03*
X720748Y571689D02*
D03*
X731748Y377689D02*
D03*
X746748Y419189D02*
D03*
X739748Y421689D02*
D03*
X751248Y495189D02*
D03*
X740748Y487189D02*
D03*
X745472Y476575D02*
D03*
X752748Y522189D02*
D03*
X746748Y521689D02*
D03*
X733248Y509689D02*
D03*
X736748Y519689D02*
D03*
X750248Y548689D02*
D03*
X746248Y543689D02*
D03*
X743248Y538689D02*
D03*
X737748Y536689D02*
D03*
X731748D02*
D03*
X739055Y628701D02*
D03*
X783748Y374189D02*
D03*
X760248Y373189D02*
D03*
X763748Y378189D02*
D03*
X774370Y419055D02*
D03*
X760709Y421457D02*
D03*
X771748Y465189D02*
D03*
X780248Y459689D02*
D03*
X778701Y479843D02*
D03*
Y489843D02*
D03*
X775748Y494689D02*
D03*
Y484689D02*
D03*
Y474689D02*
D03*
X778748Y506189D02*
D03*
X778701Y538740D02*
D03*
Y548740D02*
D03*
X775437Y543740D02*
D03*
Y553740D02*
D03*
X778701Y568740D02*
D03*
X770748Y571189D02*
D03*
X766748Y567689D02*
D03*
X810157Y421339D02*
D03*
X790748Y630630D02*
D03*
X828583Y420748D02*
D03*
X828504Y459528D02*
D03*
X842835Y484842D02*
D03*
Y494842D02*
D03*
Y474843D02*
D03*
X823189Y526260D02*
D03*
X842835Y543740D02*
D03*
Y553740D02*
D03*
Y573740D02*
D03*
X836102Y575276D02*
D03*
X834055Y586811D02*
D03*
X827756Y584055D02*
D03*
X873465Y586811D02*
D03*
X891299Y403937D02*
D03*
X896496Y399331D02*
D03*
X902795Y415079D02*
D03*
X898661Y460118D02*
D03*
X895079Y518307D02*
D03*
X888386Y522638D02*
D03*
X879724Y534842D02*
D03*
X881260Y588031D02*
D03*
X913937Y399528D02*
D03*
X916496Y479843D02*
D03*
X911732Y484842D02*
D03*
X916496Y489843D02*
D03*
X911732Y494842D02*
D03*
Y474843D02*
D03*
X916496Y506575D02*
D03*
Y538740D02*
D03*
X911732Y543740D02*
D03*
X916496Y548740D02*
D03*
X911732Y553740D02*
D03*
X916496Y568740D02*
D03*
X911732Y573740D02*
D03*
X957480Y401575D02*
D03*
X945984Y395669D02*
D03*
X960827Y527362D02*
D03*
X949803Y597047D02*
D03*
X971063Y362008D02*
D03*
X969449Y459331D02*
D03*
X985394Y479843D02*
D03*
X980630Y484842D02*
D03*
X985394Y489843D02*
D03*
X980630Y494842D02*
D03*
Y474843D02*
D03*
X985394Y506575D02*
D03*
Y538740D02*
D03*
X980630Y543740D02*
D03*
X985394Y548740D02*
D03*
X980630Y553740D02*
D03*
X985394Y568740D02*
D03*
X980630Y573740D02*
D03*
X990748Y588504D02*
D03*
X1015158Y366339D02*
D03*
X1001378Y389764D02*
D03*
X1021063Y402953D02*
D03*
X1013268Y617362D02*
D03*
X1012795Y597047D02*
D03*
X1044173Y375984D02*
D03*
X1030906Y459252D02*
D03*
X1048622Y460827D02*
D03*
X1082638Y395669D02*
D03*
X1075535Y458496D02*
D03*
X142717Y471850D02*
D03*
X147835Y469488D02*
D03*
X173031Y562008D02*
D03*
X201248Y532189D02*
D03*
X198748Y499689D02*
D03*
X232087Y502559D02*
D03*
X257283Y499016D02*
D03*
X260827Y624213D02*
D03*
X282248Y531189D02*
D03*
X288748Y504189D02*
D03*
X356260Y471299D02*
D03*
X350472Y590984D02*
D03*
X340827Y503228D02*
D03*
X342248Y590689D02*
D03*
X386772Y560669D02*
D03*
X372244Y502795D02*
D03*
X369748Y531189D02*
D03*
X418347Y473347D02*
D03*
X408661Y472913D02*
D03*
X414748Y380189D02*
D03*
X415118Y558976D02*
D03*
X431890Y414213D02*
D03*
X430276Y503228D02*
D03*
X478748Y474189D02*
D03*
X467748Y470189D02*
D03*
X470748Y530189D02*
D03*
X493248Y383689D02*
D03*
X505433Y534055D02*
D03*
X504055Y562165D02*
D03*
X508465Y528937D02*
D03*
X521969Y533032D02*
D03*
X581732Y532756D02*
D03*
X596654Y500591D02*
D03*
X633248Y383189D02*
D03*
X662362Y351449D02*
D03*
X652362Y351410D02*
D03*
X640354Y532874D02*
D03*
X692362Y351410D02*
D03*
X672126D02*
D03*
X682362Y351606D02*
D03*
X681248Y470189D02*
D03*
X674528Y593386D02*
D03*
X702362Y351449D02*
D03*
X712248Y351689D02*
D03*
X731748Y560189D02*
D03*
X737248Y564189D02*
D03*
X772874Y409488D02*
D03*
X766142Y412323D02*
D03*
X779248Y469689D02*
D03*
X778701Y558740D02*
D03*
Y499843D02*
D03*
X775437Y563740D02*
D03*
X762748Y563689D02*
D03*
X842835Y563740D02*
D03*
X900984Y624213D02*
D03*
X916496Y469842D02*
D03*
Y558740D02*
D03*
X911732Y563740D02*
D03*
X916496Y499843D02*
D03*
X985394Y469842D02*
D03*
X971614Y592283D02*
D03*
X985394Y558740D02*
D03*
X980630Y563740D02*
D03*
X985394Y499843D02*
D03*
X1010709Y412284D02*
D03*
X1050827Y410866D02*
D03*
X156102Y421850D02*
D03*
X219248Y421689D02*
D03*
X278748Y484689D02*
D03*
X244685Y489961D02*
D03*
X185748Y525689D02*
D03*
X216248Y516189D02*
D03*
X185787Y540472D02*
D03*
X279248Y535689D02*
D03*
X275394Y539961D02*
D03*
X338248Y387189D02*
D03*
X305118Y486102D02*
D03*
X366248Y536189D02*
D03*
X395866Y595276D02*
D03*
X337205Y625000D02*
D03*
X515248Y347189D02*
D03*
X485157Y428898D02*
D03*
X427598Y491693D02*
D03*
X517126Y476181D02*
D03*
X516181Y508701D02*
D03*
X519252Y519882D02*
D03*
X514016Y515551D02*
D03*
X514764Y542756D02*
D03*
X487677D02*
D03*
X516535Y599724D02*
D03*
X544748Y347689D02*
D03*
X576968Y377756D02*
D03*
X548248Y421689D02*
D03*
X575984Y494567D02*
D03*
X578937Y484842D02*
D03*
X578504Y513268D02*
D03*
X545039Y538740D02*
D03*
X606890Y552559D02*
D03*
X576748Y574189D02*
D03*
X754748Y378689D02*
D03*
X697748Y423689D02*
D03*
X665748Y465689D02*
D03*
X729248Y487189D02*
D03*
Y492689D02*
D03*
Y481689D02*
D03*
X754248Y554189D02*
D03*
X758248Y558689D02*
D03*
X727248Y568189D02*
D03*
X787008Y402559D02*
D03*
X847598Y479843D02*
D03*
Y489843D02*
D03*
Y506575D02*
D03*
Y538740D02*
D03*
Y548740D02*
D03*
Y568740D02*
D03*
X844291Y582874D02*
D03*
X784685Y625118D02*
D03*
X964409Y407126D02*
D03*
X904921Y397441D02*
D03*
X934331Y419291D02*
D03*
X1088583Y365158D02*
D03*
X1027913Y407559D02*
D03*
X98622Y501772D02*
D03*
X248622Y534055D02*
D03*
X306248Y379689D02*
D03*
X428937Y531693D02*
D03*
X604134Y381693D02*
D03*
X575787Y500197D02*
D03*
X729248Y472689D02*
D03*
X847598Y469842D02*
D03*
Y558740D02*
D03*
Y499843D02*
D03*
X996535Y592953D02*
D03*
X963976Y619882D02*
D03*
X479528Y516929D02*
D03*
X379134Y560236D02*
D03*
X884921Y406063D02*
D03*
X867323Y410630D02*
D03*
X873228Y418504D02*
D03*
X863386D02*
D03*
X999213Y412598D02*
D03*
X983465Y583858D02*
D03*
X977559Y518898D02*
D03*
X989055D02*
D03*
X196850Y614173D02*
D03*
X170472Y613779D02*
D03*
X299213Y511811D02*
D03*
X646063Y352362D02*
D03*
X781496Y365748D02*
D03*
X1019685Y533465D02*
D03*
X134843Y707677D02*
D03*
X143110Y740354D02*
D03*
X152165Y777362D02*
D03*
X140748Y800197D02*
D03*
X134843Y891929D02*
D03*
X170748Y733150D02*
D03*
X177008Y778465D02*
D03*
X165945Y774213D02*
D03*
X173425Y793898D02*
D03*
X180512Y793504D02*
D03*
X177756Y807677D02*
D03*
X169882Y808071D02*
D03*
X163748Y828150D02*
D03*
X181299Y832480D02*
D03*
X176575Y824606D02*
D03*
X178748Y867150D02*
D03*
X163779Y871653D02*
D03*
X180905Y861220D02*
D03*
X193504Y735630D02*
D03*
X201142Y801102D02*
D03*
X205039Y789567D02*
D03*
X198248Y820650D02*
D03*
X202748Y855650D02*
D03*
X229724Y709252D02*
D03*
X237205Y715158D02*
D03*
X242748Y731650D02*
D03*
X223248Y804150D02*
D03*
X226575Y840748D02*
D03*
X238898Y849213D02*
D03*
X238248Y869150D02*
D03*
X243583Y865709D02*
D03*
X229748Y889150D02*
D03*
X221248D02*
D03*
X269248Y797150D02*
D03*
X260039Y807677D02*
D03*
X250197Y825512D02*
D03*
X255748Y826150D02*
D03*
Y819650D02*
D03*
X267748Y882150D02*
D03*
X296748Y688650D02*
D03*
X303748Y721150D02*
D03*
X296248D02*
D03*
Y705150D02*
D03*
X285236Y703346D02*
D03*
X282248Y736650D02*
D03*
X281693Y773819D02*
D03*
X283748Y809650D02*
D03*
X288248Y805150D02*
D03*
X283748Y840650D02*
D03*
X292748Y837150D02*
D03*
X279748Y821150D02*
D03*
X293779Y864016D02*
D03*
X301417Y858583D02*
D03*
X298937Y945197D02*
D03*
X311248Y689650D02*
D03*
X310248Y721150D02*
D03*
X319764Y736299D02*
D03*
X310118Y791929D02*
D03*
X310197Y810354D02*
D03*
X309842Y851181D02*
D03*
X329567Y933307D02*
D03*
X322480Y951575D02*
D03*
X328622Y940039D02*
D03*
X312992Y947008D02*
D03*
X353748Y702150D02*
D03*
X344748Y736150D02*
D03*
X350433Y779173D02*
D03*
X349016Y805709D02*
D03*
X339921Y834095D02*
D03*
X348248Y860150D02*
D03*
X363748Y864650D02*
D03*
X348819Y850787D02*
D03*
X345472Y896260D02*
D03*
X371063Y729331D02*
D03*
X370197Y792008D02*
D03*
X369882Y803347D02*
D03*
X371811Y835394D02*
D03*
X379606Y835354D02*
D03*
X388228Y911811D02*
D03*
Y947008D02*
D03*
X419882Y689567D02*
D03*
X408858Y736417D02*
D03*
X413228Y773937D02*
D03*
X415590Y830748D02*
D03*
X400984Y835236D02*
D03*
X412677Y864764D02*
D03*
X416929Y912087D02*
D03*
X430315Y781693D02*
D03*
X430276Y800472D02*
D03*
X430512Y794685D02*
D03*
X433819Y827323D02*
D03*
X445079Y834449D02*
D03*
X429291Y858780D02*
D03*
X429331Y868701D02*
D03*
X475248Y778150D02*
D03*
X466748Y805150D02*
D03*
X475000Y813583D02*
D03*
X470248Y795150D02*
D03*
X467717Y790394D02*
D03*
X466248Y839650D02*
D03*
X474748Y826650D02*
D03*
X469488Y865000D02*
D03*
X495248Y662150D02*
D03*
X505248D02*
D03*
X509016Y745512D02*
D03*
X513661Y777835D02*
D03*
X512047Y813661D02*
D03*
X504173Y822677D02*
D03*
X496811Y872677D02*
D03*
Y862126D02*
D03*
X504055D02*
D03*
X513748Y889150D02*
D03*
X525248Y662150D02*
D03*
X535248D02*
D03*
X522795Y781772D02*
D03*
X531496Y832638D02*
D03*
X540197Y858701D02*
D03*
X555248Y662650D02*
D03*
X565248D02*
D03*
X593248Y682650D02*
D03*
X581299Y687992D02*
D03*
X586811Y685236D02*
D03*
X587248Y773150D02*
D03*
X591142Y811220D02*
D03*
X591890Y857716D02*
D03*
X588031Y867717D02*
D03*
X633248Y687150D02*
D03*
X622248Y691650D02*
D03*
X613189Y693504D02*
D03*
X628748Y691150D02*
D03*
X613386Y732047D02*
D03*
X624606Y856890D02*
D03*
X628248Y895650D02*
D03*
X620748Y895150D02*
D03*
X648748Y911650D02*
D03*
X690248Y796650D02*
D03*
X714248Y738650D02*
D03*
X715748Y834150D02*
D03*
X704748Y829150D02*
D03*
X720748Y886650D02*
D03*
X731748Y692650D02*
D03*
X746748Y734150D02*
D03*
X739748Y736650D02*
D03*
X751248Y810150D02*
D03*
X740748Y802150D02*
D03*
X745472Y791535D02*
D03*
X752748Y837150D02*
D03*
X746748Y836650D02*
D03*
X733248Y824650D02*
D03*
X736748Y834650D02*
D03*
X750248Y863650D02*
D03*
X746248Y858650D02*
D03*
X743248Y853650D02*
D03*
X737748Y851650D02*
D03*
X731748D02*
D03*
X739055Y943661D02*
D03*
X783748Y689150D02*
D03*
X760248Y688150D02*
D03*
X763748Y693150D02*
D03*
X774370Y734016D02*
D03*
X760709Y736417D02*
D03*
X771748Y780150D02*
D03*
X780248Y774650D02*
D03*
X778701Y794803D02*
D03*
Y804803D02*
D03*
X775748Y809650D02*
D03*
Y799650D02*
D03*
Y789650D02*
D03*
X778748Y821150D02*
D03*
X778701Y853701D02*
D03*
Y863701D02*
D03*
X775437Y858701D02*
D03*
Y868701D02*
D03*
X778701Y883701D02*
D03*
X770748Y886150D02*
D03*
X766748Y882650D02*
D03*
X810157Y736299D02*
D03*
X790748Y945591D02*
D03*
X828583Y735709D02*
D03*
X828504Y774488D02*
D03*
X842835Y799803D02*
D03*
Y809803D02*
D03*
Y789803D02*
D03*
X823189Y841220D02*
D03*
X842835Y858701D02*
D03*
Y868701D02*
D03*
Y888701D02*
D03*
X836102Y890236D02*
D03*
X834055Y901772D02*
D03*
X827756Y899016D02*
D03*
X873465Y901772D02*
D03*
X891299Y718898D02*
D03*
X896496Y714291D02*
D03*
X902795Y730039D02*
D03*
X898661Y775079D02*
D03*
X895079Y833268D02*
D03*
X888386Y837598D02*
D03*
X879724Y849803D02*
D03*
X881260Y902992D02*
D03*
X913937Y714488D02*
D03*
X916496Y794803D02*
D03*
X911732Y799803D02*
D03*
X916496Y804803D02*
D03*
X911732Y809803D02*
D03*
Y789803D02*
D03*
X916496Y821535D02*
D03*
Y853701D02*
D03*
X911732Y858701D02*
D03*
X916496Y863701D02*
D03*
X911732Y868701D02*
D03*
X916496Y883701D02*
D03*
X911732Y888701D02*
D03*
X957480Y716535D02*
D03*
X945984Y710630D02*
D03*
X960827Y842323D02*
D03*
X949803Y912008D02*
D03*
X971063Y676968D02*
D03*
X969449Y774291D02*
D03*
X985394Y794803D02*
D03*
X980630Y799803D02*
D03*
X985394Y804803D02*
D03*
X980630Y809803D02*
D03*
Y789803D02*
D03*
X985394Y821535D02*
D03*
Y853701D02*
D03*
X980630Y858701D02*
D03*
X985394Y863701D02*
D03*
X980630Y868701D02*
D03*
X985394Y883701D02*
D03*
X980630Y888701D02*
D03*
X990748Y903465D02*
D03*
X1015158Y681299D02*
D03*
X1001378Y704724D02*
D03*
X1021063Y717913D02*
D03*
X1013268Y932323D02*
D03*
X1012795Y912008D02*
D03*
X1044173Y690945D02*
D03*
X1030906Y774213D02*
D03*
X1048622Y775787D02*
D03*
X1082638Y710630D02*
D03*
X1075535Y773457D02*
D03*
X142717Y786811D02*
D03*
X147835Y784449D02*
D03*
X173031Y876968D02*
D03*
X201248Y847150D02*
D03*
X198748Y814650D02*
D03*
X232087Y817520D02*
D03*
X257283Y813976D02*
D03*
X260827Y939173D02*
D03*
X282248Y846150D02*
D03*
X288748Y819150D02*
D03*
X356260Y786260D02*
D03*
X350472Y905945D02*
D03*
X340827Y818189D02*
D03*
X342248Y905650D02*
D03*
X386772Y875630D02*
D03*
X372244Y817756D02*
D03*
X369748Y846150D02*
D03*
X418347Y788307D02*
D03*
X408661Y787874D02*
D03*
X414748Y695150D02*
D03*
X415118Y873937D02*
D03*
X431890Y729173D02*
D03*
X430276Y818189D02*
D03*
X478748Y789150D02*
D03*
X467748Y785150D02*
D03*
X470748Y845150D02*
D03*
X493248Y698650D02*
D03*
X505433Y849016D02*
D03*
X504055Y877126D02*
D03*
X508465Y843898D02*
D03*
X521969Y847992D02*
D03*
X581732Y847717D02*
D03*
X596654Y815551D02*
D03*
X633248Y698150D02*
D03*
X662362Y666409D02*
D03*
X652362Y666370D02*
D03*
X640354Y847835D02*
D03*
X692362Y666370D02*
D03*
X672126D02*
D03*
X682362Y666567D02*
D03*
X681248Y785150D02*
D03*
X674528Y908346D02*
D03*
X702362Y666409D02*
D03*
X712248Y666650D02*
D03*
X731748Y875150D02*
D03*
X737248Y879150D02*
D03*
X772874Y724449D02*
D03*
X766142Y727283D02*
D03*
X779248Y784650D02*
D03*
X778701Y873701D02*
D03*
Y814803D02*
D03*
X775437Y878701D02*
D03*
X762748Y878650D02*
D03*
X842835Y878701D02*
D03*
X900984Y939173D02*
D03*
X916496Y784803D02*
D03*
Y873701D02*
D03*
X911732Y878701D02*
D03*
X916496Y814803D02*
D03*
X985394Y784803D02*
D03*
X971614Y907244D02*
D03*
X985394Y873701D02*
D03*
X980630Y878701D02*
D03*
X985394Y814803D02*
D03*
X1010709Y727244D02*
D03*
X1050827Y725827D02*
D03*
X156102Y736811D02*
D03*
X219248Y736650D02*
D03*
X278748Y799650D02*
D03*
X244685Y804921D02*
D03*
X185748Y840650D02*
D03*
X216248Y831150D02*
D03*
X185787Y855433D02*
D03*
X279248Y850650D02*
D03*
X275394Y854921D02*
D03*
X338248Y702150D02*
D03*
X305118Y801063D02*
D03*
X366248Y851150D02*
D03*
X395866Y910236D02*
D03*
X337205Y939961D02*
D03*
X515248Y662150D02*
D03*
X485157Y743858D02*
D03*
X427598Y806653D02*
D03*
X517126Y791142D02*
D03*
X516181Y823661D02*
D03*
X519252Y834842D02*
D03*
X514016Y830512D02*
D03*
X514764Y857716D02*
D03*
X487677D02*
D03*
X516535Y914685D02*
D03*
X544748Y662650D02*
D03*
X576968Y692717D02*
D03*
X548248Y736650D02*
D03*
X575984Y809528D02*
D03*
X578937Y799803D02*
D03*
X578504Y828228D02*
D03*
X545039Y853701D02*
D03*
X606890Y867520D02*
D03*
X576748Y889150D02*
D03*
X754748Y693650D02*
D03*
X697748Y738650D02*
D03*
X665748Y780650D02*
D03*
X729248Y802150D02*
D03*
Y807650D02*
D03*
Y796650D02*
D03*
X754248Y869150D02*
D03*
X758248Y873650D02*
D03*
X727248Y883150D02*
D03*
X787008Y717520D02*
D03*
X847598Y794803D02*
D03*
Y804803D02*
D03*
Y821535D02*
D03*
Y853701D02*
D03*
Y863701D02*
D03*
Y883701D02*
D03*
X844291Y897835D02*
D03*
X784685Y940079D02*
D03*
X964409Y722087D02*
D03*
X904921Y712402D02*
D03*
X934331Y734252D02*
D03*
X1088583Y680118D02*
D03*
X1027913Y722520D02*
D03*
X98622Y816732D02*
D03*
X248622Y849016D02*
D03*
X306248Y694650D02*
D03*
X428937Y846653D02*
D03*
X604134Y696654D02*
D03*
X575787Y815158D02*
D03*
X729248Y787650D02*
D03*
X847598Y784803D02*
D03*
Y873701D02*
D03*
Y814803D02*
D03*
X996535Y907913D02*
D03*
X963976Y934842D02*
D03*
X479528Y831890D02*
D03*
X379134Y875197D02*
D03*
X884921Y721024D02*
D03*
X867323Y725591D02*
D03*
X873228Y733465D02*
D03*
X863386D02*
D03*
X999213Y727559D02*
D03*
X983465Y898819D02*
D03*
X977559Y833858D02*
D03*
X989055D02*
D03*
X196850Y929134D02*
D03*
X170472Y928740D02*
D03*
X299213Y826772D02*
D03*
X646063Y667323D02*
D03*
X781496Y680709D02*
D03*
X1019685Y848425D02*
D03*
D68*
X1082535Y108535D02*
D03*
X1090035Y116035D02*
D03*
X1127535Y241535D02*
D03*
X1161035Y87035D02*
D03*
X1150535Y90535D02*
D03*
X1093035Y188035D02*
D03*
X1141035Y158535D02*
D03*
X1083535Y143535D02*
D03*
X1174535Y77535D02*
D03*
X1148035Y166535D02*
D03*
X1115354Y150787D02*
D03*
X1218504Y108268D02*
D03*
X1082535Y423496D02*
D03*
X1090035Y430996D02*
D03*
X1127535Y556496D02*
D03*
X1161035Y401996D02*
D03*
X1150535Y405496D02*
D03*
X1093035Y502996D02*
D03*
X1141035Y473496D02*
D03*
X1083535Y458496D02*
D03*
X1174535Y392496D02*
D03*
X1148035Y481496D02*
D03*
X1115354Y465748D02*
D03*
X1218504Y423228D02*
D03*
X1082535Y738457D02*
D03*
X1090035Y745957D02*
D03*
X1127535Y871457D02*
D03*
X1161035Y716957D02*
D03*
X1150535Y720457D02*
D03*
X1093035Y817957D02*
D03*
X1141035Y788457D02*
D03*
X1083535Y773457D02*
D03*
X1174535Y707457D02*
D03*
X1148035Y796457D02*
D03*
X1115354Y780709D02*
D03*
X1218504Y738189D02*
D03*
D69*
X642248Y27941D02*
D03*
X652248D02*
D03*
X662248D02*
D03*
X672248D02*
D03*
X682248D02*
D03*
X692248D02*
D03*
X702248D02*
D03*
X712248D02*
D03*
X642248Y63728D02*
D03*
X652248D02*
D03*
X662248D02*
D03*
X672248D02*
D03*
X682248D02*
D03*
X692248D02*
D03*
X702248D02*
D03*
X712248D02*
D03*
X495248Y26941D02*
D03*
X505248D02*
D03*
X515248D02*
D03*
X525248D02*
D03*
X535248D02*
D03*
X545248D02*
D03*
X555248D02*
D03*
X565248D02*
D03*
X495248Y62728D02*
D03*
X505248D02*
D03*
X515248D02*
D03*
X525248D02*
D03*
X535248D02*
D03*
X545248D02*
D03*
X555248D02*
D03*
X565248D02*
D03*
X642248Y342902D02*
D03*
X652248D02*
D03*
X662248D02*
D03*
X672248D02*
D03*
X682248D02*
D03*
X692248D02*
D03*
X702248D02*
D03*
X712248D02*
D03*
X642248Y378689D02*
D03*
X652248D02*
D03*
X662248D02*
D03*
X672248D02*
D03*
X682248D02*
D03*
X692248D02*
D03*
X702248D02*
D03*
X712248D02*
D03*
X495248Y341902D02*
D03*
X505248D02*
D03*
X515248D02*
D03*
X525248D02*
D03*
X535248D02*
D03*
X545248D02*
D03*
X555248D02*
D03*
X565248D02*
D03*
X495248Y377689D02*
D03*
X505248D02*
D03*
X515248D02*
D03*
X525248D02*
D03*
X535248D02*
D03*
X545248D02*
D03*
X555248D02*
D03*
X565248D02*
D03*
X642248Y657862D02*
D03*
X652248D02*
D03*
X662248D02*
D03*
X672248D02*
D03*
X682248D02*
D03*
X692248D02*
D03*
X702248D02*
D03*
X712248D02*
D03*
X642248Y693650D02*
D03*
X652248D02*
D03*
X662248D02*
D03*
X672248D02*
D03*
X682248D02*
D03*
X692248D02*
D03*
X702248D02*
D03*
X712248D02*
D03*
X495248Y656862D02*
D03*
X505248D02*
D03*
X515248D02*
D03*
X525248D02*
D03*
X535248D02*
D03*
X545248D02*
D03*
X555248D02*
D03*
X565248D02*
D03*
X495248Y692650D02*
D03*
X505248D02*
D03*
X515248D02*
D03*
X525248D02*
D03*
X535248D02*
D03*
X545248D02*
D03*
X555248D02*
D03*
X565248D02*
D03*
D70*
X98622Y154921D02*
Y186811D01*
X56102Y181102D02*
X108465Y233465D01*
X98622Y469882D02*
Y501772D01*
X56102Y496063D02*
X108465Y548425D01*
X98622Y784842D02*
Y816732D01*
X56102Y811024D02*
X108465Y863386D01*
M02*
